<svg width="48" height="48" fill="none" xmlns="http://www.w3.org/2000/svg"><rect width="48" height="48" rx="4" fill="#FF6C5C" fill-opacity=".1"/><path opacity=".35" d="M12.115 17.026c.296 2.204 1.454 7.27 6.022 11.837 4.569 4.568 9.633 5.727 11.838 6.023a4.96 4.96 0 004.571-1.335c1.941-1.941-5.09-8.973-7.032-7.032l-1.239 1.239-7.032-7.032 1.237-1.24c1.942-1.94-5.09-8.973-7.032-7.031a4.956 4.956 0 00-1.333 4.57z" fill="#FF6262"/><path d="M13.452 12.452l7.031 7.031a4.972 4.972 0 00-7.03-7.03zm14.064 14.066l7.031 7.03a4.972 4.972 0 00-7.03-7.03z" fill="#FF6262"/></svg>