<svg width="60" height="60" fill="none" xmlns="http://www.w3.org/2000/svg"><path opacity=".35" d="M40.516 42.019H19.484a4.506 4.506 0 01-4.507-4.507V22.489a4.507 4.507 0 014.507-4.507h21.032a4.507 4.507 0 014.507 4.507v15.023a4.507 4.507 0 01-4.507 4.507z" fill="#FF6262"/><path d="M26.908 29.647l-9.99-5.993c-1.204-.723-2.063-2.105-1.385-3.336a4.506 4.506 0 013.95-2.336h21.033c1.702 0 3.183.944 3.95 2.336.678 1.23-.18 2.613-1.386 3.336l-9.989 5.993a6.01 6.01 0 01-6.183 0z" fill="#FF6262"/><path opacity=".1" d="M56 0H4a4 4 0 00-4 4v52a4 4 0 004 4h52a4 4 0 004-4V4a4 4 0 00-4-4z" fill="#FF6262"/></svg>