<svg width="60" height="60" fill="none" xmlns="http://www.w3.org/2000/svg"><path opacity=".1" d="M56 0H4a4 4 0 00-4 4v52a4 4 0 004 4h52a4 4 0 004-4V4a4 4 0 00-4-4z" fill="#FFC226"/><path opacity=".3" d="M37.825 45.334a3.176 3.176 0 01-3.175-3.175v-25.4a3.176 3.176 0 016.35 0v25.4a3.176 3.176 0 01-3.175 3.175z" fill="#FFC226"/><path d="M26.713 45.334a3.176 3.176 0 01-3.175-3.175V26.284a3.176 3.176 0 016.35 0v15.875a3.176 3.176 0 01-3.175 3.175zm-11.112 0a3.176 3.176 0 01-3.175-3.175v-6.35a3.176 3.176 0 016.35 0v6.35a3.176 3.176 0 01-3.175 3.175z" fill="#FFC226"/></svg>