<svg width="62" height="62" fill="none" xmlns="http://www.w3.org/2000/svg"><path d="M44.583 40.502l-4.041-4.042a13.021 13.021 0 01-4.08 4.08l4.04 4.042a2.885 2.885 0 104.081-4.08z" fill="#4A3AFF"/><path opacity=".35" d="M29.556 42.542c7.172 0 12.986-5.814 12.986-12.985 0-7.172-5.814-12.986-12.986-12.986-7.172 0-12.986 5.814-12.986 12.986 0 7.171 5.814 12.985 12.986 12.985z" fill="#4A3AFF"/><path opacity=".1" d="M57 1H5a4 4 0 00-4 4v52a4 4 0 004 4h52a4 4 0 004-4V5a4 4 0 00-4-4z" fill="#4A3AFF" stroke="#4A3AFF" stroke-width=".703"/></svg>