<svg width="60" height="60" fill="none" xmlns="http://www.w3.org/2000/svg"><path opacity=".1" d="M56 0H4a4 4 0 00-4 4v52a4 4 0 004 4h52a4 4 0 004-4V4a4 4 0 00-4-4z" fill="url(#paint0_linear_350_463)"/><path d="M27.093 19.856c-1.7-1-3.843.226-3.843 2.198v16.583c0 1.972 2.143 3.198 3.843 2.198l14.095-8.291c1.677-.986 1.677-3.41 0-4.396l-14.095-8.292z" fill="url(#paint1_linear_350_463)"/><defs><linearGradient id="paint0_linear_350_463" x1="60" y1="60" x2="-8.505" y2="37.941" gradientUnits="userSpaceOnUse"><stop stop-color="#FF0766"/><stop offset="1" stop-color="#FF7E5D"/></linearGradient><linearGradient id="paint1_linear_350_463" x1="42.446" y1="41.191" x2="20.073" y2="34.816" gradientUnits="userSpaceOnUse"><stop stop-color="#FF0766"/><stop offset="1" stop-color="#FF7E5D"/></linearGradient></defs></svg>