<svg width="72" height="75" fill="none" xmlns="http://www.w3.org/2000/svg"><rect opacity=".1" width="72" height="75" rx="4" fill="#FF6262"/><path d="M25.19 41.452a1.251 1.251 0 001.737-.344 10.868 10.868 0 019.05-4.83c3.632 0 7.01 1.797 9.035 4.807a1.252 1.252 0 102.078-1.398 13.366 13.366 0 00-6.59-5.129 7.065 7.065 0 002.608-5.482A7.084 7.084 0 0036.03 22a7.084 7.084 0 00-7.076 7.076 7.065 7.065 0 002.572 5.454 13.363 13.363 0 00-6.681 5.184 1.253 1.253 0 00.344 1.738zm10.84-16.947c2.521 0 4.572 2.05 4.572 4.571s-2.051 4.572-4.572 4.572a4.577 4.577 0 01-4.571-4.572c0-2.52 2.05-4.571 4.571-4.571zm4.995 19.671l-1.867 1.347a.784.784 0 00-.288.88l.752 2.18a.793.793 0 01.04.282c-.027.585-.76.986-1.299.598l-1.867-1.348a.795.795 0 00-.931 0l-1.868 1.348c-.538.388-1.275-.013-1.298-.598a.803.803 0 01.04-.282l.752-2.18a.784.784 0 00-.288-.88l-1.867-1.347c-.621-.448-.302-1.51.466-1.51h2.307c.344 0 .648-.133.754-.457l.714-2.194a.778.778 0 01.753-.543c.318 0 .636.18.754.543l.713 2.194c.107.324.41.456.754.456h2.308c.768 0 1.087 1.063.466 1.511zm10.708 4.384l-1.867 1.347a.784.784 0 00-.288.88l.752 2.18a.793.793 0 01.04.282c-.027.585-.76.985-1.298.597L47.206 52.5a.795.795 0 00-.932 0l-1.867 1.347c-.538.388-1.275-.012-1.299-.597a.803.803 0 01.041-.283l.751-2.18a.784.784 0 00-.288-.88l-1.867-1.346c-.621-.448-.302-1.511.466-1.511h2.308c.343 0 .648-.132.754-.456l.713-2.194a.778.778 0 01.754-.544c.317 0 .635.181.754.544l.713 2.194c.106.324.41.456.754.456h2.308c.767 0 1.087 1.063.465 1.511zm-21.417 0l-1.867 1.347a.784.784 0 00-.288.88l.752 2.18a.789.789 0 01.04.282c-.026.585-.76.985-1.298.597L25.789 52.5a.795.795 0 00-.932 0l-1.867 1.347c-.538.388-1.275-.012-1.299-.597a.806.806 0 01.041-.283l.751-2.18a.784.784 0 00-.288-.88l-1.867-1.346c-.62-.448-.302-1.511.466-1.511h2.308c.343 0 .648-.132.754-.456l.713-2.194a.778.778 0 01.754-.544c.317 0 .635.181.754.544l.713 2.194c.106.324.41.456.754.456h2.308c.767 0 1.087 1.063.465 1.511z" fill="#FF3951"/></svg>