<svg width="72" height="75" fill="none" xmlns="http://www.w3.org/2000/svg"><path d="M51.916 34.713a1.703 1.703 0 00-1.462-1.18l-9.238-.848-3.65-8.64A1.701 1.701 0 0036 23c-.683 0-1.296.41-1.564 1.044l-3.65 8.64-9.24.848a1.708 1.708 0 00-1.462 1.181 1.734 1.734 0 00.496 1.828l6.983 6.19-2.06 9.166c-.15.674.109 1.371.662 1.776a1.68 1.68 0 001.87.083L36 48.941l7.964 4.815c.584.353 1.319.32 1.87-.084a1.729 1.729 0 00.662-1.775l-2.059-9.167 6.983-6.19a1.734 1.734 0 00.496-1.827z" fill="#00C9D6"/><rect opacity=".1" width="72" height="75" rx="4" fill="#00C9D6"/></svg>