<svg width="72" height="75" fill="none" xmlns="http://www.w3.org/2000/svg"><rect opacity=".1" width="72" height="75" rx="4" fill="#FFD600"/><path d="M50 35.438c0-.69-.565-1.25-1.255-1.25s-1.25.56-1.25 1.25v12.11a4.331 4.331 0 00-1.87-.423h-23c-1.171 0-2.125-.938-2.125-2.188 0-1.25.954-2.187 2.126-2.187h2.311c.69 0 1.25-.56 1.25-1.25V30.439h8.375a1.25 1.25 0 000-2.5h-8.374V25.25c0-.69-.56-1.25-1.25-1.25h-2.312A4.631 4.631 0 0018 28.626v16.373a4.631 4.631 0 004.626 4.626h18.811v5.125c0 .69.56 1.25 1.25 1.25h2.938A4.38 4.38 0 0050 51.625V35.437zm-29.5-6.812c0-1.172.954-2.126 2.126-2.126h1.061v13.75h-1.061a4.59 4.59 0 00-2.126.52V28.625zM45.625 53.5h-1.688v-3.875h1.688c.989 0 1.8.778 1.87 1.76v.37a1.877 1.877 0 01-1.87 1.745zM35.23 38.623a1.25 1.25 0 001.229.332l5.045-1.398a1.25 1.25 0 00.55-.32l6.848-6.835a3.754 3.754 0 000-5.304 3.754 3.754 0 00-5.303 0l-6.862 6.847a1.25 1.25 0 00-.314.521l-1.494 4.92a1.25 1.25 0 00.301 1.237zm10.136-11.757a1.251 1.251 0 011.769 1.767l-.242.242-1.768-1.768.241-.24zm-6.642 6.627l4.631-4.62 1.768 1.768-4.603 4.595-2.538.703.742-2.446z" fill="#FFC226"/></svg>