<svg width="72" height="75" fill="none" xmlns="http://www.w3.org/2000/svg"><rect opacity=".1" width="72" height="75" rx="4" fill="#4A3AFF"/><path d="M36.5 38.843a6.673 6.673 0 00-6.665 6.665v4.101h13.33v-4.101a6.673 6.673 0 00-6.665-6.665zm4.614-4.615a4.62 4.62 0 00-4.614-4.614 4.62 4.62 0 00-4.614 4.614 4.62 4.62 0 004.614 4.615 4.62 4.62 0 004.614-4.615zm-10.766-4.614A4.62 4.62 0 0025.733 25a4.62 4.62 0 00-4.614 4.614 4.62 4.62 0 004.614 4.614 4.62 4.62 0 004.615-4.614zm16.919 4.614c-2.709 0-5.036 1.631-6.077 3.957 2.414 1.551 4.026 4.246 4.026 7.323H54v-4.614c0-3.676-3.058-6.666-6.733-6.666zm4.613-4.614A4.62 4.62 0 0047.268 25a4.62 4.62 0 00-4.615 4.614 4.62 4.62 0 004.615 4.614 4.62 4.62 0 004.614-4.614z" fill="#4A3AFF"/><path d="M31.81 38.185c-1.041-2.326-3.368-3.957-6.077-3.957-3.675 0-6.733 2.99-6.733 6.666v4.614h8.784c0-3.077 1.612-5.772 4.026-7.323z" fill="#4A3AFF"/></svg>