<svg width="28" height="28" fill="none" xmlns="http://www.w3.org/2000/svg"><path d="M27.498 13.75C27.498 6.154 21.342 0 13.75 0 6.155 0 0 6.155 0 13.75c0 6.861 5.028 12.55 11.6 13.58v-9.608H8.11V13.75h3.491v-3.03c0-3.446 2.053-5.35 5.193-5.35 1.505 0 3.078.27 3.078.27v3.383H18.14c-1.708 0-2.24 1.06-2.24 2.147v2.58h3.813l-.61 3.973h-3.204v9.608c6.572-1.031 11.6-6.72 11.6-13.582z" fill="#1877F2"/><path d="M19.101 17.723l.61-3.974h-3.814v-2.58c0-1.087.533-2.146 2.24-2.146h1.735V5.638s-1.574-.268-3.078-.268c-3.14 0-5.194 1.904-5.194 5.349v3.03H8.11v3.974h3.491v9.608c1.424.224 2.873.224 4.297 0v-9.608h3.203z" fill="#fff"/></svg>