<svg width="25" height="37" fill="none" xmlns="http://www.w3.org/2000/svg"><path d="M6.13 36.777a6.132 6.132 0 006.128-6.129v-6.13H6.13A6.131 6.131 0 000 30.648a6.131 6.131 0 006.13 6.128v.001z" fill="#0ACF83"/><path d="M0 18.388a6.131 6.131 0 016.13-6.129h6.128v12.258H6.13A6.132 6.132 0 010 18.39z" fill="#A259FF"/><path d="M0 6.13A6.131 6.131 0 016.13 0h6.128v12.258H6.13A6.131 6.131 0 010 6.13z" fill="#F24E1E"/><path d="M12.258 0h6.13a6.131 6.131 0 016.13 6.13 6.132 6.132 0 01-6.13 6.128H12.26V0z" fill="#FF7262"/><path d="M24.518 18.388a6.131 6.131 0 01-6.13 6.13 6.132 6.132 0 01-6.129-6.13 6.132 6.132 0 016.13-6.129 6.132 6.132 0 016.128 6.13h.001z" fill="#1ABCFE"/></svg>