<svg width="27" height="27" fill="none" xmlns="http://www.w3.org/2000/svg"><path d="M26.218 13.362c0-1.074-.089-1.86-.282-2.672h-12.56v4.851h7.373c-.15 1.206-.952 3.02-2.736 4.241l-.025.163 3.972 3.005.274.027c2.528-2.28 3.984-5.635 3.984-9.615z" fill="#4285F4"/><path d="M13.377 26.144c3.611 0 6.643-1.162 8.858-3.167l-4.221-3.195c-1.13.77-2.646 1.308-4.637 1.308a8.036 8.036 0 01-7.61-5.433l-.157.013-4.13 3.123-.053.147c2.199 4.27 6.717 7.204 11.95 7.204z" fill="#34A853"/><path d="M5.766 15.657a7.882 7.882 0 01-.446-2.586c0-.9.164-1.771.431-2.584l-.006-.175L1.564 7.14l-.137.064A12.842 12.842 0 000 13.071c0 2.106.52 4.096 1.427 5.868l4.34-3.282z" fill="#FBBC05"/><path d="M13.376 5.054c2.512 0 4.207 1.06 5.173 1.947l3.775-3.602C20.005 1.293 16.988 0 13.376 0c-5.232 0-9.75 2.934-11.95 7.204l4.325 3.283a8.07 8.07 0 017.625-5.433z" fill="#EB4335"/></svg>