<svg width="24" height="24" fill="none" xmlns="http://www.w3.org/2000/svg"><path d="M19.433 5.478a1.411 1.411 0 10-2.823 0 1.411 1.411 0 002.823 0z" fill="url(#paint0_linear_360_7)"/><path d="M21.313 16.497c-.052 1.146-.244 1.768-.403 2.182-.213.548-.469.94-.882 1.351-.409.411-.8.666-1.349.877-.413.162-1.038.354-2.184.408-1.239.055-1.605.066-4.747.066-3.138 0-3.508-.011-4.746-.066-1.146-.054-1.767-.247-2.181-.408a3.6 3.6 0 01-1.351-.877 3.587 3.587 0 01-.88-1.35c-.16-.414-.354-1.037-.403-2.183-.06-1.238-.071-1.61-.071-4.746 0-3.14.01-3.51.07-4.749.05-1.146.245-1.767.404-2.185a3.58 3.58 0 01.88-1.348c.41-.41.8-.666 1.35-.88.414-.161 1.036-.35 2.182-.405 1.238-.055 1.608-.068 4.747-.068 3.14 0 3.507.013 4.746.068 1.146.054 1.77.244 2.184.406.548.213.94.469 1.35.88.412.41.668.8.881 1.347.16.418.351 1.04.403 2.185.058 1.238.072 1.608.072 4.75 0 3.134-.015 3.506-.072 4.745zm2.116-9.592c-.058-1.252-.255-2.107-.549-2.852a5.725 5.725 0 00-1.353-2.083 5.778 5.778 0 00-2.08-1.354c-.748-.29-1.6-.49-2.853-.545C15.34.011 14.94 0 11.749 0c-3.19 0-3.593.01-4.846.071-1.25.055-2.102.255-2.853.545A5.805 5.805 0 001.973 1.97 5.77 5.77 0 00.617 4.053c-.29.745-.488 1.6-.548 2.852C.014 8.158 0 8.56 0 11.752c0 3.19.014 3.59.069 4.842.06 1.25.257 2.104.548 2.853.301.77.701 1.428 1.356 2.08a5.794 5.794 0 002.077 1.356c.752.29 1.603.488 2.853.546 1.253.057 1.656.071 4.846.071 3.192 0 3.592-.014 4.845-.071 1.253-.058 2.105-.255 2.853-.546a5.773 5.773 0 002.08-1.357 5.709 5.709 0 001.353-2.08c.294-.748.49-1.603.549-2.852.057-1.253.071-1.653.071-4.842 0-3.193-.014-3.594-.071-4.847z" fill="url(#paint1_linear_360_7)"/><path d="M11.748 15.665a3.915 3.915 0 111.501-7.533 3.917 3.917 0 012.419 3.62 3.917 3.917 0 01-3.92 3.913zm0-9.951a6.035 6.035 0 000 12.07 6.034 6.034 0 100-12.07z" fill="url(#paint2_linear_360_7)"/><defs><linearGradient id="paint0_linear_360_7" x1=".212" y1="23.257" x2="21.543" y2="1.927" gradientUnits="userSpaceOnUse"><stop stop-color="#FFD521"/><stop offset=".05" stop-color="#FFD521"/><stop offset=".501" stop-color="#F50000"/><stop offset=".95" stop-color="#B900B4"/><stop offset="1" stop-color="#B900B4"/></linearGradient><linearGradient id="paint1_linear_360_7" x1=".212" y1="23.286" x2="21.56" y2="1.938" gradientUnits="userSpaceOnUse"><stop stop-color="#FFD521"/><stop offset=".05" stop-color="#FFD521"/><stop offset=".501" stop-color="#F50000"/><stop offset=".95" stop-color="#B900B4"/><stop offset="1" stop-color="#B900B4"/></linearGradient><linearGradient id="paint2_linear_360_7" x1=".218" y1="23.287" x2="21.561" y2="1.944" gradientUnits="userSpaceOnUse"><stop stop-color="#FFD521"/><stop offset=".05" stop-color="#FFD521"/><stop offset=".501" stop-color="#F50000"/><stop offset=".95" stop-color="#B900B4"/><stop offset="1" stop-color="#B900B4"/></linearGradient></defs></svg>