<svg width="28" height="29" fill="none" xmlns="http://www.w3.org/2000/svg"><path d="M27.078 15.745L15.722 27.157a2.645 2.645 0 01-3.753 0 2.675 2.675 0 010-3.771l11.358-11.414a2.645 2.645 0 013.752 0 2.677 2.677 0 010 3.773z" fill="#FBBC04"/><path d="M15.696 27.122a2.657 2.657 0 10-3.758-3.757 2.657 2.657 0 003.758 3.757z" fill="#34A853"/><path d="M17.69 6.415l-5.682 5.68 3.754 3.753 5.68-5.68a2.655 2.655 0 00-3.753-3.753z" fill="#FBBC04"/><path d="M10.086 21.524l5.68-5.68-3.754-3.754-5.68 5.68a2.655 2.655 0 003.754 3.754z" fill="#3B80EF"/><path d="M15.794 15.827a2.657 2.657 0 10-3.757-3.757 2.657 2.657 0 003.757 3.757z" fill="#34A853"/><path d="M15.888 4.53L4.53 15.888a2.654 2.654 0 01-3.753-3.753L12.135.777a2.654 2.654 0 013.753 3.753z" fill="#3B80EF"/><path d="M14.01 5.31a2.655 2.655 0 100-5.31 2.655 2.655 0 000 5.31z" fill="#34A853"/></svg>