<?xml version="1.0" encoding="utf-8"?>
<!-- Generator: Adobe Illustrator 25.4.1, SVG Export Plug-In . SVG Version: 6.00 Build 0)  -->
<svg version="1.1" id="Layer_1" xmlns="http://www.w3.org/2000/svg" xmlns:xlink="http://www.w3.org/1999/xlink" x="0px" y="0px"
	 viewBox="0 0 500 500" style="enable-background:new 0 0 500 500;" xml:space="preserve">
<style type="text/css">
	.st0{fill:#15438D;}
	.st1{fill:#66BDA1;}
</style>
<g>
	<g>
		<path class="st0" d="M289.47,282.68h-12.03l-1.99,5.75h-6.36l10.86-30.25H287l10.86,30.25h-6.4L289.47,282.68z M287.82,277.83
			l-4.37-12.63l-4.37,12.63H287.82z"/>
		<path class="st0" d="M307.98,256.41v32.02h-6.06v-32.02H307.98z"/>
		<path class="st0" d="M328.06,265.13c1.36,0.71,2.42,1.62,3.2,2.75v-3.42h6.1v24.14c0,2.22-0.45,4.2-1.34,5.95
			c-0.89,1.75-2.24,3.13-4.02,4.15c-1.79,1.02-3.95,1.54-6.49,1.54c-3.4,0-6.2-0.79-8.37-2.38c-2.18-1.59-3.41-3.75-3.7-6.49h6.01
			c0.32,1.1,1,1.97,2.06,2.62c1.05,0.65,2.33,0.97,3.83,0.97c1.76,0,3.19-0.53,4.28-1.58c1.1-1.05,1.64-2.65,1.64-4.78v-3.72
			c-0.78,1.13-1.85,2.06-3.22,2.81s-2.94,1.13-4.7,1.13c-2.02,0-3.87-0.52-5.54-1.56s-2.99-2.5-3.96-4.39s-1.45-4.06-1.45-6.51
			c0-2.42,0.48-4.57,1.45-6.45s2.28-3.32,3.94-4.33c1.66-1.01,3.51-1.51,5.56-1.51C325.13,264.07,326.71,264.42,328.06,265.13z
			 M330.4,272.66c-0.58-1.05-1.36-1.86-2.34-2.42c-0.98-0.56-2.03-0.84-3.16-0.84s-2.16,0.27-3.12,0.82s-1.72,1.35-2.31,2.4
			s-0.89,2.3-0.89,3.74s0.3,2.7,0.89,3.79c0.59,1.08,1.37,1.91,2.34,2.49s2,0.87,3.09,0.87c1.13,0,2.18-0.28,3.16-0.84
			s1.76-1.37,2.34-2.42c0.58-1.05,0.87-2.31,0.87-3.79C331.26,274.97,330.98,273.71,330.4,272.66z"/>
		<path class="st0" d="M347.71,287.29c-1.85-1.02-3.3-2.47-4.35-4.35c-1.05-1.88-1.58-4.04-1.58-6.49c0-2.45,0.54-4.61,1.62-6.49
			s2.56-3.32,4.44-4.35c1.88-1.02,3.97-1.54,6.27-1.54s4.4,0.51,6.27,1.54c1.88,1.02,3.35,2.47,4.44,4.35
			c1.08,1.88,1.62,4.04,1.62,6.49c0,2.45-0.56,4.62-1.67,6.49c-1.11,1.88-2.61,3.33-4.5,4.35c-1.89,1.02-4,1.54-6.34,1.54
			C351.63,288.82,349.55,288.31,347.71,287.29z M357.03,282.74c0.97-0.53,1.74-1.33,2.32-2.4c0.58-1.07,0.87-2.37,0.87-3.89
			c0-2.28-0.6-4.03-1.8-5.26c-1.2-1.23-2.66-1.84-4.39-1.84s-3.18,0.61-4.35,1.84s-1.75,2.98-1.75,5.26s0.57,4.03,1.71,5.26
			c1.14,1.23,2.57,1.84,4.3,1.84C355.03,283.54,356.06,283.28,357.03,282.74z"/>
		<path class="st0" d="M291.82,324.04c-0.76,1.41-1.96,2.55-3.59,3.42c-1.63,0.87-3.69,1.3-6.17,1.3H277v11.6h-6.06v-30.2h11.12
			c2.34,0,4.33,0.4,5.97,1.21s2.88,1.92,3.7,3.33s1.23,3.01,1.23,4.8C292.97,321.12,292.59,322.63,291.82,324.04z M285.53,322.72
			c0.81-0.76,1.21-1.84,1.21-3.22c0-2.94-1.64-4.41-4.93-4.41H277v8.78h4.8C283.48,323.87,284.72,323.49,285.53,322.72z"/>
		<path class="st0" d="M297.67,312.51c-0.71-0.68-1.06-1.52-1.06-2.53s0.35-1.85,1.06-2.53s1.59-1.02,2.66-1.02s1.95,0.34,2.66,1.02
			s1.06,1.52,1.06,2.53s-0.35,1.85-1.06,2.53s-1.59,1.02-2.66,1.02S298.37,313.19,297.67,312.51z M303.31,316.38v23.97h-6.06v-23.97
			H303.31z"/>
		<path class="st0" d="M313.18,339.69c-1.56-0.71-2.79-1.67-3.7-2.88s-1.41-2.55-1.49-4.02h6.1c0.11,0.92,0.57,1.69,1.36,2.29
			c0.79,0.61,1.78,0.91,2.96,0.91c1.15,0,2.06-0.23,2.71-0.69s0.97-1.05,0.97-1.77c0-0.78-0.4-1.36-1.19-1.75s-2.06-0.82-3.79-1.28
			c-1.79-0.43-3.25-0.88-4.39-1.34s-2.12-1.17-2.94-2.12s-1.23-2.24-1.23-3.85c0-1.33,0.38-2.54,1.15-3.63
			c0.76-1.1,1.86-1.96,3.29-2.6c1.43-0.63,3.11-0.95,5.04-0.95c2.86,0,5.13,0.71,6.84,2.14c1.7,1.43,2.64,3.35,2.81,5.78h-5.8
			c-0.09-0.95-0.48-1.71-1.19-2.27s-1.65-0.84-2.83-0.84c-1.1,0-1.94,0.2-2.53,0.61s-0.89,0.97-0.89,1.69c0,0.81,0.4,1.42,1.21,1.84
			c0.81,0.42,2.06,0.84,3.76,1.28c1.73,0.43,3.16,0.88,4.28,1.34c1.13,0.46,2.1,1.17,2.92,2.14s1.25,2.24,1.28,3.83
			c0,1.38-0.38,2.63-1.15,3.72c-0.76,1.1-1.86,1.95-3.29,2.57c-1.43,0.62-3.09,0.93-5,0.93
			C316.49,340.75,314.73,340.39,313.18,339.69z"/>
		<path class="st0" d="M351.21,317.23c1.41,0.79,2.52,1.96,3.31,3.5s1.19,3.4,1.19,5.56v14.06h-6.06v-13.24
			c0-1.9-0.48-3.37-1.43-4.39c-0.95-1.02-2.25-1.54-3.89-1.54c-1.67,0-2.99,0.51-3.96,1.54c-0.97,1.02-1.45,2.49-1.45,4.39v13.24
			h-6.06v-32.02h6.06v11.03c0.78-1.04,1.82-1.85,3.12-2.44s2.74-0.89,4.33-0.89C348.18,316.04,349.8,316.44,351.21,317.23z"/>
		<path class="st0" d="M370.57,317.12c1.25-0.72,2.69-1.08,4.31-1.08v6.36h-1.6c-1.9,0-3.34,0.45-4.31,1.34
			c-0.97,0.89-1.45,2.45-1.45,4.67v11.94h-6.06v-23.97h6.06v3.72C368.3,318.84,369.32,317.84,370.57,317.12z"/>
		<path class="st0" d="M383.36,339.21c-1.85-1.02-3.3-2.47-4.35-4.35c-1.05-1.88-1.58-4.04-1.58-6.49c0-2.45,0.54-4.61,1.62-6.49
			s2.56-3.32,4.44-4.35c1.88-1.02,3.97-1.54,6.27-1.54s4.4,0.51,6.27,1.54c1.88,1.02,3.35,2.47,4.44,4.35
			c1.08,1.88,1.62,4.04,1.62,6.49c0,2.45-0.56,4.62-1.67,6.49c-1.11,1.88-2.61,3.33-4.5,4.35c-1.89,1.02-4,1.54-6.34,1.54
			C387.28,340.75,385.21,340.23,383.36,339.21z M392.69,334.67c0.97-0.53,1.74-1.33,2.32-2.4c0.58-1.07,0.87-2.37,0.87-3.89
			c0-2.28-0.6-4.03-1.8-5.26c-1.2-1.23-2.66-1.84-4.39-1.84s-3.18,0.61-4.35,1.84s-1.75,2.98-1.75,5.26s0.57,4.03,1.71,5.26
			c1.14,1.23,2.57,1.84,4.3,1.84C390.69,335.47,391.72,335.2,392.69,334.67z"/>
	</g>
	<rect x="137.88" y="239.22" class="st1" width="39.59" height="39.59"/>
	<polygon class="st0" points="69.49,174.87 99.06,203.08 217.64,203.08 217.64,316.23 245.85,343.14 245.85,174.87 	"/>
</g>
</svg>
