<?xml version="1.0" encoding="UTF-8"?>
<svg width="117px" height="154px" viewBox="0 0 117 154" version="1.1" xmlns="http://www.w3.org/2000/svg" xmlns:xlink="http://www.w3.org/1999/xlink">
    <!-- Generator: Sketch 51.2 (57519) - http://www.bohemiancoding.com/sketch -->
    <title>AirBuds</title>
    <desc>Created with Sketch.</desc>
    <defs></defs>
    <g id="Page-1" stroke="none" stroke-width="1" fill="none" fill-rule="evenodd">
        <g id="AirBuds" transform="translate(2.000000, 1.000000)">
            <path d="M91.8,8.3 L21.5,8.3 C9.7,8.3 0.1,17.9 0.1,29.7 C0.1,41.5 9.7,51.1 21.5,51.1 L91.8,51.1 C103.6,51.1 113.2,41.5 113.2,29.7 C113.2,17.9 103.6,8.3 91.8,8.3 Z" id="Shape" fill="#FFFFFF" fill-rule="nonzero"></path>
            <path d="M113.5,51.7 L0,51.7 L0,121.3 C0,137.9 13.4,151.3 30,151.3 L83.4,151.3 C100,151.3 113.4,137.9 113.4,121.3 L113.4,51.7 L113.5,51.7 Z" id="Shape" fill="#FFFFFF" fill-rule="nonzero"></path>
            <path d="M93.1,10.9 L22.8,10.9 C11.7,10.9 2.7,19.9 2.7,31 C2.7,42.1 11.7,51.1 22.8,51.1 L93.1,51.1 C104.2,51.1 113.2,42.1 113.2,31 C113.2,19.9 104.2,10.9 93.1,10.9 Z" id="Shape" fill="#DDECFE" fill-rule="nonzero"></path>
            <path d="M113.5,55.7 L113.5,122.4 C113.5,138.4 100.5,151.4 84.5,151.4 L32.5,151.4 C20.8,151.4 10.7,144.4 6.1,134.4 C4.4,130.8 3.5,126.7 3.5,122.4 L3.5,68.8 C3.5,61.6 9.4,55.7 16.6,55.7 L113.5,55.7 Z" id="Shape" fill="#DDECFE" fill-rule="nonzero"></path>
            <path d="M113.5,55.7 L113.5,122.4 C113.5,138.4 100.5,151.4 84.5,151.4 L32.5,151.4 C22.1,151.4 13.1,146 7.9,137.8 C7,136.4 8.2,134.6 9.8,134.8 C9.8,134.8 9.8,134.8 9.8,134.8 C49,138.9 98.4,138.9 99.2,96.5 C99.6,78.2 101.5,67.5 104.3,61.4 C106.1,57.9 109.7,55.7 113.5,55.7 Z" id="Shape" fill="#B8D9FF" fill-rule="nonzero"></path>
            <path d="M44.6,8.3 L21.4,8.3 C9.6,8.3 -2.27373675e-13,17.9 -2.27373675e-13,29.7 C-2.27373675e-13,41.5 9.6,51.1 21.4,51.1 L91.7,51.1 C103.5,51.1 113.1,41.5 113.1,29.7 C113.1,17.9 103.5,8.3 91.7,8.3 L52,8.3" id="Shape" stroke="#1676EE" stroke-width="3.2" stroke-linecap="round" stroke-linejoin="round"></path>
            <g id="Group" transform="translate(7.000000, 0.000000)" fill="#FFFFFF" fill-rule="nonzero">
                <path d="M20.1,0.9 C11.7,0.9 4.3,4.9 0.1,11 L0.1,34.6 C4.3,40.7 11.7,44.7 20.1,44.7 C22.8,44.7 25.5,44.3 27.9,43.5 L27.9,51.7 L43.8,51.7 L43.8,24.6 C43.9,24 43.9,23.4 43.9,22.7 C43.9,10.7 33.2,0.9 20.1,0.9 Z" id="Shape"></path>
                <path d="M79.4,0.9 C66.3,0.9 55.6,10.7 55.6,22.8 C55.6,23.4 55.6,24 55.7,24.7 L55.7,51.8 L71.6,51.8 L71.6,43.6 C74.1,44.4 76.7,44.8 79.4,44.8 C87.8,44.8 95.2,40.8 99.4,34.7 L99.4,11 C95.2,4.9 87.8,0.9 79.4,0.9 Z" id="Shape"></path>
            </g>
            <g id="Group" transform="translate(7.000000, 0.000000)" stroke="#1676EE" stroke-linecap="round" stroke-linejoin="round" stroke-width="3.2">
                <path d="M23.4,1.1 C35,2.6 43.9,11.7 43.9,22.8 C43.9,23.4 43.9,24 43.8,24.7 L43.8,51.8 L27.9,51.8 L27.9,43.6 C25.4,44.4 22.8,44.8 20.1,44.8 C11.7,44.8 4.3,40.8 0.1,34.7 L0.1,11 C2.3,7.9 5.3,5.3 8.8,3.5" id="Shape"></path>
                <path d="M16.4,1.1 C17,1 17.6,1 18.2,0.9" id="Shape"></path>
                <path d="M25.5,11.7 C28.8,13.1 31.5,15.8 32.9,19.2" id="Shape"></path>
                <circle id="Oval" cx="13.1" cy="21.7" r="2.9"></circle>
                <path d="M99.4,11 L99.4,34.6 C95.2,40.7 87.8,44.7 79.4,44.7 C76.7,44.7 74,44.3 71.6,43.5 L71.6,51.7 L55.7,51.7 L55.7,24.6 C55.6,24 55.6,23.4 55.6,22.7 C55.6,10.6 66.3,0.8 79.4,0.8 C87.8,0.9 95.2,4.9 99.4,11 Z" id="Shape"></path>
                <path d="M74,11.7 C70.7,13.1 68,15.8 66.6,19.2" id="Shape"></path>
                <circle id="Oval" cx="86.4" cy="21.7" r="2.9"></circle>
            </g>
            <path d="M0,111.5 L0,121.3 C0,137.9 13.4,151.3 30,151.3 L83.4,151.3 C100,151.3 113.4,137.9 113.4,121.3 L113.4,51.7 L0,51.7 L0,91.8" id="Shape" stroke="#1676EE" stroke-width="3.2" stroke-linecap="round" stroke-linejoin="round"></path>
            <path d="M0,100.9 L0,104.2" id="Shape" stroke="#1676EE" stroke-width="3.2" stroke-linecap="round" stroke-linejoin="round"></path>
            <g id="Group" transform="translate(40.000000, 74.000000)" fill="#FFFFFF" fill-rule="nonzero" stroke="#1676EE" stroke-linecap="round" stroke-linejoin="round" stroke-width="3.2">
                <path d="M10.7,16.1 L21.5,1.2 C22.3,0.1 24,0.8 23.8,2.2 L20.9,20.8 L31.9,20.6 C32.2,20.6 32.5,20.7 32.7,20.8 C33.3,21.2 33.5,22 33,22.7 L11.9,51.7 C11.1,52.8 9.4,52.1 9.6,50.8 L12.3,32.4 L1.5,32.5 C0.4,32.5 -0.2,31.3 0.4,30.4 L2.8,27.1 L3.1,26.7" id="Shape"></path>
                <path d="M6,22.5 L6.8,21.4" id="Shape"></path>
            </g>
        </g>
    </g>
</svg>