<?xml version="1.0" encoding="UTF-8"?>
<svg width="149px" height="144px" viewBox="0 0 149 144" version="1.1" xmlns="http://www.w3.org/2000/svg" xmlns:xlink="http://www.w3.org/1999/xlink">
    <!-- Generator: Sketch 51.2 (57519) - http://www.bohemiancoding.com/sketch -->
    <title>Charger</title>
    <desc>Created with Sketch.</desc>
    <defs></defs>
    <g id="Page-1" stroke="none" stroke-width="1" fill="none" fill-rule="evenodd">
        <g id="Charger" transform="translate(2.000000, 2.000000)">
            <path d="M6.8,21.5 L6.8,3.7 C6.8,2 8.2,0.5 10,0.5 L33.1,0.5 C34.8,0.5 36.3,1.9 36.3,3.7 L36.3,21.6" id="Shape" fill="#FFFFFF" fill-rule="nonzero"></path>
            <path d="M119.1,34.9 L119.1,22.5 C119.1,21.2 120.1,20.2 121.4,20.2 L138.2,20.2 C139.5,20.2 140.5,21.2 140.5,22.5 L140.5,34.9" id="Shape" fill="#FFFFFF" fill-rule="nonzero"></path>
            <path d="M16.2,21.6 L17.9,21.6" id="Shape" fill="#FFFFFF" fill-rule="nonzero"></path>
            <path d="M17.9,21.6 L38,21.6 C40.5,21.6 42.5,23.6 42.5,26.1 L42.5,65.7 C42.5,68.2 40.5,70.2 38,70.2 L5,70.2 C2.5,70.2 0.5,68.2 0.5,65.7 L0.5,26.1 C0.5,23.6 2.5,21.6 5,21.6 L9.5,21.6" id="Shape" fill="#FFFFFF" fill-rule="nonzero"></path>
            <path d="M141.8,70.1 L117.9,70.1 C116.1,70.1 114.6,68.6 114.6,66.8 L114.6,38.1 C114.6,36.3 116.1,34.8 117.9,34.8 L141.8,34.8 C143.6,34.8 145.1,36.3 145.1,38.1 L145.1,66.8 C145,68.6 143.6,70.1 141.8,70.1 Z" id="Shape" fill="#FFFFFF" fill-rule="nonzero"></path>
            <path d="M38.5,70.2 L8,70.2 C5.7,70.2 3.9,68.4 3.9,66.1 L3.9,30.7 C3.9,28.4 5.7,26.6 8,26.6 L38.5,26.6 C40.8,26.6 42.6,28.4 42.6,30.7 L42.6,66.1 C42.6,68.3 40.7,70.2 38.5,70.2 Z" id="Shape" fill="#C1DDFE" fill-rule="nonzero"></path>
            <path d="M142.2,70.1 L121.2,70.1 C119.6,70.1 118.3,68.8 118.3,67.2 L118.3,42.1 C118.3,40.5 119.6,39.2 121.2,39.2 L142.2,39.2 C143.8,39.2 145.1,40.5 145.1,42.1 L145.1,67.2 C145,68.8 143.7,70.1 142.2,70.1 Z" id="Shape" fill="#C1DDFE" fill-rule="nonzero"></path>
            <circle id="Oval" stroke="#1676EE" stroke-width="3.2" stroke-linecap="round" stroke-linejoin="round" cx="75.6" cy="102.6" r="36.9"></circle>
            <path d="M129.6,70.1 L129.6,85.7 C129.6,115.5 105.4,139.6 75.7,139.6 C45.9,139.6 21.8,115.4 21.8,85.7 L21.8,70.2" id="Shape" stroke="#1676EE" stroke-width="3.2" stroke-linecap="round" stroke-linejoin="round"></path>
            <path d="M18.9,21.6 L38,21.6 C40.5,21.6 42.5,23.6 42.5,26.1 L42.5,65.7 C42.5,68.2 40.5,70.2 38,70.2 L5,70.2 C2.5,70.2 0.5,68.2 0.5,65.7 L0.5,26.1 C0.5,23.6 2.5,21.6 5,21.6 L8.5,21.6" id="Shape" stroke="#1676EE" stroke-width="3.2" stroke-linecap="round" stroke-linejoin="round"></path>
            <path d="M14,21.6 L14.2,21.6" id="Shape" stroke="#1676EE" stroke-width="3.2" stroke-linecap="round" stroke-linejoin="round"></path>
            <path d="M6.8,21.5 L6.8,3.7 C6.8,2 8.2,0.5 10,0.5 L33.1,0.5 C34.8,0.5 36.3,1.9 36.3,3.7 L36.3,21.6" id="Shape" stroke="#1676EE" stroke-width="3.2" stroke-linecap="round" stroke-linejoin="round"></path>
            <path d="M141.8,70.1 L117.9,70.1 C116.1,70.1 114.6,68.6 114.6,66.8 L114.6,38.1 C114.6,36.3 116.1,34.8 117.9,34.8 L141.8,34.8 C143.6,34.8 145.1,36.3 145.1,38.1 L145.1,66.8 C145,68.6 143.6,70.1 141.8,70.1 Z" id="Shape" stroke="#1676EE" stroke-width="3.2" stroke-linecap="round" stroke-linejoin="round"></path>
            <path d="M119.1,26.7 L119.1,22.4 C119.1,21.1 120.1,20.1 121.4,20.1 L138.2,20.1 C139.5,20.1 140.5,21.1 140.5,22.4 L140.5,34.8" id="Shape" stroke="#1676EE" stroke-width="3.2" stroke-linecap="round" stroke-linejoin="round"></path>
            <path d="M87.3,100 L72.8,119.9 C72.3,120.6 71.1,120.2 71.2,119.3 L73,106.7 L65.6,106.7 C64.9,106.7 64.4,105.9 64.9,105.3 L66.6,103 L79.4,85.4 C79.9,84.7 81.1,85.1 81,86.1 L79,98.8 L86.5,98.7 C86.7,98.7 86.9,98.8 87,98.9 C87.5,99 87.7,99.6 87.3,100 Z" id="Shape" stroke="#1676EE" stroke-width="3.2" stroke-linecap="round" stroke-linejoin="round"></path>
            <path d="M16,8.1 L16,14.7" id="Shape" stroke="#1676EE" stroke-width="3.2" stroke-linecap="round" stroke-linejoin="round"></path>
            <path d="M26.8,8.1 L26.8,14.7" id="Shape" stroke="#1676EE" stroke-width="3.2" stroke-linecap="round" stroke-linejoin="round"></path>
        </g>
    </g>
</svg>