<?xml version="1.0" encoding="UTF-8"?>
<svg width="120px" height="151px" viewBox="0 0 120 151" version="1.1" xmlns="http://www.w3.org/2000/svg" xmlns:xlink="http://www.w3.org/1999/xlink">
    <!-- Generator: Sketch 51.2 (57519) - http://www.bohemiancoding.com/sketch -->
    <title>Like</title>
    <desc>Created with Sketch.</desc>
    <defs></defs>
    <g id="Page-1" stroke="none" stroke-width="1" fill="none" fill-rule="evenodd">
        <g id="Like" transform="translate(1.000000, 1.000000)">
            <path d="M80.3,30.9 L80.3,25.7" id="Shape" stroke="#1676EE" stroke-width="3" fill="#FFFFFF" fill-rule="nonzero" stroke-linecap="round" stroke-linejoin="round"></path>
            <path d="M80.3,35.7 L80.3,35.6" id="Shape" stroke="#1676EE" stroke-width="3" fill="#FFFFFF" fill-rule="nonzero" stroke-linecap="round" stroke-linejoin="round"></path>
            <g id="Group" transform="translate(2.000000, 21.000000)">
                <g transform="translate(0.000000, 126.000000)" id="Shape" stroke="#91C2FF" stroke-linecap="round" stroke-linejoin="round" stroke-width="3">
                    <path d="M1,0.5 L0.1,0.5"></path>
                    <path d="M91,0.8 L6.4,0.6"></path>
                    <path d="M109.1,0.9 L95.3,0.8"></path>
                    <path d="M114.6,1 L113,0.9"></path>
                </g>
                <path d="M78.4,125.9 L28.9,125.7 C23.9,125.7 19.9,121.6 19.9,116.7 L20.3,9.7 C20.3,4.7 24.4,0.7 29.3,0.7 L78.8,0.9 C83.8,0.9 87.8,5 87.8,9.9 L87.4,116.9 C87.4,121.9 83.3,125.9 78.4,125.9 Z" id="Shape" fill="#FFFFFF" fill-rule="nonzero"></path>
                <path d="M87.7,10 L87.3,117 C87.3,122 83.2,126 78.3,126 L28.8,125.8 C23.8,125.8 19.8,121.7 19.8,116.8 L20.2,9.8 C20.2,4.8 24.3,0.8 29.2,0.8 L78.7,1 C83.7,1 87.8,5 87.7,10 Z" id="Shape" fill="#C2DDFF" fill-rule="nonzero"></path>
                <rect id="Rectangle-path" fill="#FFFFFF" fill-rule="nonzero" transform="translate(53.864390, 61.225305) rotate(-89.809057) translate(-53.864390, -61.225305) " x="3.56411046" y="27.5251178" width="100.600559" height="67.4003743"></rect>
                <g transform="translate(28.000000, 25.000000)" fill-rule="nonzero">
                    <path d="M44.7,74.4 L6.7,74.4 C4.5,74.4 2.7,72.6 2.7,70.4 L2.7,10.6 C2.7,8.4 4.5,4.8 6.7,4.8 L44.7,4.8 C46.9,4.8 48.7,8.3 48.7,10.6 L48.7,70.4 C48.7,72.6 46.9,74.4 44.7,74.4 Z" id="Shape" fill="#C2DDFF"></path>
                    <path d="M0.9,12.1 L0.9,4.1 C0.9,2.2 2.4,0.7 4.3,0.7 L47,0.7 C48.9,0.7 50.4,2.2 50.4,4.1 L50.4,66.9 C50.4,68.8 48.9,70.3 47,70.3 L4.3,70.3 C2.4,70.3 0.9,68.8 0.9,66.9 L0.9,27.2" id="Shape" stroke="#91C2FF" stroke-width="3" fill="#FFFFFF" stroke-linecap="round" stroke-linejoin="round"></path>
                    <path d="M0.9,17.9 L0.9,17.2" id="Shape" stroke="#91C2FF" stroke-width="3" fill="#FFFFFF" stroke-linecap="round" stroke-linejoin="round"></path>
                    <circle id="Oval" stroke="#91C2FF" stroke-width="3" fill="#FFFFFF" stroke-linecap="round" stroke-linejoin="round" cx="25.7" cy="24.1" r="8.2"></circle>
                    <path d="M14.6,45.4 L36.7,45.4" id="Shape" stroke="#91C2FF" stroke-width="3" fill="#FFFFFF" stroke-linecap="round" stroke-linejoin="round"></path>
                    <path d="M21.3,52.8 L30.1,52.8" id="Shape" stroke="#91C2FF" stroke-width="3" fill="#FFFFFF" stroke-linecap="round" stroke-linejoin="round"></path>
                </g>
                <path d="M20.2,48 L20.3,9.8 C20.3,4.8 24.4,0.8 29.3,0.8 L78.8,1 C83.8,1 87.8,5.1 87.8,10 L87.4,117 C87.4,122 83.3,126 78.4,126 L28.9,125.8 C23.9,125.8 19.9,121.7 19.9,116.8 L20.1,62.2" id="Shape" stroke="#1676EE" stroke-width="3" stroke-linecap="round" stroke-linejoin="round"></path>
                <path d="M20.2,40.5 L20.2,40.1" id="Shape" stroke="#1676EE" stroke-width="3" stroke-linecap="round" stroke-linejoin="round"></path>
                <circle id="Oval" stroke="#1676EE" stroke-width="3.00001666" stroke-linecap="round" stroke-linejoin="round" transform="translate(54.160223, 118.450029) rotate(-89.809057) translate(-54.160223, -118.450029) " cx="54.1602228" cy="118.450029" r="3.00001666"></circle>
                <path d="M80.4,11.4 L87.1,11.4" id="Shape" stroke="#1676EE" stroke-width="3" stroke-linecap="round" stroke-linejoin="round"></path>
                <path d="M26.6,11.2 L75.1,11.4" id="Shape" stroke="#1676EE" stroke-width="3" stroke-linecap="round" stroke-linejoin="round"></path>
                <path d="M71.6,111.1 L20.6,111" id="Shape" stroke="#1676EE" stroke-width="3" stroke-linecap="round" stroke-linejoin="round"></path>
                <path d="M86.8,111.2 L77.2,111.2" id="Shape" stroke="#1676EE" stroke-width="3" stroke-linecap="round" stroke-linejoin="round"></path>
                <path d="M51.5,6.1 L59.4,6.1" id="Shape" stroke="#1676EE" stroke-width="3" stroke-linecap="round" stroke-linejoin="round"></path>
                <path d="M46.4,6.1 L46.9,6.1" id="Shape" stroke="#1676EE" stroke-width="3" stroke-linecap="round" stroke-linejoin="round"></path>
            </g>
            <path d="M11.1,63.7 C4.5,57 0.5,47.9 0.5,37.8 C0.5,17.4 17,0.9 37.4,0.9 C42.2,0.9 46.8,1.8 51,3.5" id="Shape" stroke="#91C2FF" stroke-width="3" stroke-linecap="round" stroke-linejoin="round" stroke-dasharray="1,7"></path>
            <circle id="Oval" stroke="#91C2FF" stroke-width="3" fill="#FFFFFF" fill-rule="nonzero" stroke-linecap="round" stroke-linejoin="round" cx="8.2" cy="14.9" r="4.9"></circle>
            <path d="M72.7,6.5 C77,3.7 82.1,2.1 87.5,2.1 C102.4,2.1 114.6,14.2 114.6,29.2 C114.6,44.1 102.5,56.3 87.5,56.3 C72.6,56.3 60.4,44.2 60.4,29.2 C60.5,19.6 65.4,11.3 72.7,6.5" id="Shape" fill="#6BADFF" fill-rule="nonzero"></path>
            <path d="M79.1,3.4 C79.3,3.3 79.6,3.3 79.8,3.2 C82.3,2.5 84.9,2.1 87.6,2.1 C93.6,2.1 99.2,4.1 103.7,7.4" id="Shape" stroke="#1676EE" stroke-width="3" stroke-linecap="round" stroke-linejoin="round"></path>
            <path d="M114.4,25.1 C114.6,26.4 114.7,27.7 114.7,29.1 C114.7,44 102.6,56.2 87.6,56.2 C72.7,56.2 60.5,44.1 60.5,29.1 C60.5,20.7 64.3,13.2 70.3,8.3" id="Shape" stroke="#1676EE" stroke-width="3" stroke-linecap="round" stroke-linejoin="round"></path>
            <path d="M109.8,13.6 C110.1,14 110.4,14.5 110.7,15" id="Shape" stroke="#1676EE" stroke-width="3" stroke-linecap="round" stroke-linejoin="round"></path>
            <path d="M97.4,37 C94.6,39.1 91.6,41 88.7,43 C88.5,43.1 88.1,43.2 88,43.1 C80.2,38.2 71.4,33.2 73.8,23.2 C75,18.5 79.7,16.2 84.1,18.2 C85.1,18.6 86.1,19.3 87,20 C88.1,20.8 88.4,20.8 89.4,20 C95,15.3 101.8,17.8 102.9,24 C103.7,28.9 102,33.5 97.4,37 Z" id="Shape" stroke="#1676EE" stroke-width="3" fill="#FFFFFF" fill-rule="nonzero" stroke-linecap="round" stroke-linejoin="round"></path>
            <path d="M87.5,20.2 L87.7,20.3 C88.9,21.2 89.8,22.1 91.2,23.9" id="Shape" stroke="#1676EE" stroke-width="3" fill="#FFFFFF" fill-rule="nonzero" stroke-linecap="round" stroke-linejoin="round"></path>
        </g>
    </g>
</svg>