<?xml version="1.0" encoding="UTF-8"?>
<svg width="149px" height="109px" viewBox="0 0 149 109" version="1.1" xmlns="http://www.w3.org/2000/svg" xmlns:xlink="http://www.w3.org/1999/xlink">
    <!-- Generator: Sketch 51.2 (57519) - http://www.bohemiancoding.com/sketch -->
    <title>Upload</title>
    <desc>Created with Sketch.</desc>
    <defs></defs>
    <g id="Page-1" stroke="none" stroke-width="1" fill="none" fill-rule="evenodd">
        <g id="Upload" transform="translate(2.000000, 2.000000)">
            <g id="Group" transform="translate(0.000000, 104.000000)" stroke="#91C2FF" stroke-linecap="round" stroke-linejoin="round" stroke-width="3">
                <path d="M1,0.6 L0.1,0.6" id="Shape"></path>
                <path d="M23.7,0.6 L4.8,0.6" id="Shape"></path>
                <path d="M28.6,0.6 L27.7,0.6" id="Shape"></path>
                <path d="M104.4,0.6 L33.6,0.6" id="Shape"></path>
                <path d="M139.4,0.6 L108.4,0.6" id="Shape"></path>
                <path d="M145.5,0.6 L144.1,0.6" id="Shape"></path>
            </g>
            <g id="Group" transform="translate(17.000000, 30.000000)">
                <path d="M111.4,67.1 L111.4,70 C111.4,72.6 109.2,74.8 106.4,74.8 L5.2,74.8 C2.4,74.8 0.2,72.7 0.2,70 L0.2,67.1 L46,67.1 C46.4,68.2 47.4,68.9 48.7,68.9 L63,68.9 C64.3,68.9 65.3,68.1 65.7,67.1 L111.4,67.1 Z" id="Shape" fill="#FFFFFF" fill-rule="nonzero"></path>
                <path d="M105.7,67.1 L5.9,67.1 L5.9,4.4 C5.9,2.1 7.7,0.3 10,0.3 L101.5,0.3 C103.8,0.3 105.6,2.1 105.6,4.4 L105.6,67.1 L105.7,67.1 Z" id="Shape" fill="#FFFFFF" fill-rule="nonzero"></path>
                <path d="M105.7,67.1 L8.4,67.1 L8.4,4.9 C8.4,3.4 9.6,2.3 11,2.3 L101.7,2.3 C103.9,2.3 105.7,4.1 105.7,6.3 L105.7,67.1 Z" id="Shape" fill="#DDECFE" fill-rule="nonzero"></path>
                <polyline id="Shape" stroke="#1676EE" stroke-width="3" stroke-linecap="round" stroke-linejoin="round" points="42.5 67.1 5.9 67.1 5.9 34.6"></polyline>
                <path d="M98.8,0.3 L101.6,0.3 C103.9,0.3 105.7,2.1 105.7,4.4 L105.7,67.1 L79.3,67.1" id="Shape" stroke="#1676EE" stroke-width="3" stroke-linecap="round" stroke-linejoin="round"></path>
                <path d="M5.9,19.1 L5.9,4.4 C5.9,2.1 7.7,0.3 10,0.3 L14.8,0.3" id="Shape" stroke="#1676EE" stroke-width="3" stroke-linecap="round" stroke-linejoin="round"></path>
                <path d="M5.9,25.9 L5.9,25.4" id="Shape" stroke="#1676EE" stroke-width="3" stroke-linecap="round" stroke-linejoin="round"></path>
                <path d="M111.4,69.4 L111.4,71.4 C111.4,73.3 109.2,74.8 106.5,74.8 L7.9,74.8 C5.2,74.8 3,73.3 3,71.4 L3,69.4 L44.9,69.4 C45.3,70.2 46.3,70.7 47.5,70.7 L64.2,70.7 C65.4,70.7 66.5,70.2 66.8,69.4 L111.4,69.4 Z" id="Shape" fill="#99C7FF" fill-rule="nonzero"></path>
                <path d="M10.6,5.5 L100.7,5.5" id="Shape" fill="#FFFFFF" fill-rule="nonzero"></path>
                <polyline id="Shape" fill="#FFFFFF" fill-rule="nonzero" points="80.8 67.4 10.6 67.4 10.6 5.5 100.7 5.5 100.7 67.4 91.2 67.4"></polyline>
                <polyline id="Shape" stroke="#1676EE" stroke-width="3" stroke-linecap="round" stroke-linejoin="round" points="98.1 5.5 100.7 5.5 100.7 19.8"></polyline>
                <polyline id="Shape" stroke="#1676EE" stroke-width="3" stroke-linecap="round" stroke-linejoin="round" points="40.4 67.1 10.6 67.1 10.6 5.5 15.7 5.5"></polyline>
                <path d="M73.6,67.1 L73.1,67.1" id="Shape" stroke="#1676EE" stroke-width="3" stroke-linecap="round" stroke-linejoin="round"></path>
                <path d="M100.7,67.1 L77.3,67.1" id="Shape" stroke="#1676EE" stroke-width="3" stroke-linecap="round" stroke-linejoin="round"></path>
                <path d="M100.7,26.4 L100.7,67.1" id="Shape" stroke="#1676EE" stroke-width="3" stroke-linecap="round" stroke-linejoin="round"></path>
                <path d="M100.7,67.1 L111.4,67.1 L111.4,70 C111.4,72.6 109.2,74.8 106.4,74.8 L5.2,74.8 C2.4,74.8 0.2,72.7 0.2,70 L0.2,67.1 L46,67.1 C46.4,68.2 47.4,68.9 48.7,68.9 L63,68.9 C63.9,68.9 64.7,68.5 65.2,67.9" id="Shape" stroke="#1676EE" stroke-width="3" stroke-linecap="round" stroke-linejoin="round"></path>
            </g>
            <g id="Group" transform="translate(2.000000, 15.000000)" stroke="#91C2FF" stroke-linecap="round" stroke-linejoin="round" stroke-width="3">
                <path d="M0.7,25.6 L0.7,25.1" id="Shape"></path>
                <path d="M0.7,17.9 L0.7,5.7 C0.7,2.8 3,0.5 5.9,0.5 L31.4,0.5" id="Shape" stroke-dasharray="1.0315,7.2202"></path>
                <path d="M35.1,0.5 L35.6,0.5" id="Shape"></path>
            </g>
            <circle id="Oval" stroke="#91C2FF" stroke-width="3" fill="#FFFFFF" fill-rule="nonzero" stroke-linecap="round" stroke-linejoin="round" cx="2.7" cy="41.3" r="2.4"></circle>
            <path d="M136.4,53.2 C141.3,48.3 144.3,41.5 144.3,34 C144.3,18.9 132.1,6.6 116.9,6.6 C113.3,6.6 109.9,7.3 106.8,8.5" id="Shape" stroke="#91C2FF" stroke-width="3" stroke-linecap="round" stroke-linejoin="round" stroke-dasharray="1,7"></path>
            <circle id="Oval" stroke="#91C2FF" stroke-width="3" fill="#FFFFFF" fill-rule="nonzero" stroke-linecap="round" stroke-linejoin="round" cx="138.6" cy="17.1" r="3.6"></circle>
            <path d="M99.5,17.3 C106.2,17.3 111.6,22.7 111.6,29.4 C111.6,32.3 110.5,35 108.8,37.1 C106.6,39.8 103.2,41.5 99.5,41.5 L48.1,41.5 C46.6,41.5 45.1,41.2 43.7,40.7 C39.2,39 36,34.6 36,29.4 C36,23.7 40,18.9 45.3,17.6 C45.3,17.4 45.3,17.1 45.3,16.9 C45.3,7.6 52.8,0.1 62.1,0.1 C68.1,0.1 73.4,3.3 76.3,8 C78.7,6.5 81.5,5.6 84.5,5.6 C91.8,5.6 97.9,10.6 99.5,17.3 Z" id="Shape" fill="#FFFFFF" fill-rule="nonzero"></path>
            <path d="M110.7,34.2 C110.7,36.5 110,38.7 108.9,40.5 C106.7,43.2 103.3,44.9 99.6,44.9 L48.2,44.9 C46.7,44.9 45.2,44.6 43.8,44.1 C40.6,42.1 38.4,38.4 38.4,34.3 C38.4,33.8 38.4,33.3 38.5,32.9 C39.1,28.1 42.6,24.2 47.3,23.1 C47.3,22.9 47.3,22.6 47.3,22.4 C47.3,13.5 54.5,6.3 63.4,6.3 C69.1,6.3 74.2,9.3 77,13.8 C79.3,12.3 82,11.5 84.9,11.5 C91.8,11.5 97.6,16.3 99.1,22.7 C103.8,22.7 107.8,25.5 109.6,29.5 C110.3,30.9 110.7,32.5 110.7,34.2 Z" id="Shape" fill="#D4E8FF" fill-rule="nonzero"></path>
            <path d="M110.7,30.2 C110.7,32.5 110,34.7 108.9,36.5 C106.7,39.2 103.3,40.9 99.6,40.9 L48.2,40.9 C46.7,40.9 45.2,40.6 43.8,40.1 C40.6,38.1 38.4,34.4 38.4,30.3 C38.4,29.8 38.4,29.3 38.5,28.9 C39.1,24.1 42.6,20.2 47.3,19.1 C47.3,18.9 47.3,18.6 47.3,18.4 C47.3,9.5 54.5,2.3 63.4,2.3 C69.1,2.3 74.2,5.3 77,9.8 C79.3,8.3 82,7.5 84.9,7.5 C91.8,7.5 97.6,12.3 99.1,18.7 C103.8,18.7 107.8,21.5 109.6,25.5 C110.3,26.8 110.7,28.5 110.7,30.2 Z" id="Shape" fill="#B8D9FF" fill-rule="nonzero"></path>
            <path d="M109.6,25.4 C109.4,27.2 108.8,28.8 107.8,30.2 C105.6,32.9 102.2,34.6 98.5,34.6 L47.1,34.6 C45.6,34.6 44.1,34.3 42.7,33.8 C40.8,32.6 39.3,30.9 38.3,28.8 C38.9,24 42.4,20.1 47.1,19 C47.1,18.8 47.1,18.5 47.1,18.3 C47.1,9.4 54.3,2.2 63.2,2.2 C68.9,2.2 74,5.2 76.8,9.7 C79.1,8.2 81.8,7.4 84.7,7.4 C91.6,7.4 97.4,12.2 98.9,18.6 C103.8,18.6 107.8,21.4 109.6,25.4 Z" id="Shape" fill="#DDECFE" fill-rule="nonzero"></path>
            <path d="M55,1.7 C54.9,1.8 54.8,1.8 54.7,1.9" id="Shape" stroke="#1676EE" stroke-width="3" stroke-linecap="round" stroke-linejoin="round"></path>
            <path d="M98.4,41.5 L99.5,41.5 C106.2,41.5 111.6,36.1 111.6,29.4 C111.6,22.7 106.2,17.3 99.5,17.3 C99.5,17.3 99.5,17.3 99.5,17.3 C97.9,10.6 91.8,5.6 84.6,5.6 C81.6,5.6 78.7,6.5 76.4,8 C73.4,3.3 68.2,0.1 62.2,0.1 C61.6,0.1 61,0.1 60.4,0.2" id="Shape" stroke="#1676EE" stroke-width="3" stroke-linecap="round" stroke-linejoin="round"></path>
            <path d="M40.5,20 C37.8,22.2 36.1,25.6 36.1,29.3 C36.1,36 41.5,41.4 48.2,41.4 L92.8,41.4" id="Shape" stroke="#1676EE" stroke-width="3" stroke-linecap="round" stroke-linejoin="round"></path>
            <path d="M51.8,3.6 C47.9,6.7 45.3,11.5 45.3,16.9 C45.3,17.1 45.3,17.4 45.3,17.6 C44.8,17.7 44.2,17.9 43.7,18.1" id="Shape" stroke="#1676EE" stroke-width="3" stroke-linecap="round" stroke-linejoin="round"></path>
            <path d="M76.4,8 C77.4,9.7 78.2,11.5 78.6,13.5" id="Shape" stroke="#1676EE" stroke-width="3" stroke-linecap="round" stroke-linejoin="round"></path>
            <path d="M99.5,24.6 C99.5,24.6 99.4,24.7 99.5,24.6" id="Shape" stroke="#1676EE" stroke-width="3" stroke-linecap="round" stroke-linejoin="round"></path>
            <path d="M99.5,17.3 C99.8,18.5 99.9,19.7 99.9,20.9 C99.9,21.2 99.9,21.5 99.9,21.8" id="Shape" stroke="#1676EE" stroke-width="3" stroke-linecap="round" stroke-linejoin="round"></path>
            <path d="M59.6,30.9 C63.3,28.4 67.8,27 72.6,27 C85.7,27 96.3,37.6 96.3,50.7 C96.3,63.8 85.7,74.4 72.6,74.4 C59.5,74.4 48.9,63.8 48.9,50.7 C48.9,42.4 53.1,35.1 59.6,30.9" id="Shape" fill="#D4E8FF" fill-rule="nonzero"></path>
            <path d="M62.9,30.2 C66.2,28 70.2,26.7 74.5,26.7 C86.2,26.7 95.6,36.2 95.6,47.8 C95.6,59.5 86.1,68.9 74.5,68.9 C62.8,68.9 53.4,59.4 53.4,47.8 C53.3,40.5 57.1,34 62.9,30.2" id="Shape" fill="#6BADFF" fill-rule="nonzero"></path>
            <path d="M67.8,27.8 C68,27.8 68.2,27.7 68.3,27.6 C70.2,27 72.3,26.7 74.4,26.7 C79.1,26.7 83.5,28.2 87,30.8" id="Shape" stroke="#1676EE" stroke-width="3" stroke-linecap="round" stroke-linejoin="round"></path>
            <path d="M95.4,44.8 C95.6,45.8 95.6,46.9 95.6,47.9 C95.6,59.6 86.1,69 74.5,69 C62.8,69 53.4,59.5 53.4,47.9 C53.4,41.4 56.4,35.5 61.1,31.6" id="Shape" stroke="#1676EE" stroke-width="3" stroke-linecap="round" stroke-linejoin="round"></path>
            <path d="M91.8,35.8 C92,36.1 92.3,36.5 92.5,36.9" id="Shape" stroke="#1676EE" stroke-width="3" stroke-linecap="round" stroke-linejoin="round"></path>
            <g id="Group" transform="translate(63.000000, 33.000000)" fill-rule="nonzero">
                <path d="M11.5,27.5 C9.6,27.5 8,25.9 8,24 L8,14.1 L7.7,14.4 C7,15.1 6.2,15.4 5.2,15.4 C4.2,15.4 3.4,15 2.7,14.4 C2,13.7 1.7,12.9 1.7,11.9 C1.7,11 2.1,10.1 2.7,9.4 L8.9,3.2 C9.6,2.5 10.4,2.2 11.4,2.2 C12.4,2.2 13.2,2.6 13.9,3.2 L20.1,9.4 C20.8,10.1 21.1,10.9 21.1,11.9 C21.1,12.8 20.7,13.7 20.1,14.4 C19.5,15.1 18.6,15.4 17.6,15.4 C16.6,15.4 15.8,15 15.1,14.4 L14.8,14.1 L14.8,24 C15,26 13.4,27.5 11.5,27.5 Z" id="Shape" fill="#FFFFFF"></path>
                <path d="M11.5,3.8 C12,3.8 12.5,4 12.9,4.4 L19.1,10.6 C19.9,11.4 19.9,12.6 19.1,13.4 C18.7,13.8 18.2,14 17.7,14 C17.2,14 16.7,13.8 16.3,13.4 L13.4,10.5 L13.4,24 C13.4,25.1 12.5,26 11.4,26 C10.3,26 9.4,25.1 9.4,24 L9.4,10.5 L6.5,13.4 C6.1,13.8 5.6,14 5.1,14 C4.6,14 4.1,13.8 3.7,13.4 C3.3,13 3.1,12.5 3.1,12 C3.1,11.5 3.3,11 3.7,10.6 L9.9,4.4 C10.5,4 11,3.8 11.5,3.8 Z M11.5,0.8 C10.2,0.8 8.9,1.3 8,2.3 L1.8,8.5 C0.9,9.4 0.3,10.7 0.3,12 C0.3,13.3 0.8,14.6 1.8,15.5 C2.7,16.4 4,17 5.3,17 C5.7,17 6.2,16.9 6.6,16.8 L6.6,24 C6.6,26.7 8.8,29 11.6,29 C14.4,29 16.6,26.8 16.6,24 L16.6,16.8 C17,16.9 17.4,17 17.9,17 C19.2,17 20.5,16.5 21.4,15.5 C23.3,13.6 23.3,10.4 21.4,8.5 L15.2,2.3 C14.1,1.3 12.8,0.8 11.5,0.8 Z" id="Shape" fill="#1676EE"></path>
            </g>
            <g id="Group" transform="translate(38.000000, 76.000000)" fill-rule="nonzero">
                <path d="M7.2,11.5 C4.5,11.5 2.3,9.3 2.3,6.6 C2.3,3.9 4.5,1.7 7.2,1.7 L65.5,1.7 C68.2,1.7 70.4,3.9 70.4,6.6 C70.4,9.3 68.2,11.5 65.5,11.5 L7.2,11.5 Z" id="Shape" fill="#FFFFFF"></path>
                <path d="M65.5,3.2 C67.4,3.2 68.9,4.7 68.9,6.6 C68.9,8.5 67.4,10 65.5,10 L7.2,10 C5.3,10 3.8,8.5 3.8,6.6 C3.8,4.7 5.3,3.2 7.2,3.2 L65.5,3.2 Z M65.5,0.2 L7.2,0.2 C3.7,0.2 0.8,3.1 0.8,6.6 C0.8,10.1 3.7,13 7.2,13 L65.5,13 C69,13 71.9,10.1 71.9,6.6 C71.9,3.1 69,0.2 65.5,0.2 Z" id="Shape" fill="#99C7FF"></path>
            </g>
            <path d="M64.8,84.1 L45.7,84.1 C44.9,84.1 44.3,83.5 44.3,82.7 C44.3,81.9 44.9,81.3 45.7,81.3 L64.8,81.3 C65.6,81.3 66.2,81.9 66.2,82.7 C66.2,83.5 65.6,84.1 64.8,84.1 Z" id="Shape" fill="#1676EE" fill-rule="nonzero"></path>
        </g>
    </g>
</svg>