<?xml version="1.0" encoding="utf-8"?>
<!-- Generator: Adobe Illustrator 26.0.3, SVG Export Plug-In . SVG Version: 6.00 Build 0)  -->
<svg version="1.1" id="Layer_1" xmlns="http://www.w3.org/2000/svg" xmlns:xlink="http://www.w3.org/1999/xlink" x="0px" y="0px"
	 viewBox="0 0 500 500" style="enable-background:new 0 0 500 500;" xml:space="preserve">
<style type="text/css">
	.st0{fill:#FFFFFF;}
</style>
<g>
	<path class="st0" d="M75.8,170.7c0-7,5.7-12.7,12.7-12.7h20.8l0,0l0,0l0,0h0.6l0,0c48.3,0.3,87,41.4,83.5,90.5
		c-3,41.5-36.6,75-78.1,77.9C66.1,329.8,25,290.8,25,242.3v-71.6c0-7,5.7-12.7,12.7-12.7l0,0c7,0,12.7,5.7,12.7,12.7V241
		c0,32,25.1,59.2,57.1,60.1c33.3,1,60.7-25.8,60.7-58.9c0-32.5-26.4-58.9-58.8-58.9H88.5C81.5,183.4,75.8,177.7,75.8,170.7
		L75.8,170.7z"/>
	<g>
		<path class="st0" d="M250.9,276.8c1.5,1.9,2.2,4.1,2.2,6.6c0,3.6-1.2,6.4-3.7,8.5s-5.9,3.1-10.4,3.1h-19.8v-42.5h19.1
			c4.3,0,7.7,1,10.1,3s3.7,4.7,3.7,8.1c0,2.5-0.7,4.6-2,6.2c-1.3,1.7-3.1,2.8-5.2,3.5C247.4,273.7,249.4,274.9,250.9,276.8z
			 M229.6,269.7h6.8c1.7,0,3-0.4,3.9-1.1s1.4-1.8,1.4-3.3s-0.5-2.6-1.4-3.3c-0.9-0.8-2.2-1.2-3.9-1.2h-6.8V269.7z M241.2,285.4
			c0.9-0.8,1.4-1.9,1.4-3.4s-0.5-2.7-1.5-3.5s-2.4-1.3-4.1-1.3h-7.5v9.4h7.6C238.9,286.6,240.3,286.2,241.2,285.4z"/>
		<path class="st0" d="M269.3,252.5v25.4c0,2.5,0.6,4.5,1.9,5.9s3.1,2.1,5.5,2.1s4.3-0.7,5.6-2.1c1.3-1.4,1.9-3.3,1.9-5.9v-25.4
			h10.4v25.4c0,3.8-0.8,7-2.4,9.6s-3.8,4.6-6.5,5.9s-5.8,2-9.1,2c-3.4,0-6.4-0.7-9-2s-4.7-3.3-6.3-5.9c-1.5-2.6-2.3-5.9-2.3-9.7
			v-25.4h10.3V252.5z"/>
		<path class="st0" d="M312.2,287h13.6v8h-23.9v-42.5h10.4V287H312.2z"/>
		<path class="st0" d="M340.9,252.5v25.4c0,2.5,0.6,4.5,1.9,5.9s3.1,2.1,5.5,2.1s4.3-0.7,5.6-2.1c1.3-1.4,1.9-3.3,1.9-5.9v-25.4
			h10.4v25.4c0,3.8-0.8,7-2.4,9.6s-3.8,4.6-6.5,5.9s-5.8,2-9.1,2c-3.4,0-6.4-0.7-9-2s-4.7-3.3-6.3-5.9c-1.5-2.6-2.3-5.9-2.3-9.7
			v-25.4h10.3V252.5z"/>
		<path class="st0" d="M404,252.5v8.3h-11.3V295h-10.4v-34.2H371v-8.3L404,252.5L404,252.5z"/>
		<path class="st0" d="M419.6,287h13.6v8h-23.9v-42.5h10.4V287H419.6z"/>
		<path class="st0" d="M474.6,252.5L459.9,281v14h-10.4v-14.1l-14.7-28.5h11.8l8.2,17.8l8.2-17.8h11.6V252.5z"/>
	</g>
	<g>
		<path class="st0" d="M228.4,323.1h-7.2l-1.2,3.5h-3.8l6.5-18.2h4.2l6.5,18.2h-3.9L228.4,323.1z M227.4,320.2l-2.6-7.6l-2.6,7.6
			H227.4z"/>
		<path class="st0" d="M248.1,313.6c1.1,1.1,1.6,2.6,1.6,4.5v8.5H246v-8c0-1.1-0.3-2-0.9-2.6c-0.6-0.6-1.4-0.9-2.3-0.9
			c-1,0-1.8,0.3-2.4,0.9c-0.6,0.6-0.9,1.5-0.9,2.6v8h-3.6v-14.4h3.6v1.8c0.5-0.6,1.1-1.1,1.9-1.5c0.8-0.4,1.6-0.5,2.5-0.5
			C245.6,312,247,312.5,248.1,313.6z"/>
		<path class="st0" d="M266.9,312.2l-8.9,21.3h-3.9l3.1-7.2l-5.8-14.1h4.1l3.7,10.1l3.8-10.1L266.9,312.2L266.9,312.2z"/>
		<path class="st0" d="M273.1,315.2v7c0,0.5,0.1,0.8,0.4,1.1c0.2,0.2,0.6,0.3,1.2,0.3h1.7v3.1h-2.3c-3.1,0-4.6-1.5-4.6-4.5v-7h-1.7
			v-3h1.7v-3.6h3.7v3.6h3.2v3H273.1z"/>
		<path class="st0" d="M290,312.7c0.9,0.5,1.5,1.2,2,2.1s0.7,2,0.7,3.3v8.5h-3.6v-8c0-1.1-0.3-2-0.9-2.6s-1.4-0.9-2.3-0.9
			c-1,0-1.8,0.3-2.4,0.9s-0.9,1.5-0.9,2.6v8H279v-19.3h3.6v6.6c0.5-0.6,1.1-1.1,1.9-1.5s1.6-0.5,2.6-0.5
			C288.2,312,289.2,312.2,290,312.7z"/>
		<path class="st0" d="M296.4,309.8c-0.4-0.4-0.6-0.9-0.6-1.5s0.2-1.1,0.6-1.5s1-0.6,1.6-0.6s1.2,0.2,1.6,0.6s0.6,0.9,0.6,1.5
			s-0.2,1.1-0.6,1.5s-1,0.6-1.6,0.6S296.9,310.2,296.4,309.8z M299.8,312.2v14.4h-3.6v-14.4H299.8z"/>
		<path class="st0" d="M315.6,313.6c1.1,1.1,1.6,2.6,1.6,4.5v8.5h-3.6v-8c0-1.1-0.3-2-0.9-2.6s-1.4-0.9-2.3-0.9
			c-1,0-1.8,0.3-2.4,0.9s-0.9,1.5-0.9,2.6v8h-3.6v-14.4h3.6v1.8c0.5-0.6,1.1-1.1,1.9-1.5s1.6-0.5,2.5-0.5
			C313.2,312,314.6,312.5,315.6,313.6z"/>
		<path class="st0" d="M329.2,312.6c0.8,0.4,1.5,1,1.9,1.7v-2.1h3.7v14.5c0,1.3-0.3,2.5-0.8,3.6s-1.3,1.9-2.4,2.5s-2.4,0.9-3.9,0.9
			c-2,0-3.7-0.5-5-1.4c-1.3-1-2.1-2.3-2.2-3.9h3.6c0.2,0.7,0.6,1.2,1.2,1.6s1.4,0.6,2.3,0.6c1.1,0,1.9-0.3,2.6-1
			c0.7-0.6,1-1.6,1-2.9v-2.2c-0.5,0.7-1.1,1.2-1.9,1.7s-1.8,0.7-2.8,0.7c-1.2,0-2.3-0.3-3.3-0.9s-1.8-1.5-2.4-2.6s-0.9-2.4-0.9-3.9
			s0.3-2.8,0.9-3.9s1.4-2,2.4-2.6s2.1-0.9,3.3-0.9C327.4,311.9,328.3,312.1,329.2,312.6z M330.6,317.1c-0.3-0.6-0.8-1.1-1.4-1.5
			c-0.6-0.3-1.2-0.5-1.9-0.5c-0.7,0-1.3,0.2-1.9,0.5s-1,0.8-1.4,1.4s-0.5,1.4-0.5,2.3s0.2,1.6,0.5,2.3c0.4,0.7,0.8,1.2,1.4,1.5
			s1.2,0.5,1.9,0.5c0.7,0,1.3-0.2,1.9-0.5s1.1-0.8,1.4-1.5c0.3-0.6,0.5-1.4,0.5-2.3S330.9,317.7,330.6,317.1z"/>
		<path class="st0" d="M359,308.4l-6.1,11.9v6.3h-3.6v-6.3l-6.2-11.9h4.1l3.9,8.3l3.9-8.3H359z"/>
		<path class="st0" d="M363.8,325.9c-1.1-0.6-2-1.5-2.6-2.6s-1-2.4-1-3.9s0.3-2.8,1-3.9s1.5-2,2.7-2.6c1.1-0.6,2.4-0.9,3.8-0.9
			s2.6,0.3,3.8,0.9c1.1,0.6,2,1.5,2.7,2.6s1,2.4,1,3.9s-0.3,2.8-1,3.9s-1.6,2-2.7,2.6s-2.4,0.9-3.8,0.9
			C366.1,326.8,364.9,326.5,363.8,325.9z M369.4,323.2c0.6-0.3,1-0.8,1.4-1.4s0.5-1.4,0.5-2.3c0-1.4-0.4-2.4-1.1-3.2
			s-1.6-1.1-2.6-1.1s-1.9,0.4-2.6,1.1s-1.1,1.8-1.1,3.2s0.3,2.4,1,3.2s1.6,1.1,2.6,1.1C368.2,323.7,368.8,323.5,369.4,323.2z"/>
		<path class="st0" d="M391.3,312.2v14.4h-3.7v-1.8c-0.5,0.6-1.1,1.1-1.8,1.5s-1.6,0.5-2.5,0.5c-1.1,0-2.1-0.2-3-0.7s-1.5-1.2-2-2.1
			s-0.7-2-0.7-3.3v-8.5h3.6v7.9c0,1.1,0.3,2,0.9,2.6s1.4,0.9,2.3,0.9c1,0,1.8-0.3,2.4-0.9s0.9-1.5,0.9-2.6v-7.9H391.3z"/>
		<path class="st0" d="M413.5,308.4v2.9h-4.8v15.2H405v-15.2h-4.8v-2.9H413.5z"/>
		<path class="st0" d="M427.2,312.7c0.9,0.5,1.5,1.2,2,2.1s0.7,2,0.7,3.3v8.5h-3.6v-8c0-1.1-0.3-2-0.9-2.6s-1.4-0.9-2.3-0.9
			c-1,0-1.8,0.3-2.4,0.9s-0.9,1.5-0.9,2.6v8h-3.6v-19.3h3.6v6.6c0.5-0.6,1.1-1.1,1.9-1.5s1.6-0.5,2.6-0.5
			C425.4,312,426.4,312.2,427.2,312.7z"/>
		<path class="st0" d="M433.6,309.8c-0.4-0.4-0.6-0.9-0.6-1.5s0.2-1.1,0.6-1.5s1-0.6,1.6-0.6s1.2,0.2,1.6,0.6s0.6,0.9,0.6,1.5
			s-0.2,1.1-0.6,1.5s-1,0.6-1.6,0.6S434.1,310.2,433.6,309.8z M437,312.2v14.4h-3.6v-14.4H437z"/>
		<path class="st0" d="M452.8,313.6c1.1,1.1,1.6,2.6,1.6,4.5v8.5h-3.6v-8c0-1.1-0.3-2-0.9-2.6s-1.4-0.9-2.3-0.9
			c-1,0-1.8,0.3-2.4,0.9s-0.9,1.5-0.9,2.6v8h-3.6v-14.4h3.6v1.8c0.5-0.6,1.1-1.1,1.9-1.5s1.6-0.5,2.5-0.5
			C450.4,312,451.7,312.5,452.8,313.6z"/>
		<path class="st0" d="M466.4,326.6l-4.9-6.1v6.1h-3.6v-19.3h3.6v11l4.8-6.1h4.7l-6.4,7.2l6.4,7.2L466.4,326.6L466.4,326.6z"/>
	</g>
</g>
</svg>
