<?xml version="1.0" encoding="utf-8"?>
<!-- Generator: Adobe Illustrator 26.0.3, SVG Export Plug-In . SVG Version: 6.00 Build 0)  -->
<svg version="1.1" id="Layer_1" xmlns="http://www.w3.org/2000/svg" xmlns:xlink="http://www.w3.org/1999/xlink" x="0px" y="0px"
	 viewBox="0 0 500 500" style="enable-background:new 0 0 500 500;" xml:space="preserve">
<style type="text/css">
	.st0{fill:#0074F2;}
</style>
<path class="st0" d="M186.6,114.6c0-13.3,10.8-24.1,24.1-24.1l39.4,0v0c0,0,0,0,0,0c0,0,0,0,0.1,0h1.1v0
	c91.3,0.7,164.5,78.3,157.9,171.1c-5.6,78.4-69.2,141.9-147.6,147.4C168.3,415.6,90.5,341.7,90.5,250V114.6
	c0-13.3,10.8-24.1,24.1-24.1h0c13.3,0,24.1,10.8,24.1,24.1v133.1c0,60.6,47.4,111.9,108,113.7c62.9,1.9,114.7-48.8,114.7-111.3
	c0-61.4-49.9-111.3-111.3-111.4l-39.4,0C197.3,138.6,186.6,127.9,186.6,114.6L186.6,114.6z"/>
</svg>
