<?xml version="1.0" encoding="UTF-8"?>
<svg width="151px" height="108px" viewBox="0 0 151 108" version="1.1" xmlns="http://www.w3.org/2000/svg" xmlns:xlink="http://www.w3.org/1999/xlink">
    <!-- Generator: Sketch 51.2 (57519) - http://www.bohemiancoding.com/sketch -->
    <title>iPad Touch</title>
    <desc>Created with Sketch.</desc>
    <defs></defs>
    <g id="Page-1" stroke="none" stroke-width="1" fill="none" fill-rule="evenodd">
        <g id="iPad-Touch" transform="translate(2.000000, 2.000000)">
            <g id="Group" transform="translate(82.000000, 0.000000)" stroke="#91C2FF" stroke-linecap="round" stroke-linejoin="round" stroke-width="3">
                <path d="M53.6,29.3 L53.6,28.8" id="Shape"></path>
                <path d="M53.6,21.9 L53.6,6.3 C53.6,3.1 51,0.4 47.7,0.4 L4.4,0.4" id="Shape" stroke-dasharray="0.9944,6.9607"></path>
                <path d="M0.9,0.5 L0.4,0.5" id="Shape"></path>
            </g>
            <circle id="Oval" stroke="#91C2FF" stroke-width="3" fill="#FFFFFF" fill-rule="nonzero" stroke-linecap="round" stroke-linejoin="round" cx="135.6" cy="30.1" r="2.7"></circle>
            <g id="Group" transform="translate(0.000000, 10.000000)">
                <g transform="translate(23.000000, 0.000000)">
                    <path d="M100.3,66.2 L100.3,7.5 C100.3,3.5 97.1,0.3 93.1,0.3 L8,0.3 C4,0.3 0.8,3.5 0.8,7.5 L0.8,66.2 C0.8,70.2 4,73.4 8,73.4 L93.2,73.4 C97.1,73.3 100.3,70.1 100.3,66.2 Z" id="Shape" fill="#FFFFFF" fill-rule="nonzero"></path>
                    <path d="M7.9,73.3 L93.1,73.3 C97.1,73.3 100.3,70.1 100.3,66.1 L100.3,7.4 C100.3,3.4 97.1,0.2 93.1,0.2 L7.9,0.2 C3.9,0.2 0.7,3.4 0.7,7.4 L0.7,66.1 C0.8,70.1 4,73.3 7.9,73.3 Z" id="Shape" fill="#C2DDFF" fill-rule="nonzero"></path>
                    <rect id="Rectangle-path" fill="#FFFFFF" fill-rule="nonzero" x="8.7" y="0.3" width="80.1" height="73"></rect>
                    <path d="M28.7,0.3 L8,0.3 C4,0.3 0.8,3.5 0.8,7.5 L0.8,66.2 C0.8,70.2 4,73.4 8,73.4 L93.2,73.4 C97.2,73.4 100.4,70.2 100.4,66.2 L100.4,7.5 C100.4,3.5 97.2,0.3 93.2,0.3 L43.9,0.3" id="Shape" stroke="#1676EE" stroke-width="3" stroke-linecap="round" stroke-linejoin="round"></path>
                    <path d="M32.4,0.3 L32.1,0.3" id="Shape" stroke="#1676EE" stroke-width="3" stroke-linecap="round" stroke-linejoin="round"></path>
                    <circle id="Oval" stroke="#1676EE" stroke-width="3" stroke-linecap="round" stroke-linejoin="round" cx="94.4" cy="37.3" r="2.4"></circle>
                    <path d="M9.1,67.5 L9.1,72.8" id="Shape" stroke="#1676EE" stroke-width="3" stroke-linecap="round" stroke-linejoin="round"></path>
                    <path d="M9.1,5.4 L9.1,63.3" id="Shape" stroke="#1676EE" stroke-width="3" stroke-linecap="round" stroke-linejoin="round"></path>
                    <path d="M88.5,60.7 L88.5,0.8" id="Shape" stroke="#1676EE" stroke-width="3" stroke-linecap="round" stroke-linejoin="round"></path>
                    <path d="M88.5,72.8 L88.5,65.2" id="Shape" stroke="#1676EE" stroke-width="3" stroke-linecap="round" stroke-linejoin="round"></path>
                    <path d="M4.9,34.8 L4.9,41.1" id="Shape" stroke="#1676EE" stroke-width="3" stroke-linecap="round" stroke-linejoin="round"></path>
                    <path d="M4.9,30.7 L4.9,31.2" id="Shape" stroke="#1676EE" stroke-width="3" stroke-linecap="round" stroke-linejoin="round"></path>
                </g>
                <circle id="Oval" stroke="#91C2FF" stroke-width="3" stroke-linecap="round" stroke-linejoin="round" cx="91.2" cy="50.8" r="11.4"></circle>
                <path d="M75.2,38.1 C79,33.4 84.8,30.3 91.3,30.3 C98.1,30.3 104.1,33.6 107.8,38.6" id="Shape" stroke="#C2DDFF" stroke-width="3" stroke-linecap="round" stroke-linejoin="round"></path>
                <path d="M94.5,71 C93.4,71.2 92.3,71.3 91.2,71.3 C79.9,71.3 70.7,62.1 70.7,50.8 C70.7,48.9 71,47 71.5,45.2" id="Shape" stroke="#C2DDFF" stroke-width="3" stroke-linecap="round" stroke-linejoin="round"></path>
                <path d="M93.5,19 C98.9,19.4 103.9,21.1 108.3,23.8" id="Shape" stroke="#DEEDFF" stroke-width="3" stroke-linecap="round" stroke-linejoin="round"></path>
                <path d="M62.6,36.9 C67,27.8 75.7,21.1 86.1,19.4" id="Shape" stroke="#DEEDFF" stroke-width="3" stroke-linecap="round" stroke-linejoin="round"></path>
                <path d="M65.3,69.2 C61.6,64 59.4,57.6 59.4,50.7 C59.4,47.3 59.9,44 60.9,40.9" id="Shape" stroke="#DEEDFF" stroke-width="3" stroke-linecap="round" stroke-linejoin="round"></path>
                <g transform="translate(87.000000, 45.000000)" id="Shape">
                    <path d="M43.2,2.4 C42,0.6 39.5,0.2 37.7,1.4 C36.1,2.5 35.6,4.6 36.4,6.3 L34.9,7.3 L33.2,4.8 C32,3 29.5,2.6 27.7,3.8 C25.9,5 25.5,7.5 26.7,9.3 L28.4,11.7 L27.1,12.6 L23.6,7.6 C22.3,5.7 19.6,5.2 17.7,6.5 C15.8,7.8 15.3,10.5 16.6,12.4 L20,17.3 L18.8,18.1 L8.5,3.3 C7.2,1.4 4.5,0.9 2.6,2.2 C0.7,3.5 0.2,6.2 1.5,8.1 L16.3,29.4 L17.5,31.1 L22.6,38.4 L21.3,39.3 L17.7,34.1 C15,30.3 9.8,29.3 5.9,32 L14.8,44.8 C15.3,45.5 16,46.1 16.8,46.4 C16.8,46.4 16.8,46.4 16.8,46.4 C19.5,47.5 31,48.7 36.3,49.2 C38,49.4 39.8,48.9 41.2,47.9 L55.3,38.1 C60,34.8 61.2,28.4 57.9,23.7 L43.2,2.4 Z" fill="#FFFFFF" fill-rule="nonzero"></path>
                    <path d="M43,2 L57.9,23.4 C61.2,28.1 60,34.6 55.3,37.8 L41.2,47.6 C39.8,48.6 38,49 36.3,48.9 C31,48.4 19.5,47.2 16.8,46.1 C16.8,46.1 16.8,46.1 16.8,46.1 C16,45.8 15.3,45.3 14.8,44.5 L5.9,31.7 C9.7,29 15,30 17.7,33.8 L21.3,39 L22.6,38.1 L1.5,7.8 C0.2,5.9 0.6,3.2 2.6,1.9 C4.5,0.6 7.2,1 8.5,3 L18.8,17.8 L20,17 L16.6,12.1 C15.3,10.2 15.7,7.5 17.7,6.2 C19.6,4.9 22.3,5.3 23.6,7.3 L27.1,12.3 L28.4,11.4 L26.7,9 C25.5,7.2 25.9,4.7 27.7,3.5 C29.5,2.3 32,2.7 33.2,4.5 L34.9,7 L36.4,6 C35.6,4.3 36.1,2.2 37.7,1.1 C39.2,-0.2 41.7,0.2 43,2 Z" fill="#FFFFFF" fill-rule="nonzero"></path>
                    <path d="M44.7,4.5 L57.9,23.4 C61.2,28.1 60,34.6 55.3,37.8 L41.2,47.6 C39.8,48.6 38,49 36.3,48.9 C31,48.4 19.5,47.2 16.8,46.1 C16.8,46.1 16.8,46.1 16.8,46.1 C16,45.8 15.3,45.3 14.8,44.5 L7.7,34.2 C11.5,31.5 16.8,32.5 19.5,36.3 L23.1,41.5 L24.4,40.6 L3.3,10.3 C2,8.4 2.4,5.7 4.4,4.4 C6.3,3.1 9,3.5 10.3,5.5 L20.6,20.3 L21.8,19.5 L18.4,14.6 C17.1,12.7 17.5,10 19.5,8.7 C21.4,7.4 24.1,7.8 25.4,9.8 L28.9,14.8 L30.2,13.9 L28.5,11.4 C27.3,9.6 27.8,7.2 29.5,6 C31.3,4.8 33.7,5.2 35,7 C35,7 35,7 35,7 L36.7,9.5 L38.2,8.5 C37.4,6.8 37.9,4.7 39.5,3.6 C41,2.3 43.5,2.7 44.7,4.5 Z" fill="#DDECFE" fill-rule="nonzero"></path>
                    <path d="M43.2,2.4 C42,0.6 39.5,0.2 37.7,1.4 C36.1,2.5 35.6,4.6 36.4,6.3 L34.9,7.3 L33.2,4.8 C32,3 29.5,2.6 27.7,3.8 C25.9,5 25.5,7.5 26.7,9.3 L28.4,11.7 L27.1,12.6 L23.6,7.6 C22.3,5.7 19.6,5.2 17.7,6.5 C15.8,7.8 15.3,10.5 16.6,12.4 L20,17.3 L18.8,18.1 L8.5,3.3 C7.2,1.4 4.5,0.9 2.6,2.2 C0.7,3.5 0.2,6.2 1.5,8.1 L16.3,29.4 L17.5,31.1 L22.6,38.4 L21.3,39.3 L17.7,34.1 C15,30.3 9.8,29.3 5.9,32 L14.8,44.8 C15.3,45.5 16,46.1 16.8,46.4 C16.8,46.4 16.8,46.4 16.8,46.4 C19.5,47.5 31,48.7 36.3,49.2 C38,49.4 39.8,48.9 41.2,47.9 L55.3,38.1 C60,34.8 61.2,28.4 57.9,23.7 L43.2,2.4 Z" stroke="#1676EE" stroke-width="3" stroke-linecap="round" stroke-linejoin="round"></path>
                </g>
                <g transform="translate(0.000000, 21.000000)" id="Shape">
                    <path d="M23.8,0 L23.8,16.4 L18.3,22.6 C17.3,23.7 16.7,25.2 16.6,26.7 L16.3,31.7 C16.3,32.4 16.7,33.1 17.4,33.3 L23.3,35 C24.2,35.3 25.1,34.8 25.4,34 L25.5,33.8 L26.4,31.7 L29.9,23.4 C30.1,22.9 30.4,22.4 30.8,21.9 C32.6,19.6 35.8,18.8 38.5,20.1 C39.6,20.6 40.3,21.8 40.3,23 C40.3,23.3 40.2,23.7 40.1,24 L36.5,34.5 L32,47.5 C31.3,49.6 30,51.5 28.4,52.9 L23.7,57.1 L21.3,59.2 C20.9,59.6 20.4,59.7 19.9,59.7 C17,59.7 7,59.6 2.5,59.6 C1.3,59.6 0.4,58.7 0.4,57.5 L0.4,26.6 C0.4,24.1 1.4,21.6 3.2,19.9 L23.8,0 Z" fill="#FFFFFF" fill-rule="nonzero"></path>
                    <path d="M23.3,35.1 C24.2,35.4 25.1,34.9 25.4,34.1 L25.5,33.9 L26.4,31.8 C26.6,31.6 26.8,31.4 26.9,31.1 L27,30.9 L30.7,22 C32.5,19.7 35.7,18.9 38.4,20.2 C39.5,20.7 40.2,21.9 40.2,23.1 C40.2,23.4 40.1,23.8 40,24.1 L36.4,34.6 L31.9,47.6 C31.2,49.7 29.9,51.6 28.3,53 L23.6,57.2 C23.4,57.3 23.1,57.3 22.9,57.3 C20,57.3 10,57.2 5.5,57.2 C4.3,57.2 3.4,56.3 3.4,55.1 L3.4,24.2 C3.4,21.7 4.4,19.2 6.2,17.5 L23.7,0.4 L23.7,16.4 L18.2,22.6 C17.2,23.7 16.6,25.2 16.5,26.7 L16.2,31.7 C16.2,32.4 16.6,33.1 17.3,33.3 L23.3,35.1 Z" fill="#DDECFE" fill-rule="nonzero"></path>
                    <path d="M0.9,59 C0.6,58.6 0.4,58.2 0.4,57.7 L0.4,54" stroke="#1676EE" stroke-width="3" stroke-linecap="round" stroke-linejoin="round"></path>
                    <path d="M0.5,42.4 L0.5,26.8 C0.5,24.3 1.5,21.8 3.3,20.1 L23.8,-5.68434189e-14 L23.8,16.4 L18.3,22.6 C17.3,23.7 16.7,25.2 16.6,26.7 L16.3,31.7 C16.3,32.4 16.7,33.1 17.4,33.3 L23.3,35 C24.2,35.3 25.1,34.8 25.4,34 L25.5,33.8 L29.9,23.4 C31.3,20 35.2,18.5 38.5,20.1 C39.6,20.6 40.3,21.8 40.3,23 C40.3,23.3 40.2,23.7 40.1,24 L36.5,34.5 L32,47.5 C31.3,49.6 30,51.5 28.4,52.9 L21.4,59.2" stroke="#1676EE" stroke-width="3" stroke-linecap="round" stroke-linejoin="round"></path>
                    <path d="M0.5,49.5 L0.5,49.3" stroke="#1676EE" stroke-width="3" stroke-linecap="round" stroke-linejoin="round"></path>
                </g>
            </g>
        </g>
    </g>
</svg>