<?xml version="1.0" encoding="UTF-8"?>
<svg width="148px" height="136px" viewBox="0 0 148 136" version="1.1" xmlns="http://www.w3.org/2000/svg" xmlns:xlink="http://www.w3.org/1999/xlink">
    <!-- Generator: Sketch 51.2 (57519) - http://www.bohemiancoding.com/sketch -->
    <title>Phone</title>
    <desc>Created with Sketch.</desc>
    <defs></defs>
    <g id="Page-1" stroke="none" stroke-width="1" fill="none" fill-rule="evenodd">
        <g id="Phone" transform="translate(1.000000, 2.000000)">
            <path d="M14.8,92 C12.4,88.6 10.1,85 7.9,81.2 C5,76 2.8,70.5 1.3,64.7 C-0.6,57.4 1,50.7 5.1,44.6 C6.6,42.5 8.2,40.4 9.9,38.4 C14.4,32.9 22.1,31.4 28,35.4 C32.7,38.6 37.3,42.1 41.6,45.9 C46.8,50.4 47.4,57.8 43.6,63.5 C42.4,65.2 41.1,66.8 39.8,68.5 C37,72.1 37.2,75.3 40.2,78.6 C47.6,86.7 56.3,93.1 66,98.3 C69.6,100.2 72.8,99.5 75.4,96.3 C76.7,94.7 77.9,93 79.3,91.4 C83.9,85.9 91.8,84.6 97.7,88.7 C102,91.7 106.2,94.9 110.2,98.3 C115.7,102.8 116.8,110.4 112.9,116.3 C109.4,121.5 105.8,126.7 99.9,129.5 C97.4,130.7 94.7,131.4 93.1,132 C85.1,132.5 78.4,131.8 71.8,130.1 C47.8,123.9 28.7,111.3 14.8,92" id="Shape" fill="#FFFFFF" fill-rule="nonzero"></path>
            <path d="M109.3,118.7 C107,122.2 104.6,125.6 101.5,128.3 C101.5,128.3 101.4,128.4 101.4,128.4 C101,128.8 100.5,129.1 100.1,129.4 C100.1,129.4 100.1,129.4 100.1,129.4 C99.6,129.6 99.2,129.8 98.7,130 C97.1,130.7 95.5,131.2 94.2,131.6 C93.9,131.7 93.7,131.8 93.5,131.9 C93.3,131.9 93,131.9 92.8,131.9 C87.6,132.2 82.9,131.9 78.4,131.2 C77.9,131.1 77.4,131 76.9,130.9 C76.8,130.9 76.8,130.9 76.7,130.9 C76.2,130.8 75.6,130.7 75.1,130.6 C74.2,130.4 73.3,130.2 72.4,130 C44.5,123 23.3,106.9 9.2,81.7 C8.8,80.9 8.4,80.2 8,79.4 C7.6,78.6 7.2,77.8 6.8,77 C6.5,76.4 6.2,75.7 5.9,75 C5.8,74.7 5.6,74.4 5.5,74.1 C5.2,73.5 5,72.9 4.8,72.3 C4.8,72.2 4.7,72.2 4.7,72.1 C4.5,71.4 4.3,70.8 4.2,70.1 C3.9,69.1 3.8,68.2 3.6,67.2 C3.4,65.9 3.4,64.7 3.4,63.5 C3.4,63.3 3.4,63.1 3.4,62.9 C3.4,62.6 3.4,62.4 3.5,62.1 C3.5,62 3.5,62 3.5,61.9 C3.5,61.7 3.6,61.4 3.6,61.2 C3.6,61 3.6,60.9 3.7,60.7 C3.7,60.5 3.8,60.3 3.8,60 C3.9,59.7 3.9,59.5 4,59.2 C4.1,58.7 4.3,58.2 4.4,57.7 C4.4,57.5 4.5,57.4 4.6,57.2 C4.7,57 4.7,56.8 4.8,56.6 C4.9,56.4 5,56.1 5.1,55.9 C5.2,55.6 5.4,55.3 5.5,55 C5.6,54.9 5.6,54.7 5.7,54.6 C5.8,54.4 5.9,54.1 6.1,53.9 C6.4,53.3 6.7,52.8 7.1,52.2 C7.3,51.8 7.6,51.4 7.8,51 C9.2,49 10.7,47.1 12.3,45.2 C16.5,40 23.8,38.6 29.3,42.3 C29.7,42.6 30.1,42.9 30.6,43.2 C34.9,46.2 40,50.5 43.3,53.5 C43.5,53.7 43.7,53.8 43.9,54 C44.9,55.3 45.6,56.8 46,58.4 C46.1,58.9 46.2,59.5 46.3,60 C45.9,61.4 45.3,62.7 44.4,63.9 C43.3,65.6 41.9,67.2 40.7,68.8 C40.6,68.9 40.5,69.1 40.4,69.2 C40.4,69.2 40.4,69.2 40.4,69.2 C39.9,69.9 39.5,70.6 39.2,71.3 C38.6,72.8 38.6,74.2 39.1,75.6 C39,75.9 38.9,76.1 38.8,76.4 C38.2,78.6 38.8,80.7 40.8,82.9 C47.8,90.6 56,96.6 65.1,101.5 C68.5,103.3 71.5,102.6 73.9,99.6 C75.1,98.1 76.3,96.5 77.6,95 C81.5,90.3 87.9,88.9 93.2,91.5 C93.5,91.6 93.8,91.8 94.1,92 C94.4,92.2 94.7,92.4 94.9,92.5 C98.9,95.3 102.9,98.4 106.7,101.5 C106.9,101.6 107,101.8 107.2,101.9 C107.3,102 107.4,102.1 107.5,102.2 C107.6,102.3 107.7,102.4 107.8,102.5 C108.6,103.3 109.2,104.1 109.7,105 C109.8,105.2 109.9,105.3 110,105.5 C110.1,105.6 110.2,105.8 110.2,106 C110.4,106.4 110.6,106.8 110.7,107.3 C110.7,107.4 110.8,107.5 110.8,107.6 C110.9,107.8 110.9,107.9 110.9,108.1 C111,108.4 111,108.6 111.1,108.9 L111.1,109 C111.2,109.3 111.2,109.5 111.2,109.8 C111.2,110 111.2,110.1 111.2,110.3 C111.2,110.5 111.2,110.6 111.2,110.8 C111.6,113.5 110.9,116.2 109.3,118.7 Z" id="Shape" fill="#7DB7FF" fill-rule="nonzero"></path>
            <path d="M109.3,118.7 C107,122.1 104.8,125.8 101.5,128.3 C101.5,128.3 101.4,128.4 101.4,128.4 C100.5,129 99.6,129.6 98.6,130.1 C97.2,130.8 95.7,131.3 94.1,131.7 C93.6,131.8 93.1,131.9 92.6,132 C91.7,132.1 90.8,132.2 90,132.3 C86.1,132.4 82.1,132 78.2,131.4 C77.7,131.3 77.2,131.2 76.7,131.1 C76.6,131.1 76.6,131.1 76.5,131.1 C76,131 75.4,130.9 74.9,130.8 C74,130.6 73.1,130.4 72.2,130.2 C44.3,123.2 23.1,107.1 9,81.9 C8.6,81.1 8.2,80.4 7.8,79.6 C7.4,78.8 7,78 6.6,77.2 C6.3,76.6 6,75.9 5.7,75.2 C5.6,74.9 5.4,74.6 5.3,74.3 C5,73.7 4.8,73.1 4.6,72.5 C4.6,72.4 4.5,72.4 4.5,72.3 C4.3,71.6 4.1,71 4,70.3 C3.7,69.3 3.6,68.4 3.4,67.4 C3.2,66.1 3.2,64.9 3.2,63.7 C3.2,63.5 3.2,63.3 3.2,63.1 C3.2,62.8 3.2,62.6 3.3,62.3 C3.3,62.2 3.3,62.2 3.3,62.1 C3.3,61.9 3.4,61.6 3.4,61.4 C3.4,61.2 3.4,61.1 3.5,60.9 C3.5,60.7 3.6,60.5 3.6,60.2 C3.7,59.9 3.7,59.7 3.8,59.4 C3.9,58.9 4.1,58.4 4.2,57.9 C4.2,57.7 4.3,57.6 4.4,57.4 C4.5,57.2 4.5,57 4.6,56.8 C4.7,56.6 4.8,56.3 4.9,56.1 C5,55.8 5.2,55.5 5.3,55.2 C5.4,55.1 5.4,54.9 5.5,54.8 C5.6,54.6 5.7,54.3 5.9,54.1 C6.2,53.5 6.5,53 6.9,52.4 C7.1,52 7.4,51.6 7.6,51.2 C9,49.2 10.5,47.3 12.1,45.4 C16.3,40.2 23.6,38.8 29.1,42.5 C29.5,42.8 29.9,43.1 30.4,43.4 C34.7,46.4 39.8,50.7 43.1,53.7 C42.7,54.7 42.2,55.7 41.6,56.7 C40.5,58.3 39.2,59.8 38,61.4 C37.4,62.2 36.9,62.9 36.6,63.7 C35.6,66.2 36.2,65.2 38.4,67.6 C38.8,68 39.1,68.4 39.5,68.8 C39.7,69 40,69.3 40.2,69.5 C40.3,69.6 40.4,69.7 40.5,69.8 C39.9,70.5 39.4,71.1 39,71.7 C38.9,71.8 38.8,72 38.7,72.1 C38.6,72.3 38.5,72.4 38.4,72.6 C38.2,73 38,73.3 37.8,73.8 C36.9,75.9 37.2,75.5 38.7,76.8 C39,77 39.3,77.3 39.6,77.7 C46.6,85.4 55.9,93.6 65,98.5 C68.4,100.3 70.3,101.9 72.7,98.8 C73.9,97.3 75.1,95.7 76.4,94.2 C80.3,89.5 87.7,89 93.2,91.8 C93.5,91.9 93.8,92.1 94.1,92.3 C94.4,92.5 94.7,92.7 94.9,92.8 C98.9,95.6 102.9,98.7 106.7,101.8 C106.9,101.9 107,102.1 107.2,102.2 C107.3,102.3 107.4,102.4 107.5,102.5 C107.6,102.6 107.7,102.7 107.8,102.8 C108.6,103.6 109.2,104.4 109.7,105.3 C109.8,105.5 109.9,105.6 110,105.8 C110.1,105.9 110.2,106.1 110.2,106.3 C110.4,106.7 110.6,107.1 110.7,107.6 C110.7,107.7 110.8,107.8 110.8,107.9 C110.9,108.1 110.9,108.2 110.9,108.4 C111,108.7 111,108.9 111.1,109.2 L111.1,109.3 C111.2,109.6 111.2,109.8 111.2,110.1 C111.2,110.3 111.2,110.4 111.2,110.6 C111.2,110.8 111.2,110.9 111.2,111.1 C111.6,113.5 110.9,116.2 109.3,118.7 Z" id="Shape" fill="#B8D9FF" fill-rule="nonzero"></path>
            <path d="M109.7,105.3 C109.3,106.5 108.8,107.6 108.1,108.6 C105.8,112.1 103.6,115.8 100.1,118.3 C96.8,120.6 92.8,122 88.8,122.1 C84.4,122.2 79.9,121.7 75.5,120.9 C74,120.6 72.5,120.3 71,119.9 C43.1,112.9 21.9,96.8 7.8,71.6 C6.1,68.5 4.6,65.3 3.4,62 C3.4,62 3.4,61.9 3.4,61.9 C3.4,61.7 3.5,61.4 3.5,61.2 C3.5,61 3.5,60.9 3.6,60.7 C3.6,60.5 3.7,60.3 3.7,60 C3.8,59.7 3.8,59.5 3.9,59.2 C4,58.7 4.2,58.2 4.3,57.7 C4.3,57.5 4.4,57.4 4.5,57.2 C4.6,57 4.6,56.8 4.7,56.6 C4.8,56.4 4.9,56.1 5,55.9 C5.1,55.6 5.3,55.3 5.4,55 C5.5,54.9 5.5,54.7 5.6,54.6 C5.7,54.4 5.8,54.1 6,53.9 C6.3,53.3 6.6,52.8 7,52.2 C7.2,51.8 7.5,51.4 7.7,51 C9.1,49 10.6,47.1 12.2,45.2 C16.4,40 23.7,38.6 29.2,42.3 C29.6,42.6 30,42.9 30.5,43.2 C34.8,46.2 39.9,50.5 43.2,53.5 C43.4,53.7 43.6,53.8 43.8,54 C45.2,55.3 46.3,56.2 46.7,56.7 C46.5,57.3 46.2,57.9 45.9,58.5 C44.2,61.9 41.3,64.3 40.2,66.9 C39.8,67.8 39.7,68.3 39.7,68.6 C39.7,69 40,69.1 40.4,69.3 C40.5,69.4 40.6,69.4 40.7,69.5 C40.1,70.2 39.6,70.8 39.2,71.4 C39.1,71.5 39,71.7 38.9,71.8 C38.8,72 38.7,72.1 38.6,72.3 C38.4,72.7 38.2,73 38,73.5 C37.1,75.6 37.4,75.2 38.9,76.5 C39.2,76.7 39.5,77 39.8,77.4 C46.8,85.1 56.1,93.3 65.2,98.2 C68.6,100 70.5,101.6 72.9,98.5 C74.1,97 75.3,95.4 76.6,93.9 C80.5,89.2 87.9,88.7 93.4,91.5 C93.7,91.6 94,91.8 94.3,92 C94.6,92.2 94.9,92.4 95.1,92.5 C99.1,95.3 103.1,98.4 106.9,101.5 C107.1,101.6 107.2,101.8 107.4,101.9 C107.5,102 107.6,102.1 107.7,102.2 C107.8,102.3 107.9,102.4 108,102.5 C108.6,103.5 109.2,104.4 109.7,105.3 Z" id="Shape" fill="#DDECFE" fill-rule="nonzero"></path>
            <path d="M36.1,41.2 C36.2,41.2 36.2,41.3 36.3,41.3" id="Shape" stroke="#1676EE" stroke-width="2.8204" stroke-linecap="round" stroke-linejoin="round"></path>
            <path d="M14.3,91.2 C12.1,88.1 9.9,84.7 8,81.2 C5.1,76 2.9,70.5 1.4,64.7 C-0.5,57.4 1.1,50.7 5.2,44.6 C6.7,42.5 8.3,40.4 10,38.4 C14.5,32.9 22.2,31.4 28.1,35.4 C29,36 29.9,36.7 30.9,37.3" id="Shape" stroke="#1676EE" stroke-width="2.8204" stroke-linecap="round" stroke-linejoin="round"></path>
            <path d="M52.3,123.3 C40.7,117.7 28.6,109.1 18.4,96.6" id="Shape" stroke="#1676EE" stroke-width="2.8204" stroke-linecap="round" stroke-linejoin="round"></path>
            <path d="M41.6,45.8 C46.8,50.3 47.4,57.7 43.6,63.4 C42.4,65.1 41.1,66.7 39.8,68.4 C37,72 37.2,75.2 40.2,78.5 C47.6,86.6 56.3,93 66,98.2 C69.6,100.1 72.8,99.4 75.4,96.2 C76.7,94.6 77.9,92.9 79.3,91.3 C83.9,85.8 91.8,84.5 97.7,88.6 C102,91.6 106.2,94.8 110.2,98.2 C115.7,102.7 116.8,110.3 112.9,116.2 C107.8,123.8 103.6,129.6 93.1,131.5 C85.7,132.9 73.1,131.7 59.2,126.3" id="Shape" stroke="#1676EE" stroke-width="2.8204" stroke-linecap="round" stroke-linejoin="round"></path>
            <path d="M25.1,49.4 L10.5,37.7" id="Shape" stroke="#1676EE" stroke-width="2.8204" stroke-linecap="round" stroke-linejoin="round"></path>
            <path d="M33.9,56.5 L31,54.2" id="Shape" stroke="#1676EE" stroke-width="2.8204" stroke-linecap="round" stroke-linejoin="round"></path>
            <path d="M102.9,109.9 L79.5,91.2" id="Shape" stroke="#1676EE" stroke-width="2.8204" stroke-linecap="round" stroke-linejoin="round"></path>
            <path d="M87.3,51.6 C92.6,56 97.2,61.2 100.8,67.1" id="Shape" stroke="#91C2FF" stroke-width="2.8204" stroke-linecap="round" stroke-linejoin="round"></path>
            <path d="M60.5,38.9 C67.6,40.3 74.2,43 80.2,46.6" id="Shape" stroke="#91C2FF" stroke-width="2.8204" stroke-linecap="round" stroke-linejoin="round"></path>
            <path d="M114.6,55.6 C116.9,59.1 118.9,62.7 120.6,66.5" id="Shape" stroke="#91C2FF" stroke-width="2.8204" stroke-linecap="round" stroke-linejoin="round"></path>
            <path d="M52.7,19.9 C74.9,21.1 94.7,31.4 108.3,47.3" id="Shape" stroke="#91C2FF" stroke-width="2.8204" stroke-linecap="round" stroke-linejoin="round"></path>
            <path d="M144.6,76.3 C144.9,77.6 145.2,79 145.4,80.3" id="Shape" stroke="#91C2FF" stroke-width="2.8204" stroke-linecap="round" stroke-linejoin="round"></path>
            <path d="M78.2,4.6 C108.7,14.2 132.8,38.3 142.5,68.7" id="Shape" stroke="#91C2FF" stroke-width="2.8204" stroke-linecap="round" stroke-linejoin="round"></path>
            <path d="M39.5,0.5 C42.5,0.2 45.5,0.1 48.5,0.1 C52.6,0.1 56.6,0.3 60.5,0.8" id="Shape" stroke="#91C2FF" stroke-width="2.8204" stroke-linecap="round" stroke-linejoin="round"></path>
        </g>
    </g>
</svg>