<?xml version="1.0" encoding="UTF-8"?>
<svg width="149px" height="89px" viewBox="0 0 149 89" version="1.1" xmlns="http://www.w3.org/2000/svg" xmlns:xlink="http://www.w3.org/1999/xlink">
    <!-- Generator: Sketch 51.2 (57519) - http://www.bohemiancoding.com/sketch -->
    <title>Responsive</title>
    <desc>Created with Sketch.</desc>
    <defs></defs>
    <g id="Page-1" stroke="none" stroke-width="1" fill="none" fill-rule="evenodd">
        <g id="Responsive" transform="translate(1.000000, 2.000000)">
            <g id="Group" fill="#FFFFFF" fill-rule="nonzero">
                <path d="M74.7,75.9 C74.3,77.1 73.1,78 71.7,78 L55.5,78 C54.1,78 52.9,77.1 52.5,75.9 L0.8,75.9 L0.8,79.2 C0.8,82.2 3.3,84.6 6.5,84.6 L83.8,84.6 L77.5,75.9 L74.7,75.9 Z" id="Shape"></path>
                <path d="M115.8,0.3 L11.2,0.3 C8.9,0.3 7.1,2.1 7.1,4.4 L7.1,75.8 L77.4,75.8 L119.9,7.5 L119.9,4.3 C119.9,2.2 118.1,0.3 115.8,0.3 Z" id="Shape"></path>
            </g>
            <g id="Group" stroke="#1676EE" stroke-linecap="round" stroke-linejoin="round" stroke-width="3.2">
                <path d="M83.7,84.6 L6.4,84.6 C3.3,84.6 0.7,82.2 0.7,79.2 L0.7,75.9 L52.4,75.9 C52.8,77.1 54,78 55.4,78 L71.6,78 C73,78 74.2,77.1 74.6,75.9 L77.4,75.9" id="Shape" fill="#DDECFE" fill-rule="nonzero"></path>
                <path d="M39.1,0.3 L115.8,0.3 C118.1,0.3 119.9,2.1 119.9,4.4 L119.9,7.6" id="Shape"></path>
                <path d="M27.8,0.3 L29,0.3" id="Shape"></path>
                <path d="M77.4,75.9 L7.1,75.9 L7.1,4.5 C7.1,2.2 8.9,0.4 11.2,0.4 L21,0.4" id="Shape"></path>
            </g>
            <g id="Group" transform="translate(77.000000, 7.000000)">
                <path d="M42,77.6 L5.9,77.6 C2.9,77.6 0.5,75.2 0.5,72.2 C0.5,70.1 0.5,5.5 0.5,6.1 C0.5,3.1 2.9,0.7 5.9,0.7 L47.2,0.7 C50.2,0.7 52.6,3.1 52.6,6.1 C52.6,6.3 52.6,8.6 52.6,12.3 L52.6,18.8" id="Shape" fill="#FFFFFF" fill-rule="nonzero"></path>
                <path d="M0.4,66.6 L43.9,66.6 L41.9,77.6 L5.8,77.6 C2.8,77.6 0.4,75.2 0.4,72.2 L0.4,66.6 Z" id="Shape" fill="#DDECFE" fill-rule="nonzero"></path>
                <path d="M52.6,6 L52.6,7.8 L0.4,7.8 C0.4,6.6 0.4,6 0.4,6 C0.4,3 2.8,0.6 5.8,0.6 L47.1,0.6 C50.2,0.6 52.6,3 52.6,6 Z" id="Shape" fill="#DDECFE" fill-rule="nonzero"></path>
                <path d="M0.4,58.2 L0.4,55.3 C0.4,35.6 0.4,5.5 0.4,6 C0.4,3 2.8,0.6 5.8,0.6 L47.1,0.6 C50.1,0.6 52.5,3 52.5,6 C52.5,6.2 52.5,8.5 52.5,12.2 L52.5,18.7" id="Shape" stroke="#1676EE" stroke-width="3.2" stroke-linecap="round" stroke-linejoin="round"></path>
                <path d="M42,77.6 L5.9,77.6 C2.9,77.6 0.5,75.2 0.5,72.2 C0.5,71.9 0.5,69.8 0.5,66.6" id="Shape" stroke="#1676EE" stroke-width="3.2" stroke-linecap="round" stroke-linejoin="round"></path>
                <circle id="Oval" stroke="#1676EE" stroke-width="3.2" stroke-linecap="round" stroke-linejoin="round" cx="26.5" cy="72" r="1"></circle>
                <path d="M35.8,66.3 L0.7,66.3" id="Shape" stroke="#1676EE" stroke-width="3.2" stroke-linecap="round" stroke-linejoin="round"></path>
                <path d="M0.4,8.1 L42.8,8.1" id="Shape" stroke="#1676EE" stroke-width="3.2" stroke-linecap="round" stroke-linejoin="round"></path>
            </g>
            <g id="Group" transform="translate(113.000000, 25.000000)">
                <path d="M32.7,55.3 C32.7,57.6 30.8,59.5 28.5,59.5 L5.2,59.5 C2.9,59.5 1,57.6 1,55.3 L1,4.9 C1,2.6 2.9,0.7 5.2,0.7 L28.5,0.7 C30.8,0.7 32.7,2.6 32.7,4.9 L32.7,55.3 Z" id="Shape" fill="#FFFFFF" fill-rule="nonzero"></path>
                <path d="M28.4,0.7 C30.7,0.7 32.6,2.6 32.6,4.9 L32.6,55.3 C32.6,57.6 30.7,59.5 28.4,59.5 L5.1,59.5 C2.8,59.5 0.9,57.6 0.9,55.3 L0.9,4.9 C0.9,2.6 2.8,0.7 5.1,0.7 L28.4,0.7 Z" id="Shape" fill="#FFFFFF" fill-rule="nonzero"></path>
                <path d="M32.7,55.3 C32.7,57.6 30.8,59.5 28.5,59.5 L5.2,59.5 C2.9,59.5 1,57.6 1,55.3 L1,4.9 C1,2.6 2.9,0.7 5.2,0.7 L28.5,0.7 C30.8,0.7 32.7,2.6 32.7,4.9 L32.7,55.3 Z" id="Shape" fill="#FFFFFF" fill-rule="nonzero"></path>
                <path d="M32.7,4.9 L32.7,6.9 L0.9,6.9 L0.9,4.9 C0.9,2.6 2.8,0.7 5.1,0.7 L28.4,0.7 C30.8,0.7 32.7,2.6 32.7,4.9 Z" id="Shape" fill="#DDECFE" fill-rule="nonzero"></path>
                <path d="M0.9,50.1 L32.7,50.1 L32.7,55.3 C32.7,57.6 30.8,59.5 28.5,59.5 L5.2,59.5 C2.9,59.5 1,57.6 1,55.3 L1,50.1 L0.9,50.1 Z" id="Shape" fill="#DDECFE" fill-rule="nonzero"></path>
                <path d="M32.7,55.3 C32.7,57.6 30.8,59.5 28.5,59.5 L5.2,59.5 C2.9,59.5 1,57.6 1,55.3 L1,4.9 C1,2.6 2.9,0.7 5.2,0.7 L28.5,0.7 C30.8,0.7 32.7,2.6 32.7,4.9 L32.7,55.3 Z" id="Shape" stroke="#1676EE" stroke-width="3.2" stroke-linecap="round" stroke-linejoin="round"></path>
                <path d="M28.4,0.7 C30.7,0.7 32.6,2.6 32.6,4.9 L32.6,55.3 C32.6,57.6 30.7,59.5 28.4,59.5 L5.1,59.5 C2.8,59.5 0.9,57.6 0.9,55.3 L0.9,4.9 C0.9,2.6 2.8,0.7 5.1,0.7 L28.4,0.7 Z" id="Shape" stroke="#1676EE" stroke-width="3.2" stroke-linecap="round" stroke-linejoin="round"></path>
                <circle id="Oval" stroke="#1676EE" stroke-width="3.2" stroke-linecap="round" stroke-linejoin="round" cx="16.8" cy="55.1" r="1"></circle>
                <path d="M31.2,50.9 L2.3,50.9" id="Shape" stroke="#1676EE" stroke-width="3.2" stroke-linecap="round" stroke-linejoin="round"></path>
                <path d="M2.3,6.8 L24.5,6.8" id="Shape" stroke="#1676EE" stroke-width="3.2" stroke-linecap="round" stroke-linejoin="round"></path>
            </g>
        </g>
    </g>
</svg>