<?xml version="1.0" encoding="UTF-8"?>
<svg width="85px" height="146px" viewBox="0 0 85 146" version="1.1" xmlns="http://www.w3.org/2000/svg" xmlns:xlink="http://www.w3.org/1999/xlink">
    <!-- Generator: Sketch 51.2 (57519) - http://www.bohemiancoding.com/sketch -->
    <title>Smartwatch</title>
    <desc>Created with Sketch.</desc>
    <defs></defs>
    <g id="Page-1" stroke="none" stroke-width="1" fill="none" fill-rule="evenodd">
        <g id="Smartwatch" transform="translate(2.000000, 1.000000)">
            <path d="M77.3,66.5 L74.4,66.5 C72.4,66.5 70.8,64.9 70.8,62.9 L70.8,54.2 C70.8,52.2 72.4,50.6 74.4,50.6 L77.3,50.6 C79.3,50.6 80.9,52.2 80.9,54.2 L80.9,62.9 C80.9,64.9 79.3,66.5 77.3,66.5 Z" id="Shape" fill="#FFFFFF" fill-rule="nonzero"></path>
            <path d="M77.6,66.5 L74.2,66.5 C72.3,66.5 70.8,65 70.8,63.1 L70.8,56.1 C70.8,54.2 72.3,52.7 74.2,52.7 L77.6,52.7 C79.5,52.7 81,54.2 81,56.1 L81,63.1 C80.9,65 79.4,66.5 77.6,66.5 Z" id="Shape" fill="#99C7FF" fill-rule="nonzero"></path>
            <path d="M77.3,66.5 L74.4,66.5 C72.4,66.5 70.8,64.9 70.8,62.9 L70.8,54.2 C70.8,52.2 72.4,50.6 74.4,50.6 L77.3,50.6 C79.3,50.6 80.9,52.2 80.9,54.2 L80.9,62.9 C80.9,64.9 79.3,66.5 77.3,66.5 Z" id="Shape" stroke="#1676EE" stroke-width="3" stroke-linecap="round" stroke-linejoin="round"></path>
            <path d="M62.7,32.3 C58.9,24.5 60.1,20.1 58.7,11.8 C57.1,2.8 55.7,0.9 49.7,0.8 C44.4,0.8 41.4,0.8 36.1,0.9 L36,0.9 C30.7,0.9 30.5,0.8 25.2,0.8 C19.2,0.8 17.8,2.8 16.2,11.8 C14.7,20.1 16,24.5 12.2,32.3 L62.7,32.3 Z" id="Shape" fill="#FFFFFF" fill-rule="nonzero"></path>
            <path d="M62.7,32.3 C59.1,25.3 60.2,21.4 58.8,14 C57.3,6 55.9,4.2 50.1,4.2 C45,4.2 42,4.2 36.9,4.3 L36.8,4.3 C31.7,4.3 31.5,4.2 26.3,4.2 C20.5,4.2 19.1,6 17.6,14 C16.2,21.4 17.4,25.3 13.7,32.3 L62.7,32.3 Z" id="Shape" fill="#99C7FF" fill-rule="nonzero"></path>
            <path d="M60.6,26.3 C59.5,21.7 59.8,17.8 58.8,11.8 C57.2,2.8 55.8,0.9 49.8,0.8 C44.5,0.8 41.5,0.8 36.2,0.9 L36.1,0.9 C30.8,0.9 30.6,0.8 25.3,0.8 C19.3,0.8 17.9,2.8 16.3,11.8 C14.8,20.1 16.1,24.5 12.3,32.3 L62.8,32.3" id="Shape" stroke="#1676EE" stroke-width="3" stroke-linecap="round" stroke-linejoin="round"></path>
            <path d="M62.7,112 C58.9,119.8 60.1,124.2 58.7,132.5 C57.1,141.5 55.7,143.4 49.7,143.5 C44.4,143.5 41.4,143.5 36.1,143.4 L36,143.4 C30.7,143.4 30.5,143.5 25.2,143.5 C19.2,143.5 17.8,141.5 16.2,132.5 C14.7,124.2 16,119.8 12.2,112 L62.7,112 Z" id="Shape" fill="#FFFFFF" fill-rule="nonzero"></path>
            <path d="M62.7,112 C58.9,119.8 60.1,124.2 58.7,132.5 C57.1,141.5 55.7,143.4 49.7,143.5 C44.4,143.5 41.4,143.5 36.1,143.4 L36,143.4 C30.7,143.4 30.5,143.5 25.2,143.5 C19.2,143.5 17.8,141.5 16.2,132.5 C14.7,124.2 16,119.8 12.2,112 L62.7,112 Z" id="Shape" fill="#7DB7FF" fill-rule="nonzero"></path>
            <path d="M60.4,112 C59.4,116.4 59.7,120.2 58.7,125.9 C57.1,134.9 55.7,136.8 49.7,136.9 C44.4,136.9 41.4,136.9 36.1,136.8 L36,136.8 C30.7,136.8 30.5,136.9 25.2,136.9 C19.2,136.9 17.8,134.9 16.2,125.9 C15.2,120.2 15.5,116.4 14.5,112 L60.4,112 Z" id="Shape" fill="#99C7FF" fill-rule="nonzero"></path>
            <path d="M62.6,112.1 C59,119.8 60.1,124.1 58.7,132.4 C57.1,141.4 55.7,143.3 49.7,143.4 C44.4,143.4 41.4,143.4 36.1,143.3 L36,143.3 C30.7,143.3 30.5,143.4 25.2,143.4 C19.2,143.4 17.8,141.4 16.2,132.4 C14.7,124.1 16,119.7 12.2,111.9" id="Shape" stroke="#1676EE" stroke-width="3" stroke-linecap="round" stroke-linejoin="round"></path>
            <path d="M74.5,72 C74.5,80.8 74.5,89.6 74.5,98.5 C74.5,106.7 69.5,112.1 61.3,112.2 C45.7,112.4 30.2,112.3 14.6,112.2 C9.5,112.2 4.9,110.6 2.3,105.9 C1.1,103.8 0.5,101 0.5,98.6 C0.4,80.9 0.4,63.1 0.4,45.4 C0.4,37.5 5.5,32.1 13.5,32 C29.6,31.8 45.6,31.8 61.7,32 C69.4,32.1 74.5,37.4 74.5,45.1 C74.6,54 74.5,63 74.5,72 Z" id="Shape" fill="#FFFFFF" fill-rule="nonzero"></path>
            <path d="M74.5,74.5 L74.5,71.5 C74.5,66.2 74.5,61 74.5,55.7 C74.5,53.5 74.5,51.3 74.5,49.1 C74.5,41.9 69.6,36.9 62.3,36.9 C47,36.8 31.6,36.7 16.3,36.9 C8.6,37 3.8,42.1 3.8,49.5 C3.8,55.8 3.8,62.2 3.8,68.5 C3.8,78.8 3.8,89.1 3.9,99.4 C3.9,101.7 4.5,104.3 5.6,106.3 C8.1,110.7 12.5,112.2 17.4,112.2 C32.3,112.2 47.1,112.3 62,112.2 C69.8,112.1 74.6,107.1 74.6,99.4 C74.6,93.9 74.6,88.3 74.6,82.8 C74.5,80 74.5,77.3 74.5,74.5 Z" id="Shape" fill="#C4E0FF" fill-rule="nonzero"></path>
            <path d="M74.5,65.7 C74.5,62.4 74.5,59.1 74.5,55.8 C74.5,53.6 74.5,51.4 74.5,49.2 C74.5,42 69.6,37 62.3,37 C47,36.9 31.6,36.8 16.3,37 C8.6,37.1 3.8,42.2 3.8,49.6 C3.8,55.9 3.8,62.3 3.8,68.6 C3.8,76 3.8,83.3 3.9,90.7 C3.9,93 4.5,95.6 5.6,97.6 C8.1,102 12.5,103.5 17.4,103.5 C32.3,103.5 47.1,103.6 62,103.5 C69.8,103.4 74.6,98.4 74.6,90.7 C74.6,88.1 74.6,85.6 74.6,83 C74.6,79.3 74.6,75.5 74.6,71.8 L74.6,65.7 L74.5,65.7 Z" id="Shape" fill="#DDECFE" fill-rule="nonzero"></path>
            <path d="M13.4,112.2 C8.8,111.9 4.7,110.2 2.3,106 C1.1,103.9 0.5,101.1 0.5,98.7 C0.4,81 0.4,63.2 0.4,45.5 C0.4,43 0.9,40.8 1.8,38.9 M47.3,112.3 L41.3,112.3 C35.6,112.3 29.9,112.3 24.2,112.3 M10.4,32.2 C11.4,32 12.4,31.9 13.5,31.9 C29.6,31.7 45.6,31.7 61.7,31.9 C69.4,32 74.5,37.3 74.5,45 C74.5,54 74.5,63 74.5,72.1 C74.5,80.9 74.5,89.7 74.5,98.6 C74.5,106.8 69.5,112.2 61.3,112.3 C57.7,112.3 54.1,112.4 50.5,112.4 M3.9,35.8 C4,35.7 4,35.7 4.1,35.6" id="Shape" stroke="#1676EE" stroke-width="3" stroke-linecap="round" stroke-linejoin="round"></path>
            <circle id="Oval" fill="#99C7FF" fill-rule="nonzero" cx="38" cy="72.3" r="8.6"></circle>
            <circle id="Oval" fill="#99C7FF" fill-rule="nonzero" cx="27.8" cy="54.4" r="5.7"></circle>
            <circle id="Oval" fill="#99C7FF" fill-rule="nonzero" transform="translate(49.939451, 54.418139) rotate(-3.990814) translate(-49.939451, -54.418139) " cx="49.9394509" cy="54.4181394" r="5.70014158"></circle>
            <circle id="Oval" fill="#99C7FF" fill-rule="nonzero" cx="27.8" cy="90" r="5.7"></circle>
            <circle id="Oval" fill="#99C7FF" fill-rule="nonzero" transform="translate(49.940449, 90.018999) rotate(-3.990814) translate(-49.940449, -90.018999) " cx="49.9404489" cy="90.0189994" r="5.70014158"></circle>
            <circle id="Oval" fill="#99C7FF" fill-rule="nonzero" cx="19.5" cy="72.3" r="5.7"></circle>
            <circle id="Oval" fill="#99C7FF" fill-rule="nonzero" transform="translate(57.040020, 72.321432) rotate(-3.990814) translate(-57.040020, -72.321432) " cx="57.0400197" cy="72.3214318" r="5.70014158"></circle>
            <path d="M46.4,73.7 C45.7,77.8 42.2,80.8 38,80.8 C33.3,80.8 29.4,77 29.4,72.2 C29.4,71 29.7,69.8 30.1,68.7" id="Shape" stroke="#1676EE" stroke-width="3" stroke-linecap="round" stroke-linejoin="round"></path>
            <path d="M45.4,68 C45.5,68.1 45.5,68.2 45.6,68.3" id="Shape" stroke="#1676EE" stroke-width="3" stroke-linecap="round" stroke-linejoin="round"></path>
            <path d="M33,65.3 C34.4,64.3 36.1,63.7 38,63.7 C38.3,63.7 38.6,63.7 38.8,63.7" id="Shape" stroke="#1676EE" stroke-width="3" stroke-linecap="round" stroke-linejoin="round"></path>
            <path d="M33.3,52.6 C33.5,53.1 33.6,53.7 33.6,54.3 C33.6,57.5 31,60 27.9,60 C27.1,60 26.3,59.8 25.5,59.5" id="Shape" stroke="#1676EE" stroke-width="3" stroke-linecap="round" stroke-linejoin="round"></path>
            <path d="M22.6,56.6 C22.3,55.9 22.1,55.1 22.1,54.3 C22.1,51.1 24.7,48.6 27.8,48.6 C28.6,48.6 29.3,48.8 30,49" id="Shape" stroke="#1676EE" stroke-width="3" stroke-linecap="round" stroke-linejoin="round"></path>
            <circle id="Oval" stroke="#1676EE" stroke-width="3.00007452" stroke-linecap="round" stroke-linejoin="round" transform="translate(49.939451, 54.418139) rotate(-3.990814) translate(-49.939451, -54.418139) " cx="49.9394509" cy="54.4181394" r="5.70014158"></circle>
            <circle id="Oval" stroke="#1676EE" stroke-width="3" stroke-linecap="round" stroke-linejoin="round" cx="27.8" cy="90" r="5.7"></circle>
            <path d="M50.5,84.3 C53.2,84.6 55.4,86.8 55.6,89.6 C55.8,92.7 53.4,95.5 50.3,95.7 C47.2,95.9 44.4,93.5 44.2,90.4" id="Shape" stroke="#1676EE" stroke-width="3" stroke-linecap="round" stroke-linejoin="round"></path>
            <path d="M46.3,85.5 C46.4,85.4 46.4,85.4 46.5,85.3" id="Shape" stroke="#1676EE" stroke-width="3" stroke-linecap="round" stroke-linejoin="round"></path>
            <circle id="Oval" stroke="#1676EE" stroke-width="3" stroke-linecap="round" stroke-linejoin="round" cx="19.5" cy="72.3" r="5.7"></circle>
            <circle id="Oval" stroke="#1676EE" stroke-width="3.00007452" stroke-linecap="round" stroke-linejoin="round" transform="translate(57.040020, 72.321432) rotate(-3.990814) translate(-57.040020, -72.321432) " cx="57.0400197" cy="72.3214318" r="5.70014158"></circle>
        </g>
    </g>
</svg>