<?xml version="1.0" encoding="UTF-8"?>
<svg width="103px" height="143px" viewBox="0 0 103 143" version="1.1" xmlns="http://www.w3.org/2000/svg" xmlns:xlink="http://www.w3.org/1999/xlink">
    <!-- Generator: Sketch 51.2 (57519) - http://www.bohemiancoding.com/sketch -->
    <title>Tap</title>
    <desc>Created with Sketch.</desc>
    <defs></defs>
    <g id="Page-1" stroke="none" stroke-width="1" fill="none" fill-rule="evenodd">
        <g id="Tap" transform="translate(3.000000, 2.000000)">
            <g id="Group" transform="translate(11.000000, 30.000000)">
                <path d="M86.9,42.7 C86.9,38.7 83.7,35.5 79.7,35.5 C76.2,35.5 73.2,38.1 72.7,41.5 L69.5,41.5 L69.5,36 C69.5,32 66.3,28.8 62.3,28.8 C58.3,28.8 55.1,32 55.1,36 L55.1,41.4 L52.2,41.4 L52.2,30.4 C52.2,26.2 48.8,22.7 44.5,22.7 C40.3,22.7 36.8,26.1 36.8,30.4 L36.8,41.3 L34.2,41.3 L34.2,8.7 C34.2,4.5 30.8,1 26.5,1 C22.2,1 18.8,4.4 18.8,8.7 L18.8,55.6 L18.8,59.4 L18.8,75.6 L16,75.6 L16,64.1 C16,55.6 9.1,48.8 0.7,48.8 L0.7,77 C0.7,78.6 1.2,80.1 2.1,81.4 C2.1,81.4 2.1,81.5 2.1,81.5 C5,86 20.8,99.6 28.2,105.8 C30.6,107.8 33.6,108.9 36.8,108.9 L68,108.9 C78.4,108.9 86.8,100.5 86.8,90.1 L86.8,42.7 L86.9,42.7 Z" id="Shape" fill="#FFFFFF" fill-rule="nonzero"></path>
                <path d="M87,41.8 L87,89.1 C87,99.5 78.6,107.9 68.2,107.9 L37,107.9 C33.9,107.9 30.8,106.8 28.4,104.8 C21.1,98.6 5.2,85 2.3,80.5 C2.3,80.5 2.3,80.4 2.3,80.4 C1.4,79.1 0.9,77.6 0.9,76 L0.9,47.8 C9.4,47.8 16.3,54.7 16.3,63.2 L16.3,74.7 L19.1,74.7 L19.1,7.8 C19.1,3.6 22.5,0.1 26.8,0.1 C31,0.1 34.5,3.5 34.5,7.8 L34.5,40.4 L37.1,40.4 L37.1,29.5 C37.1,25.3 40.5,21.8 44.8,21.8 C49,21.8 52.5,25.2 52.5,29.5 L52.5,40.5 L55.4,40.5 L55.4,35.1 C55.4,31.1 58.6,27.9 62.6,27.9 C66.6,27.9 69.8,31.1 69.8,35.1 L69.8,40.6 L73,40.6 C73.6,37.2 76.5,34.6 80,34.6 C83.7,34.7 87,37.9 87,41.8 Z" id="Shape" fill="#FFFFFF" fill-rule="nonzero"></path>
                <path d="M87,47.3 L87,89.1 C87,99.5 78.6,107.9 68.2,107.9 L37,107.9 C33.9,107.9 30.8,106.8 28.4,104.8 C21.1,98.6 5.2,85 2.3,80.5 C2.3,80.5 2.3,80.4 2.3,80.4 C1.4,79.1 0.9,77.6 0.9,76 L0.9,53.3 C9.4,53.3 16.3,60.2 16.3,68.7 L16.3,80.2 L19.1,80.2 L19.1,13.3 C19.1,9.1 22.5,5.6 26.8,5.6 C31,5.6 34.5,9 34.5,13.3 L34.5,45.9 L37.1,45.9 L37.1,35 C37.1,30.8 40.5,27.3 44.8,27.3 C49,27.3 52.5,30.7 52.5,35 L52.5,46 L55.4,46 L55.4,40.5 C55.5,36.6 58.6,33.5 62.6,33.5 C66.5,33.5 69.7,36.7 69.8,40.6 C69.8,40.6 69.8,40.6 69.8,40.6 L69.8,46.1 L73,46.1 C73.6,42.7 76.5,40.1 80,40.1 C83.7,40.2 87,43.4 87,47.3 Z" id="Shape" fill="#DDECFE" fill-rule="nonzero"></path>
                <path d="M86.9,42.6 C86.8,38.7 83.6,35.6 79.7,35.6 C76.2,35.6 73.2,38.2 72.7,41.6 L69.5,41.6 L69.5,36 C69.5,32 66.3,28.8 62.3,28.8 C58.3,28.8 55.1,32 55.1,36 L55.1,41.4 L52.2,41.4 L52.2,30.4 C52.2,26.2 48.8,22.7 44.5,22.7 C40.3,22.7 36.8,26.1 36.8,30.4 L36.8,41.3 L34.2,41.3 L34.2,8.7 C34.2,4.5 30.8,1 26.5,1 C22.2,1 18.8,4.4 18.8,8.7 L18.8,16.4" id="Shape" stroke="#1676EE" stroke-width="3.0934" stroke-linecap="round" stroke-linejoin="round"></path>
                <path d="M19,34.8 L19,55.5 L19,59.3 L19,75.5 L16.2,75.5 L16.2,64 C16.2,55.5 9.3,48.7 0.9,48.7 L0.9,76.9 C0.9,78.5 1.4,80 2.3,81.3 C2.3,81.3 2.3,81.4 2.3,81.4 C5.2,85.9 21,99.5 28.4,105.7 C30.8,107.7 33.8,108.8 37,108.8 L68.2,108.8 C78.6,108.8 87,100.4 87,90 L87,53.7" id="Shape" stroke="#1676EE" stroke-width="3.0934" stroke-linecap="round" stroke-linejoin="round"></path>
                <path d="M19,22.8 L19,23.6" id="Shape" stroke="#1676EE" stroke-width="3.0934" stroke-linecap="round" stroke-linejoin="round"></path>
            </g>
            <g id="Group" stroke="#1676EE" stroke-linecap="round" stroke-linejoin="round" stroke-width="4.1245">
                <path d="M36.2,0.1 L36.2,14.3" id="Shape"></path>
                <path d="M10.5,10.9 L20.5,21" id="Shape"></path>
                <path d="M0,36.8 L14.2,36.8" id="Shape"></path>
                <path d="M58.7,36.2 L72.9,36.2" id="Shape"></path>
                <path d="M10.9,62.5 L21,52.5" id="Shape"></path>
                <path d="M52,20.6 L62,10.5" id="Shape"></path>
            </g>
        </g>
    </g>
</svg>