<?xml version="1.0" encoding="UTF-8"?>
<svg width="115px" height="143px" viewBox="0 0 115 143" version="1.1" xmlns="http://www.w3.org/2000/svg" xmlns:xlink="http://www.w3.org/1999/xlink">
    <!-- Generator: Sketch 51.2 (57519) - http://www.bohemiancoding.com/sketch -->
    <title>VR</title>
    <desc>Created with Sketch.</desc>
    <defs></defs>
    <g id="Page-1" stroke="none" stroke-width="1" fill="none" fill-rule="evenodd">
        <g id="VR" transform="translate(2.000000, 1.000000)">
            <path d="M111.1,60.7 L111.1,87.5 C111.1,92.8 107.4,95.5 103.1,95.5 L101.7,95.5 C101.5,96.8 101.3,98 100.9,99.3 C100.8,99.8 100.6,100.2 100.4,100.5 C98.8,103.6 94.8,102.7 94.8,102.7 L94.9,102.2 C94.1,102.6 94.6,102.4 93.9,102.7 C92.1,113.3 87.5,115.9 64.7,136.4 C59.5,140.5 52.2,140.4 47.2,136.1 L25.6,120.9 C20.5,116.6 17.2,110.4 16.6,103.7 L16.9,103.7 C16,103.2 15.1,102.7 14.2,102.1 L14.2,102.6 C14.2,102.6 9.3,103.7 8.2,99.2 C8.1,98.7 8,98.3 7.9,97.8 C7.7,97 7.6,96.2 7.5,95.4 C7.2,95.4 6.8,95.3 6.5,95.3 C6.3,94.6 6.2,93.9 6.2,93.2 L6.2,66.5 C6.2,61.1 10.8,56.7 16.5,56.7 L102.8,56.7 C106.1,56.7 109.2,58.3 111.1,60.7 Z" id="Shape" fill="#FFFFFF" fill-rule="nonzero"></path>
            <path d="M111.1,60.7 L111.1,87.5 C111.1,92.8 107.4,95.5 103.1,95.5 L101.7,95.5 C101.5,96.8 101.3,98 100.9,99.3 C100.8,99.8 100.6,100.2 100.4,100.5 L78.2,100.5 C74.9,100.5 71.9,98.9 70.1,96.3 L63.4,86.5 C62.8,85.7 62,85.1 61.2,84.7 C59.1,82.1 54.9,82.2 53,85.2 L46.1,95.9 C44.3,98.8 41.1,100.5 37.7,100.5 L13.6,100.5 C11.2,100.5 9.1,99.5 7.7,97.9 C7.1,97.2 6.6,96.3 6.3,95.4 C6.1,94.7 6,94 6,93.3 L6,66.6 C6,61.2 10.6,56.8 16.3,56.8 L102.6,56.8 C106.1,56.7 109.2,58.3 111.1,60.7 Z" id="Shape" fill="#DDECFE" fill-rule="nonzero"></path>
            <g id="Group">
                <g transform="translate(3.000000, 0.000000)" id="Shape">
                    <path d="M8.8,73 C-6,41 0.9,21 14.6,14 C10.1,4.2 9.8,0.7 9.8,0.7 C9.8,0.7 38.5,5.5 48.4,3.6 C60.9,1.1 80.2,4.1 87.4,20.7 C97.3,24.6 115.2,35 98.4,71.3" fill="#FFFFFF" fill-rule="nonzero"></path>
                    <path d="M96.9,69.2 C94.5,67.2 92.3,65 90.5,62.5 C87.8,58.8 85.6,54.6 82.1,51.6 C76,46.4 67.4,46.1 59.4,46 C47,45.8 34.5,45.6 22.1,45.5 C21.5,53.3 20,61.4 15.7,67.9 C15.2,68.6 14.7,69.3 14.2,70 C3.2,43.1 9.6,31.5 21.7,25.2 C17.5,16 17.3,12.7 17.3,12.7 C17.3,12.7 44,17.2 53.2,15.4 C64.9,13.1 82.8,15.9 89.5,31.5 C95.7,34 99.8,37.4 102.4,41.2 C103.8,51.2 99.5,62.2 96.9,69.2 Z" fill="#DDECFE" fill-rule="nonzero"></path>
                    <g transform="translate(2.000000, 40.000000)" stroke="#1676EE" stroke-linecap="round" stroke-linejoin="round" stroke-width="3">
                        <path d="M14.7,28.5 C14.6,28.6 14.5,28.7 14.4,28.9"></path>
                        <path d="M92.8,33.2 C93.1,32.2 93.3,29.7 93.1,27.6 C93.1,27.6 92.5,6.3 62.6,5.2 C32.7,4.1 29.9,9.4 20.7,0.8 C23.6,5.2 22.8,13.1 19.4,20.6"></path>
                        <path d="M84.7,73.1 C87.1,69.5 88.7,65.4 89.1,61"></path>
                        <path d="M11.5,63.9 C12.2,70.6 15.4,76.7 20.5,81.1 L42.1,96.3 C47.1,100.6 54.5,100.7 59.6,96.6 L79.5,78.7"></path>
                        <path d="M5.9,33.4 C1.5,34.8 -0.1,34.8 0.8,42.3 C1.7,49.8 2,54.7 3.1,59.2 C4.3,63.8 9.1,62.6 9.1,62.6"></path>
                        <path d="M93.1,33.4 C97.5,34.8 99.1,34.8 98.2,42.3 C97.3,49.9 97,54.7 95.9,59.2 C94.7,63.8 89.9,62.6 89.9,62.6"></path>
                    </g>
                    <path d="M8.8,73 C-6,41 0.9,21 14.6,14 C10.1,4.2 9.8,0.7 9.8,0.7 C9.8,0.7 38.5,5.5 48.4,3.6 C60.9,1.1 80.2,4.1 87.4,20.7 C97.3,24.6 115.2,35 98.4,71.3" stroke="#1676EE" stroke-width="3" stroke-linecap="round" stroke-linejoin="round"></path>
                </g>
                <path d="M111.1,58.4 L111.1,87.5 C111.1,91.9 107.5,95.5 103.1,95.5 L75,95.5 C71.6,95.5 68.5,93.8 66.6,90.9 L59.7,80.2 C57.7,77.1 53.1,77.1 51.1,80.2 L44.2,90.9 C42.4,93.8 39.2,95.5 35.8,95.5 L8,95.5 C3.6,95.5 0,91.9 0,87.5 L0,58.4 C0,52.5 4.8,47.7 10.7,47.7 L100.3,47.7 C106.3,47.7 111.1,52.5 111.1,58.4 Z" id="Shape" fill="#FFFFFF" fill-rule="nonzero"></path>
                <path d="M111.1,61.5 L111.1,88.2 C111.1,92.2 107.7,95.5 103.5,95.5 C103.5,95.5 103.4,95.5 103.4,95.5 L76.3,95.5 C73,95.5 70,93.9 68.2,91.3 L61.5,81.5 C60.9,80.7 60.1,80.1 59.3,79.7 C57.2,77.1 53,77.2 51.1,80.2 L44.2,90.9 C42.4,93.8 39.2,95.5 35.8,95.5 L11.7,95.5 C7.4,95.5 4,92.2 4,88.2 L4,61.5 C4,56.1 8.6,51.7 14.3,51.7 L100.6,51.7 C106.4,51.7 111.1,56.1 111.1,61.5 Z" id="Shape" fill="#7DB7FF" fill-rule="nonzero"></path>
                <path d="M111.1,58.4 L111.1,87.5 C111.1,91.8 107.7,95.3 103.5,95.5 C103.4,95.5 103.2,95.5 103.1,95.5 L75,95.5 C71.6,95.5 68.5,93.8 66.6,90.9 L59.7,80.2 C59.6,80 59.5,79.8 59.3,79.7 C57.2,77.1 53,77.2 51.1,80.2 L44.2,90.9 C42.4,93.8 39.2,95.5 35.8,95.5 L8,95.5 C3.6,95.5 0,91.9 0,87.5 L0,58.4 C0,52.5 4.8,47.7 10.7,47.7 L100.3,47.7 C106.3,47.7 111.1,52.5 111.1,58.4 Z" id="Shape" stroke="#1676EE" stroke-width="3" stroke-linecap="round" stroke-linejoin="round"></path>
                <text id="VR" fill="#1676EE" font-family="Helvetica" font-size="21" font-weight="normal">
                    <tspan x="39.6069" y="72.2924">VR</tspan>
                </text>
            </g>
        </g>
    </g>
</svg>