<svg width="573" height="339" fill="none" xmlns="http://www.w3.org/2000/svg"><g filter="url(#filter0_d)"><path d="M521.93 71.936H382.232c-17.002 0-30.784 13.783-30.784 30.784v65.275c0 17.001 13.783 30.783 30.784 30.783H521.93c17.001 0 30.783-13.782 30.783-30.783V102.72c0-17.001-13.782-30.784-30.783-30.784z" fill="#fff" fill-opacity=".01"/></g><path d="M521.93 71.936H382.232c-17.002 0-30.784 13.783-30.784 30.784v65.275c0 17.001 13.783 30.783 30.784 30.783H521.93c17.001 0 30.783-13.782 30.783-30.783V102.72c0-17.001-13.782-30.784-30.783-30.784z" fill="#fff"/><path d="M528.165 99.085H375.996a4.19 4.19 0 000 8.38h152.169a4.19 4.19 0 000-8.38z" fill="#EFF0F7"/><g filter="url(#filter1_d)"><path d="M431.255 99.085h-55.259a4.19 4.19 0 000 8.38h55.259a4.19 4.19 0 000-8.38z" fill="#3F80FD" fill-opacity=".01"/></g><path d="M431.448 99.085h-55.259a4.19 4.19 0 000 8.38h55.259a4.19 4.19 0 000-8.38z" fill="#3F80FD"/><path d="M528.165 115.126H375.996a4.19 4.19 0 00-4.189 4.19 4.19 4.19 0 004.189 4.19h152.169a4.19 4.19 0 000-8.38z" fill="#EFF0F7"/><g filter="url(#filter2_d)"><path d="M511.765 115.126H375.996a4.19 4.19 0 00-4.189 4.19 4.19 4.19 0 004.189 4.19h135.769a4.19 4.19 0 000-8.38z" fill="#3F80FD" fill-opacity=".01"/></g><path d="M511.958 115.126H376.189a4.19 4.19 0 00-4.189 4.19 4.19 4.19 0 004.189 4.19h135.769a4.19 4.19 0 000-8.38z" fill="#3F80FD"/><path d="M528.165 131.168H375.996a4.189 4.189 0 000 8.379h152.169a4.19 4.19 0 000-8.379z" fill="#EFF0F7"/><g filter="url(#filter3_d)"><path d="M422.841 131.063h-46.652a4.19 4.19 0 00-4.189 4.19 4.19 4.19 0 004.189 4.19h46.652a4.19 4.19 0 000-8.38z" fill="#3F80FD" fill-opacity=".01"/></g><path d="M422.944 131.063h-46.755a4.19 4.19 0 00-4.189 4.19 4.19 4.19 0 004.189 4.19h46.755a4.19 4.19 0 000-8.38z" fill="#3F80FD"/><path d="M528.165 147.209H375.996a4.19 4.19 0 00-4.189 4.19 4.19 4.19 0 004.189 4.19h152.169a4.19 4.19 0 000-8.38z" fill="#EFF0F7"/><g filter="url(#filter4_d)"><path d="M485.702 147.209H375.996a4.19 4.19 0 00-4.189 4.19 4.19 4.19 0 004.189 4.19h109.706a4.19 4.19 0 000-8.38z" fill="#3F80FD" fill-opacity=".01"/></g><path d="M485.702 147H375.996a4.19 4.19 0 00-4.189 4.19 4.19 4.19 0 004.189 4.19h109.706a4.19 4.19 0 000-8.38z" fill="#3F80FD"/><path d="M528.165 163.251H375.996a4.19 4.19 0 000 8.379h152.169a4.19 4.19 0 100-8.379z" fill="#EFF0F7"/><g filter="url(#filter5_d)"><path d="M444.447 163.251h-68.451a4.19 4.19 0 000 8.379h68.451a4.19 4.19 0 100-8.379z" fill="#3F80FD" fill-opacity=".01"/></g><path d="M444.64 163.251h-68.451a4.19 4.19 0 000 8.379h68.451a4.19 4.19 0 100-8.379z" fill="#3F80FD"/><g filter="url(#filter6_d)"><path d="M140.103 154.989H52c-17.673 0-32 14.327-32 32v93.269c0 17.673 14.327 32 32 32h88.103c17.673 0 32-14.327 32-32v-93.269c0-17.673-14.327-32-32-32z" fill="#fff" fill-opacity=".01"/></g><path d="M140.103 154.989H52c-17.673 0-32 14.327-32 32v93.269c0 17.673 14.327 32 32 32h88.103c17.673 0 32-14.327 32-32v-93.269c0-17.673-14.327-32-32-32z" fill="#fff"/><path d="M152.966 233.623c0 31.433-25.482 56.915-56.915 56.915s-56.914-25.482-56.914-56.915 25.481-56.914 56.915-56.914c31.432 0 56.914 25.481 56.914 56.914zm-88.327 0c0 17.349 14.064 31.413 31.413 31.413 17.348 0 31.412-14.064 31.412-31.413 0-17.348-14.064-31.412-31.412-31.412-17.35 0-31.413 14.064-31.413 31.412z" fill="#F5F7FC"/><g filter="url(#filter7_d)"><path d="M102.057 189.779a44.255 44.255 0 0136.909 54.647" stroke="#FFC226" stroke-opacity=".01" stroke-width="25.322" stroke-linecap="round"/></g><path d="M102.057 189.779a44.255 44.255 0 0136.909 54.647" stroke="#FFC226" stroke-width="25.322" stroke-linecap="round"/><g filter="url(#filter8_d)"><path d="M60.209 207.668a44.255 44.255 0 0160.031-11.103" stroke="#FF8139" stroke-opacity=".01" stroke-width="25.322" stroke-linecap="round"/></g><path d="M60.209 207.668a44.255 44.255 0 0160.031-11.103" stroke="#FF8139" stroke-width="25.322" stroke-linecap="round"/><g filter="url(#filter9_d)"><path d="M104.758 277.012a44.251 44.251 0 01-44.848-17.851 44.254 44.254 0 01-1.848-48.235" stroke="#FF3951" stroke-opacity=".01" stroke-width="25.322" stroke-linecap="round"/></g><path d="M104.758 277.012a44.251 44.251 0 01-44.848-17.851 44.254 44.254 0 01-1.848-48.235" stroke="#FF3951" stroke-width="25.322" stroke-linecap="round"/><g filter="url(#filter10_d)"><path d="M283.845 14H152.783c-14.36 0-26 11.64-26 26v53.726c0 14.359 11.64 26 26 26h131.062c14.359 0 26-11.641 26-26V40c0-14.36-11.641-26-26-26z" fill="#fff" fill-opacity=".01"/></g><path d="M283.845 14H152.783c-14.36 0-26 11.64-26 26v53.726c0 14.359 11.64 26 26 26h131.062c14.359 0 26-11.641 26-26V40c0-14.36-11.641-26-26-26z" fill="#fff"/><path opacity=".1" d="M250.399 59.2c-23.445-13.221-11.816 32.53-46.362 11.192-29.828-18.425-34.2 18.397-50.561 30.06-2.579 1.838-6.133 7.535-9.419 7.569l144.155-.757a4.41 4.41 0 004.388-4.411V25.705c-13.16 4.638-18.756 46.718-42.201 33.496z" fill="#F4263E"/><g filter="url(#filter11_d)"><path d="M144.967 105.211c23.964 0 25.128-55.634 59.44-35.564s21.992-24.873 45.279-12.437c23.286 12.437 28.843-27.143 41.915-31.506" stroke="#F4263E" stroke-opacity=".01" stroke-width="3.151" stroke-linecap="round"/></g><path d="M144.967 105.211c23.964 0 25.128-55.634 59.44-35.564s21.992-24.873 45.279-12.437c23.286 12.437 28.843-27.143 41.915-31.506" stroke="#F4263E" stroke-width="3.151" stroke-linecap="round"/><defs><filter id="filter0_d" x="331.448" y="57.936" width="241.265" height="166.842" filterUnits="userSpaceOnUse" color-interpolation-filters="sRGB"><feFlood flood-opacity="0" result="BackgroundImageFix"/><feColorMatrix in="SourceAlpha" values="0 0 0 0 0 0 0 0 0 0 0 0 0 0 0 0 0 0 127 0"/><feOffset dy="6"/><feGaussianBlur stdDeviation="10"/><feColorMatrix values="0 0 0 0 0.247059 0 0 0 0 0.501961 0 0 0 0 0.992157 0 0 0 0.05 0"/><feBlend in2="BackgroundImageFix" result="effect1_dropShadow"/><feBlend in="SourceGraphic" in2="effect1_dropShadow" result="shape"/></filter><filter id="filter1_d" x="362.753" y="93.652" width="81.746" height="26.488" filterUnits="userSpaceOnUse" color-interpolation-filters="sRGB"><feFlood flood-opacity="0" result="BackgroundImageFix"/><feColorMatrix in="SourceAlpha" values="0 0 0 0 0 0 0 0 0 0 0 0 0 0 0 0 0 0 127 0"/><feOffset dy="3.622"/><feGaussianBlur stdDeviation="4.527"/><feColorMatrix values="0 0 0 0 0.247059 0 0 0 0 0.501961 0 0 0 0 0.992157 0 0 0 0.29 0"/><feBlend in2="BackgroundImageFix" result="effect1_dropShadow"/><feBlend in="SourceGraphic" in2="effect1_dropShadow" result="shape"/></filter><filter id="filter2_d" x="362.753" y="109.694" width="162.256" height="26.488" filterUnits="userSpaceOnUse" color-interpolation-filters="sRGB"><feFlood flood-opacity="0" result="BackgroundImageFix"/><feColorMatrix in="SourceAlpha" values="0 0 0 0 0 0 0 0 0 0 0 0 0 0 0 0 0 0 127 0"/><feOffset dy="3.622"/><feGaussianBlur stdDeviation="4.527"/><feColorMatrix values="0 0 0 0 0.247059 0 0 0 0 0.501961 0 0 0 0 0.992157 0 0 0 0.29 0"/><feBlend in2="BackgroundImageFix" result="effect1_dropShadow"/><feBlend in="SourceGraphic" in2="effect1_dropShadow" result="shape"/></filter><filter id="filter3_d" x="362.946" y="125.631" width="73.139" height="26.488" filterUnits="userSpaceOnUse" color-interpolation-filters="sRGB"><feFlood flood-opacity="0" result="BackgroundImageFix"/><feColorMatrix in="SourceAlpha" values="0 0 0 0 0 0 0 0 0 0 0 0 0 0 0 0 0 0 127 0"/><feOffset dy="3.622"/><feGaussianBlur stdDeviation="4.527"/><feColorMatrix values="0 0 0 0 0.247059 0 0 0 0 0.501961 0 0 0 0 0.992157 0 0 0 0.29 0"/><feBlend in2="BackgroundImageFix" result="effect1_dropShadow"/><feBlend in="SourceGraphic" in2="effect1_dropShadow" result="shape"/></filter><filter id="filter4_d" x="362.753" y="141.777" width="136.193" height="26.488" filterUnits="userSpaceOnUse" color-interpolation-filters="sRGB"><feFlood flood-opacity="0" result="BackgroundImageFix"/><feColorMatrix in="SourceAlpha" values="0 0 0 0 0 0 0 0 0 0 0 0 0 0 0 0 0 0 127 0"/><feOffset dy="3.622"/><feGaussianBlur stdDeviation="4.527"/><feColorMatrix values="0 0 0 0 0.247059 0 0 0 0 0.501961 0 0 0 0 0.992157 0 0 0 0.29 0"/><feBlend in2="BackgroundImageFix" result="effect1_dropShadow"/><feBlend in="SourceGraphic" in2="effect1_dropShadow" result="shape"/></filter><filter id="filter5_d" x="362.753" y="157.819" width="94.938" height="26.487" filterUnits="userSpaceOnUse" color-interpolation-filters="sRGB"><feFlood flood-opacity="0" result="BackgroundImageFix"/><feColorMatrix in="SourceAlpha" values="0 0 0 0 0 0 0 0 0 0 0 0 0 0 0 0 0 0 127 0"/><feOffset dy="3.622"/><feGaussianBlur stdDeviation="4.527"/><feColorMatrix values="0 0 0 0 0.247059 0 0 0 0 0.501961 0 0 0 0 0.992157 0 0 0 0.29 0"/><feBlend in2="BackgroundImageFix" result="effect1_dropShadow"/><feBlend in="SourceGraphic" in2="effect1_dropShadow" result="shape"/></filter><filter id="filter6_d" x="0" y="140.989" width="192.103" height="197.269" filterUnits="userSpaceOnUse" color-interpolation-filters="sRGB"><feFlood flood-opacity="0" result="BackgroundImageFix"/><feColorMatrix in="SourceAlpha" values="0 0 0 0 0 0 0 0 0 0 0 0 0 0 0 0 0 0 127 0"/><feOffset dy="6"/><feGaussianBlur stdDeviation="10"/><feColorMatrix values="0 0 0 0 1 0 0 0 0 0.505882 0 0 0 0 0.223529 0 0 0 0.1 0"/><feBlend in2="BackgroundImageFix" result="effect1_dropShadow"/><feBlend in="SourceGraphic" in2="effect1_dropShadow" result="shape"/></filter><filter id="filter7_d" x="81.603" y="173.221" width="79.154" height="95.556" filterUnits="userSpaceOnUse" color-interpolation-filters="sRGB"><feFlood flood-opacity="0" result="BackgroundImageFix"/><feColorMatrix in="SourceAlpha" values="0 0 0 0 0 0 0 0 0 0 0 0 0 0 0 0 0 0 127 0"/><feOffset dy="3.896"/><feGaussianBlur stdDeviation="3.896"/><feColorMatrix values="0 0 0 0 1 0 0 0 0 0.760784 0 0 0 0 0.14902 0 0 0 0.21 0"/><feBlend in2="BackgroundImageFix" result="effect1_dropShadow"/><feBlend in="SourceGraphic" in2="effect1_dropShadow" result="shape"/></filter><filter id="filter8_d" x="39.755" y="172.813" width="100.938" height="59.204" filterUnits="userSpaceOnUse" color-interpolation-filters="sRGB"><feFlood flood-opacity="0" result="BackgroundImageFix"/><feColorMatrix in="SourceAlpha" values="0 0 0 0 0 0 0 0 0 0 0 0 0 0 0 0 0 0 127 0"/><feOffset dy="3.896"/><feGaussianBlur stdDeviation="3.896"/><feColorMatrix values="0 0 0 0 1 0 0 0 0 0.505882 0 0 0 0 0.223529 0 0 0 0.16 0"/><feBlend in2="BackgroundImageFix" result="effect1_dropShadow"/><feBlend in="SourceGraphic" in2="effect1_dropShadow" result="shape"/></filter><filter id="filter9_d" x="23.554" y="188.524" width="109.45" height="123.44" filterUnits="userSpaceOnUse" color-interpolation-filters="sRGB"><feFlood flood-opacity="0" result="BackgroundImageFix"/><feColorMatrix in="SourceAlpha" values="0 0 0 0 0 0 0 0 0 0 0 0 0 0 0 0 0 0 127 0"/><feOffset dy="5.843"/><feGaussianBlur stdDeviation="7.791"/><feColorMatrix values="0 0 0 0 1 0 0 0 0 0.223529 0 0 0 0 0.317647 0 0 0 0.34 0"/><feBlend in2="BackgroundImageFix" result="effect1_dropShadow"/><feBlend in="SourceGraphic" in2="effect1_dropShadow" result="shape"/></filter><filter id="filter10_d" x="106.783" y="0" width="223.062" height="145.726" filterUnits="userSpaceOnUse" color-interpolation-filters="sRGB"><feFlood flood-opacity="0" result="BackgroundImageFix"/><feColorMatrix in="SourceAlpha" values="0 0 0 0 0 0 0 0 0 0 0 0 0 0 0 0 0 0 127 0"/><feOffset dy="6"/><feGaussianBlur stdDeviation="10"/><feColorMatrix values="0 0 0 0 0.956863 0 0 0 0 0.14902 0 0 0 0 0.243137 0 0 0 0.1 0"/><feBlend in2="BackgroundImageFix" result="effect1_dropShadow"/><feBlend in="SourceGraphic" in2="effect1_dropShadow" result="shape"/></filter><filter id="filter11_d" x="140.241" y="22.238" width="156.087" height="88.96" filterUnits="userSpaceOnUse" color-interpolation-filters="sRGB"><feFlood flood-opacity="0" result="BackgroundImageFix"/><feColorMatrix in="SourceAlpha" values="0 0 0 0 0 0 0 0 0 0 0 0 0 0 0 0 0 0 127 0"/><feOffset dy="1.26"/><feGaussianBlur stdDeviation="1.575"/><feColorMatrix values="0 0 0 0 0.956863 0 0 0 0 0.14902 0 0 0 0 0.243137 0 0 0 0.33 0"/><feBlend in2="BackgroundImageFix" result="effect1_dropShadow"/><feBlend in="SourceGraphic" in2="effect1_dropShadow" result="shape"/></filter></defs></svg>