<svg width="670" height="476" fill="none" xmlns="http://www.w3.org/2000/svg"><path d="M183.671 320.41h-82.826a5.432 5.432 0 110-10.865h82.826a5.43 5.43 0 015.432 5.433 5.432 5.432 0 01-5.432 5.432z" fill="#407BFF"/><path opacity=".8" d="M183.671 320.41h-82.826a5.432 5.432 0 110-10.865h82.826a5.43 5.43 0 015.432 5.433 5.432 5.432 0 01-5.432 5.432z" fill="#A0A3BD"/><path d="M258.258 460.185l12.205-5.595-5.885-31.508-12.187 5.613 5.867 31.49z" fill="#FFD5BD"/><path d="M269.883 451.24l-13.707 6.283a.961.961 0 00-.526 1.25l4.31 11.154a2.387 2.387 0 003.133 1.195c4.744-2.281 6.881-3.621 12.911-6.374 3.712-1.702 19.665-8.547 24.771-10.864 5.107-2.318 2.662-7.352.272-6.809-10.665 2.408-24.029 5.106-28.719 3.984a3.73 3.73 0 00-2.445.181z" fill="#14142B"/><path opacity=".2" d="M252.373 428.695l12.204-5.595 3.042 16.243-12.222 5.595-3.024-16.243z" fill="#14142B"/><path d="M172.209 257.575s104.447 7.479 100.227 45.741c-6.048 54.994-1.068 124.565-1.068 124.565l-22.744 9.379s-19.918-77.52-14.613-120.381c-26.057-10.865-96.714-.453-105.026-22.961a73.787 73.787 0 01-3.114-36.343h46.338z" fill="#14142B"/><path opacity=".3" d="M223.092 289.427s-2.535 11.372-4.273 23.722h.235l2.68.416 1.358.254 1.539.289a57.24 57.24 0 016.211 1.594c.489.145.942.308 1.395.471.452.163 1.213.434 1.81.67a132.49 132.49 0 00-.923 15.917c15.844-23.269 2.227-43.333-10.032-43.333z" fill="#14142B"/><path d="M246.578 444.739l29.425-13.508-1.901-10.829-30.258 11.064 2.734 13.273zm28.737 6.646a17.67 17.67 0 01-3.458 1.05.288.288 0 01-.308-.127.311.311 0 01-.053-.172c0-.061.019-.121.053-.172.253-.453 2.626-4.382 4.382-4.491a1.148 1.148 0 011.032.507 1.705 1.705 0 01.362 1.702 3.619 3.619 0 01-2.01 1.703zm-2.861.271c2.372-.561 3.948-1.358 4.256-2.191a1.073 1.073 0 00-.254-1.104.523.523 0 00-.507-.254c-.996.054-2.553 2.082-3.549 3.549h.054z" fill="#FF3951"/><path d="M271.875 452.417h-.181a.26.26 0 01-.154-.04.247.247 0 01-.1-.123c0-.127-1.974-3.513-1.286-5.27a1.512 1.512 0 011.014-.941 1.194 1.194 0 011.431.38c.887 1.195.254 4.581-.634 5.867l-.09.127zm-.616-5.722a.895.895 0 00-.489.543 6.93 6.93 0 00.978 4.237 6.226 6.226 0 00.38-4.653c-.108-.163-.29-.308-.724-.182l-.145.055z" fill="#FF3951"/><path d="M177.297 148.71l12.676 36.76c2.154 6.12 4.291 12.222 6.5 18.252 2.209 6.03 4.473 12.042 6.899 17.764l-.597-1.086a6.51 6.51 0 00-2.372-2.083 6.593 6.593 0 00-3.622-.742c-1.648.217-1.593.561-1.412.434a11.023 11.023 0 002.861-1.973 88.898 88.898 0 007.152-7.153c2.409-2.626 4.781-5.432 7.244-8.167l7.134-8.402 8.656 5.179c-1.503 3.622-3.205 7.026-4.944 10.485a109.246 109.246 0 01-5.776 10.14 80.925 80.925 0 01-7.243 9.941 29.819 29.819 0 01-5.759 5.161 13.75 13.75 0 01-6.609 2.39 11.406 11.406 0 01-6.284-1.303 11.966 11.966 0 01-4.382-4.02l-.217-.326-.38-.743c-3.042-6.156-5.722-12.241-8.294-18.397a583.675 583.675 0 01-7.352-18.434c-2.335-6.175-4.617-12.35-6.79-18.561s-4.31-12.422-6.283-18.76l19.194-6.356z" fill="#FFD5BD"/><path d="M179.579 150.702c10.864 12.531 19.411 24.956 18.108 30.059-1.304 5.104-28.539 17.185-28.539 17.185-8.239-10.032-18.506-36.614-18.941-45.578-.633-13.78 17.601-15.156 29.372-1.666z" fill="#FF3951"/><path opacity=".3" d="M169.51 163.486c6.23 5.234 10.483 17.709 12.511 28.266l-12.764 6.194c-4.074-4.962-8.656-13.961-12.295-22.907 2.825-8.873 7.044-16.188 12.548-11.553z" fill="#14142B"/><path d="M173.549 459.135h13.436l6.139-31.073h-13.418l-6.157 31.073z" fill="#FFD5BD"/><path d="M187.401 455.875h-15.084a.958.958 0 00-.909.559.962.962 0 00-.087.365l-.742 11.933a2.39 2.39 0 002.354 2.39c5.251-.09 7.768-.398 14.396-.398 4.074 0 17.927.416 23.54.416 5.613 0 5.432-5.577 3.078-6.084-10.701-2.263-20.462-5.432-24.264-8.348a3.624 3.624 0 00-2.282-.833z" fill="#14142B"/><path opacity=".2" d="M179.705 428.062h13.418l-3.169 16.025h-13.436l3.187-16.025z" fill="#14142B"/><path d="M145.898 257.575s88.512 7.479 86.339 45.904c-2.391 42.083-36.452 136.733-36.452 136.733h-24.59s11.118-85.632 16.496-128.476c-24.935 0-76.705 4.69-84.999-17.818a73.792 73.792 0 01-3.024-36.343h46.23z" fill="#14142B"/><path d="M168.551 440.212h32.377l1.847-12.766-33.789 1.521-.435 11.245zm23.595 17.999a17.201 17.201 0 01-3.622-.47.306.306 0 01-.159-.085.308.308 0 01.051-.477c.434-.308 4.219-2.897 5.867-2.263a1.213 1.213 0 01.724.887 1.806 1.806 0 01-.38 1.702 3.623 3.623 0 01-2.481.706zm-2.716-.923c2.408.471 4.183.398 4.798-.217a1.119 1.119 0 00.236-1.123.55.55 0 00-.363-.435c-.869-.344-3.114.779-4.671 1.775z" fill="#FF3951"/><path d="M188.651 457.741a.201.201 0 01-.145 0 .29.29 0 01-.109-.308c0-.163-.326-4.02 1.032-5.324.174-.167.383-.292.612-.367a1.6 1.6 0 01.71-.068 1.218 1.218 0 011.141.942c.308 1.467-1.702 4.274-3.024 5.07l-.217.055zm1.811-5.433a.957.957 0 00-.67.272 6.913 6.913 0 00-.888 4.255c1.177-.978 2.499-3.114 2.3-4.074 0-.181-.145-.398-.598-.453h-.144z" fill="#FF3951"/><path d="M217.75 196.877l4.165-14.884 13.418 8.855s-7.243 12.892-11.788 11.842l-5.795-5.813z" fill="#FFD5BD"/><path d="M230.218 177.034c2.526-.78 5.211.146 6.946 2.14a7.31 7.31 0 01-.031 9.63l-1.8 2.044s-14.651-5.164-13.418-8.873c.732-2.201 4.973-3.912 8.303-4.941z" fill="#FFD5BD"/><path d="M172.1 258.245h-71.78c-.507-6.41.978-27.27-.127-53.835a341.065 341.065 0 00-7.134-58.561 372.566 372.566 0 00-.996-4.327s3.622-.743 8.855-1.503c4.328-.634 9.76-1.286 15.084-1.54a268.203 268.203 0 0130.512 0c4.69.435 9.271 1.214 12.929 1.92 4.671.941 7.424 1.811 7.424 1.811s17.691 40.561 5.233 116.035z" fill="#FF3951"/><path opacity=".3" d="M100.194 204.429a341.155 341.155 0 00-7.135-58.562c4.799-.416 13.002 0 14.36 7.805 1.466 8.33-.381 27.922-7.225 50.757z" fill="#14142B"/><path d="M105.988 159.249c-1.575 4.473-3.277 9.29-4.78 13.98-1.503 4.69-2.988 9.47-4.328 14.214a161.526 161.526 0 00-5.867 28.086l-.127 1.666v1.159a6.08 6.08 0 00-1.159-2.861 6.027 6.027 0 00-3.042-2.246c-.688-.181-.869-.127-.887-.109.19.051.39.051.58 0a13.468 13.468 0 002.516-.398 89.63 89.63 0 0013.074-4.672c9.054-3.875 18.235-8.366 27.289-12.82l5.541 8.402a207.188 207.188 0 01-25.894 18.379 88.164 88.164 0 01-15.157 7.407 32.94 32.94 0 01-4.98 1.322 20.377 20.377 0 01-3.24.344 14.848 14.848 0 01-4.69-.67 11.845 11.845 0 01-6.121-4.419 12.456 12.456 0 01-2.21-6.555 15.323 15.323 0 010-1.575v-3.278c.144-5.562.695-11.105 1.648-16.587.87-5.432 1.992-10.611 3.296-15.772 1.304-5.16 2.716-10.267 4.346-15.301 1.63-5.034 3.26-9.941 5.324-15.048l18.868 7.352z" fill="#FFD5BD"/><path d="M92.063 141.54c13.074-4.129 21.44 6.319 17.818 24.445-2.466 11.581-9.377 32.008-12.422 33.065-3.045 1.058-25.09-9.349-26.42-12.53-1.328-3.181 7.642-40.761 21.024-44.98z" fill="#FF3951"/><path d="M116.654 104.328l8.167 6.772 11.118 9.235a35.88 35.88 0 00-.706 4.491c-.598 6.03.959 11.517 9.832 13.617 0 0 8.728 8.149-8.728 8.402-17.456.254-21.512-8.221-21.512-8.221 6.573-6.609 4.092-24.518 1.829-34.296z" fill="#FFD5BD"/><path opacity=".2" d="M135.884 120.281a36.222 36.222 0 00-.706 4.491c-4.147-.833-9.688-5.252-10.267-9.489a19.312 19.312 0 01-.145-4.237l11.118 9.235z" fill="#14142B"/><path d="M148.886 94.097c3.205-7.243 1.195-17.728-4.237-21.62a7.934 7.934 0 00-11.544 2.27 7.925 7.925 0 00-1.132 4.212c-.29 8.909 13.255 23.377 16.913 15.138z" fill="#14142B"/><path d="M113.286 90.131c2.843 13.056 3.838 20.806 11.552 26.764a17.374 17.374 0 0017.816 2.234 17.364 17.364 0 0010.27-14.729c1.014-12.15-3.785-31.471-17.529-35.165a17.58 17.58 0 00-17.074 4.079 17.587 17.587 0 00-5.035 16.817z" fill="#FFD5BD"/><path d="M118.827 100.308c4.146-6.773 3.495-17.42-1.358-21.983a7.953 7.953 0 00-8.251-1.862 7.949 7.949 0 00-5.258 6.624c-1.376 8.819 10.195 24.862 14.867 17.221z" fill="#14142B"/><path d="M120.909 84.15a6.066 6.066 0 10-5.6-10.762 6.066 6.066 0 005.6 10.763z" fill="#14142B"/><path d="M118.754 76.297a5.434 5.434 0 01-7.803 3.189 5.428 5.428 0 01-2.793-5.382 5.434 5.434 0 0110.22-1.887 5.432 5.432 0 01.376 4.08z" fill="#14142B"/><path d="M127.862 75.355a5.429 5.429 0 01-4.705 3.794 5.432 5.432 0 114.705-3.794zm-10.756-5.957a7.112 7.112 0 01-6.165 4.962 7.118 7.118 0 01-7.699-7.869 7.111 7.111 0 015.094-6.056 7.117 7.117 0 014.135.054 7.083 7.083 0 014.944 6.153c.08.93-.025 1.867-.309 2.756z" fill="#14142B"/><path d="M127.772 65.668a7.249 7.249 0 01-6.267 5.063 7.244 7.244 0 116.267-5.063z" fill="#14142B"/><path d="M137.188 63.169a7.243 7.243 0 11-13.836-4.29 7.243 7.243 0 0113.836 4.29z" fill="#14142B"/><path d="M148.125 63.205a7.238 7.238 0 01-6.297 4.964 7.242 7.242 0 116.297-4.964zM111.928 77.04a6.536 6.536 0 11-12.465-3.942 6.536 6.536 0 0112.465 3.941zm22.146-5.94a5.904 5.904 0 11-11.26-3.553 5.904 5.904 0 0111.26 3.553z" fill="#14142B"/><path d="M141.317 70.557a5.018 5.018 0 01-7.195 2.9 5.018 5.018 0 01-1.435-7.623 5.011 5.011 0 015.352-1.56 5.02 5.02 0 013.278 6.283zm11.045-3.894a4.99 4.99 0 01-4.337 3.463 5 5 0 01-4.861-2.678 4.993 4.993 0 01.61-5.517 5.001 5.001 0 017.042-.611 5.008 5.008 0 011.764 3.402 4.987 4.987 0 01-.218 1.941z" fill="#14142B"/><path d="M147.89 70.756a4.797 4.797 0 01-6.884 2.772 4.798 4.798 0 013.751-8.784 4.773 4.773 0 012.816 2.355 4.778 4.778 0 01.317 3.657zm8.927-6.428a3.948 3.948 0 11-2.571-4.944 3.93 3.93 0 012.571 4.944z" fill="#14142B"/><path d="M158.791 67.967a2.35 2.35 0 01-2.039 1.65 2.355 2.355 0 11.518-4.584 2.346 2.346 0 011.368 1.152 2.337 2.337 0 01.153 1.782zm-39.077 2.915a2.356 2.356 0 01-3.376 1.359 2.349 2.349 0 01-1.21-2.32 2.352 2.352 0 013.047-1.99 2.374 2.374 0 011.539 2.951z" fill="#14142B"/><path d="M111.167 102.227a11.883 11.883 0 007.243 4.437c3.622.652 4.817-2.735 3.187-6.03-1.485-2.97-5.16-6.881-8.583-6.049-3.422.834-4.038 4.763-1.847 7.642z" fill="#FFD5BD"/><path d="M135.649 91.326c.163 1.069.869 1.811 1.575 1.811.707 0 1.141-1.014.978-2.082-.163-1.069-.869-1.81-1.575-1.81s-1.141 1.013-.978 2.081zm12.15-1.485c.163 1.069.87 1.811 1.576 1.811.706 0 1.141-1.032.978-2.1-.163-1.069-.87-1.811-1.576-1.811-.706 0-1.141 1.068-.978 2.1z" fill="#14142B"/><path d="M144.105 90.312c.293-.084 5.299 7.036 5.07 7.624-.229.588-1.297.83-2.045 1.012-.749.182-2.089.246-2.282.038-.194-.208-1.036-8.59-.743-8.674z" fill="#FF97B8"/><path d="M139.868 104.491a9.323 9.323 0 01-6.754-2.789.314.314 0 01.471-.416 9.06 9.06 0 007.478 2.499.326.326 0 01.344.271.325.325 0 01-.271.362 10.14 10.14 0 01-1.268.073zm-9.108-19.339a.807.807 0 01-.272-.145.625.625 0 01-.19-.453.628.628 0 01.19-.453 6.12 6.12 0 015.433-2.1.615.615 0 01.507.742.628.628 0 01-.255.407.618.618 0 01-.47.1 4.833 4.833 0 00-4.183 1.703.666.666 0 01-.76.199zm21.422-.743a.616.616 0 01-.58-.127 5.425 5.425 0 00-4.545-1.231.612.612 0 01-.67-.212.602.602 0 01-.108-.223.63.63 0 01.434-.778 6.557 6.557 0 015.686 1.466.652.652 0 01.091.906.826.826 0 01-.308.199z" fill="#14142B"/><path d="M126.45 196.769s2.902-9.58 4.708-11.444c1.806-1.865 9.923 10.557 9.923 10.557s-4.798 11.226-10.375 8.257l-4.256-7.37z" fill="#FFD5BD"/><path d="M138.265 180.435c2.937-1.642 6.607-.582 8.349 2.296a6.44 6.44 0 01-.658 7.567l-4.875 5.584s-10.335-8.725-9.907-10.476c.232-.949 3.836-3.151 7.091-4.971z" fill="#FFD5BD"/><path d="M436.911 79.502c8.74 0 15.826-7.086 15.826-15.827 0-8.74-7.086-15.826-15.826-15.826-8.741 0-15.827 7.086-15.827 15.826 0 8.741 7.086 15.827 15.827 15.827z" fill="#14142B"/><path d="M407.087 88.683c8.951 0 16.207-7.256 16.207-16.207 0-8.95-7.256-16.206-16.207-16.206-8.95 0-16.206 7.255-16.206 16.206 0 8.95 7.256 16.207 16.206 16.207z" fill="#14142B"/><path d="M391.369 47.94c-1.974 9.307 4.781 25.604 11.879 26.492 7.098.887 8.493-16.84 2.336-24.573-6.157-7.732-12.73-8.692-14.215-1.92z" fill="#14142B"/><path d="M404.642 118.488c.851 5.125 1.304 9.923 1.684 14.903.381 4.98.453 9.905.381 14.903a120.576 120.576 0 01-3.912 30.077c-2.806 9.597-6.174 18.561-9.669 27.597l-5.433 13.436c-1.901 4.436-3.73 8.873-5.74 13.291l-6.374-2.318 3.93-13.852 4.001-13.799 3.912-13.762a373.188 373.188 0 003.621-13.617 115.954 115.954 0 002.209-27.071c0-4.618-.289-9.253-.67-13.871-.38-4.617-.869-9.362-1.43-13.726l13.49-2.191z" fill="#FFD5BD"/><path d="M391.949 104.654c-5.052 2.589-5.602 23.51-3.784 25.568 1.817 2.059 23.739 9.308 23.739 9.308s2.481-28.14-2.988-33.12c-5.468-4.979-9.561-5.541-16.967-1.756z" fill="#FFC226"/><path opacity=".2" d="M393.561 109.489l1.178 23.854 9.329 3.741-10.507-27.595z" fill="#14142B"/><path d="M378.241 226.937l-15.102 6.156 11.625 6.157s7.75-3.73 7.986-9.271l-4.509-3.042zm41.956 230.55h-13.382l-2.263-30.983h13.382l2.263 30.983zm74.261-19.973l-13.128 2.589-10.213-29.552 13.11-2.589 10.231 29.552z" fill="#FFD5BD"/><path d="M479.41 437.84l14.142-5.07a1.048 1.048 0 011.304.507l5.632 10.611a2.16 2.16 0 01-.449 2.498 2.17 2.17 0 01-.764.472c-4.962 1.684-7.443 2.245-13.672 4.472-3.821 1.359-11.1 5.433-16.388 7.244-5.287 1.81-7.424-3.242-5.432-4.491a34.787 34.787 0 0013.762-14.776 3.512 3.512 0 011.865-1.467zm-73.59 18.09h15.029a1.049 1.049 0 011.05.923l1.721 11.879a2.16 2.16 0 01-.536 1.672 2.14 2.14 0 01-.724.529 2.141 2.141 0 01-.877.189c-5.251-.09-7.768-.398-14.378-.398-4.074 0-12.476.417-18.108.417-5.631 0-5.903-5.56-3.621-6.049 10.466-2.263 14.595-5.432 18.108-8.329a3.471 3.471 0 012.336-.833z" fill="#14142B"/><path opacity=".2" d="M404.552 426.522l1.231 16.859h13.382l-1.231-16.859h-13.382zm79.693-18.56l-13.128 2.607 5.704 16.461 12.983-2.988-5.559-16.08z" fill="#14142B"/><path d="M391.949 104.654s-5.704 3.621 24.138 77.303l52.984-12.042c-5.795-21.349-8.837-34.641-8.583-81.232-7.769.154-15.515.874-23.179 2.154a172.423 172.423 0 00-24.047 5.433c-10.14 3.332-21.313 8.384-21.313 8.384z" fill="#FFC226"/><path opacity=".2" d="M460.451 95.872a21.565 21.565 0 00-8.565 12.44c-1.394 6.392 7.479 17.184 9.561 19.592-.634-8.565-.96-18.85-.996-32.032z" fill="#14142B"/><path d="M429.414 67.189c.254 8.094 1.286 19.719 7.877 23.648a57.276 57.276 0 01-16.442 26.003c-12.676-6.138-7.605-20.534-7.605-20.534 8.166-4.02 7.152-7.478 4.273-13.146l11.897-15.971z" fill="#FFD5BD"/><path opacity=".2" d="M424.561 73.707l-7.044 9.453a24.781 24.781 0 011.811 4.092c3.187-1.231 7.732-5.215 7.624-8.963a10.52 10.52 0 00-2.391-4.582z" fill="#14142B"/><path d="M428.491 47.668c3.965 12.676 5.903 17.945 2.082 26.691-5.776 13.147-22.2 15.23-29.86 4.002-6.899-10.104-12.223-29.135-1.974-38.678a18.109 18.109 0 0129.752 7.985z" fill="#FFD5BD"/><path d="M416.087 181.957s-30.422 77.465-29.553 118.245c.924 42.426 16.461 139.195 16.461 139.195h18.107s-2.879-94.233-1.285-135.882c1.811-45.414 35.057-130.377 35.057-130.377l-38.787 8.819z" fill="#407BFF"/><path d="M416.087 181.957s-30.422 77.465-29.553 118.245c.924 42.426 16.461 139.195 16.461 139.195h18.107s-2.879-94.233-1.285-135.882c1.811-45.414 35.057-130.377 35.057-130.377l-38.787 8.819z" fill="#A0A3BD"/><path d="M422.66 440.031h-21.223l-1.557-6.754 23.758-.833-.978 7.587z" fill="#14142B"/><path opacity=".2" d="M429.958 205.732c-10.358 18.344-9.435 48.258-6.646 70.802a557.542 557.542 0 0117.619-64.265c-1.449-12.168-4.618-17.8-10.973-6.537z" fill="#14142B"/><path d="M430.066 178.77s-7.243 84.727 2.101 119.114c11.027 40.833 40.525 125.506 40.525 125.506l17.891-3.531s-14.487-97.693-22.997-119.205c-18-45.903 22.2-104.718 1.539-130.739l-39.059 8.855z" fill="#407BFF"/><path d="M430.066 178.77s-7.243 84.727 2.101 119.114c11.027 40.833 40.525 125.506 40.525 125.506l17.891-3.531s-14.487-97.693-22.997-119.205c-18-45.903 22.2-104.718 1.539-130.739l-39.059 8.855z" fill="#A0A3BD"/><path d="M492.756 420.384l-22.201 4.382-3.73-6.501 25.876-6.356.055 8.475zM410.003 58.479c.38 1.014.163 2.028-.507 2.281-.67.254-1.503-.362-1.811-1.376-.308-1.014-.163-2.028.489-2.264.651-.235 1.448.363 1.829 1.359zm-11.39 4.345c.38 1.014.163 2.028-.507 2.282-.67.253-1.503-.362-1.811-1.376-.308-1.014-.163-2.028.489-2.282.652-.253 1.43.362 1.829 1.376z" fill="#14142B"/><path d="M397.037 61.394l-2.698.235s1.974 1.413 2.698-.235z" fill="#14142B"/><path d="M402.814 63.295c-.856.121-1.368 7.386-1.141 7.805.227.419 1.332.202 1.996.083.663-.12 1.793-.196 1.843-.772.049-.575-1.843-7.237-2.698-7.116z" fill="#FF97B8"/><path d="M412.52 72.259a9.535 9.535 0 01-1.431.688.326.326 0 01-.416-.181.296.296 0 01-.001-.248.312.312 0 01.182-.168 8.597 8.597 0 005.324-5.614.316.316 0 11.615.145 8.921 8.921 0 01-4.273 5.378zm-6.483-30.549c4.074 10.286 21.621 19.25 27.922 16.515 7.533-3.278 5.433-19.575-6.664-24.7-10.122-4.309-24.228.689-21.258 8.186z" fill="#14142B"/><path d="M415.67 32.838c-3.983-3.948-27.886-2.97-29.896 7.514-2.788 14.487 11.118 11.21 18.724 8.203 9.724-3.82 16.388-10.557 11.172-15.717z" fill="#14142B"/><path d="M435.299 59.62a9.724 9.724 0 01-2.933 6.808c-2.445 2.354-5.27.543-5.94-2.607-.597-2.843 0-7.479 3.079-8.638a4.347 4.347 0 015.794 4.437z" fill="#FFD5BD"/><path d="M411.125 53.625a.65.65 0 01-.724-.18 7.517 7.517 0 00-5.722-1.811.637.637 0 01-.127-1.268 8.636 8.636 0 016.791 2.282.625.625 0 01.19.452.628.628 0 01-.19.453l-.218.072zm-19.393 5.433a.618.618 0 01-.616 0 .649.649 0 01-.254-.87 6.277 6.277 0 014.781-3.259.63.63 0 01.608.358.645.645 0 01.028.485.637.637 0 01-.564.425 4.977 4.977 0 00-3.748 2.625.6.6 0 01-.235.236z" fill="#14142B"/><path d="M473.398 441.842h-.145a1.81 1.81 0 01-1.068-1.413 1.115 1.115 0 01.29-1.05c1.231-1.177 5.939-.09 6.464 0a.373.373 0 01.161.093c.044.045.076.1.093.161a.324.324 0 01-.145.326c-1.449.923-4.056 2.39-5.65 1.883zm4.654-2.028c-1.811-.381-4.491-.652-5.124 0a.454.454 0 00-.127.471 1.244 1.244 0 00.688.959c.851.326 2.517-.108 4.635-1.43h-.072z" fill="#FFC226"/><path d="M478.342 439.868c-1.594-.507-4.255-2.173-4.455-3.622a1.125 1.125 0 01.707-1.195 1.818 1.818 0 011.412 0c1.811.725 3.114 4.346 3.169 4.509a.329.329 0 010 .308.384.384 0 01-.308.109l-.525-.109zm-2.662-4.165a1.008 1.008 0 00-.797 0c-.362.199-.398.399-.362.543.127.924 2.282 2.463 3.821 2.988-.489-1.195-1.503-3.114-2.571-3.621l-.091.09zm-74.894 22.563a5.057 5.057 0 01-3.242-.815 1.805 1.805 0 01-.561-1.539 1.044 1.044 0 01.525-.851c1.648-.906 6.972 1.81 7.587 2.136a.343.343 0 01.163.326.308.308 0 01-.253.272c-1.39.284-2.802.441-4.219.471zm-2.336-2.753a1.142 1.142 0 00-.598.109.363.363 0 00-.199.344 1.08 1.08 0 00.362 1.014c.797.724 3.006.851 5.976.362a17.126 17.126 0 00-5.541-1.829z" fill="#FFC226"/><path d="M404.932 457.795h-.126c-1.594-.724-4.745-3.622-4.491-5.125 0-.362.308-.815 1.177-.887a2.223 2.223 0 011.811.543c1.684 1.395 1.992 4.998 2.01 5.143a.328.328 0 01-.127.29.367.367 0 01-.254.036zm-3.186-5.432h-.182c-.579 0-.615.289-.633.38-.145.905 1.992 3.169 3.621 4.165a7.344 7.344 0 00-1.702-4.129 1.589 1.589 0 00-1.104-.398v-.018z" fill="#FFC226"/><path d="M408.427 57.048l-2.734.2s2.01 1.448 2.734-.2z" fill="#14142B"/><path d="M469.071 166.619l2.426 4.437c.272.326 0 .796-.688.941l-54.523 12.386c-.471.109-.924 0-1.032-.326l-1.539-4.635c-.109-.308.235-.689.76-.797l53.636-12.205a1.04 1.04 0 01.96.199z" fill="#fff"/><path d="M463.113 174.297l1.449-.326c.271 0 .471-.253.398-.435l-2.064-6.011a.579.579 0 00-.634-.2l-1.43.326c-.29 0-.471.272-.417.435l2.083 6.012c.054.181.344.271.615.199zm-42.608 9.706l1.449-.326c.289 0 .471-.254.398-.435l-2.064-6.012a.525.525 0 00-.634-.199l-1.431.326c-.289 0-.47.272-.416.435l2.082 6.012c.055.199.29.199.616.199zm21.223-4.835l1.43-.326c.29 0 .471-.272.417-.435l-2.083-6.011c0-.181-.344-.272-.615-.2l-1.449.326c-.29 0-.471.254-.398.435l2.064 6.012a.574.574 0 00.634.199z" fill="#14142B"/><path d="M358.015 241.749l10.665 2.644 6.084-5.143-11.625-6.157-5.124 8.656zm85.125-87.642l-10.412-9.942-.905 13.581s7.243 4.618 12.096 1.92l-.779-5.559z" fill="#FFD5BD"/><path d="M469.07 101.032c.471.598.707.942 1.033 1.395l.869 1.249a95.504 95.504 0 011.575 2.499c.99 1.666 1.932 3.35 2.825 5.052a121.64 121.64 0 014.599 10.376c1.395 3.495 2.554 7.08 3.622 10.665.525 1.811.96 3.622 1.412 5.433l.182.688.199.869c.177.78.286 1.574.326 2.372a12.68 12.68 0 01-.833 5.125 14.747 14.747 0 01-5.65 6.7 27.39 27.39 0 01-6.066 2.951 55.936 55.936 0 01-11.499 2.535 111.61 111.61 0 01-22.254.399v-6.773c3.404-.416 6.935-.851 10.339-1.448 3.405-.598 6.845-1.195 10.123-2.028a55.119 55.119 0 009.198-3.115 16.426 16.426 0 003.423-2.028c.869-.706 1.177-1.34 1.104-1.43-.072-.091 0 0 0-.163l-.434-1.304c-.543-1.63-1.087-3.26-1.702-4.853-1.105-3.241-2.463-6.392-3.767-9.507a92.978 92.978 0 00-4.4-9.054 82.78 82.78 0 00-2.408-4.328 56.597 56.597 0 00-1.286-2.046l-.616-.978-.543-.778 10.629-8.475z" fill="#FFD5BD"/><path d="M460.469 88.682c11.318.204 17.149 15.636 16.189 17.239-.961 1.604-13.479 17.639-16.116 17.456-2.638-.182-12.096-11.607-11.39-19.049.67-7.588 0-15.85 11.317-15.646z" fill="#FFC226"/><path d="M428.319 143.618a6.217 6.217 0 00-2.536 12.105l6.04 1.933.905-13.581-4.409-.457z" fill="#FFD5BD"/><path d="M640.154 320.41h-82.825a5.433 5.433 0 110-10.865h82.825c1.441 0 2.823.573 3.842 1.591a5.437 5.437 0 010 7.683 5.433 5.433 0 01-3.842 1.591z" fill="#407BFF"/><path opacity=".8" d="M640.154 320.41h-82.825a5.433 5.433 0 110-10.865h82.825c1.441 0 2.823.573 3.842 1.591a5.437 5.437 0 010 7.683 5.433 5.433 0 01-3.842 1.591z" fill="#A0A3BD"/><path d="M533.119 459.135h-13.418l-7.805-31.073h13.418l7.805 31.073z" fill="#FFD5BD"/><path d="M518.759 455.876h15.084a.958.958 0 01.909.558.981.981 0 01.087.365l.724 11.933a2.39 2.39 0 01-2.354 2.39c-5.251-.09-7.75-.398-14.378-.398-4.092 0-21.44.417-27.162.417-5.722 0-5.432-5.578-3.078-6.085 10.702-2.263 23.975-5.432 27.759-8.348a3.785 3.785 0 012.409-.832z" fill="#14142B"/><path opacity=".2" d="M525.332 428.062h-13.436l4.038 16.025h13.418l-4.02-16.025z" fill="#14142B"/><path d="M568.809 257.575s-109.245 7.479-106.982 45.94c2.391 42.083 48.331 136.733 48.331 136.733h24.59s-22.291-80.471-27.669-123.333c26.057-10.865 96.733-.453 105.026-22.961a73.795 73.795 0 003.115-36.342l-46.411-.037z" fill="#407BFF"/><path opacity=".3" d="M508.329 326.277c-.308-1.92-.58-3.803-.833-5.614-.181-1.285-.362-2.553-.507-3.784a64.9 64.9 0 0115.192-3.73c-1.81-12.35-4.273-23.722-4.273-23.722-12.676 0-26.963 21.73-7.986 46.139a204.575 204.575 0 01-.869-4.943c-.253-1.467-.489-2.934-.724-4.346z" fill="#14142B"/><path d="M536.732 437.76a2 2 0 01-1.948 2.452h-28.317a1.999 1.999 0 01-1.934-1.492l-1.791-6.826a2 2 0 011.776-2.501l28.006-2.227a2 2 0 012.107 1.541l2.101 9.053z" fill="#14142B"/><path d="M513.996 458.211a17.4 17.4 0 003.622-.47.36.36 0 00.235-.254.34.34 0 00-.126-.308c-.435-.308-4.238-2.897-5.867-2.263a1.273 1.273 0 00-.743.887 1.81 1.81 0 00.399 1.702 3.62 3.62 0 002.48.706zm2.717-.923c-2.391.471-4.165.398-4.799-.217a1.164 1.164 0 01-.217-1.123.55.55 0 01.112-.265.552.552 0 01.232-.17c.887-.344 3.114.779 4.672 1.775z" fill="#407BFF"/><path d="M517.509 457.741a.24.24 0 00.145 0 .33.33 0 00.163-.254c0-.163.308-4.02-1.032-5.324a1.638 1.638 0 00-1.34-.434 1.195 1.195 0 00-1.123.941c-.307 1.467 1.684 4.274 3.024 5.071h.163zm-1.81-5.433a.98.98 0 01.688.272 7.025 7.025 0 01.869 4.255c-1.159-.978-2.499-3.114-2.3-4.074 0-.181.145-.398.598-.453h.145z" fill="#407BFF"/><path d="M582.861 155.555c-2.046 5.632-4.273 11.137-6.464 16.678a549.972 549.972 0 01-6.863 16.514c-4.69 10.992-9.598 21.874-15.03 32.721l-.779 1.539-.796.815a56 56 0 01-13.074 9.742 66.642 66.642 0 01-14.487 5.74 81.122 81.122 0 01-14.812 2.572c-2.481.217-4.943.271-7.406.271a68.269 68.269 0 01-7.551-.416l.199-10.086c1.901-.29 4.183-.67 6.265-1.105 2.083-.434 4.238-.978 6.32-1.539a85.31 85.31 0 0012.006-4.165A60.36 60.36 0 00531 218.987a42.911 42.911 0 008.384-7.605l-1.576 2.354c4.491-10.684 8.747-21.729 13.056-32.594l6.465-16.46 6.537-16.406 18.995 7.279z" fill="#FFD5BD"/><path d="M561.421 150.702c-10.865 12.531-17.167 26.259-18.108 30.059-.807 3.262 20.793 13.584 26.932 16.444.955.445 2.071.185 2.695-.663 8.029-10.913 17.454-35.601 17.852-44.174.634-13.78-17.601-15.156-29.371-1.666z" fill="#14142B"/><path opacity=".3" d="M571.489 163.486c-6.229 5.234-10.647 16.117-12.585 26.673l12.929 7.787c4.074-4.962 8.656-13.961 12.295-22.907-2.915-8.873-7.134-16.188-12.639-11.553z" fill="#14142B"/><path d="M586.103 450.715l-13.056 3.078-13.129-28.846 13.074-3.078 13.111 28.846z" fill="#FFD5BD"/><path d="M570.801 450.19l14.142-5.216a.999.999 0 011.268.526l4.799 10.864a2.517 2.517 0 01-1.377 3.061c-4.635 2.462-7.243 2.625-13.635 4.599-2.807.851-9.941 6.772-18.198 6.772h-7.244c-4.273 0-4.852-4.563-2.48-5.197 11.462-3.06 18.252-9.796 20.788-13.906a3.612 3.612 0 011.937-1.503z" fill="#14142B"/><path opacity=".2" d="M572.992 421.869l-13.074 3.078 6.773 14.867 13.074-3.079-6.773-14.866z" fill="#14142B"/><path d="M595.102 257.575s-88.512 7.479-86.339 45.904c2.39 42.083 51.372 133.908 51.372 133.908l23.921-5.631s-25.351-77.176-30.783-120.02c24.952 0 76.705 4.69 85.107-17.818a73.787 73.787 0 003.114-36.343h-46.392z" fill="#407BFF"/><path d="M586.17 429.194a2.001 2.001 0 01-1.488 2.405l-27.756 6.54a2 2 0 01-2.366-1.344l-2.175-6.878a2 2 0 011.343-2.522l27.921-8.208a2 2 0 012.511 1.461l2.01 8.546z" fill="#14142B"/><path d="M567.143 454.101a17.428 17.428 0 003.187-1.684.328.328 0 00.145-.308.305.305 0 00-.235-.253c-.507-.127-4.962-1.268-6.284-.091a1.192 1.192 0 00-.38 1.086 1.669 1.669 0 00.96 1.449c.863.261 1.793.19 2.607-.199zm2.228-1.811c-2.083 1.268-3.767 1.811-4.582 1.449a1.141 1.141 0 01-.597-.978.598.598 0 01.181-.525c.67-.634 3.187-.344 4.998.054z" fill="#407BFF"/><path d="M570.276 452.453a.273.273 0 00.109-.09.299.299 0 000-.29c0-.163-1.087-3.893-2.807-4.636a1.525 1.525 0 00-1.394 0 1.21 1.21 0 00-.743 1.286c.217 1.485 3.06 3.422 4.6 3.712l.235.018zm-3.622-4.473a.942.942 0 01.363-.074c.124 0 .247.026.362.074 1.032.453 1.811 2.499 2.299 3.622-1.43-.507-3.422-2.046-3.621-3.024 0-.181 0-.417.398-.634l.199.036z" fill="#407BFF"/><path d="M498.188 231.373s-13.561-3.523-15.156-3.096c-1.595.426 1.901 14.74 1.901 14.74s14.668.633 15.772-3.839l-2.517-7.805z" fill="#FFD5BD"/><path d="M473.885 234.935a3.558 3.558 0 00-.967 4.034l3.034 7.542 8.981-3.494s-.183-14.746-1.901-14.74c-1.224.004-6.317 4.228-9.147 6.658z" fill="#FFD5BD"/><path d="M568.882 258.245h71.798c.507-6.41-.978-27.27.127-53.835a341.055 341.055 0 017.134-58.561c.326-1.448-.344-2.517 0-3.965a35.852 35.852 0 00-7.859-1.811c-4.327-.634-9.76-1.286-15.084-1.539a267.724 267.724 0 00-30.511 0c-4.69.434-9.272 1.213-12.93 1.919-4.671.942-7.424 1.811-7.424 1.811s-17.691 40.507-5.251 115.981z" fill="#14142B"/><path opacity=".3" d="M640.807 204.429a341.054 341.054 0 017.134-58.562c-4.798-.416-13.001 0-14.359 7.805-1.54 8.33.38 27.922 7.225 50.757z" fill="#14142B"/><path d="M659.421 167.325c-1.684-5.197-3.313-10.194-5.432-15.428l-19.032 7.461a661.615 661.615 0 014.89 14.323 391.328 391.328 0 014.436 14.487 208.95 208.95 0 013.622 14.486c1.044 4.658 2.03 10.434 2.408 15.193a16.473 16.473 0 01-3.893 3.422 85.188 85.188 0 01-12.567 6.682c-4.545 2.136-9.344 3.911-14.088 5.758s-9.688 3.567-14.486 5.233l2.082 9.869a182.388 182.388 0 0031.906-6.374 86.968 86.968 0 0016.044-6.446 34.435 34.435 0 008.456-6.229 18.262 18.262 0 004.002-6.483c.524-1.534.799-3.142.815-4.762v-2.21c.054-3.024-.036-5.939-.362-8.746-.326-2.806-.634-5.649-1.087-8.366-.833-5.541-2.01-10.901-3.295-16.206a214.054 214.054 0 00-4.419-15.664z" fill="#FFD5BD"/><path d="M647.941 141.902c-13.074-4.129-20.444 5.957-16.823 24.083a118.866 118.866 0 0011.397 31.154 2.293 2.293 0 003.011.978l22.89-10.864a2.307 2.307 0 001.297-2.425c-2.646-17.479-8.812-38.84-21.772-42.926z" fill="#14142B"/><path d="M624.962 107.949l-8.167 6.773-11.118 9.235c.33 1.48.565 2.98.706 4.491.598 6.03-4.291 8.836-10.448 9.995 0 0-8.728 8.149 8.728 8.402 17.456.254 21.512-8.221 21.512-8.221-6.645-6.609-3.477-20.896-1.213-30.675z" fill="#FFD5BD"/><path d="M624.491 138.516a53.004 53.004 0 01-18.796 8.257c2.664 2.65 4.594 8.309 5.317 10.684.184.603.792.968 1.395.786 4.022-1.218 17.924-6.367 18.512-19.51a14.707 14.707 0 00-3.133-.996 4.345 4.345 0 00-3.295.779z" fill="#407BFF"/><path d="M597.311 138.878c-.434 2.137 0 6.048 8.384 7.895-3.632 2.09-5.802 6.621-6.769 9.12-.309.799-1.327 1.073-1.916.452-2.875-3.032-9.098-10.871-4.371-17.847a14.604 14.604 0 013.423-1.015 1.105 1.105 0 011.249 1.395z" fill="#407BFF"/><path opacity=".2" d="M605.677 123.903c.329 1.48.565 2.98.706 4.49 6.881-1.05 11.336-5.124 11.915-9.343.217-1.594-1.394-3.278-1.503-4.382l-11.118 9.235z" fill="#14142B"/><path d="M595.211 103.187c-6.374-4.726-9.779-14.83-6.99-20.896a7.966 7.966 0 0114.305-.634c4.582 7.66-.072 26.908-7.315 21.53z" fill="#14142B"/><path d="M625.523 90.584c.109 13.364.869 21.15-5.342 28.665a17.364 17.364 0 01-30.168-5.976c-3.621-11.625-3.259-31.508 9.308-38.153a17.582 17.582 0 0126.202 15.464z" fill="#FFD5BD"/><path d="M620.906 101.213c-4.817-6.32-5.27-16.967-.887-22.02a7.945 7.945 0 017.973-2.59 7.943 7.943 0 015.861 5.995c2.336 8.583-7.497 25.786-12.947 18.615z" fill="#14142B"/><path d="M591.372 80.299c-4.038-2.427 5.287-10.63 17.384-14.215 13.508-4.002 30.584 6.5 31.417 15.609.869 9.597-5.614 4.925-6.628 7.931 0 0-33.898-4.346-42.173-9.325z" fill="#407BFF"/><path d="M587.28 83.648a9.321 9.321 0 012.281-5.269c.688-.634 40.743 7.442 44.908 11.028.778.67-2.028 6.392-2.644 5.65-4.382-5.216-44.382-9.96-44.545-11.409z" fill="#407BFF"/><path opacity=".3" d="M587.28 83.648a9.321 9.321 0 012.281-5.269c.688-.634 40.743 7.442 44.908 11.028.778.67-2.028 6.392-2.644 5.65-4.382-5.216-44.382-9.96-44.545-11.409z" fill="#14142B"/><path d="M629.851 98.19a.452.452 0 00.199 0 .452.452 0 00.145-.616c-2.155-3.531-16.931-4.727-18.597-4.853a61.167 61.167 0 00-14.287.941 4.182 4.182 0 00-3.621.344 42.996 42.996 0 00-9.272.906.453.453 0 00-.272.706.454.454 0 00.471.181 42.285 42.285 0 019.163-.887.56.56 0 00.235 0 3.262 3.262 0 012.952-.326c.1.036.208.036.308 0a58.593 58.593 0 0114.178-.96c4.437.326 16.298 1.81 17.891 4.418a.47.47 0 00.507.145z" fill="#14142B"/><path d="M605.605 105.125h.434a6.255 6.255 0 004.582-2.753c2.281-3.531.742-9.054.688-9.235a.237.237 0 00-.29-.163.238.238 0 00-.145.29s1.539 5.432-.634 8.873a5.72 5.72 0 01-4.273 2.535 5.598 5.598 0 01-4.618-1.177c-3.331-2.807-3.621-9.344-3.621-9.398a.236.236 0 00-.236-.236.252.252 0 00-.217.236c0 .271.217 6.808 3.712 9.742a5.988 5.988 0 004.618 1.286zm-16.026 1.159a4.86 4.86 0 003.622-1.811c2.444-3.26.923-9.452.869-9.706a.236.236 0 00-.453.109s1.539 6.247-.778 9.325a4.47 4.47 0 01-3.622 1.811 3.092 3.092 0 01-2.517-1.032c-2.408-2.662-1.521-9.507-1.521-9.58a.228.228 0 00-.002-.085.215.215 0 00-.179-.167.218.218 0 00-.254.18c0 .29-.923 7.243 1.63 9.96a3.631 3.631 0 002.861 1.177l.344-.181z" fill="#14142B"/><path d="M630.231 101.92a11.912 11.912 0 01-6.012 5.921c-3.458 1.448-5.287-1.612-4.436-5.197.779-3.223 3.513-7.84 7.026-7.787 3.513.055 4.961 3.767 3.422 7.063z" fill="#FFD5BD"/><path d="M603.975 96.704c0 1.069-.435 2.01-1.141 2.083-.706.072-1.322-.743-1.412-1.81-.091-1.07.434-2.029 1.14-2.101.707-.073 1.34.742 1.413 1.828zm-12.169 1.286c0 1.069-.434 2.01-1.141 2.083-.706.072-1.34-.743-1.412-1.811-.072-1.069.435-2.01 1.141-2.083.706-.072 1.34.725 1.412 1.811z" fill="#14142B"/><path d="M595.982 98.534c-.525-.06-3.519 9.62-3.424 10.049.095.429 1.518.612 2.325.627.806.016 2.097.172 2.342-.536.245-.709-.719-10.082-1.243-10.14z" fill="#FF97B8"/><path d="M602.78 110.485a9.364 9.364 0 003.418-1.501 9.37 9.37 0 002.558-2.719.345.345 0 00-.127-.434.326.326 0 00-.435.145 8.942 8.942 0 01-6.736 4.074.328.328 0 00-.235.478.317.317 0 00.187.147c.039.011.08.014.12.009a9.085 9.085 0 001.25-.199zm6.7-19.014a.62.62 0 00.383-.51.613.613 0 00-.275-.576 6.186 6.186 0 00-5.686-.87.633.633 0 00.004 1.172.65.65 0 00.485.005 4.91 4.91 0 014.455.725.58.58 0 00.634.054zm-23.106 2.173a.654.654 0 00.543-.235 5.323 5.323 0 014.147-2.21.63.63 0 00.608-.357.645.645 0 00.028-.485.636.636 0 00-.564-.425 6.534 6.534 0 00-5.215 2.698.614.614 0 00.127.887.47.47 0 00.326.127z" fill="#14142B"/><path d="M608.647 238.327c-.718.056-11.112-5.584-11.112-5.584-.173.907-.459 14.638-.459 14.638s11.009 5.233 13.237-.67c0 0-.949-8.44-1.666-8.384z" fill="#FFD5BD"/><path d="M586.333 233.824c-1.968.732-3.144 2.672-3.111 4.771l.146 9.401 13.708-.742s5.076-12.096.47-14.505c-2.929-1.531-7.948-.141-11.213 1.075z" fill="#FFD5BD"/><path d="M649.064 475.975h-10.865V268.82c0-4.322-1.717-8.467-4.774-11.523a16.293 16.293 0 00-11.523-4.774H188.633a16.295 16.295 0 00-16.297 16.297v207.155h-10.865V268.82a27.166 27.166 0 0127.162-27.162h433.269a27.162 27.162 0 0127.162 27.162v207.155z" fill="#14142B"/><path opacity=".7" d="M649.064 475.975h-10.865V268.82c0-4.322-1.717-8.467-4.774-11.523a16.293 16.293 0 00-11.523-4.774H188.633a16.295 16.295 0 00-16.297 16.297v207.155h-10.865V268.82a27.166 27.166 0 0127.162-27.162h433.269a27.162 27.162 0 0127.162 27.162v207.155z" fill="#A0A3BD"/><path d="M610.077 475.975h-10.865V268.82a16.296 16.296 0 00-16.297-16.297H149.647a16.293 16.293 0 00-11.524 4.774 16.293 16.293 0 00-4.774 11.523v207.155h-10.864V268.82a27.162 27.162 0 0127.162-27.162h433.268a27.163 27.163 0 0127.162 27.162v207.155z" fill="#14142B"/><path d="M610.077 475.975h-10.865V268.82a16.296 16.296 0 00-16.297-16.297H149.647a16.293 16.293 0 00-11.524 4.774 16.293 16.293 0 00-4.774 11.523v207.155h-10.864V268.82a27.162 27.162 0 0127.162-27.162h433.268a27.163 27.163 0 0127.162 27.162v207.155z" fill="#6E7191"/><path d="M373.243 237.258h-93.328a5.558 5.558 0 01-5.432-4.853l-6.23-58.778a4.273 4.273 0 014.328-4.835h93.329a5.538 5.538 0 015.432 4.835l6.229 58.778a4.281 4.281 0 01-1.052 3.419 4.293 4.293 0 01-3.276 1.434z" fill="#14142B"/><path opacity=".2" d="M373.243 237.258h-93.328a5.558 5.558 0 01-5.432-4.853l-6.23-58.778a4.273 4.273 0 014.328-4.835h93.329a5.538 5.538 0 015.432 4.835l6.229 58.778a4.281 4.281 0 01-1.052 3.419 4.293 4.293 0 01-3.276 1.434z" fill="#A0A3BD"/><path d="M370.654 237.258h-93.31a5.52 5.52 0 01-5.433-4.853l-6.247-58.778a4.285 4.285 0 011.059-3.406 4.285 4.285 0 013.269-1.429h93.328a5.524 5.524 0 015.433 4.835L375 232.405a4.308 4.308 0 01-4.346 4.853z" fill="#A0A3BD"/><path d="M374.909 236.824h-93.256a4.852 4.852 0 00-4.852 4.834h103.016a4.859 4.859 0 00-3.038-4.482 4.829 4.829 0 00-1.87-.352z" fill="#6E7191"/><path d="M406.906 236.824h-33.337a4.849 4.849 0 00-4.834 4.834h43.024a4.852 4.852 0 00-4.853-4.834z" fill="#14142B"/><path opacity=".2" d="M406.906 236.824h-33.337a4.849 4.849 0 00-4.834 4.834h43.024a4.852 4.852 0 00-4.853-4.834z" fill="#A0A3BD"/><path d="M51.28 98.524a4.192 4.192 0 010-4.318c.224-.363.434-.727.63-1.104.195-.377.405-.769.586-1.146a4.192 4.192 0 013.563-2.403l.598-.019a4.715 4.715 0 004.564-4.862l-.248-7.858a4.715 4.715 0 00-4.849-4.564l-.637.018a4.039 4.039 0 01-3.69-2.18c-.404-.726-.852-1.397-1.327-2.137a4.192 4.192 0 01-.307-4.332l.283-.528a4.715 4.715 0 00-1.911-6.374l-6.91-3.74a4.715 4.715 0 00-6.4 1.919l-.265.493a4.192 4.192 0 01-3.772 2.152 21.764 21.764 0 00-2.53.084 4.192 4.192 0 01-3.856-1.873l-.314-.51a4.715 4.715 0 00-6.502-1.536L11.32 57.84a4.715 4.715 0 00-1.527 6.484l.323.524a4.052 4.052 0 010 4.192c-.223.39-.447.768-.656 1.173-.21.406-.42.797-.615 1.202a4.066 4.066 0 01-3.535 2.347l-.581.017a4.715 4.715 0 00-4.577 4.865l.255 7.889a4.715 4.715 0 004.862 4.56l.586-.018a4.037 4.037 0 013.688 2.096c.426.8.893 1.58 1.398 2.333a4.024 4.024 0 01.237 4.192l-.274.512a4.715 4.715 0 001.928 6.383l6.933 3.718a4.716 4.716 0 006.384-1.928l.274-.51a4.19 4.19 0 013.773-2.138 25.13 25.13 0 002.515-.084 4.097 4.097 0 013.87 1.886l.31.503a4.715 4.715 0 006.502 1.529l6.639-4.125a4.716 4.716 0 001.501-6.518l-.252-.401zM25.71 94.96a14.169 14.169 0 1110.017-26.508A14.169 14.169 0 0125.71 94.96zM64.066 24.9a3.719 3.719 0 00-1.364 5.083l2.35 4.065a3.692 3.692 0 005.05 1.346 2.893 2.893 0 013.019.097 14.85 14.85 0 001.579.909 2.907 2.907 0 011.593 2.557 3.717 3.717 0 003.717 3.716h4.68a3.717 3.717 0 003.717-3.716A2.88 2.88 0 0190 36.4c.54-.27 1.063-.574 1.565-.909a2.892 2.892 0 013.018-.097 3.708 3.708 0 005.069-1.358l2.335-4.051a3.723 3.723 0 00-1.367-5.085 2.89 2.89 0 01-1.398-2.669v-1.789a2.795 2.795 0 011.398-2.654 3.742 3.742 0 001.364-5.106l-2.326-4.034a3.727 3.727 0 00-5.089-1.368 2.893 2.893 0 01-3.018-.098c-.5-.33-1.018-.632-1.55-.908a2.795 2.795 0 01-1.594-2.557A3.717 3.717 0 0084.691 0H80.01a3.717 3.717 0 00-3.717 3.717A2.878 2.878 0 0174.7 6.274c-.539.272-1.061.576-1.565.908a2.892 2.892 0 01-3.018.098 3.711 3.711 0 00-5.072 1.356l-2.343 4.054a3.719 3.719 0 001.364 5.084 2.878 2.878 0 011.398 2.668v1.79a2.878 2.878 0 01-1.398 2.669zm8.356-3.563a9.921 9.921 0 110 .042v-.042z" fill="#FFC226"/><path d="M489.821 4.268c-19.802 0-35.91 13.03-35.91 29.036a26.276 26.276 0 0010.465 20.52 7.55 7.55 0 01-.944 5.761 7.542 7.542 0 01-4.767 3.37 1.71 1.71 0 00-.992.616 2.738 2.738 0 00-.41 2.565 3.693 3.693 0 003.078 2.086c1.185.21 2.387.313 3.591.308a27.361 27.361 0 0017.1-7.045c2.882.586 5.814.884 8.755.889 19.802 0 35.91-13.03 35.91-29.036s-16.074-29.07-35.876-29.07z" fill="#6A35FF"/><g filter="url(#filter0_d)"><path d="M491.863 6.812c-16.764 0-30.401 11.03-30.401 24.581a22.242 22.242 0 008.859 17.372 6.38 6.38 0 01-.799 4.878c-.449.72-1.038 4.342-1.731 4.832a6.396 6.396 0 01-2.304 1.02c-.333.07-.63.255-.84.522a2.323 2.323 0 00-.347 2.171 3.122 3.122 0 002.605 1.767c1.004.177 2.021.264 3.041.26 5.371-.247 10.489-5.356 14.476-8.964a37.43 37.43 0 007.412.753c16.764 0 30.401-11.032 30.401-24.582s-13.608-24.61-30.372-24.61z" fill="#6A35FF" fill-opacity=".4"/></g><path d="M501.804 33.33a3.48 3.48 0 004.158 3.433 3.488 3.488 0 002.742-2.741 3.487 3.487 0 00-1.492-3.579 3.486 3.486 0 00-1.942-.58 3.467 3.467 0 00-3.466 3.467zm-15.483 0a3.481 3.481 0 002.143 3.23 3.483 3.483 0 101.324-6.697 3.471 3.471 0 00-3.203 2.14 3.47 3.47 0 00-.264 1.327zm-15.482 0a3.488 3.488 0 002.143 3.23 3.482 3.482 0 101.324-6.697 3.465 3.465 0 00-3.467 3.467z" fill="#fff"/><defs><filter id="filter0_d" x="450.512" y="3.162" width="82.672" height="79.303" filterUnits="userSpaceOnUse" color-interpolation-filters="sRGB"><feFlood flood-opacity="0" result="BackgroundImageFix"/><feColorMatrix in="SourceAlpha" values="0 0 0 0 0 0 0 0 0 0 0 0 0 0 0 0 0 0 127 0"/><feOffset dy="7.3"/><feGaussianBlur stdDeviation="5.475"/><feColorMatrix values="0 0 0 0 0.415686 0 0 0 0 0.207843 0 0 0 0 1 0 0 0 0.17 0"/><feBlend in2="BackgroundImageFix" result="effect1_dropShadow"/><feBlend in="SourceGraphic" in2="effect1_dropShadow" result="shape"/></filter></defs></svg>