<svg width="255" height="516" fill="none" xmlns="http://www.w3.org/2000/svg"><path d="M213.309 110.143l16.774-11.644s1.61-8.214 3.682-10.143c2.847-2.048 14.48-7.18 18.48-5.762 3.139 1.342 3.126 18.01 0 18.854-3.127.845-15.633 4.723-15.633 4.723l-17.899 14.49-5.404-10.518z" fill="#FFD5BD"/><path d="M109.185 113.842s.75.699 1.994 1.943c2.933 2.864 9.513 8.643 16.332 14.831 13.637 11.183 30.463 23.679 40.913 22.724 18.752-1.705 59.665-34.93 59.665-34.93l-7.706-14.149s-29.798 19.809-47.698 23.969c-17.899 4.159-46.879-49.335-60.79-53.068l-2.71 38.68z" fill="#FF3951"/><path d="M218.235 103.248a1 1 0 00-.474 1.356l8.141 16.224a1 1 0 001.726.106l2.132-3.199a.998.998 0 00.061-1.004l-7.263-14.419a1 1 0 00-1.313-.457l-3.01 1.393z" fill="#14142A"/><path opacity=".2" d="M111.128 115.785a324.561 324.561 0 0016.28 14.831c-3.307-15.104-13.825-27.565-13.825-27.565l-2.455 12.734z" fill="#14142B"/><path d="M109.645 502.568l13.826 1.449 2.591-29.816-13.825-1.466-2.592 29.833zm-69.007-1.006h13.4l1.108-31.043H41.728l-1.09 31.043z" fill="#FFD5BD"/><path d="M55.913 500.01h-16.28c-.546 0-1.023.375-1.143.921l-2.642 11.933a2.015 2.015 0 001.603 2.353c.119.017.238.034.358.034 5.267-.086 9.103-.41 15.717-.41 4.074 0 16.365.427 21.99.427 5.626 0 6.36-5.558 4.058-6.069-10.33-2.25-18.104-5.37-21.411-8.336a3.225 3.225 0 00-2.25-.853z" fill="#2E353A"/><path d="M60.328 502.363a4.053 4.053 0 002.574-.682c.494-.426.75-1.057.665-1.705a.936.936 0 00-.546-.886c-1.483-.767-5.813 1.892-6.29 2.199a.266.266 0 00-.154.307.33.33 0 00.239.273 16.19 16.19 0 003.512.494zm1.994-2.779a.681.681 0 01.41.086c.084 0 .187.119.204.375.051.426-.102.852-.426 1.142a6.504 6.504 0 01-4.773.238 12.798 12.798 0 014.585-1.841z" fill="#FF3951"/><path d="M56.901 501.885h.154c1.38-.75 4.057-3.699 3.784-5.114a1.04 1.04 0 00-1.023-.835 1.688 1.688 0 00-1.347.409c-1.55 1.261-1.875 5.114-1.892 5.302 0 .119.051.221.154.289a.287.287 0 00.17-.051zm2.694-5.438h.153c.41 0 .443.239.46.324.17.87-1.534 3.103-2.915 4.143a7.517 7.517 0 011.586-4.194 1.07 1.07 0 01.716-.273z" fill="#FF3951"/><path d="M124.937 499.584h-16.28c-.546 0-1.023.375-1.143.92l-2.642 11.933a2.015 2.015 0 001.602 2.353c.12.017.239.034.358.034 5.268-.085 9.104-.409 15.718-.409 4.074 0 16.365.426 21.991.426 5.625 0 6.358-5.557 4.057-6.069-10.331-2.25-18.104-5.37-21.411-8.336a3.23 3.23 0 00-2.25-.852z" fill="#2E353A"/><path d="M129.369 501.937a4.053 4.053 0 002.574-.682c.494-.426.75-1.057.665-1.705a.936.936 0 00-.546-.886c-1.483-.767-5.813 1.892-6.29 2.199a.265.265 0 00-.153.307.33.33 0 00.238.273c1.142.289 2.319.46 3.512.494zm1.994-2.83a.69.69 0 01.41.085c.085 0 .187.12.204.375.051.427-.102.853-.426 1.143a6.504 6.504 0 01-4.773.238 12.8 12.8 0 014.585-1.841z" fill="#FF3951"/><path d="M125.942 501.459h.154c1.381-.75 4.057-3.699 3.784-5.114a1.04 1.04 0 00-1.023-.835 1.687 1.687 0 00-1.346.409c-1.552 1.261-1.875 5.114-1.892 5.302 0 .119.051.221.153.289a.287.287 0 00.17-.051zm2.694-5.438h.153c.409 0 .443.239.461.324.17.87-1.535 3.103-2.916 4.143a7.52 7.52 0 011.586-4.194c.187-.17.443-.273.716-.273z" fill="#FF3951"/><path opacity=".2" d="M112.237 472.735l13.825 1.466-1.347 15.377-13.825-1.449 1.347-15.394zm-70.507-2.199h13.416l-.58 16.007H41.15l.58-16.007z" fill="#14142B"/><path d="M47.27 198.225h71.121c6.818 36.924 27.923 167.607 12.734 284.056l-24.071-2.983s2.233-154.583-19.024-211.725c-2.455 30.582-5.353 63.074-7.876 80.428-6.188 42.618-19.434 135.763-19.434 135.763H36.206s5.012-89.156 7.33-131.041c2.54-45.465 3.632-145.122 3.734-154.498z" fill="#4E4B66"/><path opacity=".2" d="M88.03 267.573a191.429 191.429 0 017.944 30.77c1.994-27.276-5.967-56.085-5.967-56.085l-1.978 25.315z" fill="#14142B"/><path d="M134.32 486.119a2 2 0 01-2.237 1.503l-26.092-3.881a2 2 0 01-1.694-2.196l.472-4.308a2 2 0 012.248-1.765l26.768 3.502a2 2 0 011.683 2.459l-1.148 4.686zm-70.442-3.914a2 2 0 01-1.986 1.764H36.757a2 2 0 01-2-2v-4.68a2 2 0 011.963-2l25.747-.482a2 2 0 012.023 2.235l-.612 5.163z" fill="#D9DBE9"/><path d="M118.987 199.077H47.389v8.524l72.519-.886-.921-7.638z" fill="#14142B"/><path d="M71.403 195.242h.557a1 1 0 011 1v13.138a1 1 0 01-1 1h-.557a1 1 0 01-1-1v-13.138a1 1 0 011-1zm36.225 0h.557a1 1 0 011 1v13.138a1 1 0 01-1 1h-.557a1 1 0 01-1-1v-13.138a1 1 0 011-1z" fill="#6E7191"/><path d="M88.342 197.594h9.246a2 2 0 012 2v5.547a2 2 0 01-2 2h-9.246a2 2 0 01-2-2v-5.547a2 2 0 012-2z" fill="#fff"/><path d="M111.895 75.162s-45.243-2.13-78.945 6.376c0 0 14.882 74.922 14.32 117.54h71.717s4.654-79.934-7.092-123.916z" fill="#FF3951"/><path d="M87.151 80.84a1 1 0 01.923 1.197l-1.62 8.012a.908.908 0 00.002.41c.765 3.212 10.8 45.574 13.136 68.385a.976.976 0 01-.291.798l-3.102 3.075a1 1 0 01-1.24.134l-5.125-3.254a1.003 1.003 0 01-.465-.832c-.082-5.308-.89-48.284-5.98-67.348a.962.962 0 00-.328-.501l-8.225-6.736a1 1 0 01.325-1.724l5.854-1.9a.987.987 0 01.366-.047l5.77.332zm10.851-66.724s2.796 18.462-7.006 25.57c-9.802 7.11-9.802-27.275-9.802-27.275l16.808 1.705z" fill="#14142B"/><path d="M58.675 76.764c6.529 5.933 22.519 3.733 22.519 3.733s9.99-2.727 7.893-5.847c-5.882-.971-8.728-3.716-9.905-7.228a16.899 16.899 0 01-.596-6.716c.102-1.262.255-2.506.494-3.75L59.322 42.243c2.575 9.734 5.745 27.514-.647 34.52z" fill="#FFD5BD"/><path opacity=".2" d="M63.874 51.62c.784 11.933 10.535 15.138 15.342 15.803a16.899 16.899 0 01-.596-6.717L63.874 51.62z" fill="#14142B"/><path d="M62.544 54.364A16.742 16.742 0 0081.79 60.86a18.686 18.686 0 0010.655-8.677 19.9 19.9 0 00.886-1.704c4.825-11.286 6.359-31.026-5.574-38.425-8.507-5.335-19.724-2.778-25.06 5.728a18.158 18.158 0 00-2.693 7.91c-1.466 13.143-2.949 20.866 2.54 28.673z" fill="#FFD5BD"/><path d="M79.233 32.731c-.256 1.04.239 2.012.938 2.131.699.12 1.415-.648 1.602-1.705.188-1.056-.255-2.011-.937-2.13-.682-.12-1.398.613-1.603 1.704zm12.052 2.046c-.255 1.04.24 2.029.938 2.148.699.12 1.398-.665 1.585-1.705.188-1.04-.238-2.028-.937-2.148-.699-.119-1.415.648-1.585 1.705z" fill="#14142B"/><path d="M87.365 34.658a39.274 39.274 0 003.528 9.972 6.23 6.23 0 01-5.284 0l1.756-9.972z" fill="#FF97B8"/><path d="M76.165 28.18a.685.685 0 00.648-.136c1.142-1.142 2.761-1.654 4.364-1.415a.63.63 0 00.767-.46.63.63 0 00-.46-.767 6.288 6.288 0 00-5.524 1.704c-.238.239-.255.631-.017.87l.017.017a.73.73 0 00.205.187zm6.785 21.752a9.695 9.695 0 01-7.893-4.296.31.31 0 01.102-.443l.017-.017a.328.328 0 01.443.102 9.313 9.313 0 007.348 3.955c.17.017.306.154.323.324 0 .17-.153.324-.323.324l-.017.051zm14.217-18.428a.67.67 0 00.358.102.627.627 0 00.443-.767v-.017a6.258 6.258 0 00-3.904-4.279.605.605 0 00-.767.392c0 .017 0 .017-.017.035a.622.622 0 00.426.784 5.143 5.143 0 013.035 3.41c.085.17.238.306.426.34zm-24.77-20.507v5.88a4.387 4.387 0 00-2.846 5.115c1.278 5.114-2.421 12.342-6.53 14.916 0 0 .137-2.13-1.704-1.858-1.841.273-2.71 11.37.136 17.047 0 0-4.688-5.387-6.256-17.32-1.432-11.046-.699-19.996 2.011-23.866l15.19.086z" fill="#14142B"/><path d="M57.209 12.701S52.793 2.746 69.26.478c16.467-2.267 33.821 4.262 33.821 4.262s.853 15.786-13.109 15.632c-13.603-.153-32.764-7.67-32.764-7.67z" fill="#14142B"/><path d="M52.503 35.425a12.702 12.702 0 006.069 7.518c3.904 2.096 6.819-1.177 6.546-5.353-.273-3.733-2.574-9.427-6.904-9.751-4.33-.324-6.87 3.631-5.71 7.586z" fill="#FFD5BD"/><path d="M61.59 69.23l18.905 8.523 1.108-6.819 6.938 2.438a5.68 5.68 0 013.784 5.984l-.767 7.5-9.597-5.25-4.773 6.819L54.48 77.497l7.108-8.267z" fill="#FFE6E9"/><path opacity=".2" d="M39.155 116.791a1032.31 1032.31 0 013.58 24.411 36.077 36.077 0 001.398-29.304l-4.978 4.893z" fill="#14142B"/><path d="M32.95 81.537C24.802 85.287-1.673 138.39.083 168.375c1.705 29.219 47.306 65.649 47.306 65.649s9.87-8.012 11.251-14.899c0 0-32.134-33.293-32.986-50.75-.835-17.149 17.9-47.732 17.9-47.732s2.13-12.785-1.705-23.865c-3.836-11.081-8.899-15.24-8.899-15.24z" fill="#FF3951"/><path d="M58.64 212.033s-7.432 16.673-13.637 20.048c0 0-1.347 5.642 4.057 13.314 5.404 7.671 26.236-18.701 9.58-33.362z" fill="#6E7191"/></svg>