<svg width="1134" height="1008" fill="none" xmlns="http://www.w3.org/2000/svg"><g clip-path="url(#clip0)"><g filter="url(#filter0_dd)"><path d="M740.603 396.553H425.546c-16.556 0-29.976 13.869-29.976 30.979V699.65c0 17.109 13.42 30.979 29.976 30.979h315.057c16.556 0 29.976-13.87 29.976-30.979V427.532c0-17.11-13.42-30.979-29.976-30.979z" fill="#fff" fill-opacity=".01"/></g><path d="M740.603 396.553H425.546c-16.556 0-29.976 13.869-29.976 30.979V699.65c0 17.109 13.42 30.979 29.976 30.979h315.057c16.556 0 29.976-13.87 29.976-30.979V427.532c0-17.11-13.42-30.979-29.976-30.979z" fill="#fff"/><g filter="url(#filter1_d)"><path d="M423.132 421.007a6.95 6.95 0 01-1.108 3.775 6.622 6.622 0 01-2.949 2.502 6.379 6.379 0 01-3.798.387 6.512 6.512 0 01-3.365-1.86 6.87 6.87 0 01-1.799-3.478 7.007 7.007 0 01.374-3.925 6.75 6.75 0 012.422-3.048 6.414 6.414 0 013.651-1.145 6.47 6.47 0 014.648 1.989 6.914 6.914 0 011.924 4.803z" fill="#FF3951" fill-opacity=".01"/></g><path d="M423.132 421.007a6.95 6.95 0 01-1.108 3.775 6.622 6.622 0 01-2.949 2.502 6.379 6.379 0 01-3.798.387 6.512 6.512 0 01-3.365-1.86 6.87 6.87 0 01-1.799-3.478 7.007 7.007 0 01.374-3.925 6.75 6.75 0 012.422-3.048 6.414 6.414 0 013.651-1.145 6.47 6.47 0 014.648 1.989 6.914 6.914 0 011.924 4.803z" fill="#FF3951"/><g filter="url(#filter2_d)"><path d="M442.273 421.007a6.95 6.95 0 01-1.108 3.775 6.622 6.622 0 01-2.949 2.502 6.379 6.379 0 01-3.798.387 6.512 6.512 0 01-3.365-1.86 6.87 6.87 0 01-1.799-3.478 7.007 7.007 0 01.374-3.925 6.743 6.743 0 012.422-3.048 6.414 6.414 0 013.651-1.145c1.743 0 3.415.716 4.647 1.989a6.915 6.915 0 011.925 4.803z" fill="#FFC226" fill-opacity=".01"/></g><path d="M442.273 421.007a6.95 6.95 0 01-1.108 3.775 6.622 6.622 0 01-2.949 2.502 6.379 6.379 0 01-3.798.387 6.512 6.512 0 01-3.365-1.86 6.87 6.87 0 01-1.799-3.478 7.007 7.007 0 01.374-3.925 6.743 6.743 0 012.422-3.048 6.414 6.414 0 013.651-1.145c1.743 0 3.415.716 4.647 1.989a6.915 6.915 0 011.925 4.803z" fill="#FFC226"/><g filter="url(#filter3_d)"><path d="M461.416 421.007a6.966 6.966 0 01-1.108 3.775 6.627 6.627 0 01-2.951 2.502 6.376 6.376 0 01-3.797.387 6.515 6.515 0 01-3.366-1.86 6.86 6.86 0 01-1.798-3.478 7.007 7.007 0 01.374-3.925 6.748 6.748 0 012.421-3.048 6.414 6.414 0 013.651-1.145 6.47 6.47 0 014.648 1.989 6.911 6.911 0 011.926 4.803z" fill="#9AE886" fill-opacity=".01"/></g><path d="M461.416 421.007a6.966 6.966 0 01-1.108 3.775 6.627 6.627 0 01-2.951 2.502 6.376 6.376 0 01-3.797.387 6.515 6.515 0 01-3.366-1.86 6.86 6.86 0 01-1.798-3.478 7.007 7.007 0 01.374-3.925 6.748 6.748 0 012.421-3.048 6.414 6.414 0 013.651-1.145 6.47 6.47 0 014.648 1.989 6.911 6.911 0 011.926 4.803z" fill="#9AE886"/><path d="M770.579 434.776H395.57v2.263h375.009v-2.263z" fill="#F5F7FC"/><path d="M739.936 463.806H608.285c-3.311 0-5.996 2.774-5.996 6.195 0 3.422 2.685 6.196 5.996 6.196h131.651c3.311 0 5.996-2.774 5.996-6.196 0-3.421-2.685-6.195-5.996-6.195zm-49.129 21.685h-82.522c-3.311 0-5.996 2.774-5.996 6.196 0 3.422 2.685 6.196 5.996 6.196h82.522c3.311 0 5.995-2.774 5.995-6.196 0-3.422-2.684-6.196-5.995-6.196z" fill="#EFF0F7"/><g filter="url(#filter4_dd)"><path d="M964.523 27.65H671.375c-16.556 0-29.976 13.87-29.976 30.98v274.999c0 17.11 13.42 30.979 29.976 30.979h293.148c16.555 0 29.976-13.869 29.976-30.979v-275c0-17.108-13.421-30.978-29.976-30.978z" fill="#fff" fill-opacity=".01"/></g><path d="M964.523 27.65H671.375c-16.556 0-29.976 13.87-29.976 30.98v274.999c0 17.11 13.42 30.979 29.976 30.979h293.148c16.555 0 29.976-13.869 29.976-30.979v-275c0-17.108-13.421-30.978-29.976-30.978z" fill="#fff"/><g filter="url(#filter5_d)"><path d="M668.524 53.675a6.958 6.958 0 01-1.108 3.774 6.626 6.626 0 01-2.95 2.502 6.377 6.377 0 01-3.798.386 6.5 6.5 0 01-3.364-1.859A6.866 6.866 0 01655.503 55a7.014 7.014 0 01.375-3.925 6.753 6.753 0 012.421-3.048 6.418 6.418 0 013.652-1.145c1.743 0 3.415.716 4.648 1.99a6.912 6.912 0 011.925 4.803z" fill="#FF3951" fill-opacity=".01"/></g><path d="M668.524 53.675a6.958 6.958 0 01-1.108 3.774 6.626 6.626 0 01-2.95 2.502 6.377 6.377 0 01-3.798.386 6.5 6.5 0 01-3.364-1.859A6.866 6.866 0 01655.503 55a7.014 7.014 0 01.375-3.925 6.753 6.753 0 012.421-3.048 6.418 6.418 0 013.652-1.145c1.743 0 3.415.716 4.648 1.99a6.912 6.912 0 011.925 4.803z" fill="#FF3951"/><g filter="url(#filter6_d)"><path d="M689.163 53.676a6.95 6.95 0 01-1.108 3.773 6.627 6.627 0 01-2.949 2.502 6.378 6.378 0 01-3.798.387 6.504 6.504 0 01-3.365-1.859 6.873 6.873 0 01-1.8-3.478 7.005 7.005 0 01.375-3.925 6.744 6.744 0 012.42-3.048 6.424 6.424 0 013.653-1.145c1.743 0 3.414.715 4.647 1.99a6.913 6.913 0 011.925 4.803z" fill="#FFC226" fill-opacity=".01"/></g><path d="M689.163 53.676a6.95 6.95 0 01-1.108 3.773 6.627 6.627 0 01-2.949 2.502 6.378 6.378 0 01-3.798.387 6.504 6.504 0 01-3.365-1.859 6.873 6.873 0 01-1.8-3.478 7.005 7.005 0 01.375-3.925 6.744 6.744 0 012.42-3.048 6.424 6.424 0 013.653-1.145c1.743 0 3.414.715 4.647 1.99a6.913 6.913 0 011.925 4.803z" fill="#FFC226"/><g filter="url(#filter7_d)"><path d="M709.803 53.676a6.95 6.95 0 01-1.108 3.773 6.627 6.627 0 01-2.949 2.502 6.377 6.377 0 01-3.798.387 6.504 6.504 0 01-3.365-1.859 6.873 6.873 0 01-1.8-3.478 7.005 7.005 0 01.375-3.925 6.75 6.75 0 012.42-3.048 6.424 6.424 0 013.653-1.145 6.47 6.47 0 014.648 1.99 6.912 6.912 0 011.924 4.803z" fill="#9AE886" fill-opacity=".01"/></g><path d="M709.803 53.676a6.95 6.95 0 01-1.108 3.773 6.627 6.627 0 01-2.949 2.502 6.377 6.377 0 01-3.798.387 6.504 6.504 0 01-3.365-1.859 6.873 6.873 0 01-1.8-3.478 7.005 7.005 0 01.375-3.925 6.75 6.75 0 012.42-3.048 6.424 6.424 0 013.653-1.145 6.47 6.47 0 014.648 1.99 6.912 6.912 0 011.924 4.803z" fill="#9AE886"/><path d="M994.126 67.443h-353.1v2.265h353.1v-2.265z" fill="#F5F7FC"/><path d="M911.097 95.18H680.106c-3.311 0-5.995 2.775-5.995 6.196 0 3.422 2.684 6.196 5.995 6.196h230.991c3.311 0 5.995-2.774 5.995-6.196 0-3.421-2.684-6.195-5.995-6.195zm-151.808 21.685h-79.183c-3.311 0-5.995 2.774-5.995 6.196 0 3.422 2.684 6.196 5.995 6.196h79.183c3.313 0 5.995-2.774 5.995-6.196 0-3.422-2.682-6.196-5.995-6.196z" fill="#EFF0F7"/><path d="M956.508 152.998H679.391c-2.917 0-5.28 2.444-5.28 5.456 0 3.015 2.363 5.457 5.28 5.457h277.117c2.916 0 5.28-2.442 5.28-5.457 0-3.012-2.364-5.456-5.28-5.456z" fill="#F5F7FC"/><g filter="url(#filter8_d)"><path d="M821.248 152.998H688.751c-2.917 0-5.28 2.442-5.28 5.456 0 3.015 2.363 5.457 5.278 5.457h132.499c2.917 0 5.28-2.442 5.28-5.457 0-3.014-2.363-5.456-5.28-5.456z" fill="#FF3951" fill-opacity=".01"/></g><path d="M821.248 152.998H688.751c-2.917 0-5.28 2.442-5.28 5.456 0 3.015 2.363 5.457 5.278 5.457h132.499c2.917 0 5.28-2.442 5.28-5.457 0-3.014-2.363-5.456-5.28-5.456z" fill="#624DE3"/><path d="M955.901 190.042H679.998c-3.251 0-5.887 2.724-5.887 6.084 0 3.361 2.636 6.086 5.887 6.086h275.903c3.251 0 5.887-2.725 5.887-6.086 0-3.36-2.636-6.084-5.887-6.084z" fill="#F5F7FC"/><g filter="url(#filter9_d)"><path d="M901.433 190.042H688.751c-2.917 0-5.28 2.442-5.28 5.456 0 3.013 2.363 5.457 5.278 5.457h212.684c2.916 0 5.28-2.444 5.28-5.457 0-3.014-2.364-5.456-5.28-5.456z" fill="#FFC226" fill-opacity=".01"/></g><path d="M901.433 190.042H688.751c-2.917 0-5.28 2.442-5.28 5.456 0 3.013 2.363 5.457 5.278 5.457h212.684c2.916 0 5.28-2.444 5.28-5.457 0-3.014-2.364-5.456-5.28-5.456z" fill="#CAB7FF"/><path d="M956.508 227.084H679.391c-2.917 0-5.28 2.443-5.28 5.457 0 3.015 2.363 5.457 5.28 5.457h277.117c2.916 0 5.28-2.442 5.28-5.457 0-3.014-2.364-5.457-5.28-5.457z" fill="#F5F7FC"/><g filter="url(#filter10_d)"><path d="M734.145 227.084h-45.394c-2.917 0-5.28 2.443-5.28 5.457 0 3.015 2.363 5.457 5.28 5.457h45.394c2.917 0 5.28-2.442 5.28-5.457 0-3.014-2.363-5.457-5.28-5.457z" fill="#FF3951" fill-opacity=".01"/></g><path d="M734.145 227.084h-45.394c-2.917 0-5.28 2.443-5.28 5.457 0 3.015 2.363 5.457 5.28 5.457h45.394c2.917 0 5.28-2.442 5.28-5.457 0-3.014-2.363-5.457-5.28-5.457z" fill="#624DE3"/><path d="M956.508 264.128H679.391c-2.917 0-5.28 2.445-5.28 5.457 0 3.015 2.363 5.457 5.28 5.457h277.117c2.916 0 5.28-2.442 5.28-5.457 0-3.012-2.364-5.457-5.28-5.457z" fill="#F5F7FC"/><g filter="url(#filter11_d)"><path d="M855.515 264.129H688.751c-2.917 0-5.28 2.443-5.28 5.457 0 3.013 2.363 5.457 5.28 5.457h166.764c2.917 0 5.281-2.444 5.281-5.457 0-3.014-2.364-5.457-5.281-5.457z" fill="#FFC226" fill-opacity=".01"/></g><path d="M855.515 264.129H688.751c-2.917 0-5.28 2.443-5.28 5.457 0 3.013 2.363 5.457 5.28 5.457h166.764c2.917 0 5.281-2.444 5.281-5.457 0-3.014-2.364-5.457-5.281-5.457z" fill="#CAB7FF"/><path d="M956.508 301.172H679.391c-2.917 0-5.28 2.444-5.28 5.457 0 3.014 2.363 5.458 5.28 5.458h277.117c2.916 0 5.28-2.444 5.28-5.458 0-3.013-2.364-5.457-5.28-5.457z" fill="#F5F7FC"/><g filter="url(#filter12_d)"><path d="M881.833 301.172H688.751c-2.917 0-5.28 2.444-5.28 5.457 0 3.014 2.363 5.458 5.28 5.458h193.082c2.916 0 5.28-2.444 5.28-5.458 0-3.013-2.364-5.457-5.28-5.457z" fill="#FF3951" fill-opacity=".01"/></g><path d="M881.833 301.172H688.751c-2.917 0-5.28 2.444-5.28 5.457 0 3.014 2.363 5.458 5.28 5.458h193.082c2.916 0 5.28-2.444 5.28-5.458 0-3.013-2.364-5.457-5.28-5.457z" fill="#624DE3"/><path d="M591.735 588.401c0 49.993-39.215 90.519-87.588 90.519-48.374 0-87.589-40.526-87.589-90.519 0-49.992 39.215-90.518 87.589-90.518 48.373 0 87.588 40.526 87.588 90.518zm-135.929 0c0 27.592 21.642 49.96 48.341 49.96 26.698 0 48.342-22.368 48.342-49.96 0-27.591-21.644-49.959-48.342-49.959-26.699 0-48.341 22.368-48.341 49.959z" fill="#F5F7FC"/><g filter="url(#filter13_d)"><path d="M513.39 518.67c9.487 1.343 18.595 4.739 26.728 9.966 8.131 5.228 15.105 12.169 20.466 20.372 5.36 8.202 8.987 17.478 10.641 27.227a72.649 72.649 0 01-1.035 29.347" stroke="#FFC226" stroke-opacity=".01" stroke-width="38.969" stroke-linecap="round"/></g><path d="M513.39 518.67c9.487 1.343 18.595 4.739 26.728 9.966 8.131 5.228 15.105 12.169 20.466 20.372 5.36 8.202 8.987 17.478 10.641 27.227a72.649 72.649 0 01-1.035 29.347" stroke="#CAB7FF" stroke-width="38.969" stroke-linecap="round"/><g filter="url(#filter14_d)"><path d="M448.986 547.121c10.259-14.64 25.575-24.64 42.774-27.929 17.2-3.287 34.964.391 49.611 10.27" stroke="#FF8139" stroke-opacity=".01" stroke-width="38.969" stroke-linecap="round"/></g><path d="M448.986 547.121c10.259-14.64 25.575-24.64 42.774-27.929 17.2-3.287 34.964.391 49.611 10.27" stroke="#14142B" stroke-width="38.969" stroke-linecap="round"/><g filter="url(#filter15_d)"><path d="M517.546 657.408c-12.929 2.681-26.334 1.425-38.586-3.615-12.251-5.039-22.823-13.647-30.433-24.777-7.611-11.129-11.929-24.303-12.434-37.922-.505-13.616 2.827-27.094 9.59-38.791" stroke="#FF3951" stroke-opacity=".01" stroke-width="38.969" stroke-linecap="round"/></g><path d="M517.546 657.408c-12.929 2.681-26.334 1.425-38.586-3.615-12.251-5.039-22.823-13.647-30.433-24.777-7.611-11.129-11.929-24.303-12.434-37.922-.505-13.616 2.827-27.094 9.59-38.791" stroke="#FF3951" stroke-width="38.969" stroke-linecap="round"/><g filter="url(#filter16_d)"><path d="M638.197 565.167c4.967 0 8.993-4.16 8.993-9.293 0-5.133-4.026-9.294-8.993-9.294-4.967 0-8.992 4.161-8.992 9.294 0 5.133 4.025 9.293 8.992 9.293z" fill="#FF3951" fill-opacity=".01"/></g><path d="M638.197 565.167c4.967 0 8.993-4.16 8.993-9.293 0-5.133-4.026-9.294-8.993-9.294-4.967 0-8.992 4.161-8.992 9.294 0 5.133 4.025 9.293 8.992 9.293z" fill="#171347"/><path d="M731.333 551.226h-72.152c-2.484 0-4.497 2.08-4.497 4.646 0 2.567 2.013 4.647 4.497 4.647h72.152c2.482 0 4.496-2.08 4.496-4.647 0-2.566-2.014-4.646-4.496-4.646z" fill="#EFF0F7"/><g filter="url(#filter17_d)"><path d="M638.197 597.695c4.967 0 8.993-4.161 8.993-9.294 0-5.133-4.026-9.294-8.993-9.294-4.967 0-8.992 4.161-8.992 9.294 0 5.133 4.025 9.294 8.992 9.294z" fill="#FF8139" fill-opacity=".01"/></g><path d="M638.197 597.695c4.967 0 8.993-4.161 8.993-9.294 0-5.133-4.026-9.294-8.993-9.294-4.967 0-8.992 4.161-8.992 9.294 0 5.133 4.025 9.294 8.992 9.294z" fill="#7545FF"/><path d="M731.333 583.754h-72.152c-2.484 0-4.497 2.08-4.497 4.647 0 2.566 2.013 4.647 4.497 4.647h72.152c2.482 0 4.496-2.081 4.496-4.647 0-2.567-2.014-4.647-4.496-4.647z" fill="#EFF0F7"/><g filter="url(#filter18_d)"><path d="M638.197 630.222c4.967 0 8.993-4.16 8.993-9.294 0-5.133-4.026-9.293-8.993-9.293-4.967 0-8.992 4.16-8.992 9.293 0 5.134 4.025 9.294 8.992 9.294z" fill="#FFC226" fill-opacity=".01"/></g><path d="M638.197 630.222c4.967 0 8.993-4.16 8.993-9.294 0-5.133-4.026-9.293-8.993-9.293-4.967 0-8.992 4.16-8.992 9.293 0 5.134 4.025 9.294 8.992 9.294z" fill="#CAB7FF"/><path d="M731.333 616.282h-72.152c-2.484 0-4.497 2.08-4.497 4.647 0 2.566 2.013 4.646 4.497 4.646h72.152c2.482 0 4.496-2.08 4.496-4.646 0-2.567-2.014-4.647-4.496-4.647z" fill="#EFF0F7"/><g filter="url(#filter19_dd)"><path d="M574.744 24.783H259.686c-16.555 0-29.976 13.87-29.976 30.979V330.76c0 17.109 13.421 30.979 29.976 30.979h315.058c16.556 0 29.976-13.87 29.976-30.979v-275c0-17.109-13.42-30.978-29.976-30.978z" fill="#fff" fill-opacity=".01"/></g><path d="M574.744 24.783H259.686c-16.555 0-29.976 13.87-29.976 30.979V330.76c0 17.109 13.421 30.979 29.976 30.979h315.058c16.556 0 29.976-13.87 29.976-30.979v-275c0-17.109-13.42-30.978-29.976-30.978z" fill="#fff"/><path d="M604.72 65.888H229.71v2.265h375.01v-2.265z" fill="#F5F7FC"/><path d="M533.318 93.626H301.157c-2.988 0-5.41 2.503-5.41 5.591s2.422 5.592 5.41 5.592h232.161c2.987 0 5.41-2.504 5.41-5.592 0-3.088-2.423-5.591-5.41-5.591zm-41.564 20.476H342.699c-2.988 0-5.411 2.503-5.411 5.591 0 3.089 2.423 5.592 5.411 5.592h149.055c2.989 0 5.411-2.503 5.411-5.592 0-3.088-2.422-5.591-5.411-5.591z" fill="#EFF0F7"/><g filter="url(#filter20_d)"><path d="M505.645 192.101v127.165c0 5.132 4.026 9.294 8.993 9.294 4.966 0 8.993-4.162 8.993-9.294V192.101c0-5.133-4.027-9.294-8.993-9.294-4.967 0-8.993 4.161-8.993 9.294z" fill="#FFC226" fill-opacity=".01"/></g><path d="M505.645 192.101v127.165c0 5.132 4.026 9.294 8.993 9.294 4.966 0 8.993-4.162 8.993-9.294V192.101c0-5.133-4.027-9.294-8.993-9.294-4.967 0-8.993 4.161-8.993 9.294z" fill="#CAB7FF"/><path d="M466.676 211.506v107.737c0 5.133 4.026 9.293 8.993 9.293 4.966 0 8.993-4.16 8.993-9.293V211.506c0-5.133-4.027-9.294-8.993-9.294-4.967 0-8.993 4.161-8.993 9.294z" fill="#624DE3"/><g filter="url(#filter21_d)"><path d="M427.707 279.457v39.786c0 5.133 4.026 9.294 8.993 9.294 4.966 0 8.993-4.161 8.993-9.294v-39.786c0-5.133-4.027-9.294-8.993-9.294-4.967 0-8.993 4.161-8.993 9.294z" fill="#FFC226" fill-opacity=".01"/></g><path d="M427.707 279.457v39.786c0 5.133 4.026 9.294 8.993 9.294 4.966 0 8.993-4.161 8.993-9.294v-39.786c0-5.133-4.027-9.294-8.993-9.294-4.967 0-8.993 4.161-8.993 9.294z" fill="#CAB7FF"/><path d="M388.739 177.677v141.566c0 5.133 4.026 9.294 8.993 9.294 4.965 0 8.992-4.161 8.992-9.294V177.677c0-5.133-4.027-9.293-8.992-9.293-4.967 0-8.993 4.16-8.993 9.293z" fill="#624DE3"/><g filter="url(#filter22_d)"><path d="M349.77 164.997v154.245c0 5.134 4.026 9.294 8.993 9.294 4.965 0 8.993-4.16 8.993-9.294V164.997c0-5.133-4.028-9.293-8.993-9.293-4.967 0-8.993 4.16-8.993 9.293z" fill="#FFC226" fill-opacity=".01"/></g><path d="M349.77 164.997v154.245c0 5.134 4.026 9.294 8.993 9.294 4.965 0 8.993-4.16 8.993-9.294V164.997c0-5.133-4.028-9.293-8.993-9.293-4.967 0-8.993 4.16-8.993 9.293z" fill="#CAB7FF"/><path d="M310.801 228.329v90.914c0 5.133 4.026 9.294 8.993 9.294 4.966 0 8.992-4.161 8.992-9.294v-90.914c0-5.133-4.026-9.293-8.992-9.293-4.967 0-8.993 4.16-8.993 9.293z" fill="#624DE3"/><g filter="url(#filter23_d)"><path d="M258.772 52.12a6.957 6.957 0 01-1.108 3.774 6.625 6.625 0 01-2.95 2.502 6.377 6.377 0 01-3.798.387 6.507 6.507 0 01-3.365-1.86 6.87 6.87 0 01-1.799-3.477 7.005 7.005 0 01.374-3.925 6.753 6.753 0 012.421-3.049 6.423 6.423 0 013.652-1.144c1.743 0 3.415.715 4.648 1.99a6.912 6.912 0 011.925 4.803z" fill="#FF3951" fill-opacity=".01"/></g><path d="M258.772 52.12a6.957 6.957 0 01-1.108 3.774 6.625 6.625 0 01-2.95 2.502 6.377 6.377 0 01-3.798.387 6.507 6.507 0 01-3.365-1.86 6.87 6.87 0 01-1.799-3.477 7.005 7.005 0 01.374-3.925 6.753 6.753 0 012.421-3.049 6.423 6.423 0 013.652-1.144c1.743 0 3.415.715 4.648 1.99a6.912 6.912 0 011.925 4.803z" fill="#FF3951"/><g filter="url(#filter24_d)"><path d="M277.913 52.12a6.957 6.957 0 01-1.108 3.774 6.625 6.625 0 01-2.95 2.502 6.377 6.377 0 01-3.798.387 6.507 6.507 0 01-3.365-1.86 6.87 6.87 0 01-1.799-3.477 7.014 7.014 0 01.374-3.925 6.753 6.753 0 012.421-3.049 6.423 6.423 0 013.652-1.144c1.743 0 3.415.715 4.648 1.99a6.912 6.912 0 011.925 4.803z" fill="#FFC226" fill-opacity=".01"/></g><path d="M277.913 52.12a6.957 6.957 0 01-1.108 3.774 6.625 6.625 0 01-2.95 2.502 6.377 6.377 0 01-3.798.387 6.507 6.507 0 01-3.365-1.86 6.87 6.87 0 01-1.799-3.477 7.014 7.014 0 01.374-3.925 6.753 6.753 0 012.421-3.049 6.423 6.423 0 013.652-1.144c1.743 0 3.415.715 4.648 1.99a6.912 6.912 0 011.925 4.803z" fill="#FFC226"/><g filter="url(#filter25_d)"><path d="M297.054 52.12a6.949 6.949 0 01-1.108 3.774 6.62 6.62 0 01-2.95 2.502 6.374 6.374 0 01-3.797.387 6.514 6.514 0 01-3.366-1.86 6.862 6.862 0 01-1.798-3.477 7.005 7.005 0 01.373-3.925 6.76 6.76 0 012.421-3.049 6.423 6.423 0 013.652-1.144c1.743 0 3.415.715 4.648 1.99a6.908 6.908 0 011.925 4.803z" fill="#9AE886" fill-opacity=".01"/></g><path d="M297.054 52.12a6.949 6.949 0 01-1.108 3.774 6.62 6.62 0 01-2.95 2.502 6.374 6.374 0 01-3.797.387 6.514 6.514 0 01-3.366-1.86 6.862 6.862 0 01-1.798-3.477 7.005 7.005 0 01.373-3.925 6.76 6.76 0 012.421-3.049 6.423 6.423 0 013.652-1.144c1.743 0 3.415.715 4.648 1.99a6.908 6.908 0 011.925 4.803z" fill="#9AE886"/></g><path d="M311.526 847.457h42.006v7.628h-42.006v-7.628z" fill="#4E4B66"/><path d="M288.752 959.139h4.527l37.006-178.489 2.106-10.17 6.654-32.04 2.46-11.962 9.31-44.836 3.249-15.684h-16.162l-2.617 15.684-1.732 10.314-1.162 6.856-6.633 39.628-2.126 12.734-34.88 207.965z" fill="#4E4B66"/><path d="M337.902 665.958l-2.617 15.684h15.53l3.249-15.684h-16.162zm-14.27 85.216l6.653 29.476 2.106-10.171 6.654-32.04 2.46-11.962-7.952-34.522-1.162 6.856-6.633 39.628-2.126 12.735z" fill="#14142B"/><path d="M310.739 665.958l3.247 15.684 11.772 56.798 6.633 32.04 39.133 188.659h4.507L339.045 738.44l-6.654-39.628-2.874-17.17-2.638-15.684h-16.14z" fill="#4E4B66"/><path d="M310.739 665.958l3.247 15.684h15.532l-2.639-15.684h-16.14z" fill="#14142B"/><path d="M30.838 847.457h42.006v7.628H30.838v-7.628z" fill="#4E4B66"/><path d="M8.064 959.139h4.527L49.597 780.65l2.106-10.17 6.654-32.04 2.46-11.962 9.31-44.836 3.25-15.684h-16.16l-2.62 15.684-1.732 10.314-1.162 6.856-6.633 39.628-2.125 12.734-34.88 207.965z" fill="#4E4B66"/><path d="M57.216 665.958l-2.618 15.684h15.53l3.248-15.684h-16.16zm-14.271 85.216l6.652 29.476 2.106-10.171 6.654-32.04 2.46-11.962-7.952-34.522-1.162 6.856-6.633 39.628-2.125 12.735z" fill="#14142B"/><path d="M30.051 665.958l3.249 15.684 11.77 56.798 6.634 32.04 39.113 188.659h4.527L58.358 738.44l-6.654-39.628-2.874-17.17-2.638-15.684h-16.14z" fill="#4E4B66"/><path d="M30.051 665.958l3.25 15.684h15.53l-2.639-15.684h-16.14z" fill="#14142B"/><path d="M4.873 644.476h388.965c2.319 0 4.201 1.944 4.201 4.341v12.8c0 2.396-1.882 4.341-4.201 4.341H4.873c-2.32 0-4.2-1.943-4.2-4.341v-12.8c0-2.397 1.88-4.341 4.2-4.341z" fill="#4E4B66"/><path d="M300.68 644.476h100.365c2.235 0 4.113-1.733 4.366-4.027l7.07-64.133c.297-2.693-1.742-5.055-4.366-5.055h-95.443c-2.235 0-4.112 1.734-4.366 4.028l-7.626 69.187z" fill="#D9DBE9"/><path d="M306.349 639.551h90.111c2.233 0 4.112-1.732 4.364-4.026l6.545-59.361h-94.031l-6.989 63.387z" fill="#fff"/><path d="M270.071 639.551h134.168v4.903H270.071v-4.903z" fill="#D9DBE9"/><path d="M240.938 639.551h134.169v4.903H240.938v-4.903z" fill="#EFF0F7"/><path d="M313.003 579.256l.335-3.092h94.031l-.354 3.092h-94.012z" fill="#fff"/><path d="M170.5 585.822l-1.988 3.183-2.138 3.492a317.614 317.614 0 00-4.085 7.137c-2.652 4.819-5.219 9.703-7.592 14.654a205.981 205.981 0 00-11.954 30.299c-.77 2.563-1.453 5.127-2.138 7.69l-.877 3.868-.364 1.922-.192.973c0 .309-.128.729-.128.641 0-.089-.171 0-.386-.575a3.241 3.241 0 00-1.026-1.281c-.363-.221-.427.001-.235.199.442.415.939.765 1.476 1.039a23.47 23.47 0 005.752 2.033 68.06 68.06 0 007.334 1.347c5.09.686 10.693 1.018 15.954 1.304h.535a7.385 7.385 0 014.662 2.012 7.832 7.832 0 012.374 4.609 7.965 7.965 0 01-.992 5.119 7.562 7.562 0 01-3.906 3.311 90.118 90.118 0 01-18.219 4.663 54.388 54.388 0 01-20.914-.553 29.456 29.456 0 01-6.416-2.453 24.841 24.841 0 01-6.887-5.348 23.578 23.578 0 01-5.003-9.06 27.046 27.046 0 01-.876-9.372c0-.839 0-1.149.127-1.569l.15-1.215.278-2.475c.236-1.613.449-3.248.706-4.862.534-3.227 1.133-6.431 1.882-9.57a197.688 197.688 0 0112.275-36.089c2.587-5.702 5.346-11.315 8.361-16.774a203.275 203.275 0 014.705-8.111 137.837 137.837 0 012.523-4.023 140.371 140.371 0 012.802-4.154c2.302-3.201 5.713-5.359 9.519-6.023 3.806-.666 7.712.216 10.905 2.457 3.193 2.242 5.425 5.67 6.228 9.571a15.903 15.903 0 01-1.911 11.366l-.321.618z" fill="#CAB7FF"/><path d="M227.683 496.626c.214 1.503 1.155 2.586 2.138 2.454.984-.133 1.54-1.481 1.326-2.962-.214-1.48-1.155-2.585-2.138-2.453-.985.133-1.541 1.481-1.326 2.961z" fill="#14142B"/><path d="M228.71 499.234c2.377 4.292 9.019 10.451 8.725 11.691-.294 1.24-1.935 1.547-3.091 1.959a8.102 8.102 0 01-3.602.427l-2.032-14.077z" fill="#FF97B8"/><path d="M221.374 489.157a.695.695 0 00.471-.243 6.722 6.722 0 012.688-1.764 6.54 6.54 0 013.172-.291.854.854 0 00.647-.127.909.909 0 00.379-.558.909.909 0 00-.125-.66.852.852 0 00-.539-.379 8.164 8.164 0 00-4.009.318 8.382 8.382 0 00-3.411 2.202.92.92 0 00-.246.63c0 .235.088.46.246.629a.889.889 0 00.727.243z" fill="#14142B"/><path d="M185.319 513.091c.62 13.923-.406 39.072-10.864 46.697 0 0 1.605 14.255 25.919 18.012 26.709 4.11 14.755-11.758 14.755-11.758-14.071-5.834-12.082-16.973-8.02-27.072l-21.79-25.879z" fill="#FFD5BD"/><path d="M170.264 565.359c-1.047-6.3-2.138-13.482 2.461-14.587 5.046-1.216 31.178 2.387 39.432 8.84 8.255 6.453 4.021 17.681 4.021 17.681l-45.914-11.934z" fill="#fff"/><path d="M240.728 588.829c.984 22.277 0 66.454-14.627 133.329H129.4c-.599-13.901 13.28-73.835 12.082-139.695a25.636 25.636 0 011.697-9.649 24.984 24.984 0 015.172-8.224 24.078 24.078 0 017.846-5.518 23.429 23.429 0 019.3-1.958c1.903 0 3.913 0 5.988.243a332.69 332.69 0 0140.759 5.482 160.32 160.32 0 0111.483 3.182c4.762 1.53 8.951 4.541 11.993 8.624 3.043 4.082 4.792 9.035 5.008 14.184z" fill="#0048F0"/><path opacity=".2" d="M226.121 628.917c-1.539 11.315-5.089 30.941 7.72 52.643a660.877 660.877 0 003.593-25.282l-11.313-27.361z" fill="#14142B"/><path d="M301.482 656.3l16.273-5.79-6.628-17.68a20.321 20.321 0 00-10.078 4.577 21.326 21.326 0 00-6.367 9.28l6.8 9.613z" fill="#FFD5BD"/><path d="M325.986 645.732c.857-1.993 3.464-13.254 1.732-14.277-1.732-1.023-16.979 1.459-16.979 1.459l6.63 17.745s7.76-2.936 8.617-4.927z" fill="#FFD5BD"/><path d="M240.621 586.772a468.752 468.752 0 003.079 10.564c1.07 3.537 2.138 7.16 3.379 10.719 2.309 7.117 4.854 14.122 7.527 20.973 2.673 6.852 5.667 13.504 8.896 19.714a87.482 87.482 0 0010.693 16.42l-15.675-2.498c3.015-1.347 6.115-2.739 9.238-4.419 3.122-1.68 6.308-3.182 9.451-4.951l9.624-5.238c3.207-1.745 6.415-3.646 9.687-5.281l.342-.178a7.36 7.36 0 014.941-.664 7.53 7.53 0 014.271 2.654 7.97 7.97 0 011.749 4.823 8.004 8.004 0 01-1.53 4.9 117.42 117.42 0 01-7.656 9.393c-2.673 2.984-5.475 5.813-8.383 8.598-2.908 2.784-5.987 5.413-9.195 7.933-3.208 2.519-6.608 4.95-10.222 7.205a12.025 12.025 0 01-7.697 1.726 12.199 12.199 0 01-7.145-3.428l-.833-.818a103.45 103.45 0 01-16.359-21.371 192.035 192.035 0 01-11.441-22.431c-3.357-7.58-6.244-15.271-8.875-23.006-1.304-3.868-2.566-7.757-3.7-11.67-1.133-3.911-2.138-7.756-3.229-12.087a15.938 15.938 0 011.508-11.741c1.99-3.552 5.263-6.141 9.099-7.199a14.547 14.547 0 0111.36 1.557c3.438 2.056 5.943 5.438 6.967 9.403l.129.398z" fill="#CAB7FF"/><path d="M179.118 500.913c3.742 18.123 5.026 28.93 15.333 36.951 15.504 12.068 36.162.31 37.744-18.63 1.411-17.039-4.919-43.824-23.31-48.443a23.728 23.728 0 00-12.321.15 24.307 24.307 0 00-10.69 6.334 25.484 25.484 0 00-6.351 10.911 26.128 26.128 0 00-.405 12.727z" fill="#FFD5BD"/><path d="M216.905 502.814c8.383-.663 7.892-4.663 6.01-7.602-1.882-2.939-7.002-10.906-4.17-13.503 2.831-2.598 11.654 3.182 9.26-8.354-2.396-11.536-18.135-26.145-31.886-17.194-27.393-4.663-36.353 6.763-32.077 17.326-21.749 9.946-6.052 30.079 2.609 30.079-7.72 7.116 19.763 30.565 22.496 28.885 2.735-1.68 33.874-12.464 27.758-29.637z" fill="#14142B"/><path d="M199.967 461.951a2.079 2.079 0 01-.826-.184 2.147 2.147 0 01-.692-.501c-3.187-3.312-7.159-5.702-11.52-6.932a25.025 25.025 0 00-13.329-.073 2.08 2.08 0 01-1.609-.271 2.212 2.212 0 01-.957-1.365 2.274 2.274 0 01.263-1.663 2.14 2.14 0 011.319-.989 29.377 29.377 0 0115.532.147c5.077 1.441 9.703 4.224 13.424 8.074.398.415.622.975.622 1.558 0 .584-.224 1.144-.622 1.559-.21.215-.461.384-.738.494-.276.11-.57.16-.867.146zm-28.334 61.748a2.09 2.09 0 01-1.518-.641c-6.031-6.276-8.554-11.182-7.784-15.47a10.167 10.167 0 012.162-4.372 9.703 9.703 0 013.911-2.788 2.08 2.08 0 011.638-.086c.535.196.973.605 1.217 1.136.244.53.275 1.139.084 1.692a2.194 2.194 0 01-1.099 1.258c-2.246 1.105-3.443 2.386-3.7 3.911-.257 1.526.598 5.349 6.608 11.582a2.26 2.26 0 010 3.137 2.098 2.098 0 01-1.519.641z" fill="#14142B"/><path d="M206.599 501.4c1.435 4.363 4.214 8.12 7.911 10.696 4.898 3.337 8.213-.442 7.571-5.9-.578-4.929-3.828-12.598-9.089-13.769-5.26-1.171-8.04 3.691-6.393 8.973z" fill="#FFD5BD"/><path d="M373.805 968.686c2.309 0 4.555-.332 5.303-1.392a1.751 1.751 0 000-1.945 2.186 2.186 0 00-.57-.661 2.113 2.113 0 00-.777-.378c-3.015-.839-9.325 2.874-9.602 3.05a.4.4 0 00-.193.442.454.454 0 00.105.24.433.433 0 00.217.136c1.822.324 3.667.495 5.517.508zm2.865-3.624c.274-.001.547.036.812.11.178.035.344.109.491.216.149.106.272.243.364.404.3.551.194.817 0 .972-.855 1.214-5.431 1.237-8.788.751a19.115 19.115 0 017.206-2.453h-.085z" fill="#3F80FD"/><path d="M368.33 968.178h.171c2.139-.994 6.522-5.039 6.18-7.161 0-.486-.406-1.105-1.582-1.237a3.073 3.073 0 00-1.26.126c-.409.13-.787.342-1.113.625-2.311 1.967-2.802 7.006-2.823 7.205a.46.46 0 00.192.397.31.31 0 00.235.045zm4.427-7.58h.257c.77 0 .812.398.833.486.193 1.281-2.736 4.42-4.982 5.833a10.577 10.577 0 012.394-5.766c.42-.362.951-.559 1.498-.553z" fill="#3F80FD"/><path d="M347.78 967.736h18.091l-3.443-43.273h-18.091l3.443 43.273z" fill="#FFD5BD"/><path d="M365.892 965.57h-19.738a1.3 1.3 0 00-.935.353 1.389 1.389 0 00-.434.928l-1.175 16.532a3.281 3.281 0 00.86 2.337c.287.311.631.56 1.012.731.381.172.791.263 1.207.269 7.099-.133 17.321-.553 26.281-.553 10.457 0 11.548.574 23.823.574 7.42 0 8.361-7.756 5.153-8.442-14.584-3.204-18.156-3.558-31.499-11.337a9.214 9.214 0 00-4.555-1.392z" fill="#14142B"/><path opacity=".2" d="M362.407 924.485l1.797 22.3h-18.092l-1.775-22.3h18.07z" fill="#14142B"/><path d="M261.277 968.685a5.786 5.786 0 004.278-1.215c.226-.322.347-.708.347-1.106a1.92 1.92 0 00-.347-1.104 2.062 2.062 0 00-.567-.66 1.986 1.986 0 00-.78-.357c-2.631-.641-7.634 2.895-7.848 3.05a.464.464 0 00-.171.442.393.393 0 00.32.331c1.563.388 3.162.595 4.768.619zm2.267-3.558c.178-.023.357-.023.535 0a1.18 1.18 0 01.791.596c.385.729.15 1.039 0 1.127-.77 1.061-4.469 1.061-7.163.598a13.629 13.629 0 015.71-2.321h.127z" fill="#3F80FD"/><path d="M256.616 968.178h.194c1.881-1.06 5.494-5.15 5.11-7.226a1.469 1.469 0 00-.484-.837 1.395 1.395 0 00-.885-.336 2.305 2.305 0 00-1.818.576c-2.138 1.767-2.544 7.161-2.544 7.381a.45.45 0 00.192.421.42.42 0 00.235.021zm3.635-7.58h.194c.555 0 .62.332.641.442.214 1.237-2.138 4.419-3.956 5.79.13-2.129.875-4.169 2.138-5.857.275-.24.623-.373.983-.375z" fill="#3F80FD"/><path d="M240.064 967.736h18.071l9.087-43.273h-18.069l-9.089 43.273z" fill="#FFD5BD"/><path d="M259.418 965.57h-20.294c-.36-.003-.71.123-.992.356-.28.235-.474.56-.547.925l-3.572 16.532c-.087.403-.084.823.007 1.227.092.402.272.778.525 1.099.253.322.574.579.937.754a2.6 2.6 0 001.162.257c7.099-.134 10.542-.553 19.48-.553 5.496 0 12.533.574 20.123.574 7.593 0 8.555-7.756 5.475-8.442-13.921-3.161-14.968-7.492-19.353-11.647a4.31 4.31 0 00-2.951-1.082z" fill="#14142B"/><path d="M197.125 722.158s100.293 31.448 102.774 73.086c4.556 76.686-31.841 142.036-31.841 142.036h-27.116s10.307-32.398 14.006-101.859c4.641-87.295-155.081 2.033-125.548-113.263h67.725z" fill="#171347"/><path opacity=".2" d="M249.131 924.485h18.091l-4.682 22.3h-18.093l4.684-22.3z" fill="#14142B"/><path d="M176.143 740.037s129.698 8.84 134.83 79.98c5.882 81.771 7.593 135.142 7.593 135.142h-26.86s-13.815-50.145-25.661-122.236c-3.572-21.59-47.881-25.304-89.817-27.868-36.139-2.21-63.897-4.419-66.934-45.791l.471-19.227h66.378z" fill="#171347"/><path d="M325.129 947.734c.15 0-1.732 13.262-1.732 13.262h-37.23l-1.006-11.736 39.968-1.526zm-98.838 0c.149 0-3.421 13.262-3.421 13.262h-37.209l.683-11.736 39.947-1.526zm-55.985-148.557L152.15 671.726c-.487-3.45-2.161-6.604-4.713-8.884-2.552-2.28-5.813-3.536-9.187-3.536H31.134c-2.018 0-4.013.448-5.849 1.317a14.096 14.096 0 00-4.787 3.714 14.688 14.688 0 00-2.857 5.437 15.01 15.01 0 00-.407 6.173l17.535 123.23c0 1.418.272 2.822.797 4.133a10.82 10.82 0 002.268 3.501 10.396 10.396 0 003.393 2.337 10.13 10.13 0 004 .814H240.49a11.11 11.11 0 00-.797-4.132 10.83 10.83 0 00-2.268-3.501 10.41 10.41 0 00-3.393-2.337 10.133 10.133 0 00-3.999-.815h-59.728z" fill="#3F80FD"/><path opacity=".5" d="M170.306 799.177L152.15 671.726c-.487-3.45-2.161-6.604-4.713-8.884-2.552-2.28-5.813-3.536-9.187-3.536H31.134c-2.018 0-4.013.448-5.849 1.317a14.096 14.096 0 00-4.787 3.714 14.688 14.688 0 00-2.857 5.437 15.01 15.01 0 00-.407 6.173l17.535 123.23c0 1.418.272 2.822.797 4.133a10.82 10.82 0 002.268 3.501 10.396 10.396 0 003.393 2.337 10.13 10.13 0 004 .814H240.49a11.11 11.11 0 00-.797-4.132 10.83 10.83 0 00-2.268-3.501 10.41 10.41 0 00-3.393-2.337 10.133 10.133 0 00-3.999-.815h-59.728z" fill="#fff"/><path opacity=".3" d="M138.249 659.306H31.134a13.67 13.67 0 00-5.85 1.317 14.096 14.096 0 00-4.787 3.714 14.688 14.688 0 00-2.856 5.437 15.014 15.014 0 00-.408 6.173l17.536 123.23c0 1.418.271 2.822.797 4.133a10.82 10.82 0 002.268 3.501 10.396 10.396 0 003.393 2.337 10.13 10.13 0 003.999.814H158.8l-20.552-150.656z" fill="#3F80FD"/><path d="M36.138 1006.21h-6.052l15.14-196.248H51.3L36.138 1006.21z" fill="#3F80FD"/><path opacity=".6" d="M36.138 1006.21h-6.052l15.14-196.248H51.3L36.138 1006.21z" fill="#fff"/><path d="M139.105 1006.21h-6.052l15.162-196.248h6.052l-15.162 196.248z" fill="#3F80FD"/><path opacity=".6" d="M139.105 1006.21h-6.052l15.162-196.248h6.052l-15.162 196.248z" fill="#fff"/><path d="M148.429 1006.21h-6.073l-15.141-196.248h6.052l15.162 196.248z" fill="#3F80FD"/><path opacity=".7" d="M148.429 1006.21h-6.073l-15.141-196.248h6.052l15.162 196.248z" fill="#fff"/><path d="M251.396 1006.21h-6.052l-15.161-196.248h6.051l15.162 196.248z" fill="#3F80FD"/><path opacity=".7" d="M251.396 1006.21h-6.052l-15.161-196.248h6.051l15.162 196.248z" fill="#fff"/><g clip-path="url(#clip1)"><path d="M810.264 371.143l-25.454-18.26s-2.443-12.881-5.587-15.906c-4.32-3.212-21.973-11.261-28.042-9.036-4.764 2.103-4.744 28.243 0 29.566 4.745 1.326 23.722 7.407 23.722 7.407l27.161 22.723 8.2-16.494z" fill="#FFD5BD"/><path d="M968.267 376.944s-1.138 1.096-3.026 3.047c-4.45 4.491-14.435 13.554-24.783 23.258-20.693 17.537-46.226 37.134-62.083 35.636-28.455-2.674-90.539-54.777-90.539-54.777l11.694-22.189s45.217 31.065 72.379 37.588c27.161 6.523 71.137-77.367 92.246-83.221l4.112 60.658z" fill="#0048F0"/><path d="M802.789 360.329c.779.372 1.103 1.335.719 2.127l-12.353 25.443a1.494 1.494 0 01-2.619.166l-3.235-5.017a1.607 1.607 0 01-.093-1.574l11.021-22.612c.369-.756 1.251-1.073 1.993-.717l4.567 2.184z" fill="#14142A"/><path opacity=".2" d="M965.319 379.991c-4.451 4.491-13.633 13.554-24.704 23.258 5.018-23.687 20.978-43.228 20.978-43.228l3.726 19.97z" fill="#14142B"/><path d="M967.569 986.547l-20.98 2.272-3.932-46.758 20.979-2.299 3.933 46.785zm104.711-1.579h-20.33l-1.68-48.681h20.36l1.65 48.681z" fill="#FFD5BD"/><path d="M1049.11 982.535h24.7c.83 0 1.55.588 1.73 1.444l4.01 18.711c.31 1.71-.77 3.37-2.43 3.69-.18.03-.36.06-.54.06-8-.14-13.82-.65-23.85-.65-6.19 0-24.84.67-33.37.67-8.54 0-9.65-8.714-6.16-9.515 15.68-3.528 27.47-8.421 32.49-13.073a4.814 4.814 0 013.42-1.337z" fill="#171347"/><path d="M1042.41 986.224a5.996 5.996 0 01-3.91-1.069 3.056 3.056 0 01-1.01-2.674c-.02-.588.31-1.15.83-1.39 2.25-1.202 8.82 2.968 9.54 3.449.19.08.29.295.24.481a.516.516 0 01-.37.429c-1.73.453-3.51.721-5.32.774zm-3.03-4.358c-.21-.026-.44.027-.62.135-.13 0-.29.187-.31.588-.08.668.15 1.336.64 1.791a9.59 9.59 0 007.25.373 19.1 19.1 0 00-6.96-2.887z" fill="#FF3951"/><path d="M1047.61 985.475h-.24c-2.09-1.176-6.15-5.801-5.74-8.02.16-.775.8-1.309 1.55-1.309.75-.107 1.48.133 2.05.641 2.35 1.977 2.84 8.02 2.87 8.314 0 .187-.08.347-.24.454-.1 0-.18-.027-.25-.08zm-4.09-8.528h-.23c-.63 0-.68.375-.7.508-.26 1.364 2.33 4.866 4.42 6.497-.13-2.407-.98-4.68-2.41-6.577a1.574 1.574 0 00-1.08-.428z" fill="#FF3951"/><path d="M944.364 981.867h24.704c.829 0 1.553.588 1.735 1.443l4.009 18.71c.311 1.71-.776 3.37-2.431 3.69-.182.03-.363.06-.543.06-7.994-.14-13.815-.64-23.852-.64-6.182 0-24.833.66-33.37.66-8.536 0-9.648-8.711-6.156-9.514 15.677-3.529 27.472-8.421 32.49-13.073a4.816 4.816 0 013.414-1.336z" fill="#171347"/><path d="M937.639 985.556a5.998 5.998 0 01-3.906-1.069 3.058 3.058 0 01-1.009-2.674 1.474 1.474 0 01.829-1.39c2.25-1.202 8.82 2.967 9.544 3.449.181.08.286.295.232.481a.51.51 0 01-.361.428 23.774 23.774 0 01-5.329.775zm-3.026-4.438a1.02 1.02 0 00-.622.133c-.129 0-.284.189-.31.589a2.104 2.104 0 00.647 1.792 9.576 9.576 0 007.243.373 19.084 19.084 0 00-6.958-2.887z" fill="#FF3951"/><path d="M942.839 984.807h-.233c-2.096-1.176-6.157-5.8-5.743-8.02.155-.774.802-1.309 1.553-1.309.749-.107 1.473.133 2.042.641 2.355 1.978 2.846 8.02 2.871 8.315a.527.527 0 01-.232.453.423.423 0 01-.258-.08zm-4.088-8.528h-.232c-.621 0-.672.375-.7.508-.257 1.365 2.33 4.867 4.425 6.498a12.023 12.023 0 00-2.406-6.577 1.593 1.593 0 00-1.087-.429z" fill="#FF3951"/><path opacity=".2" d="M963.636 939.762l-20.979 2.299 2.044 24.115 20.979-2.273-2.044-24.141zm106.994-3.449h-20.36l.88 25.103h20.36l-.88-25.103z" fill="#14142B"/><path d="M1062.22 509.273H954.298c-10.346 57.905-42.372 262.843-19.324 445.459l36.527-4.678s-3.388-242.418 28.869-332.029c3.72 47.959 8.12 98.913 11.95 126.128 9.39 66.834 29.49 212.904 29.49 212.904h37.2s-7.61-139.815-11.12-205.499c-3.86-71.298-5.51-227.581-5.67-242.285z" fill="#EE283C"/><path opacity=".2" d="M1000.37 618.025a308.351 308.351 0 00-12.055 48.254c-3.027-42.774 9.054-87.953 9.054-87.953l3.001 39.699z" fill="#14142B"/><path d="M930.126 960.751c.374 1.574 1.844 2.595 3.395 2.357l39.593-6.087c1.613-.247 2.748-1.768 2.571-3.443l-.716-6.756c-.186-1.747-1.724-2.997-3.412-2.768l-40.619 5.492c-1.793.243-2.985 2.042-2.554 3.856l1.742 7.349zm106.894-6.138c.18 1.577 1.47 2.766 3.01 2.766h38.14c1.68 0 3.04-1.403 3.04-3.136v-7.339c0-1.71-1.33-3.104-2.98-3.137l-39.07-.756c-1.84-.036-3.29 1.616-3.07 3.505l.93 8.097z" fill="#D9DBE9"/><path d="M953.393 510.61h108.647v13.368l-110.044-1.39 1.397-11.978z" fill="#14142B"/><path d="M1025.6 504.596h-.85c-.83 0-1.51.701-1.51 1.568v20.603c0 .866.68 1.568 1.51 1.568h.85c.84 0 1.52-.702 1.52-1.568v-20.603c0-.867-.68-1.568-1.52-1.568zm-54.97 0h-.845c-.838 0-1.518.701-1.518 1.568v20.603c0 .866.68 1.568 1.518 1.568h.845c.837 0 1.517-.702 1.517-1.568v-20.603c0-.867-.68-1.568-1.517-1.568z" fill="#6E7191"/><path d="M999.895 508.284h-14.029c-1.677 0-3.035 1.405-3.035 3.136v8.699c0 1.731 1.358 3.136 3.035 3.136h14.029c1.675 0 3.035-1.405 3.035-3.136v-8.699c0-1.731-1.36-3.136-3.035-3.136z" fill="#fff"/><path d="M964.155 316.286s68.655-3.342 119.795 9.998c0 0-22.58 117.494-21.73 184.328H953.393s-7.062-125.353 10.762-194.326z" fill="#0048F0"/><path d="M1001.7 325.191c-.92.055-1.58.941-1.4 1.876l2.46 12.565c.04.223.05.421 0 .643-1.16 5.036-16.39 71.469-19.936 107.241-.046.469.118.919.442 1.252l4.707 4.822a1.48 1.48 0 001.881.21l7.778-5.103c.433-.284.698-.775.706-1.305.123-8.324 1.349-75.719 9.072-105.615.08-.315.26-.58.5-.786l12.48-10.563c.93-.785.65-2.322-.49-2.704l-8.89-2.98c-.18-.06-.36-.085-.55-.074l-8.76.521zm-16.463-104.639s-4.243 28.953 10.631 40.1c14.872 11.148 14.872-42.773 14.872-42.773l-25.503 2.673z" fill="#14142B"/><path d="M1044.91 318.798c-9.9 9.303-34.17 5.855-34.17 5.855s-15.156-4.278-11.975-9.17c8.925-1.524 13.245-5.828 15.025-11.335.99-3.422 1.3-7.004.91-10.533a55.409 55.409 0 00-.75-5.881l29.98-23.071c-3.9 15.265-8.72 43.148.98 54.135z" fill="#FFD5BD"/><path opacity=".2" d="M1037.02 279.367c-1.19 18.713-15.98 23.739-23.28 24.782a27.18 27.18 0 00.91-10.533l22.37-14.249z" fill="#14142B"/><path d="M1039.04 283.67c-6.41 9.811-18.36 13.982-29.2 10.186-6.86-2.246-12.652-7.111-16.171-13.608a32.091 32.091 0 01-1.345-2.673c-7.321-17.697-9.649-48.655 8.456-60.257 12.91-8.368 29.93-4.358 38.03 8.982 2.28 3.743 3.67 7.994 4.09 12.405 2.22 20.611 4.47 32.721-3.86 44.965z" fill="#FFD5BD"/><path d="M1013.72 249.745c.39 1.631-.36 3.155-1.43 3.342-1.06.187-2.14-1.016-2.43-2.674-.28-1.657.39-3.154 1.43-3.341 1.03-.187 2.12.962 2.43 2.673zm-18.291 3.209c.388 1.631-.362 3.181-1.423 3.368-1.061.187-2.121-1.042-2.406-2.673-.284-1.631.362-3.182 1.423-3.369 1.061-.187 2.147 1.016 2.406 2.674z" fill="#14142B"/><path d="M1001.38 252.767a63.075 63.075 0 01-5.356 15.639 9.168 9.168 0 008.016 0l-2.66-15.639z" fill="#FF97B8"/><path d="M1018.37 242.609c-.33.106-.72.026-.98-.214a7.563 7.563 0 00-6.62-2.219.96.96 0 01-1.17-.722.997.997 0 01.7-1.203 9.338 9.338 0 018.38 2.673c.37.375.39.989.03 1.364l-.03.026c-.07.107-.18.214-.31.295zm-10.29 34.111c4.81-.08 9.28-2.593 11.98-6.737a.504.504 0 00-.16-.695l-.03-.026a.486.486 0 00-.67.16c-2.56 3.769-6.7 6.068-11.15 6.202a.562.562 0 00-.49.508c0 .267.23.508.49.508l.03.08zm-21.576-28.899a.992.992 0 01-.543.16c-.518-.133-.802-.695-.673-1.203v-.026c.802-3.102 3.001-5.614 5.924-6.71a.912.912 0 011.164.614c0 .027 0 .027.026.054a.98.98 0 01-.647 1.23c-2.25.935-3.958 2.914-4.604 5.346-.13.268-.362.481-.647.535zm37.586-32.16v9.224c3.21 1.149 5.07 4.598 4.32 8.019-1.94 8.021 3.67 19.355 9.91 23.392 0 0-.21-3.341 2.58-2.914 2.8.428 4.12 17.831-.2 26.734 0 0 7.11-8.448 9.49-27.161 2.17-17.324 1.06-31.359-3.05-37.427l-23.05.133z" fill="#14142B"/><path d="M1047.14 218.334s6.7-15.612-18.29-19.168c-24.99-3.555-51.322 6.683-51.322 6.683s-1.294 24.756 19.892 24.515c20.64-.241 49.72-12.03 49.72-12.03z" fill="#14142B"/><path d="M1054.28 253.97c-1.45 5.026-4.76 9.276-9.21 11.789-5.92 3.288-10.35-1.845-9.93-8.394.41-5.855 3.9-14.784 10.47-15.292 6.57-.508 10.43 5.694 8.67 11.897z" fill="#FFD5BD"/><path d="M1040.49 306.982l-28.69 13.367-1.68-10.693-10.527 3.823c-3.802 1.363-6.182 5.266-5.742 9.383l1.164 11.763 14.565-8.234 7.24 10.693 34.46-17.136-10.79-12.966z" fill="#CAB7FF"/><path opacity=".2" d="M1074.53 381.569c-1.81 11.843-3.7 24.862-5.43 38.281-6.98-14.328-7.73-31.009-2.12-45.954l7.55 7.673z" fill="#14142B"/><path d="M1083.95 326.284c12.36 5.881 52.54 89.157 49.87 136.179-2.58 45.822-71.78 102.952-71.78 102.952s-14.98-12.565-17.07-23.365c0 0 48.76-52.21 50.05-79.587 1.27-26.893-27.16-74.853-27.16-74.853s-3.23-20.05 2.59-37.426c5.82-17.377 13.5-23.9 13.5-23.9z" fill="#0048F0"/><path d="M1044.97 530.928s11.27 26.146 20.69 31.439c0 0 2.04 8.848-6.16 20.879-8.2 12.03-39.81-29.327-14.53-52.318z" fill="#CAB7FF"/></g><defs><filter id="filter0_dd" x="373.088" y="372.572" width="419.973" height="389.532" filterUnits="userSpaceOnUse" color-interpolation-filters="sRGB"><feFlood flood-opacity="0" result="BackgroundImageFix"/><feColorMatrix in="SourceAlpha" values="0 0 0 0 0 0 0 0 0 0 0 0 0 0 0 0 0 0 127 0" result="hardAlpha"/><feOffset dy="10.492"/><feGaussianBlur stdDeviation="10.492"/><feColorMatrix values="0 0 0 0 0.078875 0 0 0 0 0.0770833 0 0 0 0 0.166667 0 0 0 0.03 0"/><feBlend in2="BackgroundImageFix" result="effect1_dropShadow"/><feColorMatrix in="SourceAlpha" values="0 0 0 0 0 0 0 0 0 0 0 0 0 0 0 0 0 0 127 0" result="hardAlpha"/><feOffset dy="-1.499"/><feGaussianBlur stdDeviation="11.241"/><feColorMatrix values="0 0 0 0 0.078875 0 0 0 0 0.0770833 0 0 0 0 0.166667 0 0 0 0.02 0"/><feBlend in2="effect1_dropShadow" result="effect2_dropShadow"/><feBlend in="SourceGraphic" in2="effect2_dropShadow" result="shape"/></filter><filter id="filter1_d" x="397.997" y="405.223" width="37.126" height="37.567" filterUnits="userSpaceOnUse" color-interpolation-filters="sRGB"><feFlood flood-opacity="0" result="BackgroundImageFix"/><feColorMatrix in="SourceAlpha" values="0 0 0 0 0 0 0 0 0 0 0 0 0 0 0 0 0 0 127 0" result="hardAlpha"/><feOffset dy="2.998"/><feGaussianBlur stdDeviation="5.995"/><feColorMatrix values="0 0 0 0 1 0 0 0 0 0.223529 0 0 0 0 0.317647 0 0 0 0.14 0"/><feBlend in2="BackgroundImageFix" result="effect1_dropShadow"/><feBlend in="SourceGraphic" in2="effect1_dropShadow" result="shape"/></filter><filter id="filter2_d" x="418.636" y="406.721" width="34.128" height="34.569" filterUnits="userSpaceOnUse" color-interpolation-filters="sRGB"><feFlood flood-opacity="0" result="BackgroundImageFix"/><feColorMatrix in="SourceAlpha" values="0 0 0 0 0 0 0 0 0 0 0 0 0 0 0 0 0 0 127 0" result="hardAlpha"/><feOffset dy="2.998"/><feGaussianBlur stdDeviation="5.246"/><feColorMatrix values="0 0 0 0 1 0 0 0 0 0.760784 0 0 0 0 0.14902 0 0 0 0.14 0"/><feBlend in2="BackgroundImageFix" result="effect1_dropShadow"/><feBlend in="SourceGraphic" in2="effect1_dropShadow" result="shape"/></filter><filter id="filter3_d" x="439.277" y="408.22" width="31.132" height="31.572" filterUnits="userSpaceOnUse" color-interpolation-filters="sRGB"><feFlood flood-opacity="0" result="BackgroundImageFix"/><feColorMatrix in="SourceAlpha" values="0 0 0 0 0 0 0 0 0 0 0 0 0 0 0 0 0 0 127 0" result="hardAlpha"/><feOffset dy="2.998"/><feGaussianBlur stdDeviation="4.496"/><feColorMatrix values="0 0 0 0 0.603922 0 0 0 0 0.909804 0 0 0 0 0.52549 0 0 0 0.29 0"/><feBlend in2="BackgroundImageFix" result="effect1_dropShadow"/><feBlend in="SourceGraphic" in2="effect1_dropShadow" result="shape"/></filter><filter id="filter4_dd" x="614.42" y="3.67" width="407.057" height="396.909" filterUnits="userSpaceOnUse" color-interpolation-filters="sRGB"><feFlood flood-opacity="0" result="BackgroundImageFix"/><feColorMatrix in="SourceAlpha" values="0 0 0 0 0 0 0 0 0 0 0 0 0 0 0 0 0 0 127 0" result="hardAlpha"/><feOffset dy="8.993"/><feGaussianBlur stdDeviation="13.489"/><feColorMatrix values="0 0 0 0 0.0987208 0 0 0 0 0.0910417 0 0 0 0 0.475 0 0 0 0.02 0"/><feBlend in2="BackgroundImageFix" result="effect1_dropShadow"/><feColorMatrix in="SourceAlpha" values="0 0 0 0 0 0 0 0 0 0 0 0 0 0 0 0 0 0 127 0" result="hardAlpha"/><feOffset dy="-1.499"/><feGaussianBlur stdDeviation="11.241"/><feColorMatrix values="0 0 0 0 0.078875 0 0 0 0 0.0770833 0 0 0 0 0.166667 0 0 0 0.04 0"/><feBlend in2="effect1_dropShadow" result="effect2_dropShadow"/><feBlend in="SourceGraphic" in2="effect2_dropShadow" result="shape"/></filter><filter id="filter5_d" x="643.387" y="37.889" width="37.127" height="37.567" filterUnits="userSpaceOnUse" color-interpolation-filters="sRGB"><feFlood flood-opacity="0" result="BackgroundImageFix"/><feColorMatrix in="SourceAlpha" values="0 0 0 0 0 0 0 0 0 0 0 0 0 0 0 0 0 0 127 0" result="hardAlpha"/><feOffset dy="2.998"/><feGaussianBlur stdDeviation="5.995"/><feColorMatrix values="0 0 0 0 1 0 0 0 0 0.223529 0 0 0 0 0.317647 0 0 0 0.14 0"/><feBlend in2="BackgroundImageFix" result="effect1_dropShadow"/><feBlend in="SourceGraphic" in2="effect1_dropShadow" result="shape"/></filter><filter id="filter6_d" x="665.525" y="39.389" width="34.129" height="34.569" filterUnits="userSpaceOnUse" color-interpolation-filters="sRGB"><feFlood flood-opacity="0" result="BackgroundImageFix"/><feColorMatrix in="SourceAlpha" values="0 0 0 0 0 0 0 0 0 0 0 0 0 0 0 0 0 0 127 0" result="hardAlpha"/><feOffset dy="2.998"/><feGaussianBlur stdDeviation="5.246"/><feColorMatrix values="0 0 0 0 1 0 0 0 0 0.760784 0 0 0 0 0.14902 0 0 0 0.14 0"/><feBlend in2="BackgroundImageFix" result="effect1_dropShadow"/><feBlend in="SourceGraphic" in2="effect1_dropShadow" result="shape"/></filter><filter id="filter7_d" x="687.664" y="40.888" width="31.132" height="31.571" filterUnits="userSpaceOnUse" color-interpolation-filters="sRGB"><feFlood flood-opacity="0" result="BackgroundImageFix"/><feColorMatrix in="SourceAlpha" values="0 0 0 0 0 0 0 0 0 0 0 0 0 0 0 0 0 0 127 0" result="hardAlpha"/><feOffset dy="2.998"/><feGaussianBlur stdDeviation="4.496"/><feColorMatrix values="0 0 0 0 0.603922 0 0 0 0 0.909804 0 0 0 0 0.52549 0 0 0 0.29 0"/><feBlend in2="BackgroundImageFix" result="effect1_dropShadow"/><feBlend in="SourceGraphic" in2="effect1_dropShadow" result="shape"/></filter><filter id="filter8_d" x="671.48" y="145.504" width="167.038" height="34.895" filterUnits="userSpaceOnUse" color-interpolation-filters="sRGB"><feFlood flood-opacity="0" result="BackgroundImageFix"/><feColorMatrix in="SourceAlpha" values="0 0 0 0 0 0 0 0 0 0 0 0 0 0 0 0 0 0 127 0" result="hardAlpha"/><feOffset dy="4.496"/><feGaussianBlur stdDeviation="5.995"/><feColorMatrix values="0 0 0 0 1 0 0 0 0 0.223529 0 0 0 0 0.317647 0 0 0 0.15 0"/><feBlend in2="BackgroundImageFix" result="effect1_dropShadow"/><feBlend in="SourceGraphic" in2="effect1_dropShadow" result="shape"/></filter><filter id="filter9_d" x="671.48" y="181.049" width="247.223" height="34.895" filterUnits="userSpaceOnUse" color-interpolation-filters="sRGB"><feFlood flood-opacity="0" result="BackgroundImageFix"/><feColorMatrix in="SourceAlpha" values="0 0 0 0 0 0 0 0 0 0 0 0 0 0 0 0 0 0 127 0" result="hardAlpha"/><feOffset dy="2.998"/><feGaussianBlur stdDeviation="5.995"/><feColorMatrix values="0 0 0 0 0.890196 0 0 0 0 0.795294 0 0 0 0 0.458824 0 0 0 0.31 0"/><feBlend in2="BackgroundImageFix" result="effect1_dropShadow"/><feBlend in="SourceGraphic" in2="effect1_dropShadow" result="shape"/></filter><filter id="filter10_d" x="671.48" y="219.59" width="79.936" height="34.895" filterUnits="userSpaceOnUse" color-interpolation-filters="sRGB"><feFlood flood-opacity="0" result="BackgroundImageFix"/><feColorMatrix in="SourceAlpha" values="0 0 0 0 0 0 0 0 0 0 0 0 0 0 0 0 0 0 127 0" result="hardAlpha"/><feOffset dy="4.496"/><feGaussianBlur stdDeviation="5.995"/><feColorMatrix values="0 0 0 0 1 0 0 0 0 0.223529 0 0 0 0 0.317647 0 0 0 0.15 0"/><feBlend in2="BackgroundImageFix" result="effect1_dropShadow"/><feBlend in="SourceGraphic" in2="effect1_dropShadow" result="shape"/></filter><filter id="filter11_d" x="671.48" y="255.137" width="201.306" height="34.895" filterUnits="userSpaceOnUse" color-interpolation-filters="sRGB"><feFlood flood-opacity="0" result="BackgroundImageFix"/><feColorMatrix in="SourceAlpha" values="0 0 0 0 0 0 0 0 0 0 0 0 0 0 0 0 0 0 127 0" result="hardAlpha"/><feOffset dy="2.998"/><feGaussianBlur stdDeviation="5.995"/><feColorMatrix values="0 0 0 0 0.890196 0 0 0 0 0.795294 0 0 0 0 0.458824 0 0 0 0.31 0"/><feBlend in2="BackgroundImageFix" result="effect1_dropShadow"/><feBlend in="SourceGraphic" in2="effect1_dropShadow" result="shape"/></filter><filter id="filter12_d" x="671.48" y="293.678" width="227.623" height="34.896" filterUnits="userSpaceOnUse" color-interpolation-filters="sRGB"><feFlood flood-opacity="0" result="BackgroundImageFix"/><feColorMatrix in="SourceAlpha" values="0 0 0 0 0 0 0 0 0 0 0 0 0 0 0 0 0 0 127 0" result="hardAlpha"/><feOffset dy="4.496"/><feGaussianBlur stdDeviation="5.995"/><feColorMatrix values="0 0 0 0 1 0 0 0 0 0.223529 0 0 0 0 0.317647 0 0 0 0.15 0"/><feBlend in2="BackgroundImageFix" result="effect1_dropShadow"/><feBlend in="SourceGraphic" in2="effect1_dropShadow" result="shape"/></filter><filter id="filter13_d" x="481.912" y="493.188" width="121.813" height="149.868" filterUnits="userSpaceOnUse" color-interpolation-filters="sRGB"><feFlood flood-opacity="0" result="BackgroundImageFix"/><feColorMatrix in="SourceAlpha" values="0 0 0 0 0 0 0 0 0 0 0 0 0 0 0 0 0 0 127 0" result="hardAlpha"/><feOffset dy="5.995"/><feGaussianBlur stdDeviation="5.995"/><feColorMatrix values="0 0 0 0 1 0 0 0 0 0.760784 0 0 0 0 0.14902 0 0 0 0.21 0"/><feBlend in2="BackgroundImageFix" result="effect1_dropShadow"/><feBlend in="SourceGraphic" in2="effect1_dropShadow" result="shape"/></filter><filter id="filter14_d" x="417.509" y="492.538" width="155.338" height="92.054" filterUnits="userSpaceOnUse" color-interpolation-filters="sRGB"><feFlood flood-opacity="0" result="BackgroundImageFix"/><feColorMatrix in="SourceAlpha" values="0 0 0 0 0 0 0 0 0 0 0 0 0 0 0 0 0 0 127 0" result="hardAlpha"/><feOffset dy="5.995"/><feGaussianBlur stdDeviation="5.995"/><feColorMatrix values="0 0 0 0 1 0 0 0 0 0.505882 0 0 0 0 0.223529 0 0 0 0.16 0"/><feBlend in2="BackgroundImageFix" result="effect1_dropShadow"/><feBlend in="SourceGraphic" in2="effect1_dropShadow" result="shape"/></filter><filter id="filter15_d" x="392.578" y="517.827" width="168.437" height="193.414" filterUnits="userSpaceOnUse" color-interpolation-filters="sRGB"><feFlood flood-opacity="0" result="BackgroundImageFix"/><feColorMatrix in="SourceAlpha" values="0 0 0 0 0 0 0 0 0 0 0 0 0 0 0 0 0 0 127 0" result="hardAlpha"/><feOffset dy="8.993"/><feGaussianBlur stdDeviation="11.99"/><feColorMatrix values="0 0 0 0 1 0 0 0 0 0.223529 0 0 0 0 0.317647 0 0 0 0.34 0"/><feBlend in2="BackgroundImageFix" result="effect1_dropShadow"/><feBlend in="SourceGraphic" in2="effect1_dropShadow" result="shape"/></filter><filter id="filter16_d" x="617.214" y="540.585" width="41.966" height="42.568" filterUnits="userSpaceOnUse" color-interpolation-filters="sRGB"><feFlood flood-opacity="0" result="BackgroundImageFix"/><feColorMatrix in="SourceAlpha" values="0 0 0 0 0 0 0 0 0 0 0 0 0 0 0 0 0 0 127 0" result="hardAlpha"/><feOffset dy="5.995"/><feGaussianBlur stdDeviation="5.995"/><feColorMatrix values="0 0 0 0 1 0 0 0 0 0.223529 0 0 0 0 0.317647 0 0 0 0.19 0"/><feBlend in2="BackgroundImageFix" result="effect1_dropShadow"/><feBlend in="SourceGraphic" in2="effect1_dropShadow" result="shape"/></filter><filter id="filter17_d" x="623.209" y="579.107" width="29.976" height="30.578" filterUnits="userSpaceOnUse" color-interpolation-filters="sRGB"><feFlood flood-opacity="0" result="BackgroundImageFix"/><feColorMatrix in="SourceAlpha" values="0 0 0 0 0 0 0 0 0 0 0 0 0 0 0 0 0 0 127 0" result="hardAlpha"/><feOffset dy="5.995"/><feGaussianBlur stdDeviation="2.998"/><feColorMatrix values="0 0 0 0 1 0 0 0 0 0.505882 0 0 0 0 0.223529 0 0 0 0.13 0"/><feBlend in2="BackgroundImageFix" result="effect1_dropShadow"/><feBlend in="SourceGraphic" in2="effect1_dropShadow" result="shape"/></filter><filter id="filter18_d" x="618.713" y="610.136" width="38.969" height="39.571" filterUnits="userSpaceOnUse" color-interpolation-filters="sRGB"><feFlood flood-opacity="0" result="BackgroundImageFix"/><feColorMatrix in="SourceAlpha" values="0 0 0 0 0 0 0 0 0 0 0 0 0 0 0 0 0 0 127 0" result="hardAlpha"/><feOffset dy="8.993"/><feGaussianBlur stdDeviation="5.246"/><feColorMatrix values="0 0 0 0 1 0 0 0 0 0.760784 0 0 0 0 0.14902 0 0 0 0.44 0"/><feBlend in2="BackgroundImageFix" result="effect1_dropShadow"/><feBlend in="SourceGraphic" in2="effect1_dropShadow" result="shape"/></filter><filter id="filter19_dd" x="202.732" y=".802" width="428.967" height="396.909" filterUnits="userSpaceOnUse" color-interpolation-filters="sRGB"><feFlood flood-opacity="0" result="BackgroundImageFix"/><feColorMatrix in="SourceAlpha" values="0 0 0 0 0 0 0 0 0 0 0 0 0 0 0 0 0 0 127 0" result="hardAlpha"/><feOffset dy="8.993"/><feGaussianBlur stdDeviation="13.489"/><feColorMatrix values="0 0 0 0 0.0987208 0 0 0 0 0.0910417 0 0 0 0 0.475 0 0 0 0.02 0"/><feBlend in2="BackgroundImageFix" result="effect1_dropShadow"/><feColorMatrix in="SourceAlpha" values="0 0 0 0 0 0 0 0 0 0 0 0 0 0 0 0 0 0 127 0" result="hardAlpha"/><feOffset dy="-1.499"/><feGaussianBlur stdDeviation="11.241"/><feColorMatrix values="0 0 0 0 0.078875 0 0 0 0 0.0770833 0 0 0 0 0.166667 0 0 0 0.04 0"/><feBlend in2="effect1_dropShadow" result="effect2_dropShadow"/><feBlend in="SourceGraphic" in2="effect2_dropShadow" result="shape"/></filter><filter id="filter20_d" x="489.158" y="172.316" width="50.959" height="178.726" filterUnits="userSpaceOnUse" color-interpolation-filters="sRGB"><feFlood flood-opacity="0" result="BackgroundImageFix"/><feColorMatrix in="SourceAlpha" values="0 0 0 0 0 0 0 0 0 0 0 0 0 0 0 0 0 0 127 0" result="hardAlpha"/><feOffset dy="5.995"/><feGaussianBlur stdDeviation="8.243"/><feColorMatrix values="0 0 0 0 1 0 0 0 0 0.760784 0 0 0 0 0.14902 0 0 0 0.22 0"/><feBlend in2="BackgroundImageFix" result="effect1_dropShadow"/><feBlend in="SourceGraphic" in2="effect1_dropShadow" result="shape"/></filter><filter id="filter21_d" x="411.22" y="259.671" width="50.959" height="91.347" filterUnits="userSpaceOnUse" color-interpolation-filters="sRGB"><feFlood flood-opacity="0" result="BackgroundImageFix"/><feColorMatrix in="SourceAlpha" values="0 0 0 0 0 0 0 0 0 0 0 0 0 0 0 0 0 0 127 0" result="hardAlpha"/><feOffset dy="5.995"/><feGaussianBlur stdDeviation="8.243"/><feColorMatrix values="0 0 0 0 1 0 0 0 0 0.760784 0 0 0 0 0.14902 0 0 0 0.22 0"/><feBlend in2="BackgroundImageFix" result="effect1_dropShadow"/><feBlend in="SourceGraphic" in2="effect1_dropShadow" result="shape"/></filter><filter id="filter22_d" x="333.283" y="145.212" width="50.96" height="205.806" filterUnits="userSpaceOnUse" color-interpolation-filters="sRGB"><feFlood flood-opacity="0" result="BackgroundImageFix"/><feColorMatrix in="SourceAlpha" values="0 0 0 0 0 0 0 0 0 0 0 0 0 0 0 0 0 0 127 0" result="hardAlpha"/><feOffset dy="5.995"/><feGaussianBlur stdDeviation="8.243"/><feColorMatrix values="0 0 0 0 1 0 0 0 0 0.760784 0 0 0 0 0.14902 0 0 0 0.22 0"/><feBlend in2="BackgroundImageFix" result="effect1_dropShadow"/><feBlend in="SourceGraphic" in2="effect1_dropShadow" result="shape"/></filter><filter id="filter23_d" x="233.635" y="36.335" width="37.127" height="37.567" filterUnits="userSpaceOnUse" color-interpolation-filters="sRGB"><feFlood flood-opacity="0" result="BackgroundImageFix"/><feColorMatrix in="SourceAlpha" values="0 0 0 0 0 0 0 0 0 0 0 0 0 0 0 0 0 0 127 0" result="hardAlpha"/><feOffset dy="2.998"/><feGaussianBlur stdDeviation="5.995"/><feColorMatrix values="0 0 0 0 1 0 0 0 0 0.223529 0 0 0 0 0.317647 0 0 0 0.14 0"/><feBlend in2="BackgroundImageFix" result="effect1_dropShadow"/><feBlend in="SourceGraphic" in2="effect1_dropShadow" result="shape"/></filter><filter id="filter24_d" x="254.275" y="37.834" width="34.129" height="34.569" filterUnits="userSpaceOnUse" color-interpolation-filters="sRGB"><feFlood flood-opacity="0" result="BackgroundImageFix"/><feColorMatrix in="SourceAlpha" values="0 0 0 0 0 0 0 0 0 0 0 0 0 0 0 0 0 0 127 0" result="hardAlpha"/><feOffset dy="2.998"/><feGaussianBlur stdDeviation="5.246"/><feColorMatrix values="0 0 0 0 1 0 0 0 0 0.760784 0 0 0 0 0.14902 0 0 0 0.14 0"/><feBlend in2="BackgroundImageFix" result="effect1_dropShadow"/><feBlend in="SourceGraphic" in2="effect1_dropShadow" result="shape"/></filter><filter id="filter25_d" x="274.915" y="39.332" width="31.132" height="31.571" filterUnits="userSpaceOnUse" color-interpolation-filters="sRGB"><feFlood flood-opacity="0" result="BackgroundImageFix"/><feColorMatrix in="SourceAlpha" values="0 0 0 0 0 0 0 0 0 0 0 0 0 0 0 0 0 0 127 0" result="hardAlpha"/><feOffset dy="2.998"/><feGaussianBlur stdDeviation="4.496"/><feColorMatrix values="0 0 0 0 0.603922 0 0 0 0 0.909804 0 0 0 0 0.52549 0 0 0 0.29 0"/><feBlend in2="BackgroundImageFix" result="effect1_dropShadow"/><feBlend in="SourceGraphic" in2="effect1_dropShadow" result="shape"/></filter><clipPath id="clip0"><path fill="#fff" transform="translate(201.996)" d="M0 0h819.845v763.629H0z"/></clipPath><clipPath id="clip1"><path fill="#fff" transform="matrix(-1 0 0 1 1133.95 198.416)" d="M0 0h386.95v809.194H0z"/></clipPath></defs></svg>