<svg width="547" height="493" fill="none" xmlns="http://www.w3.org/2000/svg"><g filter="url(#filter0_dd)"><path d="M359.359 256.015H149.153c-11.046 0-20 8.954-20 20v175.68c0 11.046 8.954 20 20 20h210.206c11.046 0 20-8.954 20-20v-175.68c0-11.046-8.954-20-20-20z" fill="#fff" fill-opacity=".01"/></g><path d="M359.359 256.015H149.153c-11.046 0-20 8.954-20 20v175.68c0 11.046 8.954 20 20 20h210.206c11.046 0 20-8.954 20-20v-175.68c0-11.046-8.954-20-20-20z" fill="#fff"/><g filter="url(#filter1_d)"><path d="M147.542 271.804a4.384 4.384 0 01-8.686.856 4.387 4.387 0 011.865-4.502 4.383 4.383 0 016.821 3.646z" fill="#FF3951" fill-opacity=".01"/></g><path d="M147.542 271.804a4.384 4.384 0 01-8.686.856 4.387 4.387 0 011.865-4.502 4.383 4.383 0 016.821 3.646z" fill="#FF3951"/><g filter="url(#filter2_d)"><path d="M160.313 271.804a4.384 4.384 0 01-8.686.856 4.387 4.387 0 011.865-4.502 4.383 4.383 0 016.821 3.646z" fill="#FFC226" fill-opacity=".01"/></g><path d="M160.313 271.804a4.384 4.384 0 01-8.686.856 4.387 4.387 0 011.865-4.502 4.383 4.383 0 016.821 3.646z" fill="#FFC226"/><g filter="url(#filter3_d)"><path d="M173.085 271.804a4.386 4.386 0 11-8.77-.001 4.386 4.386 0 018.77.001z" fill="#9AE886" fill-opacity=".01"/></g><path d="M173.085 271.804a4.386 4.386 0 11-8.77-.001 4.386 4.386 0 018.77.001z" fill="#9AE886"/><path d="M379.359 280.693H129.153v1.461h250.206v-1.461z" fill="#F5F7FC"/><path d="M358.914 299.434h-87.838a4 4 0 000 8h87.838a4 4 0 000-8zm-32.779 14h-55.059a4 4 0 000 8h55.059a4 4 0 000-8z" fill="#EFF0F7"/><g filter="url(#filter4_dd)"><path d="M508.758 17.852H313.17c-11.046 0-20 8.954-20 20v177.54c0 11.046 8.954 20 20 20h195.588c11.046 0 20-8.954 20-20V37.852c0-11.046-8.954-20-20-20z" fill="#fff" fill-opacity=".01"/></g><path d="M508.758 17.852H313.17c-11.046 0-20 8.954-20 20v177.54c0 11.046 8.954 20 20 20h195.588c11.046 0 20-8.954 20-20V37.852c0-11.046-8.954-20-20-20z" fill="#fff"/><g filter="url(#filter5_d)"><path d="M311.267 34.653a4.385 4.385 0 11-8.77.001 4.385 4.385 0 018.77 0z" fill="#FF3951" fill-opacity=".01"/></g><path d="M311.267 34.653a4.385 4.385 0 11-8.77.001 4.385 4.385 0 018.77 0z" fill="#FF3951"/><g filter="url(#filter6_d)"><path d="M325.038 34.654a4.385 4.385 0 11-8.769 0 4.385 4.385 0 018.769 0z" fill="#FFC226" fill-opacity=".01"/></g><path d="M325.038 34.654a4.385 4.385 0 11-8.769 0 4.385 4.385 0 018.769 0z" fill="#FFC226"/><g filter="url(#filter7_d)"><path d="M338.809 34.654a4.385 4.385 0 11-8.769 0 4.385 4.385 0 018.769 0z" fill="#9AE886" fill-opacity=".01"/></g><path d="M338.809 34.654a4.385 4.385 0 11-8.769 0 4.385 4.385 0 018.769 0z" fill="#9AE886"/><path d="M528.509 43.541H292.921v1.462h235.588v-1.462z" fill="#F5F7FC"/><path d="M473.112 61.449H318.995a4 4 0 000 8h154.117a4 4 0 000-8zm-101.286 14h-52.831a4 4 0 000 8h52.831a4 4 0 100-8z" fill="#EFF0F7"/><path d="M503.41 98.776H318.518a3.523 3.523 0 100 7.046H503.41a3.523 3.523 0 100-7.046z" fill="#F5F7FC"/><g filter="url(#filter8_d)"><path d="M413.165 98.776h-88.402a3.523 3.523 0 00-.001 7.046h88.403a3.523 3.523 0 100-7.046z" fill="#FF3951" fill-opacity=".01"/></g><path d="M413.165 98.776h-88.402a3.523 3.523 0 00-.001 7.046h88.403a3.523 3.523 0 100-7.046z" fill="#FF3951"/><path d="M503.005 122.692H318.923a3.928 3.928 0 000 7.857h184.082a3.929 3.929 0 000-7.857z" fill="#F5F7FC"/><g filter="url(#filter9_d)"><path d="M466.664 122.692H324.763a3.523 3.523 0 00-.001 7.046h141.902a3.523 3.523 0 000-7.046z" fill="#FFC226" fill-opacity=".01"/></g><path d="M466.664 122.692H324.763a3.523 3.523 0 00-.001 7.046h141.902a3.523 3.523 0 000-7.046z" fill="#FFC226"/><path d="M503.41 146.607H318.518a3.523 3.523 0 100 7.046H503.41a3.523 3.523 0 100-7.046z" fill="#F5F7FC"/><g filter="url(#filter10_d)"><path d="M355.05 146.607h-30.287a3.523 3.523 0 100 7.046h30.287a3.523 3.523 0 100-7.046z" fill="#FF3951" fill-opacity=".01"/></g><path d="M355.05 146.607h-30.287a3.523 3.523 0 100 7.046h30.287a3.523 3.523 0 100-7.046z" fill="#FF3951"/><path d="M503.41 170.522H318.518a3.523 3.523 0 000 7.046H503.41a3.523 3.523 0 100-7.046z" fill="#F5F7FC"/><g filter="url(#filter11_d)"><path d="M436.028 170.523H324.763a3.523 3.523 0 100 7.046h111.265a3.523 3.523 0 000-7.046z" fill="#FFC226" fill-opacity=".01"/></g><path d="M436.028 170.523H324.763a3.523 3.523 0 100 7.046h111.265a3.523 3.523 0 000-7.046z" fill="#FFC226"/><path d="M503.41 194.438H318.518a3.523 3.523 0 000 7.047H503.41a3.523 3.523 0 000-7.047z" fill="#F5F7FC"/><g filter="url(#filter12_d)"><path d="M453.587 194.438H324.763a3.523 3.523 0 000 7.047h128.824a3.523 3.523 0 000-7.047z" fill="#FF3951" fill-opacity=".01"/></g><path d="M453.587 194.438H324.763a3.523 3.523 0 000 7.047h128.824a3.523 3.523 0 000-7.047z" fill="#FF3951"/><path d="M260.034 379.873c0 32.275-26.164 58.439-58.439 58.439s-58.439-26.164-58.439-58.439 26.164-58.439 58.439-58.439 58.439 26.164 58.439 58.439zm-90.692 0c0 17.813 14.44 32.254 32.253 32.254 17.813 0 32.254-14.441 32.254-32.254 0-17.813-14.441-32.254-32.254-32.254-17.813 0-32.253 14.441-32.253 32.254z" fill="#F5F7FC"/><g filter="url(#filter13_d)"><path d="M207.762 334.855a45.439 45.439 0 0137.897 56.11" stroke="#FFC226" stroke-opacity=".01" stroke-width="26" stroke-linecap="round"/></g><path d="M207.762 334.855a45.439 45.439 0 0137.897 56.11" stroke="#FFC226" stroke-width="26" stroke-linecap="round"/><g filter="url(#filter14_d)"><path d="M164.792 353.223a45.443 45.443 0 0161.639-11.401" stroke="#FF8139" stroke-opacity=".01" stroke-width="26" stroke-linecap="round"/></g><path d="M164.792 353.223a45.443 45.443 0 0161.639-11.401" stroke="#FF8139" stroke-width="26" stroke-linecap="round"/><g filter="url(#filter15_d)"><path d="M210.535 424.424a45.437 45.437 0 01-46.049-18.33 45.432 45.432 0 01-1.898-49.526" stroke="#FF3951" stroke-opacity=".01" stroke-width="26" stroke-linecap="round"/></g><path d="M210.535 424.424a45.437 45.437 0 01-46.049-18.33 45.432 45.432 0 01-1.898-49.526" stroke="#FF3951" stroke-width="26" stroke-linecap="round"/><g filter="url(#filter16_d)"><path d="M291.034 364.873a6 6 0 100-12 6 6 0 000 12z" fill="#FF3951" fill-opacity=".01"/></g><path d="M291.034 364.873a6 6 0 100-12 6 6 0 000 12z" fill="#FF3951"/><path d="M353.174 355.873h-48.14a3 3 0 100 6h48.14a3 3 0 000-6z" fill="#EFF0F7"/><g filter="url(#filter17_d)"><path d="M291.034 385.873a6 6 0 100-12 6 6 0 000 12z" fill="#FF8139" fill-opacity=".01"/></g><path d="M291.034 385.873a6 6 0 100-12 6 6 0 000 12z" fill="#FF8139"/><path d="M353.174 376.873h-48.14a3 3 0 100 6h48.14a3 3 0 000-6z" fill="#EFF0F7"/><g filter="url(#filter18_d)"><path d="M291.034 406.873a6 6 0 100-12 6 6 0 000 12z" fill="#FFC226" fill-opacity=".01"/></g><path d="M291.034 406.873a6 6 0 100-12 6 6 0 000 12z" fill="#FFC226"/><path d="M353.174 397.873h-48.14a3 3 0 100 6h48.14a3 3 0 000-6z" fill="#EFF0F7"/><g filter="url(#filter19_dd)"><path d="M248.698 16H38.491c-11.045 0-20 8.954-20 20v177.54c0 11.046 8.955 20 20 20h210.207c11.046 0 20-8.954 20-20V36c0-11.046-8.954-20-20-20z" fill="#fff" fill-opacity=".01"/></g><path d="M248.698 16H38.491c-11.045 0-20 8.954-20 20v177.54c0 11.046 8.955 20 20 20h210.207c11.046 0 20-8.954 20-20V36c0-11.046-8.954-20-20-20z" fill="#fff"/><path d="M268.698 42.538H18.492V44h250.206v-1.462z" fill="#F5F7FC"/><path d="M221.058 60.445H66.161a3.61 3.61 0 100 7.22h154.897a3.61 3.61 0 000-7.22zm-27.731 13.22h-99.45a3.61 3.61 0 000 7.22h99.45a3.61 3.61 0 100-7.22z" fill="#EFF0F7"/><g filter="url(#filter20_d)"><path d="M202.595 124.021v82.098a6 6 0 0012 0v-82.098a6 6 0 00-12 0z" fill="#FFC226" fill-opacity=".01"/></g><path d="M202.595 124.021v82.098a6 6 0 0012 0v-82.098a6 6 0 00-12 0z" fill="#FFC226"/><path d="M176.595 136.549v69.555a6 6 0 1012 0v-69.555a6 6 0 00-12 0z" fill="#FF8139"/><g filter="url(#filter21_d)"><path d="M150.595 180.418v25.686a6 6 0 1012 0v-25.686a6 6 0 00-12 0z" fill="#FFC226" fill-opacity=".01"/></g><path d="M150.595 180.418v25.686a6 6 0 1012 0v-25.686a6 6 0 00-12 0z" fill="#FFC226"/><path d="M124.595 114.709v91.395a6 6 0 1012 0v-91.395a6 6 0 00-12 0z" fill="#FF8139"/><g filter="url(#filter22_d)"><path d="M98.595 106.523v99.581a6 6 0 1012 0v-99.581a6 6 0 00-12 0z" fill="#FFC226" fill-opacity=".01"/></g><path d="M98.595 106.523v99.581a6 6 0 1012 0v-99.581a6 6 0 00-12 0z" fill="#FFC226"/><path d="M72.595 147.41v58.694a6 6 0 1012 0V147.41a6 6 0 10-12 0z" fill="#FF8139"/><g filter="url(#filter23_d)"><path d="M37.88 33.65a4.386 4.386 0 11-8.77 0 4.386 4.386 0 018.77 0z" fill="#FF3951" fill-opacity=".01"/></g><path d="M37.88 33.65a4.386 4.386 0 11-8.77 0 4.386 4.386 0 018.77 0z" fill="#FF3951"/><g filter="url(#filter24_d)"><path d="M50.652 33.65a4.385 4.385 0 11-8.77 0 4.385 4.385 0 018.77 0z" fill="#FFC226" fill-opacity=".01"/></g><path d="M50.652 33.65a4.385 4.385 0 11-8.77 0 4.385 4.385 0 018.77 0z" fill="#FFC226"/><g filter="url(#filter25_d)"><path d="M63.423 33.65a4.385 4.385 0 11-8.77 0 4.385 4.385 0 018.77 0z" fill="#9AE886" fill-opacity=".01"/></g><path d="M63.423 33.65a4.385 4.385 0 11-8.77 0 4.385 4.385 0 018.77 0z" fill="#9AE886"/><defs><filter id="filter0_dd" x="114.153" y="240.015" width="280.206" height="252.68" filterUnits="userSpaceOnUse" color-interpolation-filters="sRGB"><feFlood flood-opacity="0" result="BackgroundImageFix"/><feColorMatrix in="SourceAlpha" values="0 0 0 0 0 0 0 0 0 0 0 0 0 0 0 0 0 0 127 0"/><feOffset dy="7"/><feGaussianBlur stdDeviation="7"/><feColorMatrix values="0 0 0 0 0.078875 0 0 0 0 0.0770833 0 0 0 0 0.166667 0 0 0 0.03 0"/><feBlend in2="BackgroundImageFix" result="effect1_dropShadow"/><feColorMatrix in="SourceAlpha" values="0 0 0 0 0 0 0 0 0 0 0 0 0 0 0 0 0 0 127 0"/><feOffset dy="-1"/><feGaussianBlur stdDeviation="7.5"/><feColorMatrix values="0 0 0 0 0.078875 0 0 0 0 0.0770833 0 0 0 0 0.166667 0 0 0 0.02 0"/><feBlend in2="effect1_dropShadow" result="effect2_dropShadow"/><feBlend in="SourceGraphic" in2="effect2_dropShadow" result="shape"/></filter><filter id="filter1_d" x="130.772" y="261.419" width="24.77" height="24.771" filterUnits="userSpaceOnUse" color-interpolation-filters="sRGB"><feFlood flood-opacity="0" result="BackgroundImageFix"/><feColorMatrix in="SourceAlpha" values="0 0 0 0 0 0 0 0 0 0 0 0 0 0 0 0 0 0 127 0"/><feOffset dy="2"/><feGaussianBlur stdDeviation="4"/><feColorMatrix values="0 0 0 0 1 0 0 0 0 0.223529 0 0 0 0 0.317647 0 0 0 0.14 0"/><feBlend in2="BackgroundImageFix" result="effect1_dropShadow"/><feBlend in="SourceGraphic" in2="effect1_dropShadow" result="shape"/></filter><filter id="filter2_d" x="144.543" y="262.419" width="22.77" height="22.771" filterUnits="userSpaceOnUse" color-interpolation-filters="sRGB"><feFlood flood-opacity="0" result="BackgroundImageFix"/><feColorMatrix in="SourceAlpha" values="0 0 0 0 0 0 0 0 0 0 0 0 0 0 0 0 0 0 127 0"/><feOffset dy="2"/><feGaussianBlur stdDeviation="3.5"/><feColorMatrix values="0 0 0 0 1 0 0 0 0 0.760784 0 0 0 0 0.14902 0 0 0 0.14 0"/><feBlend in2="BackgroundImageFix" result="effect1_dropShadow"/><feBlend in="SourceGraphic" in2="effect1_dropShadow" result="shape"/></filter><filter id="filter3_d" x="158.314" y="263.419" width="20.771" height="20.771" filterUnits="userSpaceOnUse" color-interpolation-filters="sRGB"><feFlood flood-opacity="0" result="BackgroundImageFix"/><feColorMatrix in="SourceAlpha" values="0 0 0 0 0 0 0 0 0 0 0 0 0 0 0 0 0 0 127 0"/><feOffset dy="2"/><feGaussianBlur stdDeviation="3"/><feColorMatrix values="0 0 0 0 0.603922 0 0 0 0 0.909804 0 0 0 0 0.52549 0 0 0 0.29 0"/><feBlend in2="BackgroundImageFix" result="effect1_dropShadow"/><feBlend in="SourceGraphic" in2="effect1_dropShadow" result="shape"/></filter><filter id="filter4_dd" x="275.17" y="1.852" width="271.588" height="257.54" filterUnits="userSpaceOnUse" color-interpolation-filters="sRGB"><feFlood flood-opacity="0" result="BackgroundImageFix"/><feColorMatrix in="SourceAlpha" values="0 0 0 0 0 0 0 0 0 0 0 0 0 0 0 0 0 0 127 0"/><feOffset dy="6"/><feGaussianBlur stdDeviation="9"/><feColorMatrix values="0 0 0 0 0.0987208 0 0 0 0 0.0910417 0 0 0 0 0.475 0 0 0 0.02 0"/><feBlend in2="BackgroundImageFix" result="effect1_dropShadow"/><feColorMatrix in="SourceAlpha" values="0 0 0 0 0 0 0 0 0 0 0 0 0 0 0 0 0 0 127 0"/><feOffset dy="-1"/><feGaussianBlur stdDeviation="7.5"/><feColorMatrix values="0 0 0 0 0.078875 0 0 0 0 0.0770833 0 0 0 0 0.166667 0 0 0 0.04 0"/><feBlend in2="effect1_dropShadow" result="effect2_dropShadow"/><feBlend in="SourceGraphic" in2="effect2_dropShadow" result="shape"/></filter><filter id="filter5_d" x="294.496" y="24.268" width="24.771" height="24.771" filterUnits="userSpaceOnUse" color-interpolation-filters="sRGB"><feFlood flood-opacity="0" result="BackgroundImageFix"/><feColorMatrix in="SourceAlpha" values="0 0 0 0 0 0 0 0 0 0 0 0 0 0 0 0 0 0 127 0"/><feOffset dy="2"/><feGaussianBlur stdDeviation="4"/><feColorMatrix values="0 0 0 0 1 0 0 0 0 0.223529 0 0 0 0 0.317647 0 0 0 0.14 0"/><feBlend in2="BackgroundImageFix" result="effect1_dropShadow"/><feBlend in="SourceGraphic" in2="effect1_dropShadow" result="shape"/></filter><filter id="filter6_d" x="309.267" y="25.268" width="22.771" height="22.771" filterUnits="userSpaceOnUse" color-interpolation-filters="sRGB"><feFlood flood-opacity="0" result="BackgroundImageFix"/><feColorMatrix in="SourceAlpha" values="0 0 0 0 0 0 0 0 0 0 0 0 0 0 0 0 0 0 127 0"/><feOffset dy="2"/><feGaussianBlur stdDeviation="3.5"/><feColorMatrix values="0 0 0 0 1 0 0 0 0 0.760784 0 0 0 0 0.14902 0 0 0 0.14 0"/><feBlend in2="BackgroundImageFix" result="effect1_dropShadow"/><feBlend in="SourceGraphic" in2="effect1_dropShadow" result="shape"/></filter><filter id="filter7_d" x="324.038" y="26.268" width="20.771" height="20.771" filterUnits="userSpaceOnUse" color-interpolation-filters="sRGB"><feFlood flood-opacity="0" result="BackgroundImageFix"/><feColorMatrix in="SourceAlpha" values="0 0 0 0 0 0 0 0 0 0 0 0 0 0 0 0 0 0 127 0"/><feOffset dy="2"/><feGaussianBlur stdDeviation="3"/><feColorMatrix values="0 0 0 0 0.603922 0 0 0 0 0.909804 0 0 0 0 0.52549 0 0 0 0.29 0"/><feBlend in2="BackgroundImageFix" result="effect1_dropShadow"/><feBlend in="SourceGraphic" in2="effect1_dropShadow" result="shape"/></filter><filter id="filter8_d" x="313.24" y="93.776" width="111.448" height="23.046" filterUnits="userSpaceOnUse" color-interpolation-filters="sRGB"><feFlood flood-opacity="0" result="BackgroundImageFix"/><feColorMatrix in="SourceAlpha" values="0 0 0 0 0 0 0 0 0 0 0 0 0 0 0 0 0 0 127 0"/><feOffset dy="3"/><feGaussianBlur stdDeviation="4"/><feColorMatrix values="0 0 0 0 1 0 0 0 0 0.223529 0 0 0 0 0.317647 0 0 0 0.15 0"/><feBlend in2="BackgroundImageFix" result="effect1_dropShadow"/><feBlend in="SourceGraphic" in2="effect1_dropShadow" result="shape"/></filter><filter id="filter9_d" x="313.24" y="116.692" width="164.947" height="23.046" filterUnits="userSpaceOnUse" color-interpolation-filters="sRGB"><feFlood flood-opacity="0" result="BackgroundImageFix"/><feColorMatrix in="SourceAlpha" values="0 0 0 0 0 0 0 0 0 0 0 0 0 0 0 0 0 0 127 0"/><feOffset dy="2"/><feGaussianBlur stdDeviation="4"/><feColorMatrix values="0 0 0 0 0.890196 0 0 0 0 0.795294 0 0 0 0 0.458824 0 0 0 0.31 0"/><feBlend in2="BackgroundImageFix" result="effect1_dropShadow"/><feBlend in="SourceGraphic" in2="effect1_dropShadow" result="shape"/></filter><filter id="filter10_d" x="313.24" y="141.607" width="53.333" height="23.046" filterUnits="userSpaceOnUse" color-interpolation-filters="sRGB"><feFlood flood-opacity="0" result="BackgroundImageFix"/><feColorMatrix in="SourceAlpha" values="0 0 0 0 0 0 0 0 0 0 0 0 0 0 0 0 0 0 127 0"/><feOffset dy="3"/><feGaussianBlur stdDeviation="4"/><feColorMatrix values="0 0 0 0 1 0 0 0 0 0.223529 0 0 0 0 0.317647 0 0 0 0.15 0"/><feBlend in2="BackgroundImageFix" result="effect1_dropShadow"/><feBlend in="SourceGraphic" in2="effect1_dropShadow" result="shape"/></filter><filter id="filter11_d" x="313.24" y="164.523" width="134.311" height="23.046" filterUnits="userSpaceOnUse" color-interpolation-filters="sRGB"><feFlood flood-opacity="0" result="BackgroundImageFix"/><feColorMatrix in="SourceAlpha" values="0 0 0 0 0 0 0 0 0 0 0 0 0 0 0 0 0 0 127 0"/><feOffset dy="2"/><feGaussianBlur stdDeviation="4"/><feColorMatrix values="0 0 0 0 0.890196 0 0 0 0 0.795294 0 0 0 0 0.458824 0 0 0 0.31 0"/><feBlend in2="BackgroundImageFix" result="effect1_dropShadow"/><feBlend in="SourceGraphic" in2="effect1_dropShadow" result="shape"/></filter><filter id="filter12_d" x="313.24" y="189.438" width="151.87" height="23.047" filterUnits="userSpaceOnUse" color-interpolation-filters="sRGB"><feFlood flood-opacity="0" result="BackgroundImageFix"/><feColorMatrix in="SourceAlpha" values="0 0 0 0 0 0 0 0 0 0 0 0 0 0 0 0 0 0 127 0"/><feOffset dy="3"/><feGaussianBlur stdDeviation="4"/><feColorMatrix values="0 0 0 0 1 0 0 0 0 0.223529 0 0 0 0 0.317647 0 0 0 0.15 0"/><feBlend in2="BackgroundImageFix" result="effect1_dropShadow"/><feBlend in="SourceGraphic" in2="effect1_dropShadow" result="shape"/></filter><filter id="filter13_d" x="186.76" y="317.854" width="81.274" height="98.115" filterUnits="userSpaceOnUse" color-interpolation-filters="sRGB"><feFlood flood-opacity="0" result="BackgroundImageFix"/><feColorMatrix in="SourceAlpha" values="0 0 0 0 0 0 0 0 0 0 0 0 0 0 0 0 0 0 127 0"/><feOffset dy="4"/><feGaussianBlur stdDeviation="4"/><feColorMatrix values="0 0 0 0 1 0 0 0 0 0.760784 0 0 0 0 0.14902 0 0 0 0.21 0"/><feBlend in2="BackgroundImageFix" result="effect1_dropShadow"/><feBlend in="SourceGraphic" in2="effect1_dropShadow" result="shape"/></filter><filter id="filter14_d" x="143.791" y="317.434" width="103.641" height="60.79" filterUnits="userSpaceOnUse" color-interpolation-filters="sRGB"><feFlood flood-opacity="0" result="BackgroundImageFix"/><feColorMatrix in="SourceAlpha" values="0 0 0 0 0 0 0 0 0 0 0 0 0 0 0 0 0 0 127 0"/><feOffset dy="4"/><feGaussianBlur stdDeviation="4"/><feColorMatrix values="0 0 0 0 1 0 0 0 0 0.505882 0 0 0 0 0.223529 0 0 0 0.16 0"/><feBlend in2="BackgroundImageFix" result="effect1_dropShadow"/><feBlend in="SourceGraphic" in2="effect1_dropShadow" result="shape"/></filter><filter id="filter15_d" x="127.157" y="333.566" width="112.381" height="126.746" filterUnits="userSpaceOnUse" color-interpolation-filters="sRGB"><feFlood flood-opacity="0" result="BackgroundImageFix"/><feColorMatrix in="SourceAlpha" values="0 0 0 0 0 0 0 0 0 0 0 0 0 0 0 0 0 0 127 0"/><feOffset dy="6"/><feGaussianBlur stdDeviation="8"/><feColorMatrix values="0 0 0 0 1 0 0 0 0 0.223529 0 0 0 0 0.317647 0 0 0 0.34 0"/><feBlend in2="BackgroundImageFix" result="effect1_dropShadow"/><feBlend in="SourceGraphic" in2="effect1_dropShadow" result="shape"/></filter><filter id="filter16_d" x="277.034" y="348.873" width="28" height="28" filterUnits="userSpaceOnUse" color-interpolation-filters="sRGB"><feFlood flood-opacity="0" result="BackgroundImageFix"/><feColorMatrix in="SourceAlpha" values="0 0 0 0 0 0 0 0 0 0 0 0 0 0 0 0 0 0 127 0"/><feOffset dy="4"/><feGaussianBlur stdDeviation="4"/><feColorMatrix values="0 0 0 0 1 0 0 0 0 0.223529 0 0 0 0 0.317647 0 0 0 0.19 0"/><feBlend in2="BackgroundImageFix" result="effect1_dropShadow"/><feBlend in="SourceGraphic" in2="effect1_dropShadow" result="shape"/></filter><filter id="filter17_d" x="281.034" y="373.873" width="20" height="20" filterUnits="userSpaceOnUse" color-interpolation-filters="sRGB"><feFlood flood-opacity="0" result="BackgroundImageFix"/><feColorMatrix in="SourceAlpha" values="0 0 0 0 0 0 0 0 0 0 0 0 0 0 0 0 0 0 127 0"/><feOffset dy="4"/><feGaussianBlur stdDeviation="2"/><feColorMatrix values="0 0 0 0 1 0 0 0 0 0.505882 0 0 0 0 0.223529 0 0 0 0.13 0"/><feBlend in2="BackgroundImageFix" result="effect1_dropShadow"/><feBlend in="SourceGraphic" in2="effect1_dropShadow" result="shape"/></filter><filter id="filter18_d" x="278.034" y="393.873" width="26" height="26" filterUnits="userSpaceOnUse" color-interpolation-filters="sRGB"><feFlood flood-opacity="0" result="BackgroundImageFix"/><feColorMatrix in="SourceAlpha" values="0 0 0 0 0 0 0 0 0 0 0 0 0 0 0 0 0 0 127 0"/><feOffset dy="6"/><feGaussianBlur stdDeviation="3.5"/><feColorMatrix values="0 0 0 0 1 0 0 0 0 0.760784 0 0 0 0 0.14902 0 0 0 0.44 0"/><feBlend in2="BackgroundImageFix" result="effect1_dropShadow"/><feBlend in="SourceGraphic" in2="effect1_dropShadow" result="shape"/></filter><filter id="filter19_dd" x=".492" y="0" width="286.206" height="257.54" filterUnits="userSpaceOnUse" color-interpolation-filters="sRGB"><feFlood flood-opacity="0" result="BackgroundImageFix"/><feColorMatrix in="SourceAlpha" values="0 0 0 0 0 0 0 0 0 0 0 0 0 0 0 0 0 0 127 0"/><feOffset dy="6"/><feGaussianBlur stdDeviation="9"/><feColorMatrix values="0 0 0 0 0.0987208 0 0 0 0 0.0910417 0 0 0 0 0.475 0 0 0 0.02 0"/><feBlend in2="BackgroundImageFix" result="effect1_dropShadow"/><feColorMatrix in="SourceAlpha" values="0 0 0 0 0 0 0 0 0 0 0 0 0 0 0 0 0 0 127 0"/><feOffset dy="-1"/><feGaussianBlur stdDeviation="7.5"/><feColorMatrix values="0 0 0 0 0.078875 0 0 0 0 0.0770833 0 0 0 0 0.166667 0 0 0 0.04 0"/><feBlend in2="effect1_dropShadow" result="effect2_dropShadow"/><feBlend in="SourceGraphic" in2="effect2_dropShadow" result="shape"/></filter><filter id="filter20_d" x="191.595" y="111.021" width="34" height="116.098" filterUnits="userSpaceOnUse" color-interpolation-filters="sRGB"><feFlood flood-opacity="0" result="BackgroundImageFix"/><feColorMatrix in="SourceAlpha" values="0 0 0 0 0 0 0 0 0 0 0 0 0 0 0 0 0 0 127 0"/><feOffset dy="4"/><feGaussianBlur stdDeviation="5.5"/><feColorMatrix values="0 0 0 0 1 0 0 0 0 0.760784 0 0 0 0 0.14902 0 0 0 0.22 0"/><feBlend in2="BackgroundImageFix" result="effect1_dropShadow"/><feBlend in="SourceGraphic" in2="effect1_dropShadow" result="shape"/></filter><filter id="filter21_d" x="139.595" y="167.418" width="34" height="59.686" filterUnits="userSpaceOnUse" color-interpolation-filters="sRGB"><feFlood flood-opacity="0" result="BackgroundImageFix"/><feColorMatrix in="SourceAlpha" values="0 0 0 0 0 0 0 0 0 0 0 0 0 0 0 0 0 0 127 0"/><feOffset dy="4"/><feGaussianBlur stdDeviation="5.5"/><feColorMatrix values="0 0 0 0 1 0 0 0 0 0.760784 0 0 0 0 0.14902 0 0 0 0.22 0"/><feBlend in2="BackgroundImageFix" result="effect1_dropShadow"/><feBlend in="SourceGraphic" in2="effect1_dropShadow" result="shape"/></filter><filter id="filter22_d" x="87.595" y="93.523" width="34" height="133.581" filterUnits="userSpaceOnUse" color-interpolation-filters="sRGB"><feFlood flood-opacity="0" result="BackgroundImageFix"/><feColorMatrix in="SourceAlpha" values="0 0 0 0 0 0 0 0 0 0 0 0 0 0 0 0 0 0 127 0"/><feOffset dy="4"/><feGaussianBlur stdDeviation="5.5"/><feColorMatrix values="0 0 0 0 1 0 0 0 0 0.760784 0 0 0 0 0.14902 0 0 0 0.22 0"/><feBlend in2="BackgroundImageFix" result="effect1_dropShadow"/><feBlend in="SourceGraphic" in2="effect1_dropShadow" result="shape"/></filter><filter id="filter23_d" x="21.11" y="23.264" width="24.771" height="24.771" filterUnits="userSpaceOnUse" color-interpolation-filters="sRGB"><feFlood flood-opacity="0" result="BackgroundImageFix"/><feColorMatrix in="SourceAlpha" values="0 0 0 0 0 0 0 0 0 0 0 0 0 0 0 0 0 0 127 0"/><feOffset dy="2"/><feGaussianBlur stdDeviation="4"/><feColorMatrix values="0 0 0 0 1 0 0 0 0 0.223529 0 0 0 0 0.317647 0 0 0 0.14 0"/><feBlend in2="BackgroundImageFix" result="effect1_dropShadow"/><feBlend in="SourceGraphic" in2="effect1_dropShadow" result="shape"/></filter><filter id="filter24_d" x="34.881" y="24.264" width="22.771" height="22.771" filterUnits="userSpaceOnUse" color-interpolation-filters="sRGB"><feFlood flood-opacity="0" result="BackgroundImageFix"/><feColorMatrix in="SourceAlpha" values="0 0 0 0 0 0 0 0 0 0 0 0 0 0 0 0 0 0 127 0"/><feOffset dy="2"/><feGaussianBlur stdDeviation="3.5"/><feColorMatrix values="0 0 0 0 1 0 0 0 0 0.760784 0 0 0 0 0.14902 0 0 0 0.14 0"/><feBlend in2="BackgroundImageFix" result="effect1_dropShadow"/><feBlend in="SourceGraphic" in2="effect1_dropShadow" result="shape"/></filter><filter id="filter25_d" x="48.652" y="25.264" width="20.771" height="20.771" filterUnits="userSpaceOnUse" color-interpolation-filters="sRGB"><feFlood flood-opacity="0" result="BackgroundImageFix"/><feColorMatrix in="SourceAlpha" values="0 0 0 0 0 0 0 0 0 0 0 0 0 0 0 0 0 0 127 0"/><feOffset dy="2"/><feGaussianBlur stdDeviation="3"/><feColorMatrix values="0 0 0 0 0.603922 0 0 0 0 0.909804 0 0 0 0 0.52549 0 0 0 0.29 0"/><feBlend in2="BackgroundImageFix" result="effect1_dropShadow"/><feBlend in="SourceGraphic" in2="effect1_dropShadow" result="shape"/></filter></defs></svg>