<svg width="600" height="418" fill="none" xmlns="http://www.w3.org/2000/svg"><path d="M273.549 271.223H24.797C12.759 271.223 3 280.982 3 293.02v78.791c0 12.038 9.759 21.797 21.797 21.797h248.752c12.038 0 21.797-9.759 21.797-21.797V293.02c0-12.038-9.759-21.797-21.797-21.797z" fill="#B2DEFF"/><path d="M475.206 0H174.794C162.757 0 153 9.385 153 20.963v376.074c0 11.578 9.757 20.963 21.794 20.963h300.412c12.037 0 21.794-9.385 21.794-20.963V20.963C497 9.385 487.243 0 475.206 0z" fill="#E9F7FF"/><path d="M153 23h293.425a24.677 24.677 0 0117.377 7.138A24.267 24.267 0 01471 47.371v321.258a24.267 24.267 0 01-7.198 17.233A24.68 24.68 0 01446.425 393H153" fill="#C4E6FF"/><path d="M453.385 69.688H22.978v60.686h430.407V69.688z" fill="#E9F7FF"/><path d="M453.385 128.33H22.978v2.044h430.407v-2.044z" fill="#B2DEFF"/><path d="M61.827 108.08h-8.813a3.224 3.224 0 01-3.222-3.22v-8.814a3.225 3.225 0 013.222-3.221h8.813a3.225 3.225 0 013.222 3.221v8.814a3.225 3.225 0 01-3.222 3.22zm-8.813-13.645a1.611 1.611 0 00-1.61 1.611v8.814a1.612 1.612 0 001.61 1.61h8.813a1.61 1.61 0 001.611-1.61v-8.814a1.612 1.612 0 00-1.611-1.611h-8.813z" fill="#47A1FF"/><path d="M140.1 106.176h-33.295a5.126 5.126 0 01-3.622-1.5 5.126 5.126 0 010-7.244 5.124 5.124 0 013.622-1.5H140.1a5.124 5.124 0 013.622 8.744 5.126 5.126 0 01-3.622 1.5zm102.441 0h-86.649a5.126 5.126 0 01-3.622-1.5 5.126 5.126 0 010-7.244 5.124 5.124 0 013.622-1.5h86.649a5.124 5.124 0 013.622 8.744 5.126 5.126 0 01-3.622 1.5z" fill="#B2DEFF"/><path d="M421.117 92.774h-67.984a4.04 4.04 0 00-4.041 4.041v10.998a4.04 4.04 0 004.041 4.041h67.984a4.04 4.04 0 004.041-4.041V96.815a4.04 4.04 0 00-4.041-4.041z" fill="#A4F8D6"/><path d="M363.5 102.527a2.675 2.675 0 01-1.756.513h-1.458v2.518h-1.454v-7h3.007a2.418 2.418 0 011.657.542 2.12 2.12 0 01.619 1.677 2.179 2.179 0 01-.615 1.75zM362.379 100a1.174 1.174 0 00-.778-.233h-1.319v2.062h1.318c.282.018.56-.072.778-.252a1.024 1.024 0 00.278-.8.968.968 0 00-.277-.777zm3.197-1.445h1.488v4.3a2.43 2.43 0 00.17 1.053 1.425 1.425 0 001.8.433c.2-.102.373-.251.505-.433a2.43 2.43 0 00.17-1.053v-4.3h1.491v4.3a3.613 3.613 0 01-.346 1.739 3.23 3.23 0 01-3.821.841 3.24 3.24 0 01-1.107-.841 3.613 3.613 0 01-.346-1.739l-.004-4.3zm12.541.745c.219.313.332.687.322 1.069a1.56 1.56 0 01-.325 1.031c-.15.168-.331.304-.534.4.331.109.616.327.809.617.189.308.284.665.273 1.027.006.394-.103.782-.312 1.116a1.92 1.92 0 01-1.287.9 4.914 4.914 0 01-.99.095h-3.155v-7h3.382a2.153 2.153 0 011.817.745zm-3.8.47v1.544h1.7c.258.011.514-.049.74-.173a.656.656 0 00.285-.615.63.63 0 00-.376-.646 2.632 2.632 0 00-.828-.11h-1.521zm0 2.7v1.867h1.7a1.67 1.67 0 00.709-.123.888.888 0 00.365-.366.886.886 0 00.096-.508.754.754 0 00-.447-.751 1.78 1.78 0 00-.7-.119h-1.723zm5.896-3.915h1.463v5.743h3.497v1.26h-4.96v-7.003zm7.569 0h-1.454v7.003h1.454v-7.003zm2.718 4.845c.021.259.114.507.267.717a1.549 1.549 0 001.247.433c.29.009.58-.03.858-.114a.811.811 0 00.625-.813.595.595 0 00-.305-.537 3.385 3.385 0 00-.973-.327l-.758-.167a4.694 4.694 0 01-1.536-.537 1.706 1.706 0 01-.708-1.515 2.02 2.02 0 01.692-1.563 2.957 2.957 0 012.036-.622 3.113 3.113 0 011.911.587 2.09 2.09 0 01.83 1.7h-1.406a1.007 1.007 0 00-.566-.9 1.946 1.946 0 00-.871-.175 1.662 1.662 0 00-.926.228.714.714 0 00-.345.637.596.596 0 00.34.56c.298.132.611.229.931.29l1.229.289a3.13 3.13 0 011.21.509c.21.172.377.391.486.639.108.249.157.52.14.791a2.02 2.02 0 01-.741 1.594 3.128 3.128 0 01-2.1.634 3.424 3.424 0 01-2.175-.625 2.07 2.07 0 01-.792-1.717l1.4.004zm5.714 2.158v-7.003h1.454v2.67h2.722v-2.67h1.454v7.003h-1.454v-3.126h-2.722v3.126h-1.454zm12.506-5.763h-3.705v1.487h3.401v1.216h-3.401v1.8h3.877v1.26h-5.307v-7.003h5.135v1.24zm5.706-1.088a2.3 2.3 0 011.193.888c.24.34.41.724.5 1.131.086.38.131.769.133 1.159a4.658 4.658 0 01-.56 2.366 2.533 2.533 0 01-2.35 1.307h-3.019v-7h3.019a3.7 3.7 0 011.084.149zm-2.683 1.064v4.57h1.357a1.456 1.456 0 001.446-1.021c.159-.427.235-.88.224-1.335a3.28 3.28 0 00-.335-1.641 1.419 1.419 0 00-1.335-.573h-1.357z" fill="#00C459"/><path d="M453.385 130.06H22.978v60.686h430.407V130.06z" fill="#F4FBFF"/><path d="M453.385 188.701H22.978v2.044h430.407v-2.044z" fill="#B2DEFF"/><path d="M61.827 168.451h-8.813a3.224 3.224 0 01-3.222-3.22v-8.814a3.226 3.226 0 013.222-3.221h8.813a3.225 3.225 0 013.222 3.221v8.814a3.225 3.225 0 01-3.222 3.22zm-8.813-13.644a1.61 1.61 0 00-1.61 1.61v8.814a1.612 1.612 0 001.61 1.61h8.813a1.61 1.61 0 001.611-1.61v-8.814a1.612 1.612 0 00-1.611-1.61h-8.813z" fill="#47A1FF"/><path d="M129.926 166.547h-23.121a5.126 5.126 0 01-3.622-1.5 5.126 5.126 0 010-7.244 5.126 5.126 0 013.622-1.5h23.121c1.358 0 2.661.54 3.622 1.5a5.126 5.126 0 010 7.244 5.126 5.126 0 01-3.622 1.5zm130.756 0H145.719a5.126 5.126 0 01-3.622-1.5 5.126 5.126 0 010-7.244 5.126 5.126 0 013.622-1.5h114.963c1.358 0 2.661.54 3.622 1.5a5.126 5.126 0 010 7.244 5.126 5.126 0 01-3.622 1.5z" fill="#B2DEFF"/><path d="M421.117 149.117h-67.984a4.04 4.04 0 00-4.041 4.041v10.997a4.04 4.04 0 004.041 4.041h67.984a4.04 4.04 0 004.041-4.041v-10.997a4.04 4.04 0 00-4.041-4.041z" fill="#A4F8D6"/><path d="M363.5 158.87a2.666 2.666 0 01-1.756.514h-1.458v2.516h-1.454v-7h3.007a2.418 2.418 0 011.657.542 2.119 2.119 0 01.619 1.676 2.183 2.183 0 01-.615 1.752zm-1.117-2.522a1.174 1.174 0 00-.778-.233h-1.319v2.062h1.314c.282.018.56-.072.778-.252a1.03 1.03 0 00.278-.8.968.968 0 00-.277-.777h.004zm3.193-1.448h1.488v4.3c-.022.36.036.72.17 1.055.132.182.305.33.505.433a1.43 1.43 0 001.294 0 1.43 1.43 0 00.506-.433c.134-.335.192-.695.17-1.055v-4.3h1.491v4.3a3.613 3.613 0 01-.346 1.739 3.24 3.24 0 01-2.464 1.14 3.226 3.226 0 01-2.464-1.14 3.613 3.613 0 01-.346-1.739l-.004-4.3zm12.541.745c.219.313.332.687.322 1.069a1.56 1.56 0 01-.325 1.031 1.666 1.666 0 01-.534.4c.331.11.616.327.809.617.189.308.284.665.273 1.026a2.05 2.05 0 01-.312 1.117 1.92 1.92 0 01-1.287.9 4.914 4.914 0 01-.99.095h-3.155v-7h3.382a2.147 2.147 0 011.817.745zm-3.8.47v1.544h1.7c.258.012.514-.048.74-.174a.666.666 0 00.285-.615.63.63 0 00-.376-.645 2.635 2.635 0 00-.828-.11h-1.521zm0 2.7v1.867h1.7c.243.011.485-.031.709-.124a.885.885 0 00.461-.874.754.754 0 00-.447-.751 1.744 1.744 0 00-.7-.118h-1.723zm5.896-3.916h1.463v5.744h3.497v1.259h-4.96v-7.003zm7.569 0h-1.454v7.002h1.454v-7.002zm2.718 4.841c.021.259.114.507.267.717a1.546 1.546 0 001.247.433c.29.009.58-.03.858-.114a.811.811 0 00.625-.813.595.595 0 00-.305-.537 3.385 3.385 0 00-.973-.327l-.758-.167a4.716 4.716 0 01-1.536-.536 1.713 1.713 0 01-.708-1.516 2.026 2.026 0 01.692-1.563 2.961 2.961 0 012.036-.623 3.12 3.12 0 011.911.587 2.093 2.093 0 01.83 1.7h-1.406a.997.997 0 00-.566-.9 1.924 1.924 0 00-.871-.176 1.662 1.662 0 00-.926.228.716.716 0 00-.345.637.59.59 0 00.087.33c.06.1.148.18.253.23.298.132.61.23.931.29l1.229.29c.435.081.847.255 1.21.508a1.71 1.71 0 01.626 1.43 2.02 2.02 0 01-.741 1.594 3.128 3.128 0 01-2.1.634 3.424 3.424 0 01-2.175-.625 2.07 2.07 0 01-.792-1.717l1.4.006zm5.714 2.162v-7.003h1.454v2.67h2.722v-2.67h1.454v7.003h-1.454v-3.126h-2.722v3.126h-1.454zm12.506-5.763h-3.705v1.487h3.401v1.216h-3.401v1.801h3.877v1.259h-5.307v-7.003h5.135v1.24zm5.706-1.088c.485.156.904.469 1.193.889.24.34.41.724.5 1.13.086.38.131.769.133 1.159a4.658 4.658 0 01-.56 2.366 2.533 2.533 0 01-2.35 1.307h-3.019v-7h3.019c.367-.005.732.045 1.084.149zm-2.683 1.064v4.571h1.357a1.457 1.457 0 001.446-1.022c.159-.427.235-.88.224-1.335a3.28 3.28 0 00-.335-1.641 1.41 1.41 0 00-.589-.47 1.412 1.412 0 00-.746-.103h-1.357z" fill="#00C459"/><path d="M453.385 250.802H22.978v60.686h430.407v-60.686z" fill="#F4FBFF"/><path d="M453.385 309.444H22.978v2.044h430.407v-2.044z" fill="#B2DEFF"/><path d="M61.827 289.194h-8.813a3.225 3.225 0 01-3.222-3.221v-8.814a3.225 3.225 0 013.222-3.22h8.813a3.224 3.224 0 013.222 3.22v8.814a3.226 3.226 0 01-3.222 3.221zm-8.813-13.645a1.613 1.613 0 00-1.61 1.61v8.814a1.615 1.615 0 001.61 1.611h8.813a1.615 1.615 0 001.611-1.611v-8.814a1.612 1.612 0 00-1.611-1.61h-8.813z" fill="#47A1FF"/><path d="M150.816 287.29h-44.011a5.126 5.126 0 01-3.622-1.5 5.126 5.126 0 010-7.244 5.126 5.126 0 013.622-1.5h44.011c1.358 0 2.661.54 3.622 1.5a5.126 5.126 0 010 7.244 5.126 5.126 0 01-3.622 1.5z" fill="#0065EB"/><path d="M421.117 268.633h-67.984a4.04 4.04 0 00-4.041 4.041v10.998a4.04 4.04 0 004.041 4.041h67.984a4.04 4.04 0 004.041-4.041v-10.998a4.04 4.04 0 00-4.041-4.041z" fill="#A4F8D6"/><path d="M363.5 278.386a2.668 2.668 0 01-1.756.514h-1.458v2.517h-1.454v-7h3.007c.6-.032 1.191.161 1.657.541a2.114 2.114 0 01.619 1.677 2.176 2.176 0 01-.615 1.751zm-1.117-2.523a1.175 1.175 0 00-.778-.232h-1.319v2.062h1.314c.282.018.56-.072.778-.252a1.03 1.03 0 00.278-.8.966.966 0 00-.277-.778h.004zm3.193-1.448h1.488v4.3c-.022.36.036.72.17 1.054a1.425 1.425 0 001.8.433c.2-.102.373-.251.505-.433.134-.334.192-.694.17-1.054v-4.3h1.491v4.3a3.607 3.607 0 01-.346 1.738 3.226 3.226 0 01-3.822.842 3.226 3.226 0 01-1.106-.842 3.609 3.609 0 01-.346-1.738l-.004-4.3zm12.541.745c.219.313.332.688.322 1.07.018.371-.097.736-.325 1.03a1.666 1.666 0 01-.534.4c.331.11.616.327.809.618.189.308.284.665.273 1.026a2.05 2.05 0 01-.312 1.117 1.945 1.945 0 01-1.292.902 4.914 4.914 0 01-.99.095h-3.155v-7h3.387a2.142 2.142 0 011.817.742zm-3.8.471v1.544h1.7c.258.011.514-.049.74-.174a.666.666 0 00.285-.615.63.63 0 00-.376-.646 2.634 2.634 0 00-.828-.109h-1.521zm0 2.7v1.869h1.7c.243.012.485-.031.709-.124a.888.888 0 00.365-.366.886.886 0 00.096-.508.747.747 0 00-.447-.75 1.762 1.762 0 00-.7-.119l-1.723-.002zm5.896-3.916h1.463v5.743h3.497v1.259h-4.96v-7.002zm7.569 0h-1.454v7.002h1.454v-7.002zm2.718 4.841c.021.259.114.507.267.717a1.56 1.56 0 001.247.432c.29.009.58-.03.858-.114a.81.81 0 00.625-.812.595.595 0 00-.305-.537 3.357 3.357 0 00-.973-.328l-.758-.166a4.718 4.718 0 01-1.536-.537 1.713 1.713 0 01-.708-1.515 2.026 2.026 0 01.692-1.563 2.961 2.961 0 012.036-.623 3.12 3.12 0 011.911.587 2.084 2.084 0 01.83 1.7h-1.406a.997.997 0 00-.566-.9 1.924 1.924 0 00-.871-.176 1.67 1.67 0 00-.926.228.726.726 0 00-.345.637.596.596 0 00.34.561c.298.131.611.229.931.29l1.229.289a3.13 3.13 0 011.21.509 1.713 1.713 0 01.626 1.429 2.023 2.023 0 01-.741 1.595 3.139 3.139 0 01-2.1.634 3.424 3.424 0 01-2.175-.625 2.07 2.07 0 01-.792-1.717l1.4.005zm5.714 2.161v-7.002h1.454v2.67h2.722v-2.67h1.454v7.002h-1.454v-3.126h-2.722v3.126h-1.454zm12.506-5.763h-3.705v1.488h3.401v1.216h-3.401v1.8h3.877v1.259h-5.307v-7.002h5.135v1.239zm5.706-1.087a2.3 2.3 0 011.193.888 3.1 3.1 0 01.5 1.131c.086.38.131.769.133 1.159a4.654 4.654 0 01-.56 2.365 2.528 2.528 0 01-2.35 1.307h-3.019v-7h3.019c.367-.004.732.046 1.084.15zm-2.683 1.064v4.57h1.357a1.463 1.463 0 001.446-1.021c.159-.427.235-.88.224-1.335a3.284 3.284 0 00-.335-1.642 1.419 1.419 0 00-1.335-.572h-1.357z" fill="#00C459"/><path d="M441.527 371.859H34.837A11.864 11.864 0 0122.978 360v-48.827h430.407V360c0 1.557-.307 3.099-.902 4.538a11.855 11.855 0 01-10.956 7.321z" fill="#E9F7FF"/><path d="M61.827 349.566h-8.813a3.226 3.226 0 01-3.222-3.222v-8.813a3.226 3.226 0 013.222-3.221h8.813a3.225 3.225 0 013.222 3.221v8.813a3.226 3.226 0 01-3.222 3.222zm-8.813-13.646a1.614 1.614 0 00-1.61 1.611v8.813a1.611 1.611 0 001.61 1.611h8.813a1.61 1.61 0 001.611-1.611v-8.813a1.614 1.614 0 00-1.611-1.611h-8.813z" fill="#47A1FF"/><path d="M140.1 347.661h-33.295a5.126 5.126 0 01-3.622-1.5 5.126 5.126 0 010-7.244 5.126 5.126 0 013.622-1.5H140.1c1.358 0 2.661.54 3.622 1.5a5.126 5.126 0 010 7.244 5.126 5.126 0 01-3.622 1.5zm102.441 0h-86.649a5.126 5.126 0 01-3.622-1.5 5.126 5.126 0 010-7.244 5.126 5.126 0 013.622-1.5h86.649c1.358 0 2.661.54 3.622 1.5a5.126 5.126 0 010 7.244 5.126 5.126 0 01-3.622 1.5z" fill="#B2DEFF"/><path d="M421.117 330.952h-67.984a4.04 4.04 0 00-4.041 4.041v10.997a4.04 4.04 0 004.041 4.041h67.984a4.04 4.04 0 004.041-4.041v-10.997a4.04 4.04 0 00-4.041-4.041z" fill="#A4F8D6"/><path d="M363.5 340.705a2.666 2.666 0 01-1.756.514h-1.458v2.517h-1.454v-7h3.007a2.418 2.418 0 011.657.542 2.119 2.119 0 01.619 1.676 2.177 2.177 0 01-.615 1.751zm-1.117-2.522a1.168 1.168 0 00-.778-.233h-1.319v2.062h1.314c.282.018.56-.072.778-.252a1.03 1.03 0 00.278-.8.968.968 0 00-.277-.777h.004zm3.193-1.449h1.488v4.3c-.022.36.036.72.17 1.055.132.182.305.33.505.433a1.43 1.43 0 001.294 0 1.43 1.43 0 00.506-.433c.134-.335.192-.695.17-1.055v-4.3h1.491v4.3a3.613 3.613 0 01-.346 1.739 3.24 3.24 0 01-2.464 1.14 3.226 3.226 0 01-2.464-1.14 3.613 3.613 0 01-.346-1.739l-.004-4.3zm12.541.746c.219.313.332.687.322 1.069a1.56 1.56 0 01-.325 1.031 1.666 1.666 0 01-.534.4c.331.11.616.327.809.617.189.308.284.665.273 1.026a2.05 2.05 0 01-.312 1.117 1.92 1.92 0 01-1.287.9 4.913 4.913 0 01-.99.094h-3.155v-7h3.382a2.147 2.147 0 011.817.746zm-3.8.47v1.544h1.7c.258.012.514-.048.74-.174a.666.666 0 00.285-.615.63.63 0 00-.376-.645 2.606 2.606 0 00-.828-.11h-1.521zm0 2.7v1.868h1.7c.243.011.485-.031.709-.124a.885.885 0 00.461-.874.754.754 0 00-.447-.751 1.762 1.762 0 00-.7-.119h-1.723zm5.896-3.916h1.463v5.744h3.497v1.258h-4.96v-7.002zm7.569 0h-1.454v7.002h1.454v-7.002zm2.718 4.841c.021.259.114.507.267.717a1.562 1.562 0 001.247.433c.29.009.58-.03.858-.115a.81.81 0 00.625-.812.595.595 0 00-.305-.537 3.325 3.325 0 00-.973-.327l-.758-.167a4.716 4.716 0 01-1.536-.536 1.713 1.713 0 01-.708-1.516 2.026 2.026 0 01.692-1.563 2.961 2.961 0 012.036-.623 3.12 3.12 0 011.911.587 2.084 2.084 0 01.83 1.7h-1.406a.997.997 0 00-.566-.9 1.924 1.924 0 00-.871-.176 1.662 1.662 0 00-.926.228.725.725 0 00-.345.636.596.596 0 00.34.561c.298.132.61.23.931.29l1.229.29c.435.081.847.255 1.21.508a1.706 1.706 0 01.626 1.43 2.02 2.02 0 01-.741 1.594 3.128 3.128 0 01-2.1.634 3.424 3.424 0 01-2.175-.625 2.07 2.07 0 01-.792-1.717l1.4.006zm5.714 2.161v-7.002h1.454v2.67h2.722v-2.67h1.454v7.002h-1.454v-3.126h-2.722v3.126h-1.454zm12.506-5.762h-3.705v1.487h3.401v1.216h-3.401v1.801h3.877v1.258h-5.307v-7.002h5.135v1.24zm5.706-1.088c.485.156.904.469 1.193.889.24.34.41.724.5 1.13.086.38.131.769.133 1.159a4.658 4.658 0 01-.56 2.366 2.532 2.532 0 01-2.35 1.306h-3.019v-7h3.019c.367-.004.732.046 1.084.15zm-2.683 1.064v4.571h1.357a1.457 1.457 0 001.446-1.022c.159-.427.235-.88.224-1.335a3.28 3.28 0 00-.335-1.641 1.41 1.41 0 00-.589-.47 1.412 1.412 0 00-.746-.103h-1.357z" fill="#00C459"/><path d="M453.385 191.59H22.978v60.686h430.407V191.59z" fill="#E9F7FF"/><path d="M453.385 250.232H22.978v2.044h430.407v-2.044z" fill="#B2DEFF"/><path d="M61.827 229.982h-8.813a3.225 3.225 0 01-3.222-3.221v-8.814a3.222 3.222 0 013.222-3.22h8.813a3.225 3.225 0 013.222 3.22v8.814a3.226 3.226 0 01-3.222 3.221zm-8.813-13.645a1.61 1.61 0 00-1.61 1.61v8.814a1.611 1.611 0 001.61 1.61h8.813a1.61 1.61 0 001.611-1.61v-8.814a1.612 1.612 0 00-1.611-1.61h-8.813z" fill="#47A1FF"/><path d="M198.221 228.077h-91.416a5.126 5.126 0 01-3.622-1.5 5.126 5.126 0 010-7.244 5.126 5.126 0 013.622-1.5h91.416c1.358 0 2.661.54 3.622 1.5a5.126 5.126 0 010 7.244 5.126 5.126 0 01-3.622 1.5zm26.037 0h-10.244a5.126 5.126 0 01-3.622-1.5 5.126 5.126 0 010-7.244 5.126 5.126 0 013.622-1.5h10.244c1.358 0 2.661.54 3.622 1.5a5.126 5.126 0 010 7.244 5.126 5.126 0 01-3.622 1.5z" fill="#B2DEFF"/><path d="M421.117 212.459h-67.984a4.04 4.04 0 00-4.041 4.041v10.997a4.04 4.04 0 004.041 4.041h67.984a4.04 4.04 0 004.041-4.041V216.5a4.04 4.04 0 00-4.041-4.041z" fill="#FFEC7D"/><path d="M373.391 218.394a2.31 2.31 0 011.193.888c.24.34.41.724.5 1.131.086.38.131.769.133 1.159a4.658 4.658 0 01-.561 2.366 2.528 2.528 0 01-2.349 1.306h-3.019v-7h3.019c.367-.004.732.046 1.084.15zm-2.683 1.064v4.57h1.352a1.456 1.456 0 001.446-1.021c.158-.427.234-.88.224-1.335a3.295 3.295 0 00-.335-1.642 1.419 1.419 0 00-1.335-.572h-1.352zm10.386-1.036c.254.108.479.276.655.489.148.177.267.376.353.59.09.235.134.485.13.736a2.101 2.101 0 01-.252.981 1.412 1.412 0 01-.831.682 1.3 1.3 0 01.685.553 2.3 2.3 0 01.2 1.1v.471c-.007.217.006.435.039.65a.58.58 0 00.27.4v.175h-1.613c-.044-.155-.076-.28-.1-.375a3.46 3.46 0 01-.062-.6l-.009-.651a1.313 1.313 0 00-.232-.893 1.18 1.18 0 00-.833-.224h-1.424v2.746h-1.43v-7h3.349c.376-.012.75.046 1.105.17zm-3.024 1.036v1.881h1.575c.239.012.477-.026.7-.114a.784.784 0 00.415-.788.886.886 0 00-.4-.856 1.46 1.46 0 00-.677-.123h-1.613zm7.857-1.216h1.656l2.478 7h-1.587l-.462-1.439h-2.579l-.475 1.439h-1.53l2.499-7zm-.1 4.356h1.793l-.885-2.755-.908 2.755zm5.415-4.347h4.994v1.231h-3.54v1.61h3.102v1.216h-3.102v2.936h-1.454v-6.993zm11.324-.009v1.24h-2.095v5.762h-1.473v-5.762h-2.104v-1.24h5.672z" fill="#FCBB00"/><path d="M453.385 69.762H22.978V31.774a8.7 8.7 0 018.7-8.7h413.011a8.702 8.702 0 018.7 8.7l-.004 37.988z" fill="#283848"/><path d="M591.6 346.25h-52.14a7.085 7.085 0 01-7.085-7.085l-.428-49.65c0-1.867.742-3.658 2.062-4.979a7.045 7.045 0 014.979-2.062l52.227-.079a7.108 7.108 0 017.041 7.12l.429 49.65a7.085 7.085 0 01-7.085 7.085z" fill="#8BCBFF"/><path d="M532.017 319.2H290.932a11.4 11.4 0 01-11.4-11.4l-.689-34.186a11.333 11.333 0 0111.332-11.332l241.224-.127a11.446 11.446 0 0111.332 11.459l.689 34.186a11.4 11.4 0 01-11.403 11.4z" fill="#00D981"/><path d="M356.858 298.528v-15.3h4.958c1.229-.049 2.46.028 3.673.23a4.01 4.01 0 012.2 1.5c.621.867.933 1.916.886 2.981a4.993 4.993 0 01-.51 2.369 4.204 4.204 0 01-1.3 1.509 4.48 4.48 0 01-1.6.725c-1.058.17-2.129.243-3.2.219h-2.015v5.772l-3.092-.005zm3.089-12.713v4.342h1.691a8.004 8.004 0 002.442-.24c.392-.145.729-.408.966-.752a2.06 2.06 0 00.35-1.189 1.973 1.973 0 00-.491-1.378 2.133 2.133 0 00-1.242-.679 15.01 15.01 0 00-2.223-.1l-1.493-.004zm12.858-2.589h3.09v8.288c-.026.854.013 1.709.115 2.557a2.48 2.48 0 00.944 1.509 3.298 3.298 0 002.041.569 3.115 3.115 0 001.984-.538c.423-.324.709-.795.8-1.32.111-.862.156-1.731.136-2.6v-8.466h3.09v8.038a20.707 20.707 0 01-.251 3.893 4.305 4.305 0 01-.924 1.921 4.642 4.642 0 01-1.8 1.247c-.942.342-1.941.5-2.943.465a8.456 8.456 0 01-3.324-.507 4.733 4.733 0 01-1.791-1.315 4.216 4.216 0 01-.866-1.7 18.517 18.517 0 01-.3-3.883l-.001-8.158zm17.181 0h6.114c.906-.019 1.811.032 2.709.151a3.985 3.985 0 011.6.632c.482.333.884.77 1.175 1.278.316.543.478 1.162.47 1.791a3.625 3.625 0 01-2.15 3.319 4.033 4.033 0 012.15 1.388c.503.662.768 1.475.751 2.307a4.55 4.55 0 01-.485 2.031 4.1 4.1 0 01-1.326 1.576 4.378 4.378 0 01-2.072.725c-.515.056-1.757.089-3.726.1h-5.209l-.001-15.298zm3.089 2.547v3.539h2.025c1.204 0 1.952-.018 2.244-.053a2.046 2.046 0 001.247-.548 1.612 1.612 0 00.454-1.195 1.679 1.679 0 00-.391-1.154 1.777 1.777 0 00-1.164-.537c-.306-.035-1.186-.052-2.641-.052h-1.774zm0 6.086v4.091h2.861c.708.022 1.416-.009 2.119-.093a1.92 1.92 0 001.122-.611 1.88 1.88 0 00.434-1.3 2.012 2.012 0 00-.334-1.169 1.894 1.894 0 00-.966-.7c-.9-.193-1.821-.266-2.74-.219l-2.496.001zm14.132 6.669v-15.177h3.09v12.599h7.683v2.578h-10.773zm17.681-15.302h-3.09v15.303h3.09v-15.303zm3.871 10.323l3.006-.292a3.679 3.679 0 001.1 2.224 3.333 3.333 0 002.24.71c.8.058 1.596-.165 2.249-.632.231-.172.419-.394.551-.65.131-.256.201-.539.206-.827a1.39 1.39 0 00-.319-.924 2.55 2.55 0 00-1.111-.663c-.362-.125-1.187-.347-2.474-.668a8.396 8.396 0 01-3.486-1.513 3.986 3.986 0 01-1.41-3.079c0-.779.23-1.54.663-2.187a4.149 4.149 0 011.91-1.551 7.676 7.676 0 013.012-.532 6.459 6.459 0 014.337 1.263 4.47 4.47 0 011.529 3.372l-3.09.135a2.623 2.623 0 00-.851-1.7 3.105 3.105 0 00-1.957-.516 3.542 3.542 0 00-2.108.552 1.122 1.122 0 00-.491.951 1.164 1.164 0 00.46.928 8.116 8.116 0 002.839 1.024c1.151.234 2.271.603 3.335 1.1a4.298 4.298 0 011.691 1.555c.428.739.639 1.584.61 2.437a4.508 4.508 0 01-.73 2.464 4.367 4.367 0 01-2.067 1.706 8.658 8.658 0 01-3.33.559 6.631 6.631 0 01-4.457-1.341 5.837 5.837 0 01-1.857-3.905zm16.763 4.979v-15.302h3.09v6.023h6.054v-6.023h3.09v15.302h-3.09v-6.69h-6.054v6.69h-3.09zm17.138 0v-15.302h11.347v2.589h-8.257v3.392h7.683v2.578h-7.683v4.165h8.549v2.578H462.66zm15.958-15.302h5.648c.979-.033 1.959.066 2.912.292a5.134 5.134 0 012.307 1.409 6.706 6.706 0 011.461 2.479c.362 1.171.531 2.393.5 3.618a10.094 10.094 0 01-.469 3.256 6.752 6.752 0 01-1.639 2.7c-.62.57-1.363.988-2.172 1.221a9.343 9.343 0 01-2.734.323h-5.815l.001-15.298zm3.09 2.589v10.135h2.307a8.419 8.419 0 001.868-.146 2.85 2.85 0 001.248-.636c.395-.413.674-.922.809-1.477a9.976 9.976 0 00.313-2.8 9.143 9.143 0 00-.313-2.725 3.499 3.499 0 00-.877-1.482 2.937 2.937 0 00-1.43-.72 13.882 13.882 0 00-2.536-.146l-1.389-.003z" fill="#fff"/><path fill-rule="evenodd" clip-rule="evenodd" d="M338.594 287.819h-1.022v-2.045a5.117 5.117 0 00-10.229 0v2.045h-1.022a2.053 2.053 0 00-2.045 2.046v10.228a2.053 2.053 0 002.045 2.045h12.273a2.05 2.05 0 002.047-2.045v-10.228a2.052 2.052 0 00-2.047-2.046zm-6.136 9.206a2.046 2.046 0 112.046-2.046 2.057 2.057 0 01-.601 1.445 2.057 2.057 0 01-1.445.601zm-3.171-9.206h6.341v-2.045a3.173 3.173 0 00-3.171-3.115 3.173 3.173 0 00-3.17 3.115v2.045z" fill="#fff"/><path d="M553.6 377.935h-65.424a9.104 9.104 0 01-6.435-2.665 9.104 9.104 0 01-2.665-6.435l-.55-27.271a9.044 9.044 0 019.041-9.041l65.537-.1a9.13 9.13 0 019.04 9.142l.549 27.271a9.101 9.101 0 01-9.093 9.099z" fill="#0065EB"/><path d="M553.6 378.325h-65.424a9.504 9.504 0 01-6.704-2.782 9.504 9.504 0 01-2.782-6.704l-.55-27.264a9.443 9.443 0 019.43-9.438l65.536-.1a9.49 9.49 0 019.43 9.532l.55 27.263a9.502 9.502 0 01-9.486 9.493zm-.494-45.508l-65.536.1a8.662 8.662 0 00-8.652 8.651l.55 27.263a8.72 8.72 0 008.707 8.714H553.6a8.71 8.71 0 006.153-2.553 8.71 8.71 0 002.553-6.153l-.55-27.264a8.715 8.715 0 00-8.649-8.758h-.001z" fill="#8BCBFF"/><path d="M496.4 355.231c0-1.247.495-2.442 1.377-3.323a4.695 4.695 0 013.323-1.377h6.062v-2.88H501.1a7.58 7.58 0 000 15.158h6.062v-2.88H501.1a4.702 4.702 0 01-4.7-4.698zm6.214 1.516h12.126v-3.032h-12.122l-.004 3.032zm13.642-9.1H510.2v2.88h6.063c1.247 0 2.442.495 3.323 1.377a4.695 4.695 0 010 6.646 4.695 4.695 0 01-3.323 1.377H510.2v2.88h6.063a7.58 7.58 0 000-15.158l-.007-.002zm15.922 15.13h11.395v-2.183h-7.931v-.1l3.787-3.717c2.99-2.956 3.879-4.307 3.879-6.211v-.024c0-2.69-2.286-4.7-5.485-4.7-3.255 0-5.784 2.159-5.784 5.138v.069h2.448v-.069a3.147 3.147 0 013.372-3 2.722 2.722 0 012.04.726 2.724 2.724 0 01.86 1.988v.023c0 1.293-.5 2.17-2.713 4.387l-5.865 5.9-.003 1.773z" fill="#fff"/><path d="M555.487 221.786H448.208c-3.05 0-5.975-1.212-8.132-3.368a11.504 11.504 0 01-3.368-8.132l-.695-38.491a11.443 11.443 0 013.349-8.084 11.424 11.424 0 018.084-3.348l107.418-.128a11.541 11.541 0 0111.432 11.56l.7 38.491a11.51 11.51 0 01-3.371 8.135 11.498 11.498 0 01-8.138 3.365z" fill="#003CBE"/><path d="M496.564 196.169h1.8l1.381-3.935h5.47l1.381 3.935h1.8l-5.07-13.75h-1.7l-5.062 13.75zm5.84-11.53h.153l2.153 6.137h-4.459l2.153-6.137zM510.6 199.6h1.657v-5.05h.153a3.533 3.533 0 003.2 1.8c2.61 0 4.306-2.087 4.306-5.307v-.019c0-3.2-1.706-5.308-4.306-5.308a3.516 3.516 0 00-3.2 1.82h-.153V185.9H510.6v13.7zm4.631-4.717c-1.868 0-3.011-1.467-3.011-3.839v-.019c0-2.373 1.143-3.84 3.011-3.84s2.992 1.448 2.992 3.84v.019c-.001 2.39-1.116 3.838-2.993 3.838l.001.001zm7.28 4.717h1.657v-5.05h.154a3.53 3.53 0 003.2 1.8c2.611 0 4.306-2.087 4.306-5.307v-.019c0-3.2-1.7-5.308-4.306-5.308a3.509 3.509 0 00-3.2 1.82h-.154V185.9h-1.658l.001 13.7zm4.63-4.717c-1.867 0-3.011-1.467-3.011-3.839v-.019c0-2.373 1.144-3.84 3.011-3.84 1.867 0 2.993 1.448 2.993 3.84v.019c-.001 2.39-1.116 3.838-2.994 3.838l.001.001zm10.806 1.468c2.334 0 4.116-1.267 4.116-3.1v-.019c0-1.467-.934-2.306-2.867-2.773l-1.583-.381c-1.209-.3-1.724-.733-1.724-1.429v-.019c0-.905.895-1.534 2.115-1.534.476-.063.96.039 1.37.289.411.249.724.631.888 1.083h1.629c-.229-1.677-1.724-2.754-3.877-2.754-2.182 0-3.821 1.286-3.821 2.992v.01c0 1.476.867 2.315 2.792 2.772l1.59.381c1.269.3 1.791.791 1.791 1.487v.019c0 .934-.981 1.591-2.362 1.591a2.271 2.271 0 01-2.41-1.42h-1.7c.193 1.698 1.765 2.804 4.052 2.804l.001.001z" fill="#E9F7FF"/><path d="M480.827 189.706h1.3a3.904 3.904 0 110 7.81h-1.3v4.553a3.263 3.263 0 01-3.252 3.254h-5.6v-2.6a2.865 2.865 0 00-5.727 0v2.6h-5.595a3.262 3.262 0 01-3.254-3.254v-5.6H460a2.865 2.865 0 000-5.726h-2.588v-5.595a3.252 3.252 0 013.24-3.253h4.556v-1.3c0-1.035.411-2.028 1.143-2.761a3.907 3.907 0 015.522 0 3.907 3.907 0 011.143 2.761v1.3h4.554a3.263 3.263 0 013.254 3.252v4.553l.003.006zm-3.254 14.315a1.959 1.959 0 001.951-1.952v-5.854h2.6a2.601 2.601 0 002.604-2.604 2.603 2.603 0 00-2.604-2.603h-2.6v-5.855a1.958 1.958 0 00-1.951-1.954h-5.856v-2.6c0-.69-.274-1.351-.762-1.838a2.596 2.596 0 00-3.676 0 2.596 2.596 0 00-.762 1.838v2.6h-5.857a1.946 1.946 0 00-1.939 1.953v4.294H460a4.164 4.164 0 110 8.33h-1.3v4.293a1.961 1.961 0 001.952 1.954h4.3v-1.3a4.165 4.165 0 018.329 0v1.3h4.294l-.002-.002z" fill="#E5E5E5" stroke="#E9F7FF"/><path d="M561.454 324.334H549.28a.632.632 0 01-.631-.632v-21.64a.63.63 0 01.389-.585.648.648 0 01.242-.048h5.411a.63.63 0 01.608.632.63.63 0 01-.608.633h-4.779v20.376h11.542a.635.635 0 01.632.632.635.635 0 01-.632.632zm14.877-11.5a.631.631 0 01-.632-.633v-9.51h-4.778a.635.635 0 01-.632-.632.635.635 0 01.632-.632h5.41a.63.63 0 01.585.39.63.63 0 01.048.242V312.2a.62.62 0 01-.184.45.625.625 0 01-.449.187v-.003z" fill="#E9F7FF"/><path d="M576.331 309.456H549.28a.632.632 0 010-1.263h27.051a.621.621 0 01.463.176.634.634 0 01-.463 1.087zm-5.41-4.057h-4.058a.635.635 0 01-.632-.632v-2.073h-6.85v2.073a.63.63 0 01-.633.632h-4.057a.635.635 0 01-.632-.632v-5.41a.63.63 0 01.39-.585.63.63 0 01.242-.048h4.057a.626.626 0 01.448.185.635.635 0 01.185.448v2.072h6.85v-2.072a.63.63 0 01.39-.585.63.63 0 01.242-.048h4.058a.63.63 0 01.632.633v5.41a.63.63 0 01-.39.585.63.63 0 01-.242.048v-.001zm-3.426-1.264h2.794v-4.147H567.5l-.005 4.147zm-12.172 0h2.793v-4.147h-2.793v4.147zm16.951 26.965a8.738 8.738 0 01-4.859-1.475 8.753 8.753 0 01-3.719-8.979 8.75 8.75 0 0111.927-6.374 8.743 8.743 0 012.834 14.264 8.755 8.755 0 01-6.183 2.564zm0-16.23a7.482 7.482 0 105.29 2.192 7.494 7.494 0 00-5.29-2.195v.003z" fill="#E9F7FF"/><path d="M575.655 324.334h-3.38a.635.635 0 01-.632-.632v-4.734a.635.635 0 01.632-.632.635.635 0 01.632.632v4.1h2.748a.635.635 0 01.632.632.635.635 0 01-.632.632v.002z" fill="#E9F7FF"/></svg>