<svg width="1136" height="563" fill="none" xmlns="http://www.w3.org/2000/svg"><path opacity=".2" d="M963 47v89.922c0 18.989-15.394 34.383-34.383 34.383H718.383c-18.989 0-34.383 15.393-34.383 34.382V252m407-16H924.09c-11.046 0-20 8.954-20 20v0c0 11.046-8.954 20-20 20H831m187.07 210.732h-53.982c-18.989 0-34.382-15.394-34.382-34.383v-40.227c0-18.989-15.394-34.383-34.383-34.383h-59.482" stroke="#000" stroke-width="2" stroke-dasharray="2.75 5.5"/><circle cx="962" cy="44" r="43" fill="#fff" stroke="#E6E7EA" stroke-width="2"/><g opacity=".4" fill-rule="evenodd" clip-rule="evenodd" fill="#666D80" clip-path="url(#clip0)"><path d="M956.866 25a3.781 3.781 0 10.002 7.563h3.783v-3.78A3.785 3.785 0 00956.866 25c.002 0 .002 0 0 0zm0 10.086h-10.084a3.782 3.782 0 00-.001 7.564h10.085a3.782 3.782 0 100-7.564zm23.955 3.781a3.782 3.782 0 00-3.783-3.781 3.782 3.782 0 00-3.782 3.78v3.784h3.782a3.782 3.782 0 003.783-3.783zm-10.086 0V28.78a3.782 3.782 0 00-7.564 0v10.086a3.783 3.783 0 107.564 0zm-3.782 23.954a3.783 3.783 0 003.783-3.781 3.783 3.783 0 00-3.783-3.781h-3.783v3.78a3.784 3.784 0 003.783 3.782zm0-10.087h10.086a3.783 3.783 0 00.001-7.564h-10.085a3.782 3.782 0 10-.002 7.564zM943 48.953a3.783 3.783 0 007.565 0V45.17h-3.783A3.782 3.782 0 00943 48.953zm10.085 0v10.085a3.783 3.783 0 007.564.002V48.956a3.782 3.782 0 00-7.564-.003s0 .001 0 0z"/></g><circle cx="1092" cy="236" r="43" fill="#fff" stroke="#E6E7EA" stroke-width="2"/><path opacity=".4" d="M1078.22 237.794a1.275 1.275 0 001.26 1.247c.33 0 .65-.131.89-.365.24-.233.37-.55.37-.882v-11.339c0-.332-.13-.649-.37-.882a1.278 1.278 0 00-.89-.365 1.275 1.275 0 00-1.26 1.247v11.339zm.44 7.891c.2.167 4.87 4.086 13.43 4.086 8.56 0 13.23-3.919 13.43-4.086.25-.218.41-.527.43-.861.03-.333-.08-.663-.3-.917a1.253 1.253 0 00-1.77-.139c-.08.062-4.25 3.481-11.79 3.481-7.64 0-11.75-3.444-11.79-3.479a1.252 1.252 0 00-1.77.137c-.22.254-.33.584-.3.917.02.334.18.643.43.861zm27.3-19.23a1.275 1.275 0 00-1.26-1.247c-.34 0-.65.131-.89.365-.24.233-.37.55-.37.882v11.339c0 .332.13.649.37.882.24.234.55.365.89.365a1.275 1.275 0 001.26-1.247v-11.339zm-6.31-2.521c0-.331-.14-.647-.37-.879a1.28 1.28 0 00-.89-.363c-.33 0-.65.13-.88.363-.24.232-.37.548-.38.879v16.842a1.268 1.268 0 001.26 1.241c.33 0 .65-.13.89-.362.23-.232.37-.548.37-.879v-16.842zm-6.3-.638c0-.166-.03-.33-.1-.483a1.158 1.158 0 00-.27-.409c-.12-.117-.26-.21-.41-.273a1.228 1.228 0 00-.48-.096c-.17 0-.33.033-.48.096-.16.063-.29.156-.41.273-.12.117-.21.256-.28.409-.06.153-.09.317-.09.483v18.28c0 .332.14.649.37.883.24.233.56.364.89.364.33 0 .65-.131.89-.364.23-.234.37-.551.37-.883v-18.28zm-6.3.638a1.268 1.268 0 00-1.26-1.242c-.33 0-.65.13-.89.363-.23.232-.37.548-.37.879v16.842c0 .331.14.647.37.879a1.26 1.26 0 001.77 0c.24-.232.37-.548.38-.879v-16.842zm-9.14-6.934h28.36a4.73 4.73 0 014.73 4.728v28.365a4.73 4.73 0 01-4.73 4.728h-28.36a4.73 4.73 0 01-4.73-4.728v-28.365a4.73 4.73 0 014.73-4.728z" fill="#666D80"/><circle cx="1017" cy="486" r="43" fill="#fff" stroke="#E6E7EA" stroke-width="2"/><g clip-path="url(#clip1)"><path opacity=".4" d="M1012.36 486.487c0 1.476.26 2.941.78 4.323 1.39.521 2.85.787 4.33.788h.02c1.52-.002 2.98-.28 4.32-.787.52-1.382.79-2.847.79-4.324v-.018c0-1.477-.27-2.941-.79-4.323a12.257 12.257 0 00-4.32-.788h-.02c-1.48 0-2.94.266-4.33.788a12.267 12.267 0 00-.78 4.323v.018zm-15.076-3.422h11.956l-8.45-8.452a20.19 20.19 0 012.21-2.616v-.001a20.75 20.75 0 012.61-2.21l8.46 8.452v-11.953c1.12-.189 2.26-.284 3.4-.285h.02c1.16.001 2.29.099 3.4.285v11.953l8.45-8.452c.93.663 1.81 1.403 2.62 2.212v.003c.81.808 1.55 1.681 2.21 2.612l-8.45 8.452h11.95s.29 2.245.29 3.406v.014c0 1.161-.1 2.298-.29 3.406h-11.95l8.45 8.452a20.571 20.571 0 01-4.83 4.827l-8.45-8.453v11.954c-1.12.188-2.26.283-3.4.285h-.03a20.645 20.645 0 01-3.39-.285v-11.954l-8.46 8.453c-.93-.663-1.8-1.403-2.61-2.211v-.002a20.24 20.24 0 01-2.21-2.614l8.45-8.452h-11.956a20.574 20.574 0 01-.284-3.398v-.03c.001-1.158.098-2.293.284-3.398z" fill="#666D80"/></g><circle cx="840.311" cy="171.787" r="8.252" fill="#E6E7EA"/><circle cx="988.844" cy="236.427" r="8.252" fill="#E6E7EA"/><circle cx="929.018" cy="410.403" r="8.252" fill="#E6E7EA"/><path opacity=".2" d="M173 46v90.305c0 18.778 15.222 34 34 34h211c18.778 0 34 15.222 34 34V251M46 236h144.13c18.777 0 34 15.222 34 34v16c0 18.778 15.222 34 34 34H305M118 486h53.87c18.989 0 34.383-15.394 34.383-34.383v-40.234c0-18.989 15.393-34.383 34.382-34.383H300" stroke="#000" stroke-width="2" stroke-dasharray="2.75 5.5"/><circle r="43" transform="matrix(-1 0 0 1 174 44)" fill="#fff" stroke="#E6E7EA" stroke-width="2"/><path d="M172.554 58.5V37.524L155 58.5h17.554zm-8.767-19.824c4.843 0 8.767-3.883 8.767-8.676H155c0 4.793 3.943 8.676 8.787 8.676zm20.426 11.148c-4.843 0-8.767 3.883-8.767 8.676h17.535c0-4.793-3.924-8.676-8.768-8.676zM175.446 30v20.976L193 30h-17.554z" opacity=".4" fill="#666D80"/><circle r="43" transform="matrix(-1 0 0 1 44 236)" fill="#fff" stroke="#E6E7EA" stroke-width="2"/><g opacity=".4" clip-path="url(#clip2)"><path d="M43.94 215.006s12.341-.552 18.885 11.804H42.89s-3.762-.121-6.976 4.424c-.923 1.908-1.916 3.874-.802 7.747-1.604-2.707-8.516-14.694-8.516-14.694s4.875-8.793 17.344-9.281z" fill="#666D80"/><path d="M62.183 246.372s-5.695 10.924-19.704 10.384c1.731-2.982 9.97-17.194 9.97-17.194s1.991-3.184-.357-8.229c-1.195-1.753-2.412-3.586-6.336-4.563 3.157-.029 17.033 0 17.033 0s5.198 8.603-.606 19.602z" fill="#666D80"/><path d="M25.781 246.458s-6.652-10.373.825-22.188c1.726 2.983 9.965 17.194 9.965 17.194s1.777 3.311 7.333 3.805c2.118-.156 4.322-.288 7.138-3.178-1.553 2.735-8.517 14.688-8.517 14.688s-10.085.184-16.744-10.321z" fill="#666D80"/><path d="M42.474 256.859l2.804-11.654s3.08-.241 5.666-3.063a8264.35 8264.35 0 01-8.47 14.717z" fill="#fff"/><path d="M34.546 236.062c0-5.137 4.183-9.304 9.341-9.304 5.158 0 9.342 4.167 9.342 9.304 0 5.138-4.184 9.304-9.342 9.304-5.158-.005-9.341-4.166-9.341-9.304z" fill="#fff"/><path d="M36.109 236.062c0-4.276 3.48-7.747 7.778-7.747 4.292 0 7.777 3.466 7.777 7.747 0 4.275-3.479 7.746-7.777 7.746-4.293 0-7.778-3.471-7.778-7.746z" fill="#666D80"/><path d="M62.783 226.775l-11.546 3.374s-1.742-2.546-5.486-3.374c3.248-.017 17.032 0 17.032 0zm-27.896 11.78c-1.621-2.798-8.291-14.269-8.291-14.269l8.55 8.425s-.877 1.799-.547 4.373l.288 1.471z" fill="#fff"/></g><circle r="43" transform="matrix(-1 0 0 1 119 486)" fill="#fff" stroke="#E6E7EA" stroke-width="2"/><path opacity=".4" fill-rule="evenodd" clip-rule="evenodd" d="M100.531 473.697c-.33.37-.531.857-.531 1.392v21.718a2.09 2.09 0 002.089 2.089h32.268a2.09 2.09 0 002.089-2.089v-21.718c0-.535-.201-1.022-.531-1.392l-13.999 9.947c.095.078.206.174.332.286.323.286.751.685 1.257 1.17a259.76 259.76 0 013.802 3.743 928.615 928.615 0 018.516 8.657l-.374.364a928.718 928.718 0 00-8.512-8.652 258.855 258.855 0 00-3.793-3.735 49.722 49.722 0 00-1.242-1.157 9.65 9.65 0 00-.43-.36l-3.098 2.201-.151.107-.151-.107-3.061-2.175-14.017 13.881-.367-.371 13.952-13.817-14.048-9.982zm34.978-.351a2.076 2.076 0 00-1.152-.346h-32.268c-.425 0-.821.127-1.151.346l14.197 10.087 3.088 2.194 3.089-2.194 14.197-10.087z" fill="#666D80"/><circle r="8.252" transform="matrix(-1 0 0 1 295.691 171.787)" fill="#E6E7EA"/><circle r="8.252" transform="matrix(-1 0 0 1 147.158 236.427)" fill="#E6E7EA"/><circle r="8.252" transform="matrix(-1 0 0 1 206.984 410.403)" fill="#E6E7EA"/><rect x="257" y="207" width="608" height="355" rx="20" fill="#fff" stroke="#E6E7EA" stroke-width="2"/><rect x="483" y="231" width="358" height="307" rx="10" fill="#fff" stroke="#E6E7EA" stroke-width="2"/><path d="M530.521 255.776c-1.704 0-2.724-1.212-2.724-3.048s1.02-3.036 2.724-3.036c1.26 0 2.208.66 2.544 1.8l1.404-.492c-.54-1.692-2.052-2.7-3.948-2.7-2.484 0-4.26 1.812-4.26 4.428 0 2.616 1.776 4.44 4.26 4.44 1.896 0 3.408-1.008 3.948-2.7l-1.404-.492c-.336 1.14-1.284 1.8-2.544 1.8zm9.377-1.416c0 1.02-.552 1.56-1.44 1.56-.864 0-1.212-.564-1.212-1.416v-3.732h-1.428v3.924c0 1.452.78 2.448 2.292 2.448 1.008 0 1.632-.456 1.896-.948V257h1.32v-6.228h-1.428v3.588zm2.66.9c.156 1.032.9 1.884 2.604 1.884 1.74 0 2.604-.888 2.604-1.944 0-2.52-3.528-1.452-3.528-2.664 0-.456.36-.744 1.068-.744.72 0 1.056.444 1.116.888l1.332-.24c-.156-.816-.804-1.812-2.412-1.812-1.536 0-2.472.912-2.472 1.956 0 2.532 3.528 1.356 3.528 2.676 0 .432-.408.708-1.152.708-.864 0-1.296-.396-1.344-.924l-1.344.216zm9.311.468s-.204.06-.444.06c-.492 0-.696-.24-.696-.732v-3.144h1.164v-1.14h-1.164v-1.62h-1.428v1.62h-.948v1.14h.948v3.288c0 1.176.552 1.836 1.824 1.836.48 0 .744-.072.744-.072v-1.236zm3.856 1.416c1.992 0 3.24-1.5 3.24-3.252 0-1.752-1.248-3.264-3.24-3.264-1.98 0-3.228 1.512-3.228 3.264 0 1.752 1.248 3.252 3.228 3.252zm-1.8-3.252c0-1.212.768-2.004 1.8-2.004 1.044 0 1.812.792 1.812 2.004 0 1.2-.768 1.992-1.812 1.992-1.032 0-1.8-.792-1.8-1.992zm11.787-.468c0-1.008.552-1.572 1.404-1.572.864 0 1.176.612 1.176 1.416V257h1.428v-3.912c0-1.416-.768-2.46-2.268-2.46-.96 0-1.632.384-2.112.984-.348-.6-.972-.984-1.872-.984-.996 0-1.596.48-1.86.972v-.828h-1.32V257h1.428v-3.624c0-.948.54-1.524 1.392-1.524.852 0 1.176.6 1.176 1.416V257h1.428v-3.576zm9.921 1.536c-.264.624-.828.96-1.512.96-.996 0-1.632-.636-1.74-1.62h4.74s.012-.216.012-.444c0-1.824-1.212-3.228-3.06-3.228s-3.096 1.44-3.096 3.252c0 1.86 1.224 3.264 3.108 3.264 1.356 0 2.388-.732 2.832-1.848l-1.284-.336zm-1.56-3.168c.924 0 1.524.588 1.644 1.452h-3.312c.144-.852.744-1.452 1.668-1.452zm7.727-1.068s-.144-.012-.204-.012c-1.08 0-1.608.528-1.836.924v-.864h-1.32V257h1.428v-3.24c0-1.2.6-1.728 1.608-1.728.156 0 .324.024.324.024v-1.332zm5.748 6.276v-3.648h3.912v-1.344h-3.912v-2.184h4.116v-1.344h-5.568V257h1.452zm9.32-2.04c-.264.624-.828.96-1.512.96-.996 0-1.632-.636-1.74-1.62h4.74s.012-.216.012-.444c0-1.824-1.212-3.228-3.06-3.228s-3.096 1.44-3.096 3.252c0 1.86 1.224 3.264 3.108 3.264 1.356 0 2.388-.732 2.832-1.848l-1.284-.336zm-1.56-3.168c.924 0 1.524.588 1.644 1.452h-3.312c.144-.852.744-1.452 1.668-1.452zm8.615 3.168c-.264.624-.828.96-1.512.96-.996 0-1.632-.636-1.74-1.62h4.74s.012-.216.012-.444c0-1.824-1.212-3.228-3.06-3.228s-3.096 1.44-3.096 3.252c0 1.86 1.224 3.264 3.108 3.264 1.356 0 2.388-.732 2.832-1.848l-1.284-.336zm-1.56-3.168c.924 0 1.524.588 1.644 1.452h-3.312c.144-.852.744-1.452 1.668-1.452zm8.83-.204c-.348-.528-1.02-.96-1.992-.96-1.836 0-2.88 1.476-2.88 3.264 0 1.776 1.044 3.252 2.88 3.252.972 0 1.704-.384 2.1-1.032V257h1.32v-9h-1.428v3.588zm.06 2.304c0 1.116-.66 1.992-1.752 1.992-1.08 0-1.752-.876-1.752-1.992 0-1.14.672-2.004 1.752-2.004 1.092 0 1.752.864 1.752 2.004zm4.533-2.304V248h-1.428v9h1.32v-.888c.408.648 1.14 1.032 2.1 1.032 1.848 0 2.892-1.476 2.892-3.252 0-1.788-1.044-3.264-2.892-3.264-.96 0-1.644.432-1.992.96zm-.048 2.304c0-1.14.66-2.004 1.752-2.004 1.08 0 1.752.864 1.752 2.004 0 1.116-.672 1.992-1.752 1.992-1.092 0-1.752-.876-1.752-1.992zm10.089.192v.384c0 .84-.564 1.56-1.716 1.56-.756 0-1.08-.3-1.08-.78 0-.42.228-.732 1.14-.888l1.656-.276zm-2.004 3.06c.936 0 1.728-.3 2.172-.828.156.372.588.756 1.296.756.276 0 .456-.048.456-.048v-1.152s-.06.012-.12.012c-.252 0-.408-.12-.408-.42v-2.508c0-1.428-.864-2.328-2.688-2.328-1.764 0-2.532.888-2.724 1.896l1.368.228c.096-.6.54-.948 1.32-.948.852 0 1.332.36 1.332 1.116v.084l-1.8.264c-1.644.24-2.388.936-2.388 1.992 0 1.068.672 1.884 2.184 1.884zm7.872-1.26c-1.02 0-1.668-.828-1.668-1.992 0-1.176.648-2.004 1.668-2.004.768 0 1.344.468 1.512 1.14l1.368-.336c-.324-1.068-1.2-2.064-2.868-2.064-1.836 0-3.108 1.452-3.108 3.264 0 1.8 1.272 3.252 3.108 3.252 1.668 0 2.544-.996 2.868-2.064l-1.368-.336c-.168.672-.744 1.14-1.512 1.14zm8.188-5.112l-2.652 3.036V248h-1.428v9h1.428v-1.488l1.092-1.176 1.836 2.664h1.704l-2.592-3.6 2.412-2.628h-1.8z" fill="#BCC4CC"/><path fill="#E2EFFD" d="M611 296h118v14H611z"/><path d="M531.676 300.257h.022l2.079 6.754h.891l2.508-7.821h-.869l-2.046 6.754h-.022l-2.09-6.754h-.913l-2.09 6.743h-.022l-2.035-6.743h-.902l2.508 7.81h.88l2.101-6.743zm10.202 5.005c-.286.693-.913 1.166-1.771 1.166-1.177 0-1.914-.869-1.991-2.002h4.653s.011-.176.011-.297c0-1.584-1.023-2.86-2.695-2.86-1.683 0-2.75 1.375-2.75 2.926 0 1.573.99 2.937 2.761 2.937 1.199 0 2.068-.66 2.464-1.573l-.682-.297zm-1.793-3.289c1.1 0 1.815.737 1.914 1.815h-3.861c.132-1.034.858-1.815 1.947-1.815zm4.232-2.783l-.528 2.189h.671l.748-2.189h-.891zm5.048 2.167s-.132-.011-.187-.011c-1.034 0-1.584.539-1.793.924v-.869h-.748V307h.781v-3.179c0-1.166.715-1.738 1.672-1.738.143 0 .275.011.275.011v-.737zm5.006 3.905c-.286.693-.913 1.166-1.771 1.166-1.177 0-1.914-.869-1.991-2.002h4.653s.011-.176.011-.297c0-1.584-1.023-2.86-2.695-2.86-1.683 0-2.75 1.375-2.75 2.926 0 1.573.99 2.937 2.761 2.937 1.199 0 2.068-.66 2.464-1.573l-.682-.297zm-1.793-3.289c1.1 0 1.815.737 1.914 1.815h-3.861c.132-1.034.858-1.815 1.947-1.815zm7.827 5.027v-8.25h-.781V307h.781zm4.357.132c1.771 0 2.86-1.386 2.86-2.926 0-1.54-1.089-2.937-2.86-2.937-1.76 0-2.849 1.397-2.849 2.937 0 1.54 1.089 2.926 2.849 2.926zm-2.057-2.926c0-1.265.814-2.233 2.057-2.233 1.254 0 2.068.968 2.068 2.233 0 1.254-.814 2.222-2.068 2.222-1.243 0-2.057-.968-2.057-2.222zm8.846 2.926c1.771 0 2.86-1.386 2.86-2.926 0-1.54-1.089-2.937-2.86-2.937-1.76 0-2.849 1.397-2.849 2.937 0 1.54 1.089 2.926 2.849 2.926zm-2.057-2.926c0-1.265.814-2.233 2.057-2.233 1.254 0 2.068.968 2.068 2.233 0 1.254-.814 2.222-2.068 2.222-1.243 0-2.057-.968-2.057-2.222zm10.287-2.805l-3.091 3.113v-5.764h-.781V307h.781v-1.529l1.265-1.232 2.079 2.761h.968l-2.497-3.289 2.321-2.31h-1.045zm2.604-1.386c.319 0 .561-.22.561-.539a.543.543 0 00-.561-.561.537.537 0 00-.561.561c0 .319.231.539.561.539zm-.396 6.985h.781v-5.599h-.781V307zm3.455-5.599h-.748V307h.781v-3.333c0-1.122.737-1.716 1.683-1.716 1.001 0 1.474.616 1.474 1.628V307h.781v-3.575c0-1.243-.737-2.156-2.123-2.156-1.089 0-1.65.627-1.848.99v-.858zm7.96 3.938c1.386 0 2.233-.869 2.233-2.035 0-.319-.066-.605-.187-.869a1.27 1.27 0 01-.066-.418c0-.396.297-.638.682-.638.187 0 .308.011.308.011v-.715c-.022 0-.11-.011-.286-.011-.66 0-1.199.374-1.353.957-.352-.22-.803-.352-1.331-.352-1.386 0-2.233.869-2.233 2.035 0 .583.209 1.089.594 1.452-.341.176-.748.506-.748 1.122 0 .451.187.77.484.968-.165.099-.627.451-.627 1.111 0 .99.726 1.54 2.596 1.54 1.958 0 2.695-.825 2.695-1.694 0-.825-.495-1.43-1.793-1.43h-2.035c-.407 0-.583-.242-.583-.55 0-.517.506-.693.539-.704.319.143.693.22 1.111.22zm0-.682c-.913 0-1.474-.517-1.474-1.353s.561-1.353 1.474-1.353c.913 0 1.474.517 1.474 1.353s-.561 1.353-1.474 1.353zm1.045 2.442c.528 0 .957.176.957.704 0 .605-.594.957-1.936.957-1.276 0-1.837-.264-1.837-.88a.85.85 0 01.539-.781h2.277zm8.1-.836s-.253.055-.495.055c-.539 0-.77-.286-.77-.88v-3.377h1.287v-.66h-1.287v-1.595h-.781v1.595h-1.067v.66h1.067v3.432c0 1.012.506 1.529 1.452 1.529.396 0 .594-.055.594-.055v-.704zm3.592.869c1.771 0 2.86-1.386 2.86-2.926 0-1.54-1.089-2.937-2.86-2.937-1.76 0-2.849 1.397-2.849 2.937 0 1.54 1.089 2.926 2.849 2.926zm-2.057-2.926c0-1.265.814-2.233 2.057-2.233 1.254 0 2.068.968 2.068 2.233 0 1.254-.814 2.222-2.068 2.222-1.243 0-2.057-.968-2.057-2.222zm12-2.849s-.132-.011-.187-.011c-1.034 0-1.584.539-1.793.924v-.869h-.748V307h.781v-3.179c0-1.166.715-1.738 1.672-1.738.143 0 .275.011.275.011v-.737zm5.007 3.905c-.286.693-.913 1.166-1.771 1.166-1.177 0-1.914-.869-1.991-2.002h4.653s.011-.176.011-.297c0-1.584-1.023-2.86-2.695-2.86-1.683 0-2.75 1.375-2.75 2.926 0 1.573.99 2.937 2.761 2.937 1.199 0 2.068-.66 2.464-1.573l-.682-.297zm-1.793-3.289c1.1 0 1.815.737 1.914 1.815h-3.861c.132-1.034.858-1.815 1.947-1.815zm6.531 4.455c-1.177 0-1.969-.935-1.969-2.222 0-1.298.792-2.233 1.969-2.233.902 0 1.518.495 1.782 1.276l.726-.286c-.341-.946-1.199-1.694-2.508-1.694-1.705 0-2.761 1.397-2.761 2.937 0 1.529 1.056 2.926 2.761 2.926 1.309 0 2.167-.748 2.508-1.694l-.726-.286c-.264.781-.88 1.276-1.782 1.276zm6.276.704c1.771 0 2.86-1.386 2.86-2.926 0-1.54-1.089-2.937-2.86-2.937-1.76 0-2.849 1.397-2.849 2.937 0 1.54 1.089 2.926 2.849 2.926zm-2.057-2.926c0-1.265.814-2.233 2.057-2.233 1.254 0 2.068.968 2.068 2.233 0 1.254-.814 2.222-2.068 2.222-1.243 0-2.057-.968-2.057-2.222zm9.143-2.849s-.132-.011-.187-.011c-1.034 0-1.584.539-1.793.924v-.869h-.748V307h.781v-3.179c0-1.166.715-1.738 1.672-1.738.143 0 .275.011.275.011v-.737zm5.193 1.056c-.374-.671-1.067-1.144-2.09-1.144-1.716 0-2.64 1.386-2.64 2.937 0 1.54.924 2.926 2.64 2.926 1.023 0 1.738-.451 2.123-1.166V307h.748v-8.25h-.781v3.663zm.033 1.793c0 1.221-.715 2.222-1.969 2.222s-2.002-1.001-2.002-2.222c0-1.243.748-2.233 2.002-2.233 1.254 0 1.969.99 1.969 2.233zm7.958 2.926c1.771 0 2.86-1.386 2.86-2.926 0-1.54-1.089-2.937-2.86-2.937-1.76 0-2.849 1.397-2.849 2.937 0 1.54 1.089 2.926 2.849 2.926zm-2.057-2.926c0-1.265.814-2.233 2.057-2.233 1.254 0 2.068.968 2.068 2.233 0 1.254-.814 2.222-2.068 2.222-1.243 0-2.057-.968-2.057-2.222zm10.232.506c0 1.188-.748 1.738-1.65 1.738-1.001 0-1.441-.616-1.441-1.628v-3.421h-.781v3.586c0 1.243.704 2.145 2.09 2.145 1.067 0 1.628-.583 1.815-.946V307h.748v-5.599h-.781v3.311zm5.432-3.355s-.132-.011-.187-.011c-1.034 0-1.584.539-1.793.924v-.869h-.748V307h.781v-3.179c0-1.166.715-1.738 1.672-1.738.143 0 .275.011.275.011v-.737zm5.955 4.741l-1.903-4.697h-.847L671.53 307h.792l2.365-5.599h-.814l-1.936 4.697zm4.281-6.083c.319 0 .561-.22.561-.539a.543.543 0 00-.561-.561.537.537 0 00-.561.561c0 .319.231.539.561.539zm-.396 6.985h.781v-5.599h-.781V307zm7.019-4.587c-.374-.671-1.067-1.144-2.09-1.144-1.716 0-2.64 1.386-2.64 2.937 0 1.54.924 2.926 2.64 2.926 1.023 0 1.738-.451 2.123-1.166V307h.748v-8.25h-.781v3.663zm.033 1.793c0 1.221-.715 2.222-1.969 2.222s-2.002-1.001-2.002-2.222c0-1.243.748-2.233 2.002-2.233 1.254 0 1.969.99 1.969 2.233zm6.795 1.056c-.286.693-.913 1.166-1.771 1.166-1.177 0-1.914-.869-1.991-2.002h4.653s.011-.176.011-.297c0-1.584-1.023-2.86-2.695-2.86-1.683 0-2.75 1.375-2.75 2.926 0 1.573.99 2.937 2.761 2.937 1.199 0 2.068-.66 2.464-1.573l-.682-.297zm-1.793-3.289c1.1 0 1.815.737 1.914 1.815h-3.861c.132-1.034.858-1.815 1.947-1.815zm6.619 5.159c1.771 0 2.86-1.386 2.86-2.926 0-1.54-1.089-2.937-2.86-2.937-1.76 0-2.849 1.397-2.849 2.937 0 1.54 1.089 2.926 2.849 2.926zm-2.057-2.926c0-1.265.814-2.233 2.057-2.233 1.254 0 2.068.968 2.068 2.233 0 1.254-.814 2.222-2.068 2.222-1.243 0-2.057-.968-2.057-2.222zm11.616 2.222c-1.177 0-1.969-.935-1.969-2.222 0-1.298.792-2.233 1.969-2.233.902 0 1.518.495 1.782 1.276l.726-.286c-.341-.946-1.199-1.694-2.508-1.694-1.705 0-2.761 1.397-2.761 2.937 0 1.529 1.056 2.926 2.761 2.926 1.309 0 2.167-.748 2.508-1.694l-.726-.286c-.264.781-.88 1.276-1.782 1.276zm5.999-4.488c1.056 0 1.584.473 1.584 1.419v.154l-1.958.253c-1.452.187-2.112.792-2.112 1.694 0 1.012.627 1.672 1.958 1.672.913 0 1.727-.374 2.156-1.001.088.561.55.891 1.056.891.242 0 .352-.033.352-.033v-.649s-.044.022-.198.022c-.308 0-.473-.187-.473-.539v-2.453c0-1.243-.715-2.101-2.332-2.101-1.474 0-2.167.704-2.354 1.628l.737.154c.154-.792.759-1.111 1.584-1.111zm1.584 2.189v.649c0 .792-.671 1.705-2.002 1.705-.627 0-1.298-.22-1.298-1.023 0-.561.374-.935 1.441-1.078l1.859-.253zm3.477 2.871v-8.25h-.781V307h.781zm2.707 0v-8.25h-.781V307h.781zm1.42-1.584c.121.913.759 1.716 2.288 1.716 1.518 0 2.233-.803 2.233-1.65 0-2.354-3.443-1.045-3.443-2.596 0-.506.429-.935 1.298-.935.891 0 1.309.484 1.375 1.089l.748-.253c-.154-.715-.715-1.518-2.101-1.518-1.331 0-2.079.792-2.079 1.65 0 2.299 3.443.979 3.443 2.585 0 .561-.528.946-1.474.946-.957 0-1.441-.473-1.507-1.177l-.781.143zm6.28 1.672c.341 0 .605-.242.605-.594a.587.587 0 00-.605-.594.58.58 0 00-.605.594c0 .352.253.594.605.594zm9.939-7.898h-5.797v.77h2.497V307h.803v-7.04h2.497v-.77zm1.837-.44h-.781V307h.781v-3.311c0-1.144.737-1.738 1.683-1.738 1.001 0 1.474.616 1.474 1.628V307h.781v-3.575c0-1.243-.737-2.156-2.123-2.156-1.045 0-1.617.572-1.815.913v-3.432zm6.189 1.265c.319 0 .561-.22.561-.539a.543.543 0 00-.561-.561.537.537 0 00-.561.561c0 .319.231.539.561.539zM743.09 307h.781v-5.599h-.781V307zm2.201-1.584c.121.913.759 1.716 2.288 1.716 1.518 0 2.233-.803 2.233-1.65 0-2.354-3.443-1.045-3.443-2.596 0-.506.429-.935 1.298-.935.891 0 1.309.484 1.375 1.089l.748-.253c-.154-.715-.715-1.518-2.101-1.518-1.331 0-2.079.792-2.079 1.65 0 2.299 3.443.979 3.443 2.585 0 .561-.528.946-1.474.946-.957 0-1.441-.473-1.507-1.177l-.781.143zm9.302-5.401c.319 0 .561-.22.561-.539a.543.543 0 00-.561-.561.537.537 0 00-.561.561c0 .319.231.539.561.539zm-.396 6.985h.781v-5.599h-.781V307zm2.201-1.584c.121.913.759 1.716 2.288 1.716 1.518 0 2.233-.803 2.233-1.65 0-2.354-3.443-1.045-3.443-2.596 0-.506.429-.935 1.298-.935.891 0 1.309.484 1.375 1.089l.748-.253c-.154-.715-.715-1.518-2.101-1.518-1.331 0-2.079.792-2.079 1.65 0 2.299 3.443.979 3.443 2.585 0 .561-.528.946-1.474.946-.957 0-1.441-.473-1.507-1.177l-.781.143zm10.876.682l-1.903-4.697h-.847l2.343 5.599h.792l2.365-5.599h-.814l-1.936 4.697zm7.763-.836c-.286.693-.913 1.166-1.771 1.166-1.177 0-1.914-.869-1.991-2.002h4.653s.011-.176.011-.297c0-1.584-1.023-2.86-2.695-2.86-1.683 0-2.75 1.375-2.75 2.926 0 1.573.99 2.937 2.761 2.937 1.199 0 2.068-.66 2.464-1.573l-.682-.297zm-1.793-3.289c1.1 0 1.815.737 1.914 1.815h-3.861c.132-1.034.858-1.815 1.947-1.815zm6.917-.616s-.132-.011-.187-.011c-1.034 0-1.584.539-1.793.924v-.869h-.748V307h.781v-3.179c0-1.166.715-1.738 1.672-1.738.143 0 .275.011.275.011v-.737zm1.073 7.337c-.099 0-.187-.011-.187-.011v.715s.066.011.22.011c.792 0 1.518-.363 2.035-1.584l2.706-6.424h-.825l-1.925 4.697-1.903-4.697h-.847l2.343 5.599-.242.594c-.363.858-.803 1.1-1.375 1.1zm-253.881 6.321c.319 0 .561-.22.561-.539a.543.543 0 00-.561-.561.537.537 0 00-.561.561c0 .319.231.539.561.539zm-.396 6.985h.781v-5.599h-.781V322zm7.283-3.267c0-1.188.726-1.782 1.606-1.782.979 0 1.397.682 1.397 1.628V322h.781v-3.575c0-1.188-.682-2.156-2.046-2.156-1.001 0-1.661.539-1.969 1.078-.297-.649-.913-1.078-1.826-1.078-1.089 0-1.573.627-1.771.99v-.858h-.748V322h.781v-3.333c0-1.078.693-1.716 1.606-1.716.979 0 1.408.649 1.408 1.628V322h.781v-3.267zm6.432 2.255c.374.682 1.078 1.144 2.09 1.144 1.727 0 2.651-1.386 2.651-2.926 0-1.551-.924-2.937-2.651-2.937-1.012 0-1.727.462-2.123 1.166v-1.034h-.748v7.887h.781v-3.3zm-.022-1.782c0-1.243.715-2.233 1.969-2.233s2.002.99 2.002 2.233c0 1.221-.748 2.222-2.002 2.222-1.254 0-1.969-1.001-1.969-2.222zm8.686 2.926c1.771 0 2.86-1.386 2.86-2.926 0-1.54-1.089-2.937-2.86-2.937-1.76 0-2.849 1.397-2.849 2.937 0 1.54 1.089 2.926 2.849 2.926zm-2.057-2.926c0-1.265.814-2.233 2.057-2.233 1.254 0 2.068.968 2.068 2.233 0 1.254-.814 2.222-2.068 2.222-1.243 0-2.057-.968-2.057-2.222zm9.143-2.849s-.132-.011-.187-.011c-1.034 0-1.584.539-1.793.924v-.869h-.748V322h.781v-3.179c0-1.166.715-1.738 1.672-1.738.143 0 .275.011.275.011v-.737zm3.406 4.906s-.253.055-.495.055c-.539 0-.77-.286-.77-.88v-3.377h1.287v-.66h-1.287v-1.595h-.781v1.595h-1.067v.66h1.067v3.432c0 1.012.506 1.529 1.452 1.529.396 0 .594-.055.594-.055v-.704zm3.379-4.323c1.056 0 1.584.473 1.584 1.419v.154l-1.958.253c-1.452.187-2.112.792-2.112 1.694 0 1.012.627 1.672 1.958 1.672.913 0 1.727-.374 2.156-1.001.088.561.55.891 1.056.891.242 0 .352-.033.352-.033v-.649s-.044.022-.198.022c-.308 0-.473-.187-.473-.539v-2.453c0-1.243-.715-2.101-2.332-2.101-1.474 0-2.167.704-2.354 1.628l.737.154c.154-.792.759-1.111 1.584-1.111zm1.584 2.189v.649c0 .792-.671 1.705-2.002 1.705-.627 0-1.298-.22-1.298-1.023 0-.561.374-.935 1.441-1.078l1.859-.253zm3.444-2.728h-.748V322h.781v-3.333c0-1.122.737-1.716 1.683-1.716 1.001 0 1.474.616 1.474 1.628V322h.781v-3.575c0-1.243-.737-2.156-2.123-2.156-1.089 0-1.65.627-1.848.99v-.858zm8.103 4.862s-.253.055-.495.055c-.539 0-.77-.286-.77-.88v-3.377h1.287v-.66h-1.287v-1.595h-.781v1.595h-1.067v.66h1.067v3.432c0 1.012.506 1.529 1.452 1.529.396 0 .594-.055.594-.055v-.704zm4.39-4.862h-1.089v.66h1.089V322h.781v-4.939h1.265v-.66h-1.265v-.957c0-.715.341-.979.946-.979.198 0 .308.022.308.022v-.715s-.143-.022-.374-.022c-.979 0-1.661.55-1.661 1.727v.924zm5.475 5.731c1.771 0 2.86-1.386 2.86-2.926 0-1.54-1.089-2.937-2.86-2.937-1.76 0-2.849 1.397-2.849 2.937 0 1.54 1.089 2.926 2.849 2.926zm-2.057-2.926c0-1.265.814-2.233 2.057-2.233 1.254 0 2.068.968 2.068 2.233 0 1.254-.814 2.222-2.068 2.222-1.243 0-2.057-.968-2.057-2.222zm9.143-2.849s-.132-.011-.187-.011c-1.034 0-1.584.539-1.793.924v-.869h-.748V322h.781v-3.179c0-1.166.715-1.738 1.672-1.738.143 0 .275.011.275.011v-.737zm7.803 3.355c0 1.188-.748 1.738-1.65 1.738-1.001 0-1.441-.616-1.441-1.628v-3.421h-.781v3.586c0 1.243.704 2.145 2.09 2.145 1.067 0 1.628-.583 1.815-.946V322h.748v-5.599h-.781v3.311zm2.198.704c.121.913.759 1.716 2.288 1.716 1.518 0 2.233-.803 2.233-1.65 0-2.354-3.443-1.045-3.443-2.596 0-.506.429-.935 1.298-.935.891 0 1.309.484 1.375 1.089l.748-.253c-.154-.715-.715-1.518-2.101-1.518-1.331 0-2.079.792-2.079 1.65 0 2.299 3.443.979 3.443 2.585 0 .561-.528.946-1.474.946-.957 0-1.441-.473-1.507-1.177l-.781.143zm6.28 1.672c.341 0 .605-.242.605-.594a.587.587 0 00-.605-.594.58.58 0 00-.605.594c0 .352.253.594.605.594z" fill="#666D80"/><path d="M509.457 251.556h4.126v1.375h-4.126v-1.375zm4.126 2.063h-4.126v1.375h4.126v-1.375z" fill="#BCC4CC"/><path fill-rule="evenodd" clip-rule="evenodd" d="M509.457 247.43h1.375v.687h1.375v-.687h1.376v.687h1.375c.759 0 1.375.616 1.375 1.376v7.564c0 .759-.616 1.375-1.375 1.375h-6.877a1.376 1.376 0 01-1.375-1.375v-7.564c0-.76.616-1.376 1.375-1.376h1.376v-.687zm2.75 2.063v.687h1.376v-.687h.687c.38 0 .688.308.688.687v6.189c0 .38-.308.688-.688.688h-5.501a.688.688 0 01-.688-.688v-6.189c0-.379.308-.687.688-.687h.688v.687h1.375v-.687h1.375z" fill="#BCC4CC"/><path stroke="#E6E7EA" stroke-width="1.5" d="M503 274.25h318"/><path stroke="#E6E7EA" stroke-width="2" d="M503 427h318"/><path fill-rule="evenodd" clip-rule="evenodd" d="M508.129 453.413h-.047v2.75l3.094-2.063h1.375a4.47 4.47 0 000-8.938h-2.063a4.47 4.47 0 00-4.469 4.469c0 1.599.847 2.992 2.11 3.782zm2.359-6.876h2.063a3.094 3.094 0 010 6.188h-1.375l-1.719 1.032v-1.221a3.086 3.086 0 011.031-5.999z" fill="#BCC4CC"/><rect x="526.721" y="440" width="288" height="21" rx="4" stroke="#E6E7EA" stroke-width="2"/><rect x="526.721" y="477" width="164" height="7" rx="3.5" stroke="#E6E7EA" stroke-width="2"/><rect x="526.721" y="492" width="113" height="7" rx="3.5" stroke="#E6E7EA" stroke-width="2"/><rect x="526.721" y="507" width="136" height="7" rx="3.5" stroke="#E6E7EA" stroke-width="2"/><rect x="280" y="423" width="186" height="48" rx="8" stroke="#E6E7EA" stroke-width="2"/><path d="M296.448 443.294a.428.428 0 00.858 0v-3.854a.428.428 0 00-.858 0v3.854zm.15 2.682c.066.057 1.654 1.389 4.564 1.389 2.911 0 4.498-1.332 4.565-1.389a.43.43 0 00.046-.604.426.426 0 00-.603-.047c-.025.021-1.443 1.183-4.008 1.183-2.597 0-3.992-1.171-4.006-1.182a.428.428 0 10-.558.65zm9.278-6.536a.427.427 0 00-.857 0v3.854a.427.427 0 00.857 0v-3.854zm-2.143-.857a.425.425 0 00-.428-.422.428.428 0 00-.429.422v5.725a.428.428 0 00.857 0v-5.725zm-2.142-.217a.421.421 0 00-.126-.303.424.424 0 00-.467-.093.42.42 0 00-.232.232.44.44 0 00-.032.164v6.214a.431.431 0 00.428.424.431.431 0 00.429-.424v-6.214zm-2.143.217a.426.426 0 00-.428-.422.428.428 0 00-.429.422v5.725a.428.428 0 00.857 0v-5.725zm-3.107-2.357h9.642c.888 0 1.607.719 1.607 1.607v9.642c0 .887-.719 1.607-1.607 1.607h-9.642c-.887 0-1.607-.72-1.607-1.607v-9.642c0-.888.72-1.607 1.607-1.607z" fill="#E6E7EA"/><circle cx="296.341" cy="456.86" r="1.607" fill="#E6E7EA"/><circle cx="301.162" cy="456.86" r="1.607" fill="#E6E7EA"/><circle cx="305.983" cy="456.86" r="1.607" fill="#E6E7EA"/><path d="M327.6 444.082c-1.278 0-2.043-.909-2.043-2.286s.765-2.277 2.043-2.277c.945 0 1.656.495 1.908 1.35l1.053-.369c-.405-1.269-1.539-2.025-2.961-2.025-1.863 0-3.195 1.359-3.195 3.321 0 1.962 1.332 3.33 3.195 3.33 1.422 0 2.556-.756 2.961-2.025l-1.053-.369c-.252.855-.963 1.35-1.908 1.35zm7.033-1.062c0 .765-.414 1.17-1.08 1.17-.648 0-.909-.423-.909-1.062v-2.799h-1.071v2.943c0 1.089.585 1.836 1.719 1.836.756 0 1.224-.342 1.422-.711V445h.99v-4.671h-1.071v2.691zm1.995.675c.117.774.675 1.413 1.953 1.413 1.305 0 1.953-.666 1.953-1.458 0-1.89-2.646-1.089-2.646-1.998 0-.342.27-.558.801-.558.54 0 .792.333.837.666l.999-.18c-.117-.612-.603-1.359-1.809-1.359-1.152 0-1.854.684-1.854 1.467 0 1.899 2.646 1.017 2.646 2.007 0 .324-.306.531-.864.531-.648 0-.972-.297-1.008-.693l-1.008.162zm6.983.351s-.153.045-.333.045c-.369 0-.522-.18-.522-.549v-2.358h.873v-.855h-.873v-1.215h-1.071v1.215h-.711v.855h.711v2.466c0 .882.414 1.377 1.368 1.377.36 0 .558-.054.558-.054v-.927zm2.892 1.062c1.494 0 2.43-1.125 2.43-2.439s-.936-2.448-2.43-2.448c-1.485 0-2.421 1.134-2.421 2.448s.936 2.439 2.421 2.439zm-1.35-2.439c0-.909.576-1.503 1.35-1.503.783 0 1.359.594 1.359 1.503 0 .9-.576 1.494-1.359 1.494-.774 0-1.35-.594-1.35-1.494zm8.84-.351c0-.756.414-1.179 1.053-1.179.648 0 .882.459.882 1.062V445h1.071v-2.934c0-1.062-.576-1.845-1.701-1.845-.72 0-1.224.288-1.584.738-.261-.45-.729-.738-1.404-.738-.747 0-1.197.36-1.395.729v-.621h-.99V445h1.071v-2.718c0-.711.405-1.143 1.044-1.143s.882.45.882 1.062V445h1.071v-2.682zm7.442 1.152c-.198.468-.621.72-1.134.72-.747 0-1.224-.477-1.305-1.215h3.555s.009-.162.009-.333c0-1.368-.909-2.421-2.295-2.421s-2.322 1.08-2.322 2.439c0 1.395.918 2.448 2.331 2.448 1.017 0 1.791-.549 2.124-1.386l-.963-.252zm-1.17-2.376c.693 0 1.143.441 1.233 1.089h-2.484c.108-.639.558-1.089 1.251-1.089zm5.795-.801s-.108-.009-.153-.009c-.81 0-1.206.396-1.377.693v-.648h-.99V445h1.071v-2.43c0-.9.45-1.296 1.206-1.296.117 0 .243.018.243.018v-.999zm4.31 4.707v-2.736h2.934v-1.008h-2.934v-1.638h3.087v-1.008h-4.176V445h1.089zm6.99-1.53c-.198.468-.621.72-1.134.72-.747 0-1.224-.477-1.305-1.215h3.555s.009-.162.009-.333c0-1.368-.909-2.421-2.295-2.421s-2.322 1.08-2.322 2.439c0 1.395.918 2.448 2.331 2.448 1.017 0 1.791-.549 2.124-1.386l-.963-.252zm-1.17-2.376c.693 0 1.143.441 1.233 1.089h-2.484c.108-.639.558-1.089 1.251-1.089zm6.461 2.376c-.198.468-.621.72-1.134.72-.747 0-1.224-.477-1.305-1.215h3.555s.009-.162.009-.333c0-1.368-.909-2.421-2.295-2.421s-2.322 1.08-2.322 2.439c0 1.395.918 2.448 2.331 2.448 1.017 0 1.791-.549 2.124-1.386l-.963-.252zm-1.17-2.376c.693 0 1.143.441 1.233 1.089h-2.484c.108-.639.558-1.089 1.251-1.089zm6.623-.153c-.261-.396-.765-.72-1.494-.72-1.377 0-2.16 1.107-2.16 2.448 0 1.332.783 2.439 2.16 2.439.729 0 1.278-.288 1.575-.774V445h.99v-6.75h-1.071v2.691zm.045 1.728c0 .837-.495 1.494-1.314 1.494-.81 0-1.314-.657-1.314-1.494 0-.855.504-1.503 1.314-1.503.819 0 1.314.648 1.314 1.503zm3.4-1.728v-2.691h-1.071V445h.99v-.666c.306.486.855.774 1.575.774 1.386 0 2.169-1.107 2.169-2.439 0-1.341-.783-2.448-2.169-2.448-.72 0-1.233.324-1.494.72zm-.036 1.728c0-.855.495-1.503 1.314-1.503.81 0 1.314.648 1.314 1.503 0 .837-.504 1.494-1.314 1.494-.819 0-1.314-.657-1.314-1.494zm7.567.144v.288c0 .63-.423 1.17-1.287 1.17-.567 0-.81-.225-.81-.585 0-.315.171-.549.855-.666l1.242-.207zm-1.503 2.295c.702 0 1.296-.225 1.629-.621.117.279.441.567.972.567.207 0 .342-.036.342-.036v-.864s-.045.009-.09.009c-.189 0-.306-.09-.306-.315v-1.881c0-1.071-.648-1.746-2.016-1.746-1.323 0-1.899.666-2.043 1.422l1.026.171c.072-.45.405-.711.99-.711.639 0 .999.27.999.837v.063l-1.35.198c-1.233.18-1.791.702-1.791 1.494 0 .801.504 1.413 1.638 1.413zm5.903-.945c-.765 0-1.251-.621-1.251-1.494 0-.882.486-1.503 1.251-1.503.576 0 1.008.351 1.134.855l1.026-.252c-.243-.801-.9-1.548-2.151-1.548-1.377 0-2.331 1.089-2.331 2.448 0 1.35.954 2.439 2.331 2.439 1.251 0 1.908-.747 2.151-1.548l-1.026-.252c-.126.504-.558.855-1.134.855zm6.142-3.834l-1.989 2.277v-4.356h-1.071V445h1.071v-1.116l.819-.882 1.377 1.998h1.278l-1.944-2.7 1.809-1.971h-1.35zm-85.206 13.831c0 1.688 1.096 2.96 2.808 2.96 1.272 0 2.24-.696 2.6-1.792l-.568-.192c-.264.888-1.048 1.432-2.032 1.432-1.328 0-2.2-.976-2.2-2.408s.872-2.408 2.2-2.408c.984 0 1.768.544 2.032 1.432l.568-.192c-.36-1.096-1.328-1.792-2.6-1.792-1.712 0-2.808 1.272-2.808 2.96zm8.058-.84c.768 0 1.152.344 1.152 1.032v.112l-1.424.184c-1.056.136-1.536.576-1.536 1.232 0 .736.456 1.216 1.424 1.216.664 0 1.256-.272 1.568-.728.064.408.4.648.768.648.176 0 .256-.024.256-.024v-.472s-.032.016-.144.016c-.224 0-.344-.136-.344-.392v-1.784c0-.904-.52-1.528-1.696-1.528-1.072 0-1.576.512-1.712 1.184l.536.112c.112-.576.552-.808 1.152-.808zm1.152 1.592v.472c0 .576-.488 1.24-1.456 1.24-.456 0-.944-.16-.944-.744 0-.408.272-.68 1.048-.784l1.352-.184zm2.505-1.984h-.544V457h.568v-2.424c0-.816.536-1.248 1.224-1.248.728 0 1.072.448 1.072 1.184V457h.568v-2.6c0-.904-.536-1.568-1.544-1.568-.792 0-1.2.456-1.344.72v-.624zM346.158 457h.592l1.424-4.072h-.6l-1.112 3.4-1.104-3.4h-.592l-1.12 3.4-1.096-3.4h-.608L343.35 457h.592l1.112-3.352h.008l1.096 3.352zm5.726-1.264c-.208.504-.664.848-1.288.848-.856 0-1.392-.632-1.448-1.456h3.384s.008-.128.008-.216c0-1.152-.744-2.08-1.96-2.08-1.224 0-2 1-2 2.128 0 1.144.72 2.136 2.008 2.136.872 0 1.504-.48 1.792-1.144l-.496-.216zm-1.304-2.392c.8 0 1.32.536 1.392 1.32h-2.808c.096-.752.624-1.32 1.416-1.32zm6.676 2.448c1.008 0 1.624-.632 1.624-1.48 0-.232-.048-.44-.136-.632a.924.924 0 01-.048-.304c0-.288.216-.464.496-.464.136 0 .224.008.224.008v-.52c-.016 0-.08-.008-.208-.008-.48 0-.872.272-.984.696a1.812 1.812 0 00-.968-.256c-1.008 0-1.624.632-1.624 1.48 0 .424.152.792.432 1.056-.248.128-.544.368-.544.816 0 .328.136.56.352.704a.95.95 0 00-.456.808c0 .72.528 1.12 1.888 1.12 1.424 0 1.96-.6 1.96-1.232 0-.6-.36-1.04-1.304-1.04h-1.48c-.296 0-.424-.176-.424-.4 0-.376.368-.504.392-.512.232.104.504.16.808.16zm0-.496c-.664 0-1.072-.376-1.072-.984s.408-.984 1.072-.984c.664 0 1.072.376 1.072.984s-.408.984-1.072.984zm.76 1.776c.384 0 .696.128.696.512 0 .44-.432.696-1.408.696-.928 0-1.336-.192-1.336-.64 0-.288.208-.504.392-.568h1.656zm5.071-1.336c-.208.504-.664.848-1.288.848-.856 0-1.392-.632-1.448-1.456h3.384s.008-.128.008-.216c0-1.152-.744-2.08-1.96-2.08-1.224 0-2 1-2 2.128 0 1.144.72 2.136 2.008 2.136.872 0 1.504-.48 1.792-1.144l-.496-.216zm-1.304-2.392c.8 0 1.32.536 1.392 1.32h-2.808c.096-.752.624-1.32 1.416-1.32zm4.702 3.12s-.184.04-.36.04c-.392 0-.56-.208-.56-.64v-2.456h.936v-.48h-.936v-1.16h-.568v1.16h-.776v.48h.776v2.496c0 .736.368 1.112 1.056 1.112.288 0 .432-.04.432-.04v-.512zm4.664 0s-.184.04-.36.04c-.392 0-.56-.208-.56-.64v-2.456h.936v-.48h-.936v-1.16h-.568v1.16h-.776v.48h.776v2.496c0 .736.368 1.112 1.056 1.112.288 0 .432-.04.432-.04v-.512zm1.498-5.464h-.568v6h.568v-2.408c0-.832.536-1.264 1.224-1.264.728 0 1.072.448 1.072 1.184V457h.568v-2.6c0-.904-.536-1.568-1.544-1.568-.76 0-1.176.416-1.32.664V451zm5.741 2.32c.768 0 1.152.344 1.152 1.032v.112l-1.424.184c-1.056.136-1.536.576-1.536 1.232 0 .736.456 1.216 1.424 1.216.664 0 1.256-.272 1.568-.728.064.408.4.648.768.648.176 0 .256-.024.256-.024v-.472s-.032.016-.144.016c-.224 0-.344-.136-.344-.392v-1.784c0-.904-.52-1.528-1.696-1.528-1.072 0-1.576.512-1.712 1.184l.536.112c.112-.576.552-.808 1.152-.808zm1.152 1.592v.472c0 .576-.488 1.24-1.456 1.24-.456 0-.944-.16-.944-.744 0-.408.272-.68 1.048-.784l1.352-.184zm3.531 1.552s-.184.04-.36.04c-.392 0-.56-.208-.56-.64v-2.456h.936v-.48h-.936v-1.16h-.568v1.16h-.776v.48h.776v2.496c0 .736.368 1.112 1.056 1.112.288 0 .432-.04.432-.04v-.512zm4.44-.12l-1.384-3.416h-.616l1.704 4.072h.576l1.72-4.072h-.592l-1.408 3.416zm3.114-4.424c.232 0 .408-.16.408-.392a.395.395 0 00-.408-.408.39.39 0 00-.408.408c0 .232.168.392.408.392zm-.288 5.08h.568v-4.072h-.568V457zm5.104-3.336c-.272-.488-.776-.832-1.52-.832-1.248 0-1.92 1.008-1.92 2.136 0 1.12.672 2.128 1.92 2.128.744 0 1.264-.328 1.544-.848V457h.544v-6h-.568v2.664zm.024 1.304c0 .888-.52 1.616-1.432 1.616-.912 0-1.456-.728-1.456-1.616 0-.904.544-1.624 1.456-1.624.912 0 1.432.72 1.432 1.624zm4.942.768c-.208.504-.664.848-1.288.848-.856 0-1.392-.632-1.448-1.456h3.384s.008-.128.008-.216c0-1.152-.744-2.08-1.96-2.08-1.224 0-2 1-2 2.128 0 1.144.72 2.136 2.008 2.136.872 0 1.504-.48 1.792-1.144l-.496-.216zm-1.304-2.392c.8 0 1.32.536 1.392 1.32h-2.808c.096-.752.624-1.32 1.416-1.32zm4.814 3.752c1.288 0 2.08-1.008 2.08-2.128s-.792-2.136-2.08-2.136c-1.28 0-2.072 1.016-2.072 2.136s.792 2.128 2.072 2.128zm-1.496-2.128c0-.92.592-1.624 1.496-1.624.912 0 1.504.704 1.504 1.624 0 .912-.592 1.616-1.504 1.616-.904 0-1.496-.704-1.496-1.616zm8.448 1.616c-.856 0-1.432-.68-1.432-1.616 0-.944.576-1.624 1.432-1.624.656 0 1.104.36 1.296.928l.528-.208c-.248-.688-.872-1.232-1.824-1.232-1.24 0-2.008 1.016-2.008 2.136 0 1.112.768 2.128 2.008 2.128.952 0 1.576-.544 1.824-1.232l-.528-.208c-.192.568-.64.928-1.296.928zm4.363-3.264c.768 0 1.152.344 1.152 1.032v.112l-1.424.184c-1.056.136-1.536.576-1.536 1.232 0 .736.456 1.216 1.424 1.216.664 0 1.256-.272 1.568-.728.064.408.4.648.768.648.176 0 .256-.024.256-.024v-.472s-.032.016-.144.016c-.224 0-.344-.136-.344-.392v-1.784c0-.904-.52-1.528-1.696-1.528-1.072 0-1.576.512-1.712 1.184l.536.112c.112-.576.552-.808 1.152-.808zm1.152 1.592v.472c0 .576-.488 1.24-1.456 1.24-.456 0-.944-.16-.944-.744 0-.408.272-.68 1.048-.784l1.352-.184zm2.528 2.088v-6h-.568v6h.568zm1.969 0v-6h-.568v6h.568zm1.689-5.08c.232 0 .408-.16.408-.392a.395.395 0 00-.408-.408.39.39 0 00-.408.408c0 .232.168.392.408.392zm-.288 5.08h.568v-4.072h-.568V457zm2.513-4.072h-.544V457h.568v-2.424c0-.816.536-1.248 1.224-1.248.728 0 1.072.448 1.072 1.184V457h.568v-2.6c0-.904-.536-1.568-1.544-1.568-.792 0-1.2.456-1.344.72v-.624zm5.789 2.864c1.008 0 1.624-.632 1.624-1.48 0-.232-.048-.44-.136-.632a.924.924 0 01-.048-.304c0-.288.216-.464.496-.464.136 0 .224.008.224.008v-.52c-.016 0-.08-.008-.208-.008-.48 0-.872.272-.984.696a1.812 1.812 0 00-.968-.256c-1.008 0-1.624.632-1.624 1.48 0 .424.152.792.432 1.056-.248.128-.544.368-.544.816 0 .328.136.56.352.704a.95.95 0 00-.456.808c0 .72.528 1.12 1.888 1.12 1.424 0 1.96-.6 1.96-1.232 0-.6-.36-1.04-1.304-1.04h-1.48c-.296 0-.424-.176-.424-.4 0-.376.368-.504.392-.512.232.104.504.16.808.16zm0-.496c-.664 0-1.072-.376-1.072-.984s.408-.984 1.072-.984c.664 0 1.072.376 1.072.984s-.408.984-1.072.984zm.76 1.776c.384 0 .696.128.696.512 0 .44-.432.696-1.408.696-.928 0-1.336-.192-1.336-.64 0-.288.208-.504.392-.568h1.656zm2.357-4.152c0-.712.456-1.192 1.152-1.192.704 0 1.144.408 1.144 1.088 0 1.144-1.512 1.352-1.512 2.536 0 .144.04.336.04.336h.56s-.032-.184-.032-.328c0-.88 1.536-1.16 1.536-2.576 0-.888-.6-1.584-1.736-1.584-1.064 0-1.72.72-1.744 1.624l.592.096zm1.136 4.144a.41.41 0 00.424-.416.412.412 0 00-.424-.424c-.256 0-.432.176-.432.424 0 .24.176.416.432.416z" fill="#E6E7EA"/><rect x="280" y="487" width="186" height="48" rx="8" stroke="#E6E7EA" stroke-width="2"/><path d="M296.449 507.479a.43.43 0 00.857 0v-3.855a.431.431 0 00-.428-.424.431.431 0 00-.429.424v3.855zm.15 2.682c.066.057 1.653 1.389 4.564 1.389 2.91 0 4.498-1.332 4.564-1.389a.429.429 0 00-.557-.652c-.025.021-1.442 1.184-4.007 1.184-2.597 0-3.993-1.171-4.007-1.183a.428.428 0 10-.557.651zm9.278-6.537a.435.435 0 00-.127-.3.429.429 0 00-.73.3v3.855a.428.428 0 00.73.3.435.435 0 00.127-.3v-3.855zm-2.143-.857a.428.428 0 00-.857 0v5.725a.43.43 0 00.428.422.428.428 0 00.429-.422v-5.725zm-2.143-.217a.435.435 0 00-.264-.395.421.421 0 00-.328 0 .432.432 0 00-.232.231.421.421 0 00-.033.164v6.214a.432.432 0 00.429.424.427.427 0 00.428-.424v-6.214zm-2.142.217a.428.428 0 00-.857 0v5.725a.425.425 0 00.428.422.428.428 0 00.429-.422v-5.725zm-3.107-2.357h9.642c.887 0 1.607.72 1.607 1.607v9.642c0 .888-.72 1.607-1.607 1.607h-9.642a1.606 1.606 0 01-1.607-1.607v-9.642c0-.887.719-1.607 1.607-1.607z" fill="#E6E7EA"/><circle cx="296.342" cy="521.044" r="1.607" fill="#E6E7EA"/><circle cx="301.163" cy="521.044" r="1.607" fill="#E6E7EA"/><circle cx="305.984" cy="521.044" r="1.607" fill="#E6E7EA"/><path d="M327.6 508.082c-1.278 0-2.043-.909-2.043-2.286s.765-2.277 2.043-2.277c.945 0 1.656.495 1.908 1.35l1.053-.369c-.405-1.269-1.539-2.025-2.961-2.025-1.863 0-3.195 1.359-3.195 3.321 0 1.962 1.332 3.33 3.195 3.33 1.422 0 2.556-.756 2.961-2.025l-1.053-.369c-.252.855-.963 1.35-1.908 1.35zm7.033-1.062c0 .765-.414 1.17-1.08 1.17-.648 0-.909-.423-.909-1.062v-2.799h-1.071v2.943c0 1.089.585 1.836 1.719 1.836.756 0 1.224-.342 1.422-.711V509h.99v-4.671h-1.071v2.691zm1.995.675c.117.774.675 1.413 1.953 1.413 1.305 0 1.953-.666 1.953-1.458 0-1.89-2.646-1.089-2.646-1.998 0-.342.27-.558.801-.558.54 0 .792.333.837.666l.999-.18c-.117-.612-.603-1.359-1.809-1.359-1.152 0-1.854.684-1.854 1.467 0 1.899 2.646 1.017 2.646 2.007 0 .324-.306.531-.864.531-.648 0-.972-.297-1.008-.693l-1.008.162zm6.983.351s-.153.045-.333.045c-.369 0-.522-.18-.522-.549v-2.358h.873v-.855h-.873v-1.215h-1.071v1.215h-.711v.855h.711v2.466c0 .882.414 1.377 1.368 1.377.36 0 .558-.054.558-.054v-.927zm2.892 1.062c1.494 0 2.43-1.125 2.43-2.439s-.936-2.448-2.43-2.448c-1.485 0-2.421 1.134-2.421 2.448s.936 2.439 2.421 2.439zm-1.35-2.439c0-.909.576-1.503 1.35-1.503.783 0 1.359.594 1.359 1.503 0 .9-.576 1.494-1.359 1.494-.774 0-1.35-.594-1.35-1.494zm8.84-.351c0-.756.414-1.179 1.053-1.179.648 0 .882.459.882 1.062V509h1.071v-2.934c0-1.062-.576-1.845-1.701-1.845-.72 0-1.224.288-1.584.738-.261-.45-.729-.738-1.404-.738-.747 0-1.197.36-1.395.729v-.621h-.99V509h1.071v-2.718c0-.711.405-1.143 1.044-1.143s.882.45.882 1.062V509h1.071v-2.682zm7.442 1.152c-.198.468-.621.72-1.134.72-.747 0-1.224-.477-1.305-1.215h3.555s.009-.162.009-.333c0-1.368-.909-2.421-2.295-2.421s-2.322 1.08-2.322 2.439c0 1.395.918 2.448 2.331 2.448 1.017 0 1.791-.549 2.124-1.386l-.963-.252zm-1.17-2.376c.693 0 1.143.441 1.233 1.089h-2.484c.108-.639.558-1.089 1.251-1.089zm5.795-.801s-.108-.009-.153-.009c-.81 0-1.206.396-1.377.693v-.648h-.99V509h1.071v-2.43c0-.9.45-1.296 1.206-1.296.117 0 .243.018.243.018v-.999zm4.31 4.707v-2.736h2.934v-1.008h-2.934v-1.638h3.087v-1.008h-4.176V509h1.089zm6.99-1.53c-.198.468-.621.72-1.134.72-.747 0-1.224-.477-1.305-1.215h3.555s.009-.162.009-.333c0-1.368-.909-2.421-2.295-2.421s-2.322 1.08-2.322 2.439c0 1.395.918 2.448 2.331 2.448 1.017 0 1.791-.549 2.124-1.386l-.963-.252zm-1.17-2.376c.693 0 1.143.441 1.233 1.089h-2.484c.108-.639.558-1.089 1.251-1.089zm6.461 2.376c-.198.468-.621.72-1.134.72-.747 0-1.224-.477-1.305-1.215h3.555s.009-.162.009-.333c0-1.368-.909-2.421-2.295-2.421s-2.322 1.08-2.322 2.439c0 1.395.918 2.448 2.331 2.448 1.017 0 1.791-.549 2.124-1.386l-.963-.252zm-1.17-2.376c.693 0 1.143.441 1.233 1.089h-2.484c.108-.639.558-1.089 1.251-1.089zm6.623-.153c-.261-.396-.765-.72-1.494-.72-1.377 0-2.16 1.107-2.16 2.448 0 1.332.783 2.439 2.16 2.439.729 0 1.278-.288 1.575-.774V509h.99v-6.75h-1.071v2.691zm.045 1.728c0 .837-.495 1.494-1.314 1.494-.81 0-1.314-.657-1.314-1.494 0-.855.504-1.503 1.314-1.503.819 0 1.314.648 1.314 1.503zm3.4-1.728v-2.691h-1.071V509h.99v-.666c.306.486.855.774 1.575.774 1.386 0 2.169-1.107 2.169-2.439 0-1.341-.783-2.448-2.169-2.448-.72 0-1.233.324-1.494.72zm-.036 1.728c0-.855.495-1.503 1.314-1.503.81 0 1.314.648 1.314 1.503 0 .837-.504 1.494-1.314 1.494-.819 0-1.314-.657-1.314-1.494zm7.567.144v.288c0 .63-.423 1.17-1.287 1.17-.567 0-.81-.225-.81-.585 0-.315.171-.549.855-.666l1.242-.207zm-1.503 2.295c.702 0 1.296-.225 1.629-.621.117.279.441.567.972.567.207 0 .342-.036.342-.036v-.864s-.045.009-.09.009c-.189 0-.306-.09-.306-.315v-1.881c0-1.071-.648-1.746-2.016-1.746-1.323 0-1.899.666-2.043 1.422l1.026.171c.072-.45.405-.711.99-.711.639 0 .999.27.999.837v.063l-1.35.198c-1.233.18-1.791.702-1.791 1.494 0 .801.504 1.413 1.638 1.413zm5.903-.945c-.765 0-1.251-.621-1.251-1.494 0-.882.486-1.503 1.251-1.503.576 0 1.008.351 1.134.855l1.026-.252c-.243-.801-.9-1.548-2.151-1.548-1.377 0-2.331 1.089-2.331 2.448 0 1.35.954 2.439 2.331 2.439 1.251 0 1.908-.747 2.151-1.548l-1.026-.252c-.126.504-.558.855-1.134.855zm6.142-3.834l-1.989 2.277v-4.356h-1.071V509h1.071v-1.116l.819-.882 1.377 1.998h1.278l-1.944-2.7 1.809-1.971h-1.35zm-85.206 13.831c0 1.688 1.096 2.96 2.808 2.96 1.272 0 2.24-.696 2.6-1.792l-.568-.192c-.264.888-1.048 1.432-2.032 1.432-1.328 0-2.2-.976-2.2-2.408s.872-2.408 2.2-2.408c.984 0 1.768.544 2.032 1.432l.568-.192c-.36-1.096-1.328-1.792-2.6-1.792-1.712 0-2.808 1.272-2.808 2.96zm8.058-.84c.768 0 1.152.344 1.152 1.032v.112l-1.424.184c-1.056.136-1.536.576-1.536 1.232 0 .736.456 1.216 1.424 1.216.664 0 1.256-.272 1.568-.728.064.408.4.648.768.648.176 0 .256-.024.256-.024v-.472s-.032.016-.144.016c-.224 0-.344-.136-.344-.392v-1.784c0-.904-.52-1.528-1.696-1.528-1.072 0-1.576.512-1.712 1.184l.536.112c.112-.576.552-.808 1.152-.808zm1.152 1.592v.472c0 .576-.488 1.24-1.456 1.24-.456 0-.944-.16-.944-.744 0-.408.272-.68 1.048-.784l1.352-.184zm2.505-1.984h-.544V521h.568v-2.424c0-.816.536-1.248 1.224-1.248.728 0 1.072.448 1.072 1.184V521h.568v-2.6c0-.904-.536-1.568-1.544-1.568-.792 0-1.2.456-1.344.72v-.624zM346.158 521h.592l1.424-4.072h-.6l-1.112 3.4-1.104-3.4h-.592l-1.12 3.4-1.096-3.4h-.608L343.35 521h.592l1.112-3.352h.008l1.096 3.352zm5.726-1.264c-.208.504-.664.848-1.288.848-.856 0-1.392-.632-1.448-1.456h3.384s.008-.128.008-.216c0-1.152-.744-2.08-1.96-2.08-1.224 0-2 1-2 2.128 0 1.144.72 2.136 2.008 2.136.872 0 1.504-.48 1.792-1.144l-.496-.216zm-1.304-2.392c.8 0 1.32.536 1.392 1.32h-2.808c.096-.752.624-1.32 1.416-1.32zm6.676 2.448c1.008 0 1.624-.632 1.624-1.48 0-.232-.048-.44-.136-.632a.924.924 0 01-.048-.304c0-.288.216-.464.496-.464.136 0 .224.008.224.008v-.52c-.016 0-.08-.008-.208-.008-.48 0-.872.272-.984.696a1.812 1.812 0 00-.968-.256c-1.008 0-1.624.632-1.624 1.48 0 .424.152.792.432 1.056-.248.128-.544.368-.544.816 0 .328.136.56.352.704a.95.95 0 00-.456.808c0 .72.528 1.12 1.888 1.12 1.424 0 1.96-.6 1.96-1.232 0-.6-.36-1.04-1.304-1.04h-1.48c-.296 0-.424-.176-.424-.4 0-.376.368-.504.392-.512.232.104.504.16.808.16zm0-.496c-.664 0-1.072-.376-1.072-.984s.408-.984 1.072-.984c.664 0 1.072.376 1.072.984s-.408.984-1.072.984zm.76 1.776c.384 0 .696.128.696.512 0 .44-.432.696-1.408.696-.928 0-1.336-.192-1.336-.64 0-.288.208-.504.392-.568h1.656zm5.071-1.336c-.208.504-.664.848-1.288.848-.856 0-1.392-.632-1.448-1.456h3.384s.008-.128.008-.216c0-1.152-.744-2.08-1.96-2.08-1.224 0-2 1-2 2.128 0 1.144.72 2.136 2.008 2.136.872 0 1.504-.48 1.792-1.144l-.496-.216zm-1.304-2.392c.8 0 1.32.536 1.392 1.32h-2.808c.096-.752.624-1.32 1.416-1.32zm4.702 3.12s-.184.04-.36.04c-.392 0-.56-.208-.56-.64v-2.456h.936v-.48h-.936v-1.16h-.568v1.16h-.776v.48h.776v2.496c0 .736.368 1.112 1.056 1.112.288 0 .432-.04.432-.04v-.512zm4.664 0s-.184.04-.36.04c-.392 0-.56-.208-.56-.64v-2.456h.936v-.48h-.936v-1.16h-.568v1.16h-.776v.48h.776v2.496c0 .736.368 1.112 1.056 1.112.288 0 .432-.04.432-.04v-.512zm1.498-5.464h-.568v6h.568v-2.408c0-.832.536-1.264 1.224-1.264.728 0 1.072.448 1.072 1.184V521h.568v-2.6c0-.904-.536-1.568-1.544-1.568-.76 0-1.176.416-1.32.664V515zm5.741 2.32c.768 0 1.152.344 1.152 1.032v.112l-1.424.184c-1.056.136-1.536.576-1.536 1.232 0 .736.456 1.216 1.424 1.216.664 0 1.256-.272 1.568-.728.064.408.4.648.768.648.176 0 .256-.024.256-.024v-.472s-.032.016-.144.016c-.224 0-.344-.136-.344-.392v-1.784c0-.904-.52-1.528-1.696-1.528-1.072 0-1.576.512-1.712 1.184l.536.112c.112-.576.552-.808 1.152-.808zm1.152 1.592v.472c0 .576-.488 1.24-1.456 1.24-.456 0-.944-.16-.944-.744 0-.408.272-.68 1.048-.784l1.352-.184zm3.531 1.552s-.184.04-.36.04c-.392 0-.56-.208-.56-.64v-2.456h.936v-.48h-.936v-1.16h-.568v1.16h-.776v.48h.776v2.496c0 .736.368 1.112 1.056 1.112.288 0 .432-.04.432-.04v-.512zm4.44-.12l-1.384-3.416h-.616l1.704 4.072h.576l1.72-4.072h-.592l-1.408 3.416zm3.114-4.424c.232 0 .408-.16.408-.392a.395.395 0 00-.408-.408.39.39 0 00-.408.408c0 .232.168.392.408.392zm-.288 5.08h.568v-4.072h-.568V521zm5.104-3.336c-.272-.488-.776-.832-1.52-.832-1.248 0-1.92 1.008-1.92 2.136 0 1.12.672 2.128 1.92 2.128.744 0 1.264-.328 1.544-.848V521h.544v-6h-.568v2.664zm.024 1.304c0 .888-.52 1.616-1.432 1.616-.912 0-1.456-.728-1.456-1.616 0-.904.544-1.624 1.456-1.624.912 0 1.432.72 1.432 1.624zm4.942.768c-.208.504-.664.848-1.288.848-.856 0-1.392-.632-1.448-1.456h3.384s.008-.128.008-.216c0-1.152-.744-2.08-1.96-2.08-1.224 0-2 1-2 2.128 0 1.144.72 2.136 2.008 2.136.872 0 1.504-.48 1.792-1.144l-.496-.216zm-1.304-2.392c.8 0 1.32.536 1.392 1.32h-2.808c.096-.752.624-1.32 1.416-1.32zm4.814 3.752c1.288 0 2.08-1.008 2.08-2.128s-.792-2.136-2.08-2.136c-1.28 0-2.072 1.016-2.072 2.136s.792 2.128 2.072 2.128zm-1.496-2.128c0-.92.592-1.624 1.496-1.624.912 0 1.504.704 1.504 1.624 0 .912-.592 1.616-1.504 1.616-.904 0-1.496-.704-1.496-1.616zm8.448 1.616c-.856 0-1.432-.68-1.432-1.616 0-.944.576-1.624 1.432-1.624.656 0 1.104.36 1.296.928l.528-.208c-.248-.688-.872-1.232-1.824-1.232-1.24 0-2.008 1.016-2.008 2.136 0 1.112.768 2.128 2.008 2.128.952 0 1.576-.544 1.824-1.232l-.528-.208c-.192.568-.64.928-1.296.928zm4.363-3.264c.768 0 1.152.344 1.152 1.032v.112l-1.424.184c-1.056.136-1.536.576-1.536 1.232 0 .736.456 1.216 1.424 1.216.664 0 1.256-.272 1.568-.728.064.408.4.648.768.648.176 0 .256-.024.256-.024v-.472s-.032.016-.144.016c-.224 0-.344-.136-.344-.392v-1.784c0-.904-.52-1.528-1.696-1.528-1.072 0-1.576.512-1.712 1.184l.536.112c.112-.576.552-.808 1.152-.808zm1.152 1.592v.472c0 .576-.488 1.24-1.456 1.24-.456 0-.944-.16-.944-.744 0-.408.272-.68 1.048-.784l1.352-.184zm2.528 2.088v-6h-.568v6h.568zm1.969 0v-6h-.568v6h.568zm1.689-5.08c.232 0 .408-.16.408-.392a.395.395 0 00-.408-.408.39.39 0 00-.408.408c0 .232.168.392.408.392zm-.288 5.08h.568v-4.072h-.568V521zm2.513-4.072h-.544V521h.568v-2.424c0-.816.536-1.248 1.224-1.248.728 0 1.072.448 1.072 1.184V521h.568v-2.6c0-.904-.536-1.568-1.544-1.568-.792 0-1.2.456-1.344.72v-.624zm5.789 2.864c1.008 0 1.624-.632 1.624-1.48 0-.232-.048-.44-.136-.632a.924.924 0 01-.048-.304c0-.288.216-.464.496-.464.136 0 .224.008.224.008v-.52c-.016 0-.08-.008-.208-.008-.48 0-.872.272-.984.696a1.812 1.812 0 00-.968-.256c-1.008 0-1.624.632-1.624 1.48 0 .424.152.792.432 1.056-.248.128-.544.368-.544.816 0 .328.136.56.352.704a.95.95 0 00-.456.808c0 .72.528 1.12 1.888 1.12 1.424 0 1.96-.6 1.96-1.232 0-.6-.36-1.04-1.304-1.04h-1.48c-.296 0-.424-.176-.424-.4 0-.376.368-.504.392-.512.232.104.504.16.808.16zm0-.496c-.664 0-1.072-.376-1.072-.984s.408-.984 1.072-.984c.664 0 1.072.376 1.072.984s-.408.984-1.072.984zm.76 1.776c.384 0 .696.128.696.512 0 .44-.432.696-1.408.696-.928 0-1.336-.192-1.336-.64 0-.288.208-.504.392-.568h1.656zm2.357-4.152c0-.712.456-1.192 1.152-1.192.704 0 1.144.408 1.144 1.088 0 1.144-1.512 1.352-1.512 2.536 0 .144.04.336.04.336h.56s-.032-.184-.032-.328c0-.88 1.536-1.16 1.536-2.576 0-.888-.6-1.584-1.736-1.584-1.064 0-1.72.72-1.744 1.624l.592.096zm1.136 4.144a.41.41 0 00.424-.416.412.412 0 00-.424-.424c-.256 0-.432.176-.432.424 0 .24.176.416.432.416z" fill="#E6E7EA"/><rect x="280" y="231" width="186" height="48" rx="8" stroke="#E6E7EA" stroke-width="2"/><circle cx="296.342" cy="264.49" r="1.607" fill="#E6E7EA"/><circle cx="301.163" cy="264.49" r="1.607" fill="#E6E7EA"/><circle cx="305.984" cy="264.49" r="1.607" fill="#E6E7EA"/><path fill-rule="evenodd" clip-rule="evenodd" d="M295.079 245.85c-.214.24-.344.555-.344.902v6.428c0 .276.083.533.225.747l4.798-4.752-4.679-3.325zm.102 8.334c.24.217.558.349.907.349h10.15c.349 0 .667-.132.907-.35a317.785 317.785 0 00-2.963-3.011 84.504 84.504 0 00-1.337-1.317 18.34 18.34 0 00-.436-.406 2.215 2.215 0 00-.103-.088l-1.045.743-.098.069-.098-.069-1.027-.73-4.857 4.81zm12.186-.258c.141-.214.224-.471.224-.746v-6.428c0-.347-.13-.662-.344-.902l-4.656 3.308.043.038c.115.102.266.244.445.415.358.343.83.808 1.342 1.322 1.001 1 2.16 2.184 2.946 2.993zm-.383-8.304a1.354 1.354 0 00-.746-.224h-10.15c-.276 0-.532.083-.746.224l4.776 3.394 1.045.742 1.045-.742 4.776-3.394z" fill="#E6E7EA"/><path d="M324.351 251.218c.108.972.783 1.908 2.376 1.908 1.53 0 2.538-.756 2.538-1.917 0-2.556-3.546-1.467-3.546-2.871 0-.567.459-.882 1.206-.882.819 0 1.242.495 1.251 1.125l1.062-.198c-.108-1.098-.9-1.908-2.313-1.908-1.422 0-2.286.873-2.286 1.89 0 2.556 3.519 1.332 3.519 2.889 0 .576-.504.891-1.377.891-.864 0-1.323-.459-1.368-1.143l-1.062.216zm8.899-.405v.288c0 .63-.423 1.17-1.287 1.17-.567 0-.81-.225-.81-.585 0-.315.171-.549.855-.666l1.242-.207zm-1.503 2.295c.702 0 1.296-.225 1.629-.621.117.279.441.567.972.567.207 0 .342-.036.342-.036v-.864s-.045.009-.09.009c-.189 0-.306-.09-.306-.315v-1.881c0-1.071-.648-1.746-2.016-1.746-1.323 0-1.899.666-2.043 1.422l1.026.171c.072-.45.405-.711.99-.711.639 0 .999.27.999.837v.063l-1.35.198c-1.233.18-1.791.702-1.791 1.494 0 .801.504 1.413 1.638 1.413zm4.958-.108v-6.75h-1.071V253h1.071zm4.48-1.53c-.198.468-.621.72-1.134.72-.747 0-1.224-.477-1.305-1.215h3.555s.009-.162.009-.333c0-1.368-.909-2.421-2.295-2.421s-2.322 1.08-2.322 2.439c0 1.395.918 2.448 2.331 2.448 1.017 0 1.791-.549 2.124-1.386l-.963-.252zm-1.17-2.376c.693 0 1.143.441 1.233 1.089h-2.484c.108-.639.558-1.089 1.251-1.089zm2.906 2.601c.117.774.675 1.413 1.953 1.413 1.305 0 1.953-.666 1.953-1.458 0-1.89-2.646-1.089-2.646-1.998 0-.342.27-.558.801-.558.54 0 .792.333.837.666l.999-.18c-.117-.612-.603-1.359-1.809-1.359-1.152 0-1.854.684-1.854 1.467 0 1.899 2.646 1.017 2.646 2.007 0 .324-.306.531-.864.531-.648 0-.972-.297-1.008-.693l-1.008.162zm-17.873 9.433v-.072c0-.76.368-1.32 1.208-1.32.776 0 1.216.496 1.216 1.24 0 .584-.304 1.024-.76 1.44l-2.272 2.088V265h3.768v-.552h-2.944l1.784-1.584c.696-.616 1.024-1.168 1.024-1.912 0-1.016-.624-1.752-1.816-1.752-1.128 0-1.792.736-1.8 1.824l.592.104zm5.936 3.992c1.272 0 1.984-1.152 1.984-2.96s-.712-2.96-1.984-2.96c-1.28 0-1.984 1.152-1.984 2.96s.704 2.96 1.984 2.96zm0-5.376c.848 0 1.384.808 1.384 2.416 0 1.616-.536 2.416-1.384 2.416-.848 0-1.384-.8-1.384-2.416 0-1.608.536-2.416 1.384-2.416zm3.377 1.384v-.072c0-.76.368-1.32 1.208-1.32.776 0 1.216.496 1.216 1.24 0 .584-.304 1.024-.76 1.44l-2.272 2.088V265h3.768v-.552h-2.944l1.784-1.584c.696-.616 1.024-1.168 1.024-1.912 0-1.016-.624-1.752-1.816-1.752-1.128 0-1.792.736-1.8 1.824l.592.104zm5.936 3.992c1.272 0 1.984-1.152 1.984-2.96s-.712-2.96-1.984-2.96c-1.28 0-1.984 1.152-1.984 2.96s.704 2.96 1.984 2.96zm0-5.376c.848 0 1.384.808 1.384 2.416 0 1.616-.536 2.416-1.384 2.416-.848 0-1.384-.8-1.384-2.416 0-1.608.536-2.416 1.384-2.416zm6.534 4.6l-1.384-3.416h-.616l1.704 4.072h.576l1.72-4.072h-.592l-1.408 3.416zm3.114-4.424c.232 0 .408-.16.408-.392a.395.395 0 00-.408-.408.39.39 0 00-.408.408c0 .232.168.392.408.392zm-.288 5.08h.568v-4.072h-.568V265zm5.105-3.336c-.272-.488-.776-.832-1.52-.832-1.248 0-1.92 1.008-1.92 2.136 0 1.12.672 2.128 1.92 2.128.744 0 1.264-.328 1.544-.848V265h.544v-6h-.568v2.664zm.024 1.304c0 .888-.52 1.616-1.432 1.616-.912 0-1.456-.728-1.456-1.616 0-.904.544-1.624 1.456-1.624.912 0 1.432.72 1.432 1.624zm4.941.768c-.208.504-.664.848-1.288.848-.856 0-1.392-.632-1.448-1.456h3.384s.008-.128.008-.216c0-1.152-.744-2.08-1.96-2.08-1.224 0-2 1-2 2.128 0 1.144.72 2.136 2.008 2.136.872 0 1.504-.48 1.792-1.144l-.496-.216zm-1.304-2.392c.8 0 1.32.536 1.392 1.32h-2.808c.096-.752.624-1.32 1.416-1.32zm4.814 3.752c1.288 0 2.08-1.008 2.08-2.128s-.792-2.136-2.08-2.136c-1.28 0-2.072 1.016-2.072 2.136s.792 2.128 2.072 2.128zm-1.496-2.128c0-.92.592-1.624 1.496-1.624.912 0 1.504.704 1.504 1.624 0 .912-.592 1.616-1.504 1.616-.904 0-1.496-.704-1.496-1.616zm8.448 1.616c-.856 0-1.432-.68-1.432-1.616 0-.944.576-1.624 1.432-1.624.656 0 1.104.36 1.296.928l.528-.208c-.248-.688-.872-1.232-1.824-1.232-1.24 0-2.008 1.016-2.008 2.136 0 1.112.768 2.128 2.008 2.128.952 0 1.576-.544 1.824-1.232l-.528-.208c-.192.568-.64.928-1.296.928zm4.363-3.264c.768 0 1.152.344 1.152 1.032v.112l-1.424.184c-1.056.136-1.536.576-1.536 1.232 0 .736.456 1.216 1.424 1.216.664 0 1.256-.272 1.568-.728.064.408.4.648.768.648.176 0 .256-.024.256-.024v-.472s-.032.016-.144.016c-.224 0-.344-.136-.344-.392v-1.784c0-.904-.52-1.528-1.696-1.528-1.072 0-1.576.512-1.712 1.184l.536.112c.112-.576.552-.808 1.152-.808zm1.152 1.592v.472c0 .576-.488 1.24-1.456 1.24-.456 0-.944-.16-.944-.744 0-.408.272-.68 1.048-.784l1.352-.184zm2.529 2.088v-6h-.568v6h.568zm1.969 0v-6h-.568v6h.568zm1.688-5.08c.232 0 .408-.16.408-.392a.395.395 0 00-.408-.408.39.39 0 00-.408.408c0 .232.168.392.408.392zm-.288 5.08h.568v-4.072h-.568V265zm2.513-4.072h-.544V265h.568v-2.424c0-.816.536-1.248 1.224-1.248.728 0 1.072.448 1.072 1.184V265h.568v-2.6c0-.904-.536-1.568-1.544-1.568-.792 0-1.2.456-1.344.72v-.624zm5.789 2.864c1.008 0 1.624-.632 1.624-1.48 0-.232-.048-.44-.136-.632a.924.924 0 01-.048-.304c0-.288.216-.464.496-.464.136 0 .224.008.224.008v-.52c-.016 0-.08-.008-.208-.008-.48 0-.872.272-.984.696a1.812 1.812 0 00-.968-.256c-1.008 0-1.624.632-1.624 1.48 0 .424.152.792.432 1.056-.248.128-.544.368-.544.816 0 .328.136.56.352.704a.95.95 0 00-.456.808c0 .72.528 1.12 1.888 1.12 1.424 0 1.96-.6 1.96-1.232 0-.6-.36-1.04-1.304-1.04h-1.48c-.296 0-.424-.176-.424-.4 0-.376.368-.504.392-.512.232.104.504.16.808.16zm0-.496c-.664 0-1.072-.376-1.072-.984s.408-.984 1.072-.984c.664 0 1.072.376 1.072.984s-.408.984-1.072.984zm.76 1.776c.384 0 .696.128.696.512 0 .44-.432.696-1.408.696-.928 0-1.336-.192-1.336-.64 0-.288.208-.504.392-.568h1.656zm3.867-1.224c.088.664.552 1.248 1.664 1.248 1.104 0 1.624-.584 1.624-1.2 0-1.712-2.504-.76-2.504-1.888 0-.368.312-.68.944-.68.648 0 .952.352 1 .792l.544-.184c-.112-.52-.52-1.104-1.528-1.104-.968 0-1.512.576-1.512 1.2 0 1.672 2.504.712 2.504 1.88 0 .408-.384.688-1.072.688-.696 0-1.048-.344-1.096-.856l-.568.104zm6.055.616s-.184.04-.36.04c-.392 0-.56-.208-.56-.64v-2.456h.936v-.48h-.936v-1.16h-.568v1.16h-.776v.48h.776v2.496c0 .736.368 1.112 1.056 1.112.288 0 .432-.04.432-.04v-.512zm2.458-3.144c.768 0 1.152.344 1.152 1.032v.112l-1.424.184c-1.056.136-1.536.576-1.536 1.232 0 .736.456 1.216 1.424 1.216.664 0 1.256-.272 1.568-.728.064.408.4.648.768.648.176 0 .256-.024.256-.024v-.472s-.032.016-.144.016c-.224 0-.344-.136-.344-.392v-1.784c0-.904-.52-1.528-1.696-1.528-1.072 0-1.576.512-1.712 1.184l.536.112c.112-.576.552-.808 1.152-.808zm1.152 1.592v.472c0 .576-.488 1.24-1.456 1.24-.456 0-.944-.16-.944-.744 0-.408.272-.68 1.048-.784l1.352-.184zm3.531 1.552s-.184.04-.36.04c-.392 0-.56-.208-.56-.64v-2.456h.936v-.48h-.936v-1.16h-.568v1.16h-.776v.48h.776v2.496c0 .736.368 1.112 1.056 1.112.288 0 .432-.04.432-.04v-.512zm.562-.616c.088.664.552 1.248 1.664 1.248 1.104 0 1.624-.584 1.624-1.2 0-1.712-2.504-.76-2.504-1.888 0-.368.312-.68.944-.68.648 0 .952.352 1 .792l.544-.184c-.112-.52-.52-1.104-1.528-1.104-.968 0-1.512.576-1.512 1.2 0 1.672 2.504.712 2.504 1.88 0 .408-.384.688-1.072.688-.696 0-1.048-.344-1.096-.856l-.568.104z" fill="#E6E7EA"/><rect x="280" y="295" width="186" height="48" rx="8" stroke="#E6E7EA" stroke-width="2"/><path d="M327.6 316.082c-1.278 0-2.043-.909-2.043-2.286s.765-2.277 2.043-2.277c.945 0 1.656.495 1.908 1.35l1.053-.369c-.405-1.269-1.539-2.025-2.961-2.025-1.863 0-3.195 1.359-3.195 3.321 0 1.962 1.332 3.33 3.195 3.33 1.422 0 2.556-.756 2.961-2.025l-1.053-.369c-.252.855-.963 1.35-1.908 1.35zm7.033-1.062c0 .765-.414 1.17-1.08 1.17-.648 0-.909-.423-.909-1.062v-2.799h-1.071v2.943c0 1.089.585 1.836 1.719 1.836.756 0 1.224-.342 1.422-.711V317h.99v-4.671h-1.071v2.691zm1.995.675c.117.774.675 1.413 1.953 1.413 1.305 0 1.953-.666 1.953-1.458 0-1.89-2.646-1.089-2.646-1.998 0-.342.27-.558.801-.558.54 0 .792.333.837.666l.999-.18c-.117-.612-.603-1.359-1.809-1.359-1.152 0-1.854.684-1.854 1.467 0 1.899 2.646 1.017 2.646 2.007 0 .324-.306.531-.864.531-.648 0-.972-.297-1.008-.693l-1.008.162zm6.983.351s-.153.045-.333.045c-.369 0-.522-.18-.522-.549v-2.358h.873v-.855h-.873v-1.215h-1.071v1.215h-.711v.855h.711v2.466c0 .882.414 1.377 1.368 1.377.36 0 .558-.054.558-.054v-.927zm2.892 1.062c1.494 0 2.43-1.125 2.43-2.439s-.936-2.448-2.43-2.448c-1.485 0-2.421 1.134-2.421 2.448s.936 2.439 2.421 2.439zm-1.35-2.439c0-.909.576-1.503 1.35-1.503.783 0 1.359.594 1.359 1.503 0 .9-.576 1.494-1.359 1.494-.774 0-1.35-.594-1.35-1.494zm8.84-.351c0-.756.414-1.179 1.053-1.179.648 0 .882.459.882 1.062V317h1.071v-2.934c0-1.062-.576-1.845-1.701-1.845-.72 0-1.224.288-1.584.738-.261-.45-.729-.738-1.404-.738-.747 0-1.197.36-1.395.729v-.621h-.99V317h1.071v-2.718c0-.711.405-1.143 1.044-1.143s.882.45.882 1.062V317h1.071v-2.682zm7.442 1.152c-.198.468-.621.72-1.134.72-.747 0-1.224-.477-1.305-1.215h3.555s.009-.162.009-.333c0-1.368-.909-2.421-2.295-2.421s-2.322 1.08-2.322 2.439c0 1.395.918 2.448 2.331 2.448 1.017 0 1.791-.549 2.124-1.386l-.963-.252zm-1.17-2.376c.693 0 1.143.441 1.233 1.089h-2.484c.108-.639.558-1.089 1.251-1.089zm5.795-.801s-.108-.009-.153-.009c-.81 0-1.206.396-1.377.693v-.648h-.99V317h1.071v-2.43c0-.9.45-1.296 1.206-1.296.117 0 .243.018.243.018v-.999zm4.31 4.707v-2.736h2.934v-1.008h-2.934v-1.638h3.087v-1.008h-4.176V317h1.089zm6.99-1.53c-.198.468-.621.72-1.134.72-.747 0-1.224-.477-1.305-1.215h3.555s.009-.162.009-.333c0-1.368-.909-2.421-2.295-2.421s-2.322 1.08-2.322 2.439c0 1.395.918 2.448 2.331 2.448 1.017 0 1.791-.549 2.124-1.386l-.963-.252zm-1.17-2.376c.693 0 1.143.441 1.233 1.089h-2.484c.108-.639.558-1.089 1.251-1.089zm6.461 2.376c-.198.468-.621.72-1.134.72-.747 0-1.224-.477-1.305-1.215h3.555s.009-.162.009-.333c0-1.368-.909-2.421-2.295-2.421s-2.322 1.08-2.322 2.439c0 1.395.918 2.448 2.331 2.448 1.017 0 1.791-.549 2.124-1.386l-.963-.252zm-1.17-2.376c.693 0 1.143.441 1.233 1.089h-2.484c.108-.639.558-1.089 1.251-1.089zm6.623-.153c-.261-.396-.765-.72-1.494-.72-1.377 0-2.16 1.107-2.16 2.448 0 1.332.783 2.439 2.16 2.439.729 0 1.278-.288 1.575-.774V317h.99v-6.75h-1.071v2.691zm.045 1.728c0 .837-.495 1.494-1.314 1.494-.81 0-1.314-.657-1.314-1.494 0-.855.504-1.503 1.314-1.503.819 0 1.314.648 1.314 1.503zm3.4-1.728v-2.691h-1.071V317h.99v-.666c.306.486.855.774 1.575.774 1.386 0 2.169-1.107 2.169-2.439 0-1.341-.783-2.448-2.169-2.448-.72 0-1.233.324-1.494.72zm-.036 1.728c0-.855.495-1.503 1.314-1.503.81 0 1.314.648 1.314 1.503 0 .837-.504 1.494-1.314 1.494-.819 0-1.314-.657-1.314-1.494zm7.567.144v.288c0 .63-.423 1.17-1.287 1.17-.567 0-.81-.225-.81-.585 0-.315.171-.549.855-.666l1.242-.207zm-1.503 2.295c.702 0 1.296-.225 1.629-.621.117.279.441.567.972.567.207 0 .342-.036.342-.036v-.864s-.045.009-.09.009c-.189 0-.306-.09-.306-.315v-1.881c0-1.071-.648-1.746-2.016-1.746-1.323 0-1.899.666-2.043 1.422l1.026.171c.072-.45.405-.711.99-.711.639 0 .999.27.999.837v.063l-1.35.198c-1.233.18-1.791.702-1.791 1.494 0 .801.504 1.413 1.638 1.413zm5.903-.945c-.765 0-1.251-.621-1.251-1.494 0-.882.486-1.503 1.251-1.503.576 0 1.008.351 1.134.855l1.026-.252c-.243-.801-.9-1.548-2.151-1.548-1.377 0-2.331 1.089-2.331 2.448 0 1.35.954 2.439 2.331 2.439 1.251 0 1.908-.747 2.151-1.548l-1.026-.252c-.126.504-.558.855-1.134.855zm6.142-3.834l-1.989 2.277v-4.356h-1.071V317h1.071v-1.116l.819-.882 1.377 1.998h1.278l-1.944-2.7 1.809-1.971h-1.35zm-81.494 11.767h.016l1.512 4.912h.648l1.824-5.688h-.632l-1.488 4.912h-.016l-1.52-4.912h-.664l-1.52 4.904h-.016l-1.48-4.904h-.656l1.824 5.68h.64l1.528-4.904zm6.25 5c1.288 0 2.08-1.008 2.08-2.128s-.792-2.136-2.08-2.136c-1.28 0-2.072 1.016-2.072 2.136s.792 2.128 2.072 2.128zm-1.496-2.128c0-.92.592-1.624 1.496-1.624.912 0 1.504.704 1.504 1.624 0 .912-.592 1.616-1.504 1.616-.904 0-1.496-.704-1.496-1.616zm7.442.368c0 .864-.544 1.264-1.2 1.264-.728 0-1.048-.448-1.048-1.184v-2.488h-.568v2.608c0 .904.512 1.56 1.52 1.56.776 0 1.184-.424 1.32-.688V329h.544v-4.072h-.568v2.408zm2.534 1.664v-6h-.568v6h.568zm4.537-3.336c-.272-.488-.776-.832-1.52-.832-1.248 0-1.92 1.008-1.92 2.136 0 1.12.672 2.128 1.92 2.128.744 0 1.264-.328 1.544-.848V329h.544v-6h-.568v2.664zm.024 1.304c0 .888-.52 1.616-1.432 1.616-.912 0-1.456-.728-1.456-1.616 0-.904.544-1.624 1.456-1.624.912 0 1.432.72 1.432 1.624zm4.587 2.032v-6h-.568v6h.568zm3.169.096c1.288 0 2.08-1.008 2.08-2.128s-.792-2.136-2.08-2.136c-1.28 0-2.072 1.016-2.072 2.136s.792 2.128 2.072 2.128zm-1.496-2.128c0-.92.592-1.624 1.496-1.624.912 0 1.504.704 1.504 1.624 0 .912-.592 1.616-1.504 1.616-.904 0-1.496-.704-1.496-1.616zm5.957 1.376l-1.384-3.416h-.616L359.34 329h.576l1.72-4.072h-.592l-1.408 3.416zm5.646-.608c-.208.504-.664.848-1.288.848-.856 0-1.392-.632-1.448-1.456h3.384s.008-.128.008-.216c0-1.152-.744-2.08-1.96-2.08-1.224 0-2 1-2 2.128 0 1.144.72 2.136 2.008 2.136.872 0 1.504-.48 1.792-1.144l-.496-.216zm-1.304-2.392c.8 0 1.32.536 1.392 1.32h-2.808c.096-.752.624-1.32 1.416-1.32zm6.78 3.12s-.184.04-.36.04c-.392 0-.56-.208-.56-.64v-2.456h.936v-.48h-.936v-1.16h-.568v1.16h-.776v.48h.776v2.496c0 .736.368 1.112 1.056 1.112.288 0 .432-.04.432-.04v-.512zm2.612.632c1.288 0 2.08-1.008 2.08-2.128s-.792-2.136-2.08-2.136c-1.28 0-2.072 1.016-2.072 2.136s.792 2.128 2.072 2.128zm-1.496-2.128c0-.92.592-1.624 1.496-1.624.912 0 1.504.704 1.504 1.624 0 .912-.592 1.616-1.504 1.616-.904 0-1.496-.704-1.496-1.616zm8.176 1.376l-1.384-3.416h-.616l1.704 4.072h.576l1.72-4.072h-.592l-1.408 3.416zm3.114-4.424c.232 0 .408-.16.408-.392a.395.395 0 00-.408-.408.39.39 0 00-.408.408c0 .232.168.392.408.392zm-.288 5.08h.568v-4.072h-.568V329zm5.104-3.336c-.272-.488-.776-.832-1.52-.832-1.248 0-1.92 1.008-1.92 2.136 0 1.12.672 2.128 1.92 2.128.744 0 1.264-.328 1.544-.848V329h.544v-6h-.568v2.664zm.024 1.304c0 .888-.52 1.616-1.432 1.616-.912 0-1.456-.728-1.456-1.616 0-.904.544-1.624 1.456-1.624.912 0 1.432.72 1.432 1.624zm4.942.768c-.208.504-.664.848-1.288.848-.856 0-1.392-.632-1.448-1.456h3.384s.008-.128.008-.216c0-1.152-.744-2.08-1.96-2.08-1.224 0-2 1-2 2.128 0 1.144.72 2.136 2.008 2.136.872 0 1.504-.48 1.792-1.144l-.496-.216zm-1.304-2.392c.8 0 1.32.536 1.392 1.32h-2.808c.096-.752.624-1.32 1.416-1.32zm4.814 3.752c1.288 0 2.08-1.008 2.08-2.128s-.792-2.136-2.08-2.136c-1.28 0-2.072 1.016-2.072 2.136s.792 2.128 2.072 2.128zm-1.496-2.128c0-.92.592-1.624 1.496-1.624.912 0 1.504.704 1.504 1.624 0 .912-.592 1.616-1.504 1.616-.904 0-1.496-.704-1.496-1.616zm8.448 1.616c-.856 0-1.432-.68-1.432-1.616 0-.944.576-1.624 1.432-1.624.656 0 1.104.36 1.296.928l.528-.208c-.248-.688-.872-1.232-1.824-1.232-1.24 0-2.008 1.016-2.008 2.136 0 1.112.768 2.128 2.008 2.128.952 0 1.576-.544 1.824-1.232l-.528-.208c-.192.568-.64.928-1.296.928zm4.363-3.264c.768 0 1.152.344 1.152 1.032v.112l-1.424.184c-1.056.136-1.536.576-1.536 1.232 0 .736.456 1.216 1.424 1.216.664 0 1.256-.272 1.568-.728.064.408.4.648.768.648.176 0 .256-.024.256-.024v-.472s-.032.016-.144.016c-.224 0-.344-.136-.344-.392v-1.784c0-.904-.52-1.528-1.696-1.528-1.072 0-1.576.512-1.712 1.184l.536.112c.112-.576.552-.808 1.152-.808zm1.152 1.592v.472c0 .576-.488 1.24-1.456 1.24-.456 0-.944-.16-.944-.744 0-.408.272-.68 1.048-.784l1.352-.184zm2.529 2.088v-6h-.568v6h.568zm1.968 0v-6h-.568v6h.568zm-112.735-9.922v-7.191l-6.018 7.191h6.018zm-3.006-6.796c1.661 0 3.006-1.332 3.006-2.975h-6.018c0 1.643 1.352 2.975 3.012 2.975zm7.003 3.821c-1.661 0-3.006 1.331-3.006 2.975h6.012c0-1.644-1.345-2.975-3.006-2.975zm-3.006-6.796v7.191l6.018-7.191h-6.018z" fill="#E6E7EA"/><circle cx="296.274" cy="328.913" r="1.607" fill="#E6E7EA"/><circle cx="301.095" cy="328.913" r="1.607" fill="#E6E7EA"/><circle cx="305.916" cy="328.913" r="1.607" fill="#E6E7EA"/><g filter="url(#filter0_d)"><rect x="280" y="359" width="186" height="48" rx="8" fill="#0071E1"/></g><path d="M327.6 380.082c-1.278 0-2.043-.909-2.043-2.286s.765-2.277 2.043-2.277c.945 0 1.656.495 1.908 1.35l1.053-.369c-.405-1.269-1.539-2.025-2.961-2.025-1.863 0-3.195 1.359-3.195 3.321 0 1.962 1.332 3.33 3.195 3.33 1.422 0 2.556-.756 2.961-2.025l-1.053-.369c-.252.855-.963 1.35-1.908 1.35zm7.033-1.062c0 .765-.414 1.17-1.08 1.17-.648 0-.909-.423-.909-1.062v-2.799h-1.071v2.943c0 1.089.585 1.836 1.719 1.836.756 0 1.224-.342 1.422-.711V381h.99v-4.671h-1.071v2.691zm1.995.675c.117.774.675 1.413 1.953 1.413 1.305 0 1.953-.666 1.953-1.458 0-1.89-2.646-1.089-2.646-1.998 0-.342.27-.558.801-.558.54 0 .792.333.837.666l.999-.18c-.117-.612-.603-1.359-1.809-1.359-1.152 0-1.854.684-1.854 1.467 0 1.899 2.646 1.017 2.646 2.007 0 .324-.306.531-.864.531-.648 0-.972-.297-1.008-.693l-1.008.162zm6.983.351s-.153.045-.333.045c-.369 0-.522-.18-.522-.549v-2.358h.873v-.855h-.873v-1.215h-1.071v1.215h-.711v.855h.711v2.466c0 .882.414 1.377 1.368 1.377.36 0 .558-.054.558-.054v-.927zm2.892 1.062c1.494 0 2.43-1.125 2.43-2.439s-.936-2.448-2.43-2.448c-1.485 0-2.421 1.134-2.421 2.448s.936 2.439 2.421 2.439zm-1.35-2.439c0-.909.576-1.503 1.35-1.503.783 0 1.359.594 1.359 1.503 0 .9-.576 1.494-1.359 1.494-.774 0-1.35-.594-1.35-1.494zm8.84-.351c0-.756.414-1.179 1.053-1.179.648 0 .882.459.882 1.062V381h1.071v-2.934c0-1.062-.576-1.845-1.701-1.845-.72 0-1.224.288-1.584.738-.261-.45-.729-.738-1.404-.738-.747 0-1.197.36-1.395.729v-.621h-.99V381h1.071v-2.718c0-.711.405-1.143 1.044-1.143s.882.45.882 1.062V381h1.071v-2.682zm7.442 1.152c-.198.468-.621.72-1.134.72-.747 0-1.224-.477-1.305-1.215h3.555s.009-.162.009-.333c0-1.368-.909-2.421-2.295-2.421s-2.322 1.08-2.322 2.439c0 1.395.918 2.448 2.331 2.448 1.017 0 1.791-.549 2.124-1.386l-.963-.252zm-1.17-2.376c.693 0 1.143.441 1.233 1.089h-2.484c.108-.639.558-1.089 1.251-1.089zm5.795-.801s-.108-.009-.153-.009c-.81 0-1.206.396-1.377.693v-.648h-.99V381h1.071v-2.43c0-.9.45-1.296 1.206-1.296.117 0 .243.018.243.018v-.999zm4.31 4.707v-2.736h2.934v-1.008h-2.934v-1.638h3.087v-1.008h-4.176V381h1.089zm6.99-1.53c-.198.468-.621.72-1.134.72-.747 0-1.224-.477-1.305-1.215h3.555s.009-.162.009-.333c0-1.368-.909-2.421-2.295-2.421s-2.322 1.08-2.322 2.439c0 1.395.918 2.448 2.331 2.448 1.017 0 1.791-.549 2.124-1.386l-.963-.252zm-1.17-2.376c.693 0 1.143.441 1.233 1.089h-2.484c.108-.639.558-1.089 1.251-1.089zm6.461 2.376c-.198.468-.621.72-1.134.72-.747 0-1.224-.477-1.305-1.215h3.555s.009-.162.009-.333c0-1.368-.909-2.421-2.295-2.421s-2.322 1.08-2.322 2.439c0 1.395.918 2.448 2.331 2.448 1.017 0 1.791-.549 2.124-1.386l-.963-.252zm-1.17-2.376c.693 0 1.143.441 1.233 1.089h-2.484c.108-.639.558-1.089 1.251-1.089zm6.623-.153c-.261-.396-.765-.72-1.494-.72-1.377 0-2.16 1.107-2.16 2.448 0 1.332.783 2.439 2.16 2.439.729 0 1.278-.288 1.575-.774V381h.99v-6.75h-1.071v2.691zm.045 1.728c0 .837-.495 1.494-1.314 1.494-.81 0-1.314-.657-1.314-1.494 0-.855.504-1.503 1.314-1.503.819 0 1.314.648 1.314 1.503zm3.4-1.728v-2.691h-1.071V381h.99v-.666c.306.486.855.774 1.575.774 1.386 0 2.169-1.107 2.169-2.439 0-1.341-.783-2.448-2.169-2.448-.72 0-1.233.324-1.494.72zm-.036 1.728c0-.855.495-1.503 1.314-1.503.81 0 1.314.648 1.314 1.503 0 .837-.504 1.494-1.314 1.494-.819 0-1.314-.657-1.314-1.494zm7.567.144v.288c0 .63-.423 1.17-1.287 1.17-.567 0-.81-.225-.81-.585 0-.315.171-.549.855-.666l1.242-.207zm-1.503 2.295c.702 0 1.296-.225 1.629-.621.117.279.441.567.972.567.207 0 .342-.036.342-.036v-.864s-.045.009-.09.009c-.189 0-.306-.09-.306-.315v-1.881c0-1.071-.648-1.746-2.016-1.746-1.323 0-1.899.666-2.043 1.422l1.026.171c.072-.45.405-.711.99-.711.639 0 .999.27.999.837v.063l-1.35.198c-1.233.18-1.791.702-1.791 1.494 0 .801.504 1.413 1.638 1.413zm5.903-.945c-.765 0-1.251-.621-1.251-1.494 0-.882.486-1.503 1.251-1.503.576 0 1.008.351 1.134.855l1.026-.252c-.243-.801-.9-1.548-2.151-1.548-1.377 0-2.331 1.089-2.331 2.448 0 1.35.954 2.439 2.331 2.439 1.251 0 1.908-.747 2.151-1.548l-1.026-.252c-.126.504-.558.855-1.134.855zm6.142-3.834l-1.989 2.277v-4.356h-1.071V381h1.071v-1.116l.819-.882 1.377 1.998h1.278l-1.944-2.7 1.809-1.971h-1.35zm-84.23 10.991h-.584V393h.584v-5.68zm1.547 0l-.384 1.592h.488l.544-1.592h-.648zm4.291 2.344c-.272-.488-.776-.832-1.52-.832-1.248 0-1.92 1.008-1.92 2.136 0 1.12.672 2.128 1.92 2.128.744 0 1.264-.328 1.544-.848V393h.544v-6h-.568v2.664zm.024 1.304c0 .888-.52 1.616-1.432 1.616-.912 0-1.456-.728-1.456-1.616 0-.904.544-1.624 1.456-1.624.912 0 1.432.72 1.432 1.624zm4.588 2.032v-6h-.568v6h.568zm3.169.096c1.288 0 2.08-1.008 2.08-2.128s-.792-2.136-2.08-2.136c-1.28 0-2.072 1.016-2.072 2.136s.792 2.128 2.072 2.128zm-1.496-2.128c0-.92.592-1.624 1.496-1.624.912 0 1.504.704 1.504 1.624 0 .912-.592 1.616-1.504 1.616-.904 0-1.496-.704-1.496-1.616zm5.957 1.376l-1.384-3.416h-.616l1.704 4.072h.576l1.72-4.072h-.592l-1.408 3.416zm5.646-.608c-.208.504-.664.848-1.288.848-.856 0-1.392-.632-1.448-1.456h3.384s.008-.128.008-.216c0-1.152-.744-2.08-1.96-2.08-1.224 0-2 1-2 2.128 0 1.144.72 2.136 2.008 2.136.872 0 1.504-.48 1.792-1.144l-.496-.216zm-1.304-2.392c.8 0 1.32.536 1.392 1.32h-2.808c.096-.752.624-1.32 1.416-1.32zm6.78 3.12s-.184.04-.36.04c-.392 0-.56-.208-.56-.64v-2.456h.936v-.48h-.936v-1.16h-.568v1.16h-.776v.48h.776v2.496c0 .736.368 1.112 1.056 1.112.288 0 .432-.04.432-.04v-.512zm2.612.632c1.288 0 2.08-1.008 2.08-2.128s-.792-2.136-2.08-2.136c-1.28 0-2.072 1.016-2.072 2.136s.792 2.128 2.072 2.128zm-1.496-2.128c0-.92.592-1.624 1.496-1.624.912 0 1.504.704 1.504 1.624 0 .912-.592 1.616-1.504 1.616-.904 0-1.496-.704-1.496-1.616zm10.072-.344c0-.864.528-1.296 1.168-1.296.712 0 1.016.496 1.016 1.184V393h.568v-2.6c0-.864-.496-1.568-1.488-1.568-.728 0-1.208.392-1.432.784-.216-.472-.664-.784-1.328-.784-.792 0-1.144.456-1.288.72v-.624h-.544V393h.568v-2.424c0-.784.504-1.248 1.168-1.248.712 0 1.024.472 1.024 1.184V393h.568v-2.376zm5.637-1.304c.768 0 1.152.344 1.152 1.032v.112l-1.424.184c-1.056.136-1.536.576-1.536 1.232 0 .736.456 1.216 1.424 1.216.664 0 1.256-.272 1.568-.728.064.408.4.648.768.648.176 0 .256-.024.256-.024v-.472s-.032.016-.144.016c-.224 0-.344-.136-.344-.392v-1.784c0-.904-.52-1.528-1.696-1.528-1.072 0-1.576.512-1.712 1.184l.536.112c.112-.576.552-.808 1.152-.808zm1.152 1.592v.472c0 .576-.488 1.24-1.456 1.24-.456 0-.944-.16-.944-.744 0-.408.272-.68 1.048-.784l1.352-.184zm4.777-1.984l-2.248 2.264V387h-.568v6h.568v-1.112l.92-.896 1.512 2.008h.704l-1.816-2.392 1.688-1.68h-.76zm4.52 2.808c-.208.504-.664.848-1.288.848-.856 0-1.392-.632-1.448-1.456h3.384s.008-.128.008-.216c0-1.152-.744-2.08-1.96-2.08-1.224 0-2 1-2 2.128 0 1.144.72 2.136 2.008 2.136.872 0 1.504-.48 1.792-1.144l-.496-.216zm-1.304-2.392c.8 0 1.32.536 1.392 1.32h-2.808c.096-.752.624-1.32 1.416-1.32zm6.652-.024c.768 0 1.152.344 1.152 1.032v.112l-1.424.184c-1.056.136-1.536.576-1.536 1.232 0 .736.456 1.216 1.424 1.216.664 0 1.256-.272 1.568-.728.064.408.4.648.768.648.176 0 .256-.024.256-.024v-.472s-.032.016-.144.016c-.224 0-.344-.136-.344-.392v-1.784c0-.904-.52-1.528-1.696-1.528-1.072 0-1.576.512-1.712 1.184l.536.112c.112-.576.552-.808 1.152-.808zm1.152 1.592v.472c0 .576-.488 1.24-1.456 1.24-.456 0-.944-.16-.944-.744 0-.408.272-.68 1.048-.784l1.352-.184zm5.471 1.432l-1.384-3.416h-.616l1.704 4.072h.576l1.72-4.072h-.592l-1.408 3.416zm3.114-4.424c.232 0 .408-.16.408-.392a.395.395 0 00-.408-.408.39.39 0 00-.408.408c0 .232.168.392.408.392zm-.288 5.08h.568v-4.072h-.568V393zm5.105-3.336c-.272-.488-.776-.832-1.52-.832-1.248 0-1.92 1.008-1.92 2.136 0 1.12.672 2.128 1.92 2.128.744 0 1.264-.328 1.544-.848V393h.544v-6h-.568v2.664zm.024 1.304c0 .888-.52 1.616-1.432 1.616-.912 0-1.456-.728-1.456-1.616 0-.904.544-1.624 1.456-1.624.912 0 1.432.72 1.432 1.624zm4.941.768c-.208.504-.664.848-1.288.848-.856 0-1.392-.632-1.448-1.456h3.384s.008-.128.008-.216c0-1.152-.744-2.08-1.96-2.08-1.224 0-2 1-2 2.128 0 1.144.72 2.136 2.008 2.136.872 0 1.504-.48 1.792-1.144l-.496-.216zm-1.304-2.392c.8 0 1.32.536 1.392 1.32h-2.808c.096-.752.624-1.32 1.416-1.32zm4.814 3.752c1.288 0 2.08-1.008 2.08-2.128s-.792-2.136-2.08-2.136c-1.28 0-2.072 1.016-2.072 2.136s.792 2.128 2.072 2.128zm-1.496-2.128c0-.92.592-1.624 1.496-1.624.912 0 1.504.704 1.504 1.624 0 .912-.592 1.616-1.504 1.616-.904 0-1.496-.704-1.496-1.616zm8.448 1.616c-.856 0-1.432-.68-1.432-1.616 0-.944.576-1.624 1.432-1.624.656 0 1.104.36 1.296.928l.528-.208c-.248-.688-.872-1.232-1.824-1.232-1.24 0-2.008 1.016-2.008 2.136 0 1.112.768 2.128 2.008 2.128.952 0 1.576-.544 1.824-1.232l-.528-.208c-.192.568-.64.928-1.296.928zm4.363-3.264c.768 0 1.152.344 1.152 1.032v.112l-1.424.184c-1.056.136-1.536.576-1.536 1.232 0 .736.456 1.216 1.424 1.216.664 0 1.256-.272 1.568-.728.064.408.4.648.768.648.176 0 .256-.024.256-.024v-.472s-.032.016-.144.016c-.224 0-.344-.136-.344-.392v-1.784c0-.904-.52-1.528-1.696-1.528-1.072 0-1.576.512-1.712 1.184l.536.112c.112-.576.552-.808 1.152-.808zm1.152 1.592v.472c0 .576-.488 1.24-1.456 1.24-.456 0-.944-.16-.944-.744 0-.408.272-.68 1.048-.784l1.352-.184zm2.529 2.088v-6h-.568v6h.568zm1.968 0v-6h-.568v6h.568zm1.457-1.312h.472l.096-4.368h-.664l.096 4.368zm.24 1.376a.41.41 0 00.424-.416.412.412 0 00-.424-.424.414.414 0 00-.432.424c0 .24.184.416.432.416zM296.45 379.966a.427.427 0 00.857 0v-3.854a.427.427 0 00-.857 0v3.854zm.15 2.682c.066.057 1.653 1.389 4.564 1.389 2.91 0 4.498-1.332 4.564-1.389a.426.426 0 00.046-.604.426.426 0 00-.603-.047c-.025.021-1.443 1.183-4.007 1.183-2.597 0-3.993-1.17-4.007-1.182a.428.428 0 10-.557.65zm9.278-6.536a.432.432 0 00-.429-.424.429.429 0 00-.428.424v3.854a.427.427 0 00.857 0v-3.854zm-2.143-.857a.43.43 0 00-.429-.422.427.427 0 00-.428.422v5.725a.432.432 0 00.428.422.428.428 0 00.429-.422v-5.725zm-2.143-.217a.435.435 0 00-.428-.429.44.44 0 00-.303.126.42.42 0 00-.126.303v6.214a.43.43 0 00.857 0v-6.214zm-2.142.217a.43.43 0 00-.73-.299.425.425 0 00-.127.299v5.725a.427.427 0 00.729.299.432.432 0 00.128-.299v-5.725zm-3.107-2.357h9.642c.887 0 1.607.719 1.607 1.607v9.642c0 .887-.72 1.607-1.607 1.607h-9.642c-.888 0-1.607-.72-1.607-1.607v-9.642c0-.888.719-1.607 1.607-1.607z" fill="#fff"/><circle cx="296.343" cy="393.532" r="1.607" fill="#99C6F3"/><circle cx="301.164" cy="393.532" r="1.607" fill="#66AAED"/><circle cx="305.985" cy="393.532" r="1.607" fill="#338DE7"/><defs><clipPath id="clip0"><path fill="#fff" transform="translate(943 25)" d="M0 0h37.821v37.821H0z"/></clipPath><clipPath id="clip1"><path fill="#fff" transform="matrix(-1 0 0 1 1037.96 466)" d="M0 0h40.956v40.956H0z"/></clipPath><clipPath id="clip2"><path fill="#fff" transform="translate(23 215)" d="M0 0h41.947v41.947H0z"/></clipPath><filter id="filter0_d" x="264.593" y="346.781" width="217.876" height="79.876" filterUnits="userSpaceOnUse" color-interpolation-filters="sRGB"><feFlood flood-opacity="0" result="BackgroundImageFix"/><feColorMatrix in="SourceAlpha" values="0 0 0 0 0 0 0 0 0 0 0 0 0 0 0 0 0 0 127 0"/><feOffset dx=".531" dy="3.719"/><feGaussianBlur stdDeviation="7.969"/><feColorMatrix values="0 0 0 0 0.278431 0 0 0 0 0.313726 0 0 0 0 0.34902 0 0 0 0.11 0"/><feBlend in2="BackgroundImageFix" result="effect1_dropShadow"/><feBlend in="SourceGraphic" in2="effect1_dropShadow" result="shape"/></filter></defs></svg>