<svg width="568" height="747" fill="none" xmlns="http://www.w3.org/2000/svg"><path d="M385.731 259.394l.556-13.862s3.712-3.677 3.712-6.062c0-2.385-4.268-16.032-6.133-16.678-1.865-.645-11.889 4.107-12.069 7.174-.179 3.066 5.201 14.346 6.133 15.171l-1.488 14.723 9.289-.466zm151.051-19.135l-4.77-13.719a38.597 38.597 0 01-5.631-4.913c-1.309-1.794 5.99-14.723 7.066-14.723a37.073 37.073 0 019.827 5.487c1.076 1.291-4.627 11.836-4.627 11.836l7.084 11.836-8.949 4.196z" fill="#FFD5BD"/><path d="M509.031 238.764c6.581.646 38.205 33.631 38.205 33.631l-13.303-36.954a1 1 0 01.618-1.285l9.048-3.091c.439-.15.909-.002 1.151.393 3.31 5.395 25.821 42.934 20.401 57.382-5.846 15.584-58.049-20.139-58.049-20.139l1.929-29.937z" fill="#FF3951"/><path d="M407.861 641.351l-7.371-9.63 12.482-12.051 11.351-10.939 10.671 9.971-14.347 11.997-12.786 10.652z" fill="#FFD5BD"/><path d="M400.06 628.762c1.094-.771 10.222 12.912 10.222 12.912s-2.026 14.346 2.098 23.474c4.125 9.128-3.891 8.429-10.562-.287l-16.463-21.519c-4.734-6.259 3.497-6.456 14.705-14.58z" fill="#14142B"/><path d="M410.139 644.328s6.115-1.972 6.832 1.327c.807 3.802-6.832-1.327-6.832-1.327zm0 0s6.169 4.591 4.537 6.671c-2.475 3.121-4.537-6.671-4.537-6.671z" stroke="#FF3951" stroke-width=".539" stroke-linecap="round" stroke-linejoin="round"/><path opacity=".2" d="M420.648 630.699l-7.675-11.029 11.351-10.939 10.671 9.971-14.347 11.997z" fill="#000"/><path d="M481.62 656.612h-12.141l-1.99-16.893-1.794-15.494 14.401-2.349.807 18.399.717 16.337z" fill="#FFD5BD"/><path d="M466.877 655.841c0-1.345 16.463-.287 16.463-.287s10.114 10.276 19.924 12.553c9.809 2.278 4.339 8.232-6.671 8.232h-27.115c-7.801 0-2.923-6.636-2.601-20.498z" fill="#14142B"/><path d="M485.367 657.276s2.152-6.062 5.201-4.627c3.586 1.668-5.201 4.627-5.201 4.627zm0 0s7.407-2.116 8.052.43c.987 3.874-8.052-.43-8.052-.43z" stroke="#FF3951" stroke-width=".539" stroke-linecap="round" stroke-linejoin="round"/><path opacity=".2" d="M480.903 640.652l-13.414-.592-1.794-15.674 14.401-2.421.807 18.687z" fill="#000"/><path d="M511.892 364.769s35.867 84.734 41.48 121.945c5.613 37.211-121.694 136.847-121.694 136.847l-13.02-13.844s94.723-97.377 94.723-114.126c0-16.75-36.942-93.252-36.942-93.252s-3.569-30.863 35.453-37.57z" fill="#14142B"/><path opacity=".2" d="M488.234 533.286l-2.295 43.883c-13.002 11.979-25.591 22.793-35.364 30.97a104.492 104.492 0 01-2.547-29.518c12.876-13.916 27.85-30.486 40.206-45.335zm5.167-94.095c-8.715-19.726-16.964-36.888-16.964-36.888a31.59 31.59 0 011.022-10.473 12.388 12.388 0 014.071-1.793s10.598 16.731 11.871 49.154z" fill="#000"/><path d="M447.298 170.302s10.885-13.575 28.693-10.544c17.808 3.03 14.723 35.973 14.723 35.973a23.792 23.792 0 017.675 23.6c-3.479 14.939-44.097 23.582-59.627 13.199-15.53-10.383-3.587-43.326 3.963-47.989 7.55-4.662 4.573-14.239 4.573-14.239zm34.574 219.824l2.17 119.291v122.089h-20.318c-48.527-231.337-15.261-289.333-15.261-289.333h.125c0-.09 0-.197.108-.269 7.801-17.323 58.91-4.555 58.91-4.555 3.676 14.347 5.936 43.524 5.936 43.524l-31.67 9.253z" fill="#14142B"/><path d="M448.174 333.242v8.68l59.179-4.537v-10.258l-59.179 6.115z" fill="#14142B"/><path d="M468.008 329.659l-2.938.149.763 14.955 2.937-.15-.762-14.954z" fill="#FF3951"/><path d="M493.678 329.202l-12.932 1.158.879 9.806 12.931-1.158-.878-9.806z" fill="#fff"/><path d="M504.185 325.652l-2.937.15.763 14.955 2.937-.15-.763-14.955z" fill="#FF3951"/><path opacity=".6" d="M468.008 329.659l-2.938.149.763 14.955 2.937-.15-.762-14.954zm36.177-4.007l-2.937.15.763 14.955 2.937-.15-.763-14.955z" fill="#fff"/><path d="M507.603 328.167l-59.179 5.111c-1.399-22.004-2.798-36.189-15.835-75.319a620.717 620.717 0 00-3.694-10.903 175.642 175.642 0 0124.568-5.936 188.584 188.584 0 0126.577-2.797c11.513 0 24.747 1.201 24.747 1.201s1.883.448 3.067 12.661c1.058 11.369 2.116 34.288-.251 75.982z" fill="#FFC226"/><path d="M475.075 251.324c-14.598-1.793-18.973-8.106-18.973-8.106 9.253-8.733 1.56-23.869 1.56-23.869l17.556 3.282a49.56 49.56 0 00-.681 7.407c-.144 10.652 4.68 10.759 4.68 10.759 3.157 5.757-4.142 10.527-4.142 10.527z" fill="#FFD5BD"/><path opacity=".2" d="M475.289 222.631a49.693 49.693 0 00-.682 7.406c-8.464-1.972-16.875-10.759-16.875-10.759l17.557 3.353z" fill="#000"/><path d="M459.633 174.014c14.884-3.586 21.519 3.318 26.272 18.382 5.9 18.83 4.877 33.445-14.688 33.768-26.63.43-36.278-46.285-11.584-52.15z" fill="#FFD5BD"/><path d="M476.098 193.938a32.48 32.48 0 005.792 5.147 4.182 4.182 0 01-3.587 2.6l-2.205-7.747z" fill="#FF97B8"/><path d="M466.697 194.781c.323 1.219 0 2.367-.879 2.582-.878.215-1.793-.592-2.044-1.793-.251-1.202 0-2.367.879-2.582.878-.216 1.739.573 2.044 1.793z" fill="#14142B"/><path d="M464.314 193.114l2.386-1.794s-.717 2.619-2.386 1.794zm17.433-2.529c.323 1.201-.09 2.367-.897 2.582-.807.215-1.793-.61-2.044-1.793-.251-1.184.089-2.367.896-2.583.807-.215 1.722.574 2.045 1.794z" fill="#14142B"/><path d="M479.379 188.899l2.368-1.793s-.736 2.636-2.368 1.793z" fill="#14142B"/><path d="M464.117 184.541a7.961 7.961 0 00-5.918 3.784m16.588-6.94a7.166 7.166 0 016.223-.179" stroke="#14142B" stroke-width=".808" stroke-linecap="round" stroke-linejoin="round"/><path d="M477.583 207.962a40.087 40.087 0 00-.52 5.577l-.968.143c-4.43.592-6.689-.609-7.837-2.098a5.928 5.928 0 01-1.058-2.528 5.516 5.516 0 010-1.561 21.037 21.037 0 008.966.646 17.266 17.266 0 001.417-.179z" fill="#14142B"/><path d="M476.059 208.141l-.179 1.65c-4.179.538-7.174.359-8.68-.735a5.516 5.516 0 010-1.561 21.054 21.054 0 008.859.646z" fill="#fff"/><path d="M476.098 213.664c-4.429.592-6.689-.609-7.836-2.098a14.358 14.358 0 015.021.305 5.376 5.376 0 012.815 1.793z" fill="#FF97B8"/><path d="M449.323 202.905s4.053-13.863.771-23.044c0 0 26.613-19.027 35.167 10.544 0 0-3.408-27.258-29.124-21.788-25.716 5.469-16.731 42.86-.896 50.876 0 .036-8.411-7.891-5.918-16.588z" fill="#14142B"/><path d="M452.496 205.505a6.708 6.708 0 00-8.429-4.286c-4.501 1.578-4.447 11.567 7.55 11.136 1.722-.071 2.278-1.901.879-6.85zm55.341 46.59c-22.237 10.993-56.309 8.429-75.319 5.775a609.836 609.836 0 00-3.694-10.904 175.937 175.937 0 0124.569-5.936 188.718 188.718 0 0126.576-2.797c11.514 0 24.748 1.201 24.748 1.201s1.937.449 3.12 12.661z" fill="#FFD5BD"/><path d="M439.865 241.651c.843-.395 1.838-.162 2.381.595 3.426 4.776 15.074 22.358 15.487 41.178.454 20.712-12.477 111.635-14.077 122.794a.995.995 0 01-1.26.813l-15.791-4.466a1.005 1.005 0 01-.72-1.128c1.415-8.82 12.438-82.175-.145-153.18l14.125-6.606zm50.438-3.561s6.901 21.788 6.04 36.959c-.861 15.172 15.548 89.863 15.548 89.863l4.77 11.477-4.716-46.321s2.851-67.984-2.905-91.297l-18.737-.681z" fill="#FF3951"/><path d="M459.635 174.014s5.505 18.74-11.263 27.223c-20.264 10.258-18.327 32.423 1.435 35.238 0 0-19.959-2.008-23.833-15.046-3.874-13.037 7.173-33.104 7.173-33.104s-6.061-11.029 10.312-19.727c9.182-4.841 16.176 5.416 16.176 5.416z" fill="#14142B"/><path d="M461.105 628.583l25.394-3.73-2.116 10.15-20.964 2.815-2.314-9.235zm-42.447-23.582l17.036 18.525-8.518 4.877-13.145-13.952 4.627-9.45z" fill="#FF3951"/><path d="M519.586 198.17c-3.067-5.487-8.967-7.998-13.306-5.595-4.34 2.403-5.255 8.769-2.206 14.257 3.049 5.488 8.966 7.98 13.306 5.595 4.34-2.385 5.273-8.787 2.206-14.257zm34.808-19.224l-10.545-19.386s-7.352 15.799-17.933 21.717l5.38 9.612.843 1.507 5.38 9.612c10.58-5.918 27.886-3.927 27.886-3.927l-11.011-19.135z" fill="#FF8139"/><path d="M518.865 209.522s7.622 11.029 14.741 15.064a1.17 1.17 0 001.489-.323l6.079-7.514a1.205 1.205 0 00-.038-1.47 1.196 1.196 0 00-.41-.323c-2.995-1.327-9.989-4.735-14.024-9.505-5.236-6.241-7.837 4.071-7.837 4.071z" fill="#FF8139"/><path d="M565.277 198.655c-2.421 1.344-9.307-6.349-15.369-17.198-6.061-10.85-8.966-20.731-6.581-22.094 2.385-1.363 9.307 6.348 15.369 17.18 6.061 10.832 9.02 20.749 6.581 22.112z" fill="#fff"/><path d="M564.29 195.444c-1.794 1.023-7.173-5.039-12.249-13.736a62.594 62.594 0 01-.86-1.525c-.287-.52-.682-1.219-1.005-1.793-4.644-8.787-6.94-16.355-5.146-17.359 1.793-1.004 7.836 5.756 13.145 15.261 5.308 9.504 8.052 18.076 6.115 19.152z" fill="#4E4B66"/><path d="M516.322 214.436s-2.601-1.794-7.317-10.294c-5.111-9.146-4.967-11.692-4.967-11.692l23.617-13.217s.287 3.318 5.075 11.89c4.789 8.572 7.174 10.096 7.174 10.096l-23.582 13.217z" fill="#FFC226"/><path d="M552.045 181.708c-.287-.484-.574-1.005-.861-1.525-.287-.52-.682-1.219-1.004-1.793l2.439-.771a1.11 1.11 0 011.345.61l.197.358a1.095 1.095 0 01-.18 1.453l-1.936 1.668z" fill="#fff"/><path opacity=".2" d="M552.045 181.708c-.287-.484-.574-1.005-.861-1.525-.287-.52-.682-1.219-1.004-1.793l2.439-.771a1.11 1.11 0 011.345.61l.197.358a1.095 1.095 0 01-.18 1.453l-1.936 1.668z" fill="#000"/><path d="M425.74 248.24c-8.232 3.586-37.66 56.13-37.66 56.13l-.574-49.675-13.288-1.793s-8.088 70.459 9.235 74.494c17.324 4.035 49.101-46.195 49.101-46.195l-6.814-32.961z" fill="#FF3951"/><path d="M457.732 171.791s7.622 5.505 1.955 19.87m29.393 2.905s20.964 13.575 7.371 31.06" stroke="#14142B" stroke-width=".558" stroke-linecap="round" stroke-linejoin="round"/><path d="M436.774 121.968c-71.382 10.054-166.468 38.387-248.131 73.924-53.137 23.12-145.826 69.149-169.512 117.623-7.091 14.571-7.156 28.073-.162 40.2 6.994 12.126 23.233 20.562 46.126 26.309v-2.655c-21.857-5.521-37.432-13.503-43.956-24.852-6.525-11.349-6.477-24.172.242-37.934 17.049-34.906 78.394-77.357 168.379-116.472 81.34-35.522 176.182-63.709 247.354-73.731a1.216 1.216 0 00.563-2.179 1.22 1.22 0 00-.903-.233z" fill="#fff"/><g filter="url(#filter0_d)" fill="#FF3951" fill-opacity=".01" stroke="#FF3951" stroke-opacity=".01" stroke-width="2"><path d="M18.233 313.076l-.001.001c-7.21 14.814-7.318 28.674-.13 41.138 7.214 12.506 23.82 21.022 46.75 26.779l1.243.312v-4.716l-.755-.191c-21.83-5.514-37.03-13.416-43.335-24.381-6.33-11.011-6.325-23.477.275-36.996 8.409-17.217 27.832-36.436 56.508-56.274 28.647-19.818 66.418-40.18 111.371-59.72l.001-.001c81.274-35.493 176.029-63.65 247.094-73.657l-.14-.99.14.99a2.218 2.218 0 00-.619-4.392c-71.49 10.069-166.664 38.432-248.391 73.998-26.589 11.568-63.096 28.878-95.93 49.371-32.785 20.462-62.103 44.215-74.081 68.729z"/><path d="M18.906 355.03c.339.197.723.301 1.115.3.422.002.836-.118 1.192-.344a2.218 2.218 0 00.807-2.941l-.007-.014-.008-.013c-6.362-11.059-6.326-23.476.275-36.996v-.001c8.377-17.216 27.783-36.435 56.442-56.273 28.628-19.818 66.379-40.18 111.291-59.72l-.336-.772.336.771c81.422-35.428 176.111-63.65 247.241-73.657a2.218 2.218 0 00-.619-4.392c-71.49 10.069-166.664 38.432-248.391 73.998-26.589 11.568-63.096 28.878-95.93 49.371-32.785 20.462-62.103 44.215-74.081 68.729h0c-7.21 14.781-7.319 28.671-.133 41.133.191.34.47.624.806.821z"/></g><path d="M18.233 313.076l-.001.001c-7.21 14.814-7.318 28.674-.13 41.138 7.214 12.506 23.82 21.022 46.75 26.779l1.243.312v-4.716l-.755-.191c-21.83-5.514-37.03-13.416-43.335-24.381-6.33-11.011-6.325-23.477.275-36.996 8.409-17.217 27.832-36.436 56.508-56.274 28.647-19.818 66.418-40.18 111.371-59.72l.001-.001c81.274-35.493 176.029-63.65 247.094-73.657l-.14-.99.14.99a2.218 2.218 0 00-.619-4.392c-71.49 10.069-166.664 38.432-248.391 73.998-26.589 11.568-63.096 28.878-95.93 49.371-32.785 20.462-62.103 44.215-74.081 68.729z" fill="#FF3951" stroke="#FF3951" stroke-width="2"/><path d="M18.906 355.03c.339.197.723.301 1.115.3.422.002.836-.118 1.192-.344a2.218 2.218 0 00.807-2.941l-.007-.014-.008-.013c-6.362-11.059-6.326-23.476.275-36.996v-.001c8.377-17.216 27.783-36.435 56.442-56.273 28.628-19.818 66.379-40.18 111.291-59.72l-.336-.772.336.771c81.422-35.428 176.111-63.65 247.241-73.657a2.218 2.218 0 00-.619-4.392c-71.49 10.069-166.664 38.432-248.391 73.998-26.589 11.568-63.096 28.878-95.93 49.371-32.785 20.462-62.103 44.215-74.081 68.729h0c-7.21 14.781-7.319 28.671-.133 41.133.191.34.47.624.806.821z" fill="#FF3951" stroke="#FF3951" stroke-width="2"/><g filter="url(#filter1_d)" fill="#FF3951" fill-opacity=".01"><path d="M467.416 134.719l84.577-45.38-73.653 24.291-10.924 21.089z"/><path d="M450.07 93.654c-1.057.052-1.445 1.415-.574 2.016l13.449 9.274 4.476 29.775 10.924-21.089 21.926 11.028a9.957 9.957 0 0010.704-1.127l41.012-32.879c.837-.67.325-2.02-.746-1.968l-101.171 4.97z"/></g><path d="M467.416 134.719l84.577-45.38-73.653 24.291-10.924 21.089z" fill="#FF3951"/><path opacity=".3" d="M467.416 134.719l84.615-45.361-73.691 24.272-10.924 21.089z" fill="#14142B"/><path d="M450.07 93.654c-1.057.052-1.445 1.415-.574 2.016l13.449 9.274 4.476 29.775 10.924-21.089 21.926 11.028a9.957 9.957 0 0010.704-1.127l41.012-32.879c.837-.67.325-2.02-.746-1.968l-101.171 4.97z" fill="#FF3951"/><path opacity=".2" d="M462.943 104.944l89.099-15.59-73.698 24.276-10.924 21.089-4.477-29.775z" fill="#14142B"/><g filter="url(#filter2_dd)"><path d="M338.572 48H104.147c-18.48 0-33.46 14.98-33.46 33.46v554.674c0 18.48 14.98 33.46 33.46 33.46h234.425c18.479 0 33.459-14.98 33.459-33.46V81.46c0-18.48-14.98-33.46-33.459-33.46z" fill="#fff"/></g><path d="M338.572 48H104.147c-18.48 0-33.46 14.98-33.46 33.46v554.674c0 18.48 14.98 33.46 33.46 33.46h234.425c18.479 0 33.459-14.98 33.459-33.46V81.46c0-18.48-14.98-33.46-33.459-33.46z" fill="#fff"/><path d="M358.036 621.709V96.159c0-18.276-14.816-33.092-33.092-33.092H117.777c-18.276 0-33.091 14.816-33.091 33.092v525.55c0 18.276 14.815 33.091 33.091 33.091h207.167c18.276 0 33.092-14.815 33.092-33.091z" fill="#F4F6FC"/><g filter="url(#filter3_d)"><path fill-rule="evenodd" clip-rule="evenodd" d="M110.391 97.407h17.883c6.512 0 10.188 3.694 10.207 10.206v17.885c0 6.51-3.695 10.205-10.207 10.205h-17.883c-6.512 0-10.205-3.695-10.205-10.205v-17.885c0-6.512 3.693-10.206 10.205-10.206zm9.036 30.369c.826 0 1.513-.613 1.59-1.436v-19.512a1.562 1.562 0 00-.726-1.512 1.607 1.607 0 00-2.453 1.512v19.512a1.614 1.614 0 001.589 1.436zm8.81 0c.804 0 1.492-.613 1.59-1.436v-6.28a1.598 1.598 0 00-.749-1.513 1.603 1.603 0 00-1.702 0 1.542 1.542 0 00-.728 1.513v6.28a1.583 1.583 0 001.589 1.436zm-16.144-1.436a1.583 1.583 0 01-1.589 1.436 1.58 1.58 0 01-1.587-1.436v-13.231a1.61 1.61 0 01.746-1.513 1.578 1.578 0 011.685 0c.516.326.805.917.745 1.513v13.231z" fill="#FF3951" fill-opacity=".01"/></g><path d="M134.608 101.512h-31.049v28.661h31.049v-28.661z" fill="#fff"/><path fill-rule="evenodd" clip-rule="evenodd" d="M110.391 97h17.883c6.512 0 10.188 3.693 10.207 10.205v17.885c0 6.511-3.695 10.206-10.207 10.206h-17.883c-6.512 0-10.205-3.695-10.205-10.206v-17.885c0-6.512 3.693-10.205 10.205-10.205zm9.036 30.368c.826 0 1.513-.613 1.59-1.436v-19.511a1.562 1.562 0 00-.726-1.512 1.607 1.607 0 00-2.453 1.512v19.511a1.614 1.614 0 001.589 1.436zm8.81 0c.804 0 1.492-.613 1.59-1.436v-6.28a1.598 1.598 0 00-.749-1.513 1.603 1.603 0 00-1.702 0 1.542 1.542 0 00-.728 1.513v6.28a1.583 1.583 0 001.589 1.436zm-16.144-1.436a1.583 1.583 0 01-1.589 1.436 1.58 1.58 0 01-1.587-1.436v-13.231a1.612 1.612 0 01.746-1.513 1.578 1.578 0 011.685 0c.516.326.805.918.745 1.513v13.231z" fill="#FF3951"/><path d="M113.024 113.766a2.427 2.427 0 10-4.854 0v11.945a2.428 2.428 0 004.854 0v-11.945zm8.738-6.366a2.427 2.427 0 10-4.854 0v18.311a2.428 2.428 0 004.854 0V107.4zm8.737 11.612a2.427 2.427 0 10-4.854 0v6.699a2.428 2.428 0 004.854 0v-6.699z" fill="#fff"/><path opacity=".74" d="M293.137 312.688H149.586a8 8 0 000 16h143.551a8 8 0 000-16zm-96.778 237.629h-77.168a8 8 0 000 16h77.168a8 8 0 000-16zm121.951 0h-66.728a8 8 0 000 16h66.728a8 8 0 008-8 8 8 0 00-8-8z" fill="#A0A3BD"/><path opacity=".3" d="M330.018 108.555h-69.77a8 8 0 000 16h69.77a8 8 0 000-16z" fill="#A0A3BD"/><path opacity=".9" d="M330.017 336.688H112.703a8 8 0 000 16h217.314a8 8 0 000-16z" fill="#D9DBE9"/><g filter="url(#filter4_d)"><path d="M256.85 366.688h-70.979c-8.836 0-16 7.163-16 16s7.164 16 16 16h70.979c8.837 0 16-7.163 16-16s-7.163-16-16-16z" fill="#FF3951" fill-opacity=".01"/></g><path d="M256.979 366.688H186c-8.837 0-16 7.163-16 16s7.163 16 16 16h70.979c8.837 0 16-7.163 16-16s-7.163-16-16-16z" fill="#FF3951"/><g filter="url(#filter5_d)"><path d="M256.361 586.317h-70c-8.837 0-16 7.163-16 16 0 8.836 7.163 16 16 16h70c8.836 0 16-7.164 16-16 0-8.837-7.164-16-16-16z" fill="#FF3951" fill-opacity=".01"/></g><path d="M256 586.317h-70c-8.837 0-16 7.163-16 16 0 8.836 7.163 16 16 16h70c8.837 0 16-7.164 16-16 0-8.837-7.163-16-16-16z" fill="#FF3951"/><path opacity=".18" d="M327.536 145.188h-212.35c-8.284 0-15 6.716-15 15v120.695c0 8.284 6.716 15 15 15h212.35c8.284 0 15-6.716 15-15V160.188c0-8.284-6.716-15-15-15z" fill="#A0A3BD"/><path opacity=".19" d="M200.366 429.387h-85.18c-8.284 0-15 6.716-15 15v82.93c0 8.284 6.716 15 15 15h85.18c8.284 0 15-6.716 15-15v-82.93c0-8.284-6.716-15-15-15zm127.169 0h-85.18c-8.284 0-15 6.716-15 15v82.93c0 8.284 6.716 15 15 15h85.18c8.284 0 15-6.716 15-15v-82.93c0-8.284-6.716-15-15-15z" fill="#A0A3BD"/><path d="M70.076 260.564h-1.8a.608.608 0 00-.608.608v41.8c0 .336.272.608.608.608h1.8a.608.608 0 00.608-.608v-41.8a.608.608 0 00-.608-.608zm0-54.838h-1.8a.608.608 0 00-.608.608v42.052c0 .335.272.608.608.608h1.8a.608.608 0 00.608-.608v-42.052a.608.608 0 00-.608-.608zm0-38.74h-1.8a.608.608 0 00-.608.608v17.902c0 .336.272.608.608.608h1.8a.608.608 0 00.608-.608v-17.902a.608.608 0 00-.608-.608zm304.365 54.336h-1.8a.608.608 0 00-.608.608v65.95c0 .335.272.607.608.607h1.8a.608.608 0 00.608-.607v-65.95a.608.608 0 00-.608-.608z" fill="#fff"/><path fill-rule="evenodd" clip-rule="evenodd" d="M297.62 63.067c-1.076.12-1.614.782-1.614 2.466 0 14.136-10.795 18.309-16.193 18.628H163.859c-16.875 0-16.666-13.442-16.609-17.072.002-.178.005-.332.005-.46 0-2.736-.821-3.56-3.009-3.562H297.62zm0 0a4.52 4.52 0 01.856 0h-.856z" fill="#fff"/><defs><filter id="filter0_d" x=".768" y="111.956" width="450.395" height="284.632" filterUnits="userSpaceOnUse" color-interpolation-filters="sRGB"><feFlood flood-opacity="0" result="BackgroundImageFix"/><feColorMatrix in="SourceAlpha" values="0 0 0 0 0 0 0 0 0 0 0 0 0 0 0 0 0 0 127 0"/><feOffset dy="3"/><feGaussianBlur stdDeviation="5.5"/><feColorMatrix values="0 0 0 0 1 0 0 0 0 0.223529 0 0 0 0 0.317647 0 0 0 0.18 0"/><feBlend in2="BackgroundImageFix" result="effect1_dropShadow"/><feBlend in="SourceGraphic" in2="effect1_dropShadow" result="shape"/></filter><filter id="filter1_d" x="433.526" y="84.257" width="134.369" height="77.017" filterUnits="userSpaceOnUse" color-interpolation-filters="sRGB"><feFlood flood-opacity="0" result="BackgroundImageFix"/><feColorMatrix in="SourceAlpha" values="0 0 0 0 0 0 0 0 0 0 0 0 0 0 0 0 0 0 127 0"/><feOffset dy="11.065"/><feGaussianBlur stdDeviation="7.745"/><feColorMatrix values="0 0 0 0 1 0 0 0 0 0.223529 0 0 0 0 0.317647 0 0 0 0.26 0"/><feBlend in2="BackgroundImageFix" result="effect1_dropShadow"/><feBlend in="SourceGraphic" in2="effect1_dropShadow" result="shape"/></filter><filter id="filter2_dd" x="8.229" y=".002" width="426.26" height="746.51" filterUnits="userSpaceOnUse" color-interpolation-filters="sRGB"><feFlood flood-opacity="0" result="BackgroundImageFix"/><feColorMatrix in="SourceAlpha" values="0 0 0 0 0 0 0 0 0 0 0 0 0 0 0 0 0 0 127 0"/><feOffset dy="14.46"/><feGaussianBlur stdDeviation="31.229"/><feColorMatrix values="0 0 0 0 0.0358494 0 0 0 0 0.0349653 0 0 0 0 0.0791667 0 0 0 0.05 0"/><feBlend in2="BackgroundImageFix" result="effect1_dropShadow"/><feColorMatrix in="SourceAlpha" values="0 0 0 0 0 0 0 0 0 0 0 0 0 0 0 0 0 0 127 0"/><feOffset dy="24"/><feGaussianBlur stdDeviation="22"/><feColorMatrix values="0 0 0 0 1 0 0 0 0 0.223529 0 0 0 0 0.317647 0 0 0 0.01 0"/><feBlend in2="effect1_dropShadow" result="effect2_dropShadow"/><feBlend in="SourceGraphic" in2="effect2_dropShadow" result="shape"/></filter><filter id="filter3_d" x="96.665" y="94.892" width="45.338" height="45.338" filterUnits="userSpaceOnUse" color-interpolation-filters="sRGB"><feFlood flood-opacity="0" result="BackgroundImageFix"/><feColorMatrix in="SourceAlpha" values="0 0 0 0 0 0 0 0 0 0 0 0 0 0 0 0 0 0 127 0"/><feOffset dy="1.006"/><feGaussianBlur stdDeviation="1.761"/><feColorMatrix values="0 0 0 0 1 0 0 0 0 0.223529 0 0 0 0 0.317647 0 0 0 0.42 0"/><feBlend in2="BackgroundImageFix" result="effect1_dropShadow"/><feBlend in="SourceGraphic" in2="effect1_dropShadow" result="shape"/></filter><filter id="filter4_d" x="157.871" y="359.688" width="126.979" height="56" filterUnits="userSpaceOnUse" color-interpolation-filters="sRGB"><feFlood flood-opacity="0" result="BackgroundImageFix"/><feColorMatrix in="SourceAlpha" values="0 0 0 0 0 0 0 0 0 0 0 0 0 0 0 0 0 0 127 0"/><feOffset dy="5"/><feGaussianBlur stdDeviation="6"/><feColorMatrix values="0 0 0 0 1 0 0 0 0 0.223529 0 0 0 0 0.317647 0 0 0 0.28 0"/><feBlend in2="BackgroundImageFix" result="effect1_dropShadow"/><feBlend in="SourceGraphic" in2="effect1_dropShadow" result="shape"/></filter><filter id="filter5_d" x="158.361" y="579.317" width="126" height="56" filterUnits="userSpaceOnUse" color-interpolation-filters="sRGB"><feFlood flood-opacity="0" result="BackgroundImageFix"/><feColorMatrix in="SourceAlpha" values="0 0 0 0 0 0 0 0 0 0 0 0 0 0 0 0 0 0 127 0"/><feOffset dy="5"/><feGaussianBlur stdDeviation="6"/><feColorMatrix values="0 0 0 0 1 0 0 0 0 0.223529 0 0 0 0 0.317647 0 0 0 0.28 0"/><feBlend in2="BackgroundImageFix" result="effect1_dropShadow"/><feBlend in="SourceGraphic" in2="effect1_dropShadow" result="shape"/></filter></defs></svg>