<svg width="612" height="620" fill="none" xmlns="http://www.w3.org/2000/svg"><g filter="url(#filter0_d)"><path d="M178.098 28.919l-74.201 13.084C88.49 44.719 78.202 59.41 80.919 74.818l13.183 74.768c2.717 15.407 17.409 25.694 32.816 22.977l74.201-13.083c15.407-2.717 25.695-17.409 22.978-32.816l-13.183-74.767c-2.717-15.407-17.409-25.695-32.816-22.978z" fill="#fff" fill-opacity=".01"/></g><path d="M178.098 28.919l-74.201 13.084C88.49 44.719 78.202 59.41 80.919 74.818l13.183 74.768c2.717 15.407 17.409 25.694 32.816 22.977l74.201-13.083c15.407-2.717 25.695-17.409 22.978-32.816l-13.183-74.767c-2.717-15.407-17.409-25.695-32.816-22.978z" fill="#fff"/><g filter="url(#filter1_d)"><path d="M192.198 84.384l-31.512 37.142a6.959 6.959 0 01-8.753 1.544l-42.315-24.125 31.512-37.143a6.959 6.959 0 018.753-1.543l42.315 24.125z" fill="#C6283B" fill-opacity=".01"/><path d="M149.883 60.26a6.943 6.943 0 00-4.654-.808l11.36 64.426a6.946 6.946 0 004.098-2.351l31.512-37.142-42.316-24.125z" fill="#C6283B" fill-opacity=".01"/><g filter="url(#filter2_d)"><path d="M186.172 93.599l-4.867-27.603c-.899-5.097-3.898-7.197-8.995-6.298l-52.448 9.248c-5.098.898-7.198 3.898-6.299 8.995l4.867 27.603 34.11 19.532a6.55 6.55 0 008.259-1.456l25.373-30.021z" fill="#fff" fill-opacity=".01"/><g filter="url(#filter3_d)"><path d="M156.842 82.42a2.862 2.862 0 00-.994-5.637l-27.08 4.775a2.862 2.862 0 00.994 5.636l27.08-4.775z" fill="#FF3951" fill-opacity=".01"/></g><g filter="url(#filter4_d)"><path d="M171.014 90.29a2.862 2.862 0 00-.994-5.636l-39.477 6.961a2.86 2.86 0 10.994 5.636l39.477-6.96z" fill="#FF3951" fill-opacity=".01"/></g></g><path d="M192.198 84.384l-31.513 37.143a6.959 6.959 0 01-8.753 1.543l-42.315-24.125 7.673 43.514a6.958 6.958 0 008.061 5.645l68.874-12.144a6.96 6.96 0 005.645-8.062l-7.672-43.514z" fill="#FF3951" fill-opacity=".01"/><path d="M160.684 121.527a6.948 6.948 0 01-4.098 2.351l3.201 18.154 34.437-6.072a6.96 6.96 0 005.645-8.062l-7.673-43.514-31.512 37.143z" fill="#FF3951" fill-opacity=".01"/><path d="M160.684 121.527a6.959 6.959 0 01-8.753 1.543l-4.449-2.537-27.108 26.567a6.934 6.934 0 004.976 1.004l68.874-12.144a6.931 6.931 0 004.333-2.646l-34.559-15.693-3.314 3.906z" fill="#FF3951" fill-opacity=".01"/><path d="M198.557 133.314l-34.559-15.693-3.313 3.906a6.954 6.954 0 01-4.098 2.351l3.201 18.154 34.437-6.072a6.929 6.929 0 004.332-2.646z" fill="#FF3951" fill-opacity=".01"/></g><path d="M192.199 84.384l-31.512 37.142a6.959 6.959 0 01-8.753 1.544l-42.315-24.125 31.512-37.143a6.959 6.959 0 018.753-1.543l42.315 24.125z" fill="#C6283B"/><path d="M149.884 60.26a6.943 6.943 0 00-4.654-.808l11.36 64.426a6.946 6.946 0 004.098-2.351L192.2 84.385 149.884 60.26z" fill="#C6283B"/><g filter="url(#filter5_d)"><path d="M186.173 93.599l-4.867-27.603c-.899-5.097-3.898-7.197-8.995-6.298l-52.448 9.248c-5.098.898-7.198 3.898-6.299 8.995l4.867 27.603 34.11 19.532a6.55 6.55 0 008.259-1.456l25.373-30.021z" fill="#fff" fill-opacity=".01"/></g><path d="M186.173 93.599l-4.867-27.603c-.899-5.097-3.898-7.197-8.995-6.298l-52.448 9.248c-5.098.898-7.198 3.898-6.299 8.995l4.867 27.603 34.11 19.532a6.55 6.55 0 008.259-1.456l25.373-30.021z" fill="#fff"/><g filter="url(#filter6_d)"><path d="M156.843 82.42a2.862 2.862 0 00-.994-5.637l-27.08 4.775a2.862 2.862 0 00.994 5.636l27.08-4.775z" fill="#FF3951" fill-opacity=".01"/></g><path d="M156.843 82.42a2.862 2.862 0 00-.994-5.637l-27.08 4.775a2.862 2.862 0 00.994 5.636l27.08-4.775z" fill="#FF3951"/><g filter="url(#filter7_d)"><path d="M171.015 90.29a2.862 2.862 0 00-.994-5.636l-39.477 6.961a2.862 2.862 0 10.994 5.636l39.477-6.96z" fill="#FF3951" fill-opacity=".01"/></g><path d="M171.015 90.29a2.862 2.862 0 00-.994-5.636l-39.477 6.961a2.862 2.862 0 10.994 5.636l39.477-6.96z" fill="#FF3951"/><path d="M192.199 84.384l-31.513 37.143a6.959 6.959 0 01-8.753 1.543l-42.315-24.125 7.673 43.514a6.958 6.958 0 008.061 5.645l68.874-12.144a6.96 6.96 0 005.645-8.062l-7.672-43.514z" fill="#FF3951"/><path d="M160.685 121.527a6.948 6.948 0 01-4.098 2.351l3.201 18.154 34.437-6.072a6.96 6.96 0 005.645-8.062l-7.673-43.514-31.512 37.143z" fill="#FF3951"/><path d="M160.685 121.527a6.959 6.959 0 01-8.753 1.543l-4.449-2.537-27.108 26.567a6.934 6.934 0 004.976 1.004l68.874-12.144a6.931 6.931 0 004.333-2.646l-34.559-15.693-3.314 3.906z" fill="#FF3951"/><path d="M198.558 133.314l-34.559-15.693-3.313 3.906a6.954 6.954 0 01-4.098 2.351l3.201 18.154 34.437-6.072a6.929 6.929 0 004.332-2.646z" fill="#FF3951"/><g filter="url(#filter8_d)"><path d="M227.124 379.581l-76.559-20.514c-18.138-4.86-36.782 5.904-41.642 24.042l-20.514 76.559c-4.86 18.138 5.904 36.781 24.042 41.641l76.559 20.514c18.138 4.86 36.781-5.904 41.641-24.041l20.514-76.56c4.86-18.138-5.903-36.781-24.041-41.641z" fill="#fff" fill-opacity=".01"/></g><path d="M227.124 379.581l-76.559-20.514c-18.138-4.86-36.782 5.904-41.642 24.042l-20.514 76.559c-4.86 18.138 5.904 36.781 24.042 41.641l76.559 20.514c18.138 4.86 36.781-5.904 41.641-24.041l20.514-76.56c4.86-18.138-5.903-36.781-24.041-41.641z" fill="#fff"/><g filter="url(#filter9_d)" fill="#FFC226" fill-opacity=".01"><path d="M130.602 426.233a4.855 4.855 0 10-9.379-2.513l-13.073 48.789a4.855 4.855 0 109.379 2.513l13.073-48.789zm26.733-14.258a4.855 4.855 0 10-9.379-2.513l-18.428 68.775a4.855 4.855 0 109.379 2.513l18.428-68.775zm16.025 25.715a4.855 4.855 0 10-9.379-2.513l-13.073 48.789a4.855 4.855 0 109.379 2.513l13.073-48.789zm28.073-19.258a4.855 4.855 0 00-9.379-2.514l-19.768 73.776a4.855 4.855 0 109.379 2.513l19.768-73.775zm26.943-10.867a4.855 4.855 0 10-9.379-2.513l-24.289 90.65a4.855 4.855 0 109.379 2.513l24.289-90.65z"/></g><path d="M130.602 426.233a4.855 4.855 0 10-9.379-2.513l-13.073 48.789a4.855 4.855 0 109.379 2.513l13.073-48.789zm26.733-14.258a4.855 4.855 0 10-9.379-2.513l-18.428 68.775a4.855 4.855 0 109.379 2.513l18.428-68.775zm16.025 25.715a4.855 4.855 0 10-9.379-2.513l-13.073 48.789a4.855 4.855 0 109.379 2.513l13.073-48.789zm28.073-19.258a4.855 4.855 0 00-9.379-2.514l-19.768 73.776a4.855 4.855 0 109.379 2.513l19.768-73.775zm26.943-10.867a4.855 4.855 0 10-9.379-2.513l-24.289 90.65a4.855 4.855 0 109.379 2.513l24.289-90.65z" fill="#FFC226"/><g filter="url(#filter10_d)"><g filter="url(#filter11_d)"><path d="M501.898 357.724l-64.738 14.554c-18.32 4.118-29.833 22.309-25.715 40.629l14.554 64.738c4.118 18.321 22.309 29.834 40.629 25.715l64.738-14.553c18.321-4.119 29.834-22.309 25.715-40.629l-14.553-64.739c-4.119-18.32-22.309-29.833-40.63-25.715z" fill="#fff" fill-opacity=".01"/></g></g><g filter="url(#filter12_d)"><path d="M501.898 357.724l-64.738 14.554c-18.32 4.118-29.833 22.309-25.715 40.629l14.554 64.738c4.118 18.321 22.309 29.834 40.629 25.715l64.738-14.553c18.321-4.119 29.834-22.309 25.715-40.629l-14.553-64.739c-4.119-18.32-22.309-29.833-40.63-25.715z" fill="#fff" fill-opacity=".01"/></g><path d="M501.898 357.724l-64.738 14.554c-18.32 4.118-29.833 22.309-25.715 40.629l14.554 64.738c4.118 18.321 22.309 29.834 40.629 25.715l64.738-14.553c18.321-4.119 29.834-22.309 25.715-40.629l-14.553-64.739c-4.119-18.32-22.309-29.833-40.63-25.715z" fill="#fff"/><path d="M501.982 358.095l-64.739 14.553c-18.115 4.073-29.5 22.06-25.427 40.175l14.553 64.739c4.073 18.115 22.06 29.5 40.176 25.427l64.738-14.553c18.116-4.073 29.5-22.06 25.427-40.176l-14.553-64.738c-4.073-18.116-22.06-29.5-40.175-25.427z" stroke="#EFF0F7" stroke-width=".76"/><path d="M526.597 407.676c12.629 23.379 3.913 52.569-19.466 65.197s-52.569 3.913-65.197-19.466-3.913-52.569 19.466-65.197c23.379-12.629 52.569-3.913 65.197 19.466zm-69.053 37.299c7.972 14.758 26.397 20.259 41.155 12.288 14.758-7.972 20.259-26.398 12.288-41.155-7.972-14.758-26.397-20.26-41.155-12.288-14.758 7.971-20.259 26.397-12.288 41.155z" fill="#F5F7FC"/><g filter="url(#filter13_d)"><path d="M518.679 411.953a39.117 39.117 0 01-9.945 49.102" stroke="#FF3951" stroke-opacity=".01" stroke-width="18" stroke-linecap="round"/></g><path d="M518.679 411.953a39.117 39.117 0 01-9.945 49.102" stroke="#FF3951" stroke-width="18" stroke-linecap="round"/><g filter="url(#filter14_d)"><path d="M470.119 392.857a40.26 40.26 0 0132.788 2.009 40.265 40.265 0 0120.372 25.769" stroke="#FF8139" stroke-width="15.722" stroke-linecap="round"/></g><g filter="url(#filter15_d)"><path d="M470.52 393.924a39.117 39.117 0 0144.428 12.36 39.128 39.128 0 017.227 14.631" stroke="#FF8139" stroke-opacity=".01" stroke-width="18" stroke-linecap="round"/></g><path d="M470.52 393.924a39.117 39.117 0 0144.428 12.36 39.128 39.128 0 017.227 14.631" stroke="#FF8139" stroke-width="18" stroke-linecap="round"/><g filter="url(#filter16_d)"><path d="M445.491 425.413a39.115 39.115 0 0142.018-33.849" stroke="#FFC226" stroke-opacity=".01" stroke-width="18" stroke-linecap="round"/></g><path d="M445.491 425.413a39.115 39.115 0 0142.018-33.849" stroke="#FFC226" stroke-width="18" stroke-linecap="round"/><defs><filter id="filter0_d" x="48.316" y=".337" width="208.384" height="208.851" filterUnits="userSpaceOnUse" color-interpolation-filters="sRGB"><feFlood flood-opacity="0" result="BackgroundImageFix"/><feColorMatrix in="SourceAlpha" values="0 0 0 0 0 0 0 0 0 0 0 0 0 0 0 0 0 0 127 0"/><feOffset dy="4.021"/><feGaussianBlur stdDeviation="16.084"/><feColorMatrix values="0 0 0 0 0.929167 0 0 0 0 0.361756 0 0 0 0 0.0425868 0 0 0 0.16 0"/><feBlend in2="BackgroundImageFix" result="effect1_dropShadow"/><feBlend in="SourceGraphic" in2="effect1_dropShadow" result="shape"/></filter><filter id="filter1_d" x="93.893" y="49.17" width="121.808" height="120.314" filterUnits="userSpaceOnUse" color-interpolation-filters="sRGB"><feFlood flood-opacity="0" result="BackgroundImageFix"/><feColorMatrix in="SourceAlpha" values="0 0 0 0 0 0 0 0 0 0 0 0 0 0 0 0 0 0 127 0"/><feOffset dy="5.55"/><feGaussianBlur stdDeviation="7.862"/><feColorMatrix values="0 0 0 0 1 0 0 0 0 0.223529 0 0 0 0 0.317647 0 0 0 0.41 0"/><feBlend in2="BackgroundImageFix" result="effect1_dropShadow"/><feBlend in="SourceGraphic" in2="effect1_dropShadow" result="shape"/></filter><filter id="filter2_d" x="110.586" y="56.721" width="78.361" height="71.997" filterUnits="userSpaceOnUse" color-interpolation-filters="sRGB"><feFlood flood-opacity="0" result="BackgroundImageFix"/><feColorMatrix in="SourceAlpha" values="0 0 0 0 0 0 0 0 0 0 0 0 0 0 0 0 0 0 127 0"/><feOffset/><feGaussianBlur stdDeviation="1.387"/><feColorMatrix values="0 0 0 0 1 0 0 0 0 0.223529 0 0 0 0 0.317647 0 0 0 0.04 0"/><feBlend in2="BackgroundImageFix" result="effect1_dropShadow"/><feBlend in="SourceGraphic" in2="effect1_dropShadow" result="shape"/></filter><filter id="filter3_d" x="122.633" y="73.894" width="40.344" height="18.039" filterUnits="userSpaceOnUse" color-interpolation-filters="sRGB"><feFlood flood-opacity="0" result="BackgroundImageFix"/><feColorMatrix in="SourceAlpha" values="0 0 0 0 0 0 0 0 0 0 0 0 0 0 0 0 0 0 127 0"/><feOffset dy=".925"/><feGaussianBlur stdDeviation="1.885"/><feColorMatrix values="0 0 0 0 1 0 0 0 0 0.223529 0 0 0 0 0.317647 0 0 0 0.33 0"/><feBlend in2="BackgroundImageFix" result="effect1_dropShadow"/><feBlend in="SourceGraphic" in2="effect1_dropShadow" result="shape"/></filter><filter id="filter4_d" x="124.408" y="81.765" width="52.741" height="20.225" filterUnits="userSpaceOnUse" color-interpolation-filters="sRGB"><feFlood flood-opacity="0" result="BackgroundImageFix"/><feColorMatrix in="SourceAlpha" values="0 0 0 0 0 0 0 0 0 0 0 0 0 0 0 0 0 0 127 0"/><feOffset dy=".925"/><feGaussianBlur stdDeviation="1.885"/><feColorMatrix values="0 0 0 0 1 0 0 0 0 0.223529 0 0 0 0 0.317647 0 0 0 0.33 0"/><feBlend in2="BackgroundImageFix" result="effect1_dropShadow"/><feBlend in="SourceGraphic" in2="effect1_dropShadow" result="shape"/></filter><filter id="filter5_d" x="110.587" y="56.721" width="78.361" height="71.997" filterUnits="userSpaceOnUse" color-interpolation-filters="sRGB"><feFlood flood-opacity="0" result="BackgroundImageFix"/><feColorMatrix in="SourceAlpha" values="0 0 0 0 0 0 0 0 0 0 0 0 0 0 0 0 0 0 127 0"/><feOffset/><feGaussianBlur stdDeviation="1.387"/><feColorMatrix values="0 0 0 0 1 0 0 0 0 0.223529 0 0 0 0 0.317647 0 0 0 0.04 0"/><feBlend in2="BackgroundImageFix" result="effect1_dropShadow"/><feBlend in="SourceGraphic" in2="effect1_dropShadow" result="shape"/></filter><filter id="filter6_d" x="122.634" y="73.894" width="40.344" height="18.039" filterUnits="userSpaceOnUse" color-interpolation-filters="sRGB"><feFlood flood-opacity="0" result="BackgroundImageFix"/><feColorMatrix in="SourceAlpha" values="0 0 0 0 0 0 0 0 0 0 0 0 0 0 0 0 0 0 127 0"/><feOffset dy=".925"/><feGaussianBlur stdDeviation="1.885"/><feColorMatrix values="0 0 0 0 1 0 0 0 0 0.223529 0 0 0 0 0.317647 0 0 0 0.33 0"/><feBlend in2="BackgroundImageFix" result="effect1_dropShadow"/><feBlend in="SourceGraphic" in2="effect1_dropShadow" result="shape"/></filter><filter id="filter7_d" x="124.409" y="81.765" width="52.741" height="20.225" filterUnits="userSpaceOnUse" color-interpolation-filters="sRGB"><feFlood flood-opacity="0" result="BackgroundImageFix"/><feColorMatrix in="SourceAlpha" values="0 0 0 0 0 0 0 0 0 0 0 0 0 0 0 0 0 0 127 0"/><feOffset dy=".925"/><feGaussianBlur stdDeviation="1.885"/><feColorMatrix values="0 0 0 0 1 0 0 0 0 0.223529 0 0 0 0 0.317647 0 0 0 0.33 0"/><feBlend in2="BackgroundImageFix" result="effect1_dropShadow"/><feBlend in="SourceGraphic" in2="effect1_dropShadow" result="shape"/></filter><filter id="filter8_d" x=".328" y="280.298" width="338.919" height="338.919" filterUnits="userSpaceOnUse" color-interpolation-filters="sRGB"><feFlood flood-opacity="0" result="BackgroundImageFix"/><feColorMatrix in="SourceAlpha" values="0 0 0 0 0 0 0 0 0 0 0 0 0 0 0 0 0 0 127 0"/><feOffset dy="9.312"/><feGaussianBlur stdDeviation="43.457"/><feColorMatrix values="0 0 0 0 0.6625 0 0 0 0 0.104896 0 0 0 0 0.172484 0 0 0 0.16 0"/><feBlend in2="BackgroundImageFix" result="effect1_dropShadow"/><feBlend in="SourceGraphic" in2="effect1_dropShadow" result="shape"/></filter><filter id="filter9_d" x="100.741" y="395.244" width="135.045" height="114.848" filterUnits="userSpaceOnUse" color-interpolation-filters="sRGB"><feFlood flood-opacity="0" result="BackgroundImageFix"/><feColorMatrix in="SourceAlpha" values="0 0 0 0 0 0 0 0 0 0 0 0 0 0 0 0 0 0 127 0"/><feOffset dy="1.035"/><feGaussianBlur stdDeviation="3.621"/><feColorMatrix values="0 0 0 0 1 0 0 0 0 0.760784 0 0 0 0 0.14902 0 0 0 0.32 0"/><feBlend in2="BackgroundImageFix" result="effect1_dropShadow"/><feBlend in="SourceGraphic" in2="effect1_dropShadow" result="shape"/></filter><filter id="filter10_d" x="356.61" y="316.889" width="255.306" height="255.306" filterUnits="userSpaceOnUse" color-interpolation-filters="sRGB"><feFlood flood-opacity="0" result="BackgroundImageFix"/><feColorMatrix in="SourceAlpha" values="0 0 0 0 0 0 0 0 0 0 0 0 0 0 0 0 0 0 127 0"/><feOffset dy="14"/><feGaussianBlur stdDeviation="27"/><feColorMatrix values="0 0 0 0 0.078875 0 0 0 0 0.0770833 0 0 0 0 0.166667 0 0 0 0.26 0"/><feBlend in2="BackgroundImageFix" result="effect1_dropShadow"/><feBlend in="SourceGraphic" in2="effect1_dropShadow" result="shape"/></filter><filter id="filter11_d" x="392.376" y="343.214" width="183.774" height="183.774" filterUnits="userSpaceOnUse" color-interpolation-filters="sRGB"><feFlood flood-opacity="0" result="BackgroundImageFix"/><feColorMatrix in="SourceAlpha" values="0 0 0 0 0 0 0 0 0 0 0 0 0 0 0 0 0 0 127 0"/><feOffset dy="4.558"/><feGaussianBlur stdDeviation="9.117"/><feColorMatrix values="0 0 0 0 0.078875 0 0 0 0 0.0770833 0 0 0 0 0.166667 0 0 0 0.03 0"/><feBlend in2="BackgroundImageFix" result="effect1_dropShadow"/><feBlend in="SourceGraphic" in2="effect1_dropShadow" result="shape"/></filter><filter id="filter12_d" x="385.754" y="336.592" width="197.018" height="197.018" filterUnits="userSpaceOnUse" color-interpolation-filters="sRGB"><feFlood flood-opacity="0" result="BackgroundImageFix"/><feColorMatrix in="SourceAlpha" values="0 0 0 0 0 0 0 0 0 0 0 0 0 0 0 0 0 0 127 0"/><feOffset dy="4.558"/><feGaussianBlur stdDeviation="9.117"/><feColorMatrix values="0 0 0 0 0.078875 0 0 0 0 0.0770833 0 0 0 0 0.166667 0 0 0 0.03 0"/><feBlend in2="BackgroundImageFix" result="effect1_dropShadow"/><feBlend in="SourceGraphic" in2="effect1_dropShadow" result="shape"/></filter><filter id="filter13_d" x="490.059" y="396.905" width="51.994" height="86.454" filterUnits="userSpaceOnUse" color-interpolation-filters="sRGB"><feFlood flood-opacity="0" result="BackgroundImageFix"/><feColorMatrix in="SourceAlpha" values="0 0 0 0 0 0 0 0 0 0 0 0 0 0 0 0 0 0 127 0"/><feOffset dy="3.628"/><feGaussianBlur stdDeviation="4.837"/><feColorMatrix values="0 0 0 0 1 0 0 0 0 0.223529 0 0 0 0 0.317647 0 0 0 0.16 0"/><feBlend in2="BackgroundImageFix" result="effect1_dropShadow"/><feBlend in="SourceGraphic" in2="effect1_dropShadow" result="shape"/></filter><filter id="filter14_d" x="457.418" y="380.01" width="78.561" height="55.744" filterUnits="userSpaceOnUse" color-interpolation-filters="sRGB"><feFlood flood-opacity="0" result="BackgroundImageFix"/><feColorMatrix in="SourceAlpha" values="0 0 0 0 0 0 0 0 0 0 0 0 0 0 0 0 0 0 127 0"/><feOffset dy="2.419"/><feGaussianBlur stdDeviation="2.419"/><feColorMatrix values="0 0 0 0 1 0 0 0 0 0.521569 0 0 0 0 0.219608 0 0 0 0.18 0"/><feBlend in2="BackgroundImageFix" result="effect1_dropShadow"/><feBlend in="SourceGraphic" in2="effect1_dropShadow" result="shape"/></filter><filter id="filter15_d" x="456.68" y="380.01" width="79.335" height="57.163" filterUnits="userSpaceOnUse" color-interpolation-filters="sRGB"><feFlood flood-opacity="0" result="BackgroundImageFix"/><feColorMatrix in="SourceAlpha" values="0 0 0 0 0 0 0 0 0 0 0 0 0 0 0 0 0 0 127 0"/><feOffset dy="2.419"/><feGaussianBlur stdDeviation="2.419"/><feColorMatrix values="0 0 0 0 1 0 0 0 0 0.521569 0 0 0 0 0.219608 0 0 0 0.18 0"/><feBlend in2="BackgroundImageFix" result="effect1_dropShadow"/><feBlend in="SourceGraphic" in2="effect1_dropShadow" result="shape"/></filter><filter id="filter16_d" x="431.652" y="380.01" width="69.695" height="61.66" filterUnits="userSpaceOnUse" color-interpolation-filters="sRGB"><feFlood flood-opacity="0" result="BackgroundImageFix"/><feColorMatrix in="SourceAlpha" values="0 0 0 0 0 0 0 0 0 0 0 0 0 0 0 0 0 0 127 0"/><feOffset dy="2.419"/><feGaussianBlur stdDeviation="2.419"/><feColorMatrix values="0 0 0 0 1 0 0 0 0 0.760784 0 0 0 0 0.14902 0 0 0 0.18 0"/><feBlend in2="BackgroundImageFix" result="effect1_dropShadow"/><feBlend in="SourceGraphic" in2="effect1_dropShadow" result="shape"/></filter></defs></svg>