<svg xmlns="http://www.w3.org/2000/svg" width="498" height="348" fill="none"><rect x="35" y="35" width="462" height="312" rx="16" fill="#fff" stroke="#E6E7EA" stroke-width="2"/><path opacity=".6" d="M89.837 133h1.86l-3.084-8.004h-2.136L83.381 133h1.872l.504-1.38h3.576l.504 1.38zm-2.292-6.528l1.32 3.672h-2.652l1.332-3.672zM97.957 133H99.6v-8.004h-1.704v5.184l-3.709-5.184h-1.752V133h1.704v-5.376L97.958 133zm3.222 0h3.156c2.508 0 4.248-1.584 4.248-3.996s-1.74-4.008-4.248-4.008h-3.156V133zm1.704-1.5v-5.004h1.452c1.644 0 2.508 1.092 2.508 2.508 0 1.356-.924 2.496-2.508 2.496h-1.452z" fill="#666D80"/><path fill-rule="evenodd" clip-rule="evenodd" d="M116.249 128.495c-.5-.498-.249-1.495.75-1.495h3.996c1.004 0 1.256.995.754 1.495l-2 2.205c-.45.4-1.05.4-1.497 0l-2.003-2.205z" fill="#E6E7EA"/><path opacity=".6" d="M89.837 265h1.86l-3.084-8.004h-2.136L83.381 265h1.872l.504-1.38h3.576l.504 1.38zm-2.292-6.528l1.32 3.672h-2.652l1.332-3.672zM97.957 265H99.6v-8.004h-1.704v5.184l-3.709-5.184h-1.752V265h1.704v-5.376L97.958 265zm3.222 0h3.156c2.508 0 4.248-1.584 4.248-3.996s-1.74-4.008-4.248-4.008h-3.156V265zm1.704-1.5v-5.004h1.452c1.644 0 2.508 1.092 2.508 2.508 0 1.356-.924 2.496-2.508 2.496h-1.452z" fill="#666D80"/><path fill-rule="evenodd" clip-rule="evenodd" d="M116.249 260.495c-.5-.498-.249-1.495.75-1.495h3.996c1.004 0 1.256.995.754 1.495l-2 2.205c-.45.4-1.05.4-1.497 0l-2.003-2.205z" fill="#E6E7EA"/><rect x="67" y="67" width="398" height="36" rx="8" fill="#fff" stroke="#E6E7EA" stroke-width="2"/><rect x="145" y="111" width="320" height="36" rx="8" fill="#fff" stroke="#E6E7EA" stroke-width="2"/><path fill-rule="evenodd" clip-rule="evenodd" d="M443.249 128.495c-.5-.498-.249-1.495.75-1.495h3.996c1.004 0 1.256.995.754 1.495l-2 2.205c-.45.4-1.05.4-1.497 0l-2.003-2.205z" fill="#E6E7EA"/><path d="M185.363 130.789c.143 1.199.968 2.365 2.992 2.365 1.859 0 3.091-.99 3.091-2.387 0-3.102-4.18-1.87-4.18-3.432 0-.506.484-.88 1.243-.88.836 0 1.32.495 1.353 1.177l1.551-.286c-.165-1.287-1.177-2.321-2.882-2.321-1.804 0-2.849 1.089-2.849 2.409 0 3.058 4.136 1.848 4.136 3.388 0 .572-.517.902-1.375.902-1.012 0-1.463-.561-1.529-1.254l-1.551.319zm9.05 2.211v-3.223h3.41v-1.474h-3.41v-1.639h3.575v-1.474h-5.181V133h1.606zm7.527 0c2.662 0 4.114-1.639 4.114-3.905s-1.452-3.905-4.114-3.905h-2.805V133h2.805zm2.42-3.905c0 1.463-.759 2.431-2.464 2.431h-1.155v-4.862h1.155c1.705 0 2.464.968 2.464 2.431zm2.619-.011c0 2.442 1.683 4.059 3.927 4.059 1.826 0 3.3-1.023 3.718-2.717l-1.65-.341c-.231.979-1.023 1.529-2.068 1.529-1.43 0-2.233-.99-2.233-2.53 0-1.54.803-2.53 2.233-2.53 1.045 0 1.837.55 2.068 1.529l1.65-.341c-.418-1.694-1.892-2.717-3.718-2.717-2.244 0-3.927 1.617-3.927 4.059zm9.454 4.004c.605 0 1.056-.429 1.056-1.045a1.03 1.03 0 00-1.056-1.056c-.616 0-1.056.451-1.056 1.056 0 .616.44 1.045 1.056 1.045zm0-3.839c.605 0 1.056-.429 1.056-1.045a1.03 1.03 0 00-1.056-1.056c-.616 0-1.056.451-1.056 1.056 0 .616.44 1.045 1.056 1.045zm4.648 1.54c.143 1.199.968 2.365 2.992 2.365 1.859 0 3.091-.99 3.091-2.387 0-3.102-4.18-1.87-4.18-3.432 0-.506.484-.88 1.243-.88.836 0 1.32.495 1.353 1.177l1.551-.286c-.165-1.287-1.177-2.321-2.882-2.321-1.804 0-2.849 1.089-2.849 2.409 0 3.058 4.136 1.848 4.136 3.388 0 .572-.517.902-1.375.902-1.012 0-1.463-.561-1.529-1.254l-1.551.319zm11.063.33c-.209.462-.627.671-1.144.671-.781 0-1.287-.429-1.397-1.221h4.18s.022-.209.022-.462c0-1.705-1.155-3.003-2.86-3.003-1.705 0-2.893 1.298-2.893 3.003 0 1.771 1.199 3.025 2.904 3.025 1.331 0 2.211-.671 2.629-1.683l-1.441-.33zm-1.21-2.761c.726 0 1.199.44 1.309 1.089h-2.618c.132-.66.594-1.089 1.309-1.089zm3.817.847c0 .517.154.979.44 1.331-.308.231-.605.616-.605 1.177 0 .22.077.737.539 1.067-.374.22-.715.616-.715 1.166 0 .979.737 1.584 2.64 1.584 2.112 0 3.058-.858 3.058-2.013 0-.979-.616-1.716-1.98-1.716h-1.892a.356.356 0 01-.352-.363c0-.198.132-.33.132-.33s.352.209 1.078.209c1.441 0 2.343-.891 2.343-2.112 0-.33-.066-.638-.187-.902v-.11c0-.374.341-.506.539-.506.242 0 .264.022.264.033v-1.221s-.022-.033-.33-.033c-.671 0-1.221.319-1.419.869-.33-.154-.77-.242-1.21-.242-1.441 0-2.343.968-2.343 2.112zm3.289 3.971c.506 0 .649.176.649.451 0 .385-.407.66-1.562.66-.968 0-1.287-.242-1.287-.671 0-.154.077-.33.308-.44h1.892zm-.946-3.069c-.572 0-.979-.341-.979-.902 0-.561.374-.902.979-.902s.979.341.979.902c0 .561-.407.902-.979.902zm8.92-.385c0-.803.385-1.276 1.122-1.276.693 0 .924.495.924 1.133V133h1.562v-3.597c0-1.342-.704-2.299-2.09-2.299-.825 0-1.408.253-1.914.814-.33-.506-.891-.814-1.672-.814-.825 0-1.397.341-1.661.836v-.704h-1.441V133h1.562v-3.311c0-.77.396-1.243 1.122-1.243.693 0 .924.495.924 1.133V133h1.562v-3.278zm8.71 1.397c-.209.462-.627.671-1.144.671-.781 0-1.287-.429-1.397-1.221h4.18s.022-.209.022-.462c0-1.705-1.155-3.003-2.86-3.003-1.705 0-2.893 1.298-2.893 3.003 0 1.771 1.199 3.025 2.904 3.025 1.331 0 2.211-.671 2.629-1.683l-1.441-.33zm-1.21-2.761c.726 0 1.199.44 1.309 1.089h-2.618c.132-.66.594-1.089 1.309-1.089zm5.368-1.122h-1.441V133h1.562v-3.3c0-.77.418-1.254 1.177-1.254.693 0 .979.462.979 1.133V133h1.562v-3.597c0-1.375-.737-2.299-2.123-2.299-.858 0-1.452.341-1.716.836v-.704zm7.925 4.378s-.154.055-.363.055c-.407 0-.583-.176-.583-.561v-2.64h.957v-1.232h-.957v-1.43h-1.562v1.43h-.781v1.232h.781v2.805c0 1.111.506 1.76 1.771 1.76.473 0 .737-.066.737-.066v-1.353zm4.463-5.599c.319 0 .561-.22.561-.539a.543.543 0 00-.561-.561.537.537 0 00-.561.561c0 .319.231.539.561.539zm-.396 6.985h.781v-5.599h-.781V133zm2.201-1.584c.121.913.759 1.716 2.288 1.716 1.518 0 2.233-.803 2.233-1.65 0-2.354-3.443-1.045-3.443-2.596 0-.506.429-.935 1.298-.935.891 0 1.309.484 1.375 1.089l.748-.253c-.154-.715-.715-1.518-2.101-1.518-1.331 0-2.079.792-2.079 1.65 0 2.299 3.443.979 3.443 2.585 0 .561-.528.946-1.474.946-.957 0-1.441-.473-1.507-1.177l-.781.143zm14.395.11h-4.015v-1.749h3.85v-1.474h-3.85v-1.639h4.015v-1.474h-5.621V133h5.621v-1.474zm2.704-4.29h-1.441V133h1.562v-3.3c0-.77.418-1.254 1.177-1.254.693 0 .979.462.979 1.133V133h1.562v-3.597c0-1.375-.737-2.299-2.123-2.299-.858 0-1.452.341-1.716.836v-.704zm7.925 4.378s-.154.055-.363.055c-.407 0-.583-.176-.583-.561v-2.64h.957v-1.232h-.957v-1.43h-1.562v1.43h-.781v1.232h.781v2.805c0 1.111.506 1.76 1.771 1.76.473 0 .737-.066.737-.066v-1.353zm4.578-.495c-.209.462-.627.671-1.144.671-.781 0-1.287-.429-1.397-1.221h4.18s.022-.209.022-.462c0-1.705-1.155-3.003-2.86-3.003-1.705 0-2.893 1.298-2.893 3.003 0 1.771 1.199 3.025 2.904 3.025 1.331 0 2.211-.671 2.629-1.683l-1.441-.33zm-1.21-2.761c.726 0 1.199.44 1.309 1.089h-2.618c.132-.66.594-1.089 1.309-1.089zm7.183-1.166s-.132-.011-.187-.011c-.979 0-1.419.462-1.628.803v-.748h-1.441V133h1.562v-2.871c0-1.056.473-1.507 1.386-1.507.143 0 .308.033.308.033v-1.463zm2.409 5.192c.297.396.891.748 1.705.748 1.672 0 2.651-1.342 2.651-3.014 0-1.672-.979-3.014-2.651-3.014-.814 0-1.463.308-1.826.836v-.704h-1.441v8.052h1.562v-2.904zm-.044-2.266c0-.935.55-1.639 1.419-1.639s1.419.704 1.419 1.639-.55 1.639-1.419 1.639-1.419-.704-1.419-1.639zm8.721-2.926s-.132-.011-.187-.011c-.979 0-1.419.462-1.628.803v-.748h-1.441V133h1.562v-2.871c0-1.056.473-1.507 1.386-1.507.143 0 .308.033.308.033v-1.463zm1.628-.704c.55 0 .946-.385.946-.935s-.396-.946-.946-.946c-.55 0-.946.396-.946.946 0 .55.396.935.946.935zm-.781 6.512h1.562v-5.764h-1.562V133zm2.557-1.683c.132.99.781 1.815 2.475 1.815 1.562 0 2.442-.814 2.442-1.848 0-2.365-3.168-1.397-3.168-2.365 0-.319.286-.561.792-.561.561 0 .847.33.88.748l1.474-.275c-.132-.803-.759-1.727-2.343-1.727-1.419 0-2.31.858-2.31 1.903 0 2.288 3.179 1.375 3.179 2.343 0 .319-.308.528-.902.528-.649 0-.935-.363-.968-.781l-1.551.22zm9.68-.198c-.209.462-.627.671-1.144.671-.781 0-1.287-.429-1.397-1.221h4.18s.022-.209.022-.462c0-1.705-1.155-3.003-2.86-3.003-1.705 0-2.893 1.298-2.893 3.003 0 1.771 1.199 3.025 2.904 3.025 1.331 0 2.211-.671 2.629-1.683l-1.441-.33zm-1.21-2.761c.726 0 1.199.44 1.309 1.089h-2.618c.132-.66.594-1.089 1.309-1.089z" fill="#666D80"/><path fill-rule="evenodd" clip-rule="evenodd" d="M171.5 135h-9c-.825 0-1.5-.675-1.5-1.5v-9c0-.825.675-1.5 1.5-1.5h9c.825 0 1.5.675 1.5 1.5v9c0 .825-.675 1.5-1.5 1.5zm0-10.5h-9v9h9v-9zm-7.35 4.125l2.4 2.4c.225.3.675.3.975 0l2.325-2.4a.789.789 0 000-.975c-.3-.3-.75-.3-.975 0L167 129.6l-1.875-1.95c-.3-.3-.75-.3-.975 0a.789.789 0 000 .975z" fill="#666D80" opacity=".6"/><rect x="145" y="243" width="320" height="36" rx="8" fill="#fff" stroke="#E6E7EA" stroke-width="2"/><path fill-rule="evenodd" clip-rule="evenodd" d="M443.249 260.495c-.5-.498-.249-1.495.75-1.495h3.996c1.004 0 1.256.995.754 1.495l-2 2.205c-.45.4-1.05.4-1.497 0l-2.003-2.205z" fill="#E6E7EA"/><path d="M192.293 265l-1.705-3.135c.913-.374 1.386-1.199 1.386-2.233 0-1.43-.902-2.442-2.607-2.442h-3.542V265h1.606v-2.959h1.54l1.463 2.959h1.859zm-1.925-5.368c0 .572-.33.935-1.001.935h-1.936v-1.903h1.936c.671 0 1.001.396 1.001.968zm6.488 3.487c-.209.462-.627.671-1.144.671-.781 0-1.287-.429-1.397-1.221h4.18s.022-.209.022-.462c0-1.705-1.155-3.003-2.86-3.003-1.705 0-2.893 1.298-2.893 3.003 0 1.771 1.199 3.025 2.904 3.025 1.331 0 2.211-.671 2.629-1.683l-1.441-.33zm-1.21-2.761c.726 0 1.199.44 1.309 1.089h-2.618c.132-.66.594-1.089 1.309-1.089zm3.816.847c0 .517.154.979.44 1.331-.308.231-.605.616-.605 1.177 0 .22.077.737.539 1.067-.374.22-.715.616-.715 1.166 0 .979.737 1.584 2.64 1.584 2.112 0 3.058-.858 3.058-2.013 0-.979-.616-1.716-1.98-1.716h-1.892a.356.356 0 01-.352-.363c0-.198.132-.33.132-.33s.352.209 1.078.209c1.441 0 2.343-.891 2.343-2.112 0-.33-.066-.638-.187-.902v-.11c0-.374.341-.506.539-.506.242 0 .264.022.264.033v-1.221s-.022-.033-.33-.033c-.671 0-1.221.319-1.419.869-.33-.154-.77-.242-1.21-.242-1.441 0-2.343.968-2.343 2.112zm3.289 3.971c.506 0 .649.176.649.451 0 .385-.407.66-1.562.66-.968 0-1.287-.242-1.287-.671 0-.154.077-.33.308-.44h1.892zm-.946-3.069c-.572 0-.979-.341-.979-.902 0-.561.374-.902.979-.902s.979.341.979.902c0 .561-.407.902-.979.902zm4.532-3.619c.55 0 .946-.385.946-.935s-.396-.946-.946-.946c-.55 0-.946.396-.946.946 0 .55.396.935.946.935zm-.781 6.512h1.562v-5.764h-1.562V265zm5.659.132c1.848 0 3.025-1.375 3.025-3.014 0-1.639-1.177-3.014-3.025-3.014-1.848 0-3.025 1.375-3.025 3.014 0 1.639 1.177 3.014 3.025 3.014zm-1.463-3.014c0-1.034.638-1.639 1.463-1.639.825 0 1.463.605 1.463 1.639s-.638 1.639-1.463 1.639c-.825 0-1.463-.605-1.463-1.639zm6.999-2.882h-1.441V265h1.562v-3.3c0-.77.418-1.254 1.177-1.254.693 0 .979.462.979 1.133V265h1.562v-3.597c0-1.375-.737-2.299-2.123-2.299-.858 0-1.452.341-1.716.836v-.704zm8.714-1.221c.319 0 .561-.22.561-.539a.543.543 0 00-.561-.561.537.537 0 00-.561.561c0 .319.231.539.561.539zm-.396 6.985h.781v-5.599h-.781V265zm2.201-1.584c.121.913.759 1.716 2.288 1.716 1.518 0 2.233-.803 2.233-1.65 0-2.354-3.443-1.045-3.443-2.596 0-.506.429-.935 1.298-.935.891 0 1.309.484 1.375 1.089l.748-.253c-.154-.715-.715-1.518-2.101-1.518-1.331 0-2.079.792-2.079 1.65 0 2.299 3.443.979 3.443 2.585 0 .561-.528.946-1.474.946-.957 0-1.441-.473-1.507-1.177l-.781.143zm10.337-3.575l3.41 5.159h1.617v-7.81h-1.562v5.159l-3.41-5.159h-1.617V265h1.562v-5.159zm14.432 1.254c0-2.343-1.694-4.07-4.059-4.07s-4.059 1.727-4.059 4.07 1.694 4.07 4.059 4.07 4.059-1.727 4.059-4.07zm-1.694 0c0 1.54-.979 2.541-2.365 2.541-1.386 0-2.365-1.001-2.365-2.541s.979-2.541 2.365-2.541c1.386 0 2.365 1.001 2.365 2.541zm3.573 3.905l.473-1.342h3.212l.473 1.342h1.727l-2.937-7.81h-1.694l-2.937 7.81h1.683zm2.09-5.83l1.078 3.047h-2.178l1.078-3.047h.022zm6.067-1.98h-1.474V265h1.54v-5.324l2.2 2.827h.044l2.2-2.827V265h1.54v-7.81h-1.474l-2.288 3.025-2.288-3.025z" fill="#666D80"/><path fill-rule="evenodd" clip-rule="evenodd" d="M171.5 267h-9c-.825 0-1.5-.675-1.5-1.5v-9c0-.825.675-1.5 1.5-1.5h9c.825 0 1.5.675 1.5 1.5v9c0 .825-.675 1.5-1.5 1.5zm0-10.5h-9v9h9v-9zm-7.35 4.125l2.4 2.4c.225.3.675.3.975 0l2.325-2.4a.789.789 0 000-.975c-.3-.3-.75-.3-.975 0L167 261.6l-1.875-1.95c-.3-.3-.75-.3-.975 0a.789.789 0 000 .975z" fill="#666D80" opacity=".6"/><rect x="211" y="155" width="254" height="36" rx="8" fill="#fff" stroke="#E6E7EA" stroke-width="2"/><path fill-rule="evenodd" clip-rule="evenodd" d="M443.249 172.495c-.5-.498-.249-1.495.75-1.495h3.996c1.004 0 1.256.995.754 1.495l-2 2.205c-.45.4-1.05.4-1.497 0l-2.003-2.205z" fill="#E6E7EA"/><path d="M251.462 173.084c0 2.442 1.683 4.059 3.927 4.059 1.826 0 3.3-1.023 3.718-2.717l-1.65-.341c-.231.979-1.023 1.529-2.068 1.529-1.43 0-2.233-.99-2.233-2.53 0-1.54.803-2.53 2.233-2.53 1.045 0 1.837.55 2.068 1.529l1.65-.341c-.418-1.694-1.892-2.717-3.718-2.717-2.244 0-3.927 1.617-3.927 4.059zm11.401 4.048c1.848 0 3.025-1.375 3.025-3.014 0-1.639-1.177-3.014-3.025-3.014-1.848 0-3.025 1.375-3.025 3.014 0 1.639 1.177 3.014 3.025 3.014zm-1.463-3.014c0-1.034.638-1.639 1.463-1.639.825 0 1.463.605 1.463 1.639s-.638 1.639-1.463 1.639c-.825 0-1.463-.605-1.463-1.639zm10.728-.396c0-.803.385-1.276 1.122-1.276.693 0 .924.495.924 1.133V177h1.562v-3.597c0-1.342-.704-2.299-2.09-2.299-.825 0-1.408.253-1.914.814-.33-.506-.891-.814-1.672-.814-.825 0-1.397.341-1.661.836v-.704h-1.441V177h1.562v-3.311c0-.77.396-1.243 1.122-1.243.693 0 .924.495.924 1.133V177h1.562v-3.278zm6.544 2.662c.297.396.891.748 1.705.748 1.672 0 2.651-1.342 2.651-3.014 0-1.672-.979-3.014-2.651-3.014-.814 0-1.463.308-1.826.836v-.704h-1.441v8.052h1.562v-2.904zm-.044-2.266c0-.935.55-1.639 1.419-1.639s1.419.704 1.419 1.639-.55 1.639-1.419 1.639-1.419-.704-1.419-1.639zm6.806-.979c.066-.462.374-.748 1.067-.748.704 0 1.045.286 1.045.847v.044l-1.529.253c-1.54.253-2.244.902-2.244 1.903 0 .935.627 1.694 2.024 1.694.902 0 1.529-.275 1.991-.77.253.561.77.715 1.309.715.286 0 .407-.044.407-.044v-1.188s-.044.011-.165.011c-.209 0-.308-.132-.308-.374v-2.233c0-1.342-.836-2.145-2.53-2.145-1.683 0-2.398.847-2.563 1.76l1.496.275zm2.112 1.254v.209c0 .792-.484 1.32-1.397 1.32-.66 0-.869-.242-.869-.605 0-.352.253-.55.891-.671l1.375-.253zm4.379-3.157h-1.441V177h1.562v-3.3c0-.77.418-1.254 1.177-1.254.693 0 .979.462.979 1.133V177h1.562v-3.597c0-1.375-.737-2.299-2.123-2.299-.858 0-1.452.341-1.716.836v-.704zm6.534 5.676l-.121.286c-.308.748-.693.858-1.155.858-.176 0-.297-.022-.297-.022v1.342s.253.033.473.033c1.045 0 1.815-.495 2.398-1.936l2.497-6.237h-1.628l-1.397 3.85-1.386-3.85h-1.661l2.277 5.676zm6.924-1.595c.132.99.781 1.815 2.475 1.815 1.562 0 2.442-.814 2.442-1.848 0-2.365-3.168-1.397-3.168-2.365 0-.319.286-.561.792-.561.561 0 .847.33.88.748l1.474-.275c-.132-.803-.759-1.727-2.343-1.727-1.419 0-2.31.858-2.31 1.903 0 2.288 3.179 1.375 3.179 2.343 0 .319-.308.528-.902.528-.649 0-.935-.363-.968-.781l-1.551.22zm6.732-4.829c.55 0 .946-.385.946-.935s-.396-.946-.946-.946c-.55 0-.946.396-.946.946 0 .55.396.935.946.935zm-.781 6.512h1.562v-5.764h-1.562V177zm7.683-4.477v-1.287h-4.807v1.353h2.838l-2.882 3.124V177h4.895v-1.353h-2.937l2.893-3.124zm4.726 2.596c-.209.462-.627.671-1.144.671-.781 0-1.287-.429-1.397-1.221h4.18s.022-.209.022-.462c0-1.705-1.155-3.003-2.86-3.003-1.705 0-2.893 1.298-2.893 3.003 0 1.771 1.199 3.025 2.904 3.025 1.331 0 2.211-.671 2.629-1.683l-1.441-.33zm-1.21-2.761c.726 0 1.199.44 1.309 1.089h-2.618c.132-.66.594-1.089 1.309-1.089zm7.422-2.343c.319 0 .561-.22.561-.539a.543.543 0 00-.561-.561.537.537 0 00-.561.561c0 .319.231.539.561.539zm-.396 6.985h.781v-5.599h-.781V177zm2.201-1.584c.121.913.759 1.716 2.288 1.716 1.518 0 2.233-.803 2.233-1.65 0-2.354-3.443-1.045-3.443-2.596 0-.506.429-.935 1.298-.935.891 0 1.309.484 1.375 1.089l.748-.253c-.154-.715-.715-1.518-2.101-1.518-1.331 0-2.079.792-2.079 1.65 0 2.299 3.443.979 3.443 2.585 0 .561-.528.946-1.474.946-.957 0-1.441-.473-1.507-1.177l-.781.143zm11.04-.077c1.386 0 2.233-.869 2.233-2.035 0-.319-.066-.605-.187-.869a1.27 1.27 0 01-.066-.418c0-.396.297-.638.682-.638.187 0 .308.011.308.011v-.715c-.022 0-.11-.011-.286-.011-.66 0-1.199.374-1.353.957-.352-.22-.803-.352-1.331-.352-1.386 0-2.233.869-2.233 2.035 0 .583.209 1.089.594 1.452-.341.176-.748.506-.748 1.122 0 .451.187.77.484.968-.165.099-.627.451-.627 1.111 0 .99.726 1.54 2.596 1.54 1.958 0 2.695-.825 2.695-1.694 0-.825-.495-1.43-1.793-1.43h-2.035c-.407 0-.583-.242-.583-.55 0-.517.506-.693.539-.704.319.143.693.22 1.111.22zm0-.682c-.913 0-1.474-.517-1.474-1.353s.561-1.353 1.474-1.353c.913 0 1.474.517 1.474 1.353s-.561 1.353-1.474 1.353zm1.045 2.442c.528 0 .957.176.957.704 0 .605-.594.957-1.936.957-1.276 0-1.837-.264-1.837-.88a.85.85 0 01.539-.781h2.277zm5.694-5.742s-.132-.011-.187-.011c-1.034 0-1.584.539-1.793.924v-.869h-.748V177h.781v-3.179c0-1.166.715-1.738 1.672-1.738.143 0 .275.011.275.011v-.737zm5.006 3.905c-.286.693-.913 1.166-1.771 1.166-1.177 0-1.914-.869-1.991-2.002h4.653s.011-.176.011-.297c0-1.584-1.023-2.86-2.695-2.86-1.683 0-2.75 1.375-2.75 2.926 0 1.573.99 2.937 2.761 2.937 1.199 0 2.068-.66 2.464-1.573l-.682-.297zm-1.793-3.289c1.1 0 1.815.737 1.914 1.815h-3.861c.132-1.034.858-1.815 1.947-1.815zm6.289-.033c1.056 0 1.584.473 1.584 1.419v.154l-1.958.253c-1.452.187-2.112.792-2.112 1.694 0 1.012.627 1.672 1.958 1.672.913 0 1.727-.374 2.156-1.001.088.561.55.891 1.056.891.242 0 .352-.033.352-.033v-.649s-.044.022-.198.022c-.308 0-.473-.187-.473-.539v-2.453c0-1.243-.715-2.101-2.332-2.101-1.474 0-2.167.704-2.354 1.628l.737.154c.154-.792.759-1.111 1.584-1.111zm1.584 2.189v.649c0 .792-.671 1.705-2.002 1.705-.627 0-1.298-.22-1.298-1.023 0-.561.374-.935 1.441-1.078l1.859-.253zm4.855 2.134s-.253.055-.495.055c-.539 0-.77-.286-.77-.88v-3.377h1.287v-.66h-1.287v-1.595h-.781v1.595h-1.067v.66h1.067v3.432c0 1.012.506 1.529 1.452 1.529.396 0 .594-.055.594-.055v-.704zm5.286-1.001c-.286.693-.913 1.166-1.771 1.166-1.177 0-1.914-.869-1.991-2.002h4.653s.011-.176.011-.297c0-1.584-1.023-2.86-2.695-2.86-1.683 0-2.75 1.375-2.75 2.926 0 1.573.99 2.937 2.761 2.937 1.199 0 2.068-.66 2.464-1.573l-.682-.297zm-1.793-3.289c1.1 0 1.815.737 1.914 1.815h-3.861c.132-1.034.858-1.815 1.947-1.815zm6.916-.616s-.132-.011-.187-.011c-1.034 0-1.584.539-1.793.924v-.869h-.748V177h.781v-3.179c0-1.166.715-1.738 1.672-1.738.143 0 .275.011.275.011v-.737zm6.263 4.906s-.253.055-.495.055c-.539 0-.77-.286-.77-.88v-3.377h1.287v-.66h-1.287v-1.595h-.781v1.595h-1.067v.66h1.067v3.432c0 1.012.506 1.529 1.452 1.529.396 0 .594-.055.594-.055v-.704zm2.06-7.513h-.781V177h.781v-3.311c0-1.144.737-1.738 1.683-1.738 1.001 0 1.474.616 1.474 1.628V177h.781v-3.575c0-1.243-.737-2.156-2.123-2.156-1.045 0-1.617.572-1.815.913v-3.432zm7.894 3.19c1.056 0 1.584.473 1.584 1.419v.154l-1.958.253c-1.452.187-2.112.792-2.112 1.694 0 1.012.627 1.672 1.958 1.672.913 0 1.727-.374 2.156-1.001.088.561.55.891 1.056.891.242 0 .352-.033.352-.033v-.649s-.044.022-.198.022c-.308 0-.473-.187-.473-.539v-2.453c0-1.243-.715-2.101-2.332-2.101-1.474 0-2.167.704-2.354 1.628l.737.154c.154-.792.759-1.111 1.584-1.111zm1.584 2.189v.649c0 .792-.671 1.705-2.002 1.705-.627 0-1.298-.22-1.298-1.023 0-.561.374-.935 1.441-1.078l1.859-.253zm3.444-2.728h-.748V177h.781v-3.333c0-1.122.737-1.716 1.683-1.716 1.001 0 1.474.616 1.474 1.628V177h.781v-3.575c0-1.243-.737-2.156-2.123-2.156-1.089 0-1.65.627-1.848.99v-.858zm13.589 4.279h-1.661v-6.49h-1.298l-1.936.539v1.045h1.628v4.906h-1.661V177h4.928v-1.32zm3.741 1.485c1.903 0 2.838-1.705 2.838-4.07s-.935-4.07-2.838-4.07-2.838 1.705-2.838 4.07.935 4.07 2.838 4.07zm0-6.622c.814 0 1.21.781 1.21 2.552s-.396 2.552-1.21 2.552-1.21-.781-1.21-2.552.396-2.552 1.21-2.552zm6.402 6.622c1.903 0 2.838-1.705 2.838-4.07s-.935-4.07-2.838-4.07-2.838 1.705-2.838 4.07.935 4.07 2.838 4.07zm0-6.622c.814 0 1.21.781 1.21 2.552s-.396 2.552-1.21 2.552-1.21-.781-1.21-2.552.396-2.552 1.21-2.552zm6.402 6.622c1.903 0 2.838-1.705 2.838-4.07s-.935-4.07-2.838-4.07-2.838 1.705-2.838 4.07.935 4.07 2.838 4.07zm0-6.622c.814 0 1.21.781 1.21 2.552s-.396 2.552-1.21 2.552-1.21-.781-1.21-2.552.396-2.552 1.21-2.552z" fill="#666D80"/><path fill-rule="evenodd" clip-rule="evenodd" d="M238.25 174.5H236v-3h2.25c.45 0 .75-.3.75-.75s-.3-.75-.75-.75H236v-2.25c0-.45-.3-.75-.75-.75s-.75.3-.75.75V170h-3v-2.25c0-.45-.3-.75-.75-.75s-.75.3-.75.75V170h-2.25c-.45 0-.75.3-.75.75s.3.75.75.75H230v3h-2.25c-.45 0-.75.3-.75.75s.3.75.75.75H230v2.25c0 .45.3.75.75.75s.75-.3.75-.75V176h3v2.25c0 .45.3.75.75.75s.75-.3.75-.75V176h2.25c.45 0 .75-.3.75-.75s-.3-.75-.75-.75zm-6.75 0v-3h3v3h-3z" fill="#666D80" opacity=".6"/><rect x="211" y="199" width="254" height="36" rx="8" fill="#fff" stroke="#E6E7EA" stroke-width="2"/><path fill-rule="evenodd" clip-rule="evenodd" d="M443.249 216.495c-.5-.498-.249-1.495.75-1.495h3.996c1.004 0 1.256.995.754 1.495l-2 2.205c-.45.4-1.05.4-1.497 0l-2.003-2.205z" fill="#E6E7EA"/><path d="M256.896 219.526h-3.465v-6.336h-1.606V221h5.071v-1.474zm1.616-5.038c.55 0 .946-.385.946-.935s-.396-.946-.946-.946c-.55 0-.946.396-.946.946 0 .55.396.935.946.935zm-.781 6.512h1.562v-5.764h-1.562V221zm5.516-1.254c-.836 0-1.32-.66-1.32-1.628 0-.968.484-1.628 1.32-1.628.572 0 1.034.352 1.155.869l1.562-.264c-.209-.935-1.056-1.991-2.706-1.991-1.672 0-2.893 1.298-2.893 3.014 0 1.716 1.221 3.014 2.893 3.014 1.65 0 2.497-1.056 2.706-1.991l-1.562-.264c-.121.517-.583.869-1.155.869zm7.311-.627c-.209.462-.627.671-1.144.671-.781 0-1.287-.429-1.397-1.221h4.18s.022-.209.022-.462c0-1.705-1.155-3.003-2.86-3.003-1.705 0-2.893 1.298-2.893 3.003 0 1.771 1.199 3.025 2.904 3.025 1.331 0 2.211-.671 2.629-1.683l-1.441-.33zm-1.21-2.761c.726 0 1.199.44 1.309 1.089h-2.618c.132-.66.594-1.089 1.309-1.089zm5.368-1.122h-1.441V221h1.562v-3.3c0-.77.418-1.254 1.177-1.254.693 0 .979.462.979 1.133V221h1.562v-3.597c0-1.375-.737-2.299-2.123-2.299-.858 0-1.452.341-1.716.836v-.704zm4.779 4.081c.132.99.781 1.815 2.475 1.815 1.562 0 2.442-.814 2.442-1.848 0-2.365-3.168-1.397-3.168-2.365 0-.319.286-.561.792-.561.561 0 .847.33.88.748l1.474-.275c-.132-.803-.759-1.727-2.343-1.727-1.419 0-2.31.858-2.31 1.903 0 2.288 3.179 1.375 3.179 2.343 0 .319-.308.528-.902.528-.649 0-.935-.363-.968-.781l-1.551.22zm9.679-.198c-.209.462-.627.671-1.144.671-.781 0-1.287-.429-1.397-1.221h4.18s.022-.209.022-.462c0-1.705-1.155-3.003-2.86-3.003-1.705 0-2.893 1.298-2.893 3.003 0 1.771 1.199 3.025 2.904 3.025 1.331 0 2.211-.671 2.629-1.683l-1.441-.33zm-1.21-2.761c.726 0 1.199.44 1.309 1.089h-2.618c.132-.66.594-1.089 1.309-1.089zm7.92-.506c-.297-.396-.891-.748-1.705-.748-1.672 0-2.651 1.342-2.651 3.014 0 1.672.979 3.014 2.651 3.014.814 0 1.463-.308 1.826-.836V221h1.441v-8.25h-1.562v3.102zm.044 2.266c0 .935-.55 1.639-1.419 1.639s-1.419-.704-1.419-1.639.55-1.639 1.419-1.639 1.419.704 1.419 1.639zm5.363 1.199c.132.99.781 1.815 2.475 1.815 1.562 0 2.442-.814 2.442-1.848 0-2.365-3.168-1.397-3.168-2.365 0-.319.286-.561.792-.561.561 0 .847.33.88.748l1.474-.275c-.132-.803-.759-1.727-2.343-1.727-1.419 0-2.31.858-2.31 1.903 0 2.288 3.179 1.375 3.179 2.343 0 .319-.308.528-.902.528-.649 0-.935-.363-.968-.781l-1.551.22zm9.679-.198c-.209.462-.627.671-1.144.671-.781 0-1.287-.429-1.397-1.221h4.18s.022-.209.022-.462c0-1.705-1.155-3.003-2.86-3.003-1.705 0-2.893 1.298-2.893 3.003 0 1.771 1.199 3.025 2.904 3.025 1.331 0 2.211-.671 2.629-1.683l-1.441-.33zm-1.21-2.761c.726 0 1.199.44 1.309 1.089h-2.618c.132-.66.594-1.089 1.309-1.089zm5.269.781c.066-.462.374-.748 1.067-.748.704 0 1.045.286 1.045.847v.044l-1.529.253c-1.54.253-2.244.902-2.244 1.903 0 .935.627 1.694 2.024 1.694.902 0 1.529-.275 1.991-.77.253.561.77.715 1.309.715.286 0 .407-.044.407-.044v-1.188s-.044.011-.165.011c-.209 0-.308-.132-.308-.374v-2.233c0-1.342-.836-2.145-2.53-2.145-1.683 0-2.398.847-2.563 1.76l1.496.275zm2.112 1.254v.209c0 .792-.484 1.32-1.397 1.32-.66 0-.869-.242-.869-.605 0-.352.253-.55.891-.671l1.375-.253zm5.525 1.221s-.154.055-.363.055c-.407 0-.583-.176-.583-.561v-2.64h.957v-1.232h-.957v-1.43h-1.562v1.43h-.781v1.232h.781v2.805c0 1.111.506 1.76 1.771 1.76.473 0 .737-.066.737-.066v-1.353zm.528-.297c.132.99.781 1.815 2.475 1.815 1.562 0 2.442-.814 2.442-1.848 0-2.365-3.168-1.397-3.168-2.365 0-.319.286-.561.792-.561.561 0 .847.33.88.748l1.474-.275c-.132-.803-.759-1.727-2.343-1.727-1.419 0-2.31.858-2.31 1.903 0 2.288 3.179 1.375 3.179 2.343 0 .319-.308.528-.902.528-.649 0-.935-.363-.968-.781l-1.551.22zm9.446-5.302c.319 0 .561-.22.561-.539a.543.543 0 00-.561-.561.537.537 0 00-.561.561c0 .319.231.539.561.539zm-.396 6.985h.781v-5.599h-.781V221zm2.201-1.584c.121.913.759 1.716 2.288 1.716 1.518 0 2.233-.803 2.233-1.65 0-2.354-3.443-1.045-3.443-2.596 0-.506.429-.935 1.298-.935.891 0 1.309.484 1.375 1.089l.748-.253c-.154-.715-.715-1.518-2.101-1.518-1.331 0-2.079.792-2.079 1.65 0 2.299 3.443.979 3.443 2.585 0 .561-.528.946-1.474.946-.957 0-1.441-.473-1.507-1.177l-.781.143zm11.041-.077c1.386 0 2.233-.869 2.233-2.035 0-.319-.066-.605-.187-.869a1.27 1.27 0 01-.066-.418c0-.396.297-.638.682-.638.187 0 .308.011.308.011v-.715c-.022 0-.11-.011-.286-.011-.66 0-1.199.374-1.353.957-.352-.22-.803-.352-1.331-.352-1.386 0-2.233.869-2.233 2.035 0 .583.209 1.089.594 1.452-.341.176-.748.506-.748 1.122 0 .451.187.77.484.968-.165.099-.627.451-.627 1.111 0 .99.726 1.54 2.596 1.54 1.958 0 2.695-.825 2.695-1.694 0-.825-.495-1.43-1.793-1.43h-2.035c-.407 0-.583-.242-.583-.55 0-.517.506-.693.539-.704.319.143.693.22 1.111.22zm0-.682c-.913 0-1.474-.517-1.474-1.353s.561-1.353 1.474-1.353c.913 0 1.474.517 1.474 1.353s-.561 1.353-1.474 1.353zm1.045 2.442c.528 0 .957.176.957.704 0 .605-.594.957-1.936.957-1.276 0-1.837-.264-1.837-.88a.85.85 0 01.539-.781h2.277zm5.693-5.742s-.132-.011-.187-.011c-1.034 0-1.584.539-1.793.924v-.869h-.748V221h.781v-3.179c0-1.166.715-1.738 1.672-1.738.143 0 .275.011.275.011v-.737zm5.006 3.905c-.286.693-.913 1.166-1.771 1.166-1.177 0-1.914-.869-1.991-2.002h4.653s.011-.176.011-.297c0-1.584-1.023-2.86-2.695-2.86-1.683 0-2.75 1.375-2.75 2.926 0 1.573.99 2.937 2.761 2.937 1.199 0 2.068-.66 2.464-1.573l-.682-.297zm-1.793-3.289c1.1 0 1.815.737 1.914 1.815h-3.861c.132-1.034.858-1.815 1.947-1.815zm6.29-.033c1.056 0 1.584.473 1.584 1.419v.154l-1.958.253c-1.452.187-2.112.792-2.112 1.694 0 1.012.627 1.672 1.958 1.672.913 0 1.727-.374 2.156-1.001.088.561.55.891 1.056.891.242 0 .352-.033.352-.033v-.649s-.044.022-.198.022c-.308 0-.473-.187-.473-.539v-2.453c0-1.243-.715-2.101-2.332-2.101-1.474 0-2.167.704-2.354 1.628l.737.154c.154-.792.759-1.111 1.584-1.111zm1.584 2.189v.649c0 .792-.671 1.705-2.002 1.705-.627 0-1.298-.22-1.298-1.023 0-.561.374-.935 1.441-1.078l1.859-.253zm4.855 2.134s-.253.055-.495.055c-.539 0-.77-.286-.77-.88v-3.377h1.287v-.66h-1.287v-1.595h-.781v1.595h-1.067v.66h1.067v3.432c0 1.012.506 1.529 1.452 1.529.396 0 .594-.055.594-.055v-.704zm5.285-1.001c-.286.693-.913 1.166-1.771 1.166-1.177 0-1.914-.869-1.991-2.002h4.653s.011-.176.011-.297c0-1.584-1.023-2.86-2.695-2.86-1.683 0-2.75 1.375-2.75 2.926 0 1.573.99 2.937 2.761 2.937 1.199 0 2.068-.66 2.464-1.573l-.682-.297zm-1.793-3.289c1.1 0 1.815.737 1.914 1.815h-3.861c.132-1.034.858-1.815 1.947-1.815zm6.917-.616s-.132-.011-.187-.011c-1.034 0-1.584.539-1.793.924v-.869h-.748V221h.781v-3.179c0-1.166.715-1.738 1.672-1.738.143 0 .275.011.275.011v-.737zm6.263 4.906s-.253.055-.495.055c-.539 0-.77-.286-.77-.88v-3.377h1.287v-.66h-1.287v-1.595h-.781v1.595h-1.067v.66h1.067v3.432c0 1.012.506 1.529 1.452 1.529.396 0 .594-.055.594-.055v-.704zm2.059-7.513h-.781V221h.781v-3.311c0-1.144.737-1.738 1.683-1.738 1.001 0 1.474.616 1.474 1.628V221h.781v-3.575c0-1.243-.737-2.156-2.123-2.156-1.045 0-1.617.572-1.815.913v-3.432zm7.894 3.19c1.056 0 1.584.473 1.584 1.419v.154l-1.958.253c-1.452.187-2.112.792-2.112 1.694 0 1.012.627 1.672 1.958 1.672.913 0 1.727-.374 2.156-1.001.088.561.55.891 1.056.891.242 0 .352-.033.352-.033v-.649s-.044.022-.198.022c-.308 0-.473-.187-.473-.539v-2.453c0-1.243-.715-2.101-2.332-2.101-1.474 0-2.167.704-2.354 1.628l.737.154c.154-.792.759-1.111 1.584-1.111zm1.584 2.189v.649c0 .792-.671 1.705-2.002 1.705-.627 0-1.298-.22-1.298-1.023 0-.561.374-.935 1.441-1.078l1.859-.253zm3.444-2.728h-.748V221h.781v-3.333c0-1.122.737-1.716 1.683-1.716 1.001 0 1.474.616 1.474 1.628V221h.781v-3.575c0-1.243-.737-2.156-2.123-2.156-1.089 0-1.65.627-1.848.99v-.858zm8.167 3.542c.187 1.353 1.199 2.222 2.728 2.222 1.639 0 2.761-1.1 2.761-2.464 0-.792-.341-1.43-1.144-1.738.737-.319 1.056-.946 1.056-1.639 0-1.364-1.001-2.299-2.607-2.299-1.54 0-2.519.979-2.651 2.266l1.529.264c.022-.539.341-1.089 1.122-1.089.715 0 1.056.429 1.056.957 0 .539-.352.913-1.133.913h-.726v1.331h.704c.858 0 1.199.44 1.199 1.034 0 .594-.451 1.023-1.166 1.023-.781 0-1.166-.473-1.221-1.089l-1.507.308zm9.163 2.222c1.903 0 2.838-1.705 2.838-4.07s-.935-4.07-2.838-4.07-2.838 1.705-2.838 4.07.935 4.07 2.838 4.07zm0-6.622c.814 0 1.21.781 1.21 2.552s-.396 2.552-1.21 2.552-1.21-.781-1.21-2.552.396-2.552 1.21-2.552z" fill="#666D80"/><path fill-rule="evenodd" clip-rule="evenodd" d="M238.25 218.5H236v-3h2.25c.45 0 .75-.3.75-.75s-.3-.75-.75-.75H236v-2.25c0-.45-.3-.75-.75-.75s-.75.3-.75.75V214h-3v-2.25c0-.45-.3-.75-.75-.75s-.75.3-.75.75V214h-2.25c-.45 0-.75.3-.75.75s.3.75.75.75H230v3h-2.25c-.45 0-.75.3-.75.75s.3.75.75.75H230v2.25c0 .45.3.75.75.75s.75-.3.75-.75V220h3v2.25c0 .45.3.75.75.75s.75-.3.75-.75V220h2.25c.45 0 .75-.3.75-.75s-.3-.75-.75-.75zm-6.75 0v-3h3v3h-3z" fill="#666D80" opacity=".6"/><path fill-rule="evenodd" clip-rule="evenodd" d="M443.249 84.495c-.5-.498-.249-1.495.75-1.495h3.996c1.004 0 1.256.995.754 1.495l-2 2.205c-.45.4-1.05.4-1.497 0l-2.003-2.205z" fill="#E6E7EA"/><path fill-rule="evenodd" clip-rule="evenodd" d="M94.25 86.5H92v-3h2.25c.45 0 .75-.3.75-.75s-.3-.75-.75-.75H92v-2.25c0-.45-.3-.75-.75-.75s-.75.3-.75.75V82h-3v-2.25c0-.45-.3-.75-.75-.75s-.75.3-.75.75V82h-2.25c-.45 0-.75.3-.75.75s.3.75.75.75H86v3h-2.25c-.45 0-.75.3-.75.75s.3.75.75.75H86v2.25c0 .45.3.75.75.75s.75-.3.75-.75V88h3v2.25c0 .45.3.75.75.75s.75-.3.75-.75V88h2.25c.45 0 .75-.3.75-.75s-.3-.75-.75-.75zm-6.75 0v-3h3v3h-3z" fill="#666D80" opacity=".6"/><path d="M161.408 173.004c0 2.412 1.764 4.14 4.176 4.14 2.424 0 4.188-1.728 4.188-4.14s-1.764-4.14-4.188-4.14c-2.412 0-4.176 1.728-4.176 4.14zm6.612 0c0 1.488-.96 2.628-2.436 2.628s-2.424-1.14-2.424-2.628c0-1.5.948-2.628 2.424-2.628s2.436 1.128 2.436 2.628zm7.472 3.996h1.956l-1.8-3.048c.864-.204 1.752-.96 1.752-2.376 0-1.488-1.02-2.58-2.688-2.58h-3.744V177h1.704v-2.868h1.248l1.572 2.868zm.168-5.436c0 .672-.516 1.104-1.2 1.104h-1.788v-2.208h1.788c.684 0 1.2.432 1.2 1.104z" fill="#838C96"/><path fill-rule="evenodd" clip-rule="evenodd" d="M185.249 172.495c-.5-.498-.249-1.495.75-1.495h3.996c1.004 0 1.256.995.754 1.495l-2 2.205c-.45.4-1.05.4-1.497 0l-2.003-2.205z" fill="#BCC4CC"/><path d="M161.408 217.004c0 2.412 1.764 4.14 4.176 4.14 2.424 0 4.188-1.728 4.188-4.14s-1.764-4.14-4.188-4.14c-2.412 0-4.176 1.728-4.176 4.14zm6.612 0c0 1.488-.96 2.628-2.436 2.628s-2.424-1.14-2.424-2.628c0-1.5.948-2.628 2.424-2.628s2.436 1.128 2.436 2.628zm7.472 3.996h1.956l-1.8-3.048c.864-.204 1.752-.96 1.752-2.376 0-1.488-1.02-2.58-2.688-2.58h-3.744V221h1.704v-2.868h1.248l1.572 2.868zm.168-5.436c0 .672-.516 1.104-1.2 1.104h-1.788v-2.208h1.788c.684 0 1.2.432 1.2 1.104z" fill="#838C96"/><path fill-rule="evenodd" clip-rule="evenodd" d="M185.249 216.495c-.5-.498-.249-1.495.75-1.495h3.996c1.004 0 1.256.995.754 1.495l-2 2.205c-.45.4-1.05.4-1.497 0l-2.003-2.205z" fill="#BCC4CC"/><g clip-path="url(#clip0)"><path d="M107.396 313h1.86l-3.084-8.004h-2.136L100.94 313h1.872l.504-1.38h3.576l.504 1.38zm-2.292-6.528l1.32 3.672h-2.652l1.332-3.672zm4.891 6.528h3.156c2.508 0 4.248-1.584 4.248-3.996s-1.74-4.008-4.248-4.008h-3.156V313zm1.704-1.5v-5.004h1.452c1.644 0 2.508 1.092 2.508 2.508 0 1.356-.924 2.496-2.508 2.496h-1.452zm6.909 1.5h3.156c2.508 0 4.248-1.584 4.248-3.996s-1.74-4.008-4.248-4.008h-3.156V313zm1.704-1.5v-5.004h1.452c1.644 0 2.508 1.092 2.508 2.508 0 1.356-.924 2.496-2.508 2.496h-1.452zm14.504 1.5h1.956l-1.8-3.048c.864-.204 1.752-.96 1.752-2.376 0-1.488-1.02-2.58-2.688-2.58h-3.744V313h1.704v-2.868h1.248l1.572 2.868zm.168-5.436c0 .672-.516 1.104-1.2 1.104h-1.788v-2.208h1.788c.684 0 1.2.432 1.2 1.104zm3.019 2.244c0 1.968 1.14 3.336 3.588 3.336 2.424 0 3.564-1.356 3.564-3.348v-4.8h-1.728v4.752c0 1.116-.612 1.884-1.836 1.884-1.248 0-1.86-.768-1.86-1.884v-4.752h-1.728v4.812zm8.73 3.192h5.088v-1.5h-3.384v-6.504h-1.704V313zm6.282 0h5.664v-1.476h-3.96v-1.86h3.876V308.2h-3.876v-1.74h3.96v-1.464h-5.664V313z" fill="#A1ABB4"/></g><path fill-rule="evenodd" clip-rule="evenodd" d="M89 303.001a6 6 0 100 12 6 6 0 000-12zm0 10.498A4.504 4.504 0 0184.5 309a4.504 4.504 0 014.5-4.499c2.481 0 4.5 2.017 4.5 4.499a4.504 4.504 0 01-4.5 4.499zm2.257-5.249H89.75v-1.508a.741.741 0 00-.742-.742h-.015a.742.742 0 00-.742.742v1.508h-1.507a.742.742 0 00-.743.742v.015c0 .411.332.743.743.743h1.507v1.507c0 .411.332.743.742.743h.015c.41 0 .742-.332.742-.743v-1.507h1.508c.41 0 .743-.332.743-.743v-.015a.742.742 0 00-.743-.742z" fill="#BCC4CC"/><rect x="1" y="1" width="175" height="172" rx="16" fill="#fff" stroke="#E6E7EA" stroke-width="2"/><rect x="58" y="33" width="48" height="4" rx="2" fill="#FFD4D7"/><rect x="122" y="32" width="6" height="6" rx="3" fill="#fff" stroke="#E6E7EA" stroke-width="2"/><rect x="134" y="32" width="6" height="6" rx="3" fill="#fff" stroke="#E6E7EA" stroke-width="2"/><rect x="146" y="32" width="6" height="6" rx="3" fill="#fff" stroke="#E6E7EA" stroke-width="2"/><rect x="58" y="33" width="39" height="4" rx="2" fill="#E81D2E"/><path d="M29.777 40.21c2.17 0 3.402-1.204 3.402-2.898 0-.952-.462-1.932-1.428-2.45.826-.462 1.204-1.316 1.204-2.17 0-1.596-1.176-2.842-3.178-2.842s-3.164 1.232-3.164 2.814c0 .854.378 1.722 1.176 2.198-.966.504-1.428 1.498-1.428 2.45 0 1.694 1.246 2.898 3.416 2.898zm0-4.522c1.05 0 1.694.63 1.694 1.512 0 .812-.546 1.526-1.694 1.526s-1.694-.714-1.694-1.526c0-.882.644-1.512 1.694-1.512zm0-1.526c-1.008 0-1.568-.616-1.568-1.456 0-.714.504-1.386 1.568-1.386s1.582.7 1.582 1.414c0 .84-.588 1.428-1.582 1.428zm8.149 6.048c2.17 0 3.402-1.204 3.402-2.898 0-.952-.462-1.932-1.428-2.45.826-.462 1.204-1.316 1.204-2.17 0-1.596-1.176-2.842-3.178-2.842s-3.164 1.232-3.164 2.814c0 .854.378 1.722 1.176 2.198-.966.504-1.428 1.498-1.428 2.45 0 1.694 1.246 2.898 3.416 2.898zm0-4.522c1.05 0 1.694.63 1.694 1.512 0 .812-.546 1.526-1.694 1.526s-1.694-.714-1.694-1.526c0-.882.644-1.512 1.694-1.512zm0-1.526c-1.008 0-1.568-.616-1.568-1.456 0-.714.504-1.386 1.568-1.386s1.582.7 1.582 1.414c0 .84-.588 1.428-1.582 1.428z" fill="#666D80"/><rect x="58" y="68" width="48" height="4" rx="2" fill="#FFD4D7"/><rect x="122" y="67" width="6" height="6" rx="3" fill="#FFA8AF" stroke="#FFA8AF" stroke-width="2"/><rect x="134" y="67" width="6" height="6" rx="3" fill="#FF7D88" stroke="#FF7D88" stroke-width="2"/><rect x="146" y="67" width="6" height="6" rx="3" fill="#fff" stroke="#E6E7EA" stroke-width="2"/><rect x="58" y="68" width="35" height="4" rx="2" fill="#E81D2E"/><path d="M27.817 67.874V66.6h3.57c-1.652 2.282-2.604 4.998-3.122 8.4h1.778c.504-3.346 1.19-5.656 3.29-8.428V65.06h-7.168v2.814h1.652zm10.025-3.024c-2.086 0-3.514 1.54-3.514 3.416 0 1.792 1.19 3.304 3.178 3.304.644 0 1.106-.21 1.442-.434-.77 1.414-2.03 2.786-3.136 3.864h2.1c1.96-2.1 3.458-4.256 3.458-6.566 0-1.974-1.344-3.584-3.528-3.584zm-1.778 3.416c0-1.134.742-1.918 1.778-1.918 1.05 0 1.778.784 1.778 1.918s-.728 1.918-1.778 1.918c-1.036 0-1.778-.784-1.778-1.918z" fill="#666D80"/><rect x="58" y="103" width="48" height="4" rx="2" fill="#FFD4D7"/><rect x="122" y="102" width="6" height="6" rx="3" fill="#FFA8AF" stroke="#FFA8AF" stroke-width="2"/><rect x="134" y="102" width="6" height="6" rx="3" fill="#FF7D88" stroke="#FF7D88" stroke-width="2"/><rect x="146" y="102" width="6" height="6" rx="3" fill="#E81D2E" stroke="#E81D2E" stroke-width="2"/><rect x="58" y="103" width="23" height="4" rx="2" fill="#E81D2E"/><path d="M26.431 107.704c.322 1.512 1.54 2.506 3.346 2.506 2.1 0 3.486-1.498 3.486-3.486 0-1.61-.896-3.332-3.136-3.332-.896 0-1.54.434-1.75.644l.336-2.408h3.976v-1.568h-5.264l-.826 5.768h1.54c.07-.168.56-.966 1.638-.966 1.106 0 1.778.742 1.778 1.862 0 1.162-.7 1.932-1.778 1.932-1.008 0-1.54-.658-1.68-1.358l-1.666.406zm9.829-4.2a2.315 2.315 0 01-.028-.406c0-.952.504-1.68 1.61-1.68.966 0 1.596.616 1.596 1.54 0 .728-.28 1.274-.938 1.89l-3.92 3.738V110h6.762v-1.568h-4.424l2.548-2.254c1.218-1.078 1.694-1.96 1.694-3.262 0-1.778-1.232-3.066-3.318-3.066-1.988 0-3.29 1.302-3.29 3.22v.168l1.708.266z" fill="#666D80"/><rect x="58" y="138" width="48" height="4" rx="2" fill="#FFD4D7"/><rect x="122" y="137" width="6" height="6" rx="3" fill="#fff" stroke="#E6E7EA" stroke-width="2"/><rect x="134" y="137" width="6" height="6" rx="3" fill="#fff" stroke="#E6E7EA" stroke-width="2"/><rect x="146" y="137" width="6" height="6" rx="3" fill="#fff" stroke="#E6E7EA" stroke-width="2"/><rect x="58" y="138" width="17" height="4" rx="2" fill="#E81D2E"/><path d="M33.067 143.586h-2.184v-8.526h-1.372l-2.464.56v1.12h2.128v6.846h-2.184V145h6.076v-1.414zm4.943 1.624c2.086 0 3.514-1.54 3.514-3.416 0-1.792-1.19-3.29-3.178-3.29-.644 0-1.12.21-1.442.434.756-1.414 2.016-2.8 3.136-3.878h-2.1c-1.96 2.1-3.458 4.27-3.458 6.566 0 1.974 1.344 3.584 3.528 3.584zm1.778-3.416c0 1.148-.742 1.918-1.778 1.918-1.05 0-1.778-.77-1.778-1.918 0-1.134.728-1.904 1.778-1.904 1.036 0 1.778.77 1.778 1.904z" fill="#666D80"/><defs><clipPath id="clip0"><path fill="#fff" transform="translate(101 303)" d="M0 0h59v12H0z"/></clipPath></defs></svg>