<svg width="433" height="388" fill="none" xmlns="http://www.w3.org/2000/svg"><rect x="64" y="61" width="279" height="34" rx="8" fill="#fff" stroke="#E6E7EA" stroke-width="2"/><rect x="102" y="74" width="212" height="8" rx="4" fill="#fff" stroke="#E6E7EA" stroke-width="2"/><path fill-rule="evenodd" clip-rule="evenodd" d="M83 85a7 7 0 100-14 7 7 0 000 14zm0-1.827a5.174 5.174 0 100-10.348 5.174 5.174 0 000 10.348z" fill="#E6E7EA"/><circle cx="83" cy="78" r="3.348" fill="#E6E7EA"/><rect x="127" y="161" width="305" height="34" rx="8" fill="#fff" stroke="#E6E7EA" stroke-width="2"/><rect x="165" y="174" width="228" height="8" rx="4" fill="#fff" stroke="#E6E7EA" stroke-width="2"/><path fill-rule="evenodd" clip-rule="evenodd" d="M146 185a7 7 0 100-14 7 7 0 000 14zm0-1.827a5.173 5.173 0 100-10.348 5.175 5.175 0 000 10.348z" fill="#E6E7EA"/><circle cx="146" cy="178" r="3.348" fill="#E6E7EA"/><rect x="1" y="111" width="305" height="34" rx="8" fill="#fff" stroke="#E6E7EA" stroke-width="2"/><rect x="39" y="124" width="212" height="8" rx="4" fill="#fff" stroke="#E6E7EA" stroke-width="2"/><path fill-rule="evenodd" clip-rule="evenodd" d="M20 135a7 7 0 100-14 7 7 0 000 14zm0-1.827a5.174 5.174 0 100-10.347 5.174 5.174 0 000 10.347z" fill="#E6E7EA"/><circle cx="20" cy="128" r="3.348" fill="#E6E7EA"/><rect x="118" y="211" width="275" height="34" rx="8" fill="#fff" stroke="#E6E7EA" stroke-width="2"/><rect x="126" y="224" width="212" height="8" rx="4" fill="#fff" stroke="#E6E7EA" stroke-width="2"/><rect x="64" y="161" width="250" height="34" rx="8" fill="#fff" stroke="#E6E7EA" stroke-width="2"/><rect x="102" y="174" width="212" height="8" rx="4" fill="#fff" stroke="#E6E7EA" stroke-width="2"/><path fill-rule="evenodd" clip-rule="evenodd" d="M83 185a7 7 0 100-14 7 7 0 000 14zm0-1.827a5.174 5.174 0 100-10.347 5.174 5.174 0 000 10.347z" fill="#E6E7EA"/><circle cx="83" cy="178" r="3.348" fill="#E6E7EA"/><rect x="127" y="261" width="305" height="34" rx="8" fill="#fff" stroke="#E6E7EA" stroke-width="2"/><rect x="165" y="274" width="239" height="8" rx="4" fill="#fff" stroke="#E6E7EA" stroke-width="2"/><path fill-rule="evenodd" clip-rule="evenodd" d="M146 285a7 7 0 100-14 7 7 0 000 14zm0-1.827a5.173 5.173 0 100-10.348 5.175 5.175 0 000 10.348z" fill="#E6E7EA"/><circle cx="146" cy="278" r="3.348" fill="#E6E7EA"/><path fill-rule="evenodd" clip-rule="evenodd" d="M228.188 265.782a5.336 5.336 0 10.002-10.672 5.336 5.336 0 00-.002 10.672zm0-1.393a3.944 3.944 0 10.001-7.889 3.944 3.944 0 00-.001 7.889z" fill="#E6E7EA"/><circle cx="228.188" cy="260.445" r="2.552" fill="#E6E7EA"/><rect x="197.693" y="219.277" width="161.624" height="6.099" rx="3.05" fill="#fff" stroke="#E6E7EA" stroke-width="1.525"/><path fill-rule="evenodd" clip-rule="evenodd" d="M183.208 227.664a5.338 5.338 0 10-.001-10.675 5.338 5.338 0 00.001 10.675zm0-1.393a3.945 3.945 0 100-7.89 3.945 3.945 0 000 7.89z" fill="#E6E7EA"/><circle cx="183.208" cy="222.327" r="2.552" fill="#E6E7EA"/><path fill-rule="evenodd" clip-rule="evenodd" d="M228.188 189.545a5.337 5.337 0 100-10.674 5.337 5.337 0 000 10.674zm0-1.393a3.945 3.945 0 100-7.89 3.945 3.945 0 000 7.89z" fill="#E6E7EA"/><circle cx="228.188" cy="184.208" r="2.552" fill="#E6E7EA"/><rect x="96" y="1" width="272" height="386" rx="7.574" fill="#fff" stroke="#E6E7EA" stroke-width="2"/><path stroke="#E6E7EA" stroke-width="2" d="M108 38h247"/><rect x="121" y="277" width="223" height="61" rx="3.05" fill="#fff" stroke="#E6E7EA" stroke-width="2"/><rect x="279.267" y="353.455" width="64.04" height="21.346" rx="3.05" fill="#0071E1" stroke="#0071E1" stroke-width="1.525"/><rect x="206.079" y="353.455" width="64.04" height="21.346" rx="3.05" fill="#fff" stroke="#E6E7EA" stroke-width="2"/><rect x="145" y="254" width="47" height="6" rx="3" fill="#fff" stroke="#E6E7EA" stroke-width="2"/><rect x="314" y="254" width="8" height="8" rx="4" fill="#338DE7"/><rect x="325" y="254" width="8" height="8" rx="4" fill="#0071E1"/><rect x="336" y="254" width="8" height="8" rx="4" fill="#fff" stroke="#E6E7EA" stroke-width="2"/><circle cx="128.5" cy="257.5" r="8.5" fill="#fff" stroke="#E6E7EA" stroke-width="2"/><path fill-rule="evenodd" clip-rule="evenodd" d="M137 75a4 4 0 014-4h152a4 4 0 014 4v3.558a4 4 0 004 4h18.485a4 4 0 014 4v3.181a4 4 0 01-4 4H253a4 4 0 00-4 4V101a4 4 0 01-4 4H141a4 4 0 01-4-4V75z" fill="#CCE3F9"/><rect x="137" y="55" width="84" height="6" rx="3" fill="#fff" stroke="#E6E7EA" stroke-width="2"/><rect x="113" y="51" width="15" height="15" rx="3.05" fill="#fff" stroke="#E6E7EA" stroke-width="2"/><path fill-rule="evenodd" clip-rule="evenodd" d="M137.466 140.178a4 4 0 014-4h153.623a4 4 0 014 4v3.591a4 4 0 01-4 4H239.05a4 4 0 00-4 4V154a4 4 0 004 4H251a4 4 0 014 4v4a4 4 0 01-4 4H141a4 4 0 01-4-4v-7.767c0-.129.104-.233.233-.233a.233.233 0 00.233-.233v-17.589z" fill="#CCE3F9"/><rect x="137" y="121" width="117" height="6" rx="3" fill="#fff" stroke="#E6E7EA" stroke-width="2"/><rect x="113" y="116" width="15" height="15" rx="3.05" fill="#fff" stroke="#E6E7EA" stroke-width="2"/><path fill-rule="evenodd" clip-rule="evenodd" d="M270.119 205.742a4 4 0 00-4-4H141.466a4 4 0 00-4 4v14c0 2.21 1.79 4 4 4h145.237a4 4 0 004-4v-2.62a4 4 0 00-4-4h-12.584a4 4 0 01-4-4v-3.38z" fill="#CCE3F9"/><rect x="137" y="186" width="117" height="6" rx="3" fill="#fff" stroke="#E6E7EA" stroke-width="2"/><rect x="113" y="182" width="15" height="15" rx="3.05" fill="#fff" stroke="#E6E7EA" stroke-width="2"/><path d="M162.576 16.48l-2.424 6.6h-.024l-2.412-6.6h-1.644L159.36 25h1.512l3.3-8.52h-1.596zm3.246 1.248c.516 0 .888-.36.888-.876 0-.528-.372-.9-.888-.9-.528 0-.9.372-.9.9 0 .516.372.876.9.876zm-.72 7.272h1.428v-6.228h-1.428V25zm7.617-5.412c-.348-.528-1.02-.96-1.992-.96-1.836 0-2.88 1.476-2.88 3.264 0 1.776 1.044 3.252 2.88 3.252.972 0 1.704-.384 2.1-1.032V25h1.32v-9h-1.428v3.588zm.06 2.304c0 1.116-.66 1.992-1.752 1.992-1.08 0-1.752-.876-1.752-1.992 0-1.14.672-2.004 1.752-2.004 1.092 0 1.752.864 1.752 2.004zm7.353 1.068c-.264.624-.828.96-1.512.96-.996 0-1.632-.636-1.74-1.62h4.74s.012-.216.012-.444c0-1.824-1.212-3.228-3.06-3.228s-3.096 1.44-3.096 3.252c0 1.86 1.224 3.264 3.108 3.264 1.356 0 2.388-.732 2.832-1.848l-1.284-.336zm-1.56-3.168c.924 0 1.524.588 1.644 1.452h-3.312c.144-.852.744-1.452 1.668-1.452zm7.186 5.352c1.992 0 3.24-1.5 3.24-3.252 0-1.752-1.248-3.264-3.24-3.264-1.98 0-3.228 1.512-3.228 3.264 0 1.752 1.248 3.252 3.228 3.252zm-1.8-3.252c0-1.212.768-2.004 1.8-2.004 1.044 0 1.812.792 1.812 2.004 0 1.2-.768 1.992-1.812 1.992-1.032 0-1.8-.792-1.8-1.992zm12.168 1.992c-1.02 0-1.668-.828-1.668-1.992 0-1.176.648-2.004 1.668-2.004.768 0 1.344.468 1.512 1.14l1.368-.336c-.324-1.068-1.2-2.064-2.868-2.064-1.836 0-3.108 1.452-3.108 3.264 0 1.8 1.272 3.252 3.108 3.252 1.668 0 2.544-.996 2.868-2.064l-1.368-.336c-.168.672-.744 1.14-1.512 1.14zm7.879-1.8v.384c0 .84-.564 1.56-1.716 1.56-.756 0-1.08-.3-1.08-.78 0-.42.228-.732 1.14-.888l1.656-.276zm-2.004 3.06c.936 0 1.728-.3 2.172-.828.156.372.588.756 1.296.756.276 0 .456-.048.456-.048v-1.152s-.06.012-.12.012c-.252 0-.408-.12-.408-.42v-2.508c0-1.428-.864-2.328-2.688-2.328-1.764 0-2.532.888-2.724 1.896l1.368.228c.096-.6.54-.948 1.32-.948.852 0 1.332.36 1.332 1.116v.084l-1.8.264c-1.644.24-2.388.936-2.388 1.992 0 1.068.672 1.884 2.184 1.884zm6.611-.144v-9h-1.428v9h1.428zm3.153 0v-9h-1.428v9h1.428zm2.444-7.272c.516 0 .888-.36.888-.876 0-.528-.372-.9-.888-.9-.528 0-.9.372-.9.9 0 .516.372.876.9.876zm-.72 7.272h1.428v-6.228h-1.428V25zm4.472-6.228h-1.32V25h1.428v-3.612c0-.972.564-1.536 1.464-1.536.852 0 1.236.564 1.236 1.416V25h1.428v-3.912c0-1.452-.804-2.46-2.316-2.46-1.02 0-1.656.48-1.92.972v-.828zm8.299 4.392c1.536 0 2.496-.996 2.496-2.268 0-.3-.06-.576-.156-.84 0 0-.024-.084-.024-.264 0-.372.252-.588.66-.588.204 0 .264.012.264.012V17.98s-.144-.024-.348-.024c-.708 0-1.296.384-1.548.984a2.923 2.923 0 00-1.344-.312c-1.536 0-2.496.996-2.496 2.268 0 .636.216 1.14.6 1.536a1.474 1.474 0 00-.744 1.296c0 .204.048.768.516 1.104-.228.156-.672.528-.672 1.212 0 1.08.792 1.704 2.868 1.704 2.076 0 2.976-1.008 2.976-2.016 0-.996-.516-1.86-2.004-1.86h-2.04c-.228 0-.432-.12-.432-.408 0-.336.324-.492.384-.504.288.108.684.204 1.044.204zm-1.188-2.268c0-.624.432-1.068 1.188-1.068s1.188.444 1.188 1.068c0 .624-.432 1.068-1.188 1.068s-1.188-.444-1.188-1.068zm2.196 4.248c.456 0 .732.216.732.6 0 .552-.588.816-1.692.816-1.212 0-1.584-.24-1.584-.78 0-.12.048-.444.348-.636h2.196zm6.582-6.372h-.996v1.14h.996V25h1.428v-5.088h1.104v-1.14h-1.104v-.576c0-.684.228-.924.804-.924a.96.96 0 01.264.024v-1.26s-.204-.036-.48-.036c-1.188 0-2.016.648-2.016 2.112v.66zm7.723 4.188c-.264.624-.828.96-1.512.96-.996 0-1.632-.636-1.74-1.62h4.74s.012-.216.012-.444c0-1.824-1.212-3.228-3.06-3.228s-3.096 1.44-3.096 3.252c0 1.86 1.224 3.264 3.108 3.264 1.356 0 2.388-.732 2.832-1.848l-1.284-.336zm-1.56-3.168c.924 0 1.524.588 1.644 1.452h-3.312c.144-.852.744-1.452 1.668-1.452zm8.207 2.292v.384c0 .84-.564 1.56-1.716 1.56-.756 0-1.08-.3-1.08-.78 0-.42.228-.732 1.14-.888l1.656-.276zm-2.004 3.06c.936 0 1.728-.3 2.172-.828.156.372.588.756 1.296.756.276 0 .456-.048.456-.048v-1.152s-.06.012-.12.012c-.252 0-.408-.12-.408-.42v-2.508c0-1.428-.864-2.328-2.688-2.328-1.764 0-2.532.888-2.724 1.896l1.368.228c.096-.6.54-.948 1.32-.948.852 0 1.332.36 1.332 1.116v.084l-1.8.264c-1.644.24-2.388.936-2.388 1.992 0 1.068.672 1.884 2.184 1.884zm7.85-1.416s-.204.06-.444.06c-.492 0-.696-.24-.696-.732v-3.144h1.164v-1.14h-1.164v-1.62h-1.428v1.62h-.948v1.14h.948V23.2c0 1.176.552 1.836 1.824 1.836.48 0 .744-.072.744-.072v-1.236zm5.185-1.368c0 1.02-.552 1.56-1.44 1.56-.864 0-1.212-.564-1.212-1.416v-3.732h-1.428v3.924c0 1.452.78 2.448 2.292 2.448 1.008 0 1.632-.456 1.896-.948V25h1.32v-6.228h-1.428v3.588zm6.512-3.636s-.144-.012-.204-.012c-1.08 0-1.608.528-1.836.924v-.864h-1.32V25h1.428v-3.24c0-1.2.6-1.728 1.608-1.728.156 0 .324.024.324.024v-1.332zm5.013 4.236c-.264.624-.828.96-1.512.96-.996 0-1.632-.636-1.74-1.62h4.74s.012-.216.012-.444c0-1.824-1.212-3.228-3.06-3.228s-3.096 1.44-3.096 3.252c0 1.86 1.224 3.264 3.108 3.264 1.356 0 2.388-.732 2.832-1.848l-1.284-.336zm-1.56-3.168c.924 0 1.524.588 1.644 1.452h-3.312c.144-.852.744-1.452 1.668-1.452zm-127.242-.787h3.412v1.143h-3.412v-1.143zm3.412 1.715h-3.412v1.144h3.412V20.72z" fill="#666D80"/><path fill-rule="evenodd" clip-rule="evenodd" d="M141.974 15.574h1.137v.572h1.137v-.572h1.138v.572h1.137a1.14 1.14 0 011.137 1.144v6.29a1.14 1.14 0 01-1.137 1.143h-5.686a1.141 1.141 0 01-1.138-1.144v-6.29c0-.631.51-1.143 1.138-1.143h1.137v-.572zm2.274 1.716v.571h1.138v-.571h.568a.57.57 0 01.569.571v5.146a.57.57 0 01-.569.572h-4.549a.57.57 0 01-.568-.572v-5.146a.57.57 0 01.568-.571h.569v.571h1.137v-.571h1.137z" fill="#666D80"/><path stroke="#E6E7EA" d="M127.5 11v18"/><path fill-rule="evenodd" clip-rule="evenodd" d="M111.536 19.852l2.191-2.229a.611.611 0 01.876 0 .637.637 0 010 .891l-1.752 1.783 1.752 1.783a.639.639 0 010 .892.613.613 0 01-.876 0l-2.191-2.229a.638.638 0 010-.891z" fill="#666D80"/><path stroke="#E6E7EA" stroke-width="2" d="M108 235h247"/></svg>