<svg xmlns="http://www.w3.org/2000/svg" width="432" height="328" fill="none"><rect x="38.391" y="1" width="392" height="288" rx="8" fill="#fff" stroke="#E6E7EA" stroke-width="2"/><rect x="52" y="15" width="59" height="13" rx="4" fill="#fff" stroke="#E6E7EA" stroke-width="2"/><rect x="359.333" y="10.79" width="59.203" height="17.138" rx="3" fill="#fff" stroke="#E6E7EA" stroke-width="2"/><path stroke="#E6E7EA" stroke-width="2" d="M38.391 37.718H431"/><rect x="19.695" y="19.695" width="392" height="288" rx="8" fill="#fff" stroke="#E6E7EA" stroke-width="2"/><rect x="340.637" y="29.485" width="59.203" height="17.138" rx="3" fill="#fff" stroke="#E6E7EA" stroke-width="2"/><rect x="33" y="34" width="59" height="13" rx="4" fill="#fff" stroke="#E6E7EA" stroke-width="2"/><path stroke="#E6E7EA" stroke-width="2" d="M19.695 56.413h392.609"/><rect x="1" y="38.392" width="392" height="288" rx="8" fill="#fff" stroke="#E6E7EA" stroke-width="2"/><path d="M15.7 56.37v-2.246h1.897c.862 0 1.254.457 1.254 1.134 0 .676-.392 1.112-1.254 1.112H15.7zm0 1.222h1.886c1.8 0 2.596-1.015 2.596-2.334 0-1.32-.753-2.356-2.596-2.356H14.38v7.743h1.32v-3.053zm8.493-2.651s-.13-.01-.185-.01c-.982 0-1.461.48-1.669.84v-.786h-1.2v5.66h1.299v-2.944c0-1.091.545-1.57 1.46-1.57.143 0 .295.021.295.021v-1.21zm3.258 5.835c1.81 0 2.945-1.363 2.945-2.955 0-1.593-1.134-2.967-2.945-2.967-1.799 0-2.933 1.374-2.933 2.967 0 1.592 1.134 2.955 2.933 2.955zm-1.636-2.955c0-1.102.698-1.822 1.636-1.822.95 0 1.647.72 1.647 1.822 0 1.09-.698 1.81-1.647 1.81-.938 0-1.636-.72-1.636-1.81zm9.84-2.094c-.316-.48-.927-.873-1.81-.873-1.669 0-2.618 1.342-2.618 2.967 0 1.614.95 2.955 2.618 2.955.883 0 1.548-.349 1.908-.938v.807h1.2v-8.18h-1.298v3.262zm.055 2.094c0 1.014-.6 1.81-1.593 1.81-.981 0-1.592-.796-1.592-1.81 0-1.036.61-1.822 1.592-1.822.993 0 1.593.785 1.593 1.822zm6.475.425c0 .927-.502 1.418-1.309 1.418-.785 0-1.101-.513-1.101-1.287v-3.392h-1.298v3.566c0 1.32.709 2.225 2.083 2.225.916 0 1.483-.414 1.723-.862v.731h1.2v-5.66h-1.298v3.26zm5.307 1.384c-.927 0-1.516-.752-1.516-1.81 0-1.068.59-1.82 1.516-1.82.698 0 1.222.425 1.374 1.035l1.244-.305c-.295-.97-1.09-1.876-2.607-1.876-1.668 0-2.824 1.32-2.824 2.967 0 1.635 1.156 2.955 2.824 2.955 1.516 0 2.312-.905 2.607-1.876l-1.244-.305c-.152.61-.676 1.036-1.374 1.036zm6.275-.14s-.185.054-.403.054c-.447 0-.633-.218-.633-.666v-2.857h1.058v-1.036h-1.058v-1.472h-1.297v1.472h-.862v1.036h.862v2.988c0 1.07.501 1.669 1.657 1.669.437 0 .676-.066.676-.066V59.49zm4.258 1.155l.556-1.494h3.468l.556 1.494h1.44l-3.01-7.743h-1.407l-2.999 7.743h1.396zm2.301-6.107l1.287 3.413h-2.596l1.287-3.413h.022z" opacity=".4" fill="#666D80"/><path stroke="#E6E7EA" stroke-width="2" d="M1 74.108h392.609"/><rect x="321.942" y="48.182" width="59.203" height="17.138" rx="3" fill="#0071E1"/><path d="M337.765 57.853c.074.673.542 1.32 1.645 1.32 1.059 0 1.757-.523 1.757-1.327 0-1.77-2.455-1.015-2.455-1.988 0-.392.318-.61.835-.61.567 0 .86.342.866.779l.736-.137c-.075-.76-.624-1.322-1.602-1.322-.985 0-1.583.605-1.583 1.31 0 1.769 2.437.921 2.437 2 0 .398-.349.617-.954.617-.598 0-.916-.318-.947-.792l-.735.15zm6.255-.138c0 .53-.287.81-.748.81-.449 0-.629-.292-.629-.735v-1.938h-.742v2.038c0 .754.405 1.271 1.19 1.271.524 0 .848-.236.985-.492v.418h.685v-3.235h-.741v1.864zm2.378-1.439v-1.863h-.741v4.674h.685v-.462c.212.337.592.536 1.091.536.959 0 1.502-.766 1.502-1.689 0-.928-.543-1.695-1.502-1.695-.499 0-.854.225-1.035.499zm-.025 1.196c0-.592.343-1.04.91-1.04.561 0 .91.448.91 1.04 0 .58-.349 1.035-.91 1.035-.567 0-.91-.455-.91-1.035zm6.062-.242c0-.524.287-.817.73-.817.448 0 .61.318.61.735v1.938h.742v-2.031c0-.735-.399-1.278-1.178-1.278-.499 0-.848.2-1.097.511-.181-.311-.505-.51-.972-.51-.517 0-.829.249-.966.504v-.43h-.685v3.235h.741v-1.883c0-.492.281-.79.723-.79.443 0 .611.31.611.734v1.938h.741V57.23zm3.321-1.92a.44.44 0 00.461-.455.447.447 0 00-.461-.467.449.449 0 00-.468.467c0 .268.194.455.468.455zm-.374 3.776h.741v-3.234h-.741v3.235zm3.089-.66s-.106.031-.231.031c-.255 0-.361-.124-.361-.38v-1.633h.604v-.592h-.604v-.841h-.742v.841h-.492v.592h.492v1.708c0 .61.287.953.948.953.249 0 .386-.037.386-.037v-.642zm2.598-3.116a.44.44 0 00.461-.455.447.447 0 00-.461-.467.448.448 0 00-.468.467c0 .268.193.455.468.455zm-.374 3.776h.741v-3.234h-.741v3.235zm3.955-2.81c-.181-.274-.53-.499-1.034-.499-.954 0-1.496.767-1.496 1.695 0 .923.542 1.69 1.496 1.69.504 0 .885-.2 1.09-.537v.462h.686v-4.674h-.742v1.863zm.031 1.196c0 .58-.342 1.035-.91 1.035-.56 0-.909-.455-.909-1.035 0-.592.349-1.04.909-1.04.568 0 .91.448.91 1.04zm3.819.555c-.137.324-.43.499-.785.499-.518 0-.848-.33-.904-.842h2.462s.006-.112.006-.23c0-.947-.63-1.677-1.589-1.677-.96 0-1.608.748-1.608 1.69 0 .965.635 1.694 1.614 1.694.704 0 1.24-.38 1.471-.96l-.667-.174zm-.81-1.645c.48 0 .791.305.853.754h-1.72c.075-.443.387-.754.867-.754zm4.262 1.19v.2c0 .436-.293.81-.892.81-.392 0-.56-.156-.56-.405 0-.218.118-.38.592-.462l.86-.143zm-1.041 1.59c.486 0 .897-.157 1.128-.43.081.193.305.392.673.392.143 0 .237-.025.237-.025v-.598s-.031.006-.063.006c-.13 0-.212-.062-.212-.218v-1.303c0-.741-.448-1.209-1.395-1.209-.917 0-1.315.462-1.415.985l.71.118c.05-.311.281-.492.686-.492.442 0 .692.187.692.58v.043l-.935.137c-.854.125-1.24.486-1.24 1.035 0 .555.349.978 1.134.978zm-40.776-4.749v1.962h-1.961v.757h1.961v1.955h.752v-1.955h1.961v-.757h-1.961v-1.962h-.752z" fill="#fff"/><rect x="203.972" y="205.081" width="143.875" height="90.393" rx="6" fill="#fff" stroke="#E6E7EA" stroke-width="2"/><mask id="a" maskUnits="userSpaceOnUse" x="209" y="243" width="133" height="52"><path fill="#C4C4C4" d="M209.999 243.498h131.823v51.223H209.999z"/></mask><g opacity=".1" mask="url(#a)"><circle cx="276.022" cy="281.845" r="31.415" fill="#fff" stroke="#000" stroke-width="2"/><path d="M277.766 251.242c-1.653 1.132-5.678 3.754-8.554 5.185m18.457-3c-3.571 2.685-14.138 9.545-27.836 15.509m35.061-11.31c-4.446 3.28-16.259 11.065-27.949 15.967m-20.685 16.048c9.819-3.743 31.714-12.713 40.745-18.655 9.031-5.942 12.24-8.004 12.715-8.292m4.606 6.955c-5.776 4.086-19.235 13.102-26.859 16.476-5.824 1.971-9.618-2.358-14.979.697-5.306 2.826-6.327 7.139-8.196 8.672-.911.748-2.203 1.726-4.679 2.251m2.245 3.708c.608-.499 2.464-1.533 5.025-1.681 3.202-.186 6.585 1.857 11.661-1.025 5.076-2.882 6.256-7.691 9.336-9.363 3.08-1.673 14.551-6.871 22.872-13.085" stroke="#000" stroke-width="2" stroke-linecap="round"/><path d="M269.89 292.279c.033-1.125-.506-3.281-2.929-2.904-3.029.472-4.856.994-5.82 2.943-.963 1.949-.384 3.547 1.275 3.711 1.659.164 2.786.846 4.688-.307.855-.518 1.197-.92 1.253-1.149m-7.828 14.102c5.558-1.874 18.999-7.188 28.303-13.452m18.076-11.347c-2.641 1.861-8.528 5.872-10.948 7.026m8.477 3.051c-6.326 4.68-21.479 14.931-31.482 18.499m-27.758-30.357c2.893-.909 9.547-3.096 13.017-4.576m-12.024-3.434c2.075-.543 7.869-2.391 10.105-3.591m-5.915-5.576c3.767-1.504 11.644-4.719 13.012-5.549" stroke="#000" stroke-width="2" stroke-linecap="round"/><circle cx="265.374" cy="292.87" r="1.707" transform="rotate(13.777 265.374 292.87)" fill="#fff" stroke="#000" stroke-width="2" stroke-linecap="round"/><circle cx="294.209" cy="270.325" r="1.707" transform="rotate(13.777 294.209 270.325)" fill="#fff" stroke="#000" stroke-width="2" stroke-linecap="round"/><circle cx="266.702" cy="257.754" r="1.707" transform="rotate(13.777 266.702 257.754)" fill="#fff" stroke="#000" stroke-width="2" stroke-linecap="round"/><circle cx="293.052" cy="292.86" r="1.707" transform="rotate(13.777 293.052 292.86)" fill="#fff" stroke="#000" stroke-width="2" stroke-linecap="round"/><circle cx="280.591" cy="294.173" r="4.065" transform="rotate(13.777 280.591 294.173)" fill="#fff" stroke="#000" stroke-width="2" stroke-linecap="round"/><mask id="b" maskUnits="userSpaceOnUse" x="216.037" y="252.051" width="120" height="65" fill="#000"><path fill="#fff" d="M216.037 252.051h120v65h-120z"/><path fill-rule="evenodd" clip-rule="evenodd" d="M303.531 264.044c6.053-.662 10.201.105 11.293 2.432 2.557 5.453-12.628 17.404-33.918 27.388-21.289 9.985-40.621 13.659-43.178 8.206-1.202-2.563 1.518-6.688 6.951-11.377a17.313 17.313 0 01-.655-2.26c-.382-1.711-.552-3.527-.616-5.122-16.693 10.993-26.561 21.778-23.956 27.331 3.773 8.045 32.296 3.751 63.708-10.981s53.818-33.492 50.045-41.537c-2.567-5.474-16.594-5.359-35.193-.085a16.101 16.101 0 011.76 1.708c1.204 1.387 3.477 3.975 3.759 4.297z"/></mask><path fill-rule="evenodd" clip-rule="evenodd" d="M303.531 264.044c6.053-.662 10.201.105 11.293 2.432 2.557 5.453-12.628 17.404-33.918 27.388-21.289 9.985-40.621 13.659-43.178 8.206-1.202-2.563 1.518-6.688 6.951-11.377a17.313 17.313 0 01-.655-2.26c-.382-1.711-.552-3.527-.616-5.122-16.693 10.993-26.561 21.778-23.956 27.331 3.773 8.045 32.296 3.751 63.708-10.981s53.818-33.492 50.045-41.537c-2.567-5.474-16.594-5.359-35.193-.085a16.101 16.101 0 011.76 1.708c1.204 1.387 3.477 3.975 3.759 4.297z" fill="#fff"/><path d="M314.824 266.476l1.811-.849-1.811.849zm-11.293-2.432l-1.502 1.319.686.782 1.034-.113-.218-1.988zm-22.625 29.82l.849 1.811-.849-1.811zm-43.178 8.206l1.811-.849-1.811.849zm6.951-11.377l1.306 1.514 1.052-.908-.483-1.302-1.875.696zm-.655-2.26l-1.952.436 1.952-.436zm-.616-5.122l1.998-.08-.141-3.538-2.957 1.947 1.1 1.671zm-23.956 27.331l-1.811.849 1.811-.849zm63.708-10.981l.849 1.81-.849-1.81zm50.045-41.537l-1.81.849 1.81-.849zm-35.193-.085l-.546-1.924-3.615 1.025 2.87 2.426 1.291-1.527zm1.76 1.708l1.51-1.312-1.51 1.312zm16.863 5.88c-.947-2.019-3.036-3-5.191-3.446-2.219-.46-5.002-.468-8.13-.125l.435 3.976c2.924-.32 5.241-.275 6.883.065 1.706.354 2.236.92 2.381 1.229l3.622-1.699zm-34.88 30.048c10.737-5.036 20.004-10.597 26.303-15.643 3.136-2.513 5.633-4.974 7.19-7.251 1.483-2.17 2.504-4.771 1.387-7.154l-3.622 1.699c.161.343.243 1.281-1.067 3.197-1.237 1.809-3.388 3.982-6.389 6.387-5.977 4.788-14.948 10.194-25.5 15.143l1.698 3.622zm-45.837 7.244c1.114 2.377 3.788 3.281 6.43 3.562 2.783.296 6.323-.001 10.318-.76 8.021-1.525 18.339-5.004 29.089-10.046l-1.698-3.622c-10.539 4.943-20.531 8.293-28.138 9.738-3.818.726-6.921.949-9.148.712-2.366-.251-3.068-.933-3.232-1.282l-3.621 1.698zm7.454-13.74c-2.786 2.405-4.993 4.76-6.354 6.941-1.303 2.089-2.152 4.558-1.1 6.799l3.621-1.698c-.151-.322-.241-1.198.873-2.984 1.057-1.695 2.927-3.746 5.573-6.03l-2.613-3.028zm-1.3-.31c.215.966.464 1.8.732 2.52l3.75-1.392a15.276 15.276 0 01-.578-2l-3.904.872zm-.662-5.478c.066 1.664.245 3.609.662 5.478l3.904-.872c-.347-1.553-.508-3.241-.57-4.766l-3.996.16zm.898-1.751c-8.423 5.548-15.221 11.103-19.611 16.049-2.189 2.467-3.856 4.868-4.794 7.116-.934 2.236-1.247 4.586-.262 6.686l3.621-1.698c-.317-.677-.374-1.757.332-3.448.702-1.68 2.056-3.703 4.095-6.001 4.067-4.583 10.549-9.917 18.819-15.363l-2.2-3.341zm-24.667 29.851c1.402 2.99 4.833 4.365 8.672 4.883 3.973.536 9.094.263 14.955-.708 11.75-1.946 26.911-6.77 42.741-14.195l-1.698-3.621c-15.582 7.308-30.389 11.997-41.697 13.87-5.668.938-10.348 1.151-13.766.69-3.552-.479-5.101-1.585-5.586-2.617l-3.621 1.698zm66.368-10.02c15.817-7.418 29.428-15.876 38.648-23.549 4.598-3.827 8.193-7.531 10.407-10.883 2.134-3.232 3.37-6.741 1.952-9.764l-3.621 1.698c.468 1 .318 2.852-1.669 5.861-1.907 2.888-5.17 6.303-9.628 10.013-8.893 7.401-22.192 15.689-37.787 23.003l1.698 3.621zm51.007-44.196c-.958-2.043-2.88-3.334-5.127-4.107-2.255-.776-5.074-1.119-8.27-1.117-6.404.004-14.756 1.399-24.153 4.064l1.091 3.848c9.203-2.609 17.164-3.909 23.065-3.912 2.957-.002 5.288.322 6.966.9 1.687.58 2.481 1.328 2.807 2.022l3.621-1.698zm-33.734 1.16a18.307 18.307 0 00-1.979-1.924l-2.582 3.055a14.366 14.366 0 011.541 1.492l3.02-2.623zm3.752 4.289c-.284-.323-2.552-2.907-3.752-4.289l-3.02 2.623c1.208 1.392 3.485 3.985 3.767 4.305l3.005-2.639z" fill="#000" mask="url(#b)"/></g><path d="M204.17 240.131h143.775" stroke="#E6E7EA" stroke-width="2"/><rect x="219.039" y="220.147" width="48.209" height="6.026" rx="3.013" stroke="#E5E5E5" stroke-width="2"/><rect x="305.665" y="215.627" width="30.131" height="15.066" rx="7.533" stroke="#E5E5E5" stroke-width="2"/><rect x="203.875" y="100.688" width="143.875" height="90.393" rx="6" fill="#fff" stroke="#E6E7EA" stroke-width="2"/><path d="M204.073 135.738h143.774" stroke="#E6E7EA" stroke-width="2"/><rect x="218.941" y="115.755" width="48.209" height="6.026" rx="3.013" stroke="#E5E5E5" stroke-width="2"/><rect x="305.567" y="111.234" width="30.131" height="15.066" rx="7.533" stroke="#E5E5E5" stroke-width="2"/><rect x="47" y="205.081" width="143.875" height="90.393" rx="6" fill="#fff" stroke="#E6E7EA" stroke-width="2"/><path d="M47.198 240.132h143.774" stroke="#E6E7EA" stroke-width="2"/><rect x="62.066" y="220.147" width="48.209" height="6.026" rx="3.013" stroke="#E5E5E5" stroke-width="2"/><rect x="148.693" y="215.627" width="30.131" height="15.066" rx="7.533" stroke="#E5E5E5" stroke-width="2"/><rect x="47" y="100.688" width="143.875" height="90.393" rx="6" fill="#0071E1"/><rect opacity=".1" x="144.424" y="111.514" width="35.181" height="17.32" rx="8.66" fill="#fff"/><path d="M168.044 122.115h-1.182V117.5h-.742l-1.334.303v.606h1.152v3.706h-1.182v.765h3.288v-.765zm1.109-3.092v-.689h1.932c-.894 1.235-1.409 2.705-1.689 4.546h.962c.273-1.811.644-3.061 1.781-4.562v-.818h-3.88v1.523h.894z" fill="#fff"/><path fill-rule="evenodd" clip-rule="evenodd" d="M159.038 123.422a.54.54 0 11-1.082 0v-.541c0-.585-.081-1.093-1.007-1.379a2.153 2.153 0 01-1.699.837 2.15 2.15 0 01-1.698-.837c-.926.286-1.008.794-1.008 1.379v.541a.54.54 0 11-1.082 0v-.541c0-1.009.35-1.88 1.66-2.344a2.168 2.168 0 01-.036-.363v-1.623a2.164 2.164 0 114.329 0v1.623c0 .125-.017.244-.037.363 1.31.464 1.66 1.335 1.66 2.344v.541zm-2.705-4.871a1.083 1.083 0 00-2.165 0v1.623a1.083 1.083 0 102.165 0v-1.623z" fill="#fff"/><path d="M66.48 115.9l-2.02 5.5h-.02l-2.01-5.5h-1.37l2.74 7.1h1.26l2.75-7.1h-1.33zm7.925 7.1l-1.63-2.95c.94-.3 1.39-1.06 1.39-2 0-1.24-.77-2.15-2.34-2.15h-3.12v7.1h1.21v-2.8h1.63l1.44 2.8h1.42zm-1.46-4.95c0 .61-.36 1.03-1.11 1.03h-1.92v-2.06h1.92c.75 0 1.11.42 1.11 1.03zm6.976 3.54l-1.42-3.78h-1.26l2.11 5.19h1.12l2.12-5.19h-1.23l-1.44 3.78zm4.04-4.65c.43 0 .74-.3.74-.73 0-.44-.31-.75-.74-.75-.44 0-.75.31-.75.75 0 .43.31.73.75.73zm-.6 6.06h1.19v-5.19h-1.19V123zm6.347-4.51c-.29-.44-.85-.8-1.66-.8-1.53 0-2.4 1.23-2.4 2.72 0 1.48.87 2.71 2.4 2.71.81 0 1.42-.32 1.75-.86v.74h1.1v-7.5h-1.19v2.99zm.05 1.92c0 .93-.55 1.66-1.46 1.66-.9 0-1.46-.73-1.46-1.66 0-.95.56-1.67 1.46-1.67.91 0 1.46.72 1.46 1.67zm7.367.34s.01-.18.01-.37c0-1.52-1.01-2.69-2.55-2.69-1.54 0-2.58 1.2-2.58 2.71 0 1.55 1.02 2.72 2.59 2.72 1.21 0 2.13-.73 2.44-1.76h-1.2c-.19.46-.66.74-1.21.74-.83 0-1.36-.53-1.45-1.35h3.95zm-2.54-2.09c.77 0 1.27.49 1.37 1.21h-2.76c.12-.71.62-1.21 1.39-1.21zm5.989 4.46c1.66 0 2.7-1.25 2.7-2.71s-1.04-2.72-2.7-2.72c-1.65 0-2.69 1.26-2.69 2.72 0 1.46 1.04 2.71 2.69 2.71zm-1.5-2.71c0-1.01.64-1.67 1.5-1.67.87 0 1.51.66 1.51 1.67 0 1-.64 1.66-1.51 1.66-.86 0-1.5-.66-1.5-1.66zm7.56 0c0 1.5 1.06 2.71 2.59 2.71 1.54 0 2.32-1.07 2.46-2h-1.22c-.14.56-.61.95-1.25.95-.85 0-1.39-.69-1.39-1.66 0-.98.54-1.67 1.39-1.67.64 0 1.11.39 1.25.95h1.22c-.14-.93-.92-2-2.46-2-1.53 0-2.59 1.21-2.59 2.72zm9.204.15v.33c0 .7-.47 1.3-1.43 1.3-.57 0-.92-.19-.92-.68 0-.36.24-.63.97-.74l1.38-.21zm-1.67 2.56c.83 0 1.43-.27 1.78-.8 0 .42.06.68.07.68h1.13c-.09-.21-.15-.64-.15-.98v-2.39c0-1.19-.72-1.94-2.24-1.94-1.57 0-2.19.84-2.29 1.75h1.16c.08-.48.45-.77 1.1-.77.71 0 1.11.32 1.11.95v.08l-1.5.21c-1.37.19-1.99.76-1.99 1.64 0 .89.53 1.57 1.82 1.57zm5.431-.12v-7.5h-1.19v7.5h1.19zm2.627 0v-7.5h-1.19v7.5h1.19zm3.217.12c1.45 0 2.17-.74 2.17-1.62 0-2.1-2.98-1.21-2.98-2.22 0-.38.3-.62.89-.62.61 0 .89.38.93.75h1.14c-.05-.7-.55-1.72-2.04-1.72-1.28 0-2.06.76-2.06 1.63 0 2.11 2.98 1.13 2.98 2.23 0 .36-.34.59-.96.59-.73 0-1.09-.35-1.12-.8h-1.15c.06.95.68 1.78 2.2 1.78z" fill="#fff"/><g opacity=".4" stroke="#fff"><circle cx="84.346" cy="158.602" r="12.449" stroke-width="1.078"/><circle cx="118.58" cy="158.602" r="12.449" stroke-width="1.078"/><path d="M155.069 161.025c0 .655-.53 1.185-1.185 1.185h-5.332c-.655 0-1.185-.53-1.185-1.185v-4.739c0-.655.53-1.185 1.185-1.185h5.332c.655 0 1.185.53 1.185 1.185v4.739zm2.981.593h-.107l-2.856-1.472v-2.981l2.856-1.472h.107v5.925z" stroke-width="1.095"/><circle cx="152.814" cy="158.602" r="12.449" stroke-width="1.078"/><path d="M84.345 153.156c-.855 0-1.556.701-1.556 1.556v2.723c0 .856.7 1.557 1.556 1.557.856 0 1.556-.701 1.556-1.557v-2.723c0-.855-.7-1.556-1.556-1.556zm3.891 4.668c0 2.109-1.748 3.83-3.89 3.83m0 0c-2.143 0-3.89-1.721-3.89-3.83m3.89 3.83v3.173m40.563-7.054c.196.169.284.522.284 1.138 0 .523-.067 1.059-.101 1.236-.141.583-.594.838-.953.781-.099-.013-.506-.098-1.155-.222a49.755 49.755 0 00-1.489-.27c-.316-.059-.574-.33-.668-.695-.051-.193-.234-.989-.315-1.331-.262-.086-.939-.261-2.157-.261-1.203-.02-1.875.124-2.148.203-.079.372-.248 1.132-.334 1.37-.099.356-.34.62-.629.675-.259.063-2.497.465-2.674.493a.705.705 0 01-.567-.165.95.95 0 01-.325-.578 7.984 7.984 0 01-.101-1.236c0-.616.094-.968.304-1.148 1.161-.998 3.344-1.495 6.504-1.495 4.292 0 5.933.94 6.524 1.505z" stroke-width="1.078"/></g></svg>