<svg width="454" height="362" fill="none" xmlns="http://www.w3.org/2000/svg"><rect x="44" y="33" width="373" height="296" rx="12" fill="#fff" stroke="#E6E7EA" stroke-width="2"/><rect x="76" y="97" width="309" height="72" rx="8" fill="#fff" stroke="#E6E7EA" stroke-width="2"/><ellipse cx="110.042" cy="133" rx="17.958" ry="18" stroke="#E5E5E5" stroke-width="2"/><mask id="a" maskUnits="userSpaceOnUse" x="92" y="115" width="36" height="36"><ellipse cx="109.958" cy="133" rx="17.958" ry="18" fill="#FFC600"/></mask><g mask="url(#a)"><path d="M113.15 139.77c0 .983-.04 1.733.06 2.809 1.171 3.142 9.048 2.259 9.414 8.319H97.191c.366-6.06 8.277-5.177 9.449-8.319.099-1.076.062-1.826.062-2.809-3.936-.434-5.77-1.579-5.847-1.629a.435.435 0 01-.19-.283.422.422 0 01.081-.324c1.591-2.15 1.644-3.092 1.056-6.052-.189-.956-.189-1.375-.189-2.049v0c0-4.728 2.947-7.67 7.691-7.67.979 0 2.449.31 3.954 1.793 3.555.11 4.973 3.058 4.973 5.877 0 .415 0 1.432-.328 2.399-.828 2.44-.451 3.623 1.164 5.689a.416.416 0 01.082.337.433.433 0 01-.19.296l-.002.002c-.105.064-1.9 1.18-5.807 1.614z" stroke="#E5E5E5" stroke-width="2"/></g><rect x="144" y="121" width="172" height="8" rx="4" fill="#fff" stroke="#E6E7EA" stroke-width="2"/><rect x="144" y="137" width="153" height="8" rx="4" fill="#fff" stroke="#E6E7EA" stroke-width="2"/><rect x="76" y="1" width="309" height="72" rx="8" fill="#fff" stroke="#E6E7EA" stroke-width="2"/><circle cx="109.998" cy="37.001" r="17.998" stroke="#E5E5E5" stroke-width="2"/><mask id="b" maskUnits="userSpaceOnUse" x="92" y="19" width="36" height="36"><circle cx="110" cy="36.998" r="17.998" fill="#2693FF"/></mask><g mask="url(#b)"><path d="M114.164 48.001c-.143-1.26-.086-2.14-.086-3.29.7-.3 2.474-2.207 2.683-3.819.551-.036 1.419-.473 1.674-2.2.134-.928-.408-1.45-.742-1.615.895-2.195 2.755-8.986-3.436-9.688-.64-.913-2.272-1.374-4.391-1.374-8.486.128-9.508 5.226-7.647 11.062-.333.165-.876.687-.741 1.615.258 1.727 1.123 2.164 1.673 2.2.21 1.612 2.032 3.52 2.736 3.819 0 1.15.053 2.03-.09 3.29-1.677 3.682-13.524 2.647-14.048 9.747h36.414c-.524-7.1-12.322-6.065-13.999-9.747z" stroke="#E5E5E5" stroke-width="2"/></g><rect x="144" y="25" width="148" height="8" rx="4" fill="#fff" stroke="#E6E7EA" stroke-width="2"/><rect x="144" y="41" width="105" height="8" rx="4" fill="#fff" stroke="#E6E7EA" stroke-width="2"/><rect x="76" y="193" width="309" height="72" rx="8" fill="#fff" stroke="#E6E7EA" stroke-width="2"/><circle cx="109.998" cy="229.001" r="17.998" stroke="#E5E5E5" stroke-width="2"/><mask id="c" maskUnits="userSpaceOnUse" x="92" y="211" width="36" height="36"><circle cx="110" cy="228.998" r="17.998" fill="#2693FF"/></mask><g mask="url(#c)"><path d="M114.164 240.001c-.143-1.26-.086-2.139-.086-3.29.7-.299 2.474-2.207 2.683-3.819.551-.036 1.419-.473 1.674-2.2.134-.928-.408-1.45-.742-1.615.895-2.195 2.755-8.986-3.436-9.688-.64-.913-2.272-1.374-4.391-1.374-8.486.128-9.508 5.226-7.647 11.062-.333.165-.876.687-.741 1.615.258 1.727 1.123 2.164 1.673 2.2.21 1.612 2.032 3.52 2.736 3.819 0 1.151.053 2.03-.09 3.29-1.677 3.682-13.524 2.647-14.048 9.747h36.414c-.524-7.1-12.322-6.065-13.999-9.747z" stroke="#E5E5E5" stroke-width="2"/></g><rect x="144" y="217" width="148" height="8" rx="4" fill="#fff" stroke="#E6E7EA" stroke-width="2"/><rect x="144" y="233" width="105" height="8" rx="4" fill="#fff" stroke="#E6E7EA" stroke-width="2"/><rect x="76" y="289" width="309" height="72" rx="8" fill="#fff" stroke="#E6E7EA" stroke-width="2"/><ellipse cx="110.042" cy="325" rx="17.958" ry="18" stroke="#E5E5E5" stroke-width="2"/><mask id="d" maskUnits="userSpaceOnUse" x="92" y="307" width="36" height="36"><ellipse cx="109.958" cy="325" rx="17.958" ry="18" fill="#FFC600"/></mask><g mask="url(#d)"><path d="M113.15 331.77c0 .983-.04 1.733.06 2.809 1.171 3.142 9.048 2.259 9.414 8.319H97.191c.366-6.06 8.277-5.177 9.449-8.319.099-1.076.062-1.826.062-2.809-3.936-.434-5.77-1.579-5.847-1.629a.435.435 0 01-.19-.283.422.422 0 01.081-.324c1.591-2.15 1.644-3.092 1.056-6.052-.189-.956-.189-1.375-.189-2.049v0c0-4.728 2.947-7.67 7.691-7.67.979 0 2.449.31 3.954 1.793 3.555.11 4.973 3.058 4.973 5.877 0 .415 0 1.432-.328 2.399-.828 2.44-.451 3.623 1.164 5.689a.416.416 0 01.082.337.433.433 0 01-.19.296l-.002.002c-.105.064-1.9 1.18-5.807 1.614z" stroke="#E5E5E5" stroke-width="2"/></g><rect x="144" y="313" width="172" height="8" rx="4" fill="#fff" stroke="#E6E7EA" stroke-width="2"/><rect x="144" y="329" width="153" height="8" rx="4" fill="#fff" stroke="#E6E7EA" stroke-width="2"/><g filter="url(#filter0_d)"><path fill-rule="evenodd" clip-rule="evenodd" d="M32 142c0-8.837 7.163-16 16-16h366c8.837 0 16 7.163 16 16v78c0 8.837-7.163 16-16 16H48c-8.837 0-16-7.163-16-16v-78z" fill="#fff"/></g><path d="M97.624 153.64h-8.528v1.84h3.296V165h1.936v-9.52h3.296v-1.84zm3.788 11.552c2.656 0 4.32-2 4.32-4.336 0-2.336-1.664-4.352-4.32-4.352-2.64 0-4.304 2.016-4.304 4.352 0 2.336 1.664 4.336 4.304 4.336zm-2.4-4.336c0-1.616 1.024-2.672 2.4-2.672 1.392 0 2.416 1.056 2.416 2.672 0 1.6-1.024 2.656-2.416 2.656-1.376 0-2.4-1.056-2.4-2.656zm15.716-.624c0-1.344.736-2.096 1.872-2.096 1.152 0 1.568.816 1.568 1.888V165h1.904v-5.216c0-1.888-1.024-3.28-3.024-3.28-1.28 0-2.176.512-2.816 1.312-.464-.8-1.296-1.312-2.496-1.312-1.328 0-2.128.64-2.48 1.296v-1.104h-1.76V165h1.904v-4.832c0-1.264.72-2.032 1.856-2.032 1.136 0 1.568.8 1.568 1.888V165h1.904v-4.768zm7.533 2.544l-.88 4.32h1.696l1.312-4.32h-2.128zm10.238-4.048v-3.296h2.784c1.264 0 1.84.672 1.84 1.664 0 .992-.576 1.632-1.84 1.632h-2.784zm0 1.792h2.768c2.64 0 3.808-1.488 3.808-3.424s-1.104-3.456-3.808-3.456h-4.704V165h1.936v-4.48zm12.461-3.888s-.192-.016-.272-.016c-1.44 0-2.144.704-2.448 1.232v-1.152h-1.76V165h1.904v-4.32c0-1.6.8-2.304 2.144-2.304.208 0 .432.032.432.032v-1.776zm4.78 8.56c2.656 0 4.32-2 4.32-4.336 0-2.336-1.664-4.352-4.32-4.352-2.64 0-4.304 2.016-4.304 4.352 0 2.336 1.664 4.336 4.304 4.336zm-2.4-4.336c0-1.616 1.024-2.672 2.4-2.672 1.392 0 2.416 1.056 2.416 2.672 0 1.6-1.024 2.656-2.416 2.656-1.376 0-2.4-1.056-2.4-2.656zm14.436-3.072c-.464-.704-1.36-1.28-2.656-1.28-2.448 0-3.84 1.968-3.84 4.352 0 2.368 1.392 4.336 3.84 4.336 1.296 0 2.272-.512 2.8-1.376V165h1.76v-12h-1.904v4.784zm.08 3.072c0 1.488-.88 2.656-2.336 2.656-1.44 0-2.336-1.168-2.336-2.656 0-1.52.896-2.672 2.336-2.672 1.456 0 2.336 1.152 2.336 2.672zm9.5.624c0 1.36-.736 2.08-1.92 2.08-1.152 0-1.616-.752-1.616-1.888v-4.976h-1.904v5.232c0 1.936 1.04 3.264 3.056 3.264 1.344 0 2.176-.608 2.528-1.264V165h1.76v-8.304h-1.904v4.784zm7.786 2.032c-1.36 0-2.224-1.104-2.224-2.656 0-1.568.864-2.672 2.224-2.672 1.024 0 1.792.624 2.016 1.52l1.824-.448c-.432-1.424-1.6-2.752-3.824-2.752-2.448 0-4.144 1.936-4.144 4.352 0 2.4 1.696 4.336 4.144 4.336 2.224 0 3.392-1.328 3.824-2.752l-1.824-.448c-.224.896-.992 1.52-2.016 1.52zm9.207-.208s-.272.08-.592.08c-.656 0-.928-.32-.928-.976v-4.192h1.552v-1.52h-1.552v-2.16h-1.904v2.16h-1.264v1.52h1.264v4.384c0 1.568.736 2.448 2.432 2.448.64 0 .992-.096.992-.096v-1.648zm12.941-3.072c0-1.344.736-2.096 1.872-2.096 1.152 0 1.568.816 1.568 1.888V165h1.904v-5.216c0-1.888-1.024-3.28-3.024-3.28-1.28 0-2.176.512-2.816 1.312-.464-.8-1.296-1.312-2.496-1.312-1.328 0-2.128.64-2.48 1.296v-1.104h-1.76V165h1.904v-4.832c0-1.264.72-2.032 1.856-2.032 1.136 0 1.568.8 1.568 1.888V165h1.904v-4.768zm12.685.88v.512c0 1.12-.752 2.08-2.288 2.08-1.008 0-1.44-.4-1.44-1.04 0-.56.304-.976 1.52-1.184l2.208-.368zm-2.672 4.08c1.248 0 2.304-.4 2.896-1.104.208.496.784 1.008 1.728 1.008.368 0 .608-.064.608-.064v-1.536s-.08.016-.16.016c-.336 0-.544-.16-.544-.56v-3.344c0-1.904-1.152-3.104-3.584-3.104-2.352 0-3.376 1.184-3.632 2.528l1.824.304c.128-.8.72-1.264 1.76-1.264 1.136 0 1.776.48 1.776 1.488v.112l-2.4.352c-2.192.32-3.184 1.248-3.184 2.656 0 1.424.896 2.512 2.912 2.512zm8.672-8.496h-1.76V165h1.904v-4.816c0-1.296.752-2.048 1.952-2.048 1.136 0 1.648.752 1.648 1.888V165h1.904v-5.216c0-1.936-1.072-3.28-3.088-3.28-1.361 0-2.208.64-2.56 1.296v-1.104zm13 4.416v.512c0 1.12-.752 2.08-2.288 2.08-1.008 0-1.44-.4-1.44-1.04 0-.56.304-.976 1.52-1.184l2.208-.368zm-2.672 4.08c1.248 0 2.304-.4 2.896-1.104.208.496.784 1.008 1.728 1.008.368 0 .608-.064.608-.064v-1.536s-.08.016-.16.016c-.336 0-.544-.16-.544-.56v-3.344c0-1.904-1.152-3.104-3.584-3.104-2.352 0-3.376 1.184-3.632 2.528l1.824.304c.128-.8.72-1.264 1.76-1.264 1.136 0 1.776.48 1.776 1.488v.112l-2.4.352c-2.192.32-3.184 1.248-3.184 2.656 0 1.424.896 2.512 2.912 2.512zm10.096-2.64c2.048 0 3.328-1.328 3.328-3.024 0-.4-.08-.768-.208-1.12 0 0-.032-.112-.032-.352 0-.496.336-.784.88-.784.272 0 .352.016.352.016v-1.648s-.192-.032-.464-.032c-.944 0-1.728.512-2.064 1.312a3.898 3.898 0 00-1.792-.416c-2.048 0-3.328 1.328-3.328 3.024 0 .848.288 1.52.8 2.048a1.966 1.966 0 00-.992 1.728c0 .272.064 1.024.688 1.472-.304.208-.896.704-.896 1.616 0 1.44 1.056 2.272 3.824 2.272s3.968-1.344 3.968-2.688c0-1.328-.688-2.48-2.672-2.48h-2.72c-.304 0-.576-.16-.576-.544 0-.448.432-.656.512-.672.384.144.912.272 1.392.272zm-1.584-3.024c0-.832.576-1.424 1.584-1.424s1.584.592 1.584 1.424-.576 1.424-1.584 1.424-1.584-.592-1.584-1.424zm2.928 5.664c.608 0 .976.288.976.8 0 .736-.784 1.088-2.256 1.088-1.616 0-2.112-.32-2.112-1.04 0-.16.063-.592.464-.848h2.928zm9.776-2.912c-.352.832-1.104 1.28-2.016 1.28-1.328 0-2.176-.848-2.32-2.16h6.32s.016-.288.016-.592c0-2.432-1.616-4.304-4.08-4.304s-4.128 1.92-4.128 4.336c0 2.48 1.632 4.352 4.144 4.352 1.808 0 3.184-.976 3.776-2.464l-1.712-.448zm-2.08-4.224c1.232 0 2.032.784 2.192 1.936h-4.416c.192-1.136.992-1.936 2.224-1.936zm10.302-1.424s-.192-.016-.272-.016c-1.44 0-2.144.704-2.448 1.232v-1.152h-1.76V165h1.904v-4.32c0-1.6.8-2.304 2.144-2.304.208 0 .432.032.432.032v-1.776zM98.268 182.06h-1.022v4.41h-5.81v-4.41h-1.022V192h1.022v-4.564h5.81V192h1.022v-9.94zm7.891 7.728c-.364.882-1.162 1.484-2.254 1.484-1.498 0-2.436-1.106-2.534-2.548h5.922s.014-.224.014-.378c0-2.016-1.302-3.64-3.43-3.64-2.142 0-3.5 1.75-3.5 3.724 0 2.002 1.26 3.738 3.514 3.738 1.526 0 2.632-.84 3.136-2.002l-.868-.378zm-2.282-4.186c1.4 0 2.31.938 2.436 2.31h-4.914c.168-1.316 1.092-2.31 2.478-2.31zm4.947 8.554c-.126 0-.238-.014-.238-.014v.91s.084.014.28.014c1.008 0 1.932-.462 2.59-2.016l3.444-8.176h-1.05l-2.45 5.978-2.422-5.978H107.9l2.982 7.126-.308.756c-.462 1.092-1.022 1.4-1.75 1.4zm6.178-3.472l-.728 2.842h.882l1.022-2.842h-1.176zM128.269 192h1.036l2.492-7.126h-1.05l-1.946 5.95-1.932-5.95h-1.036l-1.96 5.95-1.918-5.95h-1.064l2.464 7.126h1.036l1.946-5.866h.014l1.918 5.866zm10.019-2.212c-.364.882-1.162 1.484-2.254 1.484-1.498 0-2.436-1.106-2.534-2.548h5.922s.014-.224.014-.378c0-2.016-1.302-3.64-3.43-3.64-2.142 0-3.5 1.75-3.5 3.724 0 2.002 1.26 3.738 3.514 3.738 1.526 0 2.632-.84 3.136-2.002l-.868-.378zm-2.282-4.186c1.4 0 2.31.938 2.436 2.31h-4.914c.168-1.316 1.092-2.31 2.478-2.31zm6.227-3.542h-.98v4.144h.98v-4.144zm5.83 2.758s-.168-.014-.238-.014c-1.316 0-2.016.686-2.282 1.176v-1.106h-.952V192h.994v-4.046c0-1.484.91-2.212 2.128-2.212.182 0 .35.014.35.014v-.938zm6.372 4.97c-.364.882-1.162 1.484-2.254 1.484-1.498 0-2.436-1.106-2.534-2.548h5.922s.014-.224.014-.378c0-2.016-1.302-3.64-3.43-3.64-2.142 0-3.5 1.75-3.5 3.724 0 2.002 1.26 3.738 3.514 3.738 1.526 0 2.632-.84 3.136-2.002l-.868-.378zm-2.282-4.186c1.4 0 2.31.938 2.436 2.31h-4.914c.168-1.316 1.092-2.31 2.478-2.31zm12.439-.784s-.168-.014-.238-.014c-1.316 0-2.016.686-2.282 1.176v-1.106h-.952V192h.994v-4.046c0-1.484.91-2.212 2.128-2.212.182 0 .35.014.35.014v-.938zm6.372 4.97c-.364.882-1.162 1.484-2.254 1.484-1.498 0-2.436-1.106-2.534-2.548h5.922s.014-.224.014-.378c0-2.016-1.302-3.64-3.43-3.64-2.142 0-3.5 1.75-3.5 3.724 0 2.002 1.26 3.738 3.514 3.738 1.526 0 2.632-.84 3.136-2.002l-.868-.378zm-2.282-4.186c1.4 0 2.31.938 2.436 2.31h-4.914c.168-1.316 1.092-2.31 2.478-2.31zm6.325 6.398v-10.5h-.994V192h.994zm7.701-2.212c-.364.882-1.162 1.484-2.254 1.484-1.498 0-2.436-1.106-2.534-2.548h5.922s.014-.224.014-.378c0-2.016-1.302-3.64-3.43-3.64-2.142 0-3.5 1.75-3.5 3.724 0 2.002 1.26 3.738 3.514 3.738 1.526 0 2.632-.84 3.136-2.002l-.868-.378zm-2.282-4.186c1.4 0 2.31.938 2.436 2.31h-4.914c.168-1.316 1.092-2.31 2.478-2.31zm8.005-.042c1.344 0 2.016.602 2.016 1.806v.196l-2.492.322c-1.848.238-2.688 1.008-2.688 2.156 0 1.288.798 2.128 2.492 2.128 1.162 0 2.198-.476 2.744-1.274.112.714.7 1.134 1.344 1.134.308 0 .448-.042.448-.042v-.826s-.056.028-.252.028c-.392 0-.602-.238-.602-.686v-3.122c0-1.582-.91-2.674-2.968-2.674-1.876 0-2.758.896-2.996 2.072l.938.196c.196-1.008.966-1.414 2.016-1.414zm2.016 2.786v.826c0 1.008-.854 2.17-2.548 2.17-.798 0-1.652-.28-1.652-1.302 0-.714.476-1.19 1.834-1.372l2.366-.322zm2.787 1.638c.154 1.162.966 2.184 2.912 2.184 1.932 0 2.842-1.022 2.842-2.1 0-2.996-4.382-1.33-4.382-3.304 0-.644.546-1.19 1.652-1.19 1.134 0 1.666.616 1.75 1.386l.952-.322c-.196-.91-.91-1.932-2.674-1.932-1.694 0-2.646 1.008-2.646 2.1 0 2.926 4.382 1.246 4.382 3.29 0 .714-.672 1.204-1.876 1.204-1.218 0-1.834-.602-1.918-1.498l-.994.182zm8.203-6.874c.406 0 .714-.28.714-.686a.691.691 0 00-.714-.714c-.42 0-.714.294-.714.714 0 .406.294.686.714.686zm-.504 8.89h.994v-7.126h-.994V192zm4.397-7.126h-.952V192h.994v-4.242c0-1.428.938-2.184 2.142-2.184 1.274 0 1.876.784 1.876 2.072V192h.994v-4.55c0-1.582-.938-2.744-2.702-2.744-1.386 0-2.1.798-2.352 1.26v-1.092zm10.131 5.012c1.764 0 2.842-1.106 2.842-2.59 0-.406-.084-.77-.238-1.106a1.617 1.617 0 01-.084-.532c0-.504.378-.812.868-.812.238 0 .392.014.392.014v-.91c-.028 0-.14-.014-.364-.014-.84 0-1.526.476-1.722 1.218-.448-.28-1.022-.448-1.694-.448-1.764 0-2.842 1.106-2.842 2.59 0 .742.266 1.386.756 1.848-.434.224-.952.644-.952 1.428 0 .574.238.98.616 1.232-.21.126-.798.574-.798 1.414 0 1.26.924 1.96 3.304 1.96 2.492 0 3.43-1.05 3.43-2.156 0-1.05-.63-1.82-2.282-1.82h-2.59c-.518 0-.742-.308-.742-.7 0-.658.644-.882.686-.896.406.182.882.28 1.414.28zm0-.868c-1.162 0-1.876-.658-1.876-1.722s.714-1.722 1.876-1.722 1.876.658 1.876 1.722-.714 1.722-1.876 1.722zm1.33 3.108c.672 0 1.218.224 1.218.896 0 .77-.756 1.218-2.464 1.218-1.624 0-2.338-.336-2.338-1.12 0-.504.364-.882.686-.994h2.898zm10.309-1.064s-.322.07-.63.07c-.686 0-.98-.364-.98-1.12v-4.298h1.638v-.84h-1.638v-2.03h-.994v2.03h-1.358v.84h1.358v4.368c0 1.288.644 1.946 1.848 1.946.504 0 .756-.07.756-.07v-.896zm2.622-9.562h-.994V192h.994v-4.214c0-1.456.938-2.212 2.142-2.212 1.274 0 1.876.784 1.876 2.072V192h.994v-4.55c0-1.582-.938-2.744-2.702-2.744-1.33 0-2.058.728-2.31 1.162V181.5zm10.047 4.06c1.344 0 2.016.602 2.016 1.806v.196l-2.492.322c-1.848.238-2.688 1.008-2.688 2.156 0 1.288.798 2.128 2.492 2.128 1.162 0 2.198-.476 2.744-1.274.112.714.7 1.134 1.344 1.134.308 0 .448-.042.448-.042v-.826s-.056.028-.252.028c-.392 0-.602-.238-.602-.686v-3.122c0-1.582-.91-2.674-2.968-2.674-1.876 0-2.758.896-2.996 2.072l.938.196c.196-1.008.966-1.414 2.016-1.414zm2.016 2.786v.826c0 1.008-.854 2.17-2.548 2.17-.798 0-1.652-.28-1.652-1.302 0-.714.476-1.19 1.834-1.372l2.366-.322zm6.179 2.716s-.322.07-.63.07c-.686 0-.98-.364-.98-1.12v-4.298h1.638v-.84h-1.638v-2.03h-.994v2.03h-1.358v.84h1.358v4.368c0 1.288.644 1.946 1.848 1.946.504 0 .756-.07.756-.07v-.896zm7.77-.21l-2.422-5.978h-1.078l2.982 7.126h1.008l3.01-7.126h-1.036l-2.464 5.978zm5.449-7.742c.406 0 .714-.28.714-.686a.691.691 0 00-.714-.714c-.42 0-.714.294-.714.714 0 .406.294.686.714.686zm-.504 8.89h.994v-7.126h-.994V192zm8.933-5.838c-.476-.854-1.358-1.456-2.66-1.456-2.184 0-3.36 1.764-3.36 3.738 0 1.96 1.176 3.724 3.36 3.724 1.302 0 2.212-.574 2.702-1.484V192h.952v-10.5h-.994v4.662zm.042 2.282c0 1.554-.91 2.828-2.506 2.828-1.596 0-2.548-1.274-2.548-2.828 0-1.582.952-2.842 2.548-2.842s2.506 1.26 2.506 2.842zm8.648 1.344c-.364.882-1.162 1.484-2.254 1.484-1.498 0-2.436-1.106-2.534-2.548h5.922s.014-.224.014-.378c0-2.016-1.302-3.64-3.43-3.64-2.142 0-3.5 1.75-3.5 3.724 0 2.002 1.26 3.738 3.514 3.738 1.526 0 2.632-.84 3.136-2.002l-.868-.378zm-2.282-4.186c1.4 0 2.31.938 2.436 2.31h-4.914c.168-1.316 1.092-2.31 2.478-2.31zm8.425 6.566c2.254 0 3.64-1.764 3.64-3.724 0-1.96-1.386-3.738-3.64-3.738-2.24 0-3.626 1.778-3.626 3.738s1.386 3.724 3.626 3.724zm-2.618-3.724c0-1.61 1.036-2.842 2.618-2.842 1.596 0 2.632 1.232 2.632 2.842 0 1.596-1.036 2.828-2.632 2.828-1.582 0-2.618-1.232-2.618-2.828zm14.783 2.828c-1.498 0-2.506-1.19-2.506-2.828 0-1.652 1.008-2.842 2.506-2.842 1.148 0 1.932.63 2.268 1.624l.924-.364c-.434-1.204-1.526-2.156-3.192-2.156-2.17 0-3.514 1.778-3.514 3.738 0 1.946 1.344 3.724 3.514 3.724 1.666 0 2.758-.952 3.192-2.156l-.924-.364c-.336.994-1.12 1.624-2.268 1.624zm7.636-5.712c1.344 0 2.016.602 2.016 1.806v.196l-2.492.322c-1.848.238-2.688 1.008-2.688 2.156 0 1.288.798 2.128 2.492 2.128 1.162 0 2.198-.476 2.744-1.274.112.714.7 1.134 1.344 1.134.308 0 .448-.042.448-.042v-.826s-.056.028-.252.028c-.392 0-.602-.238-.602-.686v-3.122c0-1.582-.91-2.674-2.968-2.674-1.876 0-2.758.896-2.996 2.072l.938.196c.196-1.008.966-1.414 2.016-1.414zm2.016 2.786v.826c0 1.008-.854 2.17-2.548 2.17-.798 0-1.652-.28-1.652-1.302 0-.714.476-1.19 1.834-1.372l2.366-.322zm4.425 3.654v-10.5h-.994V192h.994zm3.445 0v-10.5h-.994V192h.994zm2.955-8.89c.406 0 .714-.28.714-.686a.691.691 0 00-.714-.714c-.42 0-.714.294-.714.714 0 .406.294.686.714.686zm-.504 8.89h.994v-7.126h-.994V192zm4.398-7.126h-.952V192h.994v-4.242c0-1.428.938-2.184 2.142-2.184 1.274 0 1.876.784 1.876 2.072V192h.994v-4.55c0-1.582-.938-2.744-2.702-2.744-1.386 0-2.1.798-2.352 1.26v-1.092zm10.131 5.012c1.764 0 2.842-1.106 2.842-2.59 0-.406-.084-.77-.238-1.106a1.617 1.617 0 01-.084-.532c0-.504.378-.812.868-.812.238 0 .392.014.392.014v-.91c-.028 0-.14-.014-.364-.014-.84 0-1.526.476-1.722 1.218-.448-.28-1.022-.448-1.694-.448-1.764 0-2.842 1.106-2.842 2.59 0 .742.266 1.386.756 1.848-.434.224-.952.644-.952 1.428 0 .574.238.98.616 1.232-.21.126-.798.574-.798 1.414 0 1.26.924 1.96 3.304 1.96 2.492 0 3.43-1.05 3.43-2.156 0-1.05-.63-1.82-2.282-1.82h-2.59c-.518 0-.742-.308-.742-.7 0-.658.644-.882.686-.896.406.182.882.28 1.414.28zm0-.868c-1.162 0-1.876-.658-1.876-1.722s.714-1.722 1.876-1.722 1.876.658 1.876 1.722-.714 1.722-1.876 1.722zm1.33 3.108c.672 0 1.218.224 1.218.896 0 .77-.756 1.218-2.464 1.218-1.624 0-2.338-.336-2.338-1.12 0-.504.364-.882.686-.994h2.898zm7.733-7.252h-1.386v.84h1.386V192h.994v-6.286h1.61v-.84h-1.61v-1.218c0-.91.434-1.246 1.204-1.246.252 0 .392.028.392.028v-.91s-.182-.028-.476-.028c-1.246 0-2.114.7-2.114 2.198v1.176zm9.125 4.914c-.364.882-1.162 1.484-2.254 1.484-1.498 0-2.436-1.106-2.534-2.548h5.922s.014-.224.014-.378c0-2.016-1.302-3.64-3.43-3.64-2.142 0-3.5 1.75-3.5 3.724 0 2.002 1.26 3.738 3.514 3.738 1.526 0 2.632-.84 3.136-2.002l-.868-.378zm-2.282-4.186c1.4 0 2.31.938 2.436 2.31h-4.914c.168-1.316 1.092-2.31 2.478-2.31zm8.005-.042c1.344 0 2.016.602 2.016 1.806v.196l-2.492.322c-1.848.238-2.688 1.008-2.688 2.156 0 1.288.798 2.128 2.492 2.128 1.162 0 2.198-.476 2.744-1.274.112.714.7 1.134 1.344 1.134.308 0 .448-.042.448-.042v-.826s-.056.028-.252.028c-.392 0-.602-.238-.602-.686v-3.122c0-1.582-.91-2.674-2.968-2.674-1.876 0-2.758.896-2.996 2.072l.938.196c.196-1.008.966-1.414 2.016-1.414zm2.016 2.786v.826c0 1.008-.854 2.17-2.548 2.17-.798 0-1.652-.28-1.652-1.302 0-.714.476-1.19 1.834-1.372l2.366-.322zm6.179 2.716s-.322.07-.63.07c-.686 0-.98-.364-.98-1.12v-4.298h1.638v-.84h-1.638v-2.03h-.994v2.03h-1.358v.84h1.358v4.368c0 1.288.644 1.946 1.848 1.946.504 0 .756-.07.756-.07v-.896zm6.485-1.974c0 1.512-.952 2.212-2.1 2.212-1.274 0-1.834-.784-1.834-2.072v-4.354h-.994v4.564c0 1.582.896 2.73 2.66 2.73 1.358 0 2.072-.742 2.31-1.204V192h.952v-7.126h-.994v4.214zm6.913-4.27s-.168-.014-.238-.014c-1.316 0-2.016.686-2.282 1.176v-1.106h-.952V192h.994v-4.046c0-1.484.91-2.212 2.128-2.212.182 0 .35.014.35.014v-.938zm6.372 4.97c-.364.882-1.162 1.484-2.254 1.484-1.498 0-2.436-1.106-2.534-2.548h5.922s.014-.224.014-.378c0-2.016-1.302-3.64-3.43-3.64-2.142 0-3.5 1.75-3.5 3.724 0 2.002 1.26 3.738 3.514 3.738 1.526 0 2.632-.84 3.136-2.002l-.868-.378zm-2.282-4.186c1.4 0 2.31.938 2.436 2.31h-4.914c.168-1.316 1.092-2.31 2.478-2.31zM90.148 213.156c-.126 0-.238-.014-.238-.014v.91s.084.014.28.014c1.008 0 1.932-.462 2.59-2.016l3.444-8.176h-1.05l-2.45 5.978-2.422-5.978h-1.078L92.206 211l-.308.756c-.462 1.092-1.022 1.4-1.75 1.4zm10.369-1.988c2.254 0 3.64-1.764 3.64-3.724 0-1.96-1.386-3.738-3.64-3.738-2.24 0-3.626 1.778-3.626 3.738s1.386 3.724 3.626 3.724zm-2.618-3.724c0-1.61 1.036-2.842 2.618-2.842 1.596 0 2.632 1.232 2.632 2.842 0 1.596-1.036 2.828-2.632 2.828-1.582 0-2.618-1.232-2.618-2.828zm13.023.644c0 1.512-.952 2.212-2.1 2.212-1.274 0-1.834-.784-1.834-2.072v-4.354h-.994v4.564c0 1.582.896 2.73 2.66 2.73 1.358 0 2.072-.742 2.31-1.204V211h.952v-7.126h-.994v4.214zM124.495 211h1.036l2.492-7.126h-1.05l-1.946 5.95-1.932-5.95h-1.036l-1.96 5.95-1.918-5.95h-1.064l2.464 7.126h1.036l1.946-5.866h.014l1.918 5.866zm10.02-2.212c-.364.882-1.162 1.484-2.254 1.484-1.498 0-2.436-1.106-2.534-2.548h5.922s.014-.224.014-.378c0-2.016-1.302-3.64-3.43-3.64-2.142 0-3.5 1.75-3.5 3.724 0 2.002 1.26 3.738 3.514 3.738 1.526 0 2.632-.84 3.136-2.002l-.868-.378zm-2.282-4.186c1.4 0 2.31.938 2.436 2.31h-4.914c.168-1.316 1.092-2.31 2.478-2.31zm8.803-.784s-.168-.014-.238-.014c-1.316 0-2.016.686-2.282 1.176v-1.106h-.952V211h.994v-4.046c0-1.484.91-2.212 2.128-2.212.182 0 .35.014.35.014v-.938zm6.371 4.97c-.364.882-1.162 1.484-2.254 1.484-1.498 0-2.436-1.106-2.534-2.548h5.922s.014-.224.014-.378c0-2.016-1.302-3.64-3.43-3.64-2.142 0-3.5 1.75-3.5 3.724 0 2.002 1.26 3.738 3.514 3.738 1.526 0 2.632-.84 3.136-2.002l-.868-.378zm-2.282-4.186c1.4 0 2.31.938 2.436 2.31h-4.914c.168-1.316 1.092-2.31 2.478-2.31zm11.642-.042c1.344 0 2.016.602 2.016 1.806v.196l-2.492.322c-1.848.238-2.688 1.008-2.688 2.156 0 1.288.798 2.128 2.492 2.128 1.162 0 2.198-.476 2.744-1.274.112.714.7 1.134 1.344 1.134.308 0 .448-.042.448-.042v-.826s-.056.028-.252.028c-.392 0-.602-.238-.602-.686v-3.122c0-1.582-.91-2.674-2.968-2.674-1.876 0-2.758.896-2.996 2.072l.938.196c.196-1.008.966-1.414 2.016-1.414zm2.016 2.786v.826c0 1.008-.854 2.17-2.548 2.17-.798 0-1.652-.28-1.652-1.302 0-.714.476-1.19 1.834-1.372l2.366-.322zm3.753-3.472h-1.386v.84h1.386V211h.994v-6.286h1.61v-.84h-1.61v-1.218c0-.91.434-1.246 1.204-1.246.252 0 .392.028.392.028v-.91s-.182-.028-.476-.028c-1.246 0-2.114.7-2.114 2.198v1.176zm6.924 6.188s-.322.07-.63.07c-.686 0-.98-.364-.98-1.12v-4.298h1.638v-.84h-1.638v-2.03h-.994v2.03h-1.358v.84h1.358v4.368c0 1.288.644 1.946 1.848 1.946.504 0 .756-.07.756-.07v-.896zm6.727-1.274c-.364.882-1.162 1.484-2.254 1.484-1.498 0-2.436-1.106-2.534-2.548h5.922s.014-.224.014-.378c0-2.016-1.302-3.64-3.43-3.64-2.142 0-3.5 1.75-3.5 3.724 0 2.002 1.26 3.738 3.514 3.738 1.526 0 2.632-.84 3.136-2.002l-.868-.378zm-2.282-4.186c1.4 0 2.31.938 2.436 2.31h-4.914c.168-1.316 1.092-2.31 2.478-2.31zm8.803-.784s-.168-.014-.238-.014c-1.316 0-2.016.686-2.282 1.176v-1.106h-.952V211h.994v-4.046c0-1.484.91-2.212 2.128-2.212.182 0 .35.014.35.014v-.938zm.499 7.294c.434 0 .77-.308.77-.756a.747.747 0 00-.77-.756c-.448 0-.77.322-.77.756 0 .448.322.756.77.756zm12.651-10.052h-7.378v.98h3.178V211h1.022v-8.96h3.178v-.98zm5.512 7.728c-.364.882-1.162 1.484-2.254 1.484-1.498 0-2.436-1.106-2.534-2.548h5.922s.014-.224.014-.378c0-2.016-1.302-3.64-3.43-3.64-2.142 0-3.5 1.75-3.5 3.724 0 2.002 1.26 3.738 3.514 3.738 1.526 0 2.632-.84 3.136-2.002l-.868-.378zm-2.282-4.186c1.4 0 2.31.938 2.436 2.31h-4.914c.168-1.316 1.092-2.31 2.478-2.31zm6.325 6.398v-10.5h-.994V211h.994zm3.445 0v-10.5h-.994V211h.994zm10.947-2.912c0 1.512-.952 2.212-2.1 2.212-1.274 0-1.834-.784-1.834-2.072v-4.354h-.994v4.564c0 1.582.896 2.73 2.66 2.73 1.358 0 2.072-.742 2.31-1.204V211h.952v-7.126h-.994v4.214zm2.796.896c.154 1.162.966 2.184 2.912 2.184 1.932 0 2.842-1.022 2.842-2.1 0-2.996-4.382-1.33-4.382-3.304 0-.644.546-1.19 1.652-1.19 1.134 0 1.666.616 1.75 1.386l.952-.322c-.196-.91-.91-1.932-2.674-1.932-1.694 0-2.646 1.008-2.646 2.1 0 2.926 4.382 1.246 4.382 3.29 0 .714-.672 1.204-1.876 1.204-1.218 0-1.834-.602-1.918-1.498l-.994.182zM240.433 211h1.036l2.492-7.126h-1.05l-1.946 5.95-1.932-5.95h-1.036l-1.96 5.95-1.918-5.95h-1.064l2.464 7.126h1.036l1.946-5.866h.014l1.918 5.866zm6.078-10.5h-.994V211h.994v-4.214c0-1.456.938-2.212 2.142-2.212 1.274 0 1.876.784 1.876 2.072V211h.994v-4.55c0-1.582-.938-2.744-2.702-2.744-1.33 0-2.058.728-2.31 1.162V200.5zm10.047 4.06c1.344 0 2.016.602 2.016 1.806v.196l-2.492.322c-1.848.238-2.688 1.008-2.688 2.156 0 1.288.798 2.128 2.492 2.128 1.162 0 2.198-.476 2.744-1.274.112.714.7 1.134 1.344 1.134.308 0 .448-.042.448-.042v-.826s-.056.028-.252.028c-.392 0-.602-.238-.602-.686v-3.122c0-1.582-.91-2.674-2.968-2.674-1.876 0-2.758.896-2.996 2.072l.938.196c.196-1.008.966-1.414 2.016-1.414zm2.016 2.786v.826c0 1.008-.854 2.17-2.548 2.17-.798 0-1.652-.28-1.652-1.302 0-.714.476-1.19 1.834-1.372l2.366-.322zm6.179 2.716s-.322.07-.63.07c-.686 0-.98-.364-.98-1.12v-4.298h1.638v-.84h-1.638v-2.03h-.994v2.03h-1.358v.84h1.358v4.368c0 1.288.644 1.946 1.848 1.946.504 0 .756-.07.756-.07v-.896zm5.194 3.094c-.126 0-.238-.014-.238-.014v.91s.084.014.28.014c1.008 0 1.932-.462 2.59-2.016l3.444-8.176h-1.05l-2.45 5.978-2.422-5.978h-1.078l2.982 7.126-.308.756c-.462 1.092-1.022 1.4-1.75 1.4zm10.369-1.988c2.254 0 3.64-1.764 3.64-3.724 0-1.96-1.386-3.738-3.64-3.738-2.24 0-3.626 1.778-3.626 3.738s1.386 3.724 3.626 3.724zm-2.618-3.724c0-1.61 1.036-2.842 2.618-2.842 1.596 0 2.632 1.232 2.632 2.842 0 1.596-1.036 2.828-2.632 2.828-1.582 0-2.618-1.232-2.618-2.828zm13.023.644c0 1.512-.952 2.212-2.1 2.212-1.274 0-1.834-.784-1.834-2.072v-4.354h-.994v4.564c0 1.582.896 2.73 2.66 2.73 1.358 0 2.072-.742 2.31-1.204V211h.952v-7.126h-.994v4.214zm9.975 1.974s-.322.07-.63.07c-.686 0-.98-.364-.98-1.12v-4.298h1.638v-.84h-1.638v-2.03h-.994v2.03h-1.358v.84h1.358v4.368c0 1.288.644 1.946 1.848 1.946.504 0 .756-.07.756-.07v-.896zm2.621-9.562h-.994V211h.994v-4.214c0-1.456.938-2.212 2.142-2.212 1.274 0 1.876.784 1.876 2.072V211h.994v-4.55c0-1.582-.938-2.744-2.702-2.744-1.33 0-2.058.728-2.31 1.162V200.5zm7.878 1.61c.406 0 .714-.28.714-.686a.691.691 0 00-.714-.714c-.42 0-.714.294-.714.714 0 .406.294.686.714.686zm-.504 8.89h.994v-7.126h-.994V211zm4.397-7.126h-.952V211h.994v-4.242c0-1.428.938-2.184 2.142-2.184 1.274 0 1.876.784 1.876 2.072V211h.994v-4.55c0-1.582-.938-2.744-2.702-2.744-1.386 0-2.1.798-2.352 1.26v-1.092zm12.343 0l-3.934 3.962V200.5h-.994V211h.994v-1.946l1.61-1.568 2.646 3.514h1.232l-3.178-4.186 2.954-2.94h-1.33zm2.908 4.83h.826l.168-7.644h-1.162l.168 7.644zm.42 2.408c.42 0 .742-.308.742-.728a.721.721 0 00-.742-.742c-.434 0-.756.308-.756.742 0 .42.322.728.756.728zm6.872 0c.434 0 .77-.308.77-.756a.747.747 0 00-.77-.756c-.448 0-.77.322-.77.756 0 .448.322.756.77.756zm0-5.824c.434 0 .77-.322.77-.756a.75.75 0 00-.77-.77.743.743 0 00-.77.77c0 .434.322.756.77.756zm3.638 1.624c0 2.338-.518 4.452-1.638 6.412h1.008c1.05-1.68 1.652-3.99 1.652-6.412 0-2.422-.602-4.732-1.652-6.412h-1.008c1.12 1.974 1.638 4.074 1.638 6.412z" fill="#666D80"/><path fill-rule="evenodd" clip-rule="evenodd" d="M40.987 209.342c16.04-2.73 28.18-15.527 28.18-30.902 0-17.364-15.483-31.44-34.583-31.44C15.484 147 0 161.076 0 178.44c0 15.085 11.688 27.69 27.28 30.737 1.085 1.55.572 3.423-1.072 4.727-.266.212-.158.688.182.719 8.191.748 10.811-1.785 12.923-3.827.562-.543 1.088-1.052 1.674-1.454z" fill="#0079F2"/><mask id="e" maskUnits="userSpaceOnUse" x="16" y="160" width="37" height="37"><path fill-rule="evenodd" clip-rule="evenodd" d="M34.697 196.272c9.786 0 17.72-7.933 17.72-17.719 0-9.786-7.934-17.72-17.72-17.72-9.786 0-17.72 7.934-17.72 17.72 0 9.786 7.934 17.719 17.72 17.719z" fill="#fff"/></mask><g mask="url(#e)"><path fill-rule="evenodd" clip-rule="evenodd" d="M27.74 191.345c-3.53 1.482-.429 4.927 3.4 4.927h7.435c3.716 0 6.98-3.495 3.493-4.779-.98-.36-2.288-1.007-4.052-2.244a.712.712 0 01-.302-.576c0-.211.095-.409.253-.548 1.755-1.541 3.123-3.713 3.15-4.178a.495.495 0 01.387-.439c.589-.145 1.029-.57 1.237-1.259.22-.725.523-2.241.616-2.715a1.06 1.06 0 00.02-.3c-.106-1.081-1.06-2.465-.857-3.531.181-.944.167-1.803-.205-2.481-.598-1.09-1.62-2.078-2.484-2.971-.698-.72-1.748-1.226-3.034-1.277-1.74-.174-5.431 2.126-6.983.942-.626-.478-1.41-.984-1.71-.256-.431 1.046-1.427 3.059-1.645 4.17-.122.623-.117 1.432.096 2.461.194.93-.427 1.981-.53 2.925-.012.109 0 .227.021.334.096.49.395 1.982.611 2.699.207.688.645 1.113 1.232 1.259a.495.495 0 01.388.439c.027.471 1.385 2.696 3.16 4.241.148.129.237.178.237.374 0 .211-.109.551-.281.672-1.553 1.092-2.739 1.727-3.653 2.111z" fill="#fff"/></g><path opacity=".2" fill-rule="evenodd" clip-rule="evenodd" d="M34.697 196.272c11.023 0 19.96-7.933 19.96-17.719 0-9.786-8.937-17.72-19.96-17.72-11.024 0-19.96 7.934-19.96 17.72 0 9.786 8.937 17.719 19.96 17.719z" fill="#fff"/><defs><filter id="filter0_d" x="8" y="110" width="446" height="158" filterUnits="userSpaceOnUse" color-interpolation-filters="sRGB"><feFlood flood-opacity="0" result="BackgroundImageFix"/><feColorMatrix in="SourceAlpha" values="0 0 0 0 0 0 0 0 0 0 0 0 0 0 0 0 0 0 127 0"/><feOffset dy="8"/><feGaussianBlur stdDeviation="12"/><feColorMatrix values="0 0 0 0 0.278431 0 0 0 0 0.313726 0 0 0 0 0.34902 0 0 0 0.1 0"/><feBlend in2="BackgroundImageFix" result="effect1_dropShadow"/><feBlend in="SourceGraphic" in2="effect1_dropShadow" result="shape"/></filter></defs></svg>