<svg width="239" height="431" fill="none" xmlns="http://www.w3.org/2000/svg"><path d="M219.443.742H19.42C8.894.742.362 9.297.362 19.85v391.566c0 10.553 8.532 19.108 19.058 19.108h200.023c10.526 0 19.058-8.555 19.058-19.108V19.85c0-10.553-8.532-19.108-19.058-19.108z" fill="#fff"/><path d="M219.443 1.015H19.42C9.045 1.015.634 9.448.634 19.85v391.566c0 10.402 8.41 18.836 18.786 18.836h200.023c10.375 0 18.786-8.434 18.786-18.836V19.85c0-10.402-8.411-18.835-18.786-18.835z" stroke="#C5CCD8" stroke-opacity=".3" stroke-width=".548"/><path d="M205.103 45.885H33.762c-10.526 0-19.06 8.556-19.06 19.108V396.31c0 10.553 8.534 19.108 19.06 19.108h171.341c10.526 0 19.058-8.555 19.058-19.108V64.993c0-10.552-8.532-19.108-19.058-19.108z" fill="#EFF4FA"/><path d="M23.245 21.813c3.941 0 7.137-3.204 7.137-7.156 0-3.952-3.196-7.155-7.137-7.155-3.942 0-7.137 3.203-7.137 7.155 0 3.952 3.195 7.156 7.137 7.156z" fill="#F8334A"/><path d="M46.706 21.813c3.942 0 7.136-3.204 7.136-7.156 0-3.952-3.194-7.155-7.136-7.155-3.941 0-7.137 3.203-7.137 7.155 0 3.952 3.196 7.156 7.137 7.156z" fill="#F6C31D"/><path d="M70.166 21.813c3.943 0 7.137-3.204 7.137-7.156 0-3.952-3.194-7.155-7.137-7.155-3.94 0-7.136 3.203-7.136 7.155 0 3.952 3.195 7.156 7.136 7.156z" fill="#38D435"/><path d="M198.418 88.227H34.316c-3.52 0-6.372 2.86-6.372 6.39 0 3.527 2.852 6.387 6.372 6.387h164.102c3.52 0 6.373-2.86 6.373-6.388 0-3.529-2.853-6.389-6.373-6.389zm-28.269 24.695H62.586c-3.52 0-6.374 2.86-6.374 6.39 0 3.529 2.853 6.39 6.374 6.39h107.563c3.52 0 6.373-2.861 6.373-6.39 0-3.53-2.853-6.39-6.373-6.39z" fill="#93A9CC"/><path d="M196.806 151.916H35.927c-3.094 0-5.602 2.515-5.602 5.617s2.508 5.617 5.602 5.617h160.879c3.095 0 5.603-2.515 5.603-5.617s-2.508-5.617-5.603-5.617zm0 24.479H35.927c-3.094 0-5.602 2.515-5.602 5.617s2.508 5.617 5.602 5.617h160.879c3.095 0 5.603-2.515 5.603-5.617s-2.508-5.617-5.603-5.617zm-23.387 23.835H59.312c-3.094 0-5.602 2.515-5.602 5.617s2.508 5.617 5.602 5.617H173.42c3.095 0 5.603-2.515 5.603-5.617s-2.508-5.617-5.603-5.617z" fill="#C6D0E2"/><path d="M195.901 237.993H36.832a3.779 3.779 0 00-3.774 3.784v33.54a3.78 3.78 0 003.774 3.784h159.069a3.78 3.78 0 003.774-3.784v-33.54a3.78 3.78 0 00-3.774-3.784z" fill="#2173F7"/><path d="M189.576 334.011c0 8.647-6.99 15.655-15.615 15.655-8.626 0-15.615-7.008-15.615-15.655 0-8.648 6.989-15.656 15.615-15.656 8.625 0 15.615 7.008 15.615 15.656z" fill="#C6D0E2"/><path fill-rule="evenodd" clip-rule="evenodd" d="M92.776 338.547c1.499-2.188 4.72-2.188 6.22 0l34.179 49.844a.943.943 0 001.515.055l15.504-19.431a3.768 3.768 0 015.894 0l33.787 42.343c1.976 2.478.217 6.149-2.948 6.149H45.807c-3.04 0-4.833-3.417-3.111-5.928l50.08-73.032z" fill="#C6D0E2"/></svg>