<svg fill="none" height="389" width="309" xmlns="http://www.w3.org/2000/svg"><path d="M0 0h309v389H0z" fill="#fff"/><g clip-rule="evenodd" fill-rule="evenodd"><path d="M126 131a4 4 0 014-4h130a4 4 0 014 4v7a4 4 0 01-4 4H130a4 4 0 01-4-4z" fill="#ead6c7"/><path d="M126 154a2 2 0 012-2h74a2 2 0 012 2v6a2 2 0 01-2 2h-74a2 2 0 01-2-2zm0 14a2 2 0 012-2h129a2 2 0 012 2v6a2 2 0 01-2 2H128a2 2 0 01-2-2zm0 14a2 2 0 012-2h101a2 2 0 012 2v6a2 2 0 01-2 2H128a2 2 0 01-2-2z" fill="#fbf2eb"/></g><rect fill="#fbf2eb" height="68" rx="8" width="76" x="31" y="125"/><path d="M79.002 147.001H59.001a4.003 4.003 0 00-4 4v16L55 167a4.003 4.003 0 004 4h20a4.004 4.004 0 004-4v-15.999A4.005 4.005 0 0079 147zm-5 4a3 3 0 11-3 3H71a3.002 3.002 0 013-3zm-15 18H59A2.001 2.001 0 0157 167v-4.227l5.927-5.268v-.001a3.003 3.003 0 014.113.119l4.06 4.05-7.327 7.326zm22-2a2 2 0 01-2 2H66.604l7.589-7.589a2.98 2.98 0 013.852-.01l2.957 2.463z" fill="#e9d5c6"/><path clip-rule="evenodd" d="M126 214a4 4 0 014-4h130a4 4 0 014 4v7a4 4 0 01-4 4H130a4 4 0 01-4-4z" fill="#ead6c7" fill-rule="evenodd"/><path clip-rule="evenodd" d="M126 237a2 2 0 012-2h74a2 2 0 012 2v6a2 2 0 01-2 2h-74a2 2 0 01-2-2zm0 14a2 2 0 012-2h129a2 2 0 012 2v6a2 2 0 01-2 2H128a2 2 0 01-2-2zm0 14a2 2 0 012-2h101a2 2 0 012 2v6a2 2 0 01-2 2H128a2 2 0 01-2-2z" fill="#fbf2eb" fill-rule="evenodd"/><rect fill="#fbf2eb" height="68" rx="8" width="76" x="31" y="208"/><path d="M79.002 230.001H59.001a4.003 4.003 0 00-4 4v16L55 250a4.003 4.003 0 004 4h20a4.004 4.004 0 004-4v-15.999A4.005 4.005 0 0079 230zm-5 4a3 3 0 11-3 3H71a3.002 3.002 0 013-3zm-15 18H59A2.001 2.001 0 0157 250v-4.227l5.927-5.268v-.001a3.003 3.003 0 014.113.119l4.06 4.05-7.327 7.326zm22-2a2 2 0 01-2 2H66.604l7.589-7.589a2.98 2.98 0 013.852-.01l2.957 2.463z" fill="#e9d5c6"/><path clip-rule="evenodd" d="M126 297a4 4 0 014-4h130a4 4 0 014 4v7a4 4 0 01-4 4H130a4 4 0 01-4-4z" fill="#ead6c7" fill-rule="evenodd"/><path clip-rule="evenodd" d="M126 320a2 2 0 012-2h74a2 2 0 012 2v6a2 2 0 01-2 2h-74a2 2 0 01-2-2zm0 14a2 2 0 012-2h129a2 2 0 012 2v6a2 2 0 01-2 2H128a2 2 0 01-2-2zm0 14a2 2 0 012-2h101a2 2 0 012 2v6a2 2 0 01-2 2H128a2 2 0 01-2-2z" fill="#fbf2eb" fill-rule="evenodd"/><rect fill="#fbf2eb" height="68" rx="8" width="76" x="31" y="291"/><path d="M79.002 313.001H59.001a4.003 4.003 0 00-4 4v16L55 333a4.003 4.003 0 004 4h20a4.004 4.004 0 004-4v-15.999A4.005 4.005 0 0079 313zm-5 4a3 3 0 11-3 3H71a3.002 3.002 0 013-3zm-15 18H59A2.001 2.001 0 0157 333v-4.227l5.927-5.268v-.001a3.003 3.003 0 014.113.119l4.06 4.05-7.327 7.326zm22-2a2 2 0 01-2 2H66.604l7.589-7.589a2.98 2.98 0 013.852-.01l2.957 2.463z" fill="#e9d5c6"/><path clip-rule="evenodd" d="M92 40a4 4 0 014-4h118a4 4 0 014 4v7a4 4 0 01-4 4H96a4 4 0 01-4-4z" fill="#ead6c7" fill-rule="evenodd"/><path clip-rule="evenodd" d="M85 77a2 2 0 012-2h135a2 2 0 012 2v8a2 2 0 01-2 2H87a2 2 0 01-2-2zM67 60a2 2 0 012-2h171a2 2 0 012 2v8a2 2 0 01-2 2H69a2 2 0 01-2-2z" fill="#fbf2eb" fill-rule="evenodd"/></svg>