<svg fill="none" height="389" width="309" xmlns="http://www.w3.org/2000/svg"><path d="M0 0h309v389H0z" fill="#fff"/><g clip-rule="evenodd" fill-rule="evenodd"><path d="M31 146a4 4 0 014-4h133a4 4 0 014 4v5a4 4 0 01-4 4H35a4 4 0 01-4-4zm0 178a4 4 0 014-4h196a4 4 0 014 4v5a4 4 0 01-4 4H35a4 4 0 01-4-4z" fill="#ead6c7"/><path d="M31 165a2 2 0 012-2h155a2 2 0 012 2v4a2 2 0 01-2 2H33a2 2 0 01-2-2zm0 178a2 2 0 012-2h174a2 2 0 012 2v4a2 2 0 01-2 2H33a2 2 0 01-2-2zm0-166a2 2 0 012-2h208a2 2 0 012 2v4a2 2 0 01-2 2H33a2 2 0 01-2-2zm0 178a2 2 0 012-2h124a2 2 0 012 2v4a2 2 0 01-2 2H33a2 2 0 01-2-2z" fill="#fbf2eb"/></g><rect fill="#fbf2eb" height="106" rx="8" width="247" x="31" y="25"/><rect fill="#fbf2eb" height="106" rx="8" width="247" x="31" y="203"/><path d="M170.718 59.002h-31.431c-3.471.003-6.283 2.836-6.286 6.333v25.333l-.001-.001c.003 3.496 2.815 6.329 6.285 6.333h31.43-.001c3.47-.004 6.282-2.837 6.286-6.333V65.334c-.004-3.497-2.816-6.33-6.286-6.334zm-7.858 6.333h-.001c2.603 0 4.715 2.127 4.715 4.75 0 2.622-2.112 4.75-4.715 4.75s-4.714-2.128-4.714-4.75h-.001c.002-2.622 2.112-4.748 4.713-4.75zm-23.572 28.5h-.001c-1.737-.002-3.143-1.419-3.143-3.168v-6.693l9.315-8.342a4.694 4.694 0 016.463.187l6.379 6.414-11.513 11.6zm34.573-3.167c0 1.748-1.408 3.166-3.143 3.166h-19.484L163.16 81.82a4.659 4.659 0 016.054-.017l4.647 3.901zm-3.143 146.334h-31.431c-3.471.003-6.283 2.836-6.286 6.333v25.333l-.001-.001c.003 3.496 2.815 6.329 6.285 6.333h31.43-.001c3.47-.004 6.282-2.837 6.286-6.333v-25.333c-.004-3.497-2.816-6.33-6.286-6.334zm-7.858 6.333h-.001c2.603-.001 4.715 2.127 4.715 4.75 0 2.622-2.112 4.75-4.715 4.75s-4.714-2.128-4.714-4.75h-.001c.002-2.622 2.112-4.748 4.713-4.751zm-23.572 28.499h-.001c-1.737-.001-3.143-1.418-3.143-3.167v-6.693l9.315-8.342v-.001a4.695 4.695 0 016.463.188l6.379 6.414-11.513 11.599zm34.573-3.166c0 1.748-1.408 3.166-3.143 3.166h-19.484l11.926-12.015v-.001a4.66 4.66 0 016.054-.016l4.647 3.901z" fill="#e9d5c6"/></svg>