<svg width="708" height="517" fill="none" xmlns="http://www.w3.org/2000/svg"><g filter="url(#filter0_dd)"><path d="M692.26.402H15.083C3.327.402-6.204 9.932-6.204 21.689v474.024c0 11.756 9.53 21.287 21.287 21.287H692.26c11.757 0 21.288-9.531 21.288-21.287V21.689c0-11.757-9.531-21.287-21.288-21.287z" fill="#fff" fill-opacity=".01"/></g><path d="M692.26.402H15.083C3.327.402-6.204 9.932-6.204 21.689v474.024c0 11.756 9.53 21.287 21.287 21.287H692.26c11.757 0 21.288-9.531 21.288-21.287V21.689c0-11.757-9.531-21.287-21.288-21.287z" fill="#fff"/><path d="M672.605 123.683H265.143c-9.405 0-17.029 7.624-17.029 17.029v316.474c0 9.406 7.624 17.03 17.029 17.03h407.462c9.404 0 17.029-7.624 17.029-17.03V140.712c0-9.405-7.625-17.029-17.029-17.029zm-458.746 0H39.574c-9.406 0-17.03 7.624-17.03 17.029v131.98c0 9.405 7.624 17.029 17.03 17.029h174.285c9.404 0 17.029-7.624 17.029-17.029v-131.98c0-9.405-7.625-17.029-17.029-17.029zm0 184.496H39.574c-9.406 0-17.03 7.625-17.03 17.031v131.979c0 9.404 7.624 17.029 17.03 17.029h174.285c9.404 0 17.029-7.625 17.029-17.029V325.21c0-9.406-7.625-17.031-17.029-17.031z" fill="#F3F6FC"/><path d="M33.11 46.764c5.834 0 10.564-4.73 10.564-10.565 0-5.835-4.73-10.565-10.565-10.565-5.835 0-10.565 4.73-10.565 10.565 0 5.835 4.73 10.565 10.565 10.565z" fill="#F8334A"/><path d="M64.457 46.764c5.835 0 10.565-4.73 10.565-10.565 0-5.835-4.73-10.565-10.565-10.565-5.834 0-10.565 4.73-10.565 10.565 0 5.835 4.73 10.565 10.565 10.565z" fill="#F7C31D"/><path d="M95.802 46.763c5.835 0 10.566-4.73 10.566-10.565 0-5.834-4.731-10.564-10.566-10.564-5.834 0-10.565 4.73-10.565 10.564 0 5.835 4.731 10.565 10.566 10.565z" fill="#38D535"/><path d="M463.672 68.89H41.059c-10.225 0-18.515 8.288-18.515 18.513 0 10.226 8.29 18.515 18.515 18.515h422.613c10.226 0 18.515-8.289 18.515-18.515 0-10.225-8.289-18.514-18.515-18.514zm153.617-.003h-98.885c-10.226 0-18.515 8.29-18.515 18.514v.001c0 10.225 8.289 18.514 18.515 18.514h98.885c10.226 0 18.515-8.29 18.515-18.514 0-10.225-8.289-18.515-18.515-18.515zm61.099 0H664.33c-6.211 0-11.246 5.035-11.246 11.246v14.538c0 6.211 5.035 11.246 11.246 11.246h14.058c6.211 0 11.247-5.035 11.247-11.246V80.133c0-6.21-5.036-11.246-11.247-11.246z" fill="#F3F6FC"/><path d="M164.685 83.914H44.582a3.488 3.488 0 000 6.977h120.103a3.489 3.489 0 000-6.977zm62.716 0h-46.586a3.49 3.49 0 00-3.489 3.488 3.49 3.49 0 003.489 3.489h46.586a3.49 3.49 0 000-6.977zm332.201 0h-40.291a3.489 3.489 0 000 6.977h40.291a3.489 3.489 0 000-6.977zm-97.821 0h-14.509a3.489 3.489 0 000 6.977h14.509a3.489 3.489 0 000-6.977zm153.301 0h-14.509a3.489 3.489 0 000 6.977h14.509a3.49 3.49 0 000-6.977zm55.065 7.638c.67.67 1.754.67 2.424 0l5.746-5.747a1.79 1.79 0 10-2.53-2.531l-4.428 4.428-4.427-4.428a1.79 1.79 0 00-2.531 2.531l5.746 5.747z" fill="#C0C9E2"/><path d="M651.699 210.497H286.048a7.789 7.789 0 00-7.789 7.79 7.79 7.79 0 007.789 7.79h365.651a7.79 7.79 0 007.79-7.79 7.79 7.79 0 00-7.79-7.79z" fill="#D3DEF5"/><path d="M278.259 218.287a7.789 7.789 0 017.789-7.79h168.364v15.579H286.048a7.789 7.789 0 01-7.789-7.789z" fill="#2253FF"/><path d="M539.158 210.496h-92.449v15.58h92.449v-15.58z" fill="#F13D6F"/><path d="M603.103 210.496h-63.945v15.58h63.945v-15.58z" fill="#693CF3"/><path d="M297.804 270.536H283.93a5.549 5.549 0 00-5.548 5.55v13.872a5.548 5.548 0 005.548 5.548h13.874a5.548 5.548 0 005.548-5.548v-13.872a5.549 5.549 0 00-5.548-5.55z" fill="#2253FF"/><path d="M297.804 316.715H283.93a5.548 5.548 0 00-5.548 5.549v13.872a5.548 5.548 0 005.548 5.548h13.874a5.548 5.548 0 005.548-5.548v-13.872a5.548 5.548 0 00-5.548-5.549z" fill="#F13D6F"/><path d="M297.804 362.892H283.93a5.548 5.548 0 00-5.548 5.548v13.873a5.548 5.548 0 005.548 5.549h13.874a5.548 5.548 0 005.548-5.549V368.44a5.548 5.548 0 00-5.548-5.548z" fill="#693CF3"/><path d="M297.804 409.07H283.93a5.548 5.548 0 00-5.548 5.548v13.874a5.548 5.548 0 005.548 5.548h13.874a5.548 5.548 0 005.548-5.548v-13.874a5.548 5.548 0 00-5.548-5.548z" fill="#D3DEF5"/><path d="M440.989 276.982H326.64a5.72 5.72 0 000 11.441h114.349a5.72 5.72 0 000-11.441zm0 46.497H326.64a5.72 5.72 0 000 11.441h114.349a5.72 5.72 0 000-11.441zm0 46.177H326.64a5.72 5.72 0 000 11.441h114.349a5.72 5.72 0 000-11.441zm0 46.178H326.64a5.72 5.72 0 00-5.72 5.721 5.72 5.72 0 005.72 5.721h114.349a5.72 5.72 0 005.72-5.721 5.72 5.72 0 00-5.72-5.721z" fill="#96A4CA"/><path d="M551.415 276.982h-72.327a5.72 5.72 0 000 11.441h72.327a5.72 5.72 0 000-11.441zm0 46.497h-72.327a5.72 5.72 0 000 11.441h72.327a5.72 5.72 0 000-11.441zm0 46.177h-72.327a5.72 5.72 0 000 11.441h72.327a5.72 5.72 0 000-11.441zm0 46.178h-72.327a5.72 5.72 0 00-5.72 5.721 5.72 5.72 0 005.72 5.721h72.327a5.72 5.72 0 005.72-5.721 5.72 5.72 0 00-5.72-5.721zM653.77 276.982h-26.807a5.72 5.72 0 000 11.441h26.807a5.721 5.721 0 000-11.441zm0 46.497h-26.807a5.72 5.72 0 000 11.441h26.807a5.72 5.72 0 100-11.441zm0 46.177h-26.807a5.72 5.72 0 000 11.441h26.807a5.72 5.72 0 100-11.441zm0 46.178h-26.807a5.72 5.72 0 00-5.72 5.721 5.72 5.72 0 005.72 5.721h26.807a5.721 5.721 0 000-11.442z" fill="#C0C9E2"/><path d="M355.265 163.86h-65.091c-6.513 0-11.792 5.28-11.792 11.792 0 6.511 5.279 11.79 11.792 11.79h65.091c6.513 0 11.792-5.279 11.792-11.79 0-6.512-5.279-11.792-11.792-11.792z" fill="#D4DDF0"/><path d="M484.247 177.116h-96.845a5.163 5.163 0 000 10.326h96.845a5.163 5.163 0 100-10.326z" fill="#C0C9E2"/><path fill-rule="evenodd" clip-rule="evenodd" d="M125.946 206.568v-57.905c-31.65.387-57.187 26.163-57.187 57.905 0 29.549 22.134 53.93 50.726 57.466l7.184-57.466h-.723z" fill="#2253FF"/><path fill-rule="evenodd" clip-rule="evenodd" d="M182.94 192.449l-57.154 14.521v-58.304c.242-.003.483-.004.726-.004 27.175 0 50.003 18.614 56.428 43.787z" fill="#693CF3"/><path fill-rule="evenodd" clip-rule="evenodd" d="M184.672 206.529c0 32.15-26.063 58.213-58.214 58.213-2.446 0-4.856-.15-7.223-.443l6.773-57.573 56.94-14.315a58.34 58.34 0 011.724 14.118z" fill="#F13D6F"/><path d="M57.926 473.167V357.745c0-7.053 5.718-12.771 12.772-12.771h12.86c7.053 0 12.771 5.718 12.771 12.771v115.422H57.926z" fill="#2253FF"/><path d="M107.514 473.167v-55.351c0-7.054 5.718-12.773 12.772-12.773h12.861c7.053 0 12.771 5.719 12.771 12.773v55.351h-38.404z" fill="#693CF3"/><path d="M157.102 473.167v-75.493c0-7.054 5.718-12.773 12.772-12.773h12.86c7.053 0 12.771 5.719 12.771 12.773v75.493h-38.403z" fill="#F13D6F"/><defs><filter id="filter0_dd" x="-60.204" y="-29.598" width="803.605" height="584.598" filterUnits="userSpaceOnUse" color-interpolation-filters="sRGB"><feFlood flood-opacity="0" result="BackgroundImageFix"/><feColorMatrix in="SourceAlpha" values="0 0 0 0 0 0 0 0 0 0 0 0 0 0 0 0 0 0 127 0" result="hardAlpha"/><feOffset dy="4.776"/><feGaussianBlur stdDeviation="14.927"/><feColorMatrix values="0 0 0 0 0.133333 0 0 0 0 0.32549 0 0 0 0 1 0 0 0 0.1 0"/><feBlend in2="BackgroundImageFix" result="effect1_dropShadow"/><feColorMatrix in="SourceAlpha" values="0 0 0 0 0 0 0 0 0 0 0 0 0 0 0 0 0 0 127 0" result="hardAlpha"/><feOffset dx="-20" dy="4"/><feGaussianBlur stdDeviation="17"/><feColorMatrix values="0 0 0 0 0.0346875 0 0 0 0 0.0765563 0 0 0 0 0.225 0 0 0 0.17 0"/><feBlend in2="effect1_dropShadow" result="effect2_dropShadow"/><feBlend in="SourceGraphic" in2="effect2_dropShadow" result="shape"/></filter></defs></svg>