<svg fill="none" height="459" width="749" xmlns="http://www.w3.org/2000/svg"><path d="M0 0h749v459H0z" fill="#fff"/><rect fill="#fbf2eb" height="289" rx="8" width="267" x="31" y="140"/><rect fill="#fbf2eb" height="221" rx="8" width="388" x="330" y="30"/><rect fill="#fff" height="108" rx="8" width="220" x="55" y="303"/><rect fill="#fff" height="84" rx="8" width="220" x="354" y="149"/><rect fill="#fbf2eb" height="79" rx="8" width="267" x="31" y="30"/><path clip-rule="evenodd" d="M76 232a4 4 0 014-4h52a4 4 0 014 4v2a4 4 0 01-4 4H80a4 4 0 01-4-4zm0 20a4 4 0 014-4h52a4 4 0 014 4v2a4 4 0 01-4 4H80a4 4 0 01-4-4zm552-28a4 4 0 014-4h52a4 4 0 014 4v2a4 4 0 01-4 4h-52a4 4 0 01-4-4zm0-22a4 4 0 014-4h52a4 4 0 014 4v2a4 4 0 01-4 4h-52a4 4 0 01-4-4zm0-21a4 4 0 014-4h52a4 4 0 014 4v2a4 4 0 01-4 4h-52a4 4 0 01-4-4zm0-21a4 4 0 014-4h52a4 4 0 014 4v2a4 4 0 01-4 4h-52a4 4 0 01-4-4z" fill="#ead6c7" fill-rule="evenodd"/><rect fill="#ead6c7" height="10" rx="5" width="10" x="56" y="228"/><rect fill="#ead6c7" height="10" rx="5" width="10" x="56" y="248"/><rect fill="#ead6c7" height="10" rx="5" width="10" x="608" y="220"/><rect fill="#ead6c7" height="10" rx="5" width="10" x="608" y="198"/><rect fill="#ead6c7" height="10" rx="5" width="10" x="608" y="177"/><rect fill="#ead6c7" height="10" rx="5" width="10" x="608" y="156"/><g clip-rule="evenodd" fill-rule="evenodd"><path d="M56 167a4 4 0 014-4h146a4 4 0 014 4v7a4 4 0 01-4 4H60a4 4 0 01-4-4zM355 56a4 4 0 014-4h277a4 4 0 014 4v7a4 4 0 01-4 4H359a4 4 0 01-4-4zm-241 2a4 4 0 014-4h146a4 4 0 014 4v7a4 4 0 01-4 4H118a4 4 0 01-4-4z" fill="#ead6c7"/><path d="M56 190a2 2 0 012-2h83a2 2 0 012 2v6a2 2 0 01-2 2H58a2 2 0 01-2-2zM355 79a2 2 0 012-2h203a2 2 0 012 2v6a2 2 0 01-2 2H357a2 2 0 01-2-2zm0 20a2 2 0 012-2h95a2 2 0 012 2v6a2 2 0 01-2 2h-95a2 2 0 01-2-2zM114 77a2 2 0 012-2h83a2 2 0 012 2v6a2 2 0 01-2 2h-83a2 2 0 01-2-2zM56 208a2 2 0 012-2h113a2 2 0 012 2v6a2 2 0 01-2 2H58a2 2 0 01-2-2z" fill="#fff"/><path d="M70 402a2 2 0 01-2-2v-20a2 2 0 012-2h5.654a2 2 0 012 2v20a2 2 0 01-2 2zm61.782 0a2 2 0 01-2-2v-20a2 2 0 012-2h5.654a2 2 0 012 2v20a2 2 0 01-2 2zm61.782 0a2 2 0 01-2-2v-58a2 2 0 012-2h5.653a2 2 0 012 2v58a2 2 0 01-2 2zm-108.119 0a2 2 0 01-2-2v-36a2 2 0 012-2H91.1a2 2 0 012 2v36a2 2 0 01-2 2zm61.783 0a2 2 0 01-2-2v-44a2 2 0 012-2h5.653a2 2 0 012 2v44a2 2 0 01-2 2zm61.782 0a2 2 0 01-2-2v-36a2 2 0 012-2h5.653a2 2 0 012 2v36a2 2 0 01-2 2zm-108.119 0a2 2 0 01-2-2v-20a2 2 0 012-2h5.654a2 2 0 012 2v20a2 2 0 01-2 2zm61.783 0a2 2 0 01-2-2v-33a2 2 0 012-2h5.653a2 2 0 012 2v33a2 2 0 01-2 2zm61.781 0a2 2 0 01-2-2v-53a2 2 0 012-2h5.654a2 2 0 012 2v53a2 2 0 01-2 2zm15.446 0a2 2 0 01-2-2v-63a2 2 0 012-2h5.654a2 2 0 012 2v63a2 2 0 01-2 2zm-123.564 0a2 2 0 01-2-2v-55a2 2 0 012-2h5.653a2 2 0 012 2v55a2 2 0 01-2 2zm61.781 0a2 2 0 01-2-2v-67a2 2 0 012-2h5.654a2 2 0 012 2v67a2 2 0 01-2 2zm77.228 0a2 2 0 01-2-2v-82a2 2 0 012-2H261a2 2 0 012 2v82a2 2 0 01-2 2zM369 224a2 2 0 01-2-2v-7.721a2 2 0 012-2h5.653a2 2 0 012 2V222a2 2 0 01-2 2zm61.782 0a2 2 0 01-2-2v-7.721a2 2 0 012-2h5.654a2 2 0 012 2V222a2 2 0 01-2 2zm61.782 0a2 2 0 01-2-2v-26.279a2 2 0 012-2h5.653a2 2 0 012 2V222a2 2 0 01-2 2zm-108.119 0a2 2 0 01-2-2v-15.535a2 2 0 012-2h5.654a2 2 0 012 2V222a2 2 0 01-2 2zm61.783 0a2 2 0 01-2-2v-19.442a2 2 0 012-2h5.653a2 2 0 012 2V222a2 2 0 01-2 2zm61.782 0a2 2 0 01-2-2v-15.535a2 2 0 012-2h5.653a2 2 0 012 2V222a2 2 0 01-2 2zm-108.119 0a2 2 0 01-2-2v-7.721a2 2 0 012-2h5.654a2 2 0 012 2V222a2 2 0 01-2 2zm61.783 0a2 2 0 01-2-2v-14.07a2 2 0 012-2h5.653a2 2 0 012 2V222a2 2 0 01-2 2zm61.781 0a2 2 0 01-2-2v-23.837a2 2 0 012-2h5.654a2 2 0 012 2V222a2 2 0 01-2 2zm15.446 0a2 2 0 01-2-2v-28.721a2 2 0 012-2h5.653a2 2 0 012 2V222a2 2 0 01-2 2zm-123.565 0a2 2 0 01-2-2v-24.814a2 2 0 012-2h5.654a2 2 0 012 2V222a2 2 0 01-2 2zm61.782 0a2 2 0 01-2-2v-30.674a2 2 0 012-2h5.654a2 2 0 012 2V222a2 2 0 01-2 2zm77.228 0a2 2 0 01-2-2v-38a2 2 0 012-2H560a2 2 0 012 2v38a2 2 0 01-2 2z" fill="#f7e9df"/></g><circle cx="77.5" cy="70.5" fill="#e9d5c6" r="20.5"/><rect fill="#fbf2eb" height="31" rx="8" width="388" x="330" y="398"/><path clip-rule="evenodd" d="M373 411a2 2 0 012-2h56a2 2 0 012 2v6a2 2 0 01-2 2h-56a2 2 0 01-2-2zm135 0a2 2 0 012-2h112a2 2 0 012 2v6a2 2 0 01-2 2H510a2 2 0 01-2-2z" fill="#ead6c7" fill-rule="evenodd"/><circle cx="349" cy="414" fill="#ead6c7" r="7"/><rect fill="#fbf2eb" height="31" rx="8" width="388" x="330" y="358"/><path clip-rule="evenodd" d="M373 371a2 2 0 012-2h30a2 2 0 012 2v6a2 2 0 01-2 2h-30a2 2 0 01-2-2zm135 0a2 2 0 012-2h63a2 2 0 012 2v6a2 2 0 01-2 2h-63a2 2 0 01-2-2z" fill="#ead6c7" fill-rule="evenodd"/><circle cx="349" cy="374" fill="#ead6c7" r="7"/><rect fill="#fbf2eb" height="31" rx="8" width="388" x="330" y="318"/><path clip-rule="evenodd" d="M373 331a2 2 0 012-2h43a2 2 0 012 2v6a2 2 0 01-2 2h-43a2 2 0 01-2-2zm135 0a2 2 0 012-2h152a2 2 0 012 2v6a2 2 0 01-2 2H510a2 2 0 01-2-2z" fill="#ead6c7" fill-rule="evenodd"/><circle cx="349" cy="334" fill="#ead6c7" r="7"/><rect fill="#fbf2eb" height="31" rx="8" width="388" x="330" y="278"/><path clip-rule="evenodd" d="M373 291a2 2 0 012-2h64a2 2 0 012 2v6a2 2 0 01-2 2h-64a2 2 0 01-2-2zm135 0a2 2 0 012-2h96a2 2 0 012 2v6a2 2 0 01-2 2h-96a2 2 0 01-2-2z" fill="#ead6c7" fill-rule="evenodd"/><circle cx="349" cy="294" fill="#ead6c7" r="7"/><path d="M78 70c2.379 0 4.307-2.015 4.307-4.5S80.378 61 78 61c-2.38 0-4.308 2.015-4.308 4.5 0 2.484 1.928 4.499 4.307 4.499zm0 1.286c-2.67 0-8 1.723-8 5.143V79h16v-2.571c0-3.42-5.33-5.143-8-5.143z" fill="#fbf2eb"/></svg>