<svg width="544" height="489" fill="none" xmlns="http://www.w3.org/2000/svg"><path d="M521.627.195H22.757C10.4.195.383 10.21.383 22.568v443.936c0 12.357 10.017 22.373 22.373 22.373h498.871c12.356 0 22.373-10.016 22.373-22.373V22.568C544 10.21 533.983.195 521.627.195z" fill="#fff"/><path d="M506.072 51.558H36.453c-8.88 0-16.078 7.199-16.078 16.078v.892c0 8.88 7.198 16.078 16.078 16.078h469.619c8.88 0 16.078-7.199 16.078-16.078v-.892c0-8.88-7.198-16.078-16.078-16.078z" fill="#F3F6FC"/><path d="M178.068 63.425H40.592a4.65 4.65 0 000 9.3h137.476a4.65 4.65 0 000-9.3zm45.447 0h-32.379a4.65 4.65 0 000 9.3h32.379a4.65 4.65 0 000-9.3z" fill="#C0C9E2"/><path d="M252.537 93.728H33.88c-7.458 0-13.505 6.046-13.505 13.505v247.749c0 7.459 6.047 13.505 13.505 13.505h218.657c7.458 0 13.505-6.046 13.505-13.505V107.233c0-7.459-6.047-13.505-13.505-13.505z" fill="#F2F4F8"/><path d="M28.355 34.995a7.98 7.98 0 10-.001-15.96 7.98 7.98 0 000 15.96z" fill="#F8334A"/><path d="M52.03 34.995a7.98 7.98 0 100-15.96 7.98 7.98 0 000 15.96z" fill="#F7C31D"/><path d="M75.706 34.995a7.98 7.98 0 100-15.959 7.98 7.98 0 000 15.96z" fill="#38D535"/><path d="M201.921 391.153H66.494a3.606 3.606 0 000 7.212H201.92a3.607 3.607 0 000-7.212zm221.17 0H338.95a3.607 3.607 0 000 7.212h84.141a3.607 3.607 0 000-7.212zm-199.133 43.272H66.894a4.007 4.007 0 000 8.014h157.064a4.007 4.007 0 000-8.014zm259.634 0H339.351a4.007 4.007 0 000 8.014h144.241a4.007 4.007 0 000-8.014z" fill="#C0C9E2"/><path d="M146.184 404.487h-79.23a3.819 3.819 0 000 7.637h79.23a3.819 3.819 0 000-7.637zm342.617.289H338.95a3.606 3.606 0 000 7.212h149.851a3.607 3.607 0 000-7.212zm-54.892 44.073h-94.558a4.008 4.008 0 000 8.014h94.558a4.007 4.007 0 000-8.014zm-276.864-.801H66.494a3.606 3.606 0 000 7.212h90.551a3.606 3.606 0 000-7.212z" fill="#E4E8F4"/><path d="M178.551 326.426h-78.248a3.818 3.818 0 100 7.637h78.248a3.82 3.82 0 000-7.637z" fill="#E4E7ED"/><path d="M37.472 418.653c9.444 0 17.098-7.654 17.098-17.097 0-9.443-7.654-17.098-17.098-17.098-9.443 0-17.097 7.655-17.097 17.098 0 9.443 7.654 17.097 17.097 17.097z" fill="#DDE9FE"/><path d="M41.049 397.087c0 1.976-1.6 3.575-3.576 3.575a3.573 3.573 0 01-3.575-3.575 3.574 3.574 0 013.575-3.576c1.976 0 3.576 1.6 3.576 3.576zm-3.576 6.256c-2.684 0-8.044 1.348-8.044 4.023v1.34c0 .492.402.894.894.894h14.3a.896.896 0 00.895-.894v-1.34c0-2.675-5.36-4.023-8.045-4.023z" fill="#3180FF"/><path d="M309.39 418.653c9.442 0 17.098-7.654 17.098-17.097 0-9.443-7.656-17.098-17.098-17.098-9.443 0-17.097 7.655-17.097 17.098 0 9.443 7.654 17.097 17.097 17.097z" fill="#DDE9FE"/><path d="M312.965 397.087a3.573 3.573 0 01-3.575 3.575 3.574 3.574 0 01-3.576-3.575c0-1.976 1.6-3.575 3.576-3.575a3.573 3.573 0 013.575 3.575zm-3.575 6.257c-2.684 0-8.044 1.347-8.044 4.022v1.34c0 .492.402.894.894.894h14.3a.896.896 0 00.894-.894v-1.34c0-2.675-5.359-4.022-8.044-4.022z" fill="#3180FF"/><path d="M37.472 462.096c9.444 0 17.098-7.654 17.098-17.097 0-9.443-7.654-17.097-17.098-17.097-9.443 0-17.097 7.654-17.097 17.097 0 9.443 7.654 17.097 17.097 17.097z" fill="#DDE9FE"/><path d="M41.049 440.53c0 1.976-1.6 3.575-3.576 3.575a3.573 3.573 0 01-3.575-3.575 3.573 3.573 0 013.575-3.575 3.573 3.573 0 013.576 3.575zm-3.576 6.257c-2.684 0-8.044 1.348-8.044 4.022v1.34c0 .493.402.895.894.895h14.3a.896.896 0 00.895-.895v-1.34c0-2.674-5.36-4.022-8.045-4.022z" fill="#3180FF"/><path d="M309.39 462.096c9.442 0 17.098-7.654 17.098-17.097 0-9.443-7.656-17.097-17.098-17.097-9.443 0-17.097 7.654-17.097 17.097 0 9.443 7.654 17.097 17.097 17.097z" fill="#DDE9FE"/><path d="M312.965 440.53a3.573 3.573 0 01-3.575 3.575 3.574 3.574 0 01-3.576-3.575c0-1.976 1.6-3.575 3.576-3.575a3.573 3.573 0 013.575 3.575zm-3.575 6.257c-2.684 0-8.044 1.348-8.044 4.022v1.34c0 .492.402.894.894.894h14.3a.896.896 0 00.894-.894v-1.34c0-2.674-5.359-4.022-8.044-4.022z" fill="#3180FF"/><path d="M192.811 368.486h35.866V208.205a6.43 6.43 0 00-6.431-6.431h-23.004a6.43 6.43 0 00-6.431 6.431v160.281z" fill="#0B63F4"/><path d="M147.94 368.486h35.866v-115.72a6.43 6.43 0 00-6.431-6.431h-23.003a6.432 6.432 0 00-6.432 6.431v115.72z" fill="#FF3868"/><path d="M103.071 368.486h35.866V159.699a6.431 6.431 0 00-6.431-6.431h-23.004a6.43 6.43 0 00-6.431 6.431v208.787z" fill="#0B63F4"/><path d="M57.742 368.486h36.326V208.205a6.43 6.43 0 00-6.431-6.431H64.172a6.43 6.43 0 00-6.43 6.431v160.281z" fill="#6938F5"/><path d="M509.008 93.855H290.351c-7.459 0-13.505 6.046-13.505 13.505v247.748c0 7.459 6.046 13.505 13.505 13.505h218.657c7.459 0 13.505-6.046 13.505-13.505V107.36c0-7.46-6.046-13.505-13.505-13.505z" fill="#F2F4F8"/><path fill-rule="evenodd" clip-rule="evenodd" d="M398.414 230.72v-70.354c-38.453.471-69.481 31.789-69.481 70.354.001 35.903 26.893 65.526 61.632 69.824l8.729-69.824h-.88z" fill="#FF3868"/><path fill-rule="evenodd" clip-rule="evenodd" d="M467.662 213.562l-69.442 17.643v-70.833c.295-.004.589-.006.884-.006 33.016 0 60.749 22.613 68.558 53.196z" fill="#0B63F4"/><path fill-rule="evenodd" clip-rule="evenodd" d="M398.628 301.402h.821c38.875-.221 70.32-31.802 70.32-70.728 0-5.918-.726-11.665-2.095-17.157l-69.183 17.393-8.23 69.954c2.743.34 5.536.522 8.367.538z" fill="#6938F5"/></svg>