<svg xmlns="http://www.w3.org/2000/svg" width="358" height="400"><g data-name="Analytics Card" transform="translate(-64 -32)"><g data-name="Group 98"><rect data-name="Rectangle 125" width="358" height="400" rx="24" transform="translate(64 32)" fill="#fff"/></g><circle data-name="Ellipse 55" cx="105" cy="105" r="105" transform="translate(138 132)" opacity=".6" stroke="#e6eaf5" stroke-linecap="round" stroke-width="8" fill="none"/><circle data-name="Ellipse 56" cx="71" cy="71" r="71" transform="translate(172 166)" opacity=".6" stroke="#e6eaf5" stroke-linecap="round" stroke-width="8" fill="none"/><path data-name="Path 422" d="M243 166a71 71 0 11-50.9 120.5" fill="none" stroke="#f2b8ec" stroke-linecap="round" stroke-width="8"/><circle data-name="Ellipse 57" cx="37" cy="37" r="37" transform="translate(206 200)" opacity=".6" stroke="#e6eaf5" stroke-linecap="round" stroke-width="8" fill="none"/><path data-name="Path 423" d="M243 274a37 37 0 000-74" fill="none" stroke="#4ddffd" stroke-linecap="round" stroke-width="8"/><path data-name="Path 424" d="M138 237a105 105 0 10105-105" fill="none" stroke="#6a35ff" stroke-linecap="round" stroke-width="8"/><path data-name="Path 425" d="M142.278 88h8.28v-1.656h-6.408V82.33h5.022v-1.656h-5.022v-3.618h6.21V75.4h-8.082zm13.509-9.216a3.636 3.636 0 00-3.906 3.114h1.62a2.061 2.061 0 012.232-1.71c1.4 0 2.2.756 2.2 1.854 0 .324-.2.54-.612.54h-1.89c-2.142 0-3.528 1.08-3.528 2.826a2.768 2.768 0 003.078 2.736 3.131 3.131 0 002.952-1.62V88h1.746v-5.85c-.004-2.016-1.552-3.366-3.892-3.366zm-.468 7.974c-1.008 0-1.692-.558-1.692-1.386 0-.954.774-1.566 1.962-1.566h2.34v.216a2.466 2.466 0 01-2.61 2.736zm11.635-6.318v-1.512h-1.1a2.27 2.27 0 00-2.412 1.746v-1.746H161.7V88h1.746v-4.1c0-1.98.54-3.456 2.2-3.456zM168.4 88h1.746v-4.914a2.5 2.5 0 012.43-2.736 2.157 2.157 0 012.124 2.412V88h1.746v-5.58a3.322 3.322 0 00-3.384-3.636 2.981 2.981 0 00-2.916 1.746v-1.6H168.4zm10.176-12.87v2.2h1.944v-2.2zm.103 12.87h1.746v-9.072h-1.746zm3.955 0h1.746v-4.914a2.5 2.5 0 012.43-2.736 2.157 2.157 0 012.124 2.412V88h1.746v-5.58a3.322 3.322 0 00-3.384-3.636 2.981 2.981 0 00-2.916 1.746v-1.6h-1.746zm17.066-9.072v1.206a3.574 3.574 0 00-2.88-1.35c-2.772 0-4.338 1.98-4.338 4.68s1.566 4.68 4.356 4.68a3.287 3.287 0 002.862-1.3v1.476a1.784 1.784 0 01-1.8 1.89h-4.194v1.458h4.374a3.163 3.163 0 003.366-3.24v-9.5zm-2.664 7.686c-1.674 0-2.772-1.242-2.772-3.15s1.1-3.15 2.772-3.15c1.692 0 2.79 1.242 2.79 3.15s-1.095 3.15-2.787 3.15zM208.055 88h4.9c2.61 0 4.23-1.4 4.23-3.69a3.2 3.2 0 00-2.2-3.2 2.79 2.79 0 001.62-2.466c0-2.07-1.53-3.24-3.888-3.24h-4.662zm1.854-7.506v-3.528h2.7c1.422 0 2.178.612 2.178 1.764 0 1.17-.756 1.764-2.16 1.764zm0 5.85v-4.212h2.79c1.764 0 2.628.738 2.628 2.106s-.864 2.106-2.628 2.106zm16.4-7.416h-1.8l-2.394 6.8-2.376-6.8h-1.8l3.366 9.162-1.224 3.582h1.674l1.368-4zM231.944 88h1.872v-5h3.006c2.538 0 4.068-1.566 4.068-3.8s-1.53-3.8-4.068-3.8h-4.878zm1.872-6.624V77.02h2.952a2.179 2.179 0 110 4.356zM242.524 88h1.746V75.13h-1.746zm7.5-9.216a3.636 3.636 0 00-3.906 3.114h1.62a2.062 2.062 0 012.232-1.71c1.4 0 2.2.756 2.2 1.854 0 .324-.2.54-.612.54h-1.89c-2.142 0-3.528 1.08-3.528 2.826a2.768 2.768 0 003.078 2.736 3.131 3.131 0 002.952-1.62V88h1.746v-5.85c-.004-2.016-1.552-3.366-3.892-3.366zm-.468 7.974c-1.008 0-1.692-.558-1.692-1.386 0-.954.774-1.566 1.962-1.566h2.34v.216a2.466 2.466 0 01-2.61 2.736zm7.334-10.674v2.844h-1.854v1.512h1.854v4.59A2.77 2.77 0 00259.9 88h1.422v-1.512h-1.282a1.329 1.329 0 01-1.4-1.512V80.44h2.682v-1.512h-2.682v-2.844zM263.851 88h1.749v-7.56h2.736v-1.512H265.6V78.1a1.32 1.32 0 011.368-1.458h1.368V75.13h-1.494a2.76 2.76 0 00-2.988 2.916v.882H262v1.512h1.854zm9.566.144a4.68 4.68 0 10-4.68-4.68 4.5 4.5 0 004.68 4.68zm0-1.53a3.163 3.163 0 112.88-3.15 2.889 2.889 0 01-2.88 3.15zm11.627-6.174v-1.512h-1.1a2.27 2.27 0 00-2.412 1.746v-1.746h-1.746V88h1.746v-4.1c0-1.98.54-3.456 2.2-3.456zm1.441 7.56h1.746v-5.274a2.164 2.164 0 012.214-2.412c1.188 0 1.908.972 1.908 2.412V88h1.747v-5.274a2.164 2.164 0 012.214-2.412c1.206 0 1.926.972 1.926 2.412V88h1.746v-5.76c0-2.106-1.224-3.456-3.186-3.456a3.1 3.1 0 00-2.952 1.854 2.8 2.8 0 00-2.934-1.854 2.74 2.74 0 00-2.682 1.764v-1.62h-1.746zm22.905 0h1.872V77.056h3.938V75.4h-9.756v1.656h3.942zm13.8-9.072h-1.8l-2.394 6.8-2.376-6.8h-1.8l3.366 9.162-1.224 3.582h1.674l1.368-4zm1.41 12.744h1.746v-4.95a3.253 3.253 0 002.808 1.422c2.754 0 4.392-1.98 4.392-4.68s-1.566-4.68-4.3-4.68a3.341 3.341 0 00-2.9 1.494v-1.35H324.6zm4.392-5.058c-1.692 0-2.79-1.26-2.79-3.15s1.1-3.15 2.79-3.15c1.674 0 2.79 1.26 2.79 3.15s-1.119 3.15-2.793 3.15zm12.738-1.566a2.228 2.228 0 01-2.448 1.6 2.868 2.868 0 01-2.844-2.88h6.93c.018-.162.036-.45.036-.684a4.087 4.087 0 00-4.3-4.3c-2.79 0-4.374 2.088-4.374 4.626a4.521 4.521 0 004.554 4.734c2.232 0 3.87-1.224 4.194-3.1zm-2.628-4.86a2.367 2.367 0 012.538 2.3h-5.148a2.485 2.485 0 012.608-2.3z" fill="#7b88a8"/><rect data-name="Rectangle 126" width="8" height="8" rx="4" transform="translate(117 385)" fill="#9672ff"/><path data-name="Path 426" d="M131.994 394h1.456v-9.8h-1.456zm3.319 0h1.358v-3.822a1.947 1.947 0 011.89-2.128 1.677 1.677 0 011.652 1.876V394h1.358v-4.34a2.584 2.584 0 00-2.632-2.828 2.318 2.318 0 00-2.268 1.358v-1.246h-1.358zm10.476.112c1.6 0 2.646-.826 2.646-2.114 0-3.22-4.032-1.428-4.032-3.178 0-.546.49-.91 1.218-.91a1.4 1.4 0 011.484 1.134h1.274c-.07-1.33-1.162-2.212-2.758-2.212-1.47 0-2.506.812-2.506 2.03 0 3.01 4 1.288 4 3.164 0 .518-.518.952-1.33.952a1.409 1.409 0 01-1.582-1.274h-1.274a2.575 2.575 0 002.86 2.408zm4.774-9.38v2.212h-1.442v1.176h1.442v3.57A2.155 2.155 0 00152.9 394h1.106v-1.176h-.994a1.034 1.034 0 01-1.092-1.176v-3.528h2.086v-1.176h-2.086v-2.212zm7.169 2.1a2.828 2.828 0 00-3.038 2.422h1.26a1.6 1.6 0 011.736-1.33c1.092 0 1.708.588 1.708 1.442 0 .252-.154.42-.476.42h-1.47c-1.666 0-2.744.84-2.744 2.2a2.153 2.153 0 002.394 2.128 2.435 2.435 0 002.3-1.26V394h1.358v-4.55c-.004-1.568-1.208-2.618-3.028-2.618zm-.364 6.2c-.784 0-1.316-.434-1.316-1.078 0-.742.6-1.218 1.526-1.218h1.82v.168a1.918 1.918 0 01-2.03 2.13zm10.239-6.09v.938a2.78 2.78 0 00-2.24-1.05c-2.156 0-3.374 1.54-3.374 3.64s1.218 3.64 3.388 3.64a2.557 2.557 0 002.226-1.008v1.148a1.387 1.387 0 01-1.4 1.47h-3.262v1.134h3.4a2.46 2.46 0 002.618-2.52v-7.392zm-2.072 5.978a2.468 2.468 0 112.17-2.45 2.176 2.176 0 01-2.17 2.452zm9.3-4.8v-1.176h-.854a1.766 1.766 0 00-1.876 1.358v-1.358h-1.358V394h1.358v-3.192c0-1.54.42-2.688 1.708-2.688zm3.66-1.288a2.828 2.828 0 00-3.038 2.422h1.26a1.6 1.6 0 011.736-1.33c1.092 0 1.708.588 1.708 1.442 0 .252-.154.42-.476.42h-1.47c-1.666 0-2.744.84-2.744 2.2a2.153 2.153 0 002.394 2.128 2.435 2.435 0 002.3-1.26V394h1.358v-4.55c0-1.568-1.204-2.618-3.023-2.618zm-.364 6.2c-.784 0-1.316-.434-1.316-1.078 0-.742.6-1.218 1.526-1.218h1.82v.168a1.918 1.918 0 01-2.026 2.13zm4.969.968h1.358v-4.1a1.683 1.683 0 011.722-1.876c.924 0 1.484.756 1.484 1.876v4.1h1.358v-4.1a1.683 1.683 0 011.722-1.876c.938 0 1.5.756 1.5 1.876v4.1h1.356v-4.48a2.509 2.509 0 00-4.774-1.246 2.178 2.178 0 00-2.282-1.442 2.131 2.131 0 00-2.086 1.372v-1.26H183.1z" fill="#7b88a8"/><rect data-name="Rectangle 127" width="8" height="8" rx="4" transform="translate(219 385)" fill="#f2b8ec"/><path data-name="Path 427" d="M233.994 394H237a4.9 4.9 0 100-9.8h-3.01zm1.456-1.288v-7.224h1.47a3.613 3.613 0 010 7.224zm11.994-4.592v-1.176h-.854a1.766 1.766 0 00-1.876 1.358v-1.358h-1.358V394h1.358v-3.192c0-1.54.42-2.688 1.708-2.688zm1.037-4.13v1.71h1.512v-1.71zm.084 10.01h1.358v-7.056h-1.358zm6.716.112c2.17 0 3.388-1.54 3.388-3.64s-1.218-3.64-3.374-3.64a2.57 2.57 0 00-2.226 1.148v-3.99h-1.358V394h1.358v-1.05a2.559 2.559 0 002.212 1.162zm-.154-1.19a2.468 2.468 0 112.17-2.45 2.186 2.186 0 01-2.17 2.45zm8.522 1.19c2.17 0 3.388-1.54 3.388-3.64s-1.218-3.64-3.374-3.64a2.57 2.57 0 00-2.226 1.148v-3.99h-1.358V394h1.358v-1.05a2.559 2.559 0 002.212 1.162zm-.154-1.19a2.468 2.468 0 112.17-2.45 2.186 2.186 0 01-2.17 2.45zm8.521 1.19c2.17 0 3.388-1.54 3.388-3.64s-1.218-3.64-3.374-3.64a2.57 2.57 0 00-2.226 1.148v-3.99h-1.358V394h1.354v-1.05a2.559 2.559 0 002.216 1.162zm-.154-1.19a2.468 2.468 0 112.17-2.45 2.186 2.186 0 01-2.17 2.45zm4.951 1.078h1.358v-10.01h-1.358zm8.2-2.3a1.733 1.733 0 01-1.9 1.246 2.231 2.231 0 01-2.212-2.24h5.39a5.56 5.56 0 00.028-.532 3.179 3.179 0 00-3.346-3.346 3.336 3.336 0 00-3.4 3.6 3.516 3.516 0 003.542 3.682 3.047 3.047 0 003.262-2.408zm-2.044-3.78a1.841 1.841 0 011.974 1.792h-4a1.933 1.933 0 012.023-1.788z" fill="#7b88a8"/><rect data-name="Rectangle 128" width="8" height="8" rx="4" transform="translate(311 385)" fill="#4ddffd"/><path data-name="Path 428" d="M328.22 394h1.456v-8.512h3.066V384.2h-7.588v1.288h3.066zm6.475 0h1.26l1.6-5.264 1.61 5.264h1.26l2.184-7.056h-1.372l-1.442 5.25-1.582-5.25h-1.288l-1.6 5.25-1.456-5.25h-1.358zm8.917-10.01v1.71h1.512v-1.71zM343.7 394h1.358v-7.056H343.7zm11.784-5.88v-1.176h-2.086v-2.212h-1.358v2.212h-3.094v-2.212h-1.358v2.212h-1.442v1.176h1.442v3.57a2.155 2.155 0 002.338 2.31h1.106v-1.176h-.994a1.034 1.034 0 01-1.092-1.176v-3.528h3.094v3.57a2.155 2.155 0 002.338 2.31h1.106v-1.176h-.994a1.04 1.04 0 01-1.092-1.176v-3.528zm6.053 3.584a1.733 1.733 0 01-1.9 1.246 2.231 2.231 0 01-2.212-2.24h5.39a5.56 5.56 0 00.028-.532 3.178 3.178 0 00-3.346-3.346 3.336 3.336 0 00-3.4 3.6 3.516 3.516 0 003.542 3.682 3.047 3.047 0 003.262-2.408zm-2.044-3.78a1.841 1.841 0 011.974 1.792h-4a1.933 1.933 0 012.022-1.792zm8.817.2v-1.176h-.854a1.766 1.766 0 00-1.876 1.358v-1.358h-1.358V394h1.358v-3.192c0-1.54.42-2.688 1.708-2.688z" fill="#7b88a8"/><g data-name="Group 99"><path data-name="Path 429" d="M105 169a18 18 0 00-18 18v12a18 18 0 0018 18h20.787a8 8 0 015.656 2.343l1.8 1.8a8 8 0 0011.313 0l1.8-1.8a8 8 0 015.656-2.343H171a18 18 0 0018-18v-12a18 18 0 00-18-18z" fill="#fff" fill-rule="evenodd"/><path data-name="Path 430" d="M88 187a17 17 0 0117-17v-2a19 19 0 00-19 19zm0 12v-12h-2v12zm17 17a17 17 0 01-17-17h-2a19 19 0 0019 19zm20.787 0H105v2h20.787zm4.949 4.05l1.8 1.8 1.415-1.414-1.8-1.8zm14.527 1.8l1.8-1.8-1.414-1.414-1.8 1.8zM171 216h-18.988v2H171zm17-17a17 17 0 01-17 17v2a19 19 0 0019-19zm0-12v12h2v-12zm-17-17a17 17 0 0117 17h2a19 19 0 00-19-19zm-66 0h66v-2h-66zm42.062 50.05a7 7 0 014.95-2.05v-2a9 9 0 00-6.364 2.636zm-14.527 1.8a9 9 0 0012.728 0l-1.414-1.414a7 7 0 01-9.9 0zm-6.748-3.85a7 7 0 014.949 2.05l1.415-1.414a9 9 0 00-6.364-2.636z" fill="#f8faff"/></g><path data-name="Path 431" d="M110.276 196.578c0-6.006-8.382-3.454-8.382-6.864 0-1.078.946-1.782 2.464-1.782a2.545 2.545 0 012.816 2.244h2.772a4.769 4.769 0 00-4.2-4.62v-1.936h-2.356v1.87c-2.6.33-4.334 1.958-4.334 4.224 0 5.9 8.272 3.608 8.272 6.908 0 1.364-1.144 2.024-2.794 2.024a2.918 2.918 0 01-3.146-2.816h-2.794a5.3 5.3 0 004.8 5.258v1.936l2.354.022v-1.958c2.724-.352 4.528-2.002 4.528-4.51zm7.56-10.978h-2.772c-.176 1.672-.88 2.156-2.068 2.156h-1.1v2.508h1.21a2.607 2.607 0 001.826-.594V201h2.9zm8.094 15.576c3.036 0 5.676-1.716 5.676-4.686a3.753 3.753 0 00-2.574-3.608 3.707 3.707 0 001.936-3.322c0-2.288-2.2-4.136-5.17-4.136-2.794 0-5.192 1.8-5.236 4.8h2.75a2.194 2.194 0 012.42-2.288c1.452 0 2.42.726 2.42 1.914a2.032 2.032 0 01-2.266 2h-1.364v2.42h1.408c1.694 0 2.794.792 2.794 2.156 0 1.386-1.1 2.222-2.794 2.222-1.606 0-2.9-.88-2.9-2.508h-2.82c0 3.122 2.552 5.036 5.72 5.036zm7.222.682v2.134h1.21a3.021 3.021 0 003.278-3.322v-2.6h-2.684v2.354c0 .9-.33 1.43-.99 1.43zm12.575-.682c3.234 0 5.72-1.8 5.72-4.686a3.988 3.988 0 00-2.618-3.784 3.681 3.681 0 001.98-3.146c0-2.42-2.09-4.136-5.082-4.136s-5.082 1.716-5.082 4.136a3.7 3.7 0 001.958 3.146 4.081 4.081 0 00-2.618 3.784c0 2.882 2.508 4.686 5.742 4.686zm0-9.614c-1.452 0-2.354-.726-2.354-1.892s.9-1.892 2.354-1.892c1.43 0 2.376.726 2.376 1.892s-.946 1.892-2.376 1.892zm0 7.106c-1.738 0-2.9-.836-2.9-2.244 0-1.386 1.166-2.266 2.9-2.266 1.76 0 2.86.88 2.86 2.266 0 1.408-1.1 2.244-2.86 2.244zm13.209 2.508c3.036 0 5.676-1.716 5.676-4.686a3.753 3.753 0 00-2.574-3.608 3.707 3.707 0 001.936-3.322c0-2.288-2.2-4.136-5.17-4.136-2.794 0-5.192 1.8-5.236 4.8h2.75a2.194 2.194 0 012.42-2.288c1.452 0 2.42.726 2.42 1.914a2.032 2.032 0 01-2.266 2h-1.364v2.42h1.408c1.694 0 2.794.792 2.794 2.156 0 1.386-1.1 2.222-2.794 2.222-1.606 0-2.9-.88-2.9-2.508h-2.816c-.004 3.122 2.548 5.036 5.716 5.036zm7.142-10.23H169c-.044-1.87.88-3.124 2.53-3.124a2.242 2.242 0 012.442 2.354 2.883 2.883 0 01-1.892 2.618l-2.464 1.232c-1.474.726-3.564 2.354-3.564 4.84l.022 2.134H176.9v-2.53h-7.964c0-.946 1.056-1.694 1.936-2.156l2.376-1.188c2.442-1.21 3.652-2.86 3.652-4.928 0-2.882-2.2-4.774-5.368-4.774-3.364 0-5.52 2.112-5.454 5.522z" fill="#6a35ff"/></g></svg>