<svg width="375" height="302" fill="none" xmlns="http://www.w3.org/2000/svg"><g clip-path="url(#clip0)"><path fill="#fff" d="M0 0h375v301.015H0z"/><g filter="url(#filter0_d)"><path d="M379.905-2H.297C-11.465-2-21 7.535-21 19.297v262.902c0 11.762 9.535 21.296 21.297 21.296h379.608c11.762 0 21.296-9.534 21.296-21.296V19.297C401.201 7.535 391.667-2 379.905-2z" fill="#fff" fill-opacity=".01"/></g><path d="M379.905-2H.297C-11.465-2-21 7.535-21 19.297v262.902c0 11.762 9.535 21.296 21.297 21.296h379.608c11.762 0 21.296-9.534 21.296-21.296V19.297C401.201 7.535 391.667-2 379.905-2z" fill="#fff"/><path d="M379.905-1.696H.297c-11.594 0-20.993 9.399-20.993 20.993v262.902c0 11.594 9.399 20.993 20.993 20.993h379.608c11.594 0 20.993-9.399 20.993-20.993V19.297c0-11.594-9.399-20.993-20.993-20.993z" stroke="#C5CCD8" stroke-opacity=".3" stroke-width=".608"/><path d="M231.863 63.218H23.623a5.721 5.721 0 000 11.442h208.24a5.722 5.722 0 000-11.442z" fill="#E4E8F4"/><path d="M207.835 38.046H24.767a6.865 6.865 0 100 13.73h183.068a6.865 6.865 0 100-13.73z" fill="#C0C9E2"/><path d="M183.808 181.64c0 45.814-37.139 82.953-82.953 82.953s-82.953-37.139-82.953-82.953 37.139-82.952 82.953-82.952 82.953 37.138 82.953 82.952zm-149.315 0c0 36.652 29.71 66.363 66.362 66.363 36.651 0 66.362-29.711 66.362-66.363 0-36.651-29.711-66.362-66.362-66.362-36.651 0-66.362 29.711-66.362 66.362z" fill="#F1F4F8"/><path d="M183.808 181.64a82.954 82.954 0 01-17.798 51.342l-13.031-10.269a66.36 66.36 0 0014.238-41.073h16.591z" fill="#0B63F4"/><path d="M166.015 232.976a82.96 82.96 0 01-105.607 21.088A82.962 82.962 0 0131.95 227.83l13.782-9.238a66.364 66.364 0 0082.942 23.298 66.344 66.344 0 0024.308-19.182l13.033 10.268z" fill="#6938F5"/><path d="M32.112 228.068a82.954 82.954 0 0193.366-125.642l-4.925 15.843a66.368 66.368 0 00-72.964 23.79 66.36 66.36 0 00-1.729 76.724l-13.748 9.285z" fill="#FF3868"/><path d="M315.388 128.436h-50.344a5.722 5.722 0 000 11.442h50.344a5.722 5.722 0 000-11.442zm42.335 48.056h-92.679a5.72 5.72 0 100 11.441h92.679a5.72 5.72 0 000-11.441zm-22.884 48.055h-69.795a5.722 5.722 0 000 11.442h69.795a5.722 5.722 0 000-11.442z" fill="#E4E8F4"/><path d="M239.872 144.455c5.688 0 10.298-4.61 10.298-10.298s-4.61-10.298-10.298-10.298-10.297 4.61-10.297 10.298 4.609 10.298 10.297 10.298z" fill="#FF3868"/><path d="M239.872 192.51c5.688 0 10.298-4.61 10.298-10.298 0-5.687-4.61-10.297-10.298-10.297s-10.297 4.61-10.297 10.297c0 5.688 4.609 10.298 10.297 10.298z" fill="#6938F5"/><path d="M239.872 240.565c5.688 0 10.298-4.609 10.298-10.297 0-5.688-4.61-10.298-10.298-10.298s-10.297 4.61-10.297 10.298 4.609 10.297 10.297 10.297z" fill="#0B63F4"/></g><defs><clipPath id="clip0"><path fill="#fff" d="M0 0h375v301.015H0z"/></clipPath><filter id="filter0_d" x="-94.227" y="-52.344" width="591.539" height="474.833" filterUnits="userSpaceOnUse" color-interpolation-filters="sRGB"><feFlood flood-opacity="0" result="BackgroundImageFix"/><feColorMatrix in="SourceAlpha" values="0 0 0 0 0 0 0 0 0 0 0 0 0 0 0 0 0 0 127 0" result="hardAlpha"/><feOffset dx="11.442" dy="34.325"/><feGaussianBlur stdDeviation="42.334"/><feColorMatrix values="0 0 0 0 0.0572917 0 0 0 0 0.19525 0 0 0 0 0.55 0 0 0 0.25 0"/><feBlend in2="BackgroundImageFix" result="effect1_dropShadow"/><feBlend in="SourceGraphic" in2="effect1_dropShadow" result="shape"/></filter></defs></svg>