<svg xmlns="http://www.w3.org/2000/svg" xmlns:xlink="http://www.w3.org/1999/xlink" width="720" height="557" viewBox="-85 -202.25 720 557" enable-background="new -85 -202.25 720 557"><path fill="#DAE5FF" d="M93.495-75.432h453.12c17.063 0 30.895 15.122 30.895 33.774v354.633c0 18.653-13.831 33.774-30.895 33.774H93.495c-17.063 0-30.895-15.121-30.895-33.774V-41.657c0-18.653 13.832-33.775 30.895-33.775z"/><image overflow="visible" opacity=".01" width="933" height="539" xlink:href="BA81DD76.png" transform="translate(-91.5 -10.5)"/><image overflow="visible" opacity=".1" width="572" height="179" xlink:href="BA81DD7A.png" transform="translate(87.5 167.5)"/><image overflow="visible" opacity=".01" width="522" height="131" xlink:href="BA81DD7D.png" transform="translate(111.5 188.5)"/><path fill="#FFF" d="M129.538 191.106h484.015c8.53 0 15.447 6.917 15.447 15.447v92.684c0 8.531-6.917 15.447-15.447 15.447H129.538c-8.531 0-15.447-6.916-15.447-15.447v-92.684c0-8.53 6.916-15.447 15.447-15.447z"/><g opacity=".48"><path fill="#4E5A85" d="M479.677 222.001h108.131c5.687 0 10.298 4.611 10.298 10.298v41.193c0 5.687-4.611 10.298-10.298 10.298H479.677c-5.688 0-10.299-4.611-10.299-10.298v-41.193c0-5.687 4.611-10.298 10.299-10.298z"/><path fill="#7E8BB6" d="M510.571 245.172h46.342a7.724 7.724 0 010 15.448h-46.342a7.725 7.725 0 010-15.448z"/></g><path opacity=".2" fill="#4E5A85" enable-background="new" d="M245.393 232.299H402.44a7.724 7.724 0 010 15.448H245.393a7.724 7.724 0 010-15.448zm0 25.746h111.993a7.725 7.725 0 010 15.448H245.393a7.724 7.724 0 110-15.448z"/><defs><filter id="a" filterUnits="userSpaceOnUse" x="134.688" y="183.589" width="78.678" height="144.587"><feColorMatrix values="1 0 0 0 0 0 1 0 0 0 0 0 1 0 0 0 0 0 1 0"/></filter></defs><mask maskUnits="userSpaceOnUse" x="134.688" y="183.589" width="78.678" height="144.587" id="b"><circle fill="#FEECD0" filter="url(#a)" cx="175.88" cy="214.896" r="41.192"/></mask><g mask="url(#b)"><path fill="none" d="M134.688 183.589h78.678v144.587h-78.678z"/></g><path fill="#0059F7" d="M80.935-111.344c29.93 0 54.192 24.263 54.192 54.192 0 29.93-24.263 54.193-54.192 54.193-29.93 0-54.192-24.263-54.192-54.193-.001-29.929 24.262-54.192 54.192-54.192z"/><image overflow="visible" width="163" height="192" xlink:href="BA81DD7E.jpg" transform="translate(-61.663 71.976) scale(.4559)"/><path fill="#CCD2E9" d="M80.935-34.572c-12.471 0-22.579-10.108-22.579-22.58 0-12.471 10.108-22.581 22.579-22.581s22.579 10.11 22.579 22.581c0 12.472-10.109 22.58-22.579 22.58zm2.256-22.58v-11.29h-4.514v15.806h13.547v-4.516h-9.033z"/><image overflow="visible" opacity=".01" width="850" height="519" xlink:href="BA81DD7E.png" transform="translate(-282.5 -136.5)"/><image overflow="visible" opacity=".1" width="490" height="159" xlink:href="BA81DD7B.png" transform="translate(-102.5 41.5)"/><image overflow="visible" opacity=".01" width="440" height="111" xlink:href="BA81DD75.png" transform="translate(-78.5 62.5)"/><path fill="#FFF" d="M-62.767 64.797h406.442c7.163 0 12.972 5.808 12.972 12.972v77.829c0 7.164-5.809 12.972-12.972 12.972H-62.767c-7.164 0-12.972-5.808-12.972-12.972V77.769c.001-7.165 5.808-12.972 12.972-12.972z"/><path fill="#0059F7" d="M231.256 90.74h90.801a8.647 8.647 0 018.647 8.647v34.591a8.648 8.648 0 01-8.647 8.648h-90.801a8.648 8.648 0 01-8.648-8.648v-34.59a8.647 8.647 0 018.648-8.648z"/><path fill="#689EFF" d="M257.199 110.197h38.914a6.487 6.487 0 010 12.972h-38.914a6.486 6.486 0 010-12.972z"/><circle fill="#2DB27C" cx="-23.852" cy="116.683" r="34.591"/><defs><filter id="c" filterUnits="userSpaceOnUse" x="-63.285" y="55.173" width="81.289" height="178.144"><feColorMatrix values="1 0 0 0 0 0 1 0 0 0 0 0 1 0 0 0 0 0 1 0"/></filter></defs><mask maskUnits="userSpaceOnUse" x="-63.285" y="55.173" width="81.289" height="178.144" id="d"><circle fill="#FEECD0" filter="url(#c)" cx="-23.852" cy="85.613" r="34.591"/></mask><g mask="url(#d)"><path fill="none" d="M-63.285 55.173h81.289v178.144h-81.289z"/></g><path opacity=".2" fill="#4E5A85" enable-background="new" d="M34.52 99.388h138.363a6.486 6.486 0 010 12.972H34.52a6.486 6.486 0 010-12.972zm0 21.619h99.449a6.486 6.486 0 010 12.972H34.52a6.486 6.486 0 010-12.972z"/><path fill="#FFF" d="M230.106 131.866c-.483-.644-.965-1.77-1.931-3.218-.482-.805-1.931-2.414-2.414-3.058-.322-.644-.322-.965-.161-1.609.161-.965 1.126-1.77 2.252-1.77.805 0 1.609.644 2.253 1.126.322.322.805.965 1.126 1.287s.322.483.644.805c.322.482.482.805.322.161-.161-.804-.322-2.092-.644-3.379-.161-.965-.322-1.126-.483-1.77-.161-.805-.322-1.287-.483-2.092-.161-.483-.322-1.77-.482-2.414-.161-.805-.161-2.253.482-2.896.483-.482 1.448-.644 2.092-.322.805.483 1.288 1.609 1.448 2.092.322.805.644 1.931.805 3.218.322 1.609.805 4.022.805 4.505 0-.644-.161-1.77 0-2.414.161-.483.482-1.126 1.126-1.287.482-.161.965-.161 1.448-.161.483.161.966.483 1.288.805.644.965.644 3.057.644 2.896.161-.644.161-1.931.483-2.575.161-.322.804-.644 1.126-.805a2.74 2.74 0 011.609 0c.322 0 .965.483 1.126.805.322.483.482 2.092.644 2.735 0 .161.161-.644.482-1.126.644-.965 2.896-1.287 3.058.966v3.701c0 .643-.161 2.092-.322 2.735-.161.483-.644 1.609-1.126 2.253 0 0-1.77 1.931-1.931 2.896-.161.965-.161.965-.161 1.609s.161 1.448.161 1.448-1.287.161-1.931 0c-.644-.161-1.448-1.287-1.609-1.77-.322-.483-.804-.483-1.126 0-.322.644-1.126 1.77-1.77 1.77-1.126.161-3.379 0-4.988 0 0 0 .322-1.609-.322-2.253l-1.77-1.77-1.77-1.124z"/><path fill="none" stroke="#000" stroke-width=".75" stroke-linecap="round" stroke-linejoin="round" d="M230.106 131.866c-.483-.644-.965-1.77-1.931-3.218-.482-.805-1.931-2.414-2.414-3.058-.322-.644-.322-.965-.161-1.609.161-.965 1.126-1.77 2.252-1.77.805 0 1.609.644 2.253 1.126.322.322.805.965 1.126 1.287s.322.483.644.805c.322.482.482.805.322.161-.161-.804-.322-2.092-.644-3.379-.161-.965-.322-1.126-.483-1.77-.161-.805-.322-1.287-.483-2.092-.161-.483-.322-1.77-.482-2.414-.161-.805-.161-2.253.482-2.896.483-.482 1.448-.644 2.092-.322.805.483 1.288 1.609 1.448 2.092.322.805.644 1.931.805 3.218.322 1.609.805 4.022.805 4.505 0-.644-.161-1.77 0-2.414.161-.483.482-1.126 1.126-1.287.482-.161.965-.161 1.448-.161.483.161.966.483 1.288.805.644.965.644 3.057.644 2.896.161-.644.161-1.931.483-2.575.161-.322.804-.644 1.126-.805a2.74 2.74 0 011.609 0c.322 0 .965.483 1.126.805.322.483.482 2.092.644 2.735 0 .161.161-.644.482-1.126.644-.965 2.896-1.287 3.058.966v3.701c0 .643-.161 2.092-.322 2.735-.161.483-.644 1.609-1.126 2.253 0 0-1.77 1.931-1.931 2.896-.161.965-.161.965-.161 1.609s.161 1.448.161 1.448-1.287.161-1.931 0c-.644-.161-1.448-1.287-1.609-1.77-.322-.483-.804-.483-1.126 0-.322.644-1.126 1.77-1.77 1.77-1.126.161-3.379 0-4.988 0 0 0 .322-1.609-.322-2.253l-1.77-1.77-1.77-1.124z"/><path fill="none" stroke="#000" stroke-width=".75" stroke-linecap="round" d="M243.462 132.349v-5.471m-3.218 5.471l-.161-5.471m-3.058 0v5.471"/><circle cx="443.038" cy="-52.452" r="2.5"/><circle cx="443.038" cy="-43.452" r="2.5"/><image overflow="visible" opacity=".01" width="658" height="717" xlink:href="BA81DD77.png" transform="translate(170.5 -382.5)"/><image overflow="visible" opacity=".1" width="298" height="357" xlink:href="BA81DD74.png" transform="translate(349.5 -204.5)"/><image overflow="visible" opacity=".01" width="248" height="309" xlink:href="F4C50269.png" transform="translate(373.5 -183.5)"/><path fill="#FFF" d="M391.233-180.938h210.609c8.309 0 15.044 6.735 15.044 15.043v272.288c0 8.308-6.735 15.043-15.044 15.043H391.233c-8.309 0-15.044-6.736-15.044-15.043v-272.288c0-8.307 6.736-15.043 15.044-15.043z"/><path fill="#9D9D9D" d="M414.622 66.453c-.255-1.23-1.278-2.813-3.836-2.813-2.094 0-3.74 1.6-3.74 3.373 0 1.695 1.15 2.75 2.765 3.101l1.614.353c1.136.239 1.695.942 1.695 1.757 0 .991-.768 1.807-2.334 1.807-1.711 0-2.605-1.168-2.718-2.43l-1.502.479c.208 1.616 1.502 3.375 4.235 3.375 2.414 0 3.917-1.6 3.917-3.357 0-1.583-1.055-2.766-2.941-3.181l-1.695-.368c-.958-.208-1.454-.831-1.454-1.647 0-1.055.911-1.886 2.19-1.886 1.582 0 2.27 1.12 2.397 1.934l1.407-.497zm3.948-1.36h-1.375v1.248c0 .671-.352 1.183-1.183 1.183h-.415v1.359h1.47v4.22c0 1.391.832 2.189 2.143 2.189.512 0 .896-.096 1.023-.143V73.87c-.128.032-.4.063-.591.063-.785 0-1.072-.351-1.072-1.055v-3.996h1.663v-1.359h-1.663v-2.43zm8.737 9.192c0 .319.031.752.063.927h1.438a12.92 12.92 0 01-.08-1.422v-6.267h-1.503v4.636c0 1.167-.606 1.967-1.822 1.967-1.262 0-1.741-.929-1.741-1.982v-4.621h-1.503v4.844c0 1.742 1.086 3.085 2.878 3.085.895.001 1.854-.369 2.27-1.167zm4.802-2.94c0-1.583.896-2.703 2.27-2.703 1.375 0 2.207 1.087 2.207 2.67 0 1.582-.848 2.781-2.222 2.781-1.439.001-2.255-1.166-2.255-2.748zm4.493 2.828c0 .463.048.864.08 1.04h1.455a11.62 11.62 0 01-.081-1.422V63.639h-1.485v4.972c-.257-.623-.991-1.294-2.351-1.294-2.174 0-3.644 1.854-3.644 4.029 0 2.284 1.39 4.075 3.644 4.075 1.199 0 2.014-.64 2.382-1.375v.127zm4.985-3.595c.064-.991.832-1.967 2.095-1.967 1.357 0 2.077.864 2.109 1.967h-4.204zm4.429 1.998c-.288.862-.912 1.551-2.158 1.551-1.296 0-2.286-.96-2.318-2.334h5.786c.017-.096.032-.289.032-.48 0-2.397-1.326-4.029-3.692-4.029-1.934 0-3.677 1.647-3.677 4.062 0 2.604 1.807 4.108 3.869 4.108 1.79 0 3.021-1.072 3.452-2.43l-1.294-.448zm4.763-1.807c0-1.167.605-2.11 1.79-2.11 1.342 0 1.789.862 1.789 1.934v4.619h1.503v-4.875c0-1.71-.911-3.037-2.749-3.037-.896 0-1.807.368-2.366 1.327v-1.103h-1.471v7.689h1.504v-4.444zm9.486-5.676h-1.374v1.248c0 .671-.353 1.183-1.184 1.183h-.415v1.359h1.47v4.22c0 1.391.832 2.189 2.143 2.189.512 0 .896-.096 1.022-.143V73.87a3.031 3.031 0 01-.591.063c-.783 0-1.071-.351-1.071-1.055v-3.996h1.662v-1.359h-1.662v-2.43zm3.026 8.121c.128.879 1.022 2.239 3.133 2.239 1.903 0 2.813-1.295 2.813-2.383 0-1.134-.734-1.982-2.125-2.286l-1.248-.271c-.59-.127-.879-.463-.879-.926 0-.528.513-1.024 1.28-1.024 1.213 0 1.533.879 1.597 1.279l1.327-.494c-.16-.688-.814-2.063-2.924-2.063-1.504 0-2.734 1.119-2.734 2.43 0 1.087.719 1.902 1.918 2.158l1.311.287c.64.144.991.511.991.992 0 .543-.463 1.022-1.311 1.022-1.087 0-1.694-.639-1.791-1.438l-1.358.478z"/><path d="M421.794 48.571h-2.189v-6.937h-2.493v-1.487c.745-.01 1.369-.197 1.87-.56.501-.373.804-.836.911-1.391h1.901v10.375zm4.144-6.361l-2.095-.064a3.332 3.332 0 01-.079-.719c0-.959.341-1.774 1.022-2.446.683-.682 1.604-1.022 2.766-1.022 1.129 0 2.035.325 2.717.975.682.639 1.022 1.428 1.022 2.365 0 1.322-.671 2.393-2.014 3.213l-1.998 1.215c-.469.298-.768.613-.895.943h4.972v1.901h-7.674c.012-.97.198-1.817.56-2.542.373-.725 1.001-1.353 1.886-1.886l1.711-1.022c.82-.491 1.23-1.087 1.23-1.791 0-.394-.138-.73-.415-1.007-.267-.277-.65-.416-1.151-.416-.531 0-.943.16-1.23.479-.277.32-.416.736-.416 1.247-.001.193.027.385.081.577zm9.333-1.455c-.373.586-.559 1.465-.559 2.637 0 1.173.186 2.052.559 2.638.352.565.874.848 1.566.848.683 0 1.199-.282 1.551-.848.384-.575.576-1.455.576-2.638 0-1.182-.192-2.062-.576-2.637-.352-.564-.868-.847-1.551-.847-.691 0-1.214.282-1.566.847zm-1.853 6.33c-.607-.927-.912-2.158-.912-3.693 0-1.534.305-2.765.912-3.692.778-1.162 1.917-1.742 3.42-1.742 1.502 0 2.638.58 3.405 1.742.618.938.927 2.169.927 3.692 0 1.524-.309 2.755-.927 3.693-.768 1.162-1.903 1.742-3.405 1.742-1.503 0-2.642-.58-3.42-1.742zm11.796-6.33c-.372.586-.56 1.465-.56 2.637 0 1.173.188 2.052.56 2.638.353.565.874.848 1.567.848.682 0 1.198-.282 1.549-.848.385-.575.577-1.455.577-2.638 0-1.182-.192-2.062-.577-2.637-.351-.564-.867-.847-1.549-.847-.693 0-1.215.282-1.567.847zm-1.854 6.33c-.607-.927-.912-2.158-.912-3.693 0-1.534.305-2.765.912-3.692.777-1.162 1.917-1.742 3.421-1.742 1.503 0 2.637.58 3.404 1.742.618.938.928 2.169.928 3.692 0 1.524-.31 2.755-.928 3.693-.768 1.162-1.901 1.742-3.404 1.742-1.504 0-2.643-.58-3.421-1.742zm9.286-4.092h3.021v-3.117h1.79v3.117h3.038v1.742h-3.038v3.133h-1.79v-3.133h-3.021v-1.742z"/><path fill="#9D9D9D" d="M508.862 75.212v-1.454h-5.323v-3.47h4.827v-1.47h-4.827v-3.485h5.323V63.88h-6.89v11.333h6.89zm1.12 0h1.791l1.95-2.829 1.98 2.829h1.808c-.464-.623-2.366-3.292-2.83-3.917l2.733-3.772h-1.774l-1.854 2.702-1.887-2.702h-1.822l2.766 3.772-2.861 3.917zm10.457 3.038v-4.077c.415.687 1.31 1.248 2.493 1.248 2.254 0 3.58-1.774 3.58-4.06 0-2.239-1.23-4.012-3.532-4.012-1.247 0-2.157.606-2.573 1.374v-1.199h-1.455V78.25h1.487zm4.54-6.889c0 1.582-.878 2.716-2.27 2.716-1.374 0-2.286-1.135-2.286-2.716 0-1.536.912-2.687 2.286-2.687 1.406 0 2.27 1.151 2.27 2.687zm4.423-.783c.063-.991.831-1.967 2.094-1.967 1.358 0 2.078.864 2.11 1.967h-4.204zm4.428 1.998c-.287.862-.91 1.551-2.158 1.551-1.294 0-2.285-.96-2.317-2.334h5.787c.016-.096.031-.289.031-.48 0-2.397-1.327-4.029-3.692-4.029-1.934 0-3.677 1.647-3.677 4.062 0 2.604 1.807 4.108 3.868 4.108 1.79 0 3.021-1.072 3.453-2.43l-1.295-.448zm7.529-5.132a2.853 2.853 0 00-.496-.048c-.784 0-1.742.289-2.302 1.47v-1.342h-1.471v7.689h1.503v-3.852c0-1.695.847-2.366 2.11-2.366.208 0 .432.016.655.048v-1.599zm3.088 7.768v-7.689h-1.486v7.689h1.486zm-1.822-10.597c0 .59.48 1.072 1.072 1.072.607 0 1.086-.481 1.086-1.072 0-.607-.479-1.087-1.086-1.087a1.074 1.074 0 00-1.072 1.087zm5.354 5.963c.063-.991.831-1.967 2.095-1.967 1.357 0 2.077.864 2.109 1.967h-4.204zm4.428 1.998c-.289.862-.911 1.551-2.158 1.551-1.296 0-2.285-.96-2.317-2.334h5.786a3.55 3.55 0 00.032-.48c0-2.397-1.326-4.029-3.693-4.029-1.935 0-3.676 1.647-3.676 4.062 0 2.604 1.807 4.108 3.868 4.108 1.79 0 3.021-1.072 3.452-2.43l-1.294-.448zm4.763-1.807c0-1.167.607-2.11 1.791-2.11 1.343 0 1.79.862 1.79 1.934v4.619h1.502v-4.875c0-1.71-.91-3.037-2.749-3.037-.896 0-1.807.368-2.365 1.327v-1.103h-1.472v7.689h1.503v-4.444zm10.702-2.095c1.311 0 1.87.879 2.062 1.63l1.359-.575c-.32-1.167-1.375-2.446-3.421-2.446-2.189 0-3.868 1.678-3.868 4.077 0 2.333 1.646 4.092 3.885 4.092 1.998 0 3.1-1.295 3.468-2.399l-1.327-.575c-.176.606-.703 1.582-2.141 1.582-1.248 0-2.351-.943-2.351-2.7 0-1.789 1.118-2.686 2.334-2.686zm6.145 1.904c.063-.991.831-1.967 2.095-1.967 1.357 0 2.077.864 2.109 1.967h-4.204zm4.427 1.998c-.287.862-.912 1.551-2.158 1.551-1.294 0-2.285-.96-2.317-2.334h5.787c.016-.096.031-.289.031-.48 0-2.397-1.327-4.029-3.693-4.029-1.933 0-3.676 1.647-3.676 4.062 0 2.604 1.807 4.108 3.868 4.108 1.79 0 3.021-1.072 3.453-2.43l-1.295-.448z"/><path d="M515.037 48.571h-2.189v-6.937h-2.493v-1.487c.745-.01 1.369-.197 1.87-.56.501-.373.804-.836.911-1.391h1.901v10.375zm4.752-7.816c-.373.586-.56 1.465-.56 2.637 0 1.173.187 2.052.56 2.638.351.565.874.848 1.566.848.682 0 1.199-.282 1.55-.848.385-.575.575-1.455.575-2.638 0-1.182-.19-2.062-.575-2.637-.351-.564-.868-.847-1.55-.847-.692 0-1.215.282-1.566.847zm-1.855 6.33c-.605-.927-.91-2.158-.91-3.693 0-1.534.305-2.765.91-3.692.779-1.162 1.919-1.742 3.422-1.742 1.502 0 2.638.58 3.405 1.742.618.938.926 2.169.926 3.692 0 1.524-.308 2.755-.926 3.693-.768 1.162-1.903 1.742-3.405 1.742-1.503 0-2.643-.58-3.422-1.742zm16.465-3.277l-3.947-6.569h2.59l2.542 4.492 2.54-4.492h2.479l-3.996 6.569v4.763H534.4v-4.763zm7.477-.064h3.516a1.616 1.616 0 00-.479-1.103c-.289-.298-.714-.448-1.278-.448-.513 0-.928.16-1.248.48-.319.32-.491.677-.511 1.071zm3.724 2.047l1.774.527a3.378 3.378 0 01-1.263 1.79c-.618.469-1.391.704-2.318.704-1.129 0-2.088-.378-2.876-1.135-.789-.768-1.184-1.791-1.184-3.069 0-1.215.384-2.206 1.151-2.973.768-.778 1.673-1.167 2.717-1.167 1.216 0 2.164.362 2.846 1.087.693.725 1.039 1.721 1.039 2.989 0 .085-.005.181-.016.288v.256l-.017.112h-5.626c.021.512.224.938.607 1.278.383.342.841.512 1.375.512.907-.001 1.504-.4 1.791-1.199zm3.079.639c0-.671.219-1.21.656-1.614.437-.405 1.001-.661 1.695-.768l1.934-.287c.395-.054.591-.24.591-.56a.907.907 0 00-.352-.735c-.224-.192-.549-.288-.976-.288-.447 0-.804.123-1.07.368a1.398 1.398 0 00-.432.911l-1.887-.4c.076-.682.411-1.284 1.007-1.806.598-.522 1.386-.783 2.366-.783 1.172 0 2.036.282 2.59.847.555.554.831 1.268.831 2.142v3.868c0 .469.032.885.096 1.247h-1.95c-.054-.234-.079-.549-.079-.943-.501.778-1.273 1.167-2.318 1.167-.809 0-1.465-.234-1.966-.703-.49-.47-.736-1.024-.736-1.663zm3.149.783c.501 0 .912-.139 1.23-.416.331-.288.496-.756.496-1.407v-.351l-1.774.271c-.649.096-.975.426-.975.991 0 .255.09.474.272.655.182.171.431.257.751.257zm10.744-6.538v2.142a3.24 3.24 0 00-.641-.064c-.607 0-1.098.176-1.47.527-.373.341-.56.906-.56 1.694v3.597h-2.127v-7.864h2.063v1.167c.383-.821 1.129-1.231 2.237-1.231.119 0 .284.011.498.032zm.87 5.707l1.822-.399c.022.341.155.628.399.863.256.224.603.335 1.039.335.33 0 .587-.075.768-.224a.695.695 0 00.272-.559c0-.394-.283-.65-.848-.768l-1.039-.24c-.735-.159-1.288-.447-1.662-.863a2.184 2.184 0 01-.544-1.486c0-.714.277-1.322.831-1.822.564-.501 1.269-.751 2.11-.751.533 0 1.001.08 1.407.24.404.149.719.346.943.591.224.234.394.475.511.72s.191.484.224.719l-1.774.399a1.297 1.297 0 00-.383-.735c-.203-.213-.507-.32-.912-.32-.277 0-.517.075-.72.224a.683.683 0 00-.287.559c0 .384.24.619.719.704l1.119.24c.757.16 1.332.453 1.728.879.404.426.606.938.606 1.535 0 .704-.266 1.311-.799 1.822-.534.511-1.284.768-2.254.768-.554 0-1.049-.08-1.485-.24-.438-.17-.778-.383-1.024-.639a3.794 3.794 0 01-.544-.783 2.934 2.934 0 01-.223-.769z"/><path fill="#E5E5E5" d="M560.477-65.984a66.586 66.586 0 01-11.225 37.002A66.61 66.61 0 01480.88-.662a66.603 66.603 0 0112.993-131.925v14.377a52.225 52.225 0 1052.226 52.225h14.378z"/><path fill="#4E5A85" d="M494.963-132.576a66.597 66.597 0 0157.092 34.182 66.595 66.595 0 01-.986 66.536 66.603 66.603 0 01-115.281-1.535l12.538-7.035a52.219 52.219 0 0044.85 26.668 52.235 52.235 0 0045.545-25.463 52.222 52.222 0 00-43.996-78.976l.238-14.377z"/><path d="M484.501-72.221v2.758c-.367.304-.719.623-1.055.958-.335.335-.815.911-1.438 1.726a18.113 18.113 0 00-1.606 2.518c-.463.879-.903 1.998-1.318 3.357a20.46 20.46 0 00-.815 4.243h-3.429c.128-1.565.407-3.069.839-4.507.448-1.455.943-2.654 1.487-3.597a29.046 29.046 0 011.63-2.518c.544-.735.991-1.27 1.342-1.606l.552-.479h-8.008v-2.853h11.819zm4.875 3.837c-.56.878-.84 2.197-.84 3.956 0 1.758.28 3.077.84 3.957.526.847 1.311 1.27 2.349 1.27 1.024 0 1.8-.423 2.326-1.27.576-.864.864-2.182.864-3.957s-.288-3.093-.864-3.956c-.526-.848-1.302-1.271-2.326-1.271-1.038 0-1.823.423-2.349 1.271zm-2.781 9.494c-.912-1.391-1.367-3.237-1.367-5.539s.455-4.148 1.367-5.539c1.167-1.742 2.877-2.613 5.13-2.613 2.255 0 3.957.872 5.107 2.613.928 1.407 1.391 3.253 1.391 5.539s-.463 4.132-1.391 5.539c-1.15 1.742-2.853 2.613-5.107 2.613-2.253.001-3.963-.871-5.13-2.613zm15.596-9.662c0 .495.152.903.455 1.222.305.304.68.456 1.127.456.465 0 .84-.152 1.128-.456.303-.319.455-.727.455-1.222 0-.496-.152-.896-.455-1.199-.288-.304-.663-.456-1.128-.456-.447 0-.822.16-1.127.479-.302.304-.455.696-.455 1.176zm-1.247 2.781c-.767-.768-1.15-1.694-1.15-2.781 0-1.087.392-2.015 1.175-2.782.783-.767 1.719-1.15 2.805-1.15 1.087 0 2.022.384 2.806 1.15.799.768 1.198 1.695 1.198 2.782 0 1.103-.399 2.03-1.198 2.781a3.913 3.913 0 01-2.806 1.126c-1.104 0-2.045-.375-2.83-1.126zm11.726 5.466c0 .495.15.903.455 1.223.303.304.679.455 1.126.455.465 0 .84-.151 1.127-.455.305-.32.457-.728.457-1.223s-.152-.896-.457-1.199c-.287-.304-.662-.456-1.127-.456-.447 0-.823.159-1.126.479-.305.305-.455.696-.455 1.176zm-1.248 2.782c-.768-.767-1.15-1.694-1.15-2.781 0-1.086.391-2.014 1.176-2.782.783-.767 1.718-1.15 2.804-1.15 1.088 0 2.023.384 2.807 1.15.798.768 1.197 1.695 1.197 2.782 0 1.103-.399 2.03-1.197 2.781a3.915 3.915 0 01-2.807 1.127c-1.104 0-2.047-.376-2.83-1.127zm-6.497.862h-2.781l10.981-15.561h2.781l-10.981 15.561z"/><image overflow="visible" width="122" height="122" xlink:href="F4C5026F.jpg" transform="matrix(.619 0 0 .619 -61.765 77.985)"/><image overflow="visible" width="96" height="96" xlink:href="F4C50269.jpg" transform="translate(126 202.75) scale(.9999)"/></svg>