<svg xmlns="http://www.w3.org/2000/svg" xmlns:xlink="http://www.w3.org/1999/xlink" width="720" height="525.333" viewBox="-23.5 -64.164 720 525.333" enable-background="new -23.5 -64.164 720 525.333"><switch><g><path fill="#D9E4FE" d="M156.62 11.829h465.584c17.532 0 31.744 15.574 31.744 34.785V411.85c0 19.211-14.212 34.784-31.744 34.784H156.62c-17.532 0-31.745-15.573-31.745-34.784V46.613c0-19.21 14.213-34.784 31.745-34.784z"/><image overflow="visible" opacity=".55" width="671" height="188" xlink:href="5F6FCF6E.png" transform="translate(-33.5 224.5)"/><path fill="#FFF" d="M7.247 249.369h577.875c8.742 0 15.832 7.089 15.832 15.832v94.993c0 8.743-7.09 15.832-15.832 15.832H7.247c-8.744 0-15.833-7.089-15.833-15.832v-94.993c0-8.743 7.088-15.832 15.833-15.832z"/><g opacity=".48"><path fill="#4E5A85" d="M447.908 281.033h110.826c5.828 0 10.555 4.726 10.555 10.555v42.219c0 5.829-4.727 10.555-10.555 10.555H447.908c-5.828 0-10.555-4.726-10.555-10.555v-42.219c.001-5.829 4.727-10.555 10.555-10.555z"/><path fill="#7E8BB6" d="M479.572 304.781h47.498a7.916 7.916 0 010 15.832h-47.498a7.917 7.917 0 010-15.832z"/></g><circle fill="#2DB27C" cx="43.743" cy="312.698" r="42.219"/><defs><filter id="a" filterUnits="userSpaceOnUse" x="-4.387" y="269.401" width="99.215" height="223.571"><feColorMatrix values="1 0 0 0 0 0 1 0 0 0 0 0 1 0 0 0 0 0 1 0"/></filter></defs><mask maskUnits="userSpaceOnUse" x="-4.387" y="269.401" width="99.215" height="223.571" id="b"><circle fill="#FEECD0" filter="url(#a)" cx="43.743" cy="312.698" r="42.219"/></mask><g mask="url(#b)"><image overflow="visible" width="200" height="187" xlink:href="5F6FCF6F.jpg" transform="translate(-2.51 269.401) scale(.4733)"/><path fill="none" d="M-4.387 275.544h99.215v217.429H-4.387z"/></g><path opacity=".2" fill="#4E5A85" enable-background="new" d="M125.988 291.588h253.315a7.916 7.916 0 010 15.832H125.988a7.916 7.916 0 010-15.832zm0 26.387h184.708a7.916 7.916 0 017.916 7.916 7.915 7.915 0 01-7.916 7.916H125.988a7.916 7.916 0 010-15.832z"/><path fill="#4E5A85" d="M125.542 89.728c23.317 0 42.219 18.902 42.219 42.219s-18.902 42.219-42.219 42.219-42.219-18.902-42.219-42.219 18.902-42.219 42.219-42.219z"/><path fill="#F4F7FF" d="M141.375 114.356c-26.387 0-29.905 24.627-31.664 35.182h3.515c1.171-5.863 4.104-9.088 8.799-9.675 7.037-.88 12.314-7.036 14.073-12.313l-2.639-1.76 1.759-1.759c1.759-1.759 3.525-4.398 6.157-9.675z"/><path fill="#0059F7" d="M301.016-51.333h176.793c17.488 0 31.664 14.177 31.664 31.665v174.154c0 17.487-14.176 31.664-31.664 31.664H301.016c-17.488 0-31.664-14.177-31.664-31.664V-19.668c0-17.488 14.175-31.665 31.664-31.665z"/><circle opacity=".2" fill="none" stroke="#FFF" stroke-width="20" enable-background="new" cx="389.412" cy="67.408" r="73.884"/><path opacity=".2" fill="none" stroke="#FFF" stroke-width="20" stroke-linecap="round" enable-background="new" d="M315.475 67.408c0 40.834 33.104 73.937 73.938 73.937s73.936-33.103 73.936-73.937c0-40.833-33.102-73.936-73.936-73.936"/><path opacity=".2" fill="none" stroke="#FFF" stroke-width="20" stroke-linecap="round" enable-background="new" d="M389.412-6.528c40.834 0 73.936 33.103 73.936 73.936 0 40.834-33.102 73.937-73.936 73.937-19.461 0-37.166-7.52-50.369-19.812"/><path opacity=".6" fill="none" stroke="#FFF" stroke-width="20" stroke-linecap="round" enable-background="new" d="M389.412-6.528c40.834 0 73.936 33.103 73.936 73.936 0 29.416-17.18 54.82-42.051 66.727"/><circle fill="#FFF" cx="315.475" cy="68.333" r="1.848"/><circle fill="#FFF" cx="338.582" cy="121.012" r="1.849"/><circle fill="#FFF" cx="420.836" cy="133.951" r="1.848"/><circle fill="#FFF" cx="389.412" cy="-6.527" r="1.848"/><path fill="#FFF" d="M363.246 77.963l8.518-23.115h3.641l-8.518 23.115h-3.641zM361.6 67.451c-1.225 0-2.238-.274-3.041-.823a5.248 5.248 0 01-1.805-2.248c-.379-.929-.57-1.942-.57-3.04v-.824c0-1.203.201-2.258.604-3.166.4-.929 1.002-1.646 1.803-2.153.824-.528 1.828-.792 3.01-.792 1.225 0 2.236.264 3.039.792.803.506 1.404 1.224 1.805 2.153.4.908.602 1.963.602 3.166v.824c0 1.098-.201 2.111-.602 3.04a5.046 5.046 0 01-1.773 2.248c-.783.548-1.807.823-3.072.823zm0-2.946c.76 0 1.318-.274 1.678-.823.379-.569.57-1.477.57-2.723 0-1.351-.191-2.29-.57-2.818-.381-.527-.939-.792-1.678-.792s-1.299.264-1.68.792c-.357.528-.537 1.457-.537 2.787 0 1.246.18 2.153.537 2.723.381.57.941.854 1.68.854zm15.293 13.933c-1.225 0-2.238-.274-3.039-.823a5.248 5.248 0 01-1.805-2.248c-.381-.929-.57-1.942-.57-3.04v-.823c0-1.203.199-2.258.602-3.166.4-.929 1.002-1.647 1.805-2.153.824-.528 1.826-.792 3.008-.792 1.225 0 2.238.264 3.039.792.803.506 1.404 1.224 1.807 2.153.398.908.6 1.963.6 3.166v.823c0 1.098-.201 2.111-.6 3.04a5.046 5.046 0 01-1.773 2.248c-.783.549-1.809.823-3.074.823zm0-2.945c.76 0 1.318-.274 1.678-.823.379-.569.57-1.478.57-2.723 0-1.351-.191-2.29-.57-2.818-.379-.528-.939-.792-1.678-.792s-1.297.263-1.678.792c-.359.528-.539 1.457-.539 2.786 0 1.246.18 2.153.539 2.723.381.57.939.855 1.678.855zm15.8-21.31c1.709 0 3.154.296 4.338.887 1.201.57 2.172 1.362 2.912 2.375.738 1.013 1.277 2.195 1.615 3.546.338 1.33.506 2.744.506 4.243v1.394c0 3.778-.959 6.649-2.881 8.613-1.9 1.942-4.697 2.913-8.393 2.913a34.435 34.435 0 01-4.338-.253v-3.768a35.392 35.392 0 004.498.253c1.771 0 3.166-.306 4.18-.919 1.012-.612 1.73-1.509 2.152-2.691.443-1.182.664-2.649.664-4.401v-2.058l1.014-1.457c-.021 1.626-.348 2.977-.98 4.053a6.024 6.024 0 01-2.566 2.407c-1.098.528-2.354.792-3.766.792-1.648 0-3.053-.328-4.213-.981a6.825 6.825 0 01-2.691-2.723c-.611-1.162-.918-2.512-.918-4.053 0-1.604.359-3.019 1.076-4.243.719-1.246 1.73-2.206 3.039-2.882 1.33-.698 2.914-1.047 4.752-1.047zm.094 3.768c-.992 0-1.836.19-2.533.57-.695.359-1.225.865-1.584 1.52-.357.655-.537 1.404-.537 2.249 0 .865.168 1.625.506 2.28a3.727 3.727 0 001.551 1.52c.676.359 1.488.539 2.439.539.908 0 1.73-.158 2.469-.476.76-.337 1.352-.823 1.773-1.457.443-.654.666-1.457.666-2.406 0-.824-.18-1.563-.539-2.217-.338-.655-.865-1.172-1.584-1.551-.695-.381-1.57-.571-2.627-.571zm21.807 20.677c-1.709 0-3.166-.285-4.369-.855-1.182-.591-2.143-1.394-2.881-2.406-.738-1.013-1.277-2.185-1.615-3.515a17.563 17.563 0 01-.506-4.275v-1.393c0-3.779.949-6.639 2.848-8.582 1.922-1.963 4.729-2.944 8.424-2.944a34.146 34.146 0 014.338.253v3.768a34.05 34.05 0 00-2.154-.189 40.197 40.197 0 00-2.342-.064c-1.773 0-3.166.306-4.18.919-1.014.612-1.742 1.509-2.186 2.691-.422 1.183-.633 2.649-.633 4.402v2.058l-1.014 1.456c.021-1.625.338-2.965.951-4.021.633-1.077 1.498-1.879 2.596-2.406 1.098-.549 2.354-.823 3.768-.823 1.646 0 3.051.327 4.213.981a6.604 6.604 0 012.658 2.724c.635 1.161.951 2.512.951 4.053 0 1.604-.359 3.029-1.076 4.274-.719 1.225-1.742 2.185-3.072 2.882-1.309.675-2.883 1.012-4.719 1.012zm-.096-3.768c.992 0 1.838-.179 2.533-.538.697-.38 1.227-.897 1.584-1.552.359-.654.539-1.404.539-2.248 0-.865-.18-1.625-.539-2.28-.338-.654-.844-1.161-1.52-1.52s-1.488-.538-2.438-.538c-.908 0-1.742.169-2.502.506a3.992 3.992 0 00-1.773 1.457c-.422.633-.633 1.425-.633 2.375 0 .823.168 1.562.506 2.216.359.655.887 1.171 1.584 1.551.718.381 1.604.571 2.659.571z"/><path fill="#4E5A85" d="M653.281 96.324c23.316 0 42.219 18.903 42.219 42.219 0 23.317-18.902 42.219-42.219 42.219-23.316 0-42.219-18.902-42.219-42.219.001-23.316 18.903-42.219 42.219-42.219z"/><path fill="#F4F7FF" d="M669.113 122.711a1.76 1.76 0 011.76 1.759v9.676a4.399 4.399 0 00-3.111 7.507 4.403 4.403 0 003.111 1.288v9.676a1.76 1.76 0 01-1.76 1.759h-31.664a1.755 1.755 0 01-1.758-1.759v-9.676a4.394 4.394 0 004.396-4.398 4.398 4.398 0 00-4.396-4.397v-9.676a1.757 1.757 0 011.758-1.759h31.664zm-8.795 10.555h-14.072v10.555h14.072v-10.555z"/><path fill="#FFF" d="M426.52 214.406c-.496-.66-.99-1.814-1.98-3.299-.494-.824-1.979-2.474-2.473-3.133-.33-.66-.33-.99-.166-1.649.166-.989 1.154-1.814 2.309-1.814.826 0 1.65.659 2.311 1.155.328.329.824.988 1.154 1.318s.33.495.658.825c.33.494.496.824.33.165-.164-.825-.33-2.145-.658-3.464-.166-.989-.33-1.154-.496-1.813-.164-.825-.33-1.32-.494-2.145-.166-.494-.33-1.814-.494-2.474-.166-.825-.166-2.31.494-2.969.494-.495 1.484-.659 2.145-.329.824.494 1.318 1.648 1.484 2.144.328.824.658 1.979.824 3.298.33 1.649.824 4.123.824 4.618 0-.659-.166-1.813 0-2.474.164-.495.494-1.154 1.154-1.319.494-.165.99-.165 1.484-.165.494.165.99.494 1.318.824.66.99.66 3.134.66 2.969.166-.66.166-1.979.496-2.639.164-.33.824-.66 1.154-.824a2.805 2.805 0 011.648 0c.33 0 .99.494 1.154.824.33.494.494 2.145.66 2.804 0 .165.164-.659.494-1.154.66-.989 2.969-1.319 3.133.989v3.793c0 .66-.164 2.145-.328 2.804-.166.495-.66 1.649-1.156 2.309 0 0-1.813 1.979-1.979 2.969-.164.989-.164.989-.164 1.649 0 .659.164 1.484.164 1.484s-1.318.165-1.979 0-1.484-1.319-1.648-1.814c-.33-.494-.826-.494-1.154 0-.33.66-1.156 1.814-1.814 1.814-1.154.165-3.465 0-5.113 0 0 0 .33-1.649-.33-2.309l-1.814-1.814-1.812-1.154z"/><path fill="none" stroke="#000" stroke-width=".75" stroke-linecap="round" stroke-linejoin="round" d="M426.52 214.406c-.496-.66-.99-1.814-1.98-3.299-.494-.824-1.979-2.474-2.473-3.133-.33-.66-.33-.99-.166-1.649.166-.989 1.154-1.814 2.309-1.814.826 0 1.65.659 2.311 1.155.328.329.824.988 1.154 1.318s.33.495.658.825c.33.494.496.824.33.165-.164-.825-.33-2.145-.658-3.464-.166-.989-.33-1.154-.496-1.813-.164-.825-.33-1.32-.494-2.145-.166-.494-.33-1.814-.494-2.474-.166-.825-.166-2.31.494-2.969.494-.495 1.484-.659 2.145-.329.824.494 1.318 1.648 1.484 2.144.328.824.658 1.979.824 3.298.33 1.649.824 4.123.824 4.618 0-.659-.166-1.813 0-2.474.164-.495.494-1.154 1.154-1.319.494-.165.99-.165 1.484-.165.494.165.99.494 1.318.824.66.99.66 3.134.66 2.969.166-.66.166-1.979.496-2.639.164-.33.824-.66 1.154-.824a2.805 2.805 0 011.648 0c.33 0 .99.494 1.154.824.33.494.494 2.145.66 2.804 0 .165.164-.659.494-1.154.66-.989 2.969-1.319 3.133.989v3.793c0 .66-.164 2.145-.328 2.804-.166.495-.66 1.649-1.156 2.309 0 0-1.813 1.979-1.979 2.969-.164.989-.164.989-.164 1.649 0 .659.164 1.484.164 1.484s-1.318.165-1.979 0-1.484-1.319-1.648-1.814c-.33-.494-.826-.494-1.154 0-.33.66-1.156 1.814-1.814 1.814-1.154.165-3.465 0-5.113 0 0 0 .33-1.649-.33-2.309l-1.814-1.814-1.812-1.154z"/><path fill="none" stroke="#000" stroke-width=".75" stroke-linecap="round" d="M440.207 214.9v-5.606m-3.299 5.606l-.164-5.606m-3.135 0v5.606"/></g></switch></svg>