<svg xmlns="http://www.w3.org/2000/svg" viewBox="0 0 246 55"><path d="M4.5 18.3c0-.2.1-.4.2-.7.3-1.2.9-2.1 1.7-3l7.9-7.9c1.2-1.2 2.6-1.8 4.3-1.8h6.5c1.7 0 3.2.6 4.3 1.7l9.6 9.6c.2.2.3.6.3.8v11c-.1.1-.3.2-.5.4l-9.2 9.2c-1.3 1.3-2.8 2-4.7 2h-7.4c-1 0-1.5.5-1.5 1.5v6.1c0 .9-.3 1.6-1.1 1.9h-.6c-.3-.2-.7-.4-.9-.6-2.3-2.3-4.7-4.6-7-7-.9-.9-1.5-1.9-1.8-3.1 0-.2-.1-.4-.1-.7V18.3zm17.3-1.8h-4.4c-.9 0-1.4.5-1.4 1.4v8.8c0 .9.5 1.4 1.4 1.4h8.8c1 0 1.4-.4 1.4-1.4v-8.8c0-.9-.5-1.4-1.4-1.4h-4.4zm19.9 32.7c-.3-.1-.7-.2-1-.4-.9-.5-1.4-1.3-1.4-2.4V28.1h11c.4 0 .5.1.5.5v17.8c0 1.4-.8 2.5-2.2 2.8-.1 0-.2.1-.3.1-2.2-.1-4.4-.1-6.6-.1zm200.2-8.1h-5.7V14.5h5.7v26.6zm-66.1-6.9l1.8-8.1c.9-3.7 2-7.4 2.9-11.1.1-.3.2-.4.6-.4h5c.2 0 .4 0 .5.3 1.3 4.8 2.7 9.6 4 14.4.4 1.5.6 3.1 1 4.7.9-6.5 2.6-12.9 3.9-19.4h6.6c-2.2 8.9-4.5 17.7-6.7 26.5h-6.9c-1.6-5.8-3.2-11.5-4.8-17.2-.3 1.1-.5 2.3-.8 3.5-1.3 4.5-2.6 8.9-3.8 13.4-.1.3-.2.4-.5.4h-6.1c-.4 0-.4-.2-.5-.5-1.6-6.3-3.2-12.5-4.7-18.8-.6-2.3-1.1-4.5-1.7-6.8 0-.2-.1-.3-.1-.5h6.1c.3 0 .5.1.6.4 1.1 5.4 2.3 10.8 3.4 16.2-.1.9 0 1.9.2 3zM73.9 32.4V41h-6.6V14.5h.4c4.5 0 9 0 13.5.1 1 0 2.1.2 3.1.4 2.7.7 4.4 2.3 5.2 5 .7 2.2.7 4.4 0 6.5-1.1 3.2-3.4 4.9-6.6 5.5-1.7.3-3.4.3-5.1.4-1.3.1-2.6 0-3.9 0zm0-4.9h4.2c.6 0 1.2 0 1.7-.1 2.2-.3 3.2-1.2 3.5-3.1.1-.4.1-.9 0-1.3 0-1.9-1-3-2.8-3.4-.3-.1-.7-.1-1-.1-1.8 0-3.6 0-5.3-.1h-.3v8.1zm147.9 5h-14.1c-.3 1.9 1 4 2.7 4.6 1.3.5 2.7.4 4-.2 1-.4 1.5-.9 2.7-3 1.4.7 2.8 1.4 4.3 2.2-1.7 2.9-4.1 4.8-7.4 5.5-2 .4-4 .3-6-.3-3.4-1.1-5.3-3.5-6-7-.5-2.7-.3-5.3.8-7.9 1.5-3.5 4.2-5.2 7.8-5.6 1.9-.2 3.8 0 5.6.8 2.9 1.4 4.4 3.7 5.1 6.8.3 1.4.4 2.7.5 4.1zm-6.1-3.7c-.2-2.6-1.8-4.1-4.2-3.9-2 .1-3.8 2.1-3.7 3.9h7.9zm-89.4 2.1c-.1 3.3-.9 6-3 8.1-1.4 1.4-3.1 2.1-5 2.5-2.5.4-4.9.3-7.2-.6-3.3-1.3-5.1-3.8-5.7-7.2-.4-2-.3-4 .3-6 1.2-3.9 4-6.1 8-6.6 1.9-.3 3.8-.2 5.6.3 3.7 1.1 5.8 3.6 6.7 7.3.2.8.3 1.7.3 2.2zm-15.4.3c.2.9.3 1.8.6 2.7.7 2 2.2 3.2 4.2 3.2s3.6-1 4.3-3c.7-2.1.7-4.2-.2-6.2-.7-1.6-1.9-2.4-3.6-2.5-1.9-.1-3.4.5-4.3 2.2-.7 1.2-.9 2.4-1 3.6zm17.1-9.3h3.1v-3.3c.1-2.2 1.2-3.5 3.4-4.2 1.6-.5 3.2-.4 4.7-.1.4 0 .7.1 1.1.2v4.3H139c-1.9 0-2.3.4-2.3 2.3 0 1-.1.8.8.8h3v3.5h-3.8v15.7H131V25.5h-3.1c.1-1.2.1-2.4.1-3.6zm36.7 0v3.5h-3.8v9.8c.1.8.5 1.2 1.3 1.2h2.2v3.9c0 .3-.1.5-.5.6-1.8.3-3.6.4-5.3 0-2.1-.5-3.3-1.9-3.4-4-.1-1.1-.1-2.2-.1-3.3v-8.3h-2.3c-.4 0-.5-.1-.5-.5v-3h2.8v-6.1h5.8v6.1c1.3.1 2.5.1 3.8.1zm60.5-7.3h5.7v26.5h-5.7V14.6zM98.1 41.1h-5.7V21.5H98v2.1c1.7-1.5 3.6-2.1 5.7-2.3v5.1c-.9.2-1.9.3-2.8.5h-.1c-1.9.4-2.5 1.1-2.5 3.1v10.5c-.2.2-.2.4-.2.6zm51.1 0h-5.6V22c0-.4.1-.5.5-.5h5.2c-.1 6.5-.1 13-.1 19.6zm0-22.2h-5.6v-4.4h5.6v4.4z" fill="#c0c6d9"/></svg>