<svg xmlns="http://www.w3.org/2000/svg" viewBox="0 0 170 29"><path d="M59.3 15.6c-1.2 2-3 3.1-5.2 3.1-3.3 0-5.7-2.6-5.7-6.1 0-3.4 2.3-6 5.7-6 2.2 0 4.2 1.2 5.1 3.1l3.2-2.5c-1.6-2.9-4.5-4.6-8.2-4.6-6 0-10.1 4.4-10.1 10s4.3 10.1 10.1 10.1c3.7 0 6.7-1.9 8.4-4.7l-3.3-2.4zm11.8-7.5c-4.4 0-7.5 3.2-7.5 7.3s3.1 7.3 7.5 7.3 7.5-3.2 7.5-7.3c0-4.2-3.1-7.3-7.5-7.3zm0 3.6c1.9 0 3.3 1.4 3.3 3.6S73 19 71.1 19s-3.3-1.5-3.3-3.7c0-2.1 1.5-3.6 3.3-3.6zm10.3-3.3v14h4.2v-7.3c0-1.8 1-3.4 2.7-3.4 1.5 0 2.5 1 2.5 2.8v7.9H95v-7.3c0-1.8 1-3.4 2.7-3.4 1.5 0 2.5 1 2.5 2.8v7.9h4.2v-8.5c0-3.6-2-5.8-5.4-5.8-2.4 0-3.7 1-4.7 2.5-1-1.6-2.5-2.5-4.6-2.5-1.8 0-3.2.7-4.1 2.1V8.4h-4.2zm33.7 3.3c1.8 0 3.2 1.4 3.2 3.7 0 2.2-1.5 3.6-3.2 3.6-1.9 0-3.3-1.4-3.3-3.6 0-2.3 1.5-3.7 3.3-3.7zm-3.5-3.3h-3.8v19.5h4.2v-7c.9 1.3 2.5 1.9 4 1.9 3.8 0 6.6-3.2 6.6-7.3 0-4.3-3-7.3-6.6-7.3-1.4 0-3.3.6-4.4 2.3V8.4zm20.9 5.3l-3.8.7c-2.9.6-4.6 2-4.6 4.1 0 2.4 1.9 4.2 4.6 4.2 1.9 0 3.2-.8 3.9-2v1.7h3.9v-8.8c0-3.4-2.3-5.5-6.2-5.5-2.6 0-4.7 1.1-6 2.6l2.2 2.6c.8-1 2-1.7 3.6-1.7 1.4 0 2.5.5 2.5 1.9v.2zm-2.8 5.9c-1 0-1.6-.5-1.6-1.3s.5-1.3 1.7-1.4l2.8-.5v.4c-.1 1.6-1.2 2.8-2.9 2.8zM140 8.4v14h4.2v-7.3c0-1.8 1-3.4 2.8-3.4 1.5 0 2.5 1 2.5 2.8v7.9h4.2v-8.5c0-3.6-2.1-5.8-5.4-5.8-1.9 0-3.2.7-4.2 2.1V8.4H140zm20.4 13.5l-.2.5c-.6 2-1.6 2.3-2.7 2.3-.5 0-1.2-.1-1.9-.5v3.4c.6.3 1.5.5 2.5.5 2.6 0 4.3-1.3 5.7-4.6l6.1-15.2h-4.2l-3.3 9.2-3.2-9.2h-4.3l5.5 13.6zM19.3.7h-4.4c-.4 0-.8.4-.8.8v23.2c0 .4.4.8.8.8h4.4c.4 0 .8-.4.8-.8V1.5c0-.4-.3-.8-.8-.8z" fill="#343434"/><path d="M6 25.6c2.8 0 5.1-2.3 5.1-5.1S8.8 15.4 6 15.4.9 17.7.9 20.5s2.3 5.1 5.1 5.1zm23-1c-.8.8-2.1.8-2.9 0l-7.8-7.9c-.8-.8-.8-2.1 0-2.9L26.1 6c.8-.8 2.1-.8 2.9 0l7.9 7.8c.8.8.8 2.1 0 2.9L29 24.6z" fill="#626262"/></svg>