<svg xmlns="http://www.w3.org/2000/svg" width="160" height="64"><g fill="#748FB5"><path d="M48.82 36.354l3.251-.887c.054.715.388 1.381.931 1.852a3.275 3.275 0 002.272.749 2.827 2.827 0 001.736-.474 1.416 1.416 0 00.628-1.166 1.31 1.31 0 00-.467-1.004 2.853 2.853 0 00-1.385-.588l-2.334-.523a5.721 5.721 0 01-3.133-1.71 4.3 4.3 0 01-1.096-2.939 4.54 4.54 0 01.44-1.954 4.548 4.548 0 011.24-1.573 6.017 6.017 0 014.111-1.472 7.702 7.702 0 012.263.313c.59.167 1.149.427 1.655.772.417.3.787.66 1.096 1.07.273.35.5.732.677 1.139.14.336.239.687.295 1.046l-3.089.888a2.444 2.444 0 00-.221-.734 3.197 3.197 0 00-.488-.735 2.24 2.24 0 00-.881-.596 3.451 3.451 0 00-1.307-.229 2.483 2.483 0 00-1.626.53 1.59 1.59 0 00-.647 1.262 1.422 1.422 0 00.436 1.044c.321.306.729.507 1.167.576l2.378.488a6.11 6.11 0 013.287 1.664 4.075 4.075 0 011.143 2.898c0 .65-.126 1.294-.373 1.896a5.695 5.695 0 01-1.072 1.689 5.02 5.02 0 01-1.848 1.242 6.709 6.709 0 01-2.563.472 7.774 7.774 0 01-2.887-.507 5.393 5.393 0 01-2.013-1.307 6.644 6.644 0 01-1.121-1.605 4.828 4.828 0 01-.455-1.587zm12.343-7.901v-3.295h.808a2.313 2.313 0 001.815-.682 2.57 2.57 0 00.615-1.793v-2.38h3.394v4.854h3.266v3.295h-3.266v7.331a2.041 2.041 0 00.481 1.517c.428.349.976.517 1.526.468.435.002.868-.041 1.294-.127v3.078a6.104 6.104 0 01-2.309.344 4.708 4.708 0 01-3.463-1.248 4.617 4.617 0 01-1.265-3.446v-7.917h-2.896zm10.829 8.204a4.208 4.208 0 011.31-3.245 6.287 6.287 0 013.441-1.532l4.04-.615c.778-.098 1.167-.452 1.167-1.061a2.015 2.015 0 00-.744-1.615 3.389 3.389 0 00-2.23-.627 3.198 3.198 0 00-2.271.786 3.07 3.07 0 00-.973 2.004l-3.412-.756a5.581 5.581 0 012.018-3.777 6.768 6.768 0 014.588-1.553 9.133 9.133 0 013.111.487 5.24 5.24 0 012.12 1.339 5.518 5.518 0 011.156 1.915c.257.744.384 1.526.376 2.313v7.63c-.014.845.055 1.689.204 2.521H82.35a7.288 7.288 0 01-.18-2.002 5.38 5.38 0 01-1.876 1.766 5.759 5.759 0 01-2.981.726 5.388 5.388 0 01-3.85-1.384 4.38 4.38 0 01-1.471-3.32zm3.74-.268a1.936 1.936 0 00.609 1.439 2.323 2.323 0 001.686.59 4.935 4.935 0 001.502-.214 3.796 3.796 0 001.242-.661c.398-.334.699-.771.87-1.261a5.45 5.45 0 00.309-1.932v-.71l-4.103.628a2.943 2.943 0 00-1.535.685 1.838 1.838 0 00-.581 1.432v.004zm12.486 4.485V25.158h3.615v1.958a4.336 4.336 0 011.942-1.78 6.088 6.088 0 012.701-.635 5.828 5.828 0 012.873.696 4.359 4.359 0 011.885 2.027 5.552 5.552 0 015.097-2.723 5.774 5.774 0 012.032.354 5.371 5.371 0 011.73 1.056c.557.521.98 1.167 1.236 1.883.316.858.471 1.767.456 2.68v10.198h-3.519v-9.63a3.516 3.516 0 00-.756-2.36 2.826 2.826 0 00-1.031-.702 2.833 2.833 0 00-1.235-.186A3.018 3.018 0 00102.892 29a3.578 3.578 0 00-.906 2.495v9.377h-3.74v-9.63a3.548 3.548 0 00-.748-2.352 2.796 2.796 0 00-2.273-.897 3.05 3.05 0 00-2.371.986 3.613 3.613 0 00-.89 2.518v9.378l-3.746-.001zm26.262 6.135V25.158h3.646v2.105a4.612 4.612 0 011.937-1.773 6.484 6.484 0 013.054-.695 6.621 6.621 0 015.329 2.29 8.82 8.82 0 011.939 5.906 8.733 8.733 0 01-2.027 5.947 6.767 6.767 0 01-5.369 2.331 6.49 6.49 0 01-2.872-.607 4.774 4.774 0 01-1.898-1.547v7.891l-3.739.003zm3.709-14.015a5.326 5.326 0 001.181 3.61 3.83 3.83 0 003.04 1.371 3.853 3.853 0 003.053-1.363 5.334 5.334 0 001.182-3.618 5.212 5.212 0 00-1.174-3.552 3.873 3.873 0 00-3.064-1.346 3.847 3.847 0 00-3.04 1.357 5.195 5.195 0 00-1.178 3.539v.002zm12.469 3.36l3.251-.887c.054.715.389 1.381.931 1.852a3.279 3.279 0 002.273.749 2.834 2.834 0 001.736-.474 1.417 1.417 0 00.629-1.166c0-.191-.041-.38-.121-.554a1.325 1.325 0 00-.346-.45c-.4-.316-.88-.52-1.386-.588l-2.334-.523a5.715 5.715 0 01-3.132-1.71 4.302 4.302 0 01-1.098-2.939c0-.676.15-1.343.44-1.954a4.548 4.548 0 011.24-1.573 6.018 6.018 0 014.11-1.472 7.709 7.709 0 012.264.313c.59.166 1.148.427 1.654.772.418.3.787.661 1.098 1.07.271.35.499.732.676 1.139.139.336.238.687.295 1.046l-3.089.888a2.414 2.414 0 00-.22-.734 3.324 3.324 0 00-.489-.735 2.24 2.24 0 00-.881-.596 3.457 3.457 0 00-1.308-.229 2.485 2.485 0 00-1.625.53 1.602 1.602 0 00-.647 1.262c-.002.194.035.387.109.567.076.18.187.342.326.477.322.306.729.507 1.168.576l2.377.488a6.113 6.113 0 013.289 1.664 4.082 4.082 0 011.142 2.898c0 .65-.127 1.294-.373 1.896a5.682 5.682 0 01-1.072 1.689 5.02 5.02 0 01-1.848 1.242 6.697 6.697 0 01-2.562.472 7.764 7.764 0 01-2.889-.507 5.373 5.373 0 01-2.012-1.307 6.644 6.644 0 01-1.121-1.605 4.934 4.934 0 01-.455-1.587zM21.659 24.871a.677.677 0 00.035-.132 3.219 3.219 0 011.163-2.053 3.218 3.218 0 011.554-.667.507.507 0 00.11-.028c.112-.011.224-.017.336-.017a3.172 3.172 0 013.163 2.764.488.488 0 00.488.441h.116a.48.48 0 00.488-.441 3.15 3.15 0 013.142-2.764 3.172 3.172 0 013.163 2.764.488.488 0 00.488.441h.09a.483.483 0 00.489-.441 3.166 3.166 0 013.142-2.764c.833 0 1.632.325 2.228.907.583.596.91 1.396.909 2.229a3.164 3.164 0 01-2.768 3.138.479.479 0 00-.442.489v.089a.483.483 0 00.442.488 3.167 3.167 0 012.767 3.158 3.147 3.147 0 01-2.767 3.139.48.48 0 00-.442.488v.116a.482.482 0 00.442.487 3.173 3.173 0 012.752 3.468.67.67 0 00-.036.133 3.213 3.213 0 01-1.162 2.053 3.207 3.207 0 01-1.555.666.787.787 0 00-.109.026 3.172 3.172 0 01-3.499-2.744.488.488 0 00-.157-.317.487.487 0 00-.331-.124h-.117a.483.483 0 00-.489.441 3.15 3.15 0 01-3.142 2.764 3.17 3.17 0 01-3.163-2.763.483.483 0 00-.488-.441h-.09a.483.483 0 00-.489.441 3.16 3.16 0 01-1.048 1.974 3.171 3.171 0 01-2.094.79 3.191 3.191 0 01-2.233-.908 3.183 3.183 0 01-.909-2.229 3.164 3.164 0 012.768-3.139.484.484 0 00.443-.488v-.09a.483.483 0 00-.442-.487 3.175 3.175 0 01-1.983-1.056 3.158 3.158 0 01-.784-2.103 3.148 3.148 0 012.767-3.139.48.48 0 00.443-.488v-.116a.488.488 0 00-.442-.488 3.17 3.17 0 01-2.751-3.467h.004zm2.754-3.876a.801.801 0 00-.119-.021 4.24 4.24 0 00-2.699 1.515 4.208 4.208 0 00-.948 2.134.685.685 0 00.016.101 3.982 3.982 0 00-.021.408 4.25 4.25 0 002.209 3.693 4.262 4.262 0 00-2.21 3.693 4.247 4.247 0 002.209 3.693 4.2 4.2 0 00-2.196 4.042.497.497 0 00-.012.163 4.224 4.224 0 001.21 2.437 4.234 4.234 0 002.439 1.209c.055.005.11 0 .165-.013a4.197 4.197 0 004.046-2.192 4.25 4.25 0 003.697 2.206 4.25 4.25 0 002.149-.602 4.252 4.252 0 001.549-1.604 4.245 4.245 0 001.549 1.604 4.249 4.249 0 002.545.584.8.8 0 00.119.02 4.236 4.236 0 002.694-1.514c.511-.608.84-1.348.949-2.135a.6.6 0 00-.016-.102c.014-.135.02-.269.02-.408a4.251 4.251 0 00-2.208-3.693 4.245 4.245 0 002.208-3.693 4.249 4.249 0 00-2.208-3.693 4.19 4.19 0 002.195-4.042.596.596 0 00.013-.163 4.217 4.217 0 00-1.211-2.437 4.223 4.223 0 00-2.438-1.209.533.533 0 00-.164.013 4.207 4.207 0 00-4.046 2.192 4.253 4.253 0 00-3.697-2.205 4.26 4.26 0 00-3.697 2.206 4.254 4.254 0 00-4.094-2.188h.003z"/><path d="M40.138 44.853l-.083-.006c-.034 0-.069-.008-.104-.012a4.946 4.946 0 01-2.933-.718 5.128 5.128 0 01-1.114-.92 5.049 5.049 0 01-3.701 1.651 4.946 4.946 0 01-2.58-.73 5.103 5.103 0 01-1.111-.918 4.971 4.971 0 01-3.704 1.648c-.104 0-.209 0-.313-.01a1.264 1.264 0 01-.261.006h-.044a5.027 5.027 0 01-3.832-2.734 4.958 4.958 0 01-.488-1.581v-.044a1.412 1.412 0 01.005-.26 4.962 4.962 0 01.722-2.907c.251-.411.561-.784.919-1.106a5.045 5.045 0 01-.919-1.109 4.927 4.927 0 01-.731-2.577 5.032 5.032 0 011.652-3.696 5.127 5.127 0 01-.921-1.113 4.926 4.926 0 01-.716-2.951c-.004-.025-.006-.05-.008-.075l-.006-.083.011-.083A4.983 4.983 0 0121 21.998a5.001 5.001 0 013.195-1.793l.083-.012.083.006c.034 0 .068.007.103.012a4.943 4.943 0 012.934.718 5.1 5.1 0 011.113.92 5.039 5.039 0 013.701-1.651 4.937 4.937 0 012.58.731c.412.252.786.561 1.112.917a4.98 4.98 0 014.016-1.638c.087-.011.174-.012.261-.005h.043a5.027 5.027 0 012.889 1.431 4.982 4.982 0 011.431 2.884v.044a1.41 1.41 0 01-.006.26 4.96 4.96 0 01-.722 2.906 4.996 4.996 0 01-.918 1.105c.357.325.667.699.918 1.11.477.775.73 1.667.732 2.576a5.038 5.038 0 01-1.652 3.697c.358.325.668.699.921 1.112a4.934 4.934 0 01.717 2.951c0 .024.006.051.008.076l.006.083-.012.082a4.982 4.982 0 01-1.121 2.527 5.012 5.012 0 01-3.196 1.793l-.081.013zm-2.97-4.642a2.384 2.384 0 002.384 2.073c.064 0 .126 0 .189-.008.042-.01.084-.02.127-.026h.023c.427-.06.83-.233 1.167-.501a2.42 2.42 0 00.877-1.549v-.022a1.56 1.56 0 01.035-.157c0-.052.006-.104.006-.154a2.384 2.384 0 00-2.077-2.383 1.26 1.26 0 01-1.133-1.264v-.117a1.26 1.26 0 011.097-1.255h.045a2.374 2.374 0 002.065-2.358 2.38 2.38 0 00-2.077-2.383 1.265 1.265 0 01-1.133-1.264v-.089a1.256 1.256 0 011.097-1.255h.045c.57-.081 1.093-.363 1.472-.796s.59-.987.593-1.563a2.395 2.395 0 00-.68-1.677 2.401 2.401 0 00-1.679-.679 2.374 2.374 0 00-2.362 2.063v.045a1.258 1.258 0 01-1.256 1.095h-.09a1.268 1.268 0 01-1.266-1.132 2.375 2.375 0 00-.799-1.489 2.389 2.389 0 00-1.587-.585 2.37 2.37 0 00-2.362 2.062v.045a1.256 1.256 0 01-1.256 1.096h-.116a1.268 1.268 0 01-1.267-1.132 2.386 2.386 0 00-2.385-2.074c-.063 0-.127 0-.189.008-.042.011-.084.02-.127.027h-.023c-.427.06-.83.232-1.167.501-.479.386-.793.94-.877 1.549v.022a1.713 1.713 0 01-.035.158c0 .051-.004.103-.004.154a2.38 2.38 0 002.075 2.382 1.265 1.265 0 011.134 1.263v.117a1.256 1.256 0 01-1.096 1.255h-.046a2.37 2.37 0 00-2.065 2.359 2.38 2.38 0 002.076 2.382 1.265 1.265 0 011.133 1.264v.09a1.254 1.254 0 01-1.095 1.256h-.046a2.401 2.401 0 00-2.065 2.359 2.394 2.394 0 00.679 1.677c.449.437 1.052.68 1.679.678a2.399 2.399 0 002.361-2.063v-.023l.004-.023a1.256 1.256 0 011.256-1.094h.09a1.268 1.268 0 011.266 1.132 2.38 2.38 0 002.386 2.073 2.364 2.364 0 001.571-.586c.435-.379.716-.904.791-1.477v-.023l.004-.021a1.256 1.256 0 011.256-1.096h.117c.313 0 .615.116.847.326.235.208.381.495.413.807z"/><path d="M32.215 35.579a4.282 4.282 0 01-3.052-1.262 4.284 4.284 0 01-1.264-3.049.958.958 0 111.915 0 2.4 2.4 0 004.802 0 .946.946 0 01.281-.678.96.96 0 011.355-.001c.18.18.281.423.281.677a4.276 4.276 0 01-1.265 3.049 4.302 4.302 0 01-3.053 1.264z"/></g></svg>