<svg width="195" height="29" fill="none" xmlns="http://www.w3.org/2000/svg"><path d="M68.303 22.246c-1.56 0-2.935-.338-4.125-1.015a7.506 7.506 0 01-2.832-2.833c-.677-1.21-1.016-2.596-1.016-4.155 0-1.56.339-2.945 1.016-4.156a7.506 7.506 0 012.832-2.832c1.19-.677 2.565-1.016 4.125-1.016 1.95 0 3.591.513 4.925 1.54 1.334 1.005 2.186 2.4 2.555 4.186h-4.156c-.205-.74-.615-1.314-1.23-1.724-.596-.431-1.304-.647-2.125-.647-1.088 0-2.011.41-2.77 1.232-.76.82-1.14 1.96-1.14 3.417 0 1.457.38 2.596 1.14 3.417.759.82 1.683 1.23 2.77 1.23.821 0 1.53-.204 2.124-.615.616-.41 1.026-.995 1.231-1.754h4.156c-.37 1.723-1.22 3.109-2.555 4.155-1.334 1.047-2.975 1.57-4.925 1.57zm17.688 0c-1.477 0-2.811-.338-4.001-1.015a7.64 7.64 0 01-2.802-2.802c-.677-1.21-1.016-2.606-1.016-4.186s.35-2.966 1.047-4.156c.698-1.21 1.632-2.155 2.801-2.832 1.19-.677 2.525-1.016 4.002-1.016 1.457 0 2.77.339 3.94 1.016a7.286 7.286 0 012.802 2.832c.697 1.19 1.046 2.575 1.046 4.156 0 1.58-.349 2.975-1.046 4.186a7.346 7.346 0 01-2.802 2.802c-1.19.677-2.514 1.015-3.97 1.015zm0-3.417c1.026 0 1.92-.38 2.678-1.139.76-.78 1.14-1.929 1.14-3.447 0-1.519-.38-2.658-1.14-3.417-.759-.78-1.641-1.17-2.647-1.17-1.047 0-1.95.39-2.709 1.17-.739.759-1.108 1.898-1.108 3.417 0 1.518.37 2.667 1.108 3.447.76.76 1.652 1.14 2.678 1.14zm10.727 3.048V6.608h3.478l.339 2.063a5.323 5.323 0 011.939-1.755c.821-.451 1.765-.677 2.832-.677 2.36 0 4.033.913 5.018 2.74a5.964 5.964 0 012.216-2.001 6.555 6.555 0 013.079-.739c1.99 0 3.519.595 4.586 1.785 1.067 1.19 1.601 2.935 1.601 5.234v8.619h-3.94v-8.25c0-1.313-.257-2.319-.77-3.017-.492-.698-1.262-1.046-2.309-1.046-1.067 0-1.929.39-2.585 1.17-.637.78-.955 1.867-.955 3.262v7.88h-3.94v-8.249c0-1.313-.257-2.319-.77-3.017s-1.303-1.046-2.37-1.046c-1.047 0-1.898.39-2.555 1.17-.636.78-.954 1.867-.954 3.262v7.88h-3.94zm28.213 6.773V6.607h3.509l.431 2.186c.493-.677 1.139-1.272 1.94-1.785.821-.513 1.878-.77 3.17-.77 1.437 0 2.72.349 3.848 1.047 1.129.697 2.022 1.652 2.678 2.863.657 1.21.986 2.585.986 4.124 0 1.54-.329 2.915-.986 4.125a7.552 7.552 0 01-2.678 2.832c-1.128.678-2.411 1.016-3.848 1.016-1.149 0-2.154-.215-3.016-.646a5.442 5.442 0 01-2.094-1.816v8.865h-3.94zm8.219-9.851c1.252 0 2.289-.421 3.109-1.262.821-.842 1.232-1.93 1.232-3.264 0-1.333-.411-2.431-1.232-3.293-.82-.862-1.857-1.293-3.109-1.293-1.272 0-2.319.43-3.14 1.293-.8.841-1.2 1.929-1.2 3.263 0 1.334.4 2.431 1.2 3.293.821.842 1.868 1.263 3.14 1.263zm16.511 3.447c-1.314 0-2.391-.205-3.233-.615-.841-.431-1.467-.996-1.877-1.693a4.465 4.465 0 01-.616-2.31c0-1.415.554-2.565 1.662-3.447 1.109-.882 2.771-1.324 4.987-1.324h3.879v-.369c0-1.047-.298-1.816-.893-2.309-.595-.492-1.334-.739-2.216-.739-.801 0-1.498.195-2.093.585-.596.37-.965.924-1.109 1.663h-3.848c.103-1.109.472-2.073 1.109-2.894.656-.82 1.498-1.447 2.524-1.878 1.026-.451 2.175-.677 3.448-.677 2.175 0 3.889.544 5.14 1.632 1.252 1.087 1.878 2.626 1.878 4.617v9.389h-3.355l-.37-2.463a5.638 5.638 0 01-1.908 2.032c-.801.534-1.837.8-3.109.8zm.892-3.078c1.129 0 2.001-.37 2.617-1.108.636-.739 1.036-1.652 1.201-2.74h-3.356c-1.046 0-1.796.195-2.247.585-.451.37-.677.831-.677 1.385 0 .595.226 1.057.677 1.386.451.328 1.047.492 1.785.492zm10.995 2.709V6.608h3.478l.308 2.586a5.396 5.396 0 012.032-2.155c.903-.533 1.96-.8 3.17-.8 1.888 0 3.356.595 4.402 1.785 1.047 1.19 1.57 2.935 1.57 5.234v8.619h-3.94v-8.25c0-1.313-.267-2.319-.8-3.017-.534-.698-1.365-1.046-2.494-1.046-1.108 0-2.021.39-2.74 1.17-.697.78-1.046 1.867-1.046 3.262v7.88h-3.94zm19.51 6.773l3.54-7.789h-.923l-5.942-14.253h4.279l4.279 10.744 4.464-10.744h4.186l-9.697 22.041h-4.186z" fill="#343434"/><path d="M15.373 26.042a2.567 2.567 0 01-3.633-.003l-9.93-9.966a2.567 2.567 0 01.003-3.626l9.931-9.932a2.567 2.567 0 013.627-.003l9.966 9.932a2.567 2.567 0 01.003 3.632l-9.966 9.966z" fill="#626262"/><path d="M28.972 26.038a2.567 2.567 0 01-3.633.003l-9.965-9.965a2.567 2.567 0 01.003-3.633l9.966-9.932a2.567 2.567 0 013.626.003l9.932 9.932a2.567 2.567 0 01.003 3.626l-9.932 9.966z" fill="#343434"/><path d="M39.053 26.04a2.567 2.567 0 01-3.633 0l-9.95-9.966a2.567 2.567 0 01.003-3.63l9.95-9.932c1.002-1 2.624-1 3.626 0L49 12.444a2.567 2.567 0 01.004 3.63l-9.95 9.966z" fill="#626262"/></svg>