<svg width="173" height="29" fill="none" xmlns="http://www.w3.org/2000/svg"><path d="M22.407 12.534c-3.659 0-6.629-2.959-6.629-6.595 0-.474.057-.926.147-1.377H7.117C3.707 4.562.94 7.317.94 10.705v11.349c0 3.399 2.767 6.143 6.177 6.143h11.406c3.421 0 6.177-2.755 6.177-6.143v-9.938c-.7.26-1.48.418-2.293.418z" fill="#343434"/><path d="M24.71 22.054v-9.938a6.71 6.71 0 01-2.292.418c-3.659 0-6.629-2.959-6.629-6.595 0-.474.057-.926.147-1.377H7.128C3.74 4.562.996 7.272.95 10.637c8.13 3.354 16.487 7.43 23.714 12.196.023-.26.046-.52.046-.78z" fill="#343434"/><path d="M22.915 10.256c2.653 0 4.799-2.134 4.799-4.777 0-2.631-2.146-4.777-4.8-4.777-2.653 0-4.799 2.135-4.799 4.777 0 2.631 2.146 4.777 4.8 4.777z" fill="#626262"/><path d="M51.992 16.332a8.278 8.278 0 01-.956 2.338 8.85 8.85 0 01-1.664 1.983 8.448 8.448 0 01-2.267 1.382c-.85.33-1.76.495-2.727.495-1.11 0-2.16-.212-3.152-.637a8.952 8.952 0 01-2.586-1.806 9.157 9.157 0 01-1.77-2.621 8.352 8.352 0 01-.638-3.259c0-1.157.212-2.23.637-3.222a9.014 9.014 0 011.771-2.657 8.407 8.407 0 012.586-1.77 7.56 7.56 0 013.152-.673c.968 0 1.877.177 2.727.53.85.331 1.606.792 2.267 1.382a7.917 7.917 0 011.664 1.983c.449.732.767 1.5.956 2.303H47.92a3.736 3.736 0 00-.78-1.134 4.512 4.512 0 00-1.098-.779c-.448-.26-1.003-.39-1.664-.39-1.157 0-2.125.402-2.904 1.205-.78.802-1.17 1.877-1.17 3.223 0 1.345.39 2.42 1.17 3.222.779.803 1.747 1.205 2.904 1.205.66 0 1.216-.119 1.664-.355a4.512 4.512 0 001.098-.779c.33-.33.59-.72.78-1.169h4.072zm6.73-2.125c0 1.346.39 2.42 1.168 3.223.78.803 1.748 1.205 2.905 1.205 1.157 0 2.125-.402 2.904-1.205.779-.802 1.169-1.877 1.169-3.223 0-1.345-.39-2.42-1.17-3.222-.778-.803-1.746-1.205-2.903-1.205s-2.125.402-2.905 1.205c-.779.802-1.168 1.877-1.168 3.223zm12.218 0a7.97 7.97 0 01-.672 3.259 8.288 8.288 0 01-1.771 2.62 8.358 8.358 0 01-2.586 1.807 7.665 7.665 0 01-3.116.637c-1.11 0-2.16-.212-3.153-.637a8.95 8.95 0 01-2.585-1.806 9.155 9.155 0 01-1.77-2.621 8.352 8.352 0 01-.638-3.259c0-1.157.212-2.23.637-3.222a9.012 9.012 0 011.771-2.657 8.406 8.406 0 012.585-1.77 7.56 7.56 0 013.153-.673c1.11 0 2.148.224 3.116.672a7.883 7.883 0 012.586 1.771 8.183 8.183 0 011.77 2.657c.45.991.674 2.066.674 3.223zm11.317-8.322c.827 0 1.535.118 2.125.354.59.212 1.075.448 1.452.708a3.96 3.96 0 011.027 1.063 6.448 6.448 0 011.31-1.063 8.32 8.32 0 011.524-.708 5.2 5.2 0 011.948-.354c1.77 0 3.187.566 4.25 1.7 1.062 1.133 1.594 2.81 1.594 5.029v9.74h-4.073v-9.386c0-.992-.272-1.77-.815-2.338-.52-.566-1.133-.85-1.842-.85-.708 0-1.334.284-1.877.85-.52.567-.779 1.346-.779 2.338v9.385h-4.073v-9.385c0-.992-.271-1.77-.815-2.338-.519-.566-1.133-.85-1.841-.85-.709 0-1.334.284-1.877.85-.52.567-.78 1.346-.78 2.338v9.385h-4.072V6.062h3.01l.708 1.593c.331-.33.697-.625 1.098-.885.33-.213.732-.413 1.204-.602a4.26 4.26 0 011.594-.283zm27.98 0a6.85 6.85 0 012.904.637c.921.401 1.723.98 2.408 1.735a7.909 7.909 0 011.665 2.621c.425 1.016.637 2.125.637 3.33 0 1.204-.212 2.313-.637 3.329a8.32 8.32 0 01-1.665 2.656 7.66 7.66 0 01-2.408 1.735 7.191 7.191 0 01-2.904.602c-.685 0-1.287-.082-1.807-.248a10.03 10.03 0 01-1.31-.53 5.766 5.766 0 01-1.133-.815v7.083h-4.073V6.062h3.01l.708 1.593a6.18 6.18 0 011.24-.885 9.615 9.615 0 011.452-.602c.567-.189 1.204-.283 1.913-.283zm-4.605 8.322c0 1.346.39 2.42 1.169 3.223.779.803 1.747 1.205 2.904 1.205 1.157 0 2.125-.402 2.905-1.205.779-.802 1.168-1.877 1.168-3.223 0-1.345-.389-2.42-1.168-3.222-.78-.803-1.748-1.205-2.905-1.205-1.157 0-2.125.402-2.904 1.205-.779.802-1.169 1.877-1.169 3.223zm22.673-8.322a6.46 6.46 0 012.55.495 5.843 5.843 0 012.018 1.31 5.848 5.848 0 011.311 2.02 6.47 6.47 0 01.496 2.55v10.093h-3.011l-.708-1.593c-.378.33-.791.625-1.24.885a7.614 7.614 0 01-1.452.637 6.82 6.82 0 01-1.912.248c-1.771 0-3.129-.425-4.073-1.275-.945-.873-1.417-1.983-1.417-3.329 0-.802.154-1.534.461-2.196.33-.684.873-1.263 1.629-1.735.755-.496 1.747-.874 2.975-1.133 1.251-.284 2.81-.425 4.675-.425 0-.898-.248-1.594-.744-2.09-.472-.496-1.11-.744-1.912-.744-.544 0-.98.095-1.311.284-.307.188-.555.39-.744.602a2.07 2.07 0 00-.425.885h-4.073a6.528 6.528 0 01.638-2.125 5.861 5.861 0 011.417-1.735 6.649 6.649 0 012.089-1.17c.827-.306 1.747-.46 2.763-.46zm-1.24 13.458c1.063 0 1.913-.307 2.55-.92.661-.638.992-1.453.992-2.445v-.708c-1.204 0-2.172.059-2.904.177-.732.095-1.311.248-1.736.46-.401.19-.673.425-.814.709a2.105 2.105 0 00-.213.956c0 .449.201.862.602 1.24.402.354.909.53 1.523.53zm20.351-13.458c.968 0 1.853.165 2.656.495a5.35 5.35 0 012.054 1.382c.591.59 1.039 1.31 1.346 2.16.331.85.496 1.806.496 2.869v9.562h-4.073v-9.03c0-1.063-.319-1.913-.956-2.551-.614-.661-1.417-.992-2.408-.992-.992 0-1.807.33-2.444.992-.614.638-.921 1.488-.921 2.55v9.031h-4.073V6.062h3.01l.709 1.593a8.54 8.54 0 011.31-.885 10.21 10.21 0 011.417-.602 5.908 5.908 0 011.877-.283zm9.222.177h4.25l4.073 10.625 3.719-10.625h4.25a3282.674 3282.674 0 01-3.152 8.075 218.2 218.2 0 01-1.204 3.046c-.378.991-.72 1.9-1.027 2.727-.307.802-.567 1.475-.78 2.018-.212.543-.342.862-.389.957-.402.968-.803 1.782-1.204 2.443-.378.685-.791 1.24-1.24 1.665a4.2 4.2 0 01-1.452.92c-.519.19-1.11.284-1.771.284a4.69 4.69 0 01-.567-.035 2.21 2.21 0 01-.425-.036 1.877 1.877 0 01-.425-.106v-3.364c.898 0 1.582-.201 2.055-.603a3.863 3.863 0 001.133-1.523l.354-.885-6.198-15.583z" fill="#343434"/></svg>