<svg xmlns="http://www.w3.org/2000/svg" viewBox="0 0 173 31"><path d="M37.2 13c0-1.8.4-3.5 1.2-5 .8-1.5 2-2.6 3.4-3.4 1.5-.8 3.1-1.2 4.9-1.2 2.1 0 3.9.5 5.5 1.6s2.7 2.6 3.3 4.5h-4.3c-.4-.9-1-1.6-1.8-2-.8-.4-1.7-.7-2.7-.7-1.1 0-2.1.3-2.9.8-.8.5-1.5 1.2-2 2.2-.5.9-.7 2-.7 3.3 0 1.2.2 2.3.7 3.3.5.9 1.1 1.7 2 2.2.9.5 1.8.8 2.9.8 1 0 1.9-.2 2.7-.7.8-.5 1.4-1.1 1.8-2h4.3c-.5 1.8-1.6 3.3-3.2 4.3-1.6 1.1-3.4 1.6-5.5 1.6-1.8 0-3.4-.4-4.9-1.2-1.4-.8-2.6-2-3.4-3.4-.8-1.5-1.3-3.1-1.3-5zm28.2 9.7c-1.4 0-2.7-.3-3.9-.9-1.1-.6-2.1-1.6-2.7-2.7-.6-1.2-1-2.5-1-4s.3-2.9 1-4c.7-1.2 1.6-2.1 2.8-2.7 1.2-.6 2.5-1 3.9-1s2.7.3 3.9 1c1.2.6 2.1 1.5 2.7 2.7.7 1.2 1 2.5 1 4s-.3 2.9-1.1 4c-.7 1.2-1.6 2.1-2.8 2.7-1 .6-2.3.9-3.8.9zm0-3.3c.7 0 1.3-.2 1.9-.5.6-.3 1.1-.8 1.5-1.5.4-.7.5-1.5.5-2.4 0-1.4-.4-2.5-1.1-3.3-.7-.8-1.6-1.2-2.7-1.2s-2 .4-2.7 1.2c-.7.8-1.1 1.8-1.1 3.3 0 1.4.3 2.5 1 3.3.8.7 1.7 1.1 2.7 1.1zM94.5 7.3c1.8 0 3.3.6 4.4 1.7 1.1 1.1 1.7 2.7 1.7 4.7v8.8h-3.8v-8.2c0-1.2-.3-2.1-.9-2.7-.6-.6-1.4-.9-2.4-.9s-1.8.3-2.5.9c-.6.6-.9 1.5-.9 2.7v8.2h-3.8v-8.2c0-1.2-.3-2.1-.9-2.7-.6-.6-1.4-.9-2.4-.9s-1.9.3-2.5.9c-.6.6-.9 1.5-.9 2.7v8.2H76V7.6h3.8v1.8c.5-.6 1.1-1.1 1.9-1.5.8-.4 1.6-.5 2.5-.5 1.2 0 2.2.3 3.1.8.9.5 1.6 1.2 2.1 2.1.5-.9 1.2-1.6 2.1-2.1.9-.6 1.9-.9 3-.9zM108 9.7c.5-.7 1.1-1.2 2-1.7.9-.5 1.8-.7 2.9-.7 1.3 0 2.4.3 3.4.9 1 .6 1.9 1.5 2.4 2.7.6 1.1.9 2.5.9 4s-.3 2.9-.9 4.1c-.6 1.2-1.4 2.1-2.4 2.7-1 .6-2.2 1-3.4 1-1.1 0-2.1-.2-2.9-.7-.8-.4-1.5-1-2-1.7v9.2h-3.8v-22h3.8v2.2zm7.9 5.3c0-.9-.2-1.7-.6-2.3-.4-.7-.8-1.2-1.5-1.5-.6-.3-1.2-.5-1.9-.5s-1.3.2-1.9.5c-.6.3-1.1.8-1.5 1.5-.4.7-.5 1.4-.5 2.3 0 .9.2 1.7.5 2.3.4.7.9 1.2 1.5 1.5.6.3 1.3.5 1.9.5.7 0 1.3-.2 1.9-.5.6-.4 1.1-.9 1.5-1.5.4-.6.6-1.4.6-2.3zm5.6 0c0-1.5.3-2.8.9-4 .6-1.2 1.4-2.1 2.4-2.7 1-.6 2.2-.9 3.5-.9 1.1 0 2.1.2 2.9.7.8.4 1.5 1 2 1.7V7.6h3.8v14.9h-3.8v-2.2c-.5.7-1.2 1.3-2 1.8-.8.4-1.8.7-2.9.7-1.3 0-2.4-.3-3.4-1-1-.6-1.8-1.6-2.4-2.7-.7-1.3-1-2.6-1-4.1zm11.7 0c0-.9-.2-1.7-.5-2.3-.4-.7-.8-1.2-1.5-1.5-.6-.4-1.3-.5-2-.5s-1.3.2-1.9.5c-.6.3-1.1.8-1.5 1.5-.4.6-.5 1.4-.5 2.3 0 .9.2 1.7.5 2.4.4.7.9 1.2 1.5 1.5.6.4 1.3.5 1.9.5.7 0 1.4-.2 2-.5.6-.4 1.1-.9 1.5-1.5.3-.7.5-1.5.5-2.4zM149 7.3c1.8 0 3.2.6 4.3 1.7 1.1 1.1 1.6 2.7 1.6 4.7v8.8h-3.8v-8.2c0-1.2-.3-2.1-.9-2.7-.6-.6-1.4-1-2.4-1s-1.9.3-2.5 1c-.6.6-.9 1.5-.9 2.7v8.2h-3.8V7.6h3.8v1.9c.5-.6 1.1-1.1 1.9-1.5.9-.5 1.7-.7 2.7-.7zm23.8.3l-9.2 22h-4l3.2-7.4-6-14.5h4.2l3.8 10.4 3.9-10.4h4.1zm-170 23H.1V11.8h10.1v11.4c0 4.1-3.3 7.4-7.4 7.4zm20.8-18.8C23.6 5.3 18.4 0 11.9 0c-.6 0-1.1 0-1.7.1v11.6h13.4v.1z" fill="#343434"/><path d="M6.6 9.5c2-.8 2.9-3.1 2.1-5.1-.8-2-3.1-2.9-5.1-2.1-2 .8-2.9 3.1-2.1 5.1.9 1.9 3.1 2.9 5.1 2.1zm8.7 15.8c-.8 0-1.4-.6-1.4-1.4v-7.6c0-.8.6-1.4 1.4-1.4h7.5c.8 0 1.4.6 1.4 1.4v7.6c0 .8-.6 1.4-1.4 1.4h-7.5z" fill="#626262"/></svg>