<svg width="160" height="64" fill="none" xmlns="http://www.w3.org/2000/svg"><path d="M30.603 26.595h-4.267l-3.02 8.285-3.076-8.285H16L21.653 40.2h3.325l5.625-13.605zm12.991 6.207c0-3.63-2.882-6.484-6.568-6.484-3.962 0-7.066 3.048-7.066 7.01 0 4.046 3.16 7.15 7.15 7.15 2.826 0 5.098-1.054 6.096-2.855l-3.048-1.856c-.471.831-1.746 1.385-2.965 1.385-1.857 0-3.131-.97-3.492-2.826h9.782c.083-.527.11-1.053.11-1.524zm-9.837-.97c.36-1.469 1.44-2.355 3.075-2.355 1.441 0 2.688.997 2.855 2.355h-5.93zm15.235-11.028h-3.907V40.2h3.907V20.804zm8.432 5.514c-4.018 0-7.066 3.048-7.066 7.093 0 4.046 3.048 7.066 7.066 7.066 3.99 0 7.066-3.02 7.066-7.066 0-4.045-3.075-7.093-7.066-7.093zm0 3.74c1.83 0 3.242 1.414 3.242 3.353 0 1.885-1.413 3.326-3.242 3.326-1.856 0-3.242-1.441-3.242-3.326 0-1.94 1.386-3.352 3.242-3.352zM78.83 36.57l-3.464-1.551c-.527 1.08-1.608 1.718-2.938 1.718-1.94 0-3.325-1.441-3.325-3.326 0-1.912 1.386-3.352 3.325-3.352 1.192 0 2.19.581 2.688 1.496l3.298-1.884c-1.081-2.023-3.326-3.353-5.986-3.353-4.073 0-7.149 3.048-7.149 7.093 0 4.046 3.076 7.066 7.15 7.066 2.909 0 5.375-1.551 6.4-3.907zM81.991 20c-1.302 0-2.383 1.08-2.383 2.355a2.4 2.4 0 002.383 2.383 2.4 2.4 0 002.383-2.383c0-1.274-1.08-2.355-2.383-2.355zm-1.94 6.595V40.2h3.908V26.595h-3.907zM94.66 36.57c-.304.111-.83.194-1.219.194-1.136 0-2.106-.803-2.106-2.078v-4.378h3.353v-3.713h-3.353V23.02h-3.907v3.575h-2.521v3.713h2.521v4.572c0 3.52 2.245 5.542 5.431 5.542.72 0 1.497-.139 1.995-.388l-.194-3.464zm10.765-9.975l-3.02 7.953-3.02-7.953h-4.212l5.237 12.497-2.522 5.625h4.184l7.565-18.122h-4.212z" fill="#748FB5"/><path fill-rule="evenodd" clip-rule="evenodd" d="M121 17a2 2 0 00-2 2v20a8 8 0 008 8h14a8 8 0 008-8V25a8 8 0 00-8-8h-20zm6 11.789c0-3.713 3.159-6.789 6.955-6.789 3.824 0 6.955 3.076 6.955 6.789 0 1.274-.471 2.992-1.524 4.683l-5.098 8.202h-4.683l4.101-6.484c-.167.028-.333.028-.499.028-3.547 0-6.207-2.716-6.207-6.43zm3.99.028c0 1.634 1.303 2.937 2.993 2.937 1.635 0 2.909-1.303 2.909-2.937 0-1.635-1.302-2.91-2.937-2.91-1.662 0-2.965 1.275-2.965 2.91z" fill="#748FB5"/></svg>