<svg width="176" height="29" fill="none" xmlns="http://www.w3.org/2000/svg"><path d="M39.592 11.822c0-1.849.413-3.5 1.239-4.954.843-1.472 1.983-2.611 3.419-3.42 1.454-.825 3.078-1.238 4.873-1.238 2.1 0 3.94.539 5.52 1.616 1.579 1.077 2.683 2.567 3.311 4.47h-4.335c-.43-.898-1.04-1.571-1.83-2.02-.772-.449-1.67-.673-2.693-.673-1.095 0-2.073.26-2.934.78-.844.503-1.508 1.221-1.993 2.154-.466.934-.7 2.029-.7 3.285 0 1.239.234 2.334.7 3.285.485.933 1.149 1.66 1.993 2.18.861.503 1.84.754 2.934.754 1.023 0 1.92-.224 2.693-.673.79-.466 1.4-1.148 1.83-2.046h4.335c-.628 1.92-1.732 3.42-3.312 4.496-1.561 1.06-3.4 1.589-5.519 1.589-1.795 0-3.42-.404-4.873-1.212a9.193 9.193 0 01-3.42-3.419c-.825-1.454-1.238-3.105-1.238-4.954zm28.205 9.666c-1.436 0-2.729-.314-3.877-.943a7.069 7.069 0 01-2.72-2.719c-.646-1.167-.969-2.513-.969-4.039 0-1.525.332-2.871.996-4.038A7.014 7.014 0 0164 7.057c1.167-.647 2.468-.97 3.904-.97s2.737.324 3.904.97a6.833 6.833 0 012.746 2.692c.682 1.167 1.023 2.513 1.023 4.038 0 1.526-.35 2.872-1.05 4.039a7.154 7.154 0 01-2.8 2.72c-1.166.628-2.477.942-3.93.942zm0-3.285a3.93 3.93 0 001.911-.485c.61-.34 1.095-.843 1.454-1.507.359-.664.538-1.472.538-2.423 0-1.418-.376-2.504-1.13-3.258-.736-.772-1.643-1.158-2.72-1.158-1.076 0-1.983.386-2.719 1.158-.718.754-1.077 1.84-1.077 3.258s.35 2.512 1.05 3.284c.718.754 1.616 1.13 2.693 1.13zM96.866 6.114c1.83 0 3.302.566 4.415 1.697 1.131 1.112 1.696 2.674 1.696 4.684v8.75h-3.769v-8.238c0-1.167-.296-2.055-.888-2.666-.593-.628-1.4-.942-2.424-.942-1.023 0-1.84.314-2.45.942-.592.61-.888 1.499-.888 2.666v8.238h-3.77v-8.238c0-1.167-.295-2.055-.888-2.666-.592-.628-1.4-.942-2.423-.942-1.041 0-1.867.314-2.477.942-.592.61-.888 1.499-.888 2.666v8.238h-3.77V6.33h3.77v1.804a5.043 5.043 0 011.857-1.481 5.927 5.927 0 012.531-.539c1.167 0 2.208.252 3.123.754a5.104 5.104 0 012.127 2.1c.485-.861 1.185-1.552 2.1-2.073a6.092 6.092 0 013.016-.78zm13.457 2.37c.485-.682 1.149-1.248 1.993-1.697.861-.466 1.839-.7 2.934-.7 1.275 0 2.423.315 3.446.943 1.042.628 1.858 1.525 2.451 2.692.61 1.149.915 2.486.915 4.012 0 1.525-.305 2.88-.915 4.065-.593 1.167-1.409 2.073-2.451 2.72-1.023.646-2.171.969-3.446.969-1.095 0-2.064-.225-2.907-.674-.826-.448-1.499-1.014-2.02-1.696v9.235h-3.769V6.33h3.769v2.154zm7.889 5.25c0-.898-.189-1.67-.566-2.316-.358-.664-.843-1.166-1.453-1.507a3.821 3.821 0 00-1.939-.512 3.77 3.77 0 00-1.938.538c-.593.341-1.077.844-1.454 1.508-.359.664-.539 1.445-.539 2.342 0 .898.18 1.679.539 2.343.377.664.861 1.175 1.454 1.535.61.34 1.256.511 1.938.511.7 0 1.346-.18 1.939-.538a3.862 3.862 0 001.453-1.535c.377-.664.566-1.454.566-2.37zm5.62 0c0-1.508.296-2.845.888-4.012.61-1.167 1.427-2.064 2.45-2.692 1.041-.628 2.199-.943 3.473-.943 1.113 0 2.082.225 2.908.674.844.448 1.517 1.014 2.019 1.696V6.33h3.796v14.915h-3.796v-2.18c-.484.7-1.157 1.283-2.019 1.75-.844.448-1.822.673-2.935.673a6.406 6.406 0 01-3.446-.97c-1.023-.646-1.84-1.552-2.45-2.719-.592-1.184-.888-2.54-.888-4.065zm11.738.053c0-.915-.179-1.696-.538-2.342-.359-.664-.844-1.167-1.454-1.508a3.81 3.81 0 00-1.965-.538c-.7 0-1.347.17-1.939.512-.592.34-1.077.843-1.454 1.507-.359.646-.538 1.418-.538 2.316 0 .897.179 1.687.538 2.369.377.664.862 1.176 1.454 1.534.61.36 1.257.539 1.939.539.7 0 1.355-.17 1.965-.511a3.92 3.92 0 001.454-1.508c.359-.664.538-1.454.538-2.37zm15.743-7.673c1.777 0 3.213.566 4.308 1.697 1.095 1.112 1.642 2.674 1.642 4.684v8.75h-3.769v-8.238c0-1.185-.296-2.091-.888-2.72-.593-.646-1.4-.969-2.423-.969-1.042 0-1.867.323-2.477.97-.593.628-.889 1.534-.889 2.719v8.238h-3.769V6.33h3.769v1.857a5.114 5.114 0 011.912-1.507 5.918 5.918 0 012.584-.566zm23.804.216l-9.235 21.97h-4.011l3.231-7.432-5.977-14.538h4.227l3.85 10.42 3.904-10.42h4.011zM11.332 28.154C5.577 28.154.93 23.472.93 17.752c0-5.719 4.647-10.401 10.402-10.401 5.72 0 10.402 4.647 10.402 10.401-.036 5.72-4.683 10.402-10.402 10.402z" fill="#343434"/><path d="M26.75.702H12.965c-.902 0-1.633.732-1.633 1.633V16.12c0 .902.731 1.633 1.633 1.633H26.75c.901 0 1.633-.731 1.633-1.633V2.335c0-.901-.732-1.633-1.633-1.633z" fill="#626262"/></svg>