<svg width="170" height="29" fill="none" xmlns="http://www.w3.org/2000/svg"><path d="M59.27 15.57c-1.229 1.994-2.977 3.14-5.243 3.14-3.277 0-5.68-2.648-5.68-6.062 0-3.413 2.294-6.035 5.735-6.035A5.824 5.824 0 0159.215 9.7l3.168-2.512C60.772 4.321 57.85 2.6 54.136 2.6c-5.953 0-10.131 4.424-10.131 10.05 0 5.625 4.26 10.076 10.077 10.076a9.732 9.732 0 008.383-4.697L59.27 15.57zm11.87-7.51c-4.37 0-7.51 3.168-7.51 7.32 0 4.123 3.14 7.345 7.51 7.345 4.369 0 7.51-3.222 7.51-7.346 0-4.15-3.141-7.318-7.51-7.318zm0 3.687c1.884 0 3.304 1.448 3.304 3.632 0 2.185-1.42 3.66-3.304 3.66-1.885 0-3.305-1.475-3.305-3.66 0-2.184 1.42-3.632 3.305-3.632zm10.222-3.359v14.01h4.151v-7.292c0-1.83.956-3.386 2.704-3.386 1.53 0 2.512.956 2.512 2.785v7.892h4.151v-7.29c0-1.83.956-3.387 2.704-3.387 1.529 0 2.485.956 2.485 2.785v7.892h4.15v-8.52c0-3.632-2.048-5.816-5.407-5.816-2.376 0-3.714 1.037-4.724 2.457-.956-1.556-2.485-2.457-4.642-2.457-1.83 0-3.195.71-4.096 2.13V8.388h-3.987zm33.748 3.332c1.775 0 3.249 1.447 3.249 3.714 0 2.185-1.474 3.632-3.249 3.632-1.857 0-3.305-1.42-3.305-3.632 0-2.294 1.448-3.714 3.305-3.714zm-3.496-3.332h-3.85V27.86h4.151v-6.99c.874 1.31 2.539 1.856 4.041 1.856 3.823 0 6.581-3.168 6.581-7.346 0-4.314-2.976-7.318-6.553-7.318-1.366 0-3.277.573-4.37 2.266v-1.94zm20.908 5.298l-3.823.738c-2.949.628-4.561 2.048-4.561 4.123 0 2.43 1.912 4.178 4.643 4.178 1.857 0 3.222-.82 3.878-2.048v1.72h3.85v-8.82c0-3.414-2.321-5.516-6.226-5.516-2.622 0-4.725 1.092-6.008 2.649l2.157 2.621c.847-.956 2.048-1.693 3.605-1.693 1.42 0 2.485.546 2.485 1.939v.11zm-2.813 5.953c-.983 0-1.611-.546-1.611-1.338 0-.764.546-1.256 1.666-1.447l2.785-.546v.41c0 1.665-1.119 2.921-2.84 2.921zm10.296-11.251v14.01h4.151v-7.292c0-1.83.956-3.386 2.758-3.386 1.53 0 2.513.956 2.513 2.785v7.892h4.151v-8.52c0-3.632-2.076-5.816-5.435-5.816-1.884 0-3.249.71-4.151 2.13V8.388h-3.987zm20.35 13.491l-.164.464c-.601 1.993-1.611 2.348-2.703 2.348-.465 0-1.175-.054-1.912-.464v3.44c.628.301 1.529.52 2.512.52 2.649 0 4.342-1.256 5.735-4.643l6.117-15.156h-4.233l-3.277 9.176-3.249-9.176h-4.342l5.516 13.49zM19.308.702h-4.4a.803.803 0 00-.803.804V24.75c0 .444.36.803.803.803h4.4c.444 0 .803-.36.803-.803V1.506a.803.803 0 00-.803-.804z" fill="#343434"/><path d="M28.17 25.553a5.105 5.105 0 100-10.21 5.105 5.105 0 000 10.21zm0-14.64a5.105 5.105 0 100-10.21 5.105 5.105 0 000 10.21zM6.047 25.553a5.105 5.105 0 100-10.21 5.105 5.105 0 000 10.21z" fill="#626262"/></svg>