<svg xmlns="http://www.w3.org/2000/svg" width="160" height="64"><path fill="#748FB5" d="M27.617 40.524c4.122 0 7.674-2.104 7.674-5.799 0-8.186-11.483-4.264-11.483-10.374 0-1.62 1.052-2.928 3.212-2.928 4.149 0 3.098 5.06 6.167 5.06 1.223 0 1.819-.682 1.819-1.762.028-2.359-3.126-4.918-7.902-4.918-4.69 0-7.532 2.502-7.532 5.912.029 8.413 11.512 4.264 11.512 10.318 0 1.733-1.308 2.87-3.297 2.87-4.803 0-4.036-5.173-6.878-5.229-1.165 0-1.706.738-1.706 1.733.001 2.276 3.014 5.117 8.414 5.117zm22.003-3.183V26.938c0-.483-.341-.598-1.08-.512l-3.639.539c-.341.058-.568.313-.568.598v.085c0 .626 1.137.909 1.137 2.16v5.771c0 2.018-1.08 3.325-2.445 3.325-1.563 0-2.359-1.222-2.359-3.866l.085-8.1c0-.483-.427-.598-1.166-.512l-3.582.539c-.369.058-.597.313-.597.598v.085c0 .626 1.108.909 1.108 2.16v4.804c0 3.895 2.359 5.912 5.287 5.912 1.961 0 3.354-.711 4.122-1.961.085 1.393.91 1.848 2.53 1.848 1.592 0 2.529-.171 2.529-.824.002-1.053-1.362 0-1.362-2.246zm13.926-10.744c-2.898 0-3.837-.284-5.656-.284-3.979 0-6.736 2.416-6.736 5.97 0 3.24 2.843 5.627 6.651 5.627.37 0 .739-.028 1.108-.057 1.108.228 1.762 1.193 1.762 2.615 0 1.592-1.107 2.672-2.87 2.672-3.326-.057-2.7-4.32-5.031-4.32-1.166 0-1.677.795-1.677 1.592 0 2.217 2.444 3.922 6.623 3.922 4.035 0 7.134-1.563 7.134-3.979 0-1.507-.881-2.672-3.411-3.24 1.962-.938 3.184-2.701 3.184-4.946 0-1.364-.682-2.7-1.592-3.638.881-.256 1.961-.143 2.16-1.08.171-.513-.113-.854-1.649-.854zm-8.384 3.808c0-1.733.796-2.842 2.104-2.842 1.99 0 3.326 3.496 3.326 6.225 0 1.677-.797 2.842-2.16 2.842-1.792 0-3.27-3.211-3.27-6.225zm23.332 6.992l-.625-5.258c-.399-3.582-2.9-5.827-6.594-5.827-2.957 0-5.458 1.194-5.458 3.24 0 .967.683 1.592 1.706 1.592 2.131 0 1.478-3.638 3.752-3.638 1.733 0 2.188 1.592 2.529 4.917l.028.341c-.739-.512-1.791-.853-3.099-.853-2.785 0-5.173 1.478-5.145 4.32 0 2.843 2.273 4.292 5.344 4.292 1.961 0 3.155-.711 3.78-1.648.171 1.223.909 1.535 2.53 1.535 1.364 0 2.729-.171 2.729-.824.002-.767-1.25-.227-1.477-2.189zm-6.311 1.877c-1.449 0-2.387-1.734-2.387-3.695 0-1.45.881-2.388 2.074-2.388 1.166 0 2.076.853 2.246 2.529l.086.995c.085 1.28-.71 2.559-2.019 2.559zm16.235-12.961c-1.904 0-3.24.995-3.865 2.813v-2.131c0-.54-.256-.881-.91-.568l-3.41 1.592c-.371.17-.598.397-.598.682v.113c0 .711 1.307.797 1.307 2.047v6.651c0 1.194-1.107 1.421-1.107 2.132v.113c0 .313.256.483.654.483h5.258c.369 0 .625-.171.625-.483v-.113c0-.711-1.42-.938-1.42-2.132v-5.685c0-1.563.396-3.127 1.506-3.127 1.535 0 .539 2.444 2.758 2.444 1.363 0 1.818-1.052 1.818-2.245-.001-1.449-.938-2.586-2.616-2.586zm9.234 14.211c3.695 0 5.629-2.303 5.799-4.633.055-.625-.654-.739-.996-.284-.596 1.022-1.676 1.989-3.41 1.989-2.898 0-4.832-2.473-4.832-6.253 0-2.104 1.023-3.78 2.643-3.78 2.475-.028 2.303 4.008 4.748 4.15 1.307.057 1.762-.683 1.762-1.422 0-2.217-2.615-4.008-5.885-3.979-3.836.028-7.162 2.7-7.162 7.077-.001 3.839 3.04 7.135 7.333 7.135zm19.039-3.127l-.625-5.258c-.398-3.582-2.898-5.827-6.594-5.827-2.955 0-5.457 1.194-5.457 3.24 0 .967.682 1.592 1.705 1.592 2.131 0 1.479-3.638 3.752-3.638 1.734 0 2.188 1.592 2.529 4.917l.029.341c-.74-.512-1.791-.853-3.098-.853-2.787 0-5.174 1.478-5.146 4.32 0 2.843 2.275 4.292 5.344 4.292 1.961 0 3.154-.711 3.781-1.648.17 1.223.91 1.535 2.529 1.535 1.365 0 2.729-.171 2.729-.824.001-.767-1.249-.227-1.478-2.189zm-6.31 1.877c-1.447 0-2.387-1.734-2.387-3.695 0-1.45.881-2.388 2.076-2.388 1.164 0 2.074.853 2.244 2.529l.086.995c.084 1.28-.711 2.559-2.019 2.559zm22.316-1.791l-.34-5.116c-.342-4.52-2.842-6.055-5.43-6.055-1.932 0-3.439.853-4.205 2.303v-1.592c0-.54-.313-.938-.969-.597l-3.381 1.648c-.342.17-.568.313-.568.597v.114c0 .71 1.393.824 1.393 2.103v6.623c0 1.222-1.223 1.449-1.223 2.16v.113c0 .284.256.483.652.483h5.289c.396 0 .652-.199.652-.483v-.113c0-.711-1.221-.938-1.221-2.16V31.06c0-1.848.881-3.127 2.416-3.127 1.506 0 2.332 1.251 2.473 4.292l.283 5.259c.057 1.25-1.023 1.478-1.023 2.188v.113c0 .284.256.483.654.483h4.918c.396 0 .654-.199.654-.483v-.113c.002-.711-.938-.939-1.024-2.189zm12.75-1.563c-.539.881-1.734 1.648-3.24 1.648-1.705 0-3.012-.909-3.752-2.473l6.311-2.871c.768-.341 1.25-.909 1.25-1.876 0-1.876-1.646-4.036-5.371-4.036s-6.879 2.871-6.879 6.992c0 4.378 2.928 7.22 6.879 7.22 3.666 0 5.6-2.644 5.77-4.292.028-.596-.626-.739-.968-.312zm-5.314-8.357c1.535 0 2.273 2.018 2.273 3.041 0 .598-.227 1.08-.738 1.336L138 33.788c-.197-.738-.283-1.563-.283-2.444 0-2.16.91-3.781 2.416-3.781z"/></svg>