<svg xmlns="http://www.w3.org/2000/svg" viewBox="0 0 183 28"><path d="M53.4 22.6c-2 0-3.8-.4-5.3-1.3s-2.8-2.1-3.7-3.7c-.9-1.6-1.3-3.4-1.3-5.4 0-2 .4-3.8 1.3-5.4.9-1.6 2.1-2.8 3.7-3.7 1.5-.9 3.3-1.3 5.3-1.3 2.5 0 4.6.7 6.4 2 1.7 1.3 2.8 3.1 3.3 5.4h-5.4c-.3-1-.8-1.7-1.6-2.2-.8-.6-1.7-.8-2.7-.8-1.4 0-2.6.5-3.6 1.6s-1.5 2.5-1.5 4.4c0 1.9.5 3.4 1.5 4.4 1 1.1 2.2 1.6 3.6 1.6 1.1 0 2-.3 2.7-.8.8-.5 1.3-1.3 1.6-2.3h5.4c-.5 2.2-1.6 4-3.3 5.4-1.8 1.4-3.9 2.1-6.4 2.1zM74 21.2c-1.5 0-2.8-.3-4-1-1.2-.7-2.1-1.6-2.8-2.8-.7-1.2-1-2.6-1-4.2s.3-3 1-4.2c.7-1.2 1.6-2.2 2.8-2.8 1.2-.7 2.5-1 4-1s2.8.3 3.9 1c1.2.7 2.1 1.6 2.8 2.8.7 1.2 1 2.6 1 4.2s-.3 3-1 4.2c-.7 1.2-1.6 2.1-2.8 2.8-1.1.7-2.5 1-3.9 1zm0-3.4c1 0 1.9-.4 2.7-1.1.8-.8 1.1-1.9 1.1-3.4s-.4-2.7-1.1-3.4C75.9 9 75 8.7 74 8.7c-1 0-1.9.4-2.7 1.2-.7.8-1.1 1.9-1.1 3.4s.4 2.7 1.1 3.4c.8.7 1.7 1.1 2.7 1.1zm10.7 3.1V5.6h3.5l.3 2.1c.5-.7 1.1-1.3 1.9-1.8.8-.5 1.8-.7 2.8-.7 2.4 0 4 .9 5 2.7.6-.8 1.3-1.5 2.2-2 .9-.5 2-.7 3.1-.7 2 0 3.5.6 4.6 1.8 1.1 1.2 1.6 2.9 1.6 5.2v8.6h-3.9v-8.2c0-1.3-.3-2.3-.8-3-.5-.7-1.3-1-2.3-1-1.1 0-1.9.4-2.6 1.2-.6.8-1 1.9-1 3.3V21h-3.9v-8.2c0-1.3-.3-2.3-.8-3-.5-.7-1.3-1-2.4-1-1 0-1.9.4-2.6 1.2-.6.8-1 1.9-1 3.3v7.9h-3.7zm28.2 6.7v-22h3.5l.4 2.2c.5-.7 1.1-1.3 1.9-1.8.8-.5 1.9-.8 3.2-.8 1.4 0 2.7.3 3.8 1 1.1.7 2 1.7 2.7 2.9.7 1.2 1 2.6 1 4.1 0 1.5-.3 2.9-1 4.1-.7 1.2-1.5 2.1-2.7 2.8-1.1.7-2.4 1-3.8 1-1.1 0-2.2-.2-3-.6-.9-.4-1.6-1-2.1-1.8v8.9h-3.9zm8.3-9.8c1.3 0 2.3-.4 3.1-1.3.8-.8 1.2-1.9 1.2-3.3 0-1.3-.4-2.4-1.2-3.3-.8-.9-1.9-1.3-3.1-1.3-1.3 0-2.3.4-3.1 1.3-.8.8-1.2 1.9-1.2 3.3 0 1.3.4 2.4 1.2 3.3.7.9 1.8 1.3 3.1 1.3zm16.5 3.4c-1.3 0-2.4-.2-3.2-.6-.8-.4-1.5-1-1.9-1.7-.4-.7-.6-1.5-.6-2.3 0-1.4.6-2.6 1.7-3.4 1.1-.9 2.8-1.3 5-1.3h3.9v-.4c0-1-.3-1.8-.9-2.3-.6-.5-1.3-.7-2.2-.7-.8 0-1.5.2-2.1.6-.6.4-1 .9-1.1 1.7h-3.8c.1-1.1.5-2.1 1.1-2.9.7-.8 1.5-1.4 2.5-1.9s2.2-.7 3.4-.7c2.2 0 3.9.5 5.1 1.6 1.3 1.1 1.9 2.6 1.9 4.6v9.4H143l-.4-2.5c-.5.8-1.1 1.5-1.9 2-.7.6-1.8.8-3 .8zm.9-3c1.1 0 2-.4 2.6-1.1.6-.7 1-1.7 1.2-2.7H139c-1 0-1.8.2-2.2.6-.5.4-.7.8-.7 1.4 0 .6.2 1.1.7 1.4.4.2 1 .4 1.8.4zm10.9 2.7V5.6h3.5l.3 2.6c.5-.9 1.1-1.6 2-2.2.9-.5 2-.8 3.2-.8 1.9 0 3.4.6 4.4 1.8 1 1.2 1.6 2.9 1.6 5.2v8.6h-3.9v-8.2c0-1.3-.3-2.3-.8-3-.5-.7-1.4-1-2.5-1s-2 .4-2.7 1.2c-.7.8-1 1.9-1 3.3V21h-4.1zm19.6 6.7l3.5-7.8h-.9l-5.9-14.3h4.3l4.3 10.7 4.5-10.7h4.2l-9.7 22h-4.3z" fill="#343434"/><path d="M14.4 25c-1 1-2.6 1-3.6 0L.9 15c-1-1-1-2.6 0-3.6l9.9-9.9c1-1 2.6-1 3.6 0l10 9.9c1 1 1 2.6 0 3.6l-10 10z" fill="#626262"/><path d="M26.9 20.4c-1 1-2.6 1-3.6 0l-10-10c-1-1-1-2.6 0-3.6l10-9.9c1-1 2.6-1 3.6 0l9.9 9.9c1 1 1 2.6 0 3.6l-9.9 10z" fill="#cacaca"/><path d="M26.9 30.9c-1 1-2.6 1-3.6 0l-10-10c-1-1-1-2.6 0-3.6l10-9.9c1-1 2.6-1 3.6 0l9.9 9.9c1 1 1 2.6 0 3.6l-9.9 10z" fill="#aaa"/></svg>