<svg xmlns="http://www.w3.org/2000/svg" width="38" height="44" viewBox="0 0 38 44">
  <defs>
    <style>
      .cls-1 {
        fill-rule: evenodd;
      }
    </style>
  </defs>
  <path id="Add_location" data-name="Add location" class="cls-1" d="M648.121,1509.88l-2-2a3,3,0,0,0-4.243,0l-2.259,2.26A18.335,18.335,0,0,0,629.5,1507c-9.857,0-18.5,8.41-18.5,18a19.524,19.524,0,0,0,2.438,8.34,2.329,2.329,0,0,0,.144.25c0.107,0.17,2.671,4.14,5.662,8.18,5.716,7.72,8.09,9.23,10.259,9.23s4.56-1.51,10.27-9.23c2.988-4.04,5.545-8.02,5.653-8.18a2.318,2.318,0,0,0,.142-0.25A19.524,19.524,0,0,0,648,1525a16.9,16.9,0,0,0-2.327-8.43l2.449-2.45A3,3,0,0,0,648.121,1509.88ZM645,1525a16.668,16.668,0,0,1-2.1,6.97S632.584,1548,629.5,1548c-3.061,0-13.4-16.03-13.4-16.03A16.653,16.653,0,0,1,614,1525c0-8.01,7.226-15,15.5-15a15.291,15.291,0,0,1,7.963,2.3l-7.584,7.58A2.984,2.984,0,0,0,629,1522v2a3,3,0,0,0,3,3h2a3.013,3.013,0,0,0,2.121-.88l7.353-7.35A13.849,13.849,0,0,1,645,1525Zm-11-1-2-2,12-12,2,2Z" transform="translate(-611 -1507)"/>
</svg>
