<svg xmlns="http://www.w3.org/2000/svg" width="37" height="40" viewBox="0 0 37 40">
  <defs>
    <style>
      .cls-1 {
        fill-rule: evenodd;
      }
    </style>
  </defs>
  <path id="Add_document" data-name="Add document" class="cls-1" d="M555,1884.14V1875a4.965,4.965,0,0,0-.713-2.57,2.723,2.723,0,0,0-.274-0.39l-6.6-7.86a5.033,5.033,0,0,0-4.13-2.18H528a5,5,0,0,0-5,5v28a5,5,0,0,0,5,5h16.691A9.491,9.491,0,1,0,555,1884.14ZM526,1895v-28a2,2,0,0,1,2-2h15.285a2,2,0,0,1,1.715.97l6.715,8A2,2,0,0,1,552,1875v8.13a9.275,9.275,0,0,0-1.5-.13,9.5,9.5,0,0,0-8.364,14H528A2,2,0,0,1,526,1895Zm24.5,4a6.5,6.5,0,1,1,6.5-6.5A6.5,6.5,0,0,1,550.5,1899Zm3-8H552v-1.5a1.5,1.5,0,0,0-3,0v1.5h-1.5a1.5,1.5,0,0,0,0,3H549v1.5a1.5,1.5,0,0,0,3,0V1894h1.5A1.5,1.5,0,0,0,553.5,1891Z" transform="translate(-523 -1862)"/>
</svg>
