<svg xmlns="http://www.w3.org/2000/svg" width="38.281" height="38" viewBox="0 0 38.281 38">
  <defs>
    <style>
      .cls-1 {
        fill-rule: evenodd;
      }
    </style>
  </defs>
  <path id="Ain" class="cls-1" d="M717.126,2318a6.023,6.023,0,0,0-4.284,1.76,5.952,5.952,0,0,0,0,8.48,6.1,6.1,0,0,0,8.569,0,5.954,5.954,0,0,0,0-8.48A6.025,6.025,0,0,0,717.126,2318Zm2.142,8.12a3.047,3.047,0,0,1-4.284,0,2.976,2.976,0,0,1,0-4.24,3.047,3.047,0,0,1,4.284,0A2.975,2.975,0,0,1,719.268,2326.12Zm12.1,10.57a18.851,18.851,0,0,0,0-25.38l1.465-1.45a1.487,1.487,0,0,0,0-2.12,1.517,1.517,0,0,0-2.142,0l-1.506,1.49a19.277,19.277,0,0,0-24.88.66l-2.178-2.15a1.517,1.517,0,0,0-2.142,0,1.489,1.489,0,0,0,0,2.12l2.22,2.2a19.044,19.044,0,0,0,0,23.88l-1.506,1.5a1.489,1.489,0,0,0,0,2.12,1.523,1.523,0,0,0,2.142,0l1.463-1.45a19.279,19.279,0,0,0,24.881.66l0.792,0.79a1.523,1.523,0,0,0,2.142,0,1.487,1.487,0,0,0,0-2.12Zm-2.142-2.12-2.141-2.12a13.716,13.716,0,0,0,0-16.9l2.141-2.12A15.855,15.855,0,0,1,729.229,2334.57Zm-5.676-3.5a1.488,1.488,0,0,0-.423.96,10.152,10.152,0,0,1-13.145-.96,9.93,9.93,0,0,1,0-14.14,10.167,10.167,0,0,1,14.282,0,9.921,9.921,0,0,1,.394,13.71A1.518,1.518,0,0,0,723.553,2331.07ZM717.126,2308a16.2,16.2,0,0,1,9.9,3.37l-2.164,2.14a13.18,13.18,0,0,0-16.276.63c-0.012-.01-0.016-0.03-0.028-0.04l-2.106-2.09A16.211,16.211,0,0,1,717.126,2308Zm-12.754,6.2,2.043,2.02a0.939,0.939,0,0,0,.142.09,12.915,12.915,0,0,0-.02,15.35l-2.165,2.14A15.86,15.86,0,0,1,704.372,2314.2Zm12.754,25.8a16.211,16.211,0,0,1-10.675-4.01l2.141-2.13a13.17,13.17,0,0,0,16.269.63l2.164,2.14A16.2,16.2,0,0,1,717.126,2340Z" transform="translate(-698 -2305)"/>
</svg>
