<svg xmlns="http://www.w3.org/2000/svg" width="36.906" height="32" viewBox="0 0 36.906 32">
  <defs>
    <style>
      .cls-1 {
        fill-rule: evenodd;
      }
    </style>
  </defs>
  <path id="Arrow_left" data-name="Arrow left" class="cls-1" d="M882,1956v5h6.675s8.039,1,12.083,5c3.645,3.61,4.242,16,4.242,16s-0.209-15-16.385-15H882v5l-8.034-8,7.818-8m0-3a3.553,3.553,0,0,0-2.448.95l-7.583,8a2.972,2.972,0,0,0,.144,4.24l8.582,8a3.048,3.048,0,0,0,2.07.81,3.01,3.01,0,0,0,1.208-.25c1.108-.47,1.243-1.56,1.243-2.75v-2h3.615c13.186,0,13.127,11.7,13.16,12.2a3.022,3.022,0,0,0,3.024,2.8h0.152a3.018,3.018,0,0,0,2.882-3.1c-0.073-2.26-.653-13.79-4.931-18.02-4.661-4.61-12.849-5.75-13.891-5.86-0.111-.01-0.223-0.02-0.336-0.02H885v-2a3.113,3.113,0,0,0-2.075-2.79,3.23,3.23,0,0,0-1.141-.21h0Z" transform="translate(-870.938 -1953)"/>
</svg>
