<svg xmlns="http://www.w3.org/2000/svg" width="29" height="33" viewBox="0 0 29 33">
  <defs>
    <style>
      .cls-1 {
        fill-rule: evenodd;
      }
    </style>
  </defs>
  <path id="Arrows" class="cls-1" d="M360.679,1632.96a1.479,1.479,0,0,0,1.323-.39l5.467-6.33a1.54,1.54,0,0,0,.041-2.15,1.471,1.471,0,0,0-2.11-.05l-3.415,3.81v-22.36a1.506,1.506,0,0,0-1.518-1.49c-0.839,0-1.467,1.19-1.467,2.02v22.06l-3.4-4.23a1.479,1.479,0,0,0-2.109-.08,1.537,1.537,0,0,0-.48,1.12,1.522,1.522,0,0,0,.4,1.03l5.97,6.59A1.477,1.477,0,0,0,360.679,1632.96Zm13.612-32.92a1.488,1.488,0,0,0-1.328.39l-5.493,6.36a1.537,1.537,0,0,0-.041,2.15,1.48,1.48,0,0,0,2.118.05l3.432-3.82v22.43a1.525,1.525,0,0,0,3.049,0v-22.66l3.365,4.24a1.488,1.488,0,0,0,2.117.08,1.532,1.532,0,0,0,.482-1.12,1.562,1.562,0,0,0-.4-1.04l-5.993-6.61A1.487,1.487,0,0,0,374.291,1600.04Z" transform="translate(-353 -1600)"/>
</svg>
