<svg xmlns="http://www.w3.org/2000/svg" width="28" height="27" viewBox="0 0 28 27">
  <defs>
    <style>
      .cls-1 {
        fill-rule: evenodd;
      }
    </style>
  </defs>
  <path id="Arrow_left" data-name="Arrow left" class="cls-1" d="M705.438,1960.61l4.24-4.19a1.528,1.528,0,0,1,2.12,0,1.474,1.474,0,0,1,0,2.1L710,1960h16c4.134,0,6.987,3.61,6.987,7.69v13.81a1.493,1.493,0,1,1-2.985,0l-0.014-13.81c0-2.45-1.508-4.69-3.988-4.69H710l1.8,1.8a1.462,1.462,0,0,1,0,2.09,1.5,1.5,0,0,1-2.12,0l-4.24-4.18A1.474,1.474,0,0,1,705.438,1960.61Z" transform="translate(-705 -1956)"/>
</svg>
