<svg xmlns="http://www.w3.org/2000/svg" width="37" height="32" viewBox="0 0 37 32">
  <defs>
    <style>
      .cls-1 {
        fill-rule: evenodd;
      }
    </style>
  </defs>
  <path id="Arrow_right" data-name="Arrow right" class="cls-1" d="M814.909,1956v5h-6.692s-8.059,1-12.113,5c-4.7,4.89-4.054,16-4.054,16s0.011-15,16.228-15h6.631v5l8.055-8-7.838-8m0-3a3.566,3.566,0,0,1,2.454.95l7.6,8a2.966,2.966,0,0,1-.143,4.24l-8.605,8a3.063,3.063,0,0,1-3.287.56c-1.11-.47-1.245-1.56-1.245-2.75v-2h-3.624c-13.22,0-13.161,11.7-13.194,12.2a3.026,3.026,0,0,1-3.032,2.8H791.9a3.02,3.02,0,0,1-2.889-3.1c0.073-2.26-.723-12.75,4.943-18.02,4.673-4.61,12.882-5.75,13.927-5.86,0.111-.01.224-0.02,0.336-0.02H811.9v-2a3.114,3.114,0,0,1,2.08-2.79,3.246,3.246,0,0,1,1.144-.21h0Z" transform="translate(-789 -1953)"/>
</svg>
