<svg xmlns="http://www.w3.org/2000/svg" width="42" height="44" viewBox="0 0 42 44">
  <defs>
    <style>
      .cls-1 {
        fill-rule: evenodd;
      }
    </style>
  </defs>
  <path id="Backpack" class="cls-1" d="M648,3492h-3v-14a2.979,2.979,0,0,0,3-3v-5a2.954,2.954,0,0,0-3-3h-7v-1.36a1.505,1.505,0,1,0-3,0V3467H625v-1.36a1.505,1.505,0,1,0-3,0V3467h-7a2.954,2.954,0,0,0-3,3v5a2.979,2.979,0,0,0,3,3v14h-3a2.979,2.979,0,0,0-3,3v7.9a3.03,3.03,0,0,0,3,3.06h3c0.061,0,.118-0.02.178-0.02a3,3,0,0,0,2.822,2.05h24a3,3,0,0,0,2.822-2.05c0.06,0,.117.02,0.178,0.02h3a3.03,3.03,0,0,0,3-3.06V3495A2.979,2.979,0,0,0,648,3492Zm-6,2h-4v-4a2.966,2.966,0,0,0,3-3v-3a2.966,2.966,0,0,0-3-3v-3h4v16Zm-17-10v3h-3v-3h3Zm0,6a2.979,2.979,0,0,0,3-3v-3a2.979,2.979,0,0,0-3-3v-3h10v3a2.966,2.966,0,0,0-3,3v3a2.966,2.966,0,0,0,3,3v4H625v-4Zm10-3v-3h3v3h-3Zm10-17v5h-7v-5h7Zm-10,0v5H625v-5h10Zm-20,0h7v5h-7v-5Zm7,8v3a2.979,2.979,0,0,0-3,3v3a2.979,2.979,0,0,0,3,3v4h-4v-16h4Zm-10,25v-8h3v8h-3Zm6,2v-8h4v8h-4Zm7,0v-8h10v8H625Zm17,0h-4v-8h4v8Zm6-2h-3v-8h3v8Z" transform="translate(-609 -3464)"/>
</svg>
