<svg xmlns="http://www.w3.org/2000/svg" width="38" height="45.12" viewBox="0 0 38 45.12">
  <defs>
    <style>
      .cls-1 {
        fill-rule: evenodd;
      }
    </style>
  </defs>
  <path id="Bag" class="cls-1" d="M382,2310h-6c-0.754-4.66-5.289-9.13-10-9.13s-9.246,4.47-10,9.13h-6a2.8,2.8,0,0,0-3,2.77v30.2a3.017,3.017,0,0,0,3,3.03h32a3.017,3.017,0,0,0,3-3.03v-30.2A2.8,2.8,0,0,0,382,2310Zm-16-6.1c3.013,0,6.25,3.12,7,6.1H359C359.75,2307.02,362.987,2303.9,366,2303.9Zm16,39.07H350V2313h6v2.52a1.5,1.5,0,1,0,3,0V2313h14v2.52a1.5,1.5,0,1,0,3,0V2313h6v29.97Z" transform="translate(-347 -2300.88)"/>
</svg>
