<svg xmlns="http://www.w3.org/2000/svg" width="43.563" height="44" viewBox="0 0 43.563 44">
  <defs>
    <style>
      .cls-1 {
        fill-rule: evenodd;
      }
    </style>
  </defs>
  <path id="Bank" class="cls-1" d="M737.112,2400.35l-18.8-10a2.905,2.905,0,0,0-2.765,0l-18.8,10a3,3,0,0,0,1.382,5.65h37.6A3,3,0,0,0,737.112,2400.35ZM698.127,2403l18.8-10,18.8,10h-37.6Zm37.6,28h-37.6a1.5,1.5,0,0,0,0,3h37.6A1.5,1.5,0,0,0,735.729,2431Zm0-20a1.5,1.5,0,0,0,0-3h-37.6a1.5,1.5,0,0,0,0,3h1.89v15h-1.89a1.5,1.5,0,0,0,0,3h37.6a1.5,1.5,0,0,0,0-3h-2.722v-15h2.722Zm-22.759,0H715v15h-2.03v-15ZM710,2426h-2v-15h2v15Zm8-15h1.982v15H718v-15Zm5,0h2v15h-2v-15Zm-20,0h2.009v15H703v-15Zm27,15h-2v-15h2v15Z" transform="translate(-695.156 -2390)"/>
</svg>
