<svg xmlns="http://www.w3.org/2000/svg" width="44" height="36" viewBox="0 0 44 36">
  <defs>
    <style>
      .cls-1 {
        fill-rule: evenodd;
      }
    </style>
  </defs>
  <path id="Bed" class="cls-1" d="M741,3662.99a3,3,0,0,0-3-3v-10.94a3.019,3.019,0,0,0-3-3.04H703a3.019,3.019,0,0,0-3,3.04v10.94a3,3,0,0,0-3,3v17.48a1.5,1.5,0,1,0,3,0V3678h38v2.47a1.5,1.5,0,1,0,3,0v-17.48Zm-38-13.94h32v10.94h-2v-4a3,3,0,0,0-3-3h-8a3,3,0,0,0-3,3v4h-1v-4a3,3,0,0,0-3-3h-8a3,3,0,0,0-3,3v4h-1v-10.94Zm27,10.94h-8v-4h8v4Zm-15,0h-8v-4h8v4Zm-15,3h38V3671H700v-8.01Zm0,12.01v-1h38v1H700Z" transform="translate(-697 -3646)"/>
</svg>
