<svg xmlns="http://www.w3.org/2000/svg" width="43.781" height="30" viewBox="0 0 43.781 30">
  <defs>
    <style>
      .cls-1 {
        fill-rule: evenodd;
      }
    </style>
  </defs>
  <path id="Bike" class="cls-1" d="M122.852,3751.95a3,3,0,0,0,.008-1.9c-1-3.03-3.839-4.24-6.037-4.73-0.05-.3-0.107-0.59-0.167-0.87a4.994,4.994,0,0,0-3.59-8.44,4.935,4.935,0,0,0-3.987-2.01h-0.036l-1.978.01A2.982,2.982,0,0,0,104.1,3737v0.18l-2.846-.8a1.5,1.5,0,0,0-.8,2.89l4,1.13a3.349,3.349,0,0,0,.307.47c1.573,1.99,3.327,4.99,3.327,6.13,0,1.94-1.3,4-1.992,4a1.613,1.613,0,0,1-.824-0.37,3.291,3.291,0,0,1-1.2-2.38,7.46,7.46,0,0,0-4.989-6.1,3.026,3.026,0,0,0-.944-0.15H92.157c-6.848,0-10.379,8.93-10.759,9.95a3,3,0,0,0,.646,3.13,2.968,2.968,0,0,0,2.151.92c0.027,0,.053-0.01.08-0.01a7.117,7.117,0,0,0-.08,1.01,6.956,6.956,0,0,0,12.692,3.98,2.031,2.031,0,0,0,.248.02h15.193A6.973,6.973,0,1,0,122.852,3751.95ZM91.162,3761a4,4,0,0,1,0-8c0.1,0,.2.02,0.306,0.03l-1.641,3.3a1.5,1.5,0,0,0,.668,2.01,1.455,1.455,0,0,0,.667.16,1.485,1.485,0,0,0,1.337-.83l1.643-3.3A3.986,3.986,0,0,1,91.162,3761Zm6.888-3a7.064,7.064,0,0,0,.079-1,6.957,6.957,0,0,0-12.324-4.47c-0.516.13-1.046,0.28-1.611,0.47a19.6,19.6,0,0,1,3.506-5.73,1.585,1.585,0,0,0-.023.23,1.5,1.5,0,0,0,1.493,1.5h7.963a1.5,1.5,0,0,0,0-3H89.185a5.3,5.3,0,0,1,2.972-1h5.972a4.532,4.532,0,0,1,2.964,3.56,6.243,6.243,0,0,0,2.442,4.51,4.4,4.4,0,0,0,2.556.93c2.986,0,4.978-4,4.978-7,0-2.24-2.215-5.59-3.34-7.14,0.011-.04.031-0.06,0.04-0.09a1.5,1.5,0,0,0-.681-1.69V3737h1.991a1.982,1.982,0,0,1,1.99,1.98V3739h1.991a2,2,0,0,1,0,4,12.184,12.184,0,0,1,1,5s4.011,0.01,5.548,2.18a7.341,7.341,0,0,0-1.567-.18,6.954,6.954,0,0,0-6.888,8H98.05Zm19.986,3a3.986,3.986,0,0,1-2.978-6.63l1.643,3.3a1.484,1.484,0,0,0,1.336.83,1.455,1.455,0,0,0,.667-0.16,1.5,1.5,0,0,0,.668-2.01l-1.641-3.3c0.1-.01.2-0.03,0.305-0.03A4,4,0,0,1,118.036,3761Z" transform="translate(-81.219 -3734)"/>
</svg>
