<svg xmlns="http://www.w3.org/2000/svg" width="37" height="39" viewBox="0 0 37 39">
  <defs>
    <style>
      .cls-1 {
        fill-rule: evenodd;
      }
    </style>
  </defs>
  <path id="Brain" class="cls-1" d="M825,1876.24a8.636,8.636,0,0,0-5.757-8.17c0.012-.15.018-0.29,0.018-0.44a5.657,5.657,0,0,0-5.8-5.63c-4.625,0-5.683,1.57-6.456,3-4.694-3.2-5.134-3-7.456-3a5.7,5.7,0,0,0-5.8,5.72c0,0.13,0,.27.014,0.4A2275.466,2275.466,0,0,1,788,1886.29a8.636,8.636,0,0,0,5.757,8.17c-0.012.15-.018,0.29-0.018,0.44a6.036,6.036,0,0,0,5.8,6.1,5.812,5.812,0,0,0,3.429-1.49c0.165-.13.891-0.42,1.027-0.51h4c0.136,0.09.863,0.38,1.027,0.51a9.314,9.314,0,0,0,4.429,1.49,5.962,5.962,0,0,0,5.8-5.95c0-.18-0.008-0.35-0.023-0.53a8.782,8.782,0,0,0,5.762-8.19A8.74,8.74,0,0,1,825,1876.24Zm-21.732,19.9a3.576,3.576,0,0,0-2.1.97,3.857,3.857,0,0,1-1.625.89,3.083,3.083,0,0,1-2.8-3.1,2.833,2.833,0,0,1,.189-1,0.507,0.507,0,0,0,.021-0.08,1.269,1.269,0,0,0,.052-0.2c0.008-.04.01-0.09,0.014-0.13s0.011-.08.011-0.12a0.159,0.159,0,0,1,.063-0.16c0.526-.46,2.332-0.59,3.694-0.41a1.5,1.5,0,0,0,.391-2.98c-0.692-.09-4.243-0.46-6.063,1.14a3.317,3.317,0,0,0-.522.59,5.618,5.618,0,0,1-2.117-9.03c0.839-.34,3.557-1.21,5.294.52a1.5,1.5,0,0,0,2.121,0,1.5,1.5,0,0,0,0-2.12c-2.623-2.62-6.089-2-7.856-1.43a5.595,5.595,0,0,1,3.077-8.63c1.371,1.81,4.443,2.54,5.082,2.67a1.109,1.109,0,0,0,.31.04,1.5,1.5,0,0,0,.307-2.97c-1.132-.24-2.976-0.95-3.35-1.62a0.155,0.155,0,0,1-.008-0.17,1.491,1.491,0,0,0-.618-1.76,2.748,2.748,0,0,1,2.713-2.05,4.471,4.471,0,0,1,3.643,1.59A11.954,11.954,0,0,0,805,1868v28Zm15.172-4.54a3.169,3.169,0,0,0-.551-0.64c-1.82-1.6-5.371-1.23-6.063-1.14a1.5,1.5,0,0,0,.391,2.98c1.145-.15,3.121-0.09,3.694.41a0.159,0.159,0,0,1,.063.16c0,0.03.007,0.05,0.008,0.08a1.451,1.451,0,0,0,.09.52,3.257,3.257,0,0,1,.189,1.08,2.918,2.918,0,0,1-2.8,2.95,3.866,3.866,0,0,1-1.626-.89,6.87,6.87,0,0,0-3.1-.97L808,1896v-28c1.7-1.34,1.812-3,5.456-3a2.692,2.692,0,0,1,2.751,2.1,1.486,1.486,0,0,0-.629,1.73,0.152,0.152,0,0,1-.011.17c-0.354.6-2.033,1.29-3.379,1.55a1.5,1.5,0,0,0,.277,2.97,1.357,1.357,0,0,0,.281-0.03c0.652-.12,3.829-0.81,5.2-2.66a5.616,5.616,0,0,1,4.054,5.41,5.674,5.674,0,0,1-1.027,3.25c-1.767-.57-5.237-1.19-7.86,1.43a1.5,1.5,0,0,0,0,2.12,1.5,1.5,0,0,0,2.121,0c1.729-1.73,4.435-.86,5.285-0.53a5.675,5.675,0,0,1,1.481,3.82A5.744,5.744,0,0,1,818.44,1891.6Z" transform="translate(-788 -1862)"/>
</svg>
