<svg xmlns="http://www.w3.org/2000/svg" width="38" height="41" viewBox="0 0 38 41">
  <defs>
    <style>
      .cls-1 {
        fill-rule: evenodd;
      }
    </style>
  </defs>
  <path id="Bus" class="cls-1" d="M554,3640H530a7.008,7.008,0,0,0-7,7v31a3,3,0,0,0,3,3h6a3.005,3.005,0,0,0,2.846-2.05l1.316-3.95h11.676l1.316,3.95A3.005,3.005,0,0,0,552,3681h6a3,3,0,0,0,3-3v-31A7.008,7.008,0,0,0,554,3640Zm-24,3h24a4,4,0,0,1,4,4v9H526v-9A4,4,0,0,1,530,3643Zm22,35-2-6H534l-2,6h-6v-19h32v19h-6Zm-18.5-17a4.5,4.5,0,1,0,4.5,4.5A4.506,4.506,0,0,0,533.5,3661Zm0,6a1.5,1.5,0,1,1,1.5-1.5A1.5,1.5,0,0,1,533.5,3667Zm17-6a4.5,4.5,0,1,0,4.5,4.5A4.506,4.506,0,0,0,550.5,3661Zm0,6a1.5,1.5,0,1,1,1.5-1.5A1.5,1.5,0,0,1,550.5,3667Z" transform="translate(-523 -3640)"/>
</svg>
