<svg xmlns="http://www.w3.org/2000/svg" width="38" height="46" viewBox="0 0 38 46">
  <defs>
    <style>
      .cls-1 {
        fill-rule: evenodd;
      }
    </style>
  </defs>
  <path id="Calculator" class="cls-1" d="M909,2301H877a3,3,0,0,0-3,3v40a3,3,0,0,0,3,3h32a3,3,0,0,0,3-3v-40A3,3,0,0,0,909,2301Zm0,43H877v-40h32v40Zm-27-30h22a3,3,0,0,0,3-3v-2a3,3,0,0,0-3-3H882a3,3,0,0,0-3,3v2A3,3,0,0,0,882,2314Zm0-5h22v2H882v-2Zm0,15h2a3,3,0,0,0,3-3v-2a3,3,0,0,0-3-3h-2a3,3,0,0,0-3,3v2A3,3,0,0,0,882,2324Zm0-5h2v2h-2v-2Zm12-3h-2a3,3,0,0,0-3,3v2a3,3,0,0,0,3,3h2a3,3,0,0,0,3-3v-2A3,3,0,0,0,894,2316Zm0,5h-2v-2h2v2Zm10-5h-2a3,3,0,0,0-3,3v2a3,3,0,0,0,3,3h2a3,3,0,0,0,3-3v-2A3,3,0,0,0,904,2316Zm0,5h-2v-2h2v2Zm-22,12h2a3,3,0,0,0,3-3v-2a3,3,0,0,0-3-3h-2a3,3,0,0,0-3,3v2A3,3,0,0,0,882,2333Zm0-5h2v2h-2v-2Zm12-3h-2a3,3,0,0,0-3,3v2a3,3,0,0,0,3,3h2a3,3,0,0,0,3-3v-2A3,3,0,0,0,894,2325Zm0,5h-2v-2h2v2Zm10-5h-2a3,3,0,0,0-3,3v2a3,3,0,0,0,3,3h2a3,3,0,0,0,3-3v-2A3,3,0,0,0,904,2325Zm0,5h-2v-2h2v2Zm-22,12h2a3,3,0,0,0,3-3v-2a3,3,0,0,0-3-3h-2a3,3,0,0,0-3,3v2A3,3,0,0,0,882,2342Zm0-5h2v2h-2v-2Zm12-3h-2a3,3,0,0,0-3,3v2a3,3,0,0,0,3,3h2a3,3,0,0,0,3-3v-2A3,3,0,0,0,894,2334Zm0,5h-2v-2h2v2Zm10-5h-2a3,3,0,0,0-3,3v2a3,3,0,0,0,3,3h2a3,3,0,0,0,3-3v-2A3,3,0,0,0,904,2334Zm0,5h-2v-2h2v2Z" transform="translate(-874 -2301)"/>
</svg>
