<svg xmlns="http://www.w3.org/2000/svg" width="44" height="30" viewBox="0 0 44 30">
  <defs>
    <style>
      .cls-1 {
        fill-rule: evenodd;
      }
    </style>
  </defs>
  <path id="Card" class="cls-1" d="M475,2315a7,7,0,0,0-7-7H438a7,7,0,0,0-7,7v16a7,7,0,0,0,7,7h30a7,7,0,0,0,7-7v-16Zm-37-4h30a4,4,0,0,1,4,4v3H434v-3A4,4,0,0,1,438,2311Zm30,24H438a4,4,0,0,1-4-4v-10h38v10A4,4,0,0,1,468,2335Zm-1.5-19a1.5,1.5,0,1,0-1.5-1.5A1.5,1.5,0,0,0,466.5,2316Zm-6,0a1.5,1.5,0,1,0-1.5-1.5A1.5,1.5,0,0,0,460.5,2316Zm-6,0a1.5,1.5,0,1,0-1.5-1.5A1.5,1.5,0,0,0,454.5,2316Z" transform="translate(-431 -2308)"/>
</svg>
