<svg xmlns="http://www.w3.org/2000/svg" width="42" height="37" viewBox="0 0 42 37">
  <defs>
    <style>
      .cls-1 {
        fill-rule: evenodd;
      }
    </style>
  </defs>
  <path id="Case" class="cls-1" d="M912,1868h-9v-3a3,3,0,0,0-3-3H888a3,3,0,0,0-3,3v3h-9a3,3,0,0,0-3,3v25a3,3,0,0,0,3,3h36a3,3,0,0,0,3-3v-25A3,3,0,0,0,912,1868Zm-24-3h12v3H888v-3Zm24,6v7.51a1.459,1.459,0,0,0-.671.15,62.181,62.181,0,0,1-12.538,4.26A3,3,0,0,0,896,1881h-4a3,3,0,0,0-2.821,2.02,55.656,55.656,0,0,1-12.633-4.36,1.385,1.385,0,0,0-.546-0.15V1871h36Zm-16,13v3h-4v-3h4Zm-20,12v-14.21a59.332,59.332,0,0,0,13,4.28V1887a3,3,0,0,0,3,3h4a3,3,0,0,0,3-3v-1.08a52.585,52.585,0,0,0,13-4.37V1896H876Z" transform="translate(-873 -1862)"/>
</svg>
