<svg xmlns="http://www.w3.org/2000/svg" width="39.062" height="39.22" viewBox="0 0 39.062 39.22">
  <defs>
    <style>
      .cls-1 {
        fill-rule: evenodd;
      }
    </style>
  </defs>
  <path id="Chart" class="cls-1" d="M559.477,2691H525.03l-0.065-15.37a1.514,1.514,0,0,0,.488-0.89c0.019-.12,1.926-11.87,8.623-11.87,2.83,0,5.209,5.43,7.51,10.68,3.146,7.19,6.4,14.62,12.737,14.62a8.283,8.283,0,0,0,3.715-.88,1.52,1.52,0,0,0-1.356-2.72,5.12,5.12,0,0,1-2.359.56c-4.351,0-7.2-6.5-9.955-12.8-2.816-6.43-5.475-12.5-10.292-12.5-4.517,0-7.364,3.27-9.111,6.7v-10.24a1.519,1.519,0,1,0-3.037,0l0.062,36.21a1.516,1.516,0,0,0,1.52,1.5h35.967A1.5,1.5,0,1,0,559.477,2691Z" transform="translate(-521.938 -2654.78)"/>
</svg>
