<svg xmlns="http://www.w3.org/2000/svg" width="44" height="44" viewBox="0 0 44 44">
  <defs>
    <style>
      .cls-1 {
        fill-rule: evenodd;
      }
    </style>
  </defs>
  <path id="Chart" class="cls-1" d="M382,2675h-2a3,3,0,0,0-3,3v3a3,3,0,0,0,3,3h2a3,3,0,0,0,3-3v-3A3,3,0,0,0,382,2675Zm0,6h-2v-3h2v3Zm-10-6h-2a3,3,0,0,0-3,3v7a3,3,0,0,0,3,3h2a3,3,0,0,0,3-3v-7A3,3,0,0,0,372,2675Zm0,10h-2v-7h2v7Zm-10-10h-2a3,3,0,0,0-3,3v11a3,3,0,0,0,3,3h2a3,3,0,0,0,3-3v-11A3,3,0,0,0,362,2675Zm0,14h-2v-11h2v11Zm-10-14h-2a3,3,0,0,0-3,3v15a3,3,0,0,0,3,3h2a3,3,0,0,0,3-3v-15A3,3,0,0,0,352,2675Zm0,18h-2v-15h2v15Zm34-23h-1v-15a2.8,2.8,0,0,0-2.867-3H379.5c-1.657,0-2.5,1.34-2.5,3v15h-2v-11a3,3,0,0,0-3-3h-2.5c-1.657,0-2.5,1.34-2.5,3v11h-2v-7a3,3,0,0,0-3-3h-2a3,3,0,0,0-3,3v7h-2v-3a3,3,0,0,0-3-3h-2a3,3,0,0,0-3,3v3h-2.5a1.5,1.5,0,0,0,0,3h41a1.5,1.5,0,0,0,1.5-1.5C387,2670.67,386.883,2670,386,2670Zm-36,0v-3h2v3h-2Zm10,0v-7h2v7h-2Zm10,0v-11h2v11h-2Zm10,0v-15h2v15h-2Z" transform="translate(-343 -2652)"/>
</svg>
