<svg xmlns="http://www.w3.org/2000/svg" width="41.969" height="45" viewBox="0 0 41.969 45">
  <defs>
    <style>
      .cls-1 {
        fill-rule: evenodd;
      }
    </style>
  </defs>
  <path id="Chart" class="cls-1" d="M914.356,2586H875.919a1.5,1.5,0,1,0,0,3h38.437A1.5,1.5,0,1,0,914.356,2586Zm-35.4-2a5.033,5.033,0,0,0,5.057-5,4.931,4.931,0,0,0-.11-1.03l7.79-4.33a5.033,5.033,0,0,0,6.783.09l6.93,4.11a4.864,4.864,0,0,0-.151,1.16,5.083,5.083,0,1,0,1.721-3.73l-6.931-4.11a4.864,4.864,0,0,0,.152-1.16,5.058,5.058,0,0,0-10.115,0,4.932,4.932,0,0,0,.111,1.03l-7.79,4.33A5.022,5.022,0,1,0,878.954,2584Zm31.356-7a2,2,0,1,1-2.023,2A2.015,2.015,0,0,1,910.31,2577Zm-15.172-9a2,2,0,1,1-2.023,2A2.015,2.015,0,0,1,895.138,2568Zm-16.184,9a2,2,0,1,1-2.023,2A2.015,2.015,0,0,1,878.954,2577Zm31.356,14a5.032,5.032,0,0,0-5.057,5,4.931,4.931,0,0,0,.11,1.03l-7.79,4.33a5.033,5.033,0,0,0-6.783-.09l-6.93-4.11a4.915,4.915,0,0,0,.151-1.16,5.083,5.083,0,1,0-1.721,3.73l6.93,4.11a4.864,4.864,0,0,0-.151,1.16,5.058,5.058,0,0,0,10.115,0,4.932,4.932,0,0,0-.111-1.03l7.79-4.33A5.022,5.022,0,1,0,910.31,2591Zm-31.356,7a2,2,0,1,1,2.023-2A2.014,2.014,0,0,1,878.954,2598Zm15.172,9a2,2,0,1,1,2.023-2A2.015,2.015,0,0,1,894.126,2607Zm16.184-9a2,2,0,1,1,2.023-2A2.015,2.015,0,0,1,910.31,2598Z" transform="translate(-873.906 -2565)"/>
</svg>
