<svg xmlns="http://www.w3.org/2000/svg" width="40.031" height="40.22" viewBox="0 0 40.031 40.22">
  <defs>
    <style>
      .cls-1 {
        fill-rule: evenodd;
      }
    </style>
  </defs>
  <path id="Chart" class="cls-1" d="M208.467,2690.96H175.124c2.314-2.51,3.876-4.85,3.876-6.96,0-1.45-.3-9,5-9h1c0.428-.04,10-0.62,10-7,0-1.97.383-8.08,5.487-8.08h3a1.465,1.465,0,1,0,0-2.93h-3c-5.163,0-8.487,4.07-8.487,11.01,0,2.95-6.055,4-8,4-5.184.04-8,4.89-8,12,0,1.27-1.335,2.65-2.986,4.48v-33.19a1.518,1.518,0,1,0-3.036,0v36.94a1.779,1.779,0,0,0,1.549,1.77h36.94A1.52,1.52,0,0,0,208.467,2690.96Zm-11.476-26.45v23a1.5,1.5,0,0,0,3,0v-23A1.5,1.5,0,0,0,196.991,2664.51Zm5,0v23a1.5,1.5,0,0,0,3,0v-23A1.5,1.5,0,0,0,201.988,2664.51Zm-10,11.99v11a1.5,1.5,0,1,0,3,0v-11A1.5,1.5,0,1,0,191.993,2676.5Zm-5,3v8a1.5,1.5,0,1,0,3,0v-8A1.5,1.5,0,0,0,187,2679.5Zm-5,0v8a1.5,1.5,0,1,0,3,0v-8A1.5,1.5,0,0,0,182,2679.5Z" transform="translate(-169.969 -2653.78)"/>
</svg>
