<svg xmlns="http://www.w3.org/2000/svg" width="40.062" height="42" viewBox="0 0 40.062 42">
  <defs>
    <style>
      .cls-1 {
        fill-rule: evenodd;
      }
    </style>
  </defs>
  <path id="Chart" class="cls-1" d="M471.5,2572a1.509,1.509,0,0,0-.371.05,1.547,1.547,0,0,0-.374-0.05h-6.7a1.475,1.475,0,1,0,0,2.95h3.234l-10.676,10.48-4.361-5.71a1.51,1.51,0,0,0-1.108-.59,1.485,1.485,0,0,0-1.18.44L439,2590v-22c0-.83-0.153-2-0.991-2s-2.009.17-2.009,1v3h-1.489a1.618,1.618,0,0,0-1.5,1.71c0,0.95.16,1.29,0.988,1.29h2v3h-2c-0.828,0-.988,1.17-0.988,2s0.16,1,.988,1h2v4h-2c-0.828,0-.988,1.17-0.988,2s0.16,1,.988,1h2v4h-2c-0.828,0-.988,1.17-0.988,2s0.16,1,.988,1h2v4h-1c-0.838,0-2.051-.19-2.051,2,0,0.83.213,1,1.051,1h2l-0.009,2.61a1.49,1.49,0,0,0,1.522,1.46h2.537L440,2606c0,0.83-.036,1.99,2,2,0.838,0,1-1.17,1-2v-2h4v2c0,0.83-.14,2.02,2.142,2,0.838-.01.858-1.17,0.858-2v-2h4v2c0,0.83.038,2,2,2,0.838,0,1-1.17,1-2v-2h4v2c0,0.83-.081,2,2,2,0.838,0,1-1.17,1-2v-2h4v2c0,0.83.557,2,1.395,2a1.508,1.508,0,0,0,1.518-1.5L471,2604a1.134,1.134,0,0,0,1.013-1.39,1.488,1.488,0,0,0-1.522-1.45H439.035L439,2594c0.109-.06.907-0.91,1-1l10.881-10.09,4.387,5.74a1.551,1.551,0,0,0,1.125.6,1.585,1.585,0,0,0,1.187-.47l12.43-12.38v3.39a1.491,1.491,0,1,0,2.978,0v-6.23A1.527,1.527,0,0,0,471.5,2572Z" transform="translate(-432.938 -2566)"/>
</svg>
