<svg xmlns="http://www.w3.org/2000/svg" width="41.906" height="41.19" viewBox="0 0 41.906 41.19">
  <defs>
    <style>
      .cls-1 {
        fill-rule: evenodd;
      }
    </style>
  </defs>
  <path id="Chart" class="cls-1" d="M115.409,2582.47a4.214,4.214,0,0,0,.5.03,5,5,0,0,0,4.961-4.56,5.057,5.057,0,0,0-1.1-3.7,4.9,4.9,0,0,0-3.364-1.83,4.214,4.214,0,0,0-.5-0.03h0a5,5,0,0,0-4.961,4.56,5.059,5.059,0,0,0,1.006,3.55l-6.494,9.33a5.76,5.76,0,0,0-1.023-.22c-0.167-.01-0.334-0.02-0.5-0.02h0a4.891,4.891,0,0,0-2.987,1.03l-6.133-4.45a4.83,4.83,0,0,0,.1-0.52,5.081,5.081,0,0,0-1.1-3.71,4.979,4.979,0,0,0-3.364-1.83c-0.168-.01-0.334-0.02-0.5-0.02h0a4.991,4.991,0,0,0-4.96,4.55,5.064,5.064,0,0,0,.567,2.89l-3.566,4.34v-24.53a1.5,1.5,0,1,0-2.993,0v38.18a1.5,1.5,0,0,0,1.482,1.5h38.029a1.5,1.5,0,0,0,0-3H81.96l0.029-7.41,5.719-6.96a4.992,4.992,0,0,0,1.745.53c0.168,0.01.334,0.02,0.5,0.02a4.936,4.936,0,0,0,3.4-1.35l5.85,4.23a5.149,5.149,0,0,0-.228,1.06,5.081,5.081,0,0,0,1.1,3.71,4.98,4.98,0,0,0,3.364,1.83,4.189,4.189,0,0,0,.5.02,4.992,4.992,0,0,0,4.961-4.55,5.079,5.079,0,0,0-1-3.56l6.493-9.32A4.89,4.89,0,0,0,115.409,2582.47Zm-25.455,4.69c-0.066,0-.133-0.01-0.2-0.01a2.027,2.027,0,0,1,.2-4.04,1.362,1.362,0,0,1,.2.01A2.027,2.027,0,0,1,89.954,2587.16Zm25.95-11.74a1.367,1.367,0,0,1,.2.01,2.021,2.021,0,0,1-.2,4.03,1.367,1.367,0,0,1-.2-0.01A2.021,2.021,0,0,1,115.9,2575.42Zm-11.966,21.24a1.367,1.367,0,0,1-.2-0.01,2.027,2.027,0,0,1,.2-4.04c0.067,0,.134.01,0.2,0.01A2.027,2.027,0,0,1,103.938,2596.66Z" transform="translate(-79 -2565.81)"/>
</svg>
