<svg xmlns="http://www.w3.org/2000/svg" width="44" height="44" viewBox="0 0 44 44">
  <defs>
    <style>
      .cls-1 {
        fill-rule: evenodd;
      }
    </style>
  </defs>
  <path id="Chart" class="cls-1" d="M121.187,2665.28a4.986,4.986,0,0,0-3.708-7.65,4.205,4.205,0,0,0-.5-0.02h0a4.988,4.988,0,0,0-1.167.15,21.974,21.974,0,0,0-34.847,25.29,5,5,0,0,0,3.537,7.93c0.168,0.01.335,0.02,0.5,0.02a5.027,5.027,0,0,0,1.7-.3A21.982,21.982,0,0,0,121.187,2665.28Zm-2.216-2.48a2,2,0,0,1-1.987,1.81c-0.067,0-.134-0.01-0.2-0.01a2,2,0,0,1,.2-3.99,1.36,1.36,0,0,1,.2.01A2,2,0,0,1,118.971,2662.8ZM101,2655a18.863,18.863,0,0,1,12.139,4.42,4.977,4.977,0,0,0-.028,6.35c0.015,0.02.034,0.03,0.05,0.05l-5.169,9.31a4.1,4.1,0,0,0-.494-0.11c-0.168-.01-0.335-0.02-0.5-0.02h0a4.931,4.931,0,0,0-2.918.96l-4.81-4.81a4.988,4.988,0,0,0-3.791-7.52,4.207,4.207,0,0,0-.5-0.02h0a5,5,0,0,0-3.868,8.16c0.015,0.02.034,0.03,0.05,0.05l-5.169,9.31a2.769,2.769,0,0,0-.494-0.1A4.229,4.229,0,0,0,85,2681h0a4.878,4.878,0,0,0-1.533.26A18.779,18.779,0,0,1,82,2674,19,19,0,0,1,101,2655Zm7.99,25.2A2,2,0,0,1,107,2682a1.374,1.374,0,0,1-.2-0.01,2,2,0,0,1,.2-3.99,1.36,1.36,0,0,1,.2.01A2,2,0,0,1,108.99,2680.2Zm-12.019-11.4a2,2,0,0,1-1.988,1.81c-0.067,0-.134-0.01-0.2-0.01a2,2,0,0,1,.2-3.99,1.369,1.369,0,0,1,.2.01A2,2,0,0,1,96.971,2668.8ZM85,2688a1.37,1.37,0,0,1-.2-0.01A2,2,0,0,1,85,2684a1.367,1.367,0,0,1,.2.01A2,2,0,0,1,85,2688Zm16,5a18.862,18.862,0,0,1-11.876-4.2,4.916,4.916,0,0,0,.851-2.3,4.976,4.976,0,0,0-1.36-3.92l5.087-9.16a5.086,5.086,0,0,0,.781.16,4.237,4.237,0,0,0,.5.03,4.861,4.861,0,0,0,2.048-.46l5.244,5.25a4.988,4.988,0,0,0,4.226,6.58c0.168,0.01.335,0.02,0.5,0.02a4.978,4.978,0,0,0,3.613-8.42l5.087-9.16a5.064,5.064,0,0,0,.78.16,4.235,4.235,0,0,0,.5.03,4.921,4.921,0,0,0,1.762-.33A18.725,18.725,0,0,1,120,2674,19,19,0,0,1,101,2693Z" transform="translate(-79 -2652)"/>
</svg>
