<svg xmlns="http://www.w3.org/2000/svg" width="43.75" height="43.81" viewBox="0 0 43.75 43.81">
  <defs>
    <style>
      .cls-1 {
        fill-rule: evenodd;
      }
    </style>
  </defs>
  <path id="Chief_Hat" data-name="Chief Hat" class="cls-1" d="M817.705,3382.49a11.945,11.945,0,0,0-20.981-.43,11.963,11.963,0,0,0-11.637,11.7,11.484,11.484,0,0,0,8.143,11.43l1.44,8.97a2.973,2.973,0,0,0,1.108,1.87,17.874,17.874,0,0,0,21.487.44,2.981,2.981,0,0,0,1.183-1.83l1.805-8.9a11.489,11.489,0,0,0,8.6-11.09A11.955,11.955,0,0,0,817.705,3382.49Zm-11.2,34.36a16.589,16.589,0,0,1-8.892-3.17l-0.27-1.68c1.928,1.27,5.68,3.36,9.548,3.36,3.143,0,6.546-1.39,8.885-2.58l-0.257,1.27A16.633,16.633,0,0,1,806.509,3416.85Zm11.227-13.71-1.174,5.79c-1.409.86-5.935,3.45-9.667,3.45-4.378,0-8.973-3.62-9.019-3.66a1.461,1.461,0,0,0-1.107-.31l-0.918-5.72a8.581,8.581,0,0,1-7.78-8.87,8.945,8.945,0,0,1,9.135-8.77,7.909,7.909,0,0,1,1.384.14,8.955,8.955,0,0,1,17.123.35,9.093,9.093,0,0,1,1.388-.09,8.954,8.954,0,0,1,8.77,9.14A8.589,8.589,0,0,1,817.736,3403.14Zm-19.8-15.72v-0.06c-5.969,0-7.46,4.76-7.46,7.35a1.292,1.292,0,0,0,1.482,1.24h0.009a1.314,1.314,0,0,0,1.492-1.24,4.112,4.112,0,0,1,4.476-4.26,1.5,1.5,0,0,0,1.493-1.5A1.42,1.42,0,0,0,797.94,3387.42Z" transform="translate(-785.094 -3376.03)"/>
</svg>
