<svg xmlns="http://www.w3.org/2000/svg" width="43.844" height="39.85" viewBox="0 0 43.844 39.85">
  <defs>
    <style>
      .cls-1 {
        fill-rule: evenodd;
      }
    </style>
  </defs>
  <path id="Chinese" class="cls-1" d="M209.014,3307.06H196.173l11.12-11.11a1.493,1.493,0,0,0-2.114-2.11l-13.234,13.22h-3.332l5.421-15.95a1.494,1.494,0,0,0-2.83-.96l-5.748,16.91H171.135a2.983,2.983,0,0,0-2.54,4.56l9.905,15.93a2.984,2.984,0,0,0,2.54,1.41h19a2.99,2.99,0,0,0,2.606-1.52l8.917-15.84A2.982,2.982,0,0,0,209.014,3307.06Zm-8.975,18.91h-19l-9.905-15.93h37.874Z" transform="translate(-168.156 -3289.12)"/>
</svg>
