<svg xmlns="http://www.w3.org/2000/svg" width="30.718" height="30.84" viewBox="0 0 30.718 30.84">
  <defs>
    <style>
      .cls-1 {
        fill-rule: evenodd;
      }
    </style>
  </defs>
  <path id="Close" class="cls-1" d="M894.788,1176.57l12.583-12.89a1.5,1.5,0,0,0-.022-2.11,1.478,1.478,0,0,0-2.1.02l-12.561,12.87-13.081-12.89a1.479,1.479,0,0,0-2.1.02,1.5,1.5,0,0,0,.02,2.11l13.062,12.87-13.062,12.87a1.5,1.5,0,0,0-.02,2.11,1.477,1.477,0,0,0,2.1.02l13.081-12.89,12.561,12.87a1.477,1.477,0,0,0,1.062.45,1.459,1.459,0,0,0,1.04-.43,1.5,1.5,0,0,0,.022-2.11Z" transform="translate(-877.094 -1161.16)"/>
</svg>
