<svg xmlns="http://www.w3.org/2000/svg" width="44" height="44" viewBox="0 0 44 44">
  <defs>
    <style>
      .cls-1 {
        fill-rule: evenodd;
      }
    </style>
  </defs>
  <path id="Close" class="cls-1" d="M893,1243a22,22,0,1,0,22,22A22.025,22.025,0,0,0,893,1243Zm0,41a19,19,0,1,1,19-19A19,19,0,0,1,893,1284Zm8.039-27.08a1.5,1.5,0,0,0-2.12.04l-5.688,5.92-6.191-5.96a1.5,1.5,0,1,0-2.08,2.16l6.149,5.92-6.149,5.92a1.5,1.5,0,0,0-.041,2.12,1.48,1.48,0,0,0,1.081.46,1.5,1.5,0,0,0,1.04-.42l6.191-5.96,5.688,5.92a1.5,1.5,0,0,0,2.12.04,1.5,1.5,0,0,0,.042-2.12l-5.729-5.96,5.729-5.96A1.5,1.5,0,0,0,901.039,1256.92Z" transform="translate(-871 -1243)"/>
</svg>
