<svg xmlns="http://www.w3.org/2000/svg" width="44" height="33" viewBox="0 0 44 33">
  <defs>
    <style>
      .cls-1 {
        fill-rule: evenodd;
      }
    </style>
  </defs>
  <path id="Cloud" class="cls-1" d="M290.553,1787.08c-1.236-5.21-5.038-12.08-13.553-12.08-6.54,0-9.751,2.94-11.294,5.41a11.331,11.331,0,0,0-1.328,3.07c-4.1,1.18-9.378,4.49-9.378,11.52,0,9.54,7.774,13,13,13h20c4.422,0,11-2.93,11-11C299,1790.48,294.765,1787.66,290.553,1787.08ZM288,1805H268s-10,0-10-10c0-8,9-9,9-9s0-8,10-8,11,12,11,12a7.419,7.419,0,0,1,.832-0.04c2.048,0,7.168.64,7.168,7.04C296,1805,288,1805,288,1805Z" transform="translate(-255 -1775)"/>
</svg>
