<svg xmlns="http://www.w3.org/2000/svg" width="44" height="46.91" viewBox="0 0 44 46.91">
  <defs>
    <style>
      .cls-1 {
        fill-rule: evenodd;
      }
    </style>
  </defs>
  <path id="Cloud_download" data-name="Cloud download" class="cls-1" d="M552.553,1785.14c-1.236-5.26-5.038-12.18-13.553-12.18-6.54,0-9.752,2.96-11.294,5.45a11.646,11.646,0,0,0-1.328,3.1c-4.1,1.19-9.378,4.53-9.378,11.62a12.044,12.044,0,0,0,7.846,11.62,20.1,20.1,0,0,0,7.154,1.49h1v-3.03h-1s-12,0-12-10.08c0-8.07,9-9.08,9-9.08s0-8.07,10-8.07,11,12.11,11,12.11a5.954,5.954,0,0,1,.832-0.05c2.048,0,7.168.65,7.168,7.11,0,8.06-12,8.06-12,8.06h-2v3.03h2c5.188,0,15-2.32,15-11.09C561,1788.57,556.764,1785.73,552.553,1785.14Zm-19.576,25.63a1.363,1.363,0,0,0-1.04-.48,1.405,1.405,0,0,0-.986.4,1.525,1.525,0,0,0-.069,2.14l6.008,6.55a2.88,2.88,0,0,0,2.928.04l6.5-6.69a1.522,1.522,0,0,0-.019-2.14,1.646,1.646,0,0,0-2.246.03L540,1814.65v-21.26a1.5,1.5,0,1,0-3,0v21.92Z" transform="translate(-517 -1772.97)"/>
</svg>
