<svg xmlns="http://www.w3.org/2000/svg" width="40" height="38" viewBox="0 0 40 38">
  <defs>
    <style>
      .cls-1 {
        fill-rule: evenodd;
      }
    </style>
  </defs>
  <path id="Cocktail" class="cls-1" d="M291.969,3203a8.038,8.038,0,0,0-7.768,6h-21.2a3,3,0,0,0-2.193,5.05l14,16c0.059,0.06.063-.11,0.127-0.05l0.06,8h-2.942a1.5,1.5,0,1,0,0,3h9.033a1.5,1.5,0,1,0,0-3H278v-8a3.827,3.827,0,0,0,1.276-.95l9.9-10.57A8,8,0,1,0,291.969,3203Zm-14.629,23.72c-0.215-.13-0.531.79-0.8,0.78L263.006,3212h28.125ZM291.969,3216c-0.15,0-.3-0.01-0.444-0.02l1.808-1.93a3,3,0,0,0-2.2-5.05h-3.759A5.014,5.014,0,1,1,291.969,3216Z" transform="translate(-260 -3203)"/>
</svg>
