<svg xmlns="http://www.w3.org/2000/svg" width="29.813" height="45" viewBox="0 0 29.813 45">
  <defs>
    <style>
      .cls-1 {
        fill-rule: evenodd;
      }
    </style>
  </defs>
  <path id="Cocktail" class="cls-1" d="M469.98,3206.96A7.961,7.961,0,0,0,462,3199c-3.85,0-7.28,3.26-8,7h-3l-2.019-3.91a1.477,1.477,0,0,0-1.862-.9l-5.954,2.01a1.519,1.519,0,0,0-.941,1.91,1.483,1.483,0,0,0,1.883.96l4.6-1.56,0.548,1.46c-0.975.5-2.244,1.84-2.244,3.02v17A9.35,9.35,0,0,0,452,3235c-0.011.07,0-.08,0,0v6l-3.08-.01a1.5,1.5,0,0,0,0,3h8.794a1.5,1.5,0,0,0,0-3L455,3241v-6c4.92,0,8-5.29,8-9.05v-9.1l0-1.85C466.607,3214.27,469.98,3210.87,469.98,3206.96ZM460,3209v5l-7.371-.01-1.862-5Zm-10.508,4.99h-1.549v-4.16Zm10.531,11.96a6.25,6.25,0,0,1-6.217,6.04,5.935,5.935,0,0,1-5.863-6v-9h2.666l2.8,7.53a1.469,1.469,0,0,0,1.37.97,1.378,1.378,0,0,0,.522-0.1,1.5,1.5,0,0,0,.847-1.93l-2.407-6.47L460,3217ZM463,3212v-3c0-1.66-.356-3-2-3h-4a5.816,5.816,0,0,1,5-4,5,5,0,0,1,5,5A5.781,5.781,0,0,1,463,3212Z" transform="translate(-440.156 -3199)"/>
</svg>
