<svg xmlns="http://www.w3.org/2000/svg" width="28" height="42" viewBox="0 0 28 42">
  <defs>
    <style>
      .cls-1 {
        fill-rule: evenodd;
      }
    </style>
  </defs>
  <path id="Cocktail" class="cls-1" d="M377,3210H363l-1.863-6.77a1.5,1.5,0,0,0-.726-1.01,1.537,1.537,0,0,0-1.257-.13l-6.1,2a1.489,1.489,0,0,0-.965,1.89,1.533,1.533,0,0,0,1.931.95l4.444-1.46L360,3210h-3a3.26,3.26,0,0,0-2.3,1.31,2.977,2.977,0,0,0-.652,2.44l5.415,27.68a3,3,0,0,0,2.914,2.56h9.867a3,3,0,0,0,2.914-2.56l4.754-27.27A9.146,9.146,0,0,0,380,3213,3,3,0,0,0,377,3210Zm0,3-1,8H365l-2-8h14Zm-17,0,2,8h-3l-2-8h3Zm12.245,27.89h-9.867L359,3224h3l2.594,11.83a1.515,1.515,0,0,0,1.471,1.26,1.336,1.336,0,0,0,.278-0.03,1.53,1.53,0,0,0,1.2-1.79L365,3224h10Z" transform="translate(-352 -3202)"/>
</svg>
