<svg xmlns="http://www.w3.org/2000/svg" width="30" height="45" viewBox="0 0 30 45">
  <defs>
    <style>
      .cls-1 {
        fill-rule: evenodd;
      }
    </style>
  </defs>
  <path id="Coffee" class="cls-1" d="M642,3299.72v-1.79a2.9,2.9,0,0,0-3-2.93h-7l1.154-3.16,4.4-1.84a1.585,1.585,0,0,0,.836-2.03,1.482,1.482,0,0,0-1.95-.87l-5,2.09a1.5,1.5,0,0,0-.836.87L629,3295h-8a2.9,2.9,0,0,0-3,2.93V3300a2.812,2.812,0,0,0-3,2.81v4.1a3.044,3.044,0,0,0,3,3.09h0.014a3.087,3.087,0,0,0,.023.48l3,18.96A3.014,3.014,0,0,0,624,3332h12a3.014,3.014,0,0,0,2.963-2.56l3-18.96a3.087,3.087,0,0,0,.023-0.48H642a3.044,3.044,0,0,0,3-3.09v-4.1A3.044,3.044,0,0,0,642,3299.72Zm-21-1.79h18V3300H621v-2.07Zm15,31.03H624L621,3310h18Zm6-22.05H618V3303h24v3.91Z" transform="translate(-615 -3287)"/>
</svg>
