<svg xmlns="http://www.w3.org/2000/svg" width="30" height="42" viewBox="0 0 30 42">
  <defs>
    <style>
      .cls-1 {
        fill-rule: evenodd;
      }
    </style>
  </defs>
  <path id="Coffee" class="cls-1" d="M806,3201a15.018,15.018,0,0,0-15,15v12a15,15,0,0,0,30,0v-12A15.018,15.018,0,0,0,806,3201Zm-12,27v-12a12,12,0,0,1,9.271-11.68c-1.84,2.95-4.515,8.26-3.389,12.88a9.088,9.088,0,0,0,5.5,6.17,6.136,6.136,0,0,1,3.823,4.14c1.193,4.88-3.558,11.47-4.285,12.44A12,12,0,0,1,794,3228Zm24,0a12,12,0,0,1-9.271,11.68c1.84-2.95,4.515-8.26,3.389-12.88a9.088,9.088,0,0,0-5.5-6.17,6.136,6.136,0,0,1-3.823-4.14c-1.193-4.88,3.558-11.47,4.285-12.44A12,12,0,0,1,818,3216v12Z" transform="translate(-791 -3201)"/>
</svg>
