<svg xmlns="http://www.w3.org/2000/svg" width="36.875" height="35" viewBox="0 0 36.875 35">
  <defs>
    <style>
      .cls-1 {
        fill-rule: evenodd;
      }
    </style>
  </defs>
  <path id="Coins" class="cls-1" d="M350.267,2409.81a1.755,1.755,0,0,1-1.25-3,1.8,1.8,0,0,1,2.5,0,1.733,1.733,0,0,1,.517,1.24,1.505,1.505,0,0,0,3.01,0,4.731,4.731,0,0,0-1.4-3.37,4.857,4.857,0,0,0-1.938-1.15l-0.056-1.03a1.505,1.505,0,0,0-3.01,0v1.09a4.682,4.682,0,0,0-1.75,1.09,4.76,4.76,0,0,0,3.378,8.13,2.125,2.125,0,0,1,1.507,3.63,2.131,2.131,0,0,1-3.627-1.72,1.505,1.505,0,0,0-3-.3,5.106,5.106,0,0,0,1.481,4.14,5.027,5.027,0,0,0,2,1.21v1.73a1.505,1.505,0,0,0,3.01,0v-1.66a5.032,5.032,0,0,0,2.254-1.28A5.126,5.126,0,0,0,350.267,2409.81Zm30.353-6.34a5.224,5.224,0,0,0,1.372-3.47c0-4.06-4.641-7-11.036-7s-11.037,2.94-11.037,7a5.467,5.467,0,0,0,1.317,3.54,5.294,5.294,0,0,0-1.317,3.46,5.467,5.467,0,0,0,1.317,3.54,5.294,5.294,0,0,0-1.317,3.46,5.467,5.467,0,0,0,1.317,3.54,5.294,5.294,0,0,0-1.317,3.46c0,4.06,4.394,7,10.789,7s11.284-2.94,11.284-7a5.321,5.321,0,0,0-1.372-3.53,5.224,5.224,0,0,0,1.372-3.47,5.321,5.321,0,0,0-1.372-3.53,5.224,5.224,0,0,0,1.372-3.47A5.321,5.321,0,0,0,380.62,2403.47ZM378.982,2414c0,2.21-3.841,4-8.274,4s-7.779-1.79-7.779-4a2.427,2.427,0,0,1,.664-1.58,14.989,14.989,0,0,0,7.115,1.58,15.925,15.925,0,0,0,7.515-1.69A2.5,2.5,0,0,1,378.982,2414Zm-8.274-7a15.925,15.925,0,0,0,7.515-1.69,2.5,2.5,0,0,1,.759,1.69c0,2.21-3.841,4-8.274,4s-7.779-1.79-7.779-4a2.427,2.427,0,0,1,.664-1.58A14.989,14.989,0,0,0,370.708,2407Zm0.248-11c4.433,0,8.026,1.79,8.026,4s-3.841,4-8.274,4-7.779-1.79-7.779-4S366.523,2396,370.956,2396Zm-0.248,29c-4.433,0-7.779-1.79-7.779-4a2.427,2.427,0,0,1,.664-1.58,14.989,14.989,0,0,0,7.115,1.58,15.925,15.925,0,0,0,7.515-1.69,2.5,2.5,0,0,1,.759,1.69C378.982,2423.21,375.141,2425,370.708,2425Z" transform="translate(-345.125 -2393)"/>
</svg>
