<svg xmlns="http://www.w3.org/2000/svg" width="44" height="44" viewBox="0 0 44 44">
  <defs>
    <style>
      .cls-1 {
        fill-rule: evenodd;
      }
    </style>
  </defs>
  <path id="Compass" class="cls-1" d="M366,3464a22,22,0,1,0,22,22A22.025,22.025,0,0,0,366,3464Zm0,41a19,19,0,1,1,19-19A19,19,0,0,1,366,3505Zm8.336-30.05-12.374,6.85a0.276,0.276,0,0,0-.068.05c-0.046.03-.089,0.06-0.132,0.09s-0.094.08-.138,0.12-0.071.08-.1,0.12a1.087,1.087,0,0,0-.107.16c-0.015.02-.034,0.04-0.048,0.06l-6.751,12.63a1.5,1.5,0,0,0,1.323,2.21,1.463,1.463,0,0,0,.727-0.19l12.374-6.85a0.3,0.3,0,0,0,.068-0.05c0.046-.03.089-0.06,0.131-0.09s0.1-.08.139-0.12,0.071-.08.105-0.12a1.168,1.168,0,0,0,.106-0.16c0.015-.02.035-0.04,0.048-0.06l6.751-12.63A1.5,1.5,0,0,0,374.336,3474.95Zm-11.292,10.68,2.823,2.9-6.212,3.43Zm4.912,0.74-2.823-2.9,6.212-3.43ZM381,3485h-3a1,1,0,0,0,0,2h3A1,1,0,0,0,381,3485Zm-26,1a1,1,0,0,0-1-1h-3a1,1,0,0,0,0,2h3A1,1,0,0,0,355,3486Zm11,11a1,1,0,0,0-1,1v3a1,1,0,0,0,2,0v-3A1,1,0,0,0,366,3497Zm0-22a1,1,0,0,0,1-1v-3a1,1,0,0,0-2,0v3A1,1,0,0,0,366,3475Z" transform="translate(-344 -3464)"/>
</svg>
