<svg xmlns="http://www.w3.org/2000/svg" width="39" height="40" viewBox="0 0 39 40">
  <defs>
    <style>
      .cls-1 {
        fill-rule: evenodd;
      }
    </style>
  </defs>
  <path id="Consellation" class="cls-1" d="M386,3576a4.987,4.987,0,0,0-9.238-2.62l-6.62-1.68a4.938,4.938,0,0,0-7.368-3.86l-6.277-5.69a5.061,5.061,0,1,0-2.053,2.19l6.265,5.68a4.941,4.941,0,0,0-.518,2.17,5.015,5.015,0,0,0,3.018,4.59l-0.337,4.36a4.994,4.994,0,1,0,5.235,7.7l3.9,1.2a5,5,0,1,0,7.711-4.23l1.4-4.82A5,5,0,0,0,386,3576Zm-5-2a2,2,0,1,1-2,2A2,2,0,0,1,381,3574Zm-8.119,13.18-3.883-1.2a5,5,0,0,0-3.135-4.61l0.331-4.28a5,5,0,0,0,3.331-2.45l6.5,1.65a4.994,4.994,0,0,0,2.2,3.87l-1.409,4.86A4.981,4.981,0,0,0,372.881,3587.18ZM350,3560a2,2,0,1,1,2,2A2,2,0,0,1,350,3560Zm15.192,10.19a2,2,0,1,1-2,2A2,2,0,0,1,365.192,3570.19ZM364,3588a2,2,0,1,1,2-2A2,2,0,0,1,364,3588Zm13,4a2,2,0,1,1,2-2A2,2,0,0,1,377,3592Z" transform="translate(-347 -3555)"/>
</svg>
