<svg xmlns="http://www.w3.org/2000/svg" width="47.624" height="44" viewBox="0 0 47.624 44">
  <defs>
    <style>
      .cls-1 {
        fill-rule: evenodd;
      }
    </style>
  </defs>
  <path id="Currency_exchange" data-name="Currency exchange" class="cls-1" d="M389.117,3741.75a1.484,1.484,0,0,0-2.066.43l-1.8,2.75a22.482,22.482,0,0,0-5.984-10.84c-4.369-4.39-10.11-7.09-15.85-7.09s-11.453,2.71-15.812,7.09a1.5,1.5,0,0,0,0,2.12,1.479,1.479,0,0,0,2.11,0c3.779-3.79,8.74-6.2,13.7-6.21s9.952,2.41,13.739,6.21a19.472,19.472,0,0,1,5.252,9.77l-3.224-2.22a1.5,1.5,0,0,0-1.683,2.48l5.97,4.1h0.009a0.623,0.623,0,0,0,.125.06,1.22,1.22,0,0,0,.295.14,0.017,0.017,0,0,1,.017.01,1.687,1.687,0,0,0,.385.05h0.037a1.862,1.862,0,0,0,.332-0.05c0.042-.01.081-0.03,0.122-0.04,0.073-.03.146-0.05,0.215-0.08,0.042-.03.078-0.06,0.118-0.09a1.429,1.429,0,0,0,.182-0.12c0.04-.04.071-0.09,0.107-0.13a1.193,1.193,0,0,0,.131-0.15s0-.01.008-0.01,0,0,.007-0.01l3.98-6.09A1.505,1.505,0,0,0,389.117,3741.75Zm-6.849,20.14a18.459,18.459,0,0,1-27.441,0,19.492,19.492,0,0,1-5.253-9.76l3.225,2.21a1.529,1.529,0,0,0,.84.26,1.484,1.484,0,0,0,1.234-.66,1.5,1.5,0,0,0-.391-2.08l-5.971-4.1H348.5c-0.008-.01-0.018-0.01-0.027-0.02a1.636,1.636,0,0,0-.361-0.16,0.1,0.1,0,0,0-.048-0.02c-0.012-.01-0.024,0-0.036-0.01a1.4,1.4,0,0,0-.407-0.04h-0.07a1.765,1.765,0,0,0-.393.09h-0.02a1.388,1.388,0,0,0-.364.21,0.265,0.265,0,0,0-.06.05,1.256,1.256,0,0,0-.279.3,0.081,0.081,0,0,0-.009.01c0,0.01,0,.01-0.006.01l-3.98,6.1a1.5,1.5,0,0,0,.428,2.07,1.477,1.477,0,0,0,2.067-.43l1.8-2.75A23.271,23.271,0,0,0,368.4,3771a23.079,23.079,0,0,0,15.981-6.99,1.5,1.5,0,0,0,0-2.12A1.479,1.479,0,0,0,382.268,3761.89Zm-22.572-9.38a1.5,1.5,0,0,0-1.659,1.34c-0.241,2.38,1.008,3.98,2.4,5.35a9.2,9.2,0,0,0,3.554,1.78v1.49a1.45,1.45,0,1,0,2.895,0v-1.27a6.846,6.846,0,0,0,4.01-2.05,7.092,7.092,0,0,0-.17-10.21c-1.133-1.12-2.185-1.23-3.757-1.43v-7.5a1.9,1.9,0,0,1,1.338.46,3.191,3.191,0,0,1,.842,2.53,1.508,1.508,0,0,0,1.516,1.5h0a1.506,1.506,0,0,0,1.514-1.5,6.137,6.137,0,0,0-1.73-4.65,6.321,6.321,0,0,0-3.85-1.75v-1.1a1.516,1.516,0,0,0-3.032,0v1.1a5.007,5.007,0,0,0-3.093,1.34A7.521,7.521,0,0,0,358,3743a7.633,7.633,0,0,0,2.494,5.06,9.543,9.543,0,0,0,3.5,2.2l-0.012,7.42a4.051,4.051,0,0,1-.944-0.72c-1.181-1.25-2.088-1.84-1.99-2.81A1.5,1.5,0,0,0,359.7,3752.51Zm8.882-1.45c1.768,1.75,1.957,4.16.361,5.84A3.64,3.64,0,0,1,367,3758l-0.035-7.38C367.719,3750.77,368.014,3750.5,368.578,3751.06Zm-5.486-4.61c-0.7-.72-2.087-2.28-2.092-3.45s1.309-2.29,2-3a2.262,2.262,0,0,1,1,.02v7.02A2.726,2.726,0,0,1,363.092,3746.45Z" transform="translate(-342.188 -3727)"/>
</svg>
