<svg height="496pt" viewBox="0 0 496 496" width="496pt" xmlns="http://www.w3.org/2000/svg" xmlns:xlink="http://www.w3.org/1999/xlink"><linearGradient id="a" gradientUnits="userSpaceOnUse" x1="248" x2="248" y1="496" y2="0"><stop offset="0" stop-color="#9f2fff"/><stop offset="1" stop-color="#0bb1d3"/></linearGradient><path d="m472 304h-88v-30.710938c0-2.863281 1.542969-5.527343 4.03125-6.953124l39.878906-22.785157c7.457032-4.261719 12.089844-12.253906 12.089844-20.839843v-54.710938c0-22.054688-17.945312-40-40-40h-16.40625c-4.179688-71.265625-63.304688-128-135.59375-128s-131.414062 56.734375-135.59375 128h-16.40625c-22.054688 0-40 17.945312-40 40v54.710938c0 8.585937 4.632812 16.578124 12.097656 20.839843l31.8125 18.175781c7.457032 4.273438 12.089844 12.257813 12.089844 20.839844v21.433594h-88c-13.230469 0-24 10.769531-24 24v112c0 13.230469 10.769531 24 24 24h48v16h-16v16h128v-16h-16v-16h48c13.230469 0 24-10.769531 24-24v-112c0-13.230469-10.769531-24-24-24h-88v-21.433594c0-14.320312-7.726562-27.621094-20.160156-34.726562l-31.816406-18.175782c-2.480469-1.425781-4.023438-4.089843-4.023438-6.953124v-54.710938c0-13.230469 10.769531-24 24-24h16.40625c4.179688 71.265625 63.304688 128 135.59375 128s131.414062-56.734375 135.59375-128h16.40625c13.230469 0 24 10.769531 24 24v54.710938c0 2.863281-1.542969 5.527343-4.03125 6.953124l-39.878906 22.785157c-7.457032 4.261719-12.089844 12.253906-12.089844 20.839843v30.710938h-88c-13.230469 0-24 10.769531-24 24v112c0 13.230469 10.769531 24 24 24h48v16h-16v16h128v-16h-16v-16h48c13.230469 0 24-10.769531 24-24v-112c0-13.230469-10.769531-24-24-24zm-320 176h-64v-16h64zm64-32h-192c-4.414062 0-8-3.585938-8-8v-8h208v8c0 4.414062-3.585938 8-8 8zm8-120v88h-208v-88c0-4.414062 3.585938-8 8-8h192c4.414062 0 8 3.585938 8 8zm16-311.59375v21.378906c0 14.023438 7.472656 27.222656 19.503906 34.453125l8.761719 5.25c7.238281 4.34375 11.734375 12.296875 11.734375 20.726563 0 16.519531 9.910156 31.167968 25.257812 37.304687l5.382813 2.152344c5.6875 2.273437 9.359375 7.703125 9.359375 13.832031v8c0 6.425782-4.097656 12.105469-10.183594 14.136719l-16.6875 5.558594c-12.632812 4.207031-21.128906 15.976562-21.128906 29.296875 0 12.703125 7.625 23.960937 19.425781 28.6875l12.390625 4.953125c-14.457031 7.632812-30.648437 12.3125-47.816406 13.449219v-19.097657c0-15.695312-8.71875-29.800781-22.761719-36.824219-5.703125-2.832031-9.238281-8.566406-9.238281-14.945312 0-9.214844 7.503906-16.71875 16.71875-16.71875h15.28125c13.230469 0 24-10.769531 24-24s-10.769531-24-24-24c-6.824219 0-12.953125-3.792969-16-9.886719l-4.425781-8.839843c-2.34375-4.6875-3.574219-9.929688-3.574219-15.160157v-6.113281c0-17.648438-14.351562-32-32-32s-32 14.351562-32 32v11.351562c0 4.121094-2.625 7.761719-6.527344 9.0625-10.449218 3.480469-17.472656 13.226563-17.472656 24.234376v33.3125c0 4.984374-1.464844 9.816406-4.222656 13.960937l-4.050782 6.0625c-4.910156-13.089844-7.726562-27.199219-7.726562-41.984375 0-63.472656 49.558594-115.449219 112-119.59375zm-96.375 178.585938 9.464844-14.191407c4.519531-6.792969 6.910156-14.6875 6.910156-22.839843v-33.3125c0-4.121094 2.625-7.761719 6.527344-9.0625 10.449218-3.480469 17.472656-13.226563 17.472656-24.234376v-11.351562c0-8.824219 7.175781-16 16-16s16 7.175781 16 16v6.113281c0 7.703125 1.824219 15.421875 5.265625 22.3125l4.421875 8.839844c5.777344 11.558594 17.390625 18.734375 30.3125 18.734375 4.414062 0 8 3.585938 8 8s-3.585938 8-8 8h-15.28125c-18.039062 0-32.71875 14.679688-32.71875 32.71875 0 12.480469 6.929688 23.695312 18.089844 29.273438 8.582031 4.289062 13.910156 12.910156 13.910156 22.503906v19.097656c-41.34375-2.746094-76.984375-26.425781-96.375-60.601562zm176.71875 36.527343-22.984375-9.191406c-5.6875-2.273437-9.359375-7.703125-9.359375-13.832031 0-6.425782 4.097656-12.105469 10.183594-14.136719l16.6875-5.558594c12.632812-4.207031 21.128906-15.976562 21.128906-29.296875v-8c0-12.703125-7.625-23.960937-19.425781-28.6875l-5.375-2.152344c-9.230469-3.695312-15.199219-12.503906-15.199219-22.449218 0-14.023438-7.472656-27.222656-19.503906-34.453125l-8.761719-5.25c-7.238281-4.34375-11.734375-12.296875-11.734375-20.726563v-21.378906c62.441406 4.144531 112 56.121094 112 119.59375 0 38.992188-18.769531 73.585938-47.65625 95.519531zm-40.34375 88.480469h192c4.414062 0 8 3.585938 8 8v88h-208v-88c0-4.414062 3.585938-8 8-8zm128 160h-64v-16h64zm64-32h-192c-4.414062 0-8-3.585938-8-8v-8h208v8c0 4.414062-3.585938 8-8 8zm-8-424v16h-16v-16zm-16 32h16v16h-16zm16 0v-16h16v16zm-16-16v16h-16v-16zm-384 16v16h-16v-16zm-16 32h16v16h-16zm16 0v-16h16v16zm-16-16v16h-16v-16zm0 0" fill="url(#a)"/></svg>