<svg xmlns="http://www.w3.org/2000/svg" width="37" height="40" viewBox="0 0 37 40">
  <defs>
    <style>
      .cls-1 {
        fill-rule: evenodd;
      }
    </style>
  </defs>
  <path id="Delete_document" data-name="Delete document" class="cls-1" d="M734,1884.14V1875a4.956,4.956,0,0,0-.713-2.57,2.723,2.723,0,0,0-.274-0.39l-6.6-7.86a5.033,5.033,0,0,0-4.13-2.18H707a5,5,0,0,0-5,5v28a5,5,0,0,0,5,5h16.691A9.491,9.491,0,1,0,734,1884.14ZM705,1895v-28a2,2,0,0,1,2-2h15.285a2.006,2.006,0,0,1,1.715.97l6.715,8A2.013,2.013,0,0,1,731,1875v8.13a9.275,9.275,0,0,0-1.5-.13,9.495,9.495,0,0,0-8.363,14H707A2,2,0,0,1,705,1895Zm24.5,4a6.5,6.5,0,1,1,6.5-6.5A6.5,6.5,0,0,1,729.5,1899Zm3.182-9.68a1.492,1.492,0,0,0-2.121,0l-1.061,1.06-1.061-1.06a1.5,1.5,0,0,0-2.121,2.12l1.061,1.06-1.061,1.06a1.5,1.5,0,0,0,2.121,2.12l1.061-1.06,1.061,1.06a1.5,1.5,0,0,0,2.121-2.12l-1.061-1.06,1.061-1.06A1.5,1.5,0,0,0,732.682,1889.32Z" transform="translate(-702 -1862)"/>
</svg>
