<svg xmlns="http://www.w3.org/2000/svg" width="37" height="44" viewBox="0 0 37 44">
  <defs>
    <style>
      .cls-1 {
        fill-rule: evenodd;
      }
    </style>
  </defs>
  <path id="Delete_location" data-name="Delete location" class="cls-1" d="M547,1523H536a1.5,1.5,0,0,0,0,3h11A1.5,1.5,0,0,0,547,1523Zm-5.5-16c-9.855,0-18.5,8.41-18.5,18a19.524,19.524,0,0,0,2.437,8.34,2.329,2.329,0,0,0,.144.25c0.108,0.17,2.671,4.14,5.661,8.18,5.715,7.72,8.089,9.23,10.258,9.23s4.559-1.51,10.268-9.23c2.988-4.04,5.545-8.02,5.653-8.18a2.318,2.318,0,0,0,.142-0.25A19.524,19.524,0,0,0,560,1525C560,1515.41,551.355,1507,541.5,1507Zm13.4,24.97S544.586,1548,541.5,1548c-3.06,0-13.4-16.03-13.4-16.03A16.653,16.653,0,0,1,526,1525c0-8.01,7.225-15,15.5-15s15.5,6.99,15.5,15A16.653,16.653,0,0,1,554.9,1531.97Z" transform="translate(-523 -1507)"/>
</svg>
