<svg xmlns="http://www.w3.org/2000/svg" width="44" height="44" viewBox="0 0 44 44">
  <defs>
    <style>
      .cls-1 {
        fill-rule: evenodd;
      }
    </style>
  </defs>
  <path id="Diagram" class="cls-1" d="M717,2652a22,22,0,1,0,22,22A22.025,22.025,0,0,0,717,2652Zm18.95,21h-4A15,15,0,0,0,718,2659.05v-4A18.975,18.975,0,0,1,735.95,2673ZM717,2686a12,12,0,1,1,12-12A12,12,0,0,1,717,2686Zm-19-12a19,19,0,0,1,17-18.89v4.04a14.99,14.99,0,1,0,10.628,27.1l2.86,2.86A18.977,18.977,0,0,1,698,2674Zm32.731,13.11-2.834-2.83a14.962,14.962,0,0,0,3.954-8.28h4.042A18.937,18.937,0,0,1,730.731,2687.11Z" transform="translate(-695 -2652)"/>
</svg>
