<svg xmlns="http://www.w3.org/2000/svg" width="44" height="44" viewBox="0 0 44 44">
  <defs>
    <style>
      .cls-1 {
        fill-rule: evenodd;
      }
    </style>
  </defs>
  <path id="Diagram" class="cls-1" d="M562.989,2586.44c0-.15.011-0.29,0.011-0.44a21.944,21.944,0,0,0-1.028-6.65,1.479,1.479,0,0,0-.2-0.6,22.1,22.1,0,0,0-2.284-4.66,1.49,1.49,0,0,0-.422-1.15,1.437,1.437,0,0,0-.645-0.36,22.876,22.876,0,0,0-3.113-3.28,1.624,1.624,0,0,0-.242-0.36,1.441,1.441,0,0,0-.646-0.36,21.993,21.993,0,1,0,8.57,18C562.988,2586.53,562.99,2586.49,562.989,2586.44Zm-13.618,6.31,10.287-10.29a19.062,19.062,0,0,1,.336,3.42l-8.744,8.75Zm-4-4,12.136-12.14a19.066,19.066,0,0,1,1.206,2.56l-11.463,11.46ZM542,2576.1c0.019-.02.043-0.02,0.061-0.04l7-7a1.177,1.177,0,0,0,.125-0.19,19.745,19.745,0,0,1,2.444,1.38L542,2579.88v-3.78Zm0-4.22v-4.83a18.955,18.955,0,0,1,4.153.68Zm0,13.5v-1.28c0.019-.02.043-0.02,0.061-0.04l11.914-11.91a18.634,18.634,0,0,1,1.816,1.94l-12.541,12.54Zm-20,.62a19,19,0,0,1,17-18.89V2586a1.49,1.49,0,0,0,.44,1.06l2.089,2.09a1.411,1.411,0,0,0,1.321,1.32l2.679,2.68a1.411,1.411,0,0,0,1.321,1.32l2.679,2.68a1.411,1.411,0,0,0,1.321,1.32l2.21,2.21A19,19,0,0,1,522,2586Zm33.207,12.59-1.836-1.84,6.008-6.01A18.952,18.952,0,0,1,555.207,2598.59Z" transform="translate(-519 -2564)"/>
</svg>
