<svg xmlns="http://www.w3.org/2000/svg" width="44" height="39" viewBox="0 0 44 39">
  <defs>
    <style>
      .cls-1 {
        fill-rule: evenodd;
      }
    </style>
  </defs>
  <path id="Dialog" class="cls-1" d="M913,3743h-9v-9a3,3,0,0,0-3-3H875a3,3,0,0,0-3,3v16a3,3,0,0,0,3,3h0.569l-0.354.89A3,3,0,0,0,878,3758a2.928,2.928,0,0,0,1.456-.38L884,3755.1v6.9a3,3,0,0,0,3,3h13.223l8.32,4.62A2.928,2.928,0,0,0,910,3770a3,3,0,0,0,2.786-4.11l-0.354-.89H913a3,3,0,0,0,3-3v-16A3,3,0,0,0,913,3743Zm-29,3v5.67l-6,3.33,2-5h-5v-16h26v9H887A3,3,0,0,0,884,3746Zm29,16h-5l2,5-9-5H887v-16h26v16Zm-22-10h18a1.5,1.5,0,0,0,0-3H891A1.5,1.5,0,0,0,891,3752Zm0,6h18a1.5,1.5,0,0,0,0-3H891A1.5,1.5,0,0,0,891,3758Z" transform="translate(-872 -3731)"/>
</svg>
