<svg xmlns="http://www.w3.org/2000/svg" width="38.532" height="39.09" viewBox="0 0 38.532 39.09">
  <defs>
    <style>
      .cls-1 {
        fill-rule: evenodd;
      }
    </style>
  </defs>
  <path id="Do_not_disturb" data-name="Do not disturb" class="cls-1" d="M825.845,3666.91l-18.1-19.02a2.862,2.862,0,0,0-.874-0.62,1.326,1.326,0,0,0-.25-0.38c-7.928-7.89-13.562-4.64-16.213-2-4.424,4.4-1.277,9.86,1.006,12.13a1.513,1.513,0,0,0,2.133,0,1.493,1.493,0,0,0,0-2.12c-0.182-.18-4.426-4.48-1.006-7.89,1.16-1.15,4.551-4.52,10.785.92a2.986,2.986,0,0,0-.7,2.73,9.787,9.787,0,0,1-.772,5.96,27.622,27.622,0,0,1-4.226,4.01,3,3,0,0,0-.238,4.46l15.086,15.03a3.051,3.051,0,0,0,4.267,0l9.052-9.02A2.994,2.994,0,0,0,825.845,3666.91ZM814.6,3677.99l-15.086-15.02s4.218-3.39,5.029-5a12.655,12.655,0,0,0,1.006-8.01l18.1,19.02Z" transform="translate(-788.156 -3641.91)"/>
</svg>
