<svg xmlns="http://www.w3.org/2000/svg" width="32" height="38" viewBox="0 0 32 38">
  <defs>
    <style>
      .cls-1 {
        fill-rule: evenodd;
      }
    </style>
  </defs>
  <path id="Document" class="cls-1" d="M458.285,1865a2.006,2.006,0,0,1,1.715.97l6.715,8A2.013,2.013,0,0,1,467,1875v20a2,2,0,0,1-2,2H443a2,2,0,0,1-2-2v-28a2,2,0,0,1,2-2h15.285m0-3H443a5,5,0,0,0-5,5v28a5,5,0,0,0,5,5h22a5,5,0,0,0,5-5v-20a4.956,4.956,0,0,0-.713-2.57,2.723,2.723,0,0,0-.274-0.39l-6.6-7.86a5.033,5.033,0,0,0-4.13-2.18h0Z" transform="translate(-438 -1862)"/>
</svg>
