<svg xmlns="http://www.w3.org/2000/svg" width="44" height="44" viewBox="0 0 44 44">
  <defs>
    <style>
      .cls-1 {
        fill-rule: evenodd;
      }
    </style>
  </defs>
  <path id="Dollar" class="cls-1" d="M102,2390a22,22,0,1,0,22,22A22.025,22.025,0,0,0,102,2390Zm0,41a19,19,0,1,1,19-19A19,19,0,0,1,102,2431Zm1-20.37v-7.94a4.679,4.679,0,0,1,1.782,1.12c0.588,0.59.611,0.93,0.611,2.3a1.5,1.5,0,0,0,3-.02,5.325,5.325,0,0,0-1.49-4.4,7.379,7.379,0,0,0-3.9-2.09V2399a1.5,1.5,0,0,0-3,0v0.81a7.107,7.107,0,0,0-5.5,7.19c0,3.73,3.028,5.56,5.5,6.21v9.1a5.028,5.028,0,0,1-2.976-4.84,1.5,1.5,0,0,0-3,0c0,4.04,2.6,7.38,5.976,7.94V2426a1.5,1.5,0,0,0,3,0v-0.69c3.007-.57,6.5-2.52,6.5-7.31C109.5,2413.69,105.511,2411.2,103,2410.63ZM97.5,2407a4.052,4.052,0,0,1,2.5-4.01v7.06A3.309,3.309,0,0,1,97.5,2407Zm5.5,15.24v-8.48c1.387,0.54,3.5,1.95,3.5,4.24A4.171,4.171,0,0,1,103,2422.24Z" transform="translate(-80 -2390)"/>
</svg>
