<svg xmlns="http://www.w3.org/2000/svg" width="44" height="44" viewBox="0 0 44 44">
  <defs>
    <style>
      .cls-1 {
        fill-rule: evenodd;
      }
    </style>
  </defs>
  <path id="Emotion" class="cls-1" d="M886,2146a2,2,0,1,0-2-2A2,2,0,0,0,886,2146Zm16,0a2,2,0,1,0-2-2A2,2,0,0,0,902,2146Zm-8-18a22,22,0,1,0,22,22A22.025,22.025,0,0,0,894,2128Zm0,41a19,19,0,1,1,19-19A19,19,0,0,1,894,2169Zm0-6a14.872,14.872,0,0,1-12.269-7.2,1.5,1.5,0,1,1,2.538-1.6,11.063,11.063,0,0,0,19.462,0,1.5,1.5,0,1,1,2.538,1.6A14.876,14.876,0,0,1,894,2163Z" transform="translate(-872 -2128)"/>
</svg>
