<svg xmlns="http://www.w3.org/2000/svg" width="32" height="32" viewBox="0 0 32 32">
  <defs>
    <style>
      .cls-1 {
        fill-rule: evenodd;
      }
    </style>
  </defs>
  <path id="Exit_full_screen" data-name="Exit full screen" class="cls-1" d="M202.583,1977.11h1.871a1.562,1.562,0,0,0,0-3.12H198.48a1.529,1.529,0,0,0-1.493,1.56v6.24a1.495,1.495,0,1,0,2.987,0v-3l6.293,6.66a1.511,1.511,0,1,0,2.133-2.14Zm-19.225.02h-1.89a1.571,1.571,0,0,1,0-3.14H187.5a1.539,1.539,0,0,1,1.509,1.57v6.29a1.51,1.51,0,1,1-3.018,0v-3.02l-6.359,6.71a1.526,1.526,0,0,1-2.156-2.16Zm19.319-14.24h1.88a1.561,1.561,0,0,1,0,3.12h-6a1.532,1.532,0,0,1-1.5-1.56v-6.24a1.5,1.5,0,1,1,3,0v3l6.324-6.66a1.526,1.526,0,0,1,2.144,0,1.511,1.511,0,0,1,0,2.14Zm-19.319-.02h-1.9a1.571,1.571,0,0,0,0,3.14h6.066a1.542,1.542,0,0,0,1.517-1.57v-6.29a1.517,1.517,0,1,0-3.033,0v3.02l-6.391-6.71a1.529,1.529,0,1,0-2.166,2.16Z" transform="translate(-177 -1954)"/>
</svg>
