<svg xmlns="http://www.w3.org/2000/svg" width="32" height="45" viewBox="0 0 32 45">
  <defs>
    <style>
      .cls-1 {
        fill-rule: evenodd;
      }
    </style>
  </defs>
  <path id="Explose" class="cls-1" d="M289.314,3040.69a15.846,15.846,0,0,0-5.372-3.54,4.913,4.913,0,0,0-4.851-4.15H279v-4c0-.05,0-3,2-3,1.4,0,1.578.97,1.98,2.61,0.357,1.45.955,4.39,4.02,4.39,3.3,0,4.5-3.19,4.5-5a1.5,1.5,0,0,0-3,0c0,0.45-.147,2-1.5,2-0.59,0-.712-0.5-1.106-2.11-0.377-1.53-1.079-4.89-4.894-4.89-2.023,0-5,2-5,6.08v4.01a4.912,4.912,0,0,0-3.942,4.06A16,16,0,1,0,289.314,3040.69Zm-2.122,20.5A13,13,0,1,1,275,3039.36v-1.45a1.906,1.906,0,0,1,1.909-1.91h2.136a1.945,1.945,0,0,1,1.955,1.91v1.45A12.99,12.99,0,0,1,287.192,3061.19ZM278,3058.5a6.689,6.689,0,0,1-6.75-6.44,1.5,1.5,0,0,0-3,0,9.725,9.725,0,0,0,9.75,9.44A1.5,1.5,0,0,0,278,3058.5Z" transform="translate(-262 -3023)"/>
</svg>
