<svg xmlns="http://www.w3.org/2000/svg" width="41" height="40" viewBox="0 0 41 40">
  <defs>
    <style>
      .cls-1 {
        fill-rule: evenodd;
      }
    </style>
  </defs>
  <path id="Facebook" class="cls-1" d="M387,2147a5,5,0,0,0-5-5h-7v-7c0-2.98-1.717-6-5-6s-5,3.02-5,6v2.76l-3.611,3.61-4.615,1.49A3,3,0,0,0,354,2141h-5a3,3,0,0,0-3,3v22a3,3,0,0,0,3,3h5a3,3,0,0,0,3-3v-0.39l4.336,2.89a3.067,3.067,0,0,0,1.664.5h19a5,5,0,0,0,5-5v-1a3.006,3.006,0,0,1,0-3v-3a3.006,3.006,0,0,1,0-3v-3a3.006,3.006,0,0,1,0-3v-1Zm-33,19h-5v-22h5v22Zm30-18h-1.5a1.5,1.5,0,0,0,0,3H384v3h-1.5a1.5,1.5,0,0,0,0,3H384v3h-1.5a1.5,1.5,0,0,0,0,3H384v1a2,2,0,0,1-2,2H363l-6-4v-16.06l6-1.94,5-5v-4s0-3,2-3,2,3,2,3v10h10a2,2,0,0,1,2,2v1Z" transform="translate(-346 -2129)"/>
</svg>
