<svg xmlns="http://www.w3.org/2000/svg" width="42" height="39" viewBox="0 0 42 39">
  <defs>
    <style>
      .cls-1 {
        fill-rule: evenodd;
      }
    </style>
  </defs>
  <path id="Filter" class="cls-1" d="M696.5,1340h2.713a5.494,5.494,0,0,0,10.574,0H735.5a1.5,1.5,0,0,0,0-3H709.787a5.494,5.494,0,0,0-10.574,0H696.5A1.5,1.5,0,0,0,696.5,1340Zm8-4a2.5,2.5,0,1,1-2.5,2.5A2.5,2.5,0,0,1,704.5,1336Zm31,15H721.118a5.492,5.492,0,0,0-10.236,0H696.5a1.5,1.5,0,0,0,0,3h14.1a5.495,5.495,0,0,0,10.808,0h14.1A1.5,1.5,0,0,0,735.5,1351Zm-19.5,4.5a2.5,2.5,0,1,1,2.5-2.5A2.5,2.5,0,0,1,716,1355.5Zm19.5,9.5h-2.713a5.494,5.494,0,0,0-10.574,0H696.5a1.5,1.5,0,0,0,0,3h25.713a5.494,5.494,0,0,0,10.574,0H735.5A1.5,1.5,0,0,0,735.5,1365Zm-8,4a2.5,2.5,0,1,1,2.5-2.5A2.5,2.5,0,0,1,727.5,1369Z" transform="translate(-695 -1333)"/>
</svg>
