<svg xmlns="http://www.w3.org/2000/svg" width="42.906" height="24" viewBox="0 0 42.906 24">
  <defs>
    <style>
      .cls-1 {
        fill-rule: evenodd;
      }
    </style>
  </defs>
  <path id="Fish" class="cls-1" d="M912.836,3311c0-3.42,2.627-7.03,2.681-7.1a1.509,1.509,0,0,0-.049-1.86,1.487,1.487,0,0,0-1.809-.38c-2.248,1.13-6.563,3.49-8.986,6.02-2.328-2.97-7.648-8.68-14.168-8.68-3.612,0-7.478,1.76-11.49,5.22a37.68,37.68,0,0,0-4.755,4.94l-1.318,1.7,1.191,1.8c0.279,0.43,6.947,10.34,16.372,10.34,7.161,0,12.144-5.65,14.306-8.68,2.468,2.27,6.727,4.17,8.962,5.07a1.339,1.339,0,0,0,.551.11,1.484,1.484,0,0,0,1.244-.67,1.512,1.512,0,0,0-.19-1.89A9.686,9.686,0,0,1,912.836,3311Zm-22.331,9c-7.94,0-13.895-9-13.895-9s6.948-9,13.895-9c5.877,0,11.45,6.02,12.9,8a13.351,13.351,0,0,0,0,2C902.083,3314.07,897.132,3320,890.505,3320Zm20-5.45a18.835,18.835,0,0,1-4.114-2.78l0.023-1.64a22.185,22.185,0,0,1,4.245-3.32,12.6,12.6,0,0,0-.8,4.19A10.384,10.384,0,0,0,910.5,3314.55ZM887.528,3309h-3.97a1.5,1.5,0,0,0,0,3h3.97A1.5,1.5,0,0,0,887.528,3309Z" transform="translate(-872.938 -3299)"/>
</svg>
