<svg xmlns="http://www.w3.org/2000/svg" width="32" height="32" viewBox="0 0 32 32">
  <defs>
    <style>
      .cls-1 {
        fill-rule: evenodd;
      }
    </style>
  </defs>
  <path id="Full_screen" data-name="Full screen" class="cls-1" d="M92.583,1957.11h1.871a1.561,1.561,0,0,0,0-3.12H88.48a1.529,1.529,0,0,0-1.493,1.56v6.24a1.495,1.495,0,1,0,2.987,0v-3l6.293,6.66a1.511,1.511,0,1,0,2.134-2.14Zm20.775,0.02h-1.89a1.571,1.571,0,0,1,0-3.14H117.5a1.539,1.539,0,0,1,1.509,1.57v6.29a1.51,1.51,0,1,1-3.018,0v-3.02l-6.359,6.71a1.526,1.526,0,1,1-2.156-2.16Zm-20.775,25.76h1.871a1.561,1.561,0,0,1,0,3.12H88.48a1.529,1.529,0,0,1-1.493-1.56v-6.24a1.495,1.495,0,1,1,2.987,0v3l6.293-6.66a1.511,1.511,0,1,1,2.134,2.14Zm20.775-.02h-1.89a1.571,1.571,0,0,0,0,3.14H117.5a1.539,1.539,0,0,0,1.509-1.57v-6.29a1.51,1.51,0,1,0-3.018,0v3.02l-6.359-6.71a1.526,1.526,0,1,0-2.156,2.16Z" transform="translate(-87 -1954)"/>
</svg>
