<svg xmlns="http://www.w3.org/2000/svg" width="42" height="43" viewBox="0 0 42 43">
  <defs>
    <style>
      .cls-1 {
        fill-rule: evenodd;
      }
    </style>
  </defs>
  <path id="Galaxy" class="cls-1" d="M827,3574a1.5,1.5,0,0,0-3,0c0,1.38-.491,13-17.5,13-18,0-18.5-10.88-18.5-11,0-1.08.322-11,11.5-11,11.9,0,11.5,7.58,11.5,9,0,3.31-4.115,6-7.5,6-3.348,0-6.5-3.04-6.5-5,0-2.09,2.327-4,4.5-4a3.4,3.4,0,0,1,3,2c-0.091.39-.043,1.5-1,1.5a2.425,2.425,0,0,1-.607-0.06A1.5,1.5,0,0,0,800,3575c0,0.86.731,2,3.5,2a3.835,3.835,0,0,0,4-4c0-1.81-2.229-5-6-5-3.607,0-7.5,2.99-7.5,7,0,3.86,4.617,8,9.5,8,4.7,0,10.5-3.53,10.5-9,0-1.18.565-12-14.5-12-14.335,0-14.5,13.45-14.5,14,0,4.03,3.862,14,21.5,14C822.683,3590,827,3580.13,827,3574Zm-11.5-12a4.5,4.5,0,1,0-4.5-4.5A4.506,4.506,0,0,0,815.5,3562Zm0-6a1.5,1.5,0,1,1-1.5,1.5A1.5,1.5,0,0,1,815.5,3556Zm6.5,11a1.5,1.5,0,1,0-1.5-1.5A1.5,1.5,0,0,0,822,3567Zm-22-11a1.5,1.5,0,1,0-1.5-1.5A1.5,1.5,0,0,0,800,3556Zm-7,4a1.5,1.5,0,1,0-1.5-1.5A1.5,1.5,0,0,0,793,3560Zm30,28a1.5,1.5,0,1,0,1.5,1.5A1.5,1.5,0,0,0,823,3588Zm-36-23a1.5,1.5,0,1,0-1.5-1.5A1.5,1.5,0,0,0,787,3565Zm19-3a1.5,1.5,0,1,0-1.5-1.5A1.5,1.5,0,0,0,806,3562Zm-15.5,26a1.5,1.5,0,1,0,1.5,1.5A1.5,1.5,0,0,0,790.5,3588Zm10.5,4a1.5,1.5,0,1,0,1.5,1.5A1.5,1.5,0,0,0,801,3592Zm12,1a1.5,1.5,0,1,0,1.5,1.5A1.5,1.5,0,0,0,813,3593Zm4.5-16.5a1.5,1.5,0,1,0,1.5-1.5A1.5,1.5,0,0,0,817.5,3576.5Z" transform="translate(-785 -3553)"/>
</svg>
