<svg xmlns="http://www.w3.org/2000/svg" width="48" height="41" viewBox="0 0 48 41">
  <defs>
    <style>
      .cls-1 {
        fill-rule: evenodd;
      }
    </style>
  </defs>
  <path id="Gamburger" class="cls-1" d="M180.5,3389.93a1.505,1.505,0,1,0-1.5-1.51A1.508,1.508,0,0,0,180.5,3389.93Zm10,0a1.505,1.505,0,1,0-1.5-1.51A1.508,1.508,0,0,0,190.5,3389.93Zm6-5.01a1.505,1.505,0,1,0-1.5-1.51A1.508,1.508,0,0,0,196.5,3384.92Zm6,5.01a1.505,1.505,0,1,0-1.5-1.51A1.508,1.508,0,0,0,202.5,3389.93Zm-17-5.01a1.505,1.505,0,1,0-1.5-1.51A1.508,1.508,0,0,0,185.5,3384.92Zm29.5,12.02a2.984,2.984,0,0,0-1.4-2.53c-1.144-6.21-5.56-18.42-22.6-18.42-16.816,0-21.338,12.09-22.553,18.39a3,3,0,0,0-1.447,2.56v3.01a2.956,2.956,0,0,0,.416,1.5,2.993,2.993,0,0,0-.416,1.51v3a2.985,2.985,0,0,0,1.413,2.54,10.586,10.586,0,0,0,5.116,6.97,12.088,12.088,0,0,0,5.471,1.52h23c6.385,0,9.7-4.37,11.138-8.25a3,3,0,0,0,1.862-2.78v-3a2.993,2.993,0,0,0-.416-1.51,2.956,2.956,0,0,0,.416-1.5v-3.01Zm-23.019,0H208l-6,6.02ZM210,3398.95a3.877,3.877,0,0,0,1-2.01c0.027,0.41,0,1,0,1v2.01h-2Zm-19.561.57,0.715,0.43H171v-2.01s0-.37.055-1H188.99A3,3,0,0,0,190.439,3399.52ZM171,3402.96a3.617,3.617,0,0,0,1,2l1,1h-2C170.976,3405.63,171,3403.48,171,3402.96Zm2.983,0h14.033l-7.965,6.08Zm15.852,2.39a3.008,3.008,0,0,0,1.18-2.39h5.147l4.3,2.57a2.99,2.99,0,0,0,3.663-.45l2.122-2.12H211v2s-0.048.39-.185,1H189.029ZM191,3378.9c14.092,0,18.251,9.45,19.48,15.04H171.52C172.75,3388.35,176.908,3378.9,191,3378.9Zm11,35.08H179s-5.391-.01-7.318-5.01h4.058l2.19,2.19a2.963,2.963,0,0,0,2.122.88,3,3,0,0,0,1.817-.61l3.131-2.46h25A8.656,8.656,0,0,1,202,3413.98Z" transform="translate(-167 -3376)"/>
</svg>
