<svg xmlns="http://www.w3.org/2000/svg" width="38" height="40" viewBox="0 0 38 40">
  <defs>
    <style>
      .cls-1 {
        fill-rule: evenodd;
      }
    </style>
  </defs>
  <path id="Gift" class="cls-1" d="M294,3122a2.14,2.14,0,0,0,1.25-2.17c0-2.31-1.688-4.83-6.25-4.83-1.7,0-2.806-.33-6,2l1.221-1.6a1.52,1.52,0,0,0-.349-2.11,1.488,1.488,0,0,0-2.093.35L278,3119l-2.7-5.23a1.5,1.5,0,0,0-2.047-.57,1.529,1.529,0,0,0-.559,2.07l0.68,1.21A14.99,14.99,0,0,0,267,3115a6.728,6.728,0,0,0-4.3,1.33,4.306,4.306,0,0,0-1.955,3.5A2.191,2.191,0,0,0,262,3122c-1.27.35-3,1.5-3,2.83v3.87a3.264,3.264,0,0,0,3,3.31v17.95a3.017,3.017,0,0,0,3,3.03h26a3.017,3.017,0,0,0,3-3.03v-17.95a3.264,3.264,0,0,0,3-3.31v-3.87C297,3123.5,295.27,3122.35,294,3122Zm-1.75-2.17A2,2,0,0,1,290,3122H280a13.179,13.179,0,0,1,9-4C291.545,3118,292.25,3119.1,292.25,3119.83ZM262,3125h14v4.02H262V3125Zm5-7a13.065,13.065,0,0,1,9,4H266a2.087,2.087,0,0,1-2.25-2.12C263.75,3119.15,264.413,3118,267,3118Zm-2,14.01h11v17.95H265v-17.95Zm26,17.95H279v-17.95h12v17.95Zm3-20.94H279V3125h15v4.02Z" transform="translate(-259 -3113)"/>
</svg>
