<svg xmlns="http://www.w3.org/2000/svg" width="44" height="29" viewBox="0 0 44 29">
  <defs>
    <style>
      .cls-1 {
        fill-rule: evenodd;
      }
    </style>
  </defs>
  <path id="Glasses" class="cls-1" d="M916.152,3660.05l-10-12.49a1.48,1.48,0,0,0-2.112-.2,1.544,1.544,0,0,0-.192,2.15l8.366,10.5H877.951l8.154-10.45a1.538,1.538,0,0,0-.091-2.15,1.482,1.482,0,0,0-2.119.09l-10,12.5c0.279-.31-0.895,2.73-0.895,3.01v2.81a10.1,10.1,0,0,0,10,10.17,9.987,9.987,0,0,0,10-8.99h4a9.987,9.987,0,0,0,10,8.99,10.1,10.1,0,0,0,10-10.17v-2.81C917,3662.77,915.853,3659.69,916.152,3660.05ZM897,3663.01v1h-4v-1h4Zm-7,2.81a7,7,0,1,1-14,0v-2.81h14v2.81Zm24,0a7,7,0,1,1-14,0v-2.81h14v2.81Zm-31,6.61a1.157,1.157,0,0,0,.365-0.05,6.833,6.833,0,0,0,5.136-6.56,1.5,1.5,0,1,0-3,0,3.807,3.807,0,0,1-2.873,3.61,1.528,1.528,0,0,0-1.082,1.85A1.5,1.5,0,0,0,883,3672.43Zm24,0a1.157,1.157,0,0,0,.365-0.05,6.833,6.833,0,0,0,5.136-6.56,1.5,1.5,0,1,0-3,0,3.807,3.807,0,0,1-2.873,3.61,1.528,1.528,0,0,0-1.082,1.85A1.5,1.5,0,0,0,907,3672.43Z" transform="translate(-873 -3647)"/>
</svg>
