<svg xmlns="http://www.w3.org/2000/svg" width="44" height="44" viewBox="0 0 44 44">
  <defs>
    <style>
      .cls-1 {
        fill-rule: evenodd;
      }
    </style>
  </defs>
  <path id="Globe" class="cls-1" d="M806,1683a22,22,0,1,0,22,22A22.025,22.025,0,0,0,806,1683Zm18.95,21H818c-0.3-6.57-3.092-13.29-7.76-17.51A18.993,18.993,0,0,1,824.95,1704ZM804,1688.11V1704h-7C797.286,1697.73,799.757,1691.61,804,1688.11Zm0,18.89v14.73c-3.947-3.48-6.431-9.13-7-14.73h7Zm3,15.19V1707h8C814.345,1712.69,811.392,1718.69,807,1722.19Zm0-18.19v-16.32c4.723,3.49,7.67,9.97,8,16.32h-8Zm-5.848-17.35c-4.383,4.15-6.879,10.7-7.152,17.35h-6.95A18.971,18.971,0,0,1,801.152,1686.65ZM787.107,1707H794c0.557,6.12,3.186,12.35,7.428,16.42A18.984,18.984,0,0,1,787.107,1707Zm22.9,16.57A26.435,26.435,0,0,0,818,1707h7A19.129,19.129,0,0,1,810.007,1723.57Z" transform="translate(-784 -1683)"/>
</svg>
