<svg xmlns="http://www.w3.org/2000/svg" width="44" height="44" viewBox="0 0 44 44">
  <defs>
    <style>
      .cls-1 {
        fill-rule: evenodd;
      }
    </style>
  </defs>
  <path id="Guitar" class="cls-1" d="M124.5,3036a1.5,1.5,0,1,0,1.5,1.5A1.5,1.5,0,0,0,124.5,3036Zm-7.3-9.2a3,3,0,0,0-4.243,0l-3.081,3.08a2.989,2.989,0,0,0-.518,3.52l-4.679,4.68a2.652,2.652,0,0,0-.395.49A9.947,9.947,0,0,0,101,3038a10.051,10.051,0,0,0-9.21,6.13,11.5,11.5,0,1,0,13.083,13.08A10.041,10.041,0,0,0,111,3048a9.881,9.881,0,0,0-.829-3.97,3.128,3.128,0,0,0,.253-0.21l4.679-4.68a3.012,3.012,0,0,0,1.4.36,2.972,2.972,0,0,0,2.121-.88l3.082-3.08a3,3,0,0,0,0-4.24Zm-15.232,28.12c0.013,0.2.029,0.39,0.029,0.58a8.5,8.5,0,1,1-8.5-8.5c0.194,0,.384.02,0.575,0.03a6.988,6.988,0,0,1,10.207-5.21,7.139,7.139,0,0,1,2.7,2.56A6.914,6.914,0,0,1,108,3048,6.985,6.985,0,0,1,101.971,3054.92Zm6.573-13.46a10.028,10.028,0,0,0-1.555-1.45l4.39-4.39,1.5,1.5Zm7.956-4.96L112,3032l3.081-3.08,4.5,4.5Zm-15.5,6.49a5.005,5.005,0,1,0,3.537,1.47A4.991,4.991,0,0,0,101,3042.99Zm1.413,6.42a2,2,0,1,1,0-2.83A2,2,0,0,1,102.415,3049.41Zm-11.355,1.53a1.5,1.5,0,0,0-2.121,2.12l7,7a1.5,1.5,0,0,0,2.121-2.12ZM120.5,3039a1.5,1.5,0,1,0,1.5,1.5A1.5,1.5,0,0,0,120.5,3039Zm-13-9a1.5,1.5,0,1,0-1.5-1.5A1.5,1.5,0,0,0,107.5,3030Zm3-4a1.5,1.5,0,1,0-1.5-1.5A1.5,1.5,0,0,0,110.5,3026Z" transform="translate(-82 -3023)"/>
</svg>
