<svg height="496pt" viewBox="-1 0 496 496" width="496pt" xmlns="http://www.w3.org/2000/svg" xmlns:xlink="http://www.w3.org/1999/xlink"><linearGradient id="a" gradientUnits="userSpaceOnUse" x1="246.7112" x2="246.7112" y1="496" y2="0"><stop offset="0" stop-color="#9f2fff"/><stop offset="1" stop-color="#0bb1d3"/></linearGradient><path d="m120 368c29.457031 0 56.425781-10.710938 77.335938-28.382812l69.542968 34.773437c-1.839844 5.539063-2.878906 11.449219-2.878906 17.609375 0 30.878906 25.121094 56 56 56s56-25.121094 56-56-25.121094-56-56-56c-19.015625 0-35.824219 9.542969-45.953125 24.078125l-64.640625-32.316406c18.960938-21.234375 30.59375-49.128907 30.59375-79.761719s-11.632812-58.527344-30.59375-79.761719l64.640625-32.316406c10.128906 14.535156 26.9375 24.078125 45.953125 24.078125 30.878906 0 56-25.121094 56-56s-25.121094-56-56-56-56 25.121094-56 56c0 6.160156 1.039062 12.0625 2.878906 17.617188l-69.542968 34.773437c-20.902344-17.679687-47.878907-28.390625-77.335938-28.390625-66.167969 0-120 53.832031-120 120s53.832031 120 120 120zm200-16c22.054688 0 40 17.945312 40 40s-17.945312 40-40 40-40-17.945312-40-40 17.945312-40 40-40zm0-288c22.054688 0 40 17.945312 40 40s-17.945312 40-40 40-40-17.945312-40-40 17.945312-40 40-40zm-292.167969 232h11.984375c22.648438 0 43.960938-12.0625 55.609375-31.488281 3.140625-5.246094 8.910157-8.511719 15.039063-8.511719 9.671875 0 17.535156 7.863281 17.535156 17.976562 0 2.710938-.640625 5.421876-1.847656 7.839844-9.257813 18.511719-14.152344 39.230469-14.152344 59.925782v9.851562c-36.625-2.808594-67.960938-24.601562-84.167969-55.59375zm96.96875-94.398438c7.222657-9.632812 11.199219-21.5625 11.199219-33.601562v-22.640625c24.175781 3.761719 45.574219 15.824219 61.238281 33.242187l-15.230469 2.175782c-17.097656 2.4375-30.007812 17.3125-30.03125 34.589844v2.527343c-.015624 11.488281 5.679688 22.144531 15.535157 28.714844 5.3125 3.558594 8.488281 9.460937 8.488281 15.816406v18.949219c0 6.410156 2.496094 12.441406 7.03125 16.976562l16.511719 16.511719c-17.480469 20.761719-42.902344 34.535157-71.542969 36.738281v-9.847656c0-18.226562 4.3125-36.472656 12.464844-52.777344 2.3125-4.640624 3.535156-9.824218 3.535156-15.441406 0-18.488281-15.046875-33.535156-33.535156-33.535156-11.710938 0-22.738282 6.238281-28.761719 16.28125-8.78125 14.628906-24.832031 23.71875-41.886719 23.71875h-18.71875c-2.480468-7.648438-4.050781-15.695312-4.683594-24h23.105469c13.382813 0 25-9.070312 28.257813-22.054688 1.445312-5.855468 6.6875-9.945312 12.71875-9.945312 17.214844 0 33.671875-8.222656 44.304687-22.398438zm84.136719 100.023438-14.601562-14.601562c-1.503907-1.503907-2.335938-3.519532-2.335938-5.65625v-18.953126c0-11.703124-5.839844-22.589843-15.921875-29.316406-5.085937-3.394531-8.117187-9.066406-8.109375-15.1875v-2.527344c.007812-9.375 7.015625-17.4375 16.304688-18.765624l23.949218-3.425782c9.9375 15.9375 15.777344 34.679688 15.777344 54.808594 0 19.632812-5.566406 37.945312-15.0625 53.625zm-88.9375-157.625v24c0 8.601562-2.839844 17.128906-8.296875 24.390625-7.328125 9.777344-19 15.609375-31.207031 15.609375-13.382813 0-25 9.070312-28.257813 22.054688-1.460937 5.855468-6.703125 9.945312-12.734375 9.945312h-23.097656c4.105469-53.609375 48.945312-96 103.59375-96zm200-16c13.230469 0 24-10.769531 24-24s-10.769531-24-24-24-24 10.769531-24 24 10.769531 24 24 24zm0-32c4.40625 0 8 3.59375 8 8s-3.59375 8-8 8-8-3.59375-8-8 3.59375-8 8-8zm0 320c13.230469 0 24-10.769531 24-24s-10.769531-24-24-24-24 10.769531-24 24 10.769531 24 24 24zm0-32c4.40625 0 8 3.59375 8 8s-3.59375 8-8 8-8-3.59375-8-8 3.59375-8 8-8zm-222.863281-267.929688-13.160157-9.109374c4.359376-6.296876 9.046876-12.441407 13.933594-18.265626l12.257813 10.289063c-4.566407 5.457031-8.953125 11.199219-13.03125 17.085937zm26.816406-32.117187-11.3125-11.320313c5.230469-5.226562 10.75-10.273437 16.390625-14.992187l10.265625 12.269531c-5.289063 4.425782-10.449219 9.144532-15.34375 14.042969zm32.582031-27.136719-9.078125-13.167968c41.4375-28.558594 90.039063-43.648438 140.542969-43.648438 71.167969 0 137.023438 29.617188 184 81.832031v-41.832031h16v72h-72v-16h47.214844c-44.125-51.007812-107.078125-80-175.214844-80-47.246094 0-92.710938 14.113281-131.464844 40.816406zm323.640625 321.191406 13.238281 8.976563c-4.367187 6.449219-9.101562 12.757813-14.054687 18.769531l-12.34375-10.179687c4.648437-5.621094 9.074219-11.535157 13.160156-17.566407zm-44.609375 49.015626c5.691406-4.6875 11.234375-9.726563 16.480469-14.976563l11.3125 11.320313c-5.605469 5.601562-11.527344 10.984374-17.605469 16zm-275.566406-27.023438h-47.214844c44.125 51.007812 107.078125 80 175.214844 80 44.921875 0 88.496094-12.855469 126.007812-37.175781l8.703126 13.433593c-40.109376 26-86.695313 39.742188-134.710938 39.742188-71.167969 0-137.023438-29.617188-184-81.832031v41.832031h-16v-72h72zm0 0" fill="url(#a)"/></svg>