<svg xmlns="http://www.w3.org/2000/svg" width="32" height="43" viewBox="0 0 32 43">
  <defs>
    <style>
      .cls-1 {
        fill-rule: evenodd;
      }
    </style>
  </defs>
  <path id="Icecream" class="cls-1" d="M294,3393.26a9.377,9.377,0,0,0-8.148-9.11c-0.695-4.24-3.784-7.15-7.852-7.15a9.146,9.146,0,0,0-8.8,7.13c-4.32.77-7.2,4.31-7.2,9.13a9.742,9.742,0,0,0,4.021,7.87,2.837,2.837,0,0,0,.23,1.07l7,16A3.006,3.006,0,0,0,276,3420h4a2.993,2.993,0,0,0,2.774-1.86l2.041-4.95,4.921-10.96a2.87,2.87,0,0,0,.243-1.1A9.744,9.744,0,0,0,294,3393.26ZM282.06,3412h-8.247l-1.313-3h10.907ZM276,3417l-0.875-2h5.7L280,3417h-4Zm8.754-11H271.187l-1.4-3.2a9.67,9.67,0,0,0,1.953.2h12.518a10.211,10.211,0,0,0,1.93-.19Zm-0.5-6H271.741a6.742,6.742,0,0,1-6.741-6.74c0-3.72,2.277-6.28,6-6.28a2.563,2.563,0,0,0,1-.98,6.165,6.165,0,0,1,6-6c3.191,0,5,2.81,5,6a1.4,1.4,0,0,0,1,1c3.723,0,7,2.54,7,6.26A6.742,6.742,0,0,1,284.259,3400Z" transform="translate(-262 -3377)"/>
</svg>
