<svg xmlns="http://www.w3.org/2000/svg" width="35" height="37" viewBox="0 0 35 37">
  <defs>
    <style>
      .cls-1 {
        fill-rule: evenodd;
      }
    </style>
  </defs>
  <path id="Increase" class="cls-1" d="M278.941,1964v-8.97l1.785,1.79a1.439,1.439,0,0,0,2.076,0,1.5,1.5,0,0,0,.43-1.06,1.533,1.533,0,0,0-.43-1.06l-4.153-4.23a1.439,1.439,0,0,0-2.076,0l-4.152,4.23a1.52,1.52,0,0,0,0,2.12,1.439,1.439,0,0,0,2.076,0L276,1955l-0.034,9C275.966,1968.13,278.941,1966.48,278.941,1964Zm0,6.01-2.975,0M294,1967c0.828,0,1-.61,1-1.46a1.521,1.521,0,0,0-1.5-1.54h-32a1.521,1.521,0,0,0-1.5,1.54c0,0.85,1.172,1.46,2,1.46m14.059,6.01V1982l-1.785-1.8a1.439,1.439,0,0,0-2.076,0,1.5,1.5,0,0,0-.43,1.06,1.533,1.533,0,0,0,.43,1.06l4.153,4.24a1.439,1.439,0,0,0,2.076,0l4.152-4.24a1.52,1.52,0,0,0,0-2.12,1.439,1.439,0,0,0-2.076,0l-1.5,1.82,0.033-9.01C279.033,1968.87,276.059,1970.52,276.059,1973.01Zm0-6.02,2.974,0M261,1970c-0.828,0-1,.61-1,1.46a1.53,1.53,0,0,0,1.5,1.55h32a1.53,1.53,0,0,0,1.5-1.55c0-.85-1.172-1.46-2-1.46" transform="translate(-260 -1950.03)"/>
</svg>
