<svg xmlns="http://www.w3.org/2000/svg" width="43" height="43" viewBox="0 0 43 43">
  <defs>
    <style>
      .cls-1 {
        fill-rule: evenodd;
      }
    </style>
  </defs>
  <path id="Joystick" class="cls-1" d="M727.5,3045.01a1.505,1.505,0,1,0-1.5-1.5A1.5,1.5,0,0,0,727.5,3045.01Zm0,3a1.5,1.5,0,1,0,1.5,1.5A1.5,1.5,0,0,0,727.5,3048.01Zm3-3a1.5,1.5,0,1,0,1.5,1.5A1.5,1.5,0,0,0,730.5,3045.01Zm-6,0a1.5,1.5,0,1,0,1.5,1.5A1.5,1.5,0,0,0,724.5,3045.01Zm12.314-1.58a6.368,6.368,0,0,0-.21-0.64l-0.543-2.08A8.637,8.637,0,0,0,728,3036a13.6,13.6,0,0,0-5.008.58,3.02,3.02,0,0,0-2.493-2.9c0.083-.89,1.545-2.58,6.5-2.58,3.2,0,5.453-.89,6.709-2.65a6.53,6.53,0,0,0,.714-5.41,1.487,1.487,0,0,0-1.9-.96,1.518,1.518,0,0,0-.948,1.92,3.446,3.446,0,0,1-.3,2.67c-0.822,1.16-2.779,1.4-4.275,1.4-9.391,0-9.5,5.33-9.5,5.56a0.414,0.414,0,0,0,0,.05,3.022,3.022,0,0,0-2.5,2.9,11.482,11.482,0,0,0-4.585-.58,9.084,9.084,0,0,0-9.234,7.38l-4.062,13.65-0.127.43v0.45a7.14,7.14,0,0,0,7,7.08,6.863,6.863,0,0,0,3.573-1.01l0.255,0.12,1.5-1.6L716,3055h6l5.632,7.8,0.028,0.04,0.029,0.04a6.377,6.377,0,0,0,5.311,2.11,7.051,7.051,0,0,0,7-7.08C740,3057.45,740,3057.32,736.814,3043.43ZM718,3038.52v-1.85h2v1.81c0.039,0.02.073,0.06,0.112,0.08a8.634,8.634,0,0,0-.948,1.14h-0.329a8.1,8.1,0,0,0-.973-1.16A0.647,0.647,0,0,1,718,3038.52Zm15,23.46a3.509,3.509,0,0,1-3-1.02l-7.038-8.97h-8.044l-7.793,8.45-0.019-.01a3.962,3.962,0,0,1-3.106,1.52,4.162,4.162,0,0,1-4-4.04l4.107-13.81A5.723,5.723,0,0,1,710,3039c2.926,0,6.156,1.4,7,4h4c0.844-2.6,4.009-4,7-4,5.592,0,6.093,6.36,5.878,5.18,0,0,3.122,13.55,3.122,13.79A4,4,0,0,1,733,3061.98Zm-20-17.22h-2v-2.03a1.5,1.5,0,1,0-3,0v2.03h-2a1.515,1.515,0,0,0,0,3.03h2v2.03a1.5,1.5,0,1,0,3,0v-2.03h2A1.515,1.515,0,0,0,713,3044.76Z" transform="translate(-697 -3022)"/>
</svg>
