<svg xmlns="http://www.w3.org/2000/svg" width="46" height="42" viewBox="0 0 46 42">
  <defs>
    <style>
      .cls-1 {
        fill-rule: evenodd;
      }
    </style>
  </defs>
  <path id="Karaoke" class="cls-1" d="M916.986,3040.04a11.215,11.215,0,0,0-22.428,0,10.836,10.836,0,0,0,.612,3.57l-7.482,13.12a4.946,4.946,0,0,0,.861,6.02,1.525,1.525,0,0,1-.145.18,3.319,3.319,0,0,1-2.668.3c-6.9-1.16-7.687,2.82-7.718,2.99a1.522,1.522,0,0,0,1.246,1.75,2.363,2.363,0,0,0,.263.02,1.527,1.527,0,0,0,1.5-1.25c0-.01.695-1.14,4.184-0.54,2.349,0.4,4.144.02,5.329-1.12a4.169,4.169,0,0,0,.474-0.56,5.052,5.052,0,0,0,2.2.51,5.123,5.123,0,0,0,3.893-1.78c0.02-.02.039-0.05,0.059-0.07L907,3051.01A11.114,11.114,0,0,0,916.986,3040.04Zm-3.058,0a7.917,7.917,0,0,1-.344,2.3,1.543,1.543,0,0,0-1.213-.07,9.383,9.383,0,0,1-7.1-.92c-2.618-1.36-3.853-5.47-4.108-6.95a1.465,1.465,0,0,0-.348-0.72,8.19,8.19,0,0,1,4.956-1.67A8.1,8.1,0,0,1,913.928,3040.04Zm-19.147,21.27a2.075,2.075,0,0,1-1.558.71c-0.426,0-2.742-1.28-3.012-2.15a1.969,1.969,0,0,1,.143-1.67l6.532-11.45a11.3,11.3,0,0,0,6.382,4.05Zm10.991-13.24a8.09,8.09,0,0,1-8.155-8.03,7.846,7.846,0,0,1,.892-3.63c0.611,2.13,2.112,5.93,5.344,7.6a13.567,13.567,0,0,0,6.267,1.58,11.154,11.154,0,0,0,1.647-.12A8.159,8.159,0,0,1,905.772,3048.07Zm-7.307,2.39a1.538,1.538,0,0,0-2.12.42l-2.039,3.01a1.516,1.516,0,0,0,1.271,2.34,1.545,1.545,0,0,0,1.273-.67l2.039-3.01A1.491,1.491,0,0,0,898.465,3050.46Zm-17.564-3.22a1.492,1.492,0,0,0,.061-0.41v-10.87l8.023-5.54v7.48a6.839,6.839,0,0,0-1.93-.38,4.076,4.076,0,0,0-1.766.51,5.417,5.417,0,0,0-2.6,2.2,4.438,4.438,0,0,0-.361,3.94,4.507,4.507,0,0,0,4.265,2.75,5.558,5.558,0,0,0,4.673-2.62c0.688-1.15.725-4.24,0.725-4.57v-12.19a1.543,1.543,0,0,0-.8-1.35,1.515,1.515,0,0,0-1.55.09l-11.031,7.62a1.518,1.518,0,0,0-.657,1.26v7.81a5.093,5.093,0,0,0-1.621-.28h0a5.361,5.361,0,0,0-2.074.42,4.8,4.8,0,0,0-2.959,6.13,4.5,4.5,0,0,0,4.265,2.75,5.548,5.548,0,0,0,2.075-.41A5.043,5.043,0,0,0,880.9,3047.24Zm6.334-3.72a1.67,1.67,0,0,1-.64.35,1.517,1.517,0,0,1-1.475-.84,1.842,1.842,0,0,1,1.3-2.18,1.543,1.543,0,0,1,.639-0.32,2.119,2.119,0,0,1,1.784.97C889.15,3042.28,888.268,3043.1,887.235,3043.52Zm-10.723,5.23a2.538,2.538,0,0,1-.948.2,1.511,1.511,0,0,1-1.476-.85,1.833,1.833,0,0,1,1.3-2.17,2.516,2.516,0,0,1,.948-0.19,1.5,1.5,0,0,1,1.475.84A1.833,1.833,0,0,1,876.512,3048.75Z" transform="translate(-871 -3026)"/>
</svg>
