<svg xmlns="http://www.w3.org/2000/svg" width="41" height="45" viewBox="0 0 41 45">
  <defs>
    <style>
      .cls-1 {
        fill-rule: evenodd;
      }
    </style>
  </defs>
  <path id="Kayak" class="cls-1" d="M474.12,3147.59l-3.5-3.53a3.88,3.88,0,0,0-4.664-.68l-3.913-3.8c0.406-.89.79-1.78,1.148-2.65a59.714,59.714,0,0,0,4.223-15.17c0.649-5.7-.482-9.2-3.362-10.4a4.8,4.8,0,0,0-1.843-.37h0c-4.859,0-10.143,7.61-13.822,15.34l-3.487-3.38a4,4,0,0,0-.957-4.02l-3.5-3.53a2.944,2.944,0,0,0-4.2,0l-1.4,1.41a3.008,3.008,0,0,0,0,4.23l3.5,3.53a3.893,3.893,0,0,0,2.8,1.17,3.949,3.949,0,0,0,1.853-.48l4.087,3.96q-0.177.42-.348,0.84a59.749,59.749,0,0,0-4.222,15.17c-0.649,5.7.482,9.2,3.362,10.4a4.8,4.8,0,0,0,1.843.37c4.49,0,9.342-6.5,12.957-13.59l3.384,3.28a4.02,4.02,0,0,0-.2,1.19,3.966,3.966,0,0,0,1.159,2.82l3.5,3.53a2.943,2.943,0,0,0,4.2,0l1.4-1.41A3.008,3.008,0,0,0,474.12,3147.59Zm-37.172-28.66,1.4-1.42,2.621,2.65a1.4,1.4,0,0,0-1.034,1.78Zm25.263-4.94a1.854,1.854,0,0,1,.707.13c3.029,1.27,1.925,10.97-2.467,21.67-0.222.54-.449,1.06-0.678,1.59l-0.77-.75c0.236-.48.43-0.92,0.576-1.28,2.1-5.12,1.657-9.03-1.162-10.21a3.577,3.577,0,0,0-1.41-.28h0c-2.474,0-4.346,2.39-5.515,4.48l-0.842-.81C454.55,3120,459.317,3113.99,462.211,3113.99Zm-9.663,20.53,2.709,2.63c-0.807,1.16-1.63,1.88-2.246,1.88a0.638,0.638,0,0,1-.274-0.06C451.936,3138.64,451.906,3136.79,452.548,3134.52Zm1.169-3.02c1.082-2.17,2.4-3.65,3.29-3.65a0.644,0.644,0,0,1,.274.06c1.009,0.42.811,3.24-.444,6.29-0.032.08-.068,0.15-0.1,0.23Zm-6,21.5a1.689,1.689,0,0,1-.707-0.14c-3-1.25-1.938-10.81,2.368-21.41l0.8,0.78a16.4,16.4,0,0,0-1.031,4.37c-0.245,3.48,1.432,4.71,2.453,5.14a3.57,3.57,0,0,0,1.41.28c1.8,0,3.285-1.27,4.41-2.77l1.019,0.99C454.714,3147.81,450.409,3153,447.721,3153Zm22.9-1.88-3.123-3.16a1.449,1.449,0,0,0,.644-0.38,1.488,1.488,0,0,0,.337-1.43c0.013,0.01.03,0.01,0.043,0.02l3.5,3.53Z" transform="translate(-434 -3111)"/>
</svg>
