<svg xmlns="http://www.w3.org/2000/svg" width="39.657" height="39" viewBox="0 0 39.657 39">
  <defs>
    <style>
      .cls-1 {
        fill-rule: evenodd;
      }
    </style>
  </defs>
  <path id="Key" class="cls-1" d="M637.413,1780a6,6,0,1,0,6.03,6A6.021,6.021,0,0,0,637.413,1780Zm0,9a3,3,0,1,1,3.015-3A3,3,0,0,1,637.413,1789Zm0.5-16a13.046,13.046,0,0,0-13.065,13,12.729,12.729,0,0,0,.548,3.71l-13.231,13.17a2.985,2.985,0,0,0,0,4.24l4.019,4a3.023,3.023,0,0,0,4.264,0l2.893-2.88,0.883,0.88a3.023,3.023,0,0,0,4.264,0l3.015-3a2.987,2.987,0,0,0,0-4.24l-0.9-.9,2.767-2.8A13.01,13.01,0,1,0,637.916,1773Zm0,23a10.05,10.05,0,0,1-5.188-1.45l-6.369,6.45,3.015,3-3.015,3-3.015-3-5.025,5-4.02-4,14.626-14.55a9.9,9.9,0,0,1-1.059-4.45A10.05,10.05,0,1,1,637.916,1796Z" transform="translate(-611.312 -1773)"/>
</svg>
