<svg xmlns="http://www.w3.org/2000/svg" width="23.782" height="44" viewBox="0 0 23.782 44">
  <defs>
    <style>
      .cls-1 {
        fill-rule: evenodd;
      }
    </style>
  </defs>
  <path id="Lightning" class="cls-1" d="M376.326,1701.35a2.963,2.963,0,0,0-2.475-1.35h-5.93v-14a3,3,0,0,0-2.369-2.94,3.03,3.03,0,0,0-.6-0.06,2.967,2.967,0,0,0-2.724,1.82l-8.894,21a3.026,3.026,0,0,0,.25,2.83,2.963,2.963,0,0,0,2.475,1.35h5.93v14a3,3,0,0,0,2.368,2.94,3.048,3.048,0,0,0,.6.06,2.964,2.964,0,0,0,2.723-1.82l8.9-21A3.026,3.026,0,0,0,376.326,1701.35ZM364.956,1724v-17h-8.894l8.894-21v17h8.895Z" transform="translate(-353.062 -1683)"/>
</svg>
