<svg xmlns="http://www.w3.org/2000/svg" width="29" height="43" viewBox="0 0 29 43">
  <defs>
    <style>
      .cls-1 {
        fill-rule: evenodd;
      }
    </style>
  </defs>
  <path id="Lighthouse" class="cls-1" d="M731.5,3769h-1.017c0-.1.012-0.2,0-0.3l-2.47-24.7H731.5a1.5,1.5,0,0,0,0-3h-3.785s-0.493-2.18-.723-3.65a8.493,8.493,0,0,0-16.984,0c-0.309,1.77-.723,3.65-0.723,3.65H705.5a1.5,1.5,0,0,0,0,3h3.485l-2.47,24.7c-0.01.1,0,.2,0,0.3H705.5a1.5,1.5,0,0,0,0,3h26A1.5,1.5,0,0,0,731.5,3769Zm-20.615-13.84,14.795-4.36,0.671,6.71a1.306,1.306,0,0,0-.274.05l-15.9,4.68ZM724.5,3739l0.2,2H720v-2h4.5Zm-7.5,2h-4.7l0.2-2H717v2Zm1.5-9a5.513,5.513,0,0,1,5.287,4H713.213A5.513,5.513,0,0,1,718.5,3732Zm6.5,12,0.376,3.77-14.169,4.16L712,3744h13Zm-15.144,21.45c0.022-.01.044,0,0.067-0.01l16.729-4.92L727.5,3769h-18Z" transform="translate(-704 -3729)"/>
</svg>
