<svg xmlns="http://www.w3.org/2000/svg" width="43.719" height="38" viewBox="0 0 43.719 38">
  <defs>
    <style>
      .cls-1 {
        fill-rule: evenodd;
      }
    </style>
  </defs>
  <path id="Like" class="cls-1" d="M111.453,2134a9.775,9.775,0,0,1,9.942,10,10.413,10.413,0,0,1-.987,4c-1.774,3.58-17.909,18-17.909,18s-16.116-14.43-17.908-18a8.975,8.975,0,0,1-1-4,9.811,9.811,0,0,1,9.957-10c2.674,0,7.167,4.27,8.954,6,1.788-1.73,6.281-6,8.954-6m0-3c-2.357,0-5.106,1.49-8.954,4.91-3.847-3.42-6.6-4.91-8.954-4.91a12.634,12.634,0,0,0-11.046,6.03,12.786,12.786,0,0,0-.573,12.32c1.9,3.79,14.708,15.42,18.588,18.89a2.971,2.971,0,0,0,3.969,0c3.886-3.47,16.712-15.1,18.6-18.9a12.859,12.859,0,0,0-.619-12.35,12.605,12.605,0,0,0-11.008-5.99h0Z" transform="translate(-80.625 -2131)"/>
</svg>
