<svg xmlns="http://www.w3.org/2000/svg" width="34" height="39" viewBox="0 0 34 39">
  <defs>
    <style>
      .cls-1 {
        fill-rule: evenodd;
      }
    </style>
  </defs>
  <path id="Link" class="cls-1" d="M203.555,1446.98l-4.244-4.2a1.511,1.511,0,0,0-2.137,0,1.479,1.479,0,0,0,0,2.11l4.244,4.21a5.181,5.181,0,0,1,0,7.38,5.308,5.308,0,0,1-7.457,0l-8-7.92a5.188,5.188,0,0,1,0-7.38,5.26,5.26,0,0,1,2.918-1.47,1.491,1.491,0,0,0,1.263-1.7,1.516,1.516,0,0,0-1.723-1.26,8.3,8.3,0,0,0-4.595,2.31,8.17,8.17,0,0,0,0,11.62l8,7.91a8.343,8.343,0,0,0,11.731,0A8.149,8.149,0,0,0,203.555,1446.98Zm-26.988-13.08a5.179,5.179,0,0,1,0-7.38,5.308,5.308,0,0,1,7.457,0l8,7.91a5.21,5.21,0,0,1-2.918,8.85,1.5,1.5,0,0,0,.228,2.98,1.832,1.832,0,0,0,.232-0.02,8.31,8.31,0,0,0,4.595-2.31,8.161,8.161,0,0,0,0-11.61l-8-7.92a8.343,8.343,0,0,0-11.731,0,8.161,8.161,0,0,0,0,11.62l4.243,4.2a1.53,1.53,0,0,0,2.137,0,1.489,1.489,0,0,0,0-2.12Z" transform="translate(-172 -1422)"/>
</svg>
