<svg xmlns="http://www.w3.org/2000/svg" width="33" height="31" viewBox="0 0 33 31">
  <defs>
    <style>
      .cls-1 {
        fill-rule: evenodd;
      }
    </style>
  </defs>
  <path id="List" class="cls-1" d="M262.5,1340h30a1.5,1.5,0,0,0,0-3h-30A1.5,1.5,0,0,0,262.5,1340Zm0,7h19a1.5,1.5,0,0,0,0-3h-19A1.5,1.5,0,0,0,262.5,1347Zm0,7h28a1.5,1.5,0,0,0,0-3h-28A1.5,1.5,0,0,0,262.5,1354Zm0,7h25a1.5,1.5,0,0,0,0-3h-25A1.5,1.5,0,0,0,262.5,1361Zm30,4h-30a1.5,1.5,0,0,0,0,3h30A1.5,1.5,0,0,0,292.5,1365Z" transform="translate(-261 -1337)"/>
</svg>
