<svg xmlns="http://www.w3.org/2000/svg" width="36" height="44" viewBox="0 0 36 44">
  <defs>
    <style>
      .cls-1 {
        fill-rule: evenodd;
      }
    </style>
  </defs>
  <path id="Location" class="cls-1" d="M101,1507a18.47,18.47,0,0,0-18,18,19.962,19.962,0,0,0,2.351,8.31q0.063,0.12.138,0.24C96.374,1551,99.616,1551,101,1551c2.159,0,4.5-1.52,10.043-9.27,2.891-4.04,5.365-8.01,5.469-8.18,0.05-.08.095-0.16,0.137-0.24A19.969,19.969,0,0,0,119,1525,18.47,18.47,0,0,0,101,1507Zm12.965,24.97S103.987,1548,101,1548c-2.962,0-12.965-16.03-12.965-16.03A17.072,17.072,0,0,1,86,1525a15,15,0,0,1,30,0A17.068,17.068,0,0,1,113.965,1531.97ZM101,1516a8,8,0,1,0,8,8A8.01,8.01,0,0,0,101,1516Zm0,13a5,5,0,1,1,5-5A5,5,0,0,1,101,1529Z" transform="translate(-83 -1507)"/>
</svg>
