<svg xmlns="http://www.w3.org/2000/svg" width="32" height="44" viewBox="0 0 32 44">
  <defs>
    <style>
      .cls-1 {
        fill-rule: evenodd;
      }
    </style>
  </defs>
  <path id="Luggage" class="cls-1" d="M116,3644h-6.914a6.63,6.63,0,0,0-12.172,0H90a3,3,0,0,0-3,3v31a3,3,0,0,0,3,3h26a3,3,0,0,0,3-3v-31A3,3,0,0,0,116,3644Zm-13-1a3.448,3.448,0,0,1,2.542,1h-5.084A3.448,3.448,0,0,1,103,3643Zm13,35H90v-31h26v31Zm-21.5,4.5A1.5,1.5,0,1,0,96,3681,1.5,1.5,0,0,0,94.5,3682.5Zm14,0a1.5,1.5,0,1,0,1.5-1.5A1.5,1.5,0,0,0,108.5,3682.5ZM95,3650H93v25h2v-25Zm6,0H99v25h2v-25Zm6,0h-2v25h2v-25Zm6,0h-2v25h2v-25Z" transform="translate(-87 -3640)"/>
</svg>
