<svg xmlns="http://www.w3.org/2000/svg" width="44" height="44" viewBox="0 0 44 44">
  <defs>
    <style>
      .cls-1 {
        fill-rule: evenodd;
      }
    </style>
  </defs>
  <path id="Mark" class="cls-1" d="M547.5,1257h-11a1.5,1.5,0,0,0-1.5,1.5v14.25a1.5,1.5,0,0,0,2.513,1.11l4.487-4.11,4.487,4.11a1.536,1.536,0,0,0,1.013.39,1.429,1.429,0,0,0,.6-0.13,1.5,1.5,0,0,0,.9-1.37V1258.5A1.5,1.5,0,0,0,547.5,1257Zm-1.5,12.34-2.987-2.73a1.483,1.483,0,0,0-2.026,0L538,1269.34V1260h8v9.34ZM542,1243a22,22,0,1,0,22,22A22.025,22.025,0,0,0,542,1243Zm0,41a19,19,0,1,1,19-19A19,19,0,0,1,542,1284Z" transform="translate(-520 -1243)"/>
</svg>
