<svg xmlns="http://www.w3.org/2000/svg" width="42.75" height="44" viewBox="0 0 42.75 44">
  <defs>
    <style>
      .cls-1 {
        fill-rule: evenodd;
      }
    </style>
  </defs>
  <path id="Moon" class="cls-1" d="M122,3581a2.972,2.972,0,0,0-2.22-1,3.042,3.042,0,0,0-1.179.24,17.861,17.861,0,0,1-6.777,1.76c-9.006,0-16.907-7.94-16.907-17,0-2.25,1.656-5.14,2.987-7.46,0.21-.37.414-0.72,0.606-1.07a3,3,0,0,0-2.6-4.47,3.044,3.044,0,0,0-1.179.24C86.33,3555.88,80,3565.23,80,3574c0,12.13,10.262,22,22.876,22a22.442,22.442,0,0,0,19.506-11.53A3,3,0,0,0,122,3581Zm-19.127,12c-10.69,0-19.892-8.25-19.892-19,0-8.02,6.043-16.02,12.931-19-1.582,2.82-3.978,6.53-3.978,10,0,10.75,9.2,20,19.891,20a20.983,20.983,0,0,0,7.957-2A19.465,19.465,0,0,1,102.871,3593Zm4.454-28.76-0.613,3.6a1.5,1.5,0,0,0,2.164,1.58l3.213-1.7,3.212,1.7a1.553,1.553,0,0,0,.695.17,1.5,1.5,0,0,0,1.47-1.75l-0.614-3.6,2.6-2.55a1.505,1.505,0,0,0-.826-2.56l-3.593-.52-1.606-3.27a1.485,1.485,0,0,0-2.675,0l-1.606,3.27-3.593.52a1.5,1.5,0,0,0-.827,2.56Zm3.026-2.78a1.473,1.473,0,0,0,1.123-.82l0.615-1.25,0.616,1.25a1.472,1.472,0,0,0,1.123.82l1.377,0.21-1,.97a1.514,1.514,0,0,0-.43,1.33l0.235,1.38-1.23-.65a1.482,1.482,0,0,0-1.388,0l-1.233.65,0.235-1.38a1.51,1.51,0,0,0-.429-1.33l-1-.97Z" transform="translate(-80 -3552)"/>
</svg>
