<svg xmlns="http://www.w3.org/2000/svg" width="41.656" height="42" viewBox="0 0 41.656 42">
  <defs>
    <style>
      .cls-1 {
        fill-rule: evenodd;
      }
    </style>
  </defs>
  <path id="_Navigation" data-name=" Navigation" class="cls-1" d="M296.857,1509.85a2.951,2.951,0,0,0-2.079-.85,3.047,3.047,0,0,0-1.214.26l-35.72,16.1a3.01,3.01,0,0,0-1.749,3.01,2.975,2.975,0,0,0,2.253,2.64l14.217,3.53,4.465,14.36a2.988,2.988,0,0,0,2.7,2.1h0.137a2.973,2.973,0,0,0,2.746-1.84l14.909-36A3.026,3.026,0,0,0,296.857,1509.85ZM279.871,1548l-4.967-15.97-15.845-3.93,35.72-16.1Z" transform="translate(-256.094 -1509)"/>
</svg>
