<svg xmlns="http://www.w3.org/2000/svg" width="39" height="44" viewBox="0 0 39 44">
  <defs>
    <style>
      .cls-1 {
        fill-rule: evenodd;
      }
    </style>
  </defs>
  <path id="Notification" class="cls-1" d="M647.346,1452.76c-0.416-.38-3.769-3.6-3.769-14.32,0-3.51-2.12-7.58-4.577-10.44a12.881,12.881,0,0,0-4.532-3.38,1.545,1.545,0,0,0,.027-0.27,5.5,5.5,0,0,0-10.991,0,1.545,1.545,0,0,0,.027.27A12.886,12.886,0,0,0,619,1428a16.553,16.553,0,0,0-3.64,10.44c0,10.71-3.343,13.91-3.762,14.29a2.7,2.7,0,0,0-1.5,3.09A2.863,2.863,0,0,0,613,1458h9a3.4,3.4,0,0,0,1.162,2.28,8.575,8.575,0,0,0,12.539-.01A6.2,6.2,0,0,0,637,1458h9a2.838,2.838,0,0,0,2.893-2.15A2.735,2.735,0,0,0,647.346,1452.76ZM629,1421.92a2.757,2.757,0,0,1,2.339,1.7c-0.768-.15-1.553.38-2.339,0.38s-1.572-.53-2.34-0.38A2.759,2.759,0,0,1,629,1421.92Zm0,4.08c6.285,0,11.553,6.86,11.553,12.44A32.994,32.994,0,0,0,642,1448H617a33.3,33.3,0,0,0,1.384-9.56C618.384,1432.86,622.715,1426,629,1426Zm0.429,33.85c-1.531,0-2.352-.73-3.429-1.85h7A4.739,4.739,0,0,1,629.429,1459.85Zm-16.262-4.87s1.487-.92,2.833-3.98h27c1.346,3.06,2.833,3.98,2.833,3.98H613.167Z" transform="translate(-610 -1419)"/>
</svg>
