<svg xmlns="http://www.w3.org/2000/svg" width="35" height="41" viewBox="0 0 35 41">
  <defs>
    <style>
      .cls-1 {
        fill-rule: evenodd;
      }
    </style>
  </defs>
  <path id="Palm" class="cls-1" d="M734.494,3149.96H727c0-9.1-4.605-16.56-8.469-21.22-0.057-.07-0.109-0.13-0.166-0.2a5.276,5.276,0,0,1,3.114-1.83c3.41-.59,7.061,2.15,7.116,2.19a1.48,1.48,0,0,0,2.1-.29,1.536,1.536,0,0,0-.288-2.13c-0.191-.15-4.721-3.57-9.417-2.76a7.924,7.924,0,0,0-3.805,1.77c1.555-1.86,4.353-4.27,7.973-3.41a1.489,1.489,0,0,0,1.8-1.13,1.514,1.514,0,0,0-1.115-1.82c-4.282-1.02-7.6,1-9.765,3.1,0.314-2.42,1.3-5.6,4.212-7.42a1.529,1.529,0,0,0,.486-2.09,1.492,1.492,0,0,0-2.064-.49c-5.024,3.15-5.749,8.94-5.774,11.86a14.938,14.938,0,0,0-11.491,4.55,1.536,1.536,0,0,0,0,2.15,1.5,1.5,0,0,0,2.121,0,12.025,12.025,0,0,1,8.518-3.69c-2.956,1.27-6.08,3.91-6.08,8.69a1.5,1.5,0,1,0,3,0,6.257,6.257,0,0,1,4.243-5.89c-2.675,4.35-1.283,10.94-1.208,11.28a1.512,1.512,0,0,0,1.461,1.19,1.815,1.815,0,0,0,.325-0.04,1.519,1.519,0,0,0,1.142-1.81c-0.434-2-.9-7.18,1.362-9.71,3.522,4.28,7.669,11.04,7.669,19.15H702.505a1.515,1.515,0,0,0,0,3.03h31.989A1.515,1.515,0,0,0,734.494,3149.96Z" transform="translate(-701 -3112)"/>
</svg>
