<svg xmlns="http://www.w3.org/2000/svg" width="44" height="34" viewBox="0 0 44 34">
  <defs>
    <style>
      .cls-1 {
        fill-rule: evenodd;
      }
    </style>
  </defs>
  <path id="Photo" class="cls-1" d="M807,3040a10,10,0,1,0,10,10A10.014,10.014,0,0,0,807,3040Zm0,17a7,7,0,1,1,7-7A7,7,0,0,1,807,3057Zm19-20h-7.394l-3.11-4.66A2.99,2.99,0,0,0,813,3031H801a2.99,2.99,0,0,0-2.5,1.34l-3.11,4.66H795v-1a3,3,0,0,0-3-3h-1a3,3,0,0,0-3,3v1a3,3,0,0,0-3,3v22a3,3,0,0,0,3,3h38a3,3,0,0,0,3-3v-22A3,3,0,0,0,826,3037Zm-35-1h1v1h-1v-1Zm35,26H788v-22h9l4-6h12l4,6h9v22Zm-5.5-16a1.5,1.5,0,1,0-1.5-1.5A1.5,1.5,0,0,0,820.5,3046Z" transform="translate(-785 -3031)"/>
</svg>
