<svg xmlns="http://www.w3.org/2000/svg" width="44" height="42" viewBox="0 0 44 42">
  <defs>
    <style>
      .cls-1 {
        fill-rule: evenodd;
      }
    </style>
  </defs>
  <path id="Pinned_map" data-name="Pinned map" class="cls-1" d="M915.894,3473.32a7.993,7.993,0,0,1-2.894,4.96V3503l-11-2h-2l-12,3h-2l-11-3.99v-30.96l11,3h1.938l12.062-4,1.1-.03a7.92,7.92,0,0,1,2.469-2.61l-0.064-.04a3,3,0,0,0-1.463-.38h-0.091l-2.039.07a3.1,3.1,0,0,0-.854.15l-11.6,3.84H886.4l-10.613-2.89a3,3,0,0,0-3.789,2.89v30.96a2.988,2.988,0,0,0,1.975,2.81l11,4A2.982,2.982,0,0,0,886,3507h2a2.975,2.975,0,0,0,.728-0.09l11.641-2.91h1.36l10.734,1.95a3.251,3.251,0,0,0,.537.05,3.007,3.007,0,0,0,3-3v-28.89A2.994,2.994,0,0,0,915.894,3473.32Zm-13.28,1.37a5.951,5.951,0,0,0,2.485,2.59l-2.593,9.34a1.5,1.5,0,0,0,1.045,1.84,1.4,1.4,0,0,0,.4.06,1.5,1.5,0,0,0,1.444-1.1l2.606-9.38a6,6,0,1,0,0-11.99,6.073,6.073,0,0,0-2.644.62A6,6,0,0,0,902.614,3474.69Zm4.062-5.33a2.993,2.993,0,1,1,2.646,5.37,2.818,2.818,0,0,1-1.22.3,1.5,1.5,0,0,0-.7-0.43,1.471,1.471,0,0,0-.906.03,2.933,2.933,0,0,1-1.187-1.26A2.993,2.993,0,0,1,906.676,3469.36Z" transform="translate(-872 -3465)"/>
</svg>
