<svg xmlns="http://www.w3.org/2000/svg" width="36" height="42" viewBox="0 0 36 42">
  <defs>
    <style>
      .cls-1 {
        fill-rule: evenodd;
      }
    </style>
  </defs>
  <path id="Plane_2" data-name="Plane 2" class="cls-1" d="M278,3644a3.1,3.1,0,0,1,2,1,4.938,4.938,0,0,1,1,3v8l12,9v3l-13-5v11l5,4v2l-7-2-7,2v-2l5-4v-11l-13,5v-3l12-9v-8a4.938,4.938,0,0,1,1-3,3.1,3.1,0,0,1,2-1m0-3a6.1,6.1,0,0,0-4.121,1.88A7.728,7.728,0,0,0,272,3648v6.5l-10.8,8.1a3.012,3.012,0,0,0-1.2,2.4v3a3.007,3.007,0,0,0,3,3,3.092,3.092,0,0,0,1.077-.2l8.923-3.43v5.19l-3.874,3.1A3,3,0,0,0,268,3678v2a3.009,3.009,0,0,0,3,3,2.908,2.908,0,0,0,.824-0.12l6.176-1.76,6.176,1.76a2.908,2.908,0,0,0,.824.12,3.009,3.009,0,0,0,3-3v-2a3,3,0,0,0-1.126-2.34l-3.874-3.1v-5.19l8.923,3.43a3.092,3.092,0,0,0,1.077.2,3.007,3.007,0,0,0,3-3v-3a3.012,3.012,0,0,0-1.2-2.4l-10.8-8.1V3648a7.728,7.728,0,0,0-1.879-5.12A6.1,6.1,0,0,0,278,3641h0Z" transform="translate(-260 -3641)"/>
</svg>
