<svg xmlns="http://www.w3.org/2000/svg" width="44" height="44" viewBox="0 0 44 44">
  <defs>
    <style>
      .cls-1 {
        fill-rule: evenodd;
      }
    </style>
  </defs>
  <path id="Play" class="cls-1" d="M717,1508a22,22,0,1,0,22,22A22.025,22.025,0,0,0,717,1508Zm0,41a19,19,0,1,1,19-19A19,19,0,0,1,717,1549Zm7.344-21.7-10.013-4.99A3,3,0,0,0,710,1525v10a3,3,0,0,0,3,3,3.027,3.027,0,0,0,1.342-.32l10.013-5.01A3,3,0,0,0,724.344,1527.3ZM713,1535v-10l10.013,4.99Z" transform="translate(-695 -1508)"/>
</svg>
