<svg xmlns="http://www.w3.org/2000/svg" width="39" height="44" viewBox="0 0 39 44">
  <defs>
    <style>
      .cls-1 {
        fill-rule: evenodd;
      }
    </style>
  </defs>
  <path id="Popcorn" class="cls-1" d="M384.331,3305.85a3.052,3.052,0,0,0-.42-0.43c0.777-1.84.926-3.33,0.428-4.49a3.1,3.1,0,0,0-.688-1.01,6.349,6.349,0,0,0-1.627-5.4,3.873,3.873,0,0,0-4.067-.92,4.966,4.966,0,0,0-2.16-3.28,5.7,5.7,0,0,0-6.17-.11,6.276,6.276,0,0,0-9.439-.12c-1.429-.76-3.7-1.25-6.944.05a5.775,5.775,0,0,0-3.575,3.5,6.349,6.349,0,0,0-.055,3.57,5.121,5.121,0,0,0-.749.32,5.578,5.578,0,0,0-2.559,3.76c-0.715,2.88-.115,4.64.578,5.64a3.035,3.035,0,0,0-.038,1.5l5.028,21.23a3.017,3.017,0,0,0,2.936,2.33h22.125a3.016,3.016,0,0,0,2.935-2.33l5.028-21.23A3.043,3.043,0,0,0,384.331,3305.85Zm-35.1-3.82a2.942,2.942,0,0,1,1.061-1.82,1.408,1.408,0,0,1,1.022-.14,1.5,1.5,0,0,0,1.646-.49,1.52,1.52,0,0,0,.128-1.72,4.615,4.615,0,0,1-.559-3.26,2.879,2.879,0,0,1,1.833-1.64c3.684-1.48,5.094.27,5.225,0.44a1.49,1.49,0,0,0,1.692.61,1.509,1.509,0,0,0,1.071-1.45c0-.15.071-1.51,2.514-1.51,2.2,0,2.492,1.08,2.515,1.51a1.508,1.508,0,0,0,2.537,1.11c0.095-.09,2.356-2.15,4.131-0.88a2.185,2.185,0,0,1,.59,3.03,1.528,1.528,0,0,0,.357,1.98,1.507,1.507,0,0,0,2-.12c0.02-.02,2.027-1.89,2.9-1.01,1.311,1.32.645,3.49,0.641,3.5a1.514,1.514,0,0,0,.133,1.25,1.489,1.489,0,0,0,.9.69A4.217,4.217,0,0,1,381,3305h-6a2.864,2.864,0,0,0-2.939,1.77A6.227,6.227,0,0,1,366,3311a6.692,6.692,0,0,1-6.329-4.27A2.511,2.511,0,0,0,357,3305h-7a6.676,6.676,0,0,0-1,0A6.581,6.581,0,0,1,349.233,3302.03Zm27.7,26.93H354.81L350,3308h7a9.75,9.75,0,0,0,18,0h7Zm-18.1-24.77a1.337,1.337,0,0,0,.478-0.08,1.515,1.515,0,0,0,.953-1.92,1.587,1.587,0,0,1-.025-0.92,1.02,1.02,0,0,1,.606-0.11,2.945,2.945,0,0,1,2.673,1.18,1.488,1.488,0,0,0,1.683.79,1.517,1.517,0,0,0,1.175-1.45,2.514,2.514,0,1,1,5.028-.02,1.509,1.509,0,1,0,3.017,0,5.394,5.394,0,0,0-5.531-5.56,5.153,5.153,0,0,0-4.835,2.79,6.675,6.675,0,0,0-3.21-.77,3.528,3.528,0,0,0-3.055,1.37,4.391,4.391,0,0,0-.388,3.66A1.506,1.506,0,0,0,358.832,3304.19Z" transform="translate(-346 -3288)"/>
</svg>
