<svg xmlns="http://www.w3.org/2000/svg" width="36" height="38" viewBox="0 0 36 38">
  <defs>
    <style>
      .cls-1 {
        fill-rule: evenodd;
      }
    </style>
  </defs>
  <path id="Reload" class="cls-1" d="M206.561,1612.8l-2.626,2.66c0.036,0.43.065,0.86,0.065,1.29a15,15,0,1,1-15-15.19,13.31,13.31,0,0,1,8.954,2.95l-4.166.61a1.519,1.519,0,0,0,.21,3.02,1.541,1.541,0,0,0,.214-0.01l7-1.02a1.518,1.518,0,0,0,1.273-1.72l-1-7.09a1.5,1.5,0,1,0-2.97.43l0.41,2.91a15.87,15.87,0,0,0-9.925-3.12A18.262,18.262,0,1,0,206.561,1612.8Z" transform="translate(-171 -1597)"/>
</svg>
