<svg xmlns="http://www.w3.org/2000/svg" width="36" height="40" viewBox="0 0 36 40">
  <defs>
    <style>
      .cls-1 {
        fill-rule: evenodd;
      }
    </style>
  </defs>
  <path id="Remove_document" data-name="Remove document" class="cls-1" d="M644,1884.77V1875a4.965,4.965,0,0,0-.713-2.57,2.723,2.723,0,0,0-.274-0.39l-6.6-7.86a5.033,5.033,0,0,0-4.13-2.18H617a5,5,0,0,0-5,5v28a5,5,0,0,0,5,5h15.691A9.487,9.487,0,1,0,644,1884.77ZM615,1895v-28a2,2,0,0,1,2-2h15.285a2,2,0,0,1,1.715.97l6.715,8A2,2,0,0,1,641,1875v8.34a9.806,9.806,0,0,0-2.5-.34,9.5,9.5,0,0,0-8.364,14H617A2,2,0,0,1,615,1895Zm23.5,4a6.5,6.5,0,1,1,6.5-6.5A6.5,6.5,0,0,1,638.5,1899Zm3-8h-6a1.5,1.5,0,0,0,0,3h6A1.5,1.5,0,0,0,641.5,1891Z" transform="translate(-612 -1862)"/>
</svg>
