<svg xmlns="http://www.w3.org/2000/svg" width="42" height="36" viewBox="0 0 42 36">
  <defs>
    <style>
      .cls-1 {
        fill-rule: evenodd;
      }
    </style>
  </defs>
  <path id="Remove_folder" data-name="Remove folder" class="cls-1" d="M295,1883.77V1875a5,5,0,0,0-5-5H278.255l-1.727-2.62a5.738,5.738,0,0,0-4.66-2.38h-7.736a5.021,5.021,0,0,0-4.287,2.43l-2.133,3.55a5.027,5.027,0,0,0-.712,2.57V1892a5,5,0,0,0,5,5h19.769A9.49,9.49,0,1,0,295,1883.77ZM262,1894a2,2,0,0,1-2-2v-18.45a1.977,1.977,0,0,1,.285-1.02l2.132-3.56a2.006,2.006,0,0,1,1.715-.97h7.736a2.817,2.817,0,0,1,2.132,1l2,3.03a2.52,2.52,0,0,0,2,.97h12a2,2,0,0,1,2,2v7.34a9.806,9.806,0,0,0-2.5-.34,9.467,9.467,0,0,0-9.155,12H262Zm27.5,4a6.5,6.5,0,1,1,6.5-6.5A6.5,6.5,0,0,1,289.5,1898Zm3-8h-6a1.5,1.5,0,0,0,0,3h6A1.5,1.5,0,0,0,292.5,1890Z" transform="translate(-257 -1865)"/>
</svg>
