<svg xmlns="http://www.w3.org/2000/svg" width="46" height="46" viewBox="0 0 46 46">
  <defs>
    <style>
      .cls-1 {
        fill-rule: evenodd;
      }
    </style>
  </defs>
  <path id="Safe" class="cls-1" d="M552,2410h-1.059a8.956,8.956,0,0,0-1.613-4.21l0.657-.65a1.5,1.5,0,1,0-2.121-2.13l-0.658.66a8.961,8.961,0,0,0-4.206-1.61v-0.56a1.5,1.5,0,0,0-3,0v0.73a9.1,9.1,0,0,0-3.206,1.44l-0.658-.66a1.5,1.5,0,1,0-2.121,2.13l0.657,0.65a8.956,8.956,0,0,0-1.613,4.21H532a1.5,1.5,0,0,0,0,3h1.232a8.993,8.993,0,0,0,1.44,3.21l-0.657.65a1.5,1.5,0,1,0,2.121,2.13l0.658-.66a9.1,9.1,0,0,0,3.206,1.44v0.73a1.5,1.5,0,0,0,3,0v-0.56a8.961,8.961,0,0,0,4.206-1.61l0.658,0.66a1.5,1.5,0,1,0,2.121-2.13l-0.657-.65a8.993,8.993,0,0,0,1.44-3.21H552A1.5,1.5,0,0,0,552,2410Zm-10,7a6,6,0,1,1,6-6A6,6,0,0,1,542,2417Zm20-29H522a3,3,0,0,0-3,3v40a3,3,0,0,0,3,3h40a3,3,0,0,0,3-3v-40A3,3,0,0,0,562,2388Zm-40,19h3v8h-3v-8Zm0,11h6v3h-6v-3Zm6,6a3,3,0,0,0,3-3v-3a3,3,0,0,0-3-3v-8a3,3,0,0,0,3-3v-3a3,3,0,0,0-3-3v-1h28v28H528v-1Zm0-23v3h-6v-3h6Zm34,30H522v-7h3v1a3,3,0,0,0,3,3h28a3,3,0,0,0,3-3v-28a3,3,0,0,0-3-3H528a3,3,0,0,0-3,3v1h-3v-7h40v40Z" transform="translate(-519 -2388)"/>
</svg>
