<svg xmlns="http://www.w3.org/2000/svg" width="39.968" height="43" viewBox="0 0 39.968 43">
  <defs>
    <style>
      .cls-1 {
        fill-rule: evenodd;
      }
    </style>
  </defs>
  <path id="Satellite_Dish" data-name="Satellite Dish" class="cls-1" d="M543.877,3573.94l1.913-1.89a4.482,4.482,0,1,0-2.6-4.05,4.434,4.434,0,0,0,.456,1.93l-1.912,1.89-8.54-8.44-1.9-1.88-2.117,1.64a15.664,15.664,0,0,0-6.225,12.44,15.893,15.893,0,0,0,8.348,13.92l-2.568,4.23a1.492,1.492,0,0,0,.52,2.06,1.57,1.57,0,0,0,.78.21,1.518,1.518,0,0,0,1.3-.73L534,3591c2.564-.04,7.5-0.02,8,0l2.921,4.27a1.521,1.521,0,0,0,1.3.73,1.569,1.569,0,0,0,.779-0.21,1.492,1.492,0,0,0,.521-2.06l-2.142-3.53a16.2,16.2,0,0,0,6.268-4.85l1.654-2.09-1.9-1.88Zm3.863-7.44a1.5,1.5,0,1,1-1.517,1.5A1.508,1.508,0,0,1,547.74,3566.5ZM539,3587.98c-7.186,0-13.013-5.22-13.013-12.4a12.6,12.6,0,0,1,5.06-10.08l18.213,18C546.851,3586.54,543.165,3587.98,539,3587.98ZM550.222,3553a1.5,1.5,0,1,0,0,3c4.2,0,9.62,5.59,9.661,9.79a1.719,1.719,0,0,0,1.518,1.71h0.014a1.711,1.711,0,0,0,1.5-1.74C562.862,3559.9,556.1,3553,550.222,3553Zm0.161,6a1.5,1.5,0,1,0,0,3,3.414,3.414,0,0,1,3.429,3.39,1.518,1.518,0,0,0,3.035,0A6.437,6.437,0,0,0,550.383,3559Z" transform="translate(-522.938 -3553)"/>
</svg>
