<svg xmlns="http://www.w3.org/2000/svg" width="43" height="41" viewBox="0 0 43 41">
  <defs>
    <style>
      .cls-1 {
        fill-rule: evenodd;
      }
    </style>
  </defs>
  <path id="Sausage" class="cls-1" d="M733.614,3202.99H733.5a3,3,0,0,0-1.123.22l-3.429,1.16a34.469,34.469,0,0,1-20.886,0l-3.44-1.16a2.944,2.944,0,0,0-1.112-.22h-0.1c-3.717.05-6.406,2.59-6.406,6.08,0,2.66,2.339,5.67,5.261,6.82a2.677,2.677,0,0,0,.278.11l3.619,1.22a37.1,37.1,0,0,0,6.048,1.5,1.514,1.514,0,0,0-1.2,1.32c-0.066.59-.562,5.9,2.072,8.88a5.633,5.633,0,0,0,3.423,1.84v11.72a1.5,1.5,0,1,0,3,0v-11.81a5.555,5.555,0,0,0,3.438-1.84c2.618-2.96,2.121-8.21,2.056-8.79a1.513,1.513,0,0,0-.879-1.22,37.885,37.885,0,0,0,6.725-1.6l3.619-1.22a2.711,2.711,0,0,0,.28-0.11c2.921-1.15,5.259-4.16,5.259-6.82C740,3205.59,737.32,3203.05,733.614,3202.99Zm-11.6,17.38c0.126,1.14.157,4.77-1.311,6.43a2.5,2.5,0,0,1-1.2.76v-6.34a1.5,1.5,0,1,0-3,0v6.43a2.528,2.528,0,0,1-1.183-.75c-1.482-1.67-1.461-5.28-1.328-6.53a1.506,1.506,0,0,0-.791-1.5,38.977,38.977,0,0,0,5.3.36,39.549,39.549,0,0,0,4.081-.22A1.527,1.527,0,0,0,722.012,3220.37Zm11.5-7.26v0.01l-3.618,1.22a35.816,35.816,0,0,1-22.784,0l-3.618-1.22v-0.01c-2.071-.73-3.487-2.86-3.487-4.04,0-1.95,1.56-3.03,3.487-3.04v0.01l3.61,1.21a37.59,37.59,0,0,0,22.8,0l3.612-1.21v-0.01c1.927,0.01,3.487,1.09,3.487,3.04C737,3210.25,735.581,3212.38,733.51,3213.11Z" transform="translate(-697 -3203)"/>
</svg>
