<svg xmlns="http://www.w3.org/2000/svg" width="30" height="44" viewBox="0 0 30 44">
  <defs>
    <style>
      .cls-1 {
        fill-rule: evenodd;
      }
    </style>
  </defs>
  <path id="Scroll" class="cls-1" d="M540.5,1338.5c-1.035,0-1.5.84-1.5,1.87v6.26c0,1.03.465,1.87,1.5,1.87s1.5-.84,1.5-1.87v-6.26C542,1339.34,541.535,1338.5,540.5,1338.5Zm1.226-8.5h-3.452A13.285,13.285,0,0,0,525,1343.27v17.46A13.285,13.285,0,0,0,538.274,1374h3.452A13.285,13.285,0,0,0,555,1360.73v-17.46A13.285,13.285,0,0,0,541.726,1330ZM552,1360.73A10.273,10.273,0,0,1,541.726,1371h-3.452A10.273,10.273,0,0,1,528,1360.73v-17.46A10.273,10.273,0,0,1,538.274,1333h3.452A10.273,10.273,0,0,1,552,1343.27v17.46Z" transform="translate(-525 -1330)"/>
</svg>
