<svg xmlns="http://www.w3.org/2000/svg" width="41" height="49" viewBox="0 0 41 49">
  <defs>
    <style>
      .cls-1 {
        fill-rule: evenodd;
      }
    </style>
  </defs>
  <path id="Sea" class="cls-1" d="M630.5,3130.01a6.505,6.505,0,1,0-6.5-6.51A6.512,6.512,0,0,0,630.5,3130.01Zm0-10.01a3.505,3.505,0,1,1-3.5,3.5A3.5,3.5,0,0,1,630.5,3120Zm-1.5,13.49v4a1.5,1.5,0,0,0,3,0v-4A1.5,1.5,0,0,0,629,3133.49Zm1.5-18.51a1.5,1.5,0,0,0,1.5-1.49v-4a1.5,1.5,0,0,0-3,0v4A1.5,1.5,0,0,0,630.5,3114.98Zm-14,10.02h4a1.5,1.5,0,1,0,0-2.99h-4A1.5,1.5,0,1,0,616.5,3125Zm22.5-1.5a1.5,1.5,0,0,0,1.5,1.5h4a1.5,1.5,0,1,0,0-2.99h-4A1.5,1.5,0,0,0,639,3123.5Zm-17.778-7.22a1.475,1.475,0,0,0,2.121,0,1.51,1.51,0,0,0,0-2.13l-2.828-2.86a1.492,1.492,0,0,0-2.121,0,1.522,1.522,0,0,0,0,2.14Zm16.435,14.41a1.522,1.522,0,0,0,0,2.14l2.828,2.85a1.5,1.5,0,0,0,2.121,0,1.522,1.522,0,0,0,0-2.14l-2.828-2.85A1.492,1.492,0,0,0,637.657,3130.69Zm1.061-12.96a1.476,1.476,0,0,0,1.06-.45l2.828-2.85a1.522,1.522,0,0,0,0-2.14,1.492,1.492,0,0,0-2.121,0l-2.828,2.86a1.51,1.51,0,0,0,0,2.13A1.478,1.478,0,0,0,638.718,3117.73Zm-17.5,12.96-2.828,2.85a1.522,1.522,0,0,0,0,2.14,1.5,1.5,0,0,0,2.121,0l2.828-2.85a1.522,1.522,0,0,0,0-2.14A1.492,1.492,0,0,0,621.222,3130.69Zm-9.722,12.3c0.763,0,1.055.34,1.809,1.71,0.727,1.31,1.826,3.3,4.524,3.3s3.8-1.99,4.525-3.3c0.754-1.37,1.046-1.71,1.809-1.71s1.055,0.34,1.809,1.71c0.727,1.31,1.826,3.3,4.524,3.3s3.8-1.99,4.524-3.3c0.754-1.37,1.046-1.71,1.809-1.71s1.055,0.34,1.809,1.71c0.727,1.31,1.827,3.3,4.525,3.3s3.8-1.99,4.524-3.3c0.754-1.37,1.046-1.71,1.809-1.71a1.5,1.5,0,0,0,0-3c-2.632,0-3.716,1.96-4.433,3.25s-1.045,1.75-1.9,1.75-1.183-.45-1.9-1.75-1.8-3.25-4.433-3.25-3.716,1.96-4.433,3.25-1.045,1.75-1.9,1.75-1.182-.45-1.9-1.75-1.8-3.25-4.433-3.25-3.716,1.96-4.433,3.25-1.046,1.75-1.9,1.75-1.182-.45-1.9-1.75-1.8-3.25-4.433-3.25A1.5,1.5,0,0,0,611.5,3142.99Zm38,6.01c-2.632,0-3.716,1.95-4.433,3.25s-1.045,1.75-1.9,1.75-1.183-.45-1.9-1.75-1.8-3.25-4.433-3.25-3.716,1.95-4.433,3.25-1.045,1.75-1.9,1.75-1.182-.45-1.9-1.75-1.8-3.25-4.433-3.25-3.716,1.95-4.433,3.25-1.046,1.75-1.9,1.75-1.182-.45-1.9-1.75-1.8-3.25-4.433-3.25a1.5,1.5,0,0,0,0,3c0.763,0,1.055.34,1.809,1.71,0.727,1.31,1.826,3.29,4.524,3.29s3.8-1.98,4.525-3.29c0.754-1.37,1.046-1.71,1.809-1.71s1.055,0.34,1.809,1.71c0.727,1.31,1.826,3.29,4.524,3.29s3.8-1.98,4.524-3.29c0.754-1.37,1.046-1.71,1.809-1.71s1.055,0.34,1.809,1.71c0.727,1.31,1.827,3.29,4.525,3.29s3.8-1.98,4.524-3.29c0.754-1.37,1.046-1.71,1.809-1.71A1.5,1.5,0,0,0,649.5,3149Z" transform="translate(-610 -3108)"/>
</svg>
