<svg xmlns="http://www.w3.org/2000/svg" width="38" height="44" viewBox="0 0 38 44">
  <defs>
    <style>
      .cls-1 {
        fill-rule: evenodd;
      }
    </style>
  </defs>
  <path id="Security_upload" data-name="Security upload" class="cls-1" d="M645.91,2843.27c-0.585-2.34-3.821-6.27-18.91-6.27-7.105,0-12.267.78-15.342,2.32-3.394,1.69-3.658,4.01-3.658,4.68v13.3a23.033,23.033,0,0,0,11.724,20.05l5.8,3.26a2.969,2.969,0,0,0,2.942,0l5.8-3.26A23.033,23.033,0,0,0,646,2857.3V2844A2.979,2.979,0,0,0,645.91,2843.27ZM643,2857.3a19.989,19.989,0,0,1-10.2,17.43L627,2878l-5.8-3.27A19.989,19.989,0,0,1,611,2857.3V2844s0-4,16-4c15,0,16,4,16,4v13.3Zm-13.879-10.42a3,3,0,0,0-4.242,0l-7,7A3,3,0,0,0,620,2859v4a3,3,0,0,0,3,3h8a3,3,0,0,0,3-3v-4a3,3,0,0,0,2.121-5.12ZM631,2856v7h-8v-7h-3l7-7,7,7h-3Z" transform="translate(-608 -2837)"/>
</svg>
