<svg xmlns="http://www.w3.org/2000/svg" width="38" height="44" viewBox="0 0 38 44">
  <defs>
    <style>
      .cls-1 {
        fill-rule: evenodd;
      }
    </style>
  </defs>
  <path id="Security_announcement" data-name="Security announcement" class="cls-1" d="M205.91,2843.27c-0.585-2.34-3.821-6.27-18.91-6.27-7.1,0-12.267.78-15.342,2.32-3.394,1.69-3.658,4.01-3.658,4.68v13.3a23.033,23.033,0,0,0,11.724,20.05l5.805,3.26a2.969,2.969,0,0,0,2.942,0l5.805-3.26A23.033,23.033,0,0,0,206,2857.3V2844A2.979,2.979,0,0,0,205.91,2843.27ZM203,2857.3a19.989,19.989,0,0,1-10.195,17.43L187,2878l-5.805-3.27A19.989,19.989,0,0,1,171,2857.3V2844s0-4,16-4c15,0,16,4,16,4v13.3ZM186.5,2868a1.5,1.5,0,1,0,1.5,1.5A1.5,1.5,0,0,0,186.5,2868Zm0-22.5a1.5,1.5,0,0,0-1.5,1.5v16a1.5,1.5,0,0,0,3,0v-16A1.5,1.5,0,0,0,186.5,2845.5Z" transform="translate(-168 -2837)"/>
</svg>
