<svg xmlns="http://www.w3.org/2000/svg" width="38" height="44" viewBox="0 0 38 44">
  <defs>
    <style>
      .cls-1 {
        fill-rule: evenodd;
      }
    </style>
  </defs>
  <path id="Security_view" data-name="Security view" class="cls-1" d="M820.91,2843.27c-0.585-2.34-3.821-6.27-18.91-6.27-7.105,0-12.267.78-15.342,2.32-3.394,1.69-3.658,4.01-3.658,4.68v13.3a23.033,23.033,0,0,0,11.724,20.05l5.8,3.26a2.969,2.969,0,0,0,2.942,0l5.8-3.26A23.033,23.033,0,0,0,821,2857.3V2844A2.979,2.979,0,0,0,820.91,2843.27ZM818,2857.3a19.989,19.989,0,0,1-10.2,17.43L802,2878l-5.8-3.27A19.989,19.989,0,0,1,786,2857.3V2844s0-4,16-4c15,0,16,4,16,4v13.3ZM802,2847c-7.276,0-12.05,7.59-12.571,8.45a3.008,3.008,0,0,0,0,3.1c0.52,0.86,5.292,8.43,12.559,8.45,7.3,0,12.063-7.59,12.583-8.46a3,3,0,0,0,0-3.09C814.05,2854.59,809.276,2847,802,2847Zm0.024,17H802c-5.789-.02-10-7-10-7s4.211-7,10-7,10,7,10,7S807.8,2864,802.024,2864ZM802,2852a5,5,0,1,0,5,5A5,5,0,0,0,802,2852Zm0,7a2,2,0,1,1,2-2A2,2,0,0,1,802,2859Z" transform="translate(-783 -2837)"/>
</svg>
