<svg height="496pt" viewBox="0 0 496 496" width="496pt" xmlns="http://www.w3.org/2000/svg" xmlns:xlink="http://www.w3.org/1999/xlink"><linearGradient id="a" gradientUnits="userSpaceOnUse" x1="248" x2="248" y1="496" y2="0"><stop offset="0" stop-color="#9f2fff"/><stop offset="1" stop-color="#0bb1d3"/></linearGradient><path d="m368 179.222656v-11.222656c0-13.230469-10.769531-24-24-24h-8v-32h8c13.230469 0 24-10.769531 24-24v-64c0-13.230469-10.769531-24-24-24h-320c-13.230469 0-24 10.769531-24 24v64c0 13.230469 10.769531 24 24 24h8v32h-8c-13.230469 0-24 10.769531-24 24v64c0 13.230469 10.769531 24 24 24h8v32h-8c-13.230469 0-24 10.769531-24 24v64c0 13.230469 10.769531 24 24 24h165.457031c24.742188 56.441406 81.078125 96 146.542969 96 88.222656 0 160-71.777344 160-160 0-77.265625-55.054688-141.910156-128-156.777344zm100.664062 100.777344h-23.054687c-16.378906 0-31.632813-7.335938-41.867187-20.128906-7.574219-9.457032-11.742188-21.351563-11.742188-33.488282v-23.046874c34.441406 14.59375 62.070312 42.222656 76.664062 76.664062zm-452.664062-192v-64c0-4.40625 3.585938-8 8-8h320c4.414062 0 8 3.59375 8 8v64c0 4.40625-3.585938 8-8 8h-320c-4.414062 0-8-3.59375-8-8zm32 24h272v32h-272zm-32 120v-64c0-4.40625 3.585938-8 8-8h320c4.414062 0 8 3.59375 8 8v8.808594c-5.265625-.519532-10.601562-.808594-16-.808594-52.183594 0-98.472656 25.222656-127.695312 64h-184.304688c-4.414062 0-8-3.59375-8-8zm312-39.59375v10.265625c0 15.855469-7.574219 31.007813-20.273438 40.535156-7.34375 5.503907-11.726562 14.28125-11.726562 23.457031 0 7.351563-5.984375 13.335938-13.335938 13.335938h-24.417968c-14.101563 0-27.199219 7.007812-35.03125 18.742188-2.941406 4.417968-7.101563 7.792968-12.023438 9.761718l-17.566406 7.023438c9.621094-67.113282 65.574219-119.3125 134.375-123.121094zm-280 63.59375h149.648438c-5.839844 10.054688-10.710938 20.71875-14.273438 32h-135.375zm-24 128c-4.414062 0-8-3.59375-8-8v-64c0-4.40625 3.585938-8 8-8h155.222656c-2.101562 10.34375-3.222656 21.039062-3.222656 32 0 16.71875 2.601562 32.839844 7.375 48zm234.542969 73.199219 6.226562-2.488281c14.109375-5.648438 23.230469-19.109376 23.230469-34.3125v-10.511719c0-14.078125-7.832031-26.742188-20.425781-33.039063-7.132813-3.574218-11.574219-10.75-11.574219-18.734375v-9.167969c0-11.554687 9.398438-20.945312 20.945312-20.945312h16.894532c8.359375 0 16.550781-2.871094 23.089844-8.097656l24.140624-19.308594c3.699219-2.960938 8.34375-4.59375 13.089844-4.59375h8.894532c11.546874 0 20.945312 9.390625 20.945312 20.945312v9.167969c0 14.078125 7.832031 26.742188 20.425781 33.039063l16 8c7.132813 3.574218 11.574219 10.75 11.574219 18.734375v57.136719c-25.511719 22.90625-59.105469 36.976562-96 36.976562-28.519531 0-55.0625-8.441406-77.457031-22.800781zm189.457031-30.886719v-40.425781c0-14.078125-7.832031-26.742188-20.425781-33.039063l-16-8c-7.132813-3.574218-11.574219-10.75-11.574219-18.734375v-9.167969c0-20.371093-16.566406-36.945312-36.945312-36.945312h-8.894532c-8.359375 0-16.550781 2.871094-23.089844 8.097656l-24.140624 19.308594c-3.699219 2.960938-8.34375 4.59375-13.089844 4.59375h-16.894532c-20.378906 0-36.945312 16.574219-36.945312 36.945312v9.167969c0 14.078125 7.832031 26.742188 20.425781 33.039063 7.132813 3.574218 11.574219 10.75 11.574219 18.734375v10.511719c0 8.617187-5.167969 16.25-13.167969 19.449218l-15.503906 6.199219c-31.34375-26.429687-51.328125-65.925781-51.328125-110.046875 0-.886719.121094-1.753906.136719-2.640625l25-10c7.941406-3.175781 14.648437-8.617187 19.398437-15.734375 4.847656-7.28125 12.96875-11.625 21.710938-11.625h24.417968c16.175782 0 29.335938-13.160156 29.335938-29.335938 0-4.175781 1.992188-8.160156 5.328125-10.664062 16.703125-12.519531 26.671875-32.464844 26.671875-53.335938v-10.265624c11.039062.609374 21.753906 2.394531 32 5.371093v28.613281c0 15.753907 5.414062 31.203126 15.246094 43.488282 13.289062 16.609375 33.105468 26.128906 54.363281 26.128906h28.621094c3.691406 12.71875 5.769531 26.113281 5.769531 40 0 34.183594-12.023438 65.585938-32 90.3125zm-416-74.3125h128v16h-128zm16-16h-16v-16h16zm32 0h-16v-16h16zm32 0h-16v-16h16zm-80-272h160v16h-160zm176 0h64v16h-64zm-160-16h-16v-16h16zm32 0h-16v-16h16zm32 0h-16v-16h16zm176 16h16v16h-16zm32 0h16v16h-16zm-288 112h160v16h-160zm208 16h-32v-16h32zm-208 16h16v16h-16zm32 0h16v16h-16zm32 0h16v16h-16zm0 0" fill="url(#a)"/></svg>