<svg xmlns="http://www.w3.org/2000/svg" width="38" height="38" viewBox="0 0 38 38">
  <defs>
    <style>
      .cls-1 {
        fill-rule: evenodd;
      }
    </style>
  </defs>
  <path id="Server" class="cls-1" d="M180,1788a5,5,0,1,0-5-5A5,5,0,0,0,180,1788Zm0-7a2,2,0,1,1-2,2A2,2,0,0,1,180,1781Zm26-7H174a3,3,0,0,0-3,3v12a3,3,0,0,0,3,3h32a3,3,0,0,0,3-3v-12A3,3,0,0,0,206,1774Zm0,15H174v-12h32v12Zm-26,19a5,5,0,1,0-5-5A5,5,0,0,0,180,1808Zm0-7a2,2,0,1,1-2,2A2,2,0,0,1,180,1801Zm26-7H174a3,3,0,0,0-3,3v12a3,3,0,0,0,3,3h32a3,3,0,0,0,3-3v-12A3,3,0,0,0,206,1794Zm0,15H174v-12h32v12Z" transform="translate(-171 -1774)"/>
</svg>
