<svg xmlns="http://www.w3.org/2000/svg" width="44" height="44" viewBox="0 0 44 44">
  <defs>
    <style>
      .cls-1 {
        fill-rule: evenodd;
      }
    </style>
  </defs>
  <path id="Settings" class="cls-1" d="M453,1433a8,8,0,1,0,8,8A8.01,8.01,0,0,0,453,1433Zm0,13a5,5,0,1,1,5-5A5,5,0,0,1,453,1446Zm19-11h-0.975a18.787,18.787,0,0,0-1.034-2.51l0.687-.68a3.011,3.011,0,0,0,0-4.25l-4.243-4.24a3,3,0,0,0-4.243,0l-0.687.69a18.722,18.722,0,0,0-2.5-1.04V1422a3,3,0,0,0-3-3h-6a3,3,0,0,0-3,3v0.97a18.79,18.79,0,0,0-2.506,1.04l-0.686-.69a3,3,0,0,0-4.243,0l-4.243,4.24a3.011,3.011,0,0,0,0,4.25l0.687,0.68a18.787,18.787,0,0,0-1.034,2.51H434a3,3,0,0,0-3,3v6a3,3,0,0,0,3,3h0.975a18.787,18.787,0,0,0,1.034,2.51l-0.687.68a3.011,3.011,0,0,0,0,4.25l4.243,4.24a3,3,0,0,0,4.243,0l0.686-.69a18.79,18.79,0,0,0,2.506,1.04V1460a3,3,0,0,0,3,3h6a3,3,0,0,0,3-3v-0.97a18.722,18.722,0,0,0,2.5-1.04l0.687,0.69a3,3,0,0,0,4.243,0l4.243-4.24a3.011,3.011,0,0,0,0-4.25l-0.687-.68a18.787,18.787,0,0,0,1.034-2.51H472a3,3,0,0,0,3-3v-6A3,3,0,0,0,472,1435Zm0,9h-3.291a15.857,15.857,0,0,1-2.475,5.99l2.322,2.32-4.242,4.25-2.323-2.33a15.949,15.949,0,0,1-5.991,2.48V1460h-6v-3.29a15.949,15.949,0,0,1-5.991-2.48l-2.323,2.33-4.242-4.25,2.322-2.32a15.857,15.857,0,0,1-2.475-5.99H434v-6h3.291a15.857,15.857,0,0,1,2.475-5.99l-2.322-2.32,4.242-4.25,2.323,2.33a15.949,15.949,0,0,1,5.991-2.48V1422h6v3.29a15.949,15.949,0,0,1,5.991,2.48l2.323-2.33,4.242,4.25-2.322,2.32a15.857,15.857,0,0,1,2.475,5.99H472v6Z" transform="translate(-431 -1419)"/>
</svg>
