<svg xmlns="http://www.w3.org/2000/svg" width="45" height="26" viewBox="0 0 45 26">
  <defs>
    <style>
      .cls-1 {
        fill-rule: evenodd;
      }
    </style>
  </defs>
  <path id="Slice_of_orange" data-name="Slice of orange" class="cls-1" d="M649.01,3386.04h-4.6a2.566,2.566,0,0,0-.394-0.04H615.034a0.117,0.117,0,0,0-.057.01L610,3386H610a2.92,2.92,0,0,0-3,2.94c0,13.37,9.682,23.06,23.022,23.06,12.941,0,21.98-9.46,21.98-23A2.972,2.972,0,0,0,649.01,3386.04ZM615.034,3389h8.372l-6.768,6.77A15.013,15.013,0,0,1,615.034,3389Zm12.61,0h1.378v14.94a14.939,14.939,0,0,1-10.732-5.58Zm4.375,0h1.9c0.017,0.02.023,0.04,0.041,0.06l8,8.01a13.338,13.338,0,0,1-9.94,6.77V3389Zm6.116,0h5.873a17.02,17.02,0,0,1-.773,5.1Zm-8.114,19.99c-11.472,0-20.025-8.22-20.025-20.08l2.049,0.01c0,0.03-.008.05-0.008,0.08a17.874,17.874,0,0,0,2.824,9.64,1.524,1.524,0,0,0,.363.67c0.046,0.04.106,0.06,0.156,0.1a17.955,17.955,0,0,0,14.641,7.58,16.478,16.478,0,0,0,14.664-8.68,1.54,1.54,0,0,0,.383-0.25,1.482,1.482,0,0,0,.387-1.33,19.658,19.658,0,0,0,1.549-7.6c0-.04,0-0.09,0-0.13v-0.01l2,0.01C649,3400.85,641.492,3408.99,630.021,3408.99Z" transform="translate(-607 -3386)"/>
</svg>
