<svg xmlns="http://www.w3.org/2000/svg" width="38.312" height="46" viewBox="0 0 38.312 46">
  <defs>
    <style>
      .cls-1 {
        fill-rule: evenodd;
      }
    </style>
  </defs>
  <path id="Strawberry" class="cls-1" d="M102.472,3324.85a1.516,1.516,0,0,1-1.516-1.51v-2.02a1.516,1.516,0,0,1,3.032,0v2.02A1.516,1.516,0,0,1,102.472,3324.85ZM121,3299a10.623,10.623,0,0,0-6.8-4.77,7.718,7.718,0,0,0,1.079-1.02,5.859,5.859,0,0,0,1.4-4.82l-0.491-2.4h-2.5c-4.992,0-8.2,1.61-10.18,3.26-1.983-1.65-5.188-3.26-10.18-3.26h-2.5l-0.491,2.4a5.862,5.862,0,0,0,1.4,4.82,7.745,7.745,0,0,0,1.078,1.02,11.762,11.762,0,0,0-7.211,4.96,10.735,10.735,0,0,0-.474,10.52l8.17,16.32a10.834,10.834,0,0,0,19.361,0l8.17-16.32C122.518,3306.33,122.987,3302.21,121,3299Zm-14.27-5.22-0.386-.95a8.376,8.376,0,0,0-.8-1.37c1.527-1.25,4.072-2.49,8.143-2.49C113.689,3288.97,114.49,3292.92,106.73,3293.78Zm-13.4-4.81c4.071,0,6.616,1.24,8.143,2.49a8.516,8.516,0,0,0-.8,1.37l-0.386.95C92.528,3292.92,93.329,3288.97,93.329,3288.97Zm24.787,19.38-8.17,16.32a7.8,7.8,0,0,1-13.937,0l-8.17-16.32c-2.59-5.17,1.608-11.43,7.441-11.43h16.457C117.571,3296.92,120.706,3303.18,118.116,3308.35Zm-25.61-6.34a1.5,1.5,0,0,0-1.5,1.5v1.99a1.5,1.5,0,0,0,3,0v-1.99A1.5,1.5,0,0,0,92.506,3302.01Zm9.966-.37a1.509,1.509,0,0,0-1.516,1.51v2.02a1.516,1.516,0,0,0,3.032,0v-2.02A1.509,1.509,0,0,0,102.472,3301.64Zm10.029,0.37a1.5,1.5,0,0,0-1.5,1.5v1.99a1.5,1.5,0,0,0,3,0v-1.99A1.5,1.5,0,0,0,112.5,3302.01Zm-15,8.99a1.5,1.5,0,0,0-1.5,1.5v1.99a1.5,1.5,0,0,0,3,0v-1.99A1.5,1.5,0,0,0,97.5,3311Zm10.013,0a1.5,1.5,0,0,0-1.5,1.5v1.99a1.5,1.5,0,0,0,3,0v-1.99A1.5,1.5,0,0,0,107.51,3311Z" transform="translate(-84 -3286)"/>
</svg>
