<svg xmlns="http://www.w3.org/2000/svg" width="42.594" height="26" viewBox="0 0 42.594 26">
  <defs>
    <style>
      .cls-1 {
        fill-rule: evenodd;
      }
    </style>
  </defs>
  <path id="Take_off" data-name="Take off" class="cls-1" d="M381.913,3652.9a2.34,2.34,0,0,1,1.677.56c1.008,1.01-1.019,4.31-2.015,5.04l-12.095,8.05-17.135,6.3-5.04-4.28,6.048,1,12.095-7.05-12.095-8.05,1.008-1.01,18.142,4.05,7.056-4.05a5.433,5.433,0,0,1,2.354-.56m0-3.02h0a8.514,8.514,0,0,0-3.819.94l-6.077,3.48-17-3.79a3.688,3.688,0,0,0-.659-0.07,3,3,0,0,0-2.138.89l-1.008,1a3.018,3.018,0,0,0,.461,4.65l8.064,5.37-6.967,4.06-4.971-.82a2.81,2.81,0,0,0-.5-0.04,3.017,3.017,0,0,0-1.957,5.32l5.041,4.28a3.032,3.032,0,0,0,1.958.72,2.913,2.913,0,0,0,1.043-.19l17.134-6.29a3.018,3.018,0,0,0,.634-0.32l12.1-8.06c0.035-.02.07-0.05,0.1-0.07a10.326,10.326,0,0,0,3.516-6.29,4.131,4.131,0,0,0-1.144-3.32,5.2,5.2,0,0,0-3.815-1.45h0Z" transform="translate(-344.281 -3649.88)"/>
</svg>
