<svg xmlns="http://www.w3.org/2000/svg" width="44" height="44" viewBox="0 0 44 44">
  <defs>
    <style>
      .cls-1 {
        fill-rule: evenodd;
      }
    </style>
  </defs>
  <path id="Target" class="cls-1" d="M805,2302a22,22,0,1,0,22,22A22.025,22.025,0,0,0,805,2302Zm0,41a19,19,0,1,1,19-19A19,19,0,0,1,805,2343Zm0-34a15,15,0,1,0,15,15A15.018,15.018,0,0,0,805,2309Zm0,27a12,12,0,1,1,12-12A12,12,0,0,1,805,2336Zm0-20a8,8,0,1,0,8,8A8.01,8.01,0,0,0,805,2316Zm0,13a5,5,0,1,1,5-5A5,5,0,0,1,805,2329Zm0-6.5a1.5,1.5,0,1,0,1.5,1.5A1.5,1.5,0,0,0,805,2322.5Z" transform="translate(-783 -2302)"/>
</svg>
