<svg xmlns="http://www.w3.org/2000/svg" width="46.062" height="39.85" viewBox="0 0 46.062 39.85">
  <defs>
    <style>
      .cls-1 {
        fill-rule: evenodd;
      }
    </style>
  </defs>
  <path id="Tea" class="cls-1" d="M536.533,3229.98a6.615,6.615,0,0,1-6.591-6.46,1.465,1.465,0,1,0-2.929,0,9.626,9.626,0,0,0,9.52,9.48A1.511,1.511,0,0,0,536.533,3229.98Zm26.433-12.07A8.693,8.693,0,0,0,559,3219v-4a3.015,3.015,0,0,0-3-3h-9a2.979,2.979,0,0,1,.747-1.77,4.578,4.578,0,0,0-.881-7.95,1.471,1.471,0,0,0-1.979.66,1.528,1.528,0,0,0,.637,2.03,2.249,2.249,0,0,1,1.173,1.68,3.2,3.2,0,0,1-1.051,1.45A5.7,5.7,0,0,0,544,3212h-3a3.115,3.115,0,0,1,.8-1.77,4.578,4.578,0,0,0-.881-7.95,1.472,1.472,0,0,0-1.979.66,1.528,1.528,0,0,0,.637,2.03,2.249,2.249,0,0,1,1.173,1.68,3.2,3.2,0,0,1-1.05,1.45A5.731,5.731,0,0,0,538,3212h-3a3.263,3.263,0,0,1,.863-1.77,4.578,4.578,0,0,0-.881-7.95,1.472,1.472,0,0,0-1.979.66,1.528,1.528,0,0,0,.637,2.03,2.249,2.249,0,0,1,1.173,1.68,3.2,3.2,0,0,1-1.05,1.45A5.773,5.773,0,0,0,532,3212h-8a3,3,0,0,0-3,3l-0.052,6.75c0,7.5,3.861,14.11,10.052,17.25h-3a1.5,1.5,0,0,0-1.605,1.38c0,0.83.266,1.6,1.1,1.6h24.018a1.7,1.7,0,0,0,1.626-1.6A1.133,1.133,0,0,0,552,3239h-4a19.912,19.912,0,0,0,6.027-4.8c0.187,0.08,11.7-5.96,12.7-9.36a5.815,5.815,0,0,0-.705-5A4.2,4.2,0,0,0,562.966,3217.91ZM556,3222a16.014,16.014,0,0,1-16,16,16.3,16.3,0,0,1-16.081-16.25L524,3215h9a2.6,2.6,0,0,0,2,2c0.625,0,.146-1.97,1-2,0.494-.02,3,0,3,0a2.317,2.317,0,0,0,2,2c-0.409.01,1.606-1.85,1-2,0.066,0.02,3,0,3,0s0.607,2,2,2c0.947-.06.736-1.48,1-2,0.111-.22,1,0.23,1,0h7v7Zm7.738,1.67c-0.59,2-2.774,3.15-6.1,4.99A10.232,10.232,0,0,0,559,3223c0.018-.02,2.68-2.21,3.624-2.11a1.182,1.182,0,0,1,.862.61A2.162,2.162,0,0,1,563.738,3223.67Z" transform="translate(-520.938 -3202.12)"/>
</svg>
