<svg xmlns="http://www.w3.org/2000/svg" width="44" height="44" viewBox="0 0 44 44">
  <defs>
    <style>
      .cls-1 {
        fill-rule: evenodd;
      }
    </style>
  </defs>
  <path id="To_the_top" data-name="To the top" class="cls-1" d="M366,1242a22,22,0,1,0,22,22A22.025,22.025,0,0,0,366,1242Zm0,41a19,19,0,1,1,19-19A19,19,0,0,1,366,1283Zm1.6-25.03c-0.012-.01-0.028-0.01-0.04-0.02a0.122,0.122,0,0,0-.029-0.04,1.789,1.789,0,0,0-.214-0.14,1,1,0,0,0-.531-0.22,1.007,1.007,0,0,0-.562,0,1,1,0,0,0-.531.22,1.789,1.789,0,0,0-.214.14,0.122,0.122,0,0,0-.029.04c-0.012.01-.028,0.01-0.04,0.02l-7.5,8a1.5,1.5,0,0,0,.069,2.12,1.462,1.462,0,0,0,1.026.41,1.515,1.515,0,0,0,1.1-.47l6.4-6.84,6.4,6.84a1.515,1.515,0,0,0,1.1.47,1.462,1.462,0,0,0,1.026-.41,1.5,1.5,0,0,0,.069-2.12Z" transform="translate(-344 -1242)"/>
</svg>
