<svg xmlns="http://www.w3.org/2000/svg" width="45.031" height="42.03" viewBox="0 0 45.031 42.03">
  <defs>
    <style>
      .cls-1 {
        fill-rule: evenodd;
      }
    </style>
  </defs>
  <path id="Trailer" class="cls-1" d="M536,3482h-4.006a3,3,0,0,0-3,3v4a3,3,0,0,0,3,3H536a3,3,0,0,0,3-3v-4A3,3,0,0,0,536,3482Zm0,7h-4.006v-4H536v4Zm27.478,10h-1.468v-11.98a20.839,20.839,0,0,0-20.829-21.04,21.105,21.105,0,0,0-21.225,20.94v11.97A3.127,3.127,0,0,0,523,3502h5c0,0.09,0-.08,0,0a6.062,6.062,0,0,0,6.1,5.98A5.885,5.885,0,0,0,540,3502c0-.1,0,0.11,0,0h23.476A1.5,1.5,0,1,0,563.476,3499ZM537,3502a2.9,2.9,0,0,1-2.9,2.99,2.858,2.858,0,0,1-3.032-2.8A1.069,1.069,0,0,1,531,3502h6C537.007,3502.08,537,3501.92,537,3502Zm8-3v-12c0-1.38,1.389-1.99,2.786-1.99S550,3485.62,550,3487v12h-5Zm2.786-16.99c-3.07,0-5.786,1.96-5.786,4.99v12H523l-0.014-12.08a18.075,18.075,0,0,1,18.193-17.95,17.838,17.838,0,0,1,17.831,18.05V3499H553v-12C553,3483.97,550.856,3482.01,547.786,3482.01Z" transform="translate(-519.969 -3465.97)"/>
</svg>
