<svg xmlns="http://www.w3.org/2000/svg" width="35.688" height="46" viewBox="0 0 35.688 46">
  <defs>
    <style>
      .cls-1 {
        fill-rule: evenodd;
      }
    </style>
  </defs>
  <path id="Tree_1" data-name="Tree 1" class="cls-1" d="M118.608,3501.8l-14.863-34.98a2.983,2.983,0,0,0-5.494,0L83.388,3501.8a3.026,3.026,0,0,0,.254,2.84,2.989,2.989,0,0,0,2.493,1.35H99.283a1.961,1.961,0,0,0-.276,1v2a1.992,1.992,0,1,0,3.983,0v-2a1.962,1.962,0,0,0-.277-1h13.148a2.99,2.99,0,0,0,2.493-1.35A3.027,3.027,0,0,0,118.608,3501.8Zm-32.473,1.18L101,3468l14.863,34.98H86.135Z" transform="translate(-83.156 -3465)"/>
</svg>
