<svg xmlns="http://www.w3.org/2000/svg" width="27.656" height="46" viewBox="0 0 27.656 46">
  <defs>
    <style>
      .cls-1 {
        fill-rule: evenodd;
      }
    </style>
  </defs>
  <path id="Tree_2" data-name="Tree 2" class="cls-1" d="M203.376,3500.4l-3.208-5.42h0.658a2.946,2.946,0,0,0,2.559-1.44,3.138,3.138,0,0,0,.052-3.03l-3.514-6.55h0.9a2.906,2.906,0,0,0,2.672-1.61,2.951,2.951,0,0,0-.321-3.12l-10.837-14.09a2.977,2.977,0,0,0-4.7.02l-10.837,14.1a2.9,2.9,0,0,0,2.351,4.7h0.9l-3.514,6.57a3.023,3.023,0,0,0,.052,2.97,2.962,2.962,0,0,0,2.559,1.48h0.658l-3.208,5.42a3.053,3.053,0,0,0-.04,3.04,2.98,2.98,0,0,0,2.59,1.55h9.128a1.97,1.97,0,0,0-.275,1v2a1.984,1.984,0,1,0,3.967,0v-2a1.97,1.97,0,0,0-.275-1h9.128a2.961,2.961,0,0,0,2.59-1.53A3.09,3.09,0,0,0,203.376,3500.4Zm-24.223,1.58,5.918-10.01h-5.918l5.918-11.01h-5.918l10.836-14.11,10.837,14.11h-5.918l5.918,11.01h-5.918l5.918,10.01H179.153Z" transform="translate(-176.156 -3464)"/>
</svg>
