<svg xmlns="http://www.w3.org/2000/svg" width="39" height="39" viewBox="0 0 39 39">
  <defs>
    <style>
      .cls-1 {
        fill-rule: evenodd;
      }
    </style>
  </defs>
  <path id="View" class="cls-1" d="M359,1334H348a3,3,0,0,0-3,3v11a3,3,0,0,0,3,3h11a3,3,0,0,0,3-3v-11A3,3,0,0,0,359,1334Zm0,14H348v-11h11v11Zm22-14H370a3,3,0,0,0-3,3v11a3,3,0,0,0,3,3h11a3,3,0,0,0,3-3v-11A3,3,0,0,0,381,1334Zm0,14H370v-11h11v11Zm-22,8H348a3,3,0,0,0-3,3v11a3,3,0,0,0,3,3h11a3,3,0,0,0,3-3v-11A3,3,0,0,0,359,1356Zm0,14H348v-11h11v11Zm22-14H370a3,3,0,0,0-3,3v11a3,3,0,0,0,3,3h11a3,3,0,0,0,3-3v-11A3,3,0,0,0,381,1356Zm0,14H370v-11h11v11Z" transform="translate(-345 -1334)"/>
</svg>
