<svg xmlns="http://www.w3.org/2000/svg" width="42" height="42" viewBox="0 0 42 42">
  <defs>
    <style>
      .cls-1 {
        fill-rule: evenodd;
      }
    </style>
  </defs>
  <path id="View" class="cls-1" d="M441,1332h-6a3,3,0,0,0-3,3v6a3,3,0,0,0,3,3h6a3,3,0,0,0,3-3v-6A3,3,0,0,0,441,1332Zm0,9h-6v-6h6v6Zm15-9h-6a3,3,0,0,0-3,3v6a3,3,0,0,0,3,3h6a3,3,0,0,0,3-3v-6A3,3,0,0,0,456,1332Zm0,9h-6v-6h6v6Zm15-9h-6a3,3,0,0,0-3,3v6a3,3,0,0,0,3,3h6a3,3,0,0,0,3-3v-6A3,3,0,0,0,471,1332Zm0,9h-6v-6h6v6Zm-30,6h-6a3,3,0,0,0-3,3v6a3,3,0,0,0,3,3h6a3,3,0,0,0,3-3v-6A3,3,0,0,0,441,1347Zm0,9h-6v-6h6v6Zm15-9h-6a3,3,0,0,0-3,3v6a3,3,0,0,0,3,3h6a3,3,0,0,0,3-3v-6A3,3,0,0,0,456,1347Zm0,9h-6v-6h6v6Zm15-9h-6a3,3,0,0,0-3,3v6a3,3,0,0,0,3,3h6a3,3,0,0,0,3-3v-6A3,3,0,0,0,471,1347Zm0,9h-6v-6h6v6Zm-30,6h-6a3,3,0,0,0-3,3v6a3,3,0,0,0,3,3h6a3,3,0,0,0,3-3v-6A3,3,0,0,0,441,1362Zm0,9h-6v-6h6v6Zm30-9h-6a3,3,0,0,0-3,3v6a3,3,0,0,0,3,3h6a3,3,0,0,0,3-3v-6A3,3,0,0,0,471,1362Zm0,9h-6v-6h6v6Zm-15-9h-6a3,3,0,0,0-3,3v6a3,3,0,0,0,3,3h6a3,3,0,0,0,3-3v-6A3,3,0,0,0,456,1362Zm0,9h-6v-6h6v6Z" transform="translate(-432 -1332)"/>
</svg>
