<svg xmlns="http://www.w3.org/2000/svg" width="24" height="41" viewBox="0 0 24 41">
  <defs>
    <style>
      .cls-1 {
        fill-rule: evenodd;
      }
    </style>
  </defs>
  <path id="Watch" class="cls-1" d="M817,1793a11.949,11.949,0,0,0-3.862-8.79l-1.658-9.96A1.5,1.5,0,0,0,810,1773H800a1.314,1.314,0,0,0-.485.09c-0.019,0-.038.01-0.057,0.01a1.787,1.787,0,0,0-.391.23,0.289,0.289,0,0,1-.06.05,1.511,1.511,0,0,0-.286.35c-0.014.02-.024,0.04-0.036,0.06a1.525,1.525,0,0,0-.158.45s0,0.01-.006.01l-1.659,9.96a11.949,11.949,0,0,0-.195,17.41l1.854,11.13A1.5,1.5,0,0,0,800,1814h10a1.314,1.314,0,0,0,.485-0.09c0.019,0,.038-0.01.057-0.01a1.787,1.787,0,0,0,.391-0.23,0.289,0.289,0,0,1,.06-0.05,1.511,1.511,0,0,0,.286-0.35c0.013-.02.024-0.04,0.036-0.06a1.525,1.525,0,0,0,.158-0.45,0.061,0.061,0,0,0,.007-0.01l1.855-11.14A11.943,11.943,0,0,0,817,1793Zm-15.73-17h7.459l1,5.97a11.993,11.993,0,0,0-9.45,0Zm3.73,8a9,9,0,1,1-9,9A9,9,0,0,1,805,1784Zm3.729,27H801.27l-1.1-7.02A11.983,11.983,0,0,0,805,1805a11.84,11.84,0,0,0,4.906-1.06Z" transform="translate(-793 -1773)"/>
</svg>
