<svg xmlns="http://www.w3.org/2000/svg" width="41.719" height="39" viewBox="0 0 41.719 39">
  <defs>
    <style>
      .cls-1 {
        fill-rule: evenodd;
      }
    </style>
  </defs>
  <path id="Weather" class="cls-1" d="M549.563,3757.18a0.45,0.45,0,0,0-.066.07c0.051,0.07.094,0.15,0.142,0.23a0.488,0.488,0,0,0-.03-0.07C549.585,3757.33,549.583,3757.25,549.563,3757.18Zm12.778-3.65a8.124,8.124,0,0,0-4.742-5.15c-1.354-4.13-4.217-7.38-8.6-7.38a12.391,12.391,0,0,0-6.837,2.67,6.506,6.506,0,1,0-9.962,8.12A8.638,8.638,0,0,0,531,3759c1,3.26,4.064,5.09,7.443,5.31A9.268,9.268,0,0,0,547,3770a13.949,13.949,0,0,0,3.463-.44,10.08,10.08,0,0,0,6.386-5.87,0.214,0.214,0,0,0,.077-0.02,8.105,8.105,0,0,0,4.82-3.96A8,8,0,0,0,562.341,3753.53Zm-25.772-10.04a3.513,3.513,0,0,1,3.45,2.83,16.82,16.82,0,0,0-.865,1.6l-2.605.8a8.792,8.792,0,0,0-2.16.99A3.479,3.479,0,0,1,536.569,3743.49Zm19.474,17.55c-1.018.31-2.089,0.43-1.568,0.43a7.593,7.593,0,0,1-4.895,5.46,10.622,10.622,0,0,1-2.58.07,6.381,6.381,0,0,1-6.208-4.89c-0.5-1.62-1.515-.81-1.806-0.78A4.7,4.7,0,0,1,534,3758a5.153,5.153,0,0,1,3.432-6.42c1.562-.47,3.964-1.2,3.964-1.2s1.708-4.45,4.588-5.58A10.271,10.271,0,0,1,549,3744c3.01,0,4.844,2.42,5.772,5.43A8.848,8.848,0,0,1,555,3751a5.131,5.131,0,0,1,4.459,3.52A5.247,5.247,0,0,1,556.043,3761.04ZM535.5,3731a1.5,1.5,0,0,1,1.5,1.5v4a1.5,1.5,0,0,1-3,0v-4A1.5,1.5,0,0,1,535.5,3731Zm-13,13h4a1.5,1.5,0,0,1,0,3h-4A1.5,1.5,0,0,1,522.5,3744Zm5.146-8.66,2.829,2.83a1.5,1.5,0,1,1-2.121,2.12l-2.829-2.83A1.5,1.5,0,1,1,527.646,3735.34Zm18.907,1.28-2.9,2.91a1.541,1.541,0,1,1-2.178-2.18l2.9-2.91A1.541,1.541,0,1,1,546.553,3736.62Zm-18,16-2.9,2.9a1.537,1.537,0,1,1-2.178-2.17l2.9-2.91A1.541,1.541,0,1,1,528.553,3752.62Z" transform="translate(-521 -3731)"/>
</svg>
