<svg xmlns="http://www.w3.org/2000/svg" width="44.719" height="42.97" viewBox="0 0 44.719 42.97">
  <defs>
    <style>
      .cls-1 {
        fill-rule: evenodd;
      }
    </style>
  </defs>
  <path id="Wok" class="cls-1" d="M388.522,3407.82l-3.95-4.12a2.968,2.968,0,0,0-2.7-1.75H368.619a8.606,8.606,0,0,0,2.343-5.27c0-2.13-1.2-3.87-2.256-5.4-0.142-.21-0.28-0.41-0.416-0.61l17.71-2.32a1.507,1.507,0,0,0-.381-2.99L367,3387.79c0-.06-0.015-0.12-0.015-0.18a5.341,5.341,0,0,1,.56-2.25l16.218-4.35a1.512,1.512,0,0,0,1.059-1.85,1.492,1.492,0,0,0-1.822-1.07l-13.043,3.5a1.5,1.5,0,0,0-.379-1.04,1.475,1.475,0,0,0-2.1-.1,12.455,12.455,0,0,0-1.885,2.31l-2.106.57a1.541,1.541,0,0,0-.239-0.61,1.47,1.47,0,0,0-2.074-.38,7.845,7.845,0,0,0-1.928,2.12l-3.664.99,0.181-1.35a3.023,3.023,0,0,0-2.33.75,3.656,3.656,0,0,0-.955,1.43l-3.26.88a1.513,1.513,0,0,0,.381,2.97,1.683,1.683,0,0,0,.382-0.05l2.176-.59c0.013,0.08.034,0.16,0.049,0.23l-1.248.17a1.513,1.513,0,0,0,.189,3.01,1.264,1.264,0,0,0,.192-0.02l2.252-.29c0.272,0.36.557,0.7,0.833,1.03,0.877,1.05,1.635,1.96,1.635,3.06,0,1.14-.287,1.51-0.392,1.52a0.236,0.236,0,0,1,.1,0l-0.886,3.24a1.874,1.874,0,0,0,.309.02,4.124,4.124,0,0,0,3.854-4.78c0-2.2-1.243-3.69-2.34-5.01a5.366,5.366,0,0,1-1.627-2.96l3.006-.81c-0.021.24-.033,0.47-0.033,0.72,0,2.2,1.244,3.69,2.341,5,0.876,1.06,1.634,1.96,1.634,3.06,0,2.03-.915,2.56-1.051,2.62-0.744.31-1.613,1.41-1.337,2.17a1.332,1.332,0,0,0,.306.48h-9.823a2.981,2.981,0,0,0-2.454,1.3,2.9,2.9,0,0,0-.2.39l-3,4.18a1.536,1.536,0,0,0,.11,2.02l1.987,2.01a1.459,1.459,0,0,0,2.108,0,1.517,1.517,0,0,0,0-2.13l-1.044-1.06,0.853-1.08,4.36,11.49a2.986,2.986,0,0,0,2.778,1.92h20.824a2.986,2.986,0,0,0,2.777-1.92l5.3-11.49,0.853,1.08-1.044,1.06a1.517,1.517,0,0,0,0,2.13,1.459,1.459,0,0,0,2.108,0l1.987-2.01A1.536,1.536,0,0,0,388.522,3407.82ZM378,3405l-7,5H361l-7-5h24Zm-15.34-13.33c-0.877-1.05-1.635-1.96-1.635-3.05a4.721,4.721,0,0,1,.269-1.58l2.84-.76a7.315,7.315,0,0,0-.128,1.33c0,2.12,1.2,3.86,2.256,5.4,0.884,1.28,1.719,2.49,1.719,3.67a4.916,4.916,0,0,1-1.851,3.8,2.741,2.741,0,0,0-1.131,1.47h-2.721a6.528,6.528,0,0,0,2.721-5.27C365,3394.48,363.756,3392.99,362.66,3391.67Zm13.774,26.32H355.61l-4.108-10.85,7.735,5.55a1.549,1.549,0,0,0,.811.24h11.915a1.516,1.516,0,0,0,.894-0.3l8.54-6.48Z" transform="translate(-344.125 -3378.03)"/>
</svg>
