<svg xmlns="http://www.w3.org/2000/svg" width="42" height="34" viewBox="0 0 42 34">
  <defs>
    <style>
      .cls-1 {
        fill-rule: evenodd;
      }
    </style>
  </defs>
  <path id="Youtube" class="cls-1" d="M288.945,2136a7.057,7.057,0,0,1,7.055,7.06v13.88a7.057,7.057,0,0,1-7.055,7.06h-21.89a7.057,7.057,0,0,1-7.055-7.06v-13.88a7.057,7.057,0,0,1,7.055-7.06h21.89m0-3h-21.89A10.067,10.067,0,0,0,257,2143.06v13.88A10.067,10.067,0,0,0,267.055,2167h21.89A10.067,10.067,0,0,0,299,2156.94v-13.88A10.067,10.067,0,0,0,288.945,2133h0ZM275,2145l8,5-8,5v-10m0-3a2.907,2.907,0,0,0-1.454.38A2.984,2.984,0,0,0,272,2145v10a2.984,2.984,0,0,0,1.546,2.62A2.907,2.907,0,0,0,275,2158a2.943,2.943,0,0,0,1.59-.46l8-5a2.993,2.993,0,0,0,0-5.08l-8-5A2.943,2.943,0,0,0,275,2142h0Z" transform="translate(-257 -2133)"/>
</svg>
