<svg width="154" height="30" fill="none" xmlns="http://www.w3.org/2000/svg"><path d="M9.716 29.538h-5.78v-14.56H0v-4.74h3.937V6.863C3.937 2.867 5.677 0 11.44 0c1.219 0 3.132.248 3.132.248V4.65h-2.01c-2.048 0-2.847.63-2.847 2.37v3.217h4.78l-.425 4.74H9.716v14.56zm13.26-19.68c-.085 0-.171.003-.257.006-5.359 0-7.81 4.073-7.81 9.856 0 7.285 3.18 10.2 7.852 10.2 2.673 0 4.429-1.136 5.496-3.259v2.879h5.497v-19.3h-5.497v2.967c-.871-1.91-2.677-3.326-5.282-3.349zm1.397 4.56c2.25 0 3.601 1.588 3.601 4.286l.006 2.757c0 1.819-1.116 3.947-3.607 3.947-3.83 0-3.727-4.18-3.727-5.571 0-4.683 2.04-5.418 3.727-5.418zm11.6 5.472c0-2.345-.11-10.02 9.782-10.02 3.971 0 5.63 1.277 5.63 1.277l-1.333 4.178s-1.656-.922-3.814-.922c-2.764 0-4.527 1.62-4.527 4.469l.003 2.043c0 2.737 1.701 4.565 4.53 4.565 1.965 0 3.777-.93 3.777-.93l1.33 4.09s-1.517 1.284-5.568 1.284c-9.42 0-9.81-6.885-9.81-10.034zm47.64-10.026c5.358 0 7.849 4.073 7.849 9.856 0 7.285-3.18 10.2-7.853 10.2-2.672 0-4.648-1.136-5.716-3.259v2.879l-5.427-.002V.587l5.762-.508v12.867c.832-2.251 3.565-3.082 5.385-3.082zm-1.616 4.555c-2.25 0-3.769 1.587-3.769 4.285l-.005 2.757c-.003 1.819 1.051 3.947 3.774 3.947 3.83 0 3.727-4.18 3.727-5.571 0-4.683-2.04-5.418-3.727-5.418zm-20.614-4.54c-6.078 0-9.287 3.35-9.287 9.302v1.105c0 7.725 4.506 9.714 9.878 9.714 5.222 0 7.585-1.476 7.585-1.476l-1.078-3.931s-2.78 1.196-5.816 1.196c-3.147 0-4.5-.811-4.847-3.868H70.02v-3.153c0-6.457-3.601-8.889-8.637-8.889zm.146 3.937c2.104 0 3.467 1.304 3.392 4.328h-7.093c.123-3.183 1.593-4.328 3.701-4.328zm41.423-3.963c-6.242 0-9.527 3.555-9.527 9.925 0 8.741 5.664 10.148 9.537 10.148 5.671 0 9.444-3.086 9.444-10.068 0-7.268-4.242-10.005-9.454-10.005zm-.079 4.582c2.745 0 3.832 2.076 3.832 4.439v2.031c0 2.863-1.521 4.519-3.842 4.519-2.17 0-3.696-1.549-3.696-4.519v-2.031c0-3.167 1.815-4.44 3.706-4.44zm21.013-4.582c-6.241 0-9.528 3.555-9.528 9.925 0 8.741 5.665 10.148 9.538 10.148 5.671 0 9.444-3.086 9.444-10.068 0-7.268-4.242-10.005-9.454-10.005zm-.079 4.582c2.745 0 3.832 2.076 3.832 4.439v2.031c0 2.863-1.522 4.519-3.842 4.519-2.17 0-3.696-1.549-3.696-4.519v-2.031c0-3.167 1.815-4.44 3.706-4.44zm11.71 15.103V.587l5.779-.508v19.404l5.735-9.246h6.103l-5.981 9.577 6.211 9.724h-6.121l-5.947-9.442v9.442h-5.779z" fill="#2D88FF"/></svg>