<svg width="91" height="30" fill="none" xmlns="http://www.w3.org/2000/svg"><path d="M11.2 0h.808c2.808.062 5.57 1.203 7.553 3.223-.733.756-1.48 1.48-2.197 2.236-1.114-1.018-2.457-1.804-3.921-2.082-2.167-.462-4.502-.046-6.317 1.203C5.142 5.89 3.8 8.111 3.51 10.486c-.32 2.344.335 4.811 1.846 6.631 1.45 1.773 3.662 2.884 5.95 2.96 2.137.124 4.364-.539 5.92-2.05 1.221-1.064 1.786-2.683 1.969-4.256-2.533 0-5.066.015-7.599 0v-3.177h10.665c.55 3.408-.244 7.248-2.807 9.684-1.709 1.727-4.074 2.745-6.485 2.946-2.334.231-4.745-.216-6.82-1.357-2.487-1.342-4.47-3.609-5.447-6.277-.915-2.451-.93-5.227-.076-7.695a11.729 11.729 0 014.196-5.628C6.668.894 8.91.139 11.2 0z" fill="#4088FF"/><path d="M72.383.802h3.266v22.02c-1.084 0-2.182.016-3.266-.015.016-7.325 0-14.665 0-22.005z" fill="#43C064"/><path d="M29.524 8.436c2.014-.386 4.196.046 5.859 1.264 1.51 1.08 2.563 2.776 2.883 4.626.413 2.144-.106 4.488-1.48 6.184-1.48 1.897-3.906 2.914-6.27 2.76-2.167-.123-4.273-1.218-5.554-3.007-1.45-1.974-1.8-4.688-1.007-7 .793-2.483 3.036-4.38 5.569-4.827zm.458 2.93a4.096 4.096 0 00-2.136 1.372c-1.48 1.789-1.389 4.703.244 6.369.93.956 2.334 1.403 3.631 1.14 1.205-.215 2.258-1.032 2.838-2.112 1.007-1.835.717-4.364-.824-5.798-.992-.925-2.441-1.31-3.753-.971z" fill="#F94B3C"/><path d="M45.697 8.435c2.304-.447 4.822.2 6.546 1.835 2.807 2.545 3.112 7.31.717 10.24-1.45 1.85-3.8 2.868-6.118 2.76-2.213-.062-4.395-1.172-5.707-3.007-1.48-2.02-1.8-4.796-.961-7.155.84-2.406 3.036-4.241 5.523-4.673zm.458 2.93a4.166 4.166 0 00-2.136 1.357c-1.465 1.758-1.404 4.626.168 6.307.93 1.003 2.38 1.496 3.723 1.218 1.19-.23 2.258-1.033 2.838-2.112.991-1.85.701-4.38-.855-5.814-.992-.925-2.441-1.295-3.738-.956z" fill="#F3B605"/><path d="M59.415 9.33c1.754-1.111 4.089-1.42 5.98-.463.596.262 1.084.709 1.557 1.156.015-.416 0-.848.015-1.28 1.022.016 2.045 0 3.082.016v13.6c-.015 2.052-.534 4.226-1.999 5.722-1.602 1.65-4.058 2.159-6.27 1.82-2.365-.355-4.425-2.098-5.34-4.303.915-.447 1.876-.802 2.822-1.218.534 1.264 1.617 2.344 2.975 2.59 1.358.247 2.93-.092 3.815-1.233.946-1.172.946-2.776.9-4.21-.702.694-1.51 1.31-2.487 1.542-2.12.601-4.455-.139-6.088-1.588-1.648-1.45-2.624-3.686-2.533-5.906.046-2.514 1.45-4.935 3.57-6.246zm3.158 1.973c-.93.154-1.8.679-2.395 1.403-1.435 1.727-1.435 4.488.015 6.184.824 1.002 2.151 1.558 3.433 1.419 1.205-.124 2.319-.895 2.914-1.959 1.007-1.804.84-4.256-.519-5.829a3.732 3.732 0 00-3.448-1.218z" fill="#4088FF"/><path d="M79.57 10.116c1.83-1.727 4.653-2.313 7.003-1.403 2.227.848 3.647 2.991 4.363 5.196-3.31 1.388-6.606 2.76-9.917 4.149.458.879 1.16 1.68 2.106 2.004 1.327.478 2.914.309 4.028-.586.442-.339.793-.786 1.129-1.218.839.57 1.678 1.126 2.517 1.696-1.19 1.805-3.189 3.07-5.34 3.27-2.38.293-4.913-.633-6.454-2.514-2.533-2.96-2.289-7.926.565-10.594zm1.632 2.853c-.519.755-.732 1.68-.717 2.59 2.212-.925 4.425-1.85 6.637-2.79-.366-.864-1.25-1.389-2.151-1.527-1.45-.263-2.96.524-3.769 1.727z" fill="#F94B3C"/></svg>