<svg width="126" height="30" fill="none" xmlns="http://www.w3.org/2000/svg"><path d="M49.423 10.71h3.973v12.48h-3.973V10.71zm4.802 0h3.827v1.707h.073c.926-1.341 2.12-2.072 3.851-2.072 2.73 0 4.338 1.95 4.338 4.728v8.117h-3.972v-7.312c0-1.316-.658-2.218-1.95-2.218-1.316 0-2.194 1.097-2.194 2.632v6.898h-3.973V10.71zm-.433-3.338a2.383 2.383 0 10-4.766 0 2.383 2.383 0 004.766 0zm40.465 3.158a4.454 4.454 0 00-.395-.014c-1.512 0-2.535.658-3.413 2.144h-.073v-1.95h-3.802v12.48h3.973v-5.606c0-2.598 1.438-3.801 3.71-3.591V10.53zm19.497 4.787c-1.584-.293-2.998-.414-2.998-1.292 0-.78.755-1.145 1.731-1.145 1.096 0 1.852.34 1.998 1.462h3.656c-.195-2.462-2.096-3.997-5.63-3.997-2.949 0-5.387 1.365-5.387 3.997 0 2.925 2.316 3.51 4.485 3.876 1.657.292 3.168.414 3.168 1.535 0 .804-.755 1.243-1.949 1.243-1.199 0-1.991-.507-2.234-1.535h-3.785c.278 2.565 2.53 4.119 6.043 4.119 3.266 0 5.679-1.414 5.679-4.144 0-3.193-2.584-3.753-4.777-4.12zm-13.334-2.144c1.292 0 2.218.95 2.364 2.437h-4.923c.267-1.487 1.048-2.437 2.559-2.437zm.219 7.531c-1.632 0-2.56-1.048-2.802-2.73h8.969c.024-2.534-.707-4.704-2.194-6.069-1.072-.975-2.486-1.56-4.265-1.56-3.802 0-6.41 2.852-6.41 6.581 0 3.778 2.535 6.63 6.654 6.63 1.584 0 2.851-.414 3.9-1.146 1.097-.755 1.828-1.828 2.095-2.949h-3.875c-.341.78-1.024 1.243-2.072 1.243zm24.89-.456c-.185.007-.431.017-.659.017-.853 0-1.389-.243-1.389-1.218v-5.85h2.048v-2.486h-2.048V6.762h-3.876v3.949h-1.219v2.486h1.219V19.9c0 2.681 1.658 3.437 3.973 3.437.884 0 1.551-.067 1.951-.145v-2.944zm-52.119.005c-.158.006-.341.012-.512.012-.853 0-1.39-.243-1.39-1.218v-5.85h1.902v-2.486h-1.9V6.762h-3.876v3.949h-1.292v2.486h1.292V19.9c0 2.681 1.657 3.437 3.973 3.437.784 0 1.397-.053 1.804-.119v-2.965z" fill="#E60023"/><path d="M82.063 15.61c-.146-1.487-1.072-2.438-2.364-2.438-1.511 0-2.291.951-2.56 2.438h4.924zm-8.847 1.316c0-3.729 2.608-6.58 6.41-6.58 1.78 0 3.193.584 4.265 1.56 1.487 1.364 2.218 3.533 2.194 6.068h-8.97c.244 1.682 1.17 2.73 2.803 2.73 1.048 0 1.73-.463 2.072-1.243h3.875c-.267 1.121-.998 2.194-2.095 2.95-1.049.73-2.316 1.145-3.9 1.145-4.12 0-6.654-2.852-6.654-6.63zm-30.693-2.974c1.56 0 2.437-.926 2.437-2.315 0-1.39-.901-2.243-2.437-2.243h-3.047v4.558h3.047zm-7.07-8.19h6.9c2.12 0 3.68.585 4.753 1.61 1.121 1.047 1.755 2.534 1.755 4.289 0 3.34-2.316 5.704-5.899 5.704h-3.486v5.825h-4.022V5.763z" fill="#E60023"/><path d="M30 15c0 8.284-6.716 15-15 15-8.284 0-15-6.716-15-15C0 6.716 6.716 0 15 0c8.284 0 15 6.716 15 15z" fill="#fff"/><path d="M15 0C6.716 0 0 6.716 0 15c0 6.355 3.954 11.787 9.534 13.973-.131-1.187-.25-3.012.052-4.308.272-1.17 1.759-7.456 1.759-7.456s-.45-.898-.45-2.227c0-2.085 1.21-3.643 2.715-3.643 1.28 0 1.898.961 1.898 2.113 0 1.287-.82 3.211-1.242 4.995-.354 1.492.748 2.71 2.22 2.71 2.667 0 4.716-2.811 4.716-6.869 0-3.591-2.58-6.102-6.265-6.102-4.268 0-6.774 3.2-6.774 6.51 0 1.288.497 2.67 1.117 3.422.122.149.14.279.104.43-.114.474-.367 1.493-.417 1.702-.065.274-.217.333-.501.2-1.874-.872-3.045-3.61-3.045-5.81 0-4.732 3.438-9.078 9.911-9.078 5.203 0 9.247 3.708 9.247 8.663 0 5.17-3.26 9.33-7.783 9.33-1.52 0-2.95-.79-3.438-1.722 0 0-.753 2.864-.935 3.566-.339 1.303-1.253 2.936-1.864 3.932 1.403.435 2.895.669 4.441.669 8.284 0 15-6.716 15-15 0-8.284-6.716-15-15-15z" fill="#E60023"/></svg>