<svg width="119" height="30" fill="none" xmlns="http://www.w3.org/2000/svg"><path d="M38.362 11.745c0-2.154-2.067-4.413-5.659-4.413-4.028 0-8.45 2.965-9.127 8.885-.692 5.977 3.011 8.634 6.744 8.634 3.734 0 5.688-1.461 7.688-3.41-1.72-2.167-3.94-1.165-4.365-.944a4.457 4.457 0 01-2.307.561c-1.44 0-2.911-.649-2.911-3.35 9.23-.915 9.935-3.823 9.935-5.963h.002zm-4.575.354c-.06.663-.323 1.8-4.997 2.437.983-3.514 2.867-3.778 3.733-3.778a1.222 1.222 0 011.273 1.344l-.009-.003zm-15.633.576l-2.146 6.774-1.514-11.762c-3.38 0-5.197 2.42-6.144 4.973l-2.618 6.804-.367-6.731C5.165 9.604 2.309 7.7 0 7.7l2.792 17.016c3.54-.013 5.452-2.42 6.453-4.973l2.213-5.785c.02.236 1.53 10.76 1.53 10.76 3.556 0 5.468-2.258 6.492-4.723l4.982-12.294c-3.508 0-5.356 2.406-6.31 4.973h.002zM51.415 7.29c-2.19 0-3.864 1.195-5.277 2.951v-.014L47.4 0c-2.911 0-5.278 2.539-5.733 6.317L39.48 24.585c1.676 0 3.455-.487 4.41-1.727.854 1.107 2.131 1.993 4.028 1.993 4.909 0 8.276-5.726 8.276-11.099-.03-4.9-2.396-6.449-4.763-6.449l-.015-.013zm-.458 8.782c-.511 2.995-2.175 5.032-3.776 5.032-1.6 0-2.307-.723-2.307-.723.31-2.625.5-4.235 1.087-5.623s1.985-3.601 3.44-3.601c1.427 0 2.073 1.903 1.558 4.913l-.002.002zm17.477-8.384H65.01l.013-.177c.236-2.243.765-3.424 2.51-3.616 1.19-.119 1.72-.738 1.852-1.417l.427-2.376c-6.866-.044-9.04 2.935-9.593 7.483l-.013.103h-.074c-1.117 0-2.35 1.27-2.558 2.879l-.074.59h2.294L57.87 27.122l-.59 2.864c.074 0 .162.013.234.013 3.218-.119 5.278-2.67 5.733-6.376l1.502-12.47h1.077c1.058 0 2.294-1.064 2.51-2.834l.1-.632zm17.814-.296c-3.954 0-7.687 2.922-8.831 7.513-1.145 4.59.59 10.02 6.408 10.02 5.818 0 9.15-5.655 9.15-10.361.006-4.678-3.153-7.173-6.726-7.173v.001zm1.602 8.53c-.205 2.081-1.117 5.24-3.616 5.24-2.498 0-2.16-3.689-1.918-5.446.265-1.874 1.308-4.545 3.556-4.545 2.023 0 2.212 2.406 1.98 4.753l-.002-.002zm24.663-3.262l-2.145 6.775a4536.89 4536.89 0 00-1.513-11.763c-3.38 0-5.189 2.42-6.137 4.973l-2.617 6.804c-.013-.487-.367-6.73-.367-6.73-.213-3.13-3.067-5.033-5.385-5.033l2.777 17.017c3.54-.014 5.452-2.421 6.452-4.974l2.206-5.784c.013.235 1.529 10.759 1.529 10.759 3.557 0 5.46-2.258 6.493-4.723l4.985-12.294c-3.498 0-5.35 2.406-6.291 4.973h.013zM71.668.1l-2.88 23.33-.59 2.879c.072 0 .161.013.234.013 3.099-.044 5.304-2.773 5.717-6.213l1.66-13.386c.504-4.088-1.92-6.626-4.14-6.626V.1z" fill="#4353FF"/></svg>