<svg width="135" height="30" fill="none" xmlns="http://www.w3.org/2000/svg"><path d="M41.965 4.694A5.369 5.369 0 0038.188.918C34.835 0 21.423 0 21.423 0S8.013 0 4.66.882c-1.8.494-3.283 1.977-3.777 3.812C0 8.047 0 15 0 15s0 6.988.882 10.306a5.368 5.368 0 003.777 3.776C8.047 30 21.424 30 21.424 30s13.411 0 16.764-.882a5.369 5.369 0 003.777-3.777c.882-3.353.882-10.306.882-10.306s.035-6.988-.882-10.34z" fill="red"/><path d="M17.152 21.424L28.305 15 17.152 8.577v12.847z" fill="#fff"/><path d="M62.224 27.318c-.847-.565-1.447-1.447-1.8-2.682-.353-1.2-.53-2.824-.53-4.8v-2.718c0-2.012.213-3.635.601-4.87.424-1.236 1.059-2.118 1.906-2.683.882-.565 2.012-.847 3.423-.847 1.377 0 2.506.282 3.353.847.847.565 1.447 1.482 1.836 2.683.388 1.2.6 2.823.6 4.87v2.718c0 2.012-.177 3.6-.565 4.835-.388 1.2-.988 2.118-1.835 2.682-.847.565-2.012.847-3.46.847-1.482-.035-2.682-.317-3.529-.882zm4.765-2.965c.247-.6.353-1.623.353-3v-5.859c0-1.34-.106-2.329-.353-2.964-.247-.635-.635-.918-1.235-.918-.565 0-.989.318-1.2.918-.247.635-.353 1.623-.353 2.965v5.858c0 1.377.106 2.4.353 3 .212.6.635.918 1.235.918.565 0 .953-.282 1.2-.918zm60.388-4.482v.953c0 1.2.035 2.118.106 2.718.07.6.212 1.058.459 1.305.212.283.565.424 1.059.424.635 0 1.059-.247 1.306-.741.247-.494.352-1.306.388-2.47l3.636.211c.035.177.035.388.035.67 0 1.73-.46 3.036-1.413 3.883-.952.847-2.294 1.27-4.022 1.27-2.083 0-3.53-.67-4.378-1.976-.846-1.306-1.27-3.317-1.27-6.07v-3.283c0-2.823.424-4.87 1.306-6.176.882-1.306 2.365-1.942 4.447-1.942 1.447 0 2.576.283 3.353.812.777.53 1.306 1.377 1.623 2.47.319 1.13.46 2.683.46 4.66V19.8h-7.095v.071zm.53-7.906c-.212.283-.354.706-.424 1.306-.071.6-.106 1.518-.106 2.753v1.341h3.106v-1.341c0-1.2-.035-2.118-.106-2.753-.07-.635-.246-1.059-.458-1.306-.213-.247-.565-.388-.988-.388-.495-.035-.812.106-1.024.388zm-75.989 7.553l-4.8-17.4h4.2l1.695 7.87c.423 1.942.74 3.6.953 4.977h.105c.142-.988.46-2.612.953-4.941l1.765-7.906h4.2l-4.87 17.4v8.33h-4.165v-8.33h-.036zM85.271 9.071v18.812h-3.317l-.353-2.294h-.106c-.882 1.73-2.259 2.611-4.059 2.611-1.235 0-2.153-.423-2.753-1.235-.6-.812-.882-2.082-.882-3.847V9.071h4.235v13.8c0 .847.106 1.447.282 1.8.177.353.495.53.918.53a1.81 1.81 0 001.059-.354c.353-.211.6-.494.741-.847V9.071h4.235zm21.707 0v18.812h-3.318l-.353-2.294h-.106c-.882 1.73-2.259 2.611-4.059 2.611-1.235 0-2.153-.423-2.753-1.235-.6-.812-.882-2.082-.882-3.847V9.071h4.235v13.8c0 .847.106 1.447.282 1.8.177.353.495.53.918.53.353 0 .706-.106 1.059-.354.353-.211.6-.494.741-.847V9.071h4.236z" fill="#282828"/><path d="M96.778 5.542h-4.2v22.306h-4.13V5.542h-4.2V2.118h12.53v3.424zm24.212 6.53c-.248-1.2-.671-2.048-1.236-2.577-.564-.53-1.376-.812-2.365-.812-.776 0-1.517.212-2.188.67a4.305 4.305 0 00-1.552 1.73h-.035V1.165h-4.095v26.683h3.494l.423-1.765h.107c.317.635.811 1.13 1.482 1.518.671.353 1.376.565 2.188.565 1.447 0 2.47-.671 3.141-1.977.671-1.306 1.024-3.388 1.024-6.177v-2.964c-.035-2.153-.141-3.812-.388-4.977zm-3.883 7.658c0 1.377-.07 2.436-.176 3.212-.106.776-.318 1.341-.565 1.659-.282.317-.635.494-1.059.494-.352 0-.67-.07-.953-.247a2.034 2.034 0 01-.705-.741v-10.66c.141-.493.388-.917.74-1.27.354-.317.742-.494 1.13-.494.424 0 .776.177.988.494.248.353.389.918.495 1.694.105.812.141 1.941.141 3.389v2.47h-.036z" fill="#282828"/></svg>