<svg width="57" height="11" fill="none" xmlns="http://www.w3.org/2000/svg"><path d="M51.383 7.895c-4.005.502-7.75.964-11.486 1.466-.27.034-.496.4-1.102.912 1.79.229 3.151.508 4.523.571 3.62.103 7.245.103 10.864.143.441.027.884.012 1.322-.046 1.46-.28 1.901-1.255 1.102-2.567A8.966 8.966 0 0055.3 6.663 264.987 264.987 0 0049.588.958 8.86 8.86 0 0048.15 0c-.094 2.898 2.694 3.696 3.305 6.007-.501-.103-.92-.154-1.328-.268-14.874-4.227-29.683-3.771-44.475.336a42.89 42.89 0 00-4.5 1.614c-.778.314-1.444.89-1.02 1.889.424.998 1.18.947 2.016.57C12.004 5.585 22.478 5.065 33 5.214A72.91 72.91 0 0149.307 7.21c.644.16 1.272.417 2.076.685z" fill="#FF3951"/></svg>