<svg width="978" height="356" fill="none" xmlns="http://www.w3.org/2000/svg"><mask id="a" maskUnits="userSpaceOnUse" x="0" y="0" width="978" height="356"><path fill="#fff" d="M0 0h978v356H0z"/></mask><g mask="url(#a)"><path d="M299.921 181.795c-19.021-9.721-38.709-19.757-54.395-36.883-27.058-29.584-46.956-44.078-86.752-46.394-35.62-2.07-73.766 2.071-113.457 12.318-35.76 9.23-71.626 23.056-106.614 41.13-6.563 3.369-13.933 6.703-21.724 10.212-26.144 11.791-55.798 25.127-69.344 47.446-10.879 17.898-13.231 45.025-15.336 68.994-.702 8.002-1.369 15.512-2.281 22.285a71.982 71.982 0 00-.667 9.791c0 40.498 35.62 69.029 70.117 96.718 20.39 16.353 39.656 31.795 52.044 49.482 31.865 45.411 35.409 95.244 39.2 147.989 1.087 15.231 2.21 30.988 4.07 46.57 3.79 31.794 10.493 56.676 20.53 76.117 13.756 26.672 33.795 42.464 59.589 46.991 17.476 3.053 32.531-.106 44.674-9.44 14.528-11.16 25.057-30.707 32.145-59.765 5.966-24.425 8.247-50.324 10.072-71.099.421-4.984.843-9.721 1.264-13.897 7.018-69.065 22.038-110.58 84.575-145.814 11.581-6.528 23.513-14.143 35.094-21.513 20.6-13.125 41.901-26.706 63.414-35.76 8.317-3.474 17.441-6.001 26.32-8.458 20.46-5.65 41.621-11.475 55.097-29.759 12.142-16.494 19.231-34.778 20.038-51.552.913-19.302-6.562-36.112-21.582-48.57-12.283-10.212-24.601-21.056-36.462-31.549-15.196-13.406-30.883-27.233-46.815-39.972-13.476-10.633-28.391-18.248-42.814-25.618zm88.611 66.713c11.897 10.493 24.179 21.337 36.497 31.584 15.266 12.669 21.162 28.286 21.162 44.183 0 19.196-8.633 38.814-19.863 54.044-13.16 17.898-34.111 23.653-54.325 29.233-8.879 2.457-18.073 4.983-26.461 8.493-21.617 9.089-42.989 22.705-63.624 35.865-11.546 7.37-23.478 14.95-35.024 21.478-30.356 17.09-50.535 36.322-63.449 60.501-11.3 21.126-17.828 46.955-21.828 86.365a898.548 898.548 0 00-1.264 13.897c-1.824 20.741-4.07 46.57-10.036 70.889-7.019 28.707-17.337 48.008-31.62 58.958-11.826 9.089-26.495 12.177-43.55 9.159-25.338-4.422-45.06-20.003-58.607-46.253-9.931-19.267-16.6-44.008-20.39-75.627-1.86-15.546-2.982-31.303-4.07-46.499-1.895-26.636-3.685-51.798-9.09-76.715-6.106-28.285-15.756-51.131-30.355-71.976-12.529-17.863-31.865-33.374-52.325-49.763-34.251-27.478-69.59-55.799-69.59-95.665 0-3.124.21-6.282.666-9.546.948-6.808 1.58-14.353 2.281-22.354 2.071-23.794 4.422-50.781 15.126-68.363 13.335-21.933 42.779-35.198 68.713-46.885 7.826-3.509 15.195-6.843 21.793-10.247 74.188-38.287 152.096-57.202 219.37-53.307 39.305 2.281 58.992 16.634 85.804 45.937 15.827 17.302 35.62 27.409 54.781 37.2 14.353 7.334 29.198 14.914 42.498 25.513 15.933 12.668 31.619 26.53 46.78 39.901z" fill="#F2F5FB"/><path d="M217.135 136.805c-22.25-18.775-54.922-26.882-97.069-24.179-29.444 1.895-63.52 9.124-101.28 21.442-23.688 7.72-44.499 21.266-64.643 34.356-6.281 4.071-12.774 8.318-19.266 12.283-3.264 2-6.668 4.001-9.967 5.966-17.546 10.317-35.655 20.986-46.077 39.34-8.423 14.844-12.669 31.128-12.669 48.745 0 11.265 1.719 23.056 5.194 35.339 6.773 24.004 20.073 49.833 39.585 76.68 4.948 6.843 9.967 13.581 14.81 20.073 32.145 43.235 62.501 84.084 70.117 142.375 1.684 12.914 2.702 26.636 3.684 39.901 3.37 45.657 6.879 92.893 37.34 128.723 17.582 20.67 36.322 28.882 54.15 23.794 12.212-3.474 23.547-13.055 32.777-27.654 8.563-13.546 14.739-30.637 17.336-48.148 2.176-14.564 3.544-28.602 4.843-42.148 5.194-53.517 9.686-99.736 61.098-137.602 49.166-36.216 103.877-69.029 152.13-97.946 23.408-14.037 47.166-32.461 45.973-62.852-.807-21.021-15.371-36.427-29.444-51.342a384.995 384.995 0 01-7.58-8.177c-1.614-1.825-3.228-3.615-4.772-5.369-22.215-25.022-39.797-44.78-70.819-60.853-21.899-11.335-36.006-25.232-50.991-39.971-7.51-7.405-15.336-15.055-24.46-22.776zm74.819 64.046c30.812 15.967 48.289 35.62 70.433 60.536 1.579 1.755 3.158 3.58 4.773 5.37 2.456 2.737 5.088 5.509 7.615 8.211 13.897 14.705 28.25 29.935 29.057 50.43.035.702.035 1.404.035 2.07 0 28.426-22.845 46.043-45.34 59.519-48.289 28.952-103.035 61.765-152.236 98.016-51.904 38.252-56.431 84.751-61.66 138.585-1.298 13.546-2.667 27.584-4.843 42.077-5.544 37.27-25.758 67.976-49.13 74.644-17.267 4.948-35.515-3.123-52.711-23.337-30.18-35.48-33.655-82.47-37.024-127.916-.983-13.265-2-27.022-3.685-39.972-3.51-26.811-11.686-51.236-25.758-76.96-12.529-22.881-28.11-43.867-44.64-66.081a2158.872 2158.872 0 01-14.809-20.074c-22.319-30.742-44.428-71.31-44.428-111.422 0-16.283 3.649-32.461 12.423-47.867 10.247-18.003 28.215-28.602 45.586-38.814a741.431 741.431 0 0010.002-5.966c6.527-4 13.02-8.212 19.301-12.318 20.039-13.054 40.78-26.53 64.292-34.181 37.655-12.282 71.626-19.477 100.964-21.372 41.761-2.702 74.083 5.335 96.086 23.864 9.089 7.685 16.88 15.336 24.39 22.741 15.02 14.774 29.233 28.776 51.307 40.217z" fill="#F2F5FB"/><path d="M-44.418 212.326c-18.143 16.003-30.005 32.567-36.252 50.641-3.334 9.685-5.018 19.652-5.018 30.145 0 6.913.737 14.037 2.176 21.407 6.738 34.392 28.285 69.204 49.166 102.859 12.072 19.477 24.565 39.586 33.585 58.957 11.931 25.513 17.125 53.553 22.143 80.645 4.703 25.303 9.546 51.448 19.863 75.662 3.896 9.16 9.16 16.845 15.231 22.214 6.071 5.405 12.669 8.212 19.056 8.142 10.914-.14 20.284-8.633 26.39-23.934 6.107-15.265 7.616-31.759 9.054-47.692 1.123-12.283 2.282-25.022 5.545-36.988 10.212-37.445 41.586-61.239 71.907-84.295 4.913-3.72 9.967-7.58 14.774-11.335 9.16-7.23 18.846-14.143 29.093-21.443 28.987-20.635 58.922-41.972 76.925-71.345 6.878-11.265 10.774-23.302 11.581-35.83.737-11.476-1.158-23.303-5.545-35.234-7.861-21.232-23.653-42.218-44.534-59.098-.035-.035-.035-.035-.07-.035-15.792-9.861-29.619-23.302-42.989-36.252-12.459-12.107-25.373-24.635-39.586-33.9-15.968-10.388-32.076-15.546-49.236-15.792-30.988-.421-65.52 5.053-97.245 15.476-34.005 11.09-63.765 27.373-86.014 47.025zm183.259-61.132c37.69.526 62.08 24.214 87.874 49.271 13.406 13.02 27.268 26.496 43.165 36.427 36.006 29.163 67.59 80.224 38.147 128.302-17.828 29.128-47.657 50.359-76.539 70.924-10.248 7.3-19.968 14.213-29.163 21.477-4.808 3.791-9.861 7.616-14.739 11.336-15.02 11.405-30.532 23.197-43.551 36.813-14.775 15.476-24.215 31.233-28.847 48.218-3.299 12.108-4.492 24.882-5.615 37.235-1.439 15.827-2.948 32.216-8.984 47.306-5.896 14.739-14.81 22.951-25.092 23.056-12.353.141-25.303-11.44-32.988-29.478-10.248-24.074-15.09-50.149-19.758-75.381-5.053-27.198-10.247-55.308-22.25-80.961-9.088-19.407-21.582-39.586-33.654-59.098-20.81-33.549-42.288-68.257-48.99-102.403-7.51-38.357 5.158-71.345 38.638-100.859 43.27-38.146 116.545-63.133 182.346-62.185z" fill="#F2F5FB"/><path d="M130.524 131.682c-35.304 2.632-77.732 11.861-113.492 24.67-21.864 7.826-41.446 16.986-58.186 27.163-18.95 11.546-34.25 24.425-45.375 38.322-15.266 18.986-22.952 39.936-22.952 62.467 0 4.878.351 9.791 1.088 14.809 6.106 42.463 32.356 80.259 57.73 116.826 9.72 14.003 18.88 27.198 26.916 40.604 21.231 35.374 26.285 71.942 31.62 110.65 2.877 20.74 5.825 42.147 11.475 63.414 2.948 11.054 9.405 28.671 18.67 44.92 7.65 13.37 19.933 30.356 35.093 35.304 10.107 3.299 20.284.912 30.181-7.054 9.861-7.966 16.494-20.6 20.284-38.603 3.228-15.441 3.86-32.111 4.421-46.815.176-4.878.351-9.51.597-13.721 3.439-56.15 22.706-93.033 64.432-123.424 49.552-36.042 97.174-72.714 149.849-113.493l.071-.07c13.546-13.476 19.336-29.584 17.195-47.868-2.772-23.723-18.389-46.218-30.987-60.887-14.389-16.74-33.304-33.093-50.605-43.727-16.915-10.388-31.233-23.337-45.06-35.866-29.023-26.285-56.431-51.096-102.965-47.621zm102.052 48.674c13.862 12.564 28.216 25.548 45.271 36.006 17.196 10.564 35.971 26.777 50.289 43.446 12.493 14.529 27.935 36.778 30.672 60.116.281 2.421.421 4.772.421 7.088 0 14.915-5.755 28.181-17.161 39.586-52.64 40.744-100.262 77.381-149.779 113.422-42.112 30.637-61.554 67.871-65.029 124.477-.245 4.247-.421 8.879-.596 13.757-.527 14.634-1.158 31.233-4.387 46.569-3.72 17.687-10.177 30.04-19.793 37.796-9.51 7.685-19.23 9.966-28.846 6.808-28.391-9.265-48.149-61.624-52.851-79.241-5.65-21.197-8.598-42.569-11.476-63.239-5.37-38.848-10.458-75.556-31.795-111.176-8.036-13.406-17.23-26.636-26.987-40.674-25.302-36.427-51.447-74.082-57.483-116.23-4.001-27.759 3.264-53.412 21.582-76.188C-39.258 165.301 69.11 137.647 130.7 133.05c45.867-3.404 73.064 21.232 101.876 47.306z" fill="#F2F5FB"/><path d="M-59.473 262.615c-5.264 12.213-7.861 25.057-7.861 38.779 0 12.353 2.14 25.372 6.387 39.269 7.86 25.654 22.004 50.64 34.637 72.047a2197.581 2197.581 0 009.686 16.179c11.897 19.687 24.18 40.076 33.41 61.448 7.193 16.705 11.58 34.392 15.861 51.518 2.703 10.879 5.51 22.109 8.984 33.023.386 1.158.807 2.632 1.334 4.351 4.211 14.108 12.037 40.393 24.355 41.902 3.053.386 5.72-.351 7.931-2.141 6.808-5.439 8.317-19.722 9.405-30.18.351-3.264.632-6.071 1.053-8.142 10.633-54.465 42.498-79.943 82.856-112.159 4.071-3.228 8.247-6.597 12.493-10.037 3.088-2.491 6.212-5.018 9.335-7.51 21.442-17.266 43.586-35.128 62.782-55.167 14.283-14.914 22.53-27.934 26.671-42.217 3.861-13.266 4.422-28.145 1.86-49.763-3.263-27.689-24.425-46.394-41.41-61.449-9.3-8.247-17.863-17.511-26.11-26.46-7.966-8.633-16.213-17.582-25.127-25.584-17.897-16.037-42.287-23.618-72.538-22.53-22.425.808-47.657 6.177-77.136 16.459-22.53 7.826-41.972 17.652-57.764 29.163-19.266 14.038-33.093 30.602-41.094 49.201zm247.62-71.205c8.844 7.931 17.091 16.845 25.022 25.478 8.282 8.984 16.845 18.249 26.215 26.566 16.809 14.88 37.725 33.409 40.954 60.572.982 8.422 1.614 16.143 1.614 23.372 0 24.565-7.019 43.691-29.794 67.485-19.126 19.968-41.235 37.796-62.642 55.062-3.124 2.526-6.212 5.018-9.335 7.545-4.211 3.439-8.423 6.773-12.494 10.002-19.617 15.651-38.146 30.461-52.64 47.832-16.038 19.196-25.794 39.901-30.707 65.169-.42 2.105-.702 4.948-1.053 8.247-1.088 10.212-2.526 24.179-8.913 29.233-1.966 1.544-4.212 2.14-6.914 1.825-11.405-1.404-19.371-28.075-23.197-40.92-.526-1.719-.947-3.193-1.333-4.386-3.474-10.879-6.282-22.109-8.95-32.953-4.28-17.196-8.702-34.953-15.931-51.728-9.265-21.477-21.583-41.867-33.48-61.624-3.193-5.299-6.492-10.774-9.686-16.178C-46.243 376.213-66 338.768-66 301.569c0-12.844 2.352-25.653 7.826-38.357 18.144-42.218 63.309-65.485 98.017-77.557 67.8-23.618 117.703-21.653 148.305 5.755z" fill="#F2F5FB"/><path d="M-45.4 271.283c-4.597 11.757-6.913 23.864-6.913 36.568 0 11.44 1.86 23.372 5.615 35.901 6.948 23.267 19.23 45.586 31.128 67.134l.245.491c24.46 44.393 44.148 82.786 60.677 125.81 5.018 13.09 9.861 19.407 15.23 19.863 7.476.667 14.319-10.528 21.513-22.389 3.474-5.721 7.089-11.616 10.879-16.424 19.688-24.987 46.85-44.674 73.1-63.73 27.724-20.109 53.904-39.094 71.872-63.695 9.685-13.23 16.037-26.847 19.441-41.586 3.791-16.494 3.79-34.005.035-53.517-3.755-19.513-21.372-35.971-36.918-50.5-4.948-4.633-9.651-9.019-13.616-13.266a748.355 748.355 0 01-7.475-8.141c-13.301-14.599-25.829-28.391-44.99-35.585-16.635-6.247-36.533-8.107-59.133-5.58-18.424 2.07-38.533 7.089-58.15 14.564-18.986 7.229-35.55 16.81-49.236 28.461-15.336 13.09-26.566 28.461-33.304 45.621zm83.102-72.784c20.915-7.966 74.082-24.811 116.3-8.984 18.81 7.054 31.268 20.741 44.428 35.199 2.422 2.667 4.948 5.44 7.51 8.142 4.036 4.281 8.703 8.668 13.687 13.3 15.371 14.389 32.812 30.672 36.497 49.763 15.511 80.294-36.146 117.774-90.787 157.43-26.355 19.126-53.588 38.883-73.38 64.01-3.861 4.878-7.476 10.809-10.985 16.565-6.984 11.475-13.581 22.319-20.214 21.723-4.738-.422-9.335-6.633-14.072-18.986-16.565-43.095-36.252-81.522-60.747-125.986l-.246-.491c-18.108-32.848-36.673-66.538-36.673-102.123 0-11.861 2.07-23.968 6.914-36.321 12.528-31.865 41.55-57.905 81.768-73.241z" fill="#F2F5FB"/><path d="M-28.45 277.986c-3.263 10.072-4.913 20.986-4.913 32.637 0 6.843.562 13.967 1.72 21.302 5.826 37.55 25.864 76.574 42.674 106.369 2.105 3.755 4.421 8.457 7.124 13.932 5.895 12.002 13.265 26.952 21.933 38.287 10.318 13.441 20.355 19.091 30.742 17.231 11.16-1.965 25.83-13.617 37.585-22.951 4.949-3.931 9.616-7.651 13.406-10.142 15.055-9.967 31.023-20.706 45.657-33.024 41.691-34.988 63.835-70.046 65.835-104.192 1.58-27.654-10.142-54.992-34.918-81.172-.877-1.053-1.719-2.105-2.562-3.158-22.494-27.619-41.936-51.447-80.75-54.957-18.635-1.684-38.603.351-57.729 5.896-19.512 5.65-37.374 14.739-51.728 26.25-16.67 13.511-28.145 29.514-34.075 47.692zm34.954-46.499c28.706-23.091 70.257-35.304 108.439-31.865 38.217 3.439 57.483 27.092 79.767 54.43.843 1.053 1.72 2.106 2.597 3.159l.036.035c23.056 24.355 34.707 49.657 34.707 75.276 0 1.614-.035 3.228-.14 4.878-1.93 33.724-23.934 68.467-65.309 103.21-14.599 12.247-30.497 22.986-45.552 32.918-3.825 2.526-8.528 6.246-13.511 10.212-11.651 9.229-26.145 20.74-36.989 22.67-9.79 1.72-19.406-3.72-29.373-16.704-8.598-11.195-15.932-26.075-21.793-38.042-2.702-5.474-5.018-10.247-7.159-14.002-16.74-29.689-36.708-68.573-42.498-105.912-1.159-7.44-1.72-14.564-1.72-21.443 0-32.145 12.704-58.08 38.498-78.82z" fill="#F2F5FB"/><path d="M-17.536 319.327c0 31.794 11.335 63.414 21.337 85.102 7.58 16.388 15.23 32.216 25.9 45.305 12.843 15.793 27.197 23.864 43.936 24.741 13.055.667 27.198-2.983 42.078-10.808 11.089-5.826 22.53-13.827 35.935-25.198 19.091-16.143 44.183-41.866 55.203-72.819 5.123-14.388 6.632-28.566 4.492-42.077-2.352-14.915-9.195-29.268-20.32-42.674-2.597-3.79-5.123-7.685-7.58-11.405-16.108-24.636-31.338-47.903-62.958-54.922-13.897-3.088-29.864-2.947-46.148.422-15.336 3.158-30.25 8.948-43.165 16.739-29.724 17.933-46.008 44.429-48.429 78.715-.21 2.948-.28 5.896-.28 8.879zm49.447-86.401c26.917-16.248 61.59-22.916 88.296-16.985 31.057 6.914 46.148 29.935 62.115 54.325 2.457 3.755 5.019 7.65 7.615 11.476 0 .035.036.035.036.07 13.967 16.81 20.985 34.812 20.985 53.833 0 9.616-1.789 19.477-5.369 29.549-10.879 30.637-35.795 56.185-54.781 72.223-18.986 16.037-47.622 37.164-77.065 35.655-37.586-1.931-56.255-42.429-68.643-69.24-10.283-22.284-21.372-53.588-21.372-84.821-.036-32.076 11.72-64.081 48.183-86.085z" fill="#F2F5FB"/><path d="M.432 369.827c3.79 16.073 9.72 31.479 17.196 44.569 8.036 14.037 17.441 24.986 27.97 32.531 15.09 10.809 32.285 13.617 51.13 8.353 21.688-6.072 40.042-21.267 51.623-32.988 14.459-14.634 26.706-32.181 33.55-48.149 8.492-19.863 7.615-48.429-2.352-76.469-4.807-13.476-11.475-26.074-19.371-36.497-8.493-11.23-18.003-19.547-28.286-24.776-10.668-5.404-22.495-8.247-35.198-8.422-11.967-.141-24.11 2.035-36.077 6.492-24.039 8.984-43.937 26.004-54.64 46.639-6.808 13.195-10.318 30.356-10.318 49.236.035 12.669 1.614 26.04 4.773 39.481zm6.843-88.015c22.565-43.586 82.856-65.063 124.021-44.113 19.442 9.862 36.988 32.497 46.955 60.467 5.369 15.09 8.072 30.32 8.072 44.253 0 11.616-1.896 22.319-5.686 31.198-13.581 31.724-48.815 70.433-84.26 80.329-18.388 5.124-35.198 2.386-49.937-8.142-20.074-14.388-36.78-42.919-44.64-76.293-7.825-33.199-5.79-65.976 5.475-87.699z" fill="#F2F5FB"/><path d="M75.603 439.417c17.827 1.79 35.479-4.387 51.026-17.863 21.828-18.88 37.339-50.464 38.603-78.574.912-15.196-1.72-30.883-7.721-45.306-6.036-14.599-15.055-26.917-26.039-35.62-8.212-6.492-17.266-10.809-26.917-12.809-10.423-2.141-21.337-1.544-32.427 1.79-21.758 6.562-38.953 20.494-49.657 40.322-7.405 13.757-11.265 29.654-11.265 46.078 0 5.79.491 11.616 1.439 17.441 1.93 11.757 6.913 34.287 18.6 53.343 11.58 18.95 26.495 29.443 44.358 31.198zm-61.554-84.716c-.983-6.001-1.474-11.897-1.474-17.687 0-39.972 23.021-73.521 59.94-84.611 26.635-8.001 46.288 1.439 58.044 10.774 20.67 16.354 33.409 44.814 33.409 73.802 0 2-.07 3.965-.175 5.966-1.264 27.759-16.599 58.957-38.147 77.592-15.266 13.195-32.532 19.266-49.973 17.511-45.166-4.527-58.571-64.923-61.624-83.347z" fill="#F2F5FB"/><path d="M103.748 371.651c5.51-9.089 8.984-20.845 9.51-32.181.562-11.967-2.105-22.109-7.545-28.601-11.475-13.757-22.565-13.055-29.864-10.037-8.388 3.475-16.389 12.072-22.039 23.618-4.773 9.756-7.37 20.6-7.37 30.426 0 1.58.07 3.159.21 4.703 1.44 15.862 10.038 26.285 24.18 29.338 6.703 1.439 13.09.456 19.021-2.913 5.264-3.018 10.037-7.966 13.897-14.353zm-32.602 15.898c-13.51-2.913-21.723-12.915-23.091-28.11-.983-10.739 1.579-23.268 7.018-34.392 5.475-11.23 13.266-19.582 21.302-22.916 9.826-4.071 19.582-.737 28.25 9.615 5.194 6.212 7.756 16.038 7.23 27.654-.527 11.125-3.896 22.635-9.3 31.514-4.668 7.756-14.985 20.179-31.409 16.635z" fill="#F2F5FB"/><path d="M94.307 350.419c2.948-6.387 4.141-13.23 3.229-18.318-1.018-5.686-4.633-9.125-10.107-9.616-10.458-.948-18.705 2.843-22.565 10.388-1.545 2.983-2.282 6.387-2.282 9.861 0 6.247 2.387 12.809 6.844 17.968 4.878 5.65 9.896 4.913 13.23 3.334 4.387-2.141 8.633-7.089 11.651-13.617zm-23.828 9.335c-6.598-7.615-8.423-18.424-4.387-26.25 3.65-7.124 11.195-10.563 21.196-9.65 6.177.561 8.247 4.913 8.88 8.492.21 1.088.28 2.246.28 3.439 0 10.142-6.738 23.267-14.424 26.952-4.21 2.001-8.106 1.018-11.545-2.983z" fill="#F2F5FB"/><path d="M88.797 336.312c-.912-2.983-2.948-4.808-5.72-5.124-3.334-.386-5.93 1.509-6.913 5.089a12.147 12.147 0 00-.422 3.228c0 3.72 1.544 7.651 4.633 9.054 2.175.983 4.246.737 5.93-.737 2.597-2.351 3.756-7.51 2.492-11.51zm-7.86 10.949c-3.264-1.474-4.493-6.843-3.44-10.633.491-1.72 1.825-4.492 5.404-4.071 2.808.351 4.001 2.456 4.528 4.141.315.982.456 2.035.456 3.088 0 2.737-.948 5.51-2.562 6.949-1.228 1.122-2.702 1.298-4.387.526z" fill="#F2F5FB"/><path d="M121.892 398.146c9.861-12.142 16.423-29.022 18.459-47.586 2.035-18.39-.597-36.252-7.335-50.36-7.58-15.792-19.722-25.548-35.163-28.215-11.265-1.93-21.758-.947-31.164 3.018-8.597 3.615-16.107 9.581-22.354 17.722-9.124 11.897-15.09 28.075-16.775 45.552-.35 3.474-.491 6.913-.491 10.317 0 13.687 2.667 26.847 7.79 37.831 4.282 9.23 10.037 16.599 17.161 21.934 7.756 5.825 16.915 9.019 27.198 9.51 16.74.877 31.479-5.966 42.674-19.723zm-42.604 18.389c-19.126-.912-34.462-11.826-43.2-30.636-13.195-28.426-9.16-68.117 9.335-92.296 9.019-11.792 25.407-24.847 52.184-20.214 14.95 2.597 26.741 12.072 34.111 27.443 5.159 10.774 7.861 23.828 7.861 37.655 0 3.931-.211 7.931-.667 11.932-3.72 34.181-23.618 67.871-59.624 66.116z" fill="#F2F5FB"/><path d="M913.795-167.92c-9.721 19.02-19.757 38.708-36.883 54.395-29.584 27.057-44.078 46.955-46.394 86.751-2.07 35.62 2.071 73.767 12.318 113.457 9.23 35.761 23.056 71.626 41.13 106.615 3.369 6.562 6.703 13.932 10.212 21.723 11.791 26.144 25.127 55.798 47.446 69.345 17.898 10.879 45.025 13.23 68.996 15.336 8 .701 15.51 1.368 22.28 2.281 3.34.456 6.6.666 9.79.666 40.5 0 69.03-35.62 96.72-70.117 16.36-20.389 31.8-39.655 49.48-52.043 45.41-31.865 95.25-35.41 147.99-39.2 15.23-1.088 30.99-2.211 46.57-4.071 31.8-3.79 56.68-10.493 76.12-20.529 26.67-13.757 42.46-33.796 46.99-59.59 3.05-17.476-.1-32.531-9.44-44.673-11.16-14.53-30.71-25.057-59.76-32.146-24.43-5.966-50.33-8.247-71.1-10.072-4.99-.421-9.72-.842-13.9-1.263-69.06-7.02-110.58-22.04-145.81-84.576-6.53-11.581-14.15-23.513-21.52-35.094-13.12-20.599-26.7-41.901-35.76-63.414-3.47-8.317-6-17.441-8.45-26.32-5.65-20.459-11.48-41.621-29.76-55.097-16.5-12.142-34.78-19.231-51.56-20.038-19.3-.913-36.11 6.562-48.57 21.582-10.21 12.283-21.052 24.601-31.545 36.463-13.406 15.195-27.233 30.882-39.972 46.814-10.633 13.476-18.248 28.391-25.618 42.815zm66.713-88.612c10.493-11.896 21.332-24.179 31.582-36.497 12.67-15.266 28.29-21.161 44.19-21.161 19.19 0 38.81 8.633 54.04 19.863 17.9 13.16 23.65 34.111 29.23 54.324 2.46 8.879 4.99 18.074 8.49 26.461 9.09 21.618 22.71 42.99 35.87 63.625 7.37 11.545 14.95 23.477 21.48 35.023 17.09 30.356 36.32 50.535 60.5 63.45 21.13 11.3 46.95 17.827 86.36 21.827 4.18.422 8.92.843 13.9 1.264 20.74 1.825 46.57 4.07 70.89 10.037 28.71 7.018 48.01 17.336 58.96 31.619 9.09 11.826 12.18 26.495 9.16 43.551-4.42 25.338-20.01 45.06-46.26 58.606-19.26 9.932-44 16.6-75.62 20.39-15.55 1.86-31.31 2.983-46.5 4.07-26.64 1.896-51.8 3.685-76.72 9.09-28.28 6.106-51.13 15.757-71.97 30.356-17.87 12.528-33.38 31.865-49.77 52.324-27.47 34.251-55.79 69.591-95.66 69.591-3.12 0-6.28-.211-9.55-.667-6.8-.948-14.35-1.579-22.35-2.281-23.795-2.071-50.782-4.422-68.364-15.125-21.933-13.336-35.198-42.78-46.885-68.714-3.509-7.826-6.843-15.195-10.247-21.793-38.287-74.188-57.202-152.095-53.307-219.37 2.281-39.305 16.634-58.992 45.937-85.804 17.302-15.827 27.409-35.62 37.2-54.781 7.334-14.353 14.914-29.197 25.513-42.498 12.668-15.932 26.53-31.619 39.901-46.78z" fill="#ECEFF8"/><path d="M868.805-85.135c-18.775 22.25-26.882 54.922-24.18 97.069 1.895 29.444 9.124 63.52 21.442 101.28 7.721 23.688 21.267 44.499 34.357 64.642 4.071 6.282 8.317 12.774 12.283 19.267 2 3.263 4 6.668 5.965 9.966 10.318 17.547 20.986 35.655 39.34 46.078 14.845 8.423 31.128 12.669 48.748 12.669 11.26 0 23.05-1.72 35.34-5.194 24-6.773 49.83-20.073 76.68-39.585 6.84-4.949 13.58-9.967 20.07-14.81 43.23-32.146 84.08-62.502 142.37-70.117 12.92-1.684 26.64-2.702 39.91-3.685 45.65-3.369 92.89-6.878 128.72-37.34 20.67-17.581 28.88-36.321 23.79-54.149-3.47-12.212-13.05-23.547-27.65-32.777-13.55-8.563-30.64-14.74-48.15-17.336-14.56-2.176-28.6-3.545-42.15-4.843-53.51-5.194-99.73-9.686-137.6-61.098-36.22-49.166-69.03-103.877-97.95-152.131-14.03-23.407-32.46-47.165-62.85-45.972-21.02.807-36.42 15.371-51.34 29.443-2.81 2.667-5.47 5.159-8.177 7.58-1.824 1.615-3.614 3.229-5.369 4.773-25.022 22.214-44.779 39.796-60.852 70.819-11.335 21.898-25.232 36.006-39.972 50.991-7.404 7.51-15.055 15.336-22.775 24.46zm64.045-74.819c15.968-30.812 35.62-48.289 60.537-70.433 1.754-1.579 3.579-3.159 5.369-4.773 2.734-2.456 5.514-5.088 8.214-7.615 14.7-13.897 29.93-28.25 50.43-29.058.7-.035 1.4-.035 2.07-.035 28.42 0 46.04 22.846 59.52 45.341 28.95 48.289 61.76 103.035 98.01 152.236 38.26 51.903 84.75 56.43 138.59 61.66 13.54 1.298 27.58 2.667 42.07 4.842 37.27 5.545 67.98 25.76 74.65 49.131 4.95 17.267-3.12 35.515-23.34 52.711-35.48 30.18-82.47 33.655-127.91 37.024-13.27.982-27.03 2-39.98 3.685-26.81 3.509-51.23 11.686-76.96 25.758-22.88 12.529-43.86 28.11-66.08 44.639a2197.48 2197.48 0 01-20.07 14.81c-30.74 22.319-71.31 44.428-111.42 44.428-16.287 0-32.465-3.65-47.871-12.423-18.003-10.247-28.601-28.215-38.813-45.587a758.422 758.422 0 00-5.966-10.001c-4.001-6.528-8.212-13.02-12.318-19.302-13.055-20.038-26.531-40.778-34.181-64.291-12.283-37.656-19.477-71.626-21.372-100.964-2.702-41.762 5.334-74.083 23.863-96.087 7.686-9.089 15.336-16.879 22.741-24.389 14.774-15.021 28.777-29.233 40.217-51.307z" fill="#ECEFF8"/><path d="M944.327 176.418c16.003 18.143 32.567 30.005 50.64 36.252 9.683 3.333 19.653 5.018 30.143 5.018 6.92 0 14.04-.737 21.41-2.176 34.39-6.738 69.2-28.285 102.86-49.166 19.48-12.072 39.58-24.565 58.96-33.585 25.51-11.931 53.55-17.125 80.64-22.144 25.3-4.702 51.45-9.545 75.66-19.863 9.16-3.895 16.85-9.159 22.22-15.23 5.4-6.071 8.21-12.669 8.14-19.056-.14-10.914-8.63-20.284-23.94-26.39-15.26-6.107-31.75-7.616-47.69-9.054-12.28-1.123-25.02-2.282-36.99-5.545-37.44-10.212-61.23-41.586-84.29-71.907-3.72-4.913-7.58-9.966-11.34-14.774-7.23-9.16-14.14-18.846-21.44-29.093-20.63-28.987-41.97-58.922-71.34-76.925-11.27-6.878-23.31-10.774-35.83-11.581-11.48-.737-23.31 1.158-35.24 5.545-21.23 7.861-42.215 23.653-59.095 44.534-.036.035-.036.035-.036.07-9.861 15.792-23.302 29.619-36.251 42.99-12.107 12.458-24.636 25.372-33.901 39.585-10.387 15.968-15.546 32.075-15.792 49.236-.421 30.988 5.054 65.52 15.477 97.245 11.089 34.005 27.373 63.765 47.025 86.014zM883.194-6.841c.526-37.69 24.215-62.08 49.271-87.874 13.02-13.406 26.496-27.268 36.427-43.165 29.163-36.006 80.228-67.59 128.298-38.147 29.13 17.828 50.36 47.657 70.93 76.54 7.3 10.247 14.21 19.968 21.48 29.162 3.79 4.808 7.61 9.861 11.33 14.74 11.41 15.02 23.2 30.53 36.81 43.55 15.48 14.775 31.24 24.215 48.22 28.847 12.11 3.3 24.88 4.492 37.24 5.615 15.82 1.44 32.21 2.948 47.3 8.984 14.74 5.896 22.95 14.81 23.06 25.092.14 12.353-11.44 25.303-29.48 32.988-24.07 10.248-50.15 15.09-75.38 19.758-27.2 5.053-55.31 10.247-80.96 22.249-19.41 9.089-39.59 21.583-59.1 33.655-33.55 20.81-68.26 42.288-102.4 48.99-38.36 7.511-71.347-5.158-100.86-38.638-38.147-43.27-63.134-116.545-62.186-182.346z" fill="#ECEFF8"/><path d="M863.681 1.476c2.632 35.304 11.862 77.732 24.671 113.492 7.826 21.863 16.985 41.446 27.162 58.185 11.546 18.951 24.425 34.252 38.322 45.376 18.986 15.266 39.937 22.951 62.464 22.951 4.88 0 9.79-.35 14.81-1.087 42.47-6.107 80.26-32.357 116.83-57.729 14-9.721 27.2-18.881 40.6-26.917 35.38-21.232 71.94-26.285 110.65-31.619 20.74-2.878 42.15-5.826 63.42-11.476 11.05-2.948 28.67-9.405 44.92-18.67 13.37-7.65 30.35-19.933 35.3-35.093 3.3-10.107.91-20.284-7.05-30.18-7.97-9.862-20.6-16.495-38.61-20.285-15.44-3.228-32.11-3.86-46.81-4.422-4.88-.175-9.51-.35-13.72-.596-56.15-3.44-93.04-22.706-123.43-64.432-36.04-49.552-72.71-97.174-113.49-149.85-.03-.035-.03-.035-.07-.07-13.48-13.546-29.58-19.336-47.87-17.196-23.72 2.773-46.22 18.389-60.885 30.988-16.739 14.388-33.093 33.304-43.726 50.605-10.388 16.915-23.338 31.233-35.866 45.06-26.285 29.022-51.096 56.43-47.622 102.965zm48.675-102.053c12.563-13.861 25.548-28.215 36.006-45.27 10.563-17.196 26.776-35.971 43.446-50.289 14.532-12.494 36.782-27.935 60.112-30.672 2.42-.281 4.78-.421 7.09-.421 14.92 0 28.18 5.755 39.59 17.161 40.74 52.64 77.38 100.262 113.42 149.779 30.64 42.112 67.87 61.554 124.48 65.028 4.24.246 8.88.421 13.75.597 14.64.526 31.24 1.158 46.57 4.387 17.69 3.72 30.04 10.177 37.8 19.792 7.68 9.51 9.96 19.232 6.81 28.847-9.27 28.39-61.63 48.149-79.24 52.851-21.2 5.65-42.57 8.598-63.24 11.476-38.85 5.369-75.56 10.458-111.18 31.795-13.41 8.036-26.64 17.23-40.67 26.986-36.43 25.303-74.09 51.448-116.23 57.484-27.76 4-53.416-3.264-76.191-21.583-57.378-46.113-85.032-154.482-89.629-216.07-3.404-45.868 21.231-73.066 47.306-101.878z" fill="#ECEFF8"/><path d="M994.616 191.473c12.214 5.264 25.054 7.861 38.774 7.861 12.36 0 25.38-2.141 39.27-6.387 25.66-7.861 50.64-22.004 72.05-34.637 5.41-3.194 10.88-6.493 16.18-9.686 19.69-11.897 40.08-24.18 61.45-33.409 16.7-7.195 34.39-11.581 51.52-15.863 10.87-2.702 22.1-5.51 33.02-8.984 1.16-.386 2.63-.807 4.35-1.333 14.11-4.211 40.39-12.037 41.9-24.355.39-3.053-.35-5.72-2.14-7.931-5.44-6.808-19.72-8.317-30.18-9.405-3.26-.351-6.07-.632-8.14-1.053-54.47-10.633-79.94-42.498-112.16-82.856-3.23-4.07-6.6-8.247-10.04-12.493-2.49-3.089-5.02-6.212-7.51-9.335-17.26-21.442-35.13-43.586-55.16-62.783-14.92-14.283-27.94-22.53-42.22-26.671-13.27-3.86-28.15-4.422-49.76-1.86-27.69 3.264-46.398 24.425-61.453 41.411-8.247 9.3-17.512 17.862-26.461 26.11-8.633 7.966-17.582 16.213-25.583 25.126-16.038 17.898-23.618 42.288-22.53 72.539.807 22.425 6.176 47.657 16.459 77.135 7.826 22.531 17.652 41.972 29.163 57.764 14.037 19.267 30.601 33.094 49.201 41.095zm-71.205-247.62c7.931-8.844 16.845-17.09 25.478-25.022 8.984-8.282 18.248-16.845 26.566-26.215 14.879-16.81 33.405-37.725 60.575-40.954 8.42-.983 16.14-1.614 23.37-1.614 24.56 0 43.69 7.018 67.48 29.794 19.97 19.126 37.8 41.235 55.07 62.642 2.52 3.123 5.01 6.212 7.54 9.335 3.44 4.211 6.77 8.422 10 12.493 15.65 19.618 30.46 38.147 47.83 52.64 19.2 16.038 39.91 25.794 65.17 30.707 2.11.422 4.95.702 8.25 1.053 10.21 1.088 24.18 2.527 29.23 8.914 1.55 1.965 2.14 4.211 1.83 6.914-1.41 11.405-28.08 19.371-40.92 23.196-1.72.527-3.19.948-4.39 1.334-10.88 3.474-22.11 6.282-32.95 8.949-17.2 4.281-34.95 8.703-51.73 15.932-21.48 9.265-41.87 21.583-61.62 33.48-5.3 3.193-10.78 6.492-16.18 9.685-35.8 21.127-73.24 40.884-110.44 40.884-12.84 0-25.65-2.351-38.358-7.825-42.217-18.144-65.484-63.309-77.556-98.017-23.618-67.8-21.653-117.704 5.755-148.305z" fill="#ECEFF8"/><path d="M1003.28 177.4c11.76 4.597 23.87 6.913 36.57 6.913 11.44 0 23.37-1.86 35.9-5.615 23.27-6.948 45.59-19.231 67.14-31.128l.49-.245c44.39-24.46 82.78-44.148 125.81-60.677 13.09-5.018 19.4-9.861 19.86-15.23.67-7.476-10.53-14.319-22.39-21.513-5.72-3.474-11.61-7.089-16.42-10.879-24.99-19.688-44.68-46.85-63.73-73.1-20.11-27.724-39.1-53.904-63.7-71.872-13.23-9.685-26.84-16.037-41.58-19.441-16.5-3.791-34.01-3.79-53.52-.035-19.51 3.755-35.972 21.372-50.501 36.918-4.632 4.948-9.019 9.65-13.265 13.616a756.548 756.548 0 01-8.142 7.475c-14.599 13.3-28.39 25.83-35.585 44.99-6.246 16.634-8.106 36.533-5.58 59.133 2.071 18.424 7.089 38.533 14.564 58.15 7.23 18.985 16.81 35.55 28.461 49.236 13.09 15.336 28.461 26.566 45.618 33.304zM930.5 94.298c-7.966-20.915-24.811-74.082-8.984-116.3 7.054-18.81 20.74-31.268 35.199-44.428 2.667-2.422 5.439-4.948 8.141-7.51 4.282-4.036 8.668-8.703 13.301-13.687 14.388-15.371 30.673-32.812 49.763-36.497 80.29-15.511 117.77 36.146 157.43 90.787 19.13 26.355 38.88 53.588 64.01 73.38 4.88 3.861 10.81 7.476 16.56 10.985 11.48 6.984 22.32 13.581 21.73 20.214-.42 4.737-6.64 9.335-18.99 14.072-43.09 16.565-81.52 36.252-125.98 60.747l-.5.246c-32.84 18.108-66.53 36.673-102.12 36.673-11.86 0-23.97-2.071-36.32-6.914-31.865-12.528-57.904-41.55-73.24-81.768z" fill="#ECEFF8"/><path d="M1009.99 160.449c10.07 3.264 20.98 4.913 32.63 4.913 6.85 0 13.97-.561 21.31-1.719 37.55-5.826 76.57-25.864 106.36-42.674 3.76-2.106 8.46-4.422 13.94-7.124 12-5.896 26.95-13.265 38.28-21.933 13.44-10.318 19.09-20.355 17.23-30.743-1.96-11.16-13.61-25.828-22.95-37.585-3.93-4.948-7.65-9.615-10.14-13.405-9.97-15.056-20.7-31.023-33.02-45.657-34.99-41.691-70.05-63.835-104.19-65.836-27.66-1.579-55 10.142-81.176 34.918-1.053.878-2.106 1.72-3.159 2.562-27.618 22.495-51.447 41.937-54.956 80.75-1.685 18.635.351 38.603 5.895 57.73 5.651 19.511 14.74 37.374 26.25 51.727 13.511 16.67 29.514 28.145 47.696 34.076zm-46.502-34.953c-23.092-28.706-35.304-70.257-31.865-108.44 3.439-38.216 27.092-57.482 54.43-79.767 1.053-.842 2.105-1.72 3.158-2.597l.035-.035c24.354-23.056 49.654-34.707 75.274-34.707 1.62 0 3.23.035 4.88.14 33.72 1.93 68.47 23.934 103.21 65.31 12.25 14.598 22.99 30.496 32.92 45.55 2.52 3.826 6.24 8.528 10.21 13.512 9.23 11.65 20.74 26.144 22.67 36.988 1.72 9.791-3.72 19.407-16.7 29.374-11.2 8.597-26.08 15.932-38.05 21.793-5.47 2.702-10.24 5.018-14 7.159-29.69 16.739-68.57 36.708-105.91 42.498-7.44 1.158-14.56 1.72-21.44 1.72-32.15 0-58.082-12.704-78.822-38.498z" fill="#ECEFF8"/><path d="M1051.33 149.535c31.79 0 63.41-11.335 85.1-21.337 16.39-7.58 32.21-15.23 45.3-25.899 15.8-12.844 23.87-27.197 24.75-43.937.66-13.055-2.99-27.197-10.81-42.077-5.83-11.09-13.83-22.53-25.2-35.936-16.14-19.09-41.87-44.183-72.82-55.202-14.39-5.124-28.57-6.633-42.08-4.492-14.91 2.351-29.26 9.195-42.67 20.32-3.79 2.596-7.69 5.123-11.41 7.58-24.631 16.107-47.898 31.338-54.917 62.957-3.088 13.897-2.948 29.865.421 46.148 3.158 15.336 8.949 30.25 16.74 43.165 17.932 29.725 44.426 46.008 78.716 48.43 2.95.21 5.89.28 8.88.28zm-86.403-49.447c-16.249-26.916-22.916-61.589-16.985-88.295 6.913-31.058 29.934-46.148 54.328-62.116 3.75-2.456 7.65-5.018 11.47-7.615.04 0 .04-.035.07-.035 16.81-13.967 34.81-20.986 53.84-20.986 9.61 0 19.47 1.79 29.54 5.37 30.64 10.878 56.19 35.795 72.23 54.78 16.03 18.986 37.16 47.622 35.65 77.066-1.93 37.585-42.43 56.255-69.24 68.643-22.28 10.282-53.59 21.372-84.82 21.372-32.07.035-64.08-11.721-86.083-48.184z" fill="#ECEFF8"/><path d="M1101.83 131.568c16.07-3.79 31.48-9.721 44.57-17.196 14.03-8.036 24.98-17.442 32.53-27.97 10.81-15.09 13.61-32.286 8.35-51.13-6.07-21.689-21.27-40.043-32.99-51.623-14.63-14.46-32.18-26.707-48.15-33.55-19.86-8.493-48.43-7.615-76.47 2.351-13.47 4.808-26.07 11.476-36.493 19.372-11.23 8.493-19.548 18.003-24.776 28.285-5.405 10.669-8.247 22.495-8.423 35.2-.14 11.966 2.035 24.108 6.492 36.075 8.984 24.04 26.005 43.938 46.64 54.641 13.19 6.808 30.36 10.318 49.24 10.318 12.66-.035 26.04-1.615 39.48-4.773zm-88.02-6.843C970.225 102.159 948.748 41.869 969.699.704c9.861-19.442 32.501-36.989 60.471-46.955 15.09-5.37 30.32-8.072 44.25-8.072 11.61 0 22.32 1.895 31.2 5.685 31.72 13.582 70.43 48.816 80.33 84.26 5.12 18.39 2.38 35.199-8.15 49.938-14.38 20.074-42.92 36.778-76.29 44.639-33.2 7.826-65.98 5.791-87.7-5.474z" fill="#ECEFF8"/><path d="M1171.42 56.397c1.79-17.827-4.39-35.48-17.87-51.026-18.88-21.828-50.46-37.34-78.57-38.603-15.2-.912-30.88 1.72-45.31 7.72-14.59 6.037-26.91 15.056-35.616 26.04-6.492 8.212-10.809 17.266-12.809 26.917-2.141 10.423-1.544 21.337 1.79 32.427 6.562 21.758 20.495 38.953 40.325 49.657 13.75 7.405 29.65 11.265 46.08 11.265 5.79 0 11.61-.491 17.44-1.439 11.75-1.93 34.28-6.913 53.34-18.599 18.95-11.581 29.44-26.496 31.2-44.359zm-84.72 61.554c-6 .983-11.9 1.474-17.69 1.474-39.97 0-73.517-23.021-84.607-59.94-8.001-26.636 1.439-46.288 10.774-58.044 16.353-20.67 44.813-33.41 73.803-33.41 2 0 3.96.07 5.96.176 27.76 1.264 58.96 16.6 77.6 38.147 13.19 15.266 19.26 32.532 17.51 49.973-4.53 45.166-64.92 58.571-83.35 61.624z" fill="#ECEFF8"/></g></svg>