<svg width="17" height="23" fill="none" xmlns="http://www.w3.org/2000/svg"><path d="M15.965 12.066c-.534-.69-1.34-1.165-2.419-1.423 1.373-.7 1.977-1.89 1.81-3.567-.054-.608-.223-1.135-.504-1.582a3.167 3.167 0 00-1.14-1.078c-.48-.272-1-.479-1.562-.622a12.323 12.323 0 00-1.936-.31V0H8.086v3.386c-.369 0-.93.01-1.686.028V0H4.27v3.483c-.304.01-.751.014-1.34.014L0 3.483V5.75h1.534c.7 0 1.11.314 1.23.94v3.967c.093 0 .166.005.222.014h-.222v5.556c-.073.47-.34.706-.801.706H.429L0 19.462h2.765c.175 0 .428.002.76.006.332.005.58.008.746.008V23h2.13v-3.483c.386.01.948.014 1.685.014V23h2.129v-3.526a16.532 16.532 0 002.01-.207 8.184 8.184 0 001.68-.477 4.532 4.532 0 001.34-.808c.36-.323.657-.733.893-1.23.234-.498.384-1.074.448-1.729.12-1.28-.087-2.266-.621-2.958zM6.44 5.902l.546-.007.747-.014c.198-.005.465.007.801.034.337.028.62.065.85.111.23.046.484.122.76.228.277.106.498.235.664.387.166.152.306.346.421.58.116.236.173.505.173.81 0 .257-.041.492-.124.704a1.33 1.33 0 01-.373.533 3.787 3.787 0 01-.512.373 2.342 2.342 0 01-.67.255c-.272.065-.509.116-.711.152a5.833 5.833 0 01-.76.076 38.86 38.86 0 01-.692.028c-.157.005-.37.005-.643 0l-.477-.007V5.902zm5.813 9.413c-.088.212-.2.396-.339.553a1.92 1.92 0 01-.546.414 4.69 4.69 0 01-.656.29 5.292 5.292 0 01-.768.194 10.055 10.055 0 01-1.596.173 18.219 18.219 0 01-1.396.014 44.511 44.511 0 00-.512-.007v-4.672c.074 0 .293-.005.657-.014.364-.01.66-.014.891-.014.23 0 .549.014.954.042a8.14 8.14 0 011.023.124c.276.055.578.14.905.256.327.115.592.255.795.421.203.166.373.378.511.636.14.258.208.553.208.885 0 .258-.044.493-.131.705z" fill="#fff"/></svg>