<svg version="1.1" id="Layer_1" xmlns="http://www.w3.org/2000/svg" x="0" y="0" viewBox="0 0 2365 2222" xml:space="preserve"><style>.st0{display:none}.st7{fill:#fff}.st9{fill:#44369e}.st10{fill:#624de3}.st12{fill:#ce101d}.st15{fill:#ffa8a7}.st17{fill:#0263c4}.st19{fill:#f28f8f}.st20{fill:#006be6}.st24{fill:#c8e2ff}.st26{fill:#fbad6e}.st28{opacity:.53;fill:#98bde2;stroke:#fff;stroke-width:4.0126;stroke-miterlimit:10}.st29{fill:#353535}</style><switch><g><g class="st0"><path fill="#dd381d" d="M.5.5h2999v2221H.5z"/><path d="M2999.5.5s-32.1 634-568.6 630.1c-257.3-1.9-534.6-366.3-1107.5-270.1-280.5 47.1-126.7 486.4-485.7 418C105.8 639.2 48.7 933 .5 1221.1V.5h2999z" fill="#f2c6d3" opacity=".6"/></g><path fill="#fff" d="M-194.5-712.8H4365v3201.3H-194.5z"/><g class="st0"><path d="M445-293.1H141.2c-6.4 0-11.5-5.2-11.5-11.5V-417c0-6.4 5.2-11.5 11.5-11.5H445c6.4 0 11.5 5.2 11.5 11.5v112.4c0 6.4-5.2 11.5-11.5 11.5z" fill="#ce101d"/><path class="st7" d="M209.3-338.3v-45.2h5.3v40.4h19.9v4.8h-25.2zm72.4-22.6c0 7.2-1.8 12.9-5.5 17.1-3.7 4.1-8.7 6.2-15.3 6.2-6.7 0-11.8-2-15.4-6.1-3.6-4.1-5.4-9.8-5.4-17.2 0-7.4 1.8-13.1 5.4-17.1 3.6-4 8.8-6.1 15.5-6.1 6.5 0 11.6 2.1 15.2 6.2 3.7 4 5.5 9.7 5.5 17zm-36 0c0 6.1 1.3 10.8 3.9 13.9 2.6 3.2 6.4 4.7 11.4 4.7s8.8-1.6 11.3-4.7c2.6-3.2 3.8-7.8 3.8-13.9 0-6.1-1.3-10.7-3.8-13.8s-6.3-4.7-11.3-4.7c-5 0-8.8 1.6-11.4 4.7-2.6 3.1-3.9 7.7-3.9 13.8zM312-362h15.4v22c-2.4.8-4.8 1.3-7.3 1.7-2.5.4-5.3.6-8.6.6-6.8 0-12.2-2-16-6.1-3.8-4.1-5.7-9.8-5.7-17.1 0-4.7.9-8.8 2.8-12.3s4.6-6.2 8.1-8.1c3.5-1.9 7.7-2.8 12.5-2.8s9.3.9 13.5 2.7l-2 4.6c-4.1-1.7-8-2.6-11.8-2.6-5.5 0-9.8 1.6-12.9 4.9-3.1 3.3-4.6 7.8-4.6 13.6 0 6.1 1.5 10.7 4.5 13.9 3 3.2 7.4 4.7 13.1 4.7 3.1 0 6.2-.4 9.2-1.1v-13.9H312v-4.7zm65.7 1.1c0 7.2-1.8 12.9-5.5 17.1-3.7 4.1-8.7 6.2-15.3 6.2-6.7 0-11.8-2-15.4-6.1-3.6-4.1-5.4-9.8-5.4-17.2 0-7.4 1.8-13.1 5.4-17.1 3.6-4 8.8-6.1 15.5-6.1 6.5 0 11.6 2.1 15.2 6.2 3.7 4 5.5 9.7 5.5 17zm-36 0c0 6.1 1.3 10.8 3.9 13.9 2.6 3.2 6.4 4.7 11.4 4.7s8.8-1.6 11.3-4.7c2.6-3.2 3.8-7.8 3.8-13.9 0-6.1-1.3-10.7-3.8-13.8s-6.3-4.7-11.3-4.7c-5 0-8.8 1.6-11.4 4.7-2.6 3.1-3.9 7.7-3.9 13.8z"/><path d="M2491.5-339.8h-5.3V-361h-23.8v21.3h-5.3V-385h5.3v19.2h23.8V-385h5.3v45.2zm41.2-16.9c0 5.5-1.4 9.8-4.2 12.9-2.8 3.1-6.6 4.7-11.5 4.7-3 0-5.7-.7-8.1-2.1-2.3-1.4-4.2-3.5-5.4-6.1-1.3-2.7-1.9-5.8-1.9-9.3 0-5.5 1.4-9.8 4.1-12.9 2.8-3.1 6.6-4.6 11.5-4.6 4.7 0 8.5 1.6 11.3 4.7 2.8 3 4.2 7.3 4.2 12.7zm-25.8 0c0 4.3.9 7.6 2.6 9.9 1.7 2.3 4.3 3.4 7.6 3.4s5.9-1.1 7.7-3.4c1.7-2.3 2.6-5.6 2.6-9.9 0-4.3-.9-7.6-2.6-9.8s-4.3-3.4-7.7-3.4c-3.4 0-5.9 1.1-7.6 3.3-1.8 2.2-2.6 5.5-2.6 9.9zm78.3 16.9v-22c0-2.7-.6-4.7-1.7-6.1-1.2-1.3-2.9-2-5.4-2-3.2 0-5.6.9-7.1 2.8-1.5 1.8-2.3 4.7-2.3 8.5v18.9h-5.1v-22c0-2.7-.6-4.7-1.7-6.1-1.2-1.3-3-2-5.4-2-3.2 0-5.6 1-7.1 2.9s-2.2 5.1-2.2 9.5v17.8h-5.1v-33.9h4.2l.8 4.6h.2c1-1.6 2.3-2.9 4.1-3.9 1.8-.9 3.7-1.4 5.9-1.4 5.3 0 8.8 1.9 10.4 5.8h.2c1-1.8 2.5-3.2 4.4-4.2 1.9-1 4.1-1.5 6.6-1.5 3.8 0 6.7 1 8.6 3 1.9 2 2.9 5.1 2.9 9.4v22.1h-5.2zm30.3.7c-5 0-9-1.5-11.9-4.6-2.9-3-4.3-7.3-4.3-12.7 0-5.5 1.3-9.8 4-13 2.7-3.2 6.3-4.8 10.8-4.8 4.2 0 7.6 1.4 10.1 4.2 2.5 2.8 3.7 6.5 3.7 11.1v3.2h-23.3c.1 4 1.1 7 3 9.1 1.9 2.1 4.6 3.1 8.1 3.1 3.6 0 7.3-.8 10.8-2.3v4.6c-1.8.8-3.5 1.3-5.1 1.7-1.6.2-3.6.4-5.9.4zm-1.4-30.9c-2.7 0-4.9.9-6.5 2.7-1.6 1.8-2.6 4.2-2.9 7.4h17.7c0-3.2-.7-5.7-2.2-7.4-1.3-1.8-3.4-2.7-6.1-2.7zm249 30.2l-5.6-14.4h-18.1l-5.6 14.4h-5.3l17.9-45.4h4.4l17.8 45.4h-5.5zm-7.3-19.1l-5.3-14c-.7-1.8-1.4-3.9-2.1-6.5-.5 2-1.1 4.2-1.9 6.5l-5.3 14h14.6zm34.3-15.3c4.5 0 7.9 1.5 10.4 4.6 2.5 3 3.7 7.3 3.7 12.9 0 5.6-1.2 9.9-3.7 13-2.5 3.1-5.9 4.6-10.3 4.6-2.2 0-4.2-.4-6-1.2-1.8-.8-3.4-2.1-4.6-3.8h-.4l-1.1 4.4h-3.7v-48.1h5.1v11.7c0 2.6-.1 5-.2 7h.2c2.3-3.4 5.9-5.1 10.6-5.1zm-.8 4.3c-3.5 0-6 1-7.6 3s-2.3 5.4-2.3 10.2c0 4.8.8 8.2 2.4 10.2 1.6 2.1 4.1 3.1 7.6 3.1 3.2 0 5.5-1.1 7-3.4s2.3-5.6 2.3-9.9c0-4.4-.8-7.7-2.3-9.9-1.5-2.2-3.8-3.3-7.1-3.3zm53.4 13.2c0 5.5-1.4 9.8-4.2 12.9-2.8 3.1-6.6 4.7-11.5 4.7-3 0-5.7-.7-8.1-2.1-2.3-1.4-4.2-3.5-5.4-6.1-1.3-2.7-1.9-5.8-1.9-9.3 0-5.5 1.4-9.8 4.1-12.9 2.8-3.1 6.6-4.6 11.5-4.6 4.7 0 8.5 1.6 11.3 4.7 2.8 3 4.2 7.3 4.2 12.7zm-25.9 0c0 4.3.9 7.6 2.6 9.9 1.7 2.3 4.3 3.4 7.6 3.4s5.9-1.1 7.7-3.4c1.7-2.3 2.6-5.6 2.6-9.9 0-4.3-.9-7.6-2.6-9.8-1.7-2.2-4.3-3.4-7.7-3.4-3.4 0-5.9 1.1-7.6 3.3-1.7 2.2-2.6 5.5-2.6 9.9zm40-16.9v22c0 2.8.6 4.8 1.9 6.2 1.3 1.4 3.2 2 5.9 2 3.5 0 6.1-1 7.8-2.9 1.6-1.9 2.5-5.1 2.5-9.5v-17.8h5.1v33.9h-4.2l-.7-4.5h-.3c-1.1 1.7-2.5 2.9-4.4 3.8-1.9.9-4 1.3-6.4 1.3-4.1 0-7.2-1-9.3-2.9-2.1-2-3.1-5.1-3.1-9.4v-22.2h5.2zm45.3 30.2c.9 0 1.8-.1 2.6-.2s1.5-.3 2-.4v3.9c-.6.3-1.4.5-2.5.7-1.1.2-2.1.3-2.9.3-6.6 0-9.8-3.5-9.8-10.4v-20.2h-4.9v-2.5l4.9-2.1 2.2-7.2h3v7.9h9.8v4h-9.8v19.9c0 2 .5 3.6 1.5 4.7.9 1.1 2.2 1.6 3.9 1.6zm63.4-41.6v29.2c0 5.2-1.6 9.2-4.7 12.1-3.1 2.9-7.4 4.4-12.8 4.4s-9.7-1.5-12.6-4.5c-3-3-4.5-7-4.5-12.2v-29h5.3v29.5c0 3.8 1 6.7 3.1 8.7 2.1 2 5.1 3 9.1 3 3.8 0 6.7-1 8.8-3 2.1-2 3.1-4.9 3.1-8.7V-385h5.2zm33.3 36c0 3.2-1.2 5.6-3.5 7.3-2.3 1.7-5.6 2.6-9.9 2.6-4.5 0-8-.7-10.5-2.1v-4.8c1.6.8 3.4 1.5 5.2 1.9 1.9.5 3.7.7 5.4.7 2.7 0 4.7-.4 6.2-1.3 1.4-.9 2.2-2.2 2.2-3.9 0-1.3-.6-2.4-1.7-3.4-1.1-.9-3.4-2-6.7-3.3-3.2-1.2-5.4-2.2-6.7-3.1-1.3-.9-2.3-1.9-3-3-.6-1.1-1-2.4-1-4 0-2.8 1.1-4.9 3.4-6.5 2.2-1.6 5.3-2.4 9.2-2.4 3.6 0 7.2.7 10.7 2.2l-1.8 4.2c-3.4-1.4-6.5-2.1-9.2-2.1-2.4 0-4.3.4-5.5 1.1-1.2.8-1.9 1.8-1.9 3.2 0 .9.2 1.7.7 2.3s1.2 1.2 2.2 1.8c1 .6 3 1.4 5.9 2.5 4 1.5 6.7 2.9 8.1 4.4 1.5 1.6 2.2 3.4 2.2 5.7zm231.9-2.8c0 4-1.4 7.1-4.3 9.3-2.9 2.2-6.8 3.3-11.7 3.3-5.4 0-9.5-.7-12.4-2.1v-5.1c1.9.8 3.9 1.4 6.1 1.9 2.2.5 4.3.7 6.5.7 3.5 0 6.1-.7 7.9-2 1.8-1.3 2.7-3.2 2.7-5.5 0-1.6-.3-2.8-.9-3.8-.6-1-1.7-1.9-3.2-2.8-1.5-.8-3.7-1.8-6.7-2.9-4.2-1.5-7.2-3.3-9-5.3-1.8-2.1-2.7-4.7-2.7-8.1 0-3.5 1.3-6.3 3.9-8.3 2.6-2.1 6.1-3.1 10.4-3.1 4.5 0 8.6.8 12.4 2.5l-1.6 4.6c-3.7-1.6-7.4-2.3-10.9-2.3-2.8 0-5 .6-6.5 1.8-1.6 1.2-2.3 2.9-2.3 5 0 1.6.3 2.8.9 3.8.6 1 1.5 1.9 2.9 2.8 1.4.8 3.5 1.8 6.3 2.8 4.7 1.7 8 3.5 9.8 5.4 1.5 1.8 2.4 4.3 2.4 7.4zm23.1 12.7c-5 0-9-1.5-11.9-4.6-2.9-3-4.3-7.3-4.3-12.7 0-5.5 1.3-9.8 4-13 2.7-3.2 6.3-4.8 10.8-4.8 4.2 0 7.6 1.4 10.1 4.2 2.5 2.8 3.7 6.5 3.7 11.1v3.2h-23.3c.1 4 1.1 7 3 9.1 1.9 2.1 4.6 3.1 8.1 3.1 3.6 0 7.3-.8 10.8-2.3v4.6c-1.8.8-3.5 1.3-5.1 1.7-1.7.2-3.7.4-5.9.4zm-1.4-30.9c-2.7 0-4.9.9-6.5 2.7-1.6 1.8-2.6 4.2-2.9 7.4h17.7c0-3.2-.7-5.7-2.2-7.4-1.4-1.8-3.5-2.7-6.1-2.7zm38.3-4.3c1.5 0 2.9.1 4 .4l-.7 4.8c-1.4-.3-2.6-.5-3.7-.5-2.7 0-5.1 1.1-7 3.3-1.9 2.2-2.9 5-2.9 8.3v18.2h-5.1v-33.9h4.2l.6 6.3h.2c1.3-2.2 2.8-3.9 4.5-5.1 1.9-1.2 3.8-1.8 5.9-1.8zm18.2 34.5l-12.9-33.9h5.5l7.3 20.1c1.6 4.7 2.6 7.7 2.9 9.2h.2c.2-1.1.9-3.4 2.1-6.8 1.2-3.4 3.9-10.9 8.1-22.5h5.5l-12.9 33.9h-5.8zm24.1-43c0-1.2.3-2 .9-2.6.6-.5 1.3-.8 2.2-.8.8 0 1.5.3 2.1.8.6.6.9 1.4.9 2.6 0 1.2-.3 2-.9 2.6-.6.6-1.3.9-2.1.9-.9 0-1.6-.3-2.2-.9-.6-.6-.9-1.5-.9-2.6zm5.6 43h-5.1v-33.9h5.1v33.9zm24.7.7c-4.9 0-8.7-1.5-11.4-4.5-2.7-3-4-7.3-4-12.8 0-5.7 1.4-10 4.1-13.1 2.7-3.1 6.6-4.6 11.7-4.6 1.6 0 3.3.2 4.9.5 1.6.4 2.9.8 3.8 1.2l-1.6 4.4c-1.1-.5-2.4-.8-3.7-1.1-1.3-.3-2.5-.4-3.6-.4-6.9 0-10.3 4.4-10.3 13.2 0 4.2.8 7.4 2.5 9.6 1.7 2.2 4.2 3.3 7.5 3.3 2.8 0 5.7-.6 8.7-1.8v4.5c-2.3 1-5.1 1.6-8.6 1.6zm31.3 0c-5 0-9-1.5-11.9-4.6-2.9-3-4.3-7.3-4.3-12.7 0-5.5 1.3-9.8 4-13 2.7-3.2 6.3-4.8 10.8-4.8 4.2 0 7.6 1.4 10.1 4.2 2.5 2.8 3.7 6.5 3.7 11.1v3.2h-23.3c.1 4 1.1 7 3 9.1 1.9 2.1 4.6 3.1 8.1 3.1 3.6 0 7.3-.8 10.8-2.3v4.6c-1.8.8-3.5 1.3-5.1 1.7-1.7.2-3.6.4-5.9.4zm-1.4-30.9c-2.7 0-4.9.9-6.5 2.7-1.6 1.8-2.6 4.2-2.9 7.4h17.7c0-3.2-.7-5.7-2.2-7.4-1.4-1.8-3.4-2.7-6.1-2.7zm44.7 21c0 3.2-1.2 5.6-3.5 7.3-2.3 1.7-5.6 2.6-9.9 2.6-4.5 0-8-.7-10.5-2.1v-4.8c1.6.8 3.4 1.5 5.2 1.9 1.9.5 3.7.7 5.4.7 2.7 0 4.7-.4 6.2-1.3 1.4-.9 2.2-2.2 2.2-3.9 0-1.3-.6-2.4-1.7-3.4-1.1-.9-3.4-2-6.7-3.3-3.2-1.2-5.4-2.2-6.7-3.1-1.3-.9-2.3-1.9-3-3-.6-1.1-1-2.4-1-4 0-2.8 1.1-4.9 3.4-6.5 2.2-1.6 5.3-2.4 9.2-2.4 3.6 0 7.2.7 10.7 2.2l-1.8 4.2c-3.4-1.4-6.5-2.1-9.2-2.1-2.4 0-4.3.4-5.5 1.1-1.2.8-1.9 1.8-1.9 3.2 0 .9.2 1.7.7 2.3s1.2 1.2 2.2 1.8c1 .6 3 1.4 5.9 2.5 4 1.5 6.7 2.9 8.1 4.4 1.5 1.6 2.2 3.4 2.2 5.7zm212.8-31.9c-5 0-8.9 1.7-11.8 5-2.9 3.3-4.3 7.8-4.3 13.6 0 5.9 1.4 10.5 4.2 13.7 2.8 3.2 6.7 4.8 11.9 4.8 3.2 0 6.7-.6 10.8-1.7v4.6c-3.1 1.2-7 1.8-11.6 1.8-6.7 0-11.8-2-15.4-6.1-3.6-4-5.4-9.8-5.4-17.2 0-4.7.9-8.7 2.6-12.2 1.7-3.5 4.3-6.2 7.5-8.1 3.3-1.9 7.2-2.8 11.6-2.8 4.7 0 8.9.9 12.4 2.6l-2.2 4.5c-3.5-1.7-6.9-2.5-10.3-2.5zm49.4 24.2c0 5.5-1.4 9.8-4.2 12.9-2.8 3.1-6.6 4.7-11.5 4.7-3 0-5.7-.7-8.1-2.1-2.3-1.4-4.2-3.5-5.4-6.1-1.3-2.7-1.9-5.8-1.9-9.3 0-5.5 1.4-9.8 4.1-12.9 2.8-3.1 6.6-4.6 11.5-4.6 4.7 0 8.5 1.6 11.3 4.7 2.8 3 4.2 7.3 4.2 12.7zm-25.8 0c0 4.3.9 7.6 2.6 9.9 1.7 2.3 4.3 3.4 7.6 3.4 3.4 0 5.9-1.1 7.7-3.4 1.7-2.3 2.6-5.6 2.6-9.9 0-4.3-.9-7.6-2.6-9.8-1.7-2.2-4.3-3.4-7.7-3.4-3.4 0-5.9 1.1-7.6 3.3-1.8 2.2-2.6 5.5-2.6 9.9zm58.3 16.9v-21.9c0-2.8-.6-4.8-1.9-6.2-1.3-1.4-3.2-2-5.9-2-3.5 0-6.1 1-7.8 2.9-1.6 1.9-2.5 5.1-2.5 9.5v17.8h-5.1v-33.9h4.2l.8 4.6h.2c1.1-1.7 2.5-3 4.4-3.9 1.9-.9 4-1.4 6.3-1.4 4.1 0 7.2 1 9.2 3 2.1 2 3.1 5.1 3.1 9.4v22.1h-5zm26.9-3.6c.9 0 1.8-.1 2.6-.2s1.5-.3 2-.4v3.9c-.6.3-1.4.5-2.5.7-1.1.2-2.1.3-2.9.3-6.6 0-9.8-3.5-9.8-10.4v-20.2h-4.9v-2.5l4.9-2.1 2.2-7.2h3v7.9h9.8v4h-9.8v19.9c0 2 .5 3.6 1.5 4.7.9 1.1 2.2 1.6 3.9 1.6zm32.6 3.6l-1-4.8h-.2c-1.7 2.1-3.4 3.6-5.1 4.3-1.7.8-3.8 1.1-6.3 1.1-3.4 0-6-.9-7.9-2.6-1.9-1.7-2.9-4.2-2.9-7.4 0-6.8 5.5-10.4 16.4-10.8l5.7-.2v-2.1c0-2.7-.6-4.6-1.7-5.9-1.1-1.3-3-1.9-5.5-1.9-2.8 0-6 .9-9.6 2.6l-1.6-3.9c1.7-.9 3.5-1.6 5.5-2.1s4-.8 6-.8c4 0 7 .9 9 2.7 1.9 1.8 2.9 4.7 2.9 8.6v23.1h-3.7zm-11.6-3.6c3.2 0 5.7-.9 7.5-2.6 1.8-1.8 2.7-4.2 2.7-7.4v-3.1l-5.1.2c-4.1.1-7 .8-8.8 1.9-1.8 1.1-2.7 2.9-2.7 5.2 0 1.9.6 3.3 1.7 4.2 1.1 1.1 2.6 1.6 4.7 1.6zm39.8 4.3c-4.9 0-8.7-1.5-11.4-4.5-2.7-3-4-7.3-4-12.8 0-5.7 1.4-10 4.1-13.1 2.7-3.1 6.6-4.6 11.7-4.6 1.6 0 3.3.2 4.9.5 1.6.4 2.9.8 3.8 1.2l-1.6 4.4c-1.1-.5-2.4-.8-3.7-1.1-1.3-.3-2.5-.4-3.6-.4-6.9 0-10.3 4.4-10.3 13.2 0 4.2.8 7.4 2.5 9.6 1.7 2.2 4.2 3.3 7.5 3.3 2.8 0 5.7-.6 8.7-1.8v4.5c-2.3 1-5.2 1.6-8.6 1.6zm27.8-4.3c.9 0 1.8-.1 2.6-.2s1.5-.3 2-.4v3.9c-.6.3-1.4.5-2.5.7-1.1.2-2.1.3-2.9.3-6.6 0-9.8-3.5-9.8-10.4v-20.2h-4.9v-2.5l4.9-2.1 2.2-7.2h3v7.9h9.8v4h-9.8v19.9c0 2 .5 3.6 1.5 4.7.9 1.1 2.3 1.6 3.9 1.6zm33.3-30.2v22c0 2.8.6 4.8 1.9 6.2 1.3 1.4 3.2 2 5.9 2 3.5 0 6.1-1 7.8-2.9 1.6-1.9 2.5-5.1 2.5-9.5v-17.8h5.1v33.9h-4.2l-.7-4.5h-.3c-1.1 1.7-2.5 2.9-4.4 3.8-1.9.9-4 1.3-6.4 1.3-4.1 0-7.2-1-9.3-2.9-2.1-2-3.1-5.1-3.1-9.4v-22.2h5.2zm56.3 24.6c0 3.2-1.2 5.6-3.5 7.3-2.3 1.7-5.6 2.6-9.9 2.6-4.5 0-8-.7-10.5-2.1v-4.8c1.6.8 3.4 1.5 5.2 1.9 1.9.5 3.7.7 5.4.7 2.7 0 4.7-.4 6.2-1.3 1.4-.9 2.2-2.2 2.2-3.9 0-1.3-.6-2.4-1.7-3.4-1.1-.9-3.4-2-6.7-3.3-3.2-1.2-5.4-2.2-6.7-3.1-1.3-.9-2.3-1.9-3-3-.6-1.1-1-2.4-1-4 0-2.8 1.1-4.9 3.4-6.5 2.2-1.6 5.3-2.4 9.2-2.4 3.6 0 7.2.7 10.7 2.2l-1.8 4.2c-3.4-1.4-6.5-2.1-9.2-2.1-2.4 0-4.3.4-5.5 1.1-1.2.8-1.9 1.8-1.9 3.2 0 .9.2 1.7.7 2.3.5.6 1.2 1.2 2.2 1.8 1 .6 3 1.4 5.9 2.5 4 1.5 6.7 2.9 8.1 4.4 1.4 1.6 2.2 3.4 2.2 5.7z" fill="#111b33"/></g><path class="st9" d="M683.9 348.4L451.4 721.6l233.3 38.7.3-.2-1.1-411.7zm-554.3 320l1.2 411.7.3-.2 232.3-307.5-233.8-104z"/><path class="st10" d="M363.4 772.4l44.2 19.6 43.8-70.4 233.3 38.7h.3l-554.2 320 .3-.4 232.3-307.5z"/><path class="st9" d="M683.9 348.4L439.3 718.8l12.2 2.8 232.4-373.2zm-554.3 320l233.8 104 9.1-13.4-242.9-90.6z"/><path class="st9" d="M372.5 759l32.6 12.8 34.2-53.6 12.1 3.4-43.8 70.4-44.2-19.6 6.6-8.7z"/><path class="st10" d="M129.6 668.4l554.3-320-241.5 365.4-37.3 58-37.5-14.8-238-88.6z"/><path d="M1760.6 494.4l-326.5 188.4v-12.1l326.5-188.5zm0 31.8l-326.5 188.5v-12.2L1760.6 514z" fill-rule="evenodd" clip-rule="evenodd" fill="#006be6"/><ellipse transform="rotate(-59.689 1835.047 442.693)" class="st12" cx="1835" cy="442.7" rx="69.3" ry="40"/><path class="st12" d="M1798.6 472.5l-23 38.8 39.1-19z"/><path class="st7" d="M1848.5 410.5c0 8.5-6 18.8-13.4 23.1-7.4 4.3-13.4.9-13.4-7.6s6-18.8 13.4-23.1c7.4-4.3 13.4-.9 13.4 7.6zm16.9 41.5c-7.1-20.8-13.1-24.3-30.3-14.3-17.3 10-23.2 20.3-30.4 49.3l60.7-35z"/><path d="M1779.6 1426.8v1.3c-1.7 105.5-72 210.5-211.1 290.8-282.7 163.2-742.6 162.4-1027.1-1.9-137.9-79.6-209.3-183-214-287v-23.1l.2-117 17.7 35.5c29.2-73.9 93.5-144 192.9-201.4 282.7-163.2 742.6-162.4 1027.1 1.9 82.7 47.7 141.4 104 176.3 163.8l37.8-21.3.2 152.1v6.3z" fill="#171347"/><path d="M1779.6 1426.8v-6.2c.1 2.1.1 4.1 0 6.2zM327.5 1407v22.8c-.5-7.6-.4-15.2 0-22.8zm-.1 23.1v-.3.3zm1452.2-3.3z" fill="#ffc100"/><ellipse transform="matrix(.00542 -1 1 .00542 -229.388 2323.563)" class="st10" cx="1053.4" cy="1277.1" rx="419.3" ry="726.3"/><path class="st7" d="M1403 1320.5c-55.7-25.3-111.5-40.2-162.4-12.6l-30.4 16.7c-22.3 12.1-61.1 67.3-236.2-39.6-175-106.8-77.3-126.2-55-138.1l30.6-16.7c50.7-27.8 28.2-60.7-12.5-94.2l-24.5-20.3c-40.9-33.5-84.3-55-135-27.4l-27.5 15c-22.6 10.4-85.5 43.8-96.5 104.9-13.5 73.2 53.1 155.3 198.1 243.8 144.7 88.5 283 131.5 410.6 127.9 105.9-3 167.5-37.3 186.6-49.7l27.7-15.1c50.6-27.7 15.8-53.8-40.1-79.2l-33.5-15.4zm0 0"/><g id="XMLID_42_"><path id="XMLID_104_" class="st15" d="M1701.6 1107.2c14.4 27 30.2 45.4 50.3 68.5 5.5 6.3 8 12.3 17 25.5s22.6 26.3 34.8 32c12.1 5.7 17.4 5.9 19.6 3.9 2.8-2.4 1.5-5.7-3.7-9-5.2-3.2-14.4-7.8-23-17.9 0 0 11.1 7.7 18.1 11.7 7 4 14.5 6.8 20 8.1 6.8 1.6 14.5-5.3 9.3-8.7-5.2-3.4-10.1-4.6-20.5-10.7-9.4-5.5-15.2-11.4-15.2-11.4s11.6 6 22.2 9.2c10.6 3.2 15.7 2.3 19 1.6 3.3-.8 6.4-6.1-.6-9.5-6.3-3-15.5-4.1-26.7-11.8-8.1-5.5-13-10.6-11.1-11.1 1.9-.5 6.4 3.1 14.9 4.2 8.1 1 16.6-2.8 16.9-7.4.2-4.6-1.6-2.4-9.8-4.8-8.2-2.3-14.3-7.4-26.1-9.8-10.4-2.1-17-3.8-25.8-8.3-8.7-4.5-26.9-32.8-40.7-58.3-12-28.1-24.2-74.7-29.3-93.1-8.6-31.1-20.5-94.8-26.8-116.3-6.3-21.6-16.6-26.5-29.4-29.5-15.1-3.5-22.9 15.4-20.2 33.6 4.9 32.3 29.9 156.5 66.8 219.3z"/><path id="XMLID_103_" d="M1763.3 1129.2l13.1 16.9s-2.5 7.9-15.3 15.3-17.5 6.3-17.5 6.3l-12.8-16.4 32.5-22.1z" fill="#f5fbfb"/><path id="XMLID_102_" class="st17" d="M1653.8 851.3c15.3-2.4 28 11.9 34.5 34.1 6.5 22.2 19.9 87.2 23.8 104.4 21.5 95.5 57.7 146.4 57.7 146.4s-13.7 19-35 21.7c0 0-38.3-45.6-65.2-107.2-20-45.8-30.1-108.2-33.2-126.2-7.1-42.1-10.2-68.9 17.4-73.2z"/><path id="XMLID_100_" class="st17" d="M1807.2 1518.4s-1 8.6-2.9 15.6-3.6 18.7-2.3 24.4c1.3 5.7 17.5 13.8 26.6 15 9 1.2 23 10.8 28.1 17.3 7.3 9.3 26.9 16.2 39.5 14.8 12.6-1.4 26.8-4.4 29.9-9.5 3-5.1-1.2-10.8-27.6-29.7-26.4-18.8-44.2-30.3-52.5-47.8l-38.8-.1z"/><path id="XMLID_98_" class="st17" d="M1711.3 1697.3c6.7 9.6 18.1 14.1 29.5 15.7 6.1.9 12.2.8 18.3.7 6.5-.1 16.4-3.9 15.8-11.9-.2-2.6-1.8-4.8-3.4-6.8-10.4-13.4-21.5-26.2-31-40.3-10.7-15.8-21.3-30.8-25.1-54.7l-39.7.5c-.1 3.3-1.1 8-1.7 12.4-.6 4.4-1.8 8.8-2.8 13.1-2 8.6-3.3 17.6 1.1 25.8 3.3 6.1 9.9 9.5 15.3 13.9 10.3 8.4 16.2 20.7 23.7 31.6z"/><path id="XMLID_97_" d="M1504.2 1178c-14.4 89.8 25.5 123.3 77.4 142.5 37.2 13.7 90.6 34.8 90.6 34.8s-.7 19.7-1.2 64c-.4 39 4.8 181.2 4.8 181.2s21.5 11.1 39.7-.5c0 0 20.9-109 25.4-158.1 6-66.6 16.2-110.3 12.8-124.6-3-12.6-75.8-48.5-99-67.6l152.6 51.1s-5.1 26.1-4.4 50.2c1.4 52.9 4.3 167.3 4.3 167.3s20.9 15.1 38.8.3c0 0 38.4-226.6 33.8-256.6-4.4-28.5-138.9-86.7-162.6-106.7-13.5-11.4-28.6-23.6-28.6-23.6l-184.4 46.3z"/><path id="XMLID_96_" d="M1654.7 1249.7s25.7-16.3 34.3-42.6c0 0 1.6 19.2-8.3 35.4-1.1 6.4 126.5 58.3 126.5 58.3l-152.5-51.1z" fill="#aacaf9"/><path id="XMLID_95_" class="st15" d="M1556.6 834.7s2.2 42.8 1.2 46.6c-.9 3.8-19.6 16.3-25.1 20.8-5.4 4.5 29.6 39 46.6 46.8 17 7.8 71-12.8 71.9-39.3.9-26.5-9.2-48.7-17.5-49.9-8.2-1.1-77.1-25-77.1-25z"/><path id="XMLID_94_" class="st19" d="M1626.9 883.7c5.6-5.1-.9-16.3-4.8-24.1-17.7-5.3-65.5-24.8-65.5-24.8s.5 9.9.8 16.7c0 8 5.1 16.2 11.4 21.1 4.8 3.7 11.1 8 19.1 11.1 7 2.7 26 11.6 39 0z"/><path id="XMLID_93_" class="st20" d="M1551.7 887.7s18.4 30.2 77.3 35.8c8.2-16.7 6-43.8-7-61.9 0 0 17.4-14 29.3-11.3 0 0 18.7 9.7 26.7 34.1 8 24.4 16 53.6 15.3 99-.7 45.4 1.4 158.1 1.4 158.1s7.4 33.2-47.5 58.4c-35.4 16.2-68.5 20.4-95.1 14.2-21.9-5.1-45.4-13.5-50.1-23.8 4.3-36.2 15.6-99.8 12.5-137.8-3.2-40.2-11.8-69.5-13.9-101.9-2.2-32.3 4.3-31.7 20.5-43.2 21.8-15.5 30.6-19.7 30.6-19.7z"/><path id="XMLID_91_" class="st15" d="M1653.4 770.9c-5.1-33.2-29-58.4-63.3-56.5-36.4 2-64.3 33.2-62.3 69.6 1.2 21.3 12.4 39.4 28.8 50.6 0 0 3.1 12 5.3 14.5 12.1 14.2 48.7 22.9 59.3 21.4 13.5-1.9 20.8-7.6 27.3-22.3 11.3-26 7.7-60.9 4.9-77.3z"/><path id="XMLID_89_" d="M1648.4 744.2c-14.2-21.5-40.1-34.2-68.4-28.4-27.9 5.8-49.4 30-52 58.3-2.3 25.5 9.8 47.6 28.6 60.5-.7-2.2-18-28.1-.2-33.8 2.8 3.3-.5 8.9-.4 14.2 0 0 12.9-1.4 10.9-11.8-.6-2.9-1.1-5.5-1.5-7.9-1.6-8 .5-16.1 5.1-22.9 3.7-5.5 6.8-13.1 4.7-21.6 0 0 22 9.8 50.1 3.9 11.8-2.4 19.8-6.9 23.1-10.5z" fill="#3a2c6d"/><path id="XMLID_77_" d="M1595.6 794.7c4.4-5.3-1.6-13.4 26-10.5 27.5 2.9 44.3-33.6 50.1-44.8 8.7-17-8.7-4.7-24.5-13.2s-75-36.8-100.1 6.8c0 0-14.3 2.3-18 10.7-3.8 8.5-5.1 38.8 3.2 57.6-.1.1 31.6 31.3 63.3-6.6z"/><path id="XMLID_75_" class="st15" d="M1556.6 834.5s-1.5 3.5-8 3.8c-12 .6-26.1-21.7-16.4-36.9 6.1-9.5 19.7-6.1 24.1-.5l.3 33.6z"/><g id="XMLID_54_"><g id="XMLID_55_"><path id="XMLID_56_" class="st15" d="M1578.2 1266.3c-7.3-4.4-12.3-10.6-23-16-9.4-4.8-13.2-6.9-19.7-14.3-7-8.1-16.9-37.2-23.5-65.4-7.7-33.2-5.7-77.3-2.3-96.1 7.1-38.1 25.5-90.7 30.9-112.5 5.4-21.8-1-31.2-10.6-40.3-11.3-10.6-28.3-7.8-39.9 22.4-11.6 30.2-26.4 85.7-31.1 129.5-2.3 21.3-3 55.5 6.7 98.3 6.8 29.8 17.1 51.8 30.4 79.4 3.6 7.5 4.4 14 9.7 29.1 5.2 15.1 14.9 31.4 25.1 40.1 10.2 8.7 15.2 10.3 17.9 9 3.3-1.6 3-5.1-1.2-9.6s-11.9-11.3-17.5-23.3c0 0 8.7 10.3 14.4 16.1 5.7 5.7 12.2 10.4 17.1 13.1 6.1 3.3 15.4-1.3 11.3-5.9-4.1-4.7-8.6-7.1-16.9-15.7-7.6-7.8-11.6-15.1-11.6-15.1s9.6 8.8 19 14.7c9.4 5.9 14.5 6.4 17.9 6.5 3.4.1 7.8-4.2 2-9.3-5.3-4.6-13.9-8.1-22.6-18.4-6.3-7.5-9.8-13.6-7.8-13.6 2 0 5.4 4.7 13.3 8 7.5 3.1 16.8 1.7 18.2-2.7 1.4-4.4 1.1-3.6-6.2-8z"/></g></g><path id="XMLID_53_" class="st17" d="M1526.3 916c10.7 5.9 22 19.4 14.2 51-7.8 31.7-21.2 71.3-27.5 99.8-6.3 28.6-7.2 64.4-1.3 91.8 5.9 27.4 15.3 56.8 15.3 56.8s-21.9 20.3-42.4 19.4c0 0-21.4-43-27.7-96.4s4.8-131.7 27.4-187.2c20.7-50.3 42-35.2 42-35.2z"/><g id="XMLID_43_"><g id="XMLID_44_"><path id="XMLID_52_" class="st7" d="M1870.1 1215.5l-102.6-59.2c-1.8-1.1-4.1-1.1-5.9 0l-179.9 103.9 105.5 60.9 182.9-105.6z"/><path id="XMLID_51_" fill="#aeb5b7" d="M1659.1 1223.6l1.1.6 27.1 15.6 48.2-27.8 1-.6-28.1-16.2z"/><path id="XMLID_50_" fill="#8299db" d="M1660.2 1224.2l27.1 15.6 48.2-27.8-27.1-15.7z"/><path id="XMLID_49_" class="st24" d="M1581.8 1260.1v2.4c0 3.5 1.9 6.8 4.9 8.6l95.6 55.2c1.5.9 3.2 1.3 5 1.3 1.7 0 3.4-.4 4.9-1.3l173-99.9c3.1-1.8 5-5 5-8.6v-2.4L1687.3 1321l-105.5-60.9z"/><path id="XMLID_48_" d="M1687.3 1321v6.6c1.7 0 3.4-.4 4.9-1.3l173-99.9c3.1-1.8 5-5 5-8.6v-2.4L1687.3 1321z" fill="#aad1fc"/><path id="XMLID_46_" d="M1690.1 1322.5c3.3 1.3 7 1 10.1-.8l172.2-99.4c3-1.8 5.1-4.7 5.7-8.2l18.9-112.4c.1-.6.2-1.3.2-1.9 0-3.1-1.2-6.1-3.5-8.3l-179 103.3c-2.2 1.3-3.8 3.5-4.2 6.1l-20.4 121.6z"/><path id="XMLID_45_" class="st24" d="M1687.3 1321l1.2.7c.5.3 1.1.6 1.6.8l20.4-121.7c.4-2.5 2-4.8 4.2-6.1l179-103.3c-.7-.7-1.5-1.3-2.4-1.8L1712 1193.1c-2.2 1.3-3.8 3.5-4.2 6.1l-20.5 121.8z"/></g></g></g><path class="st17" d="M365.8 1191.6c47.7 19.6 49.8 133.4 60.3 147.9 16.6 22.8 84.1 109.3 92.3 123.2 8.2 13.9-22.9 36.3-32.8 26.4-7.8-7.9-74.4-74.8-101.3-101.8-7.2-7.2-11.4-16.9-11.8-27.1l-6.7-168.6z"/><path d="M188.7 2098.2s6.4-243.7 6.4-269.7c0-25.9-27.3-200-2.3-279.7l189.7 17.6s3.7 80.5 3.7 86.5c0 9.4-28.7 260.3-25.1 382.2l-74.3 7s-1.4-161.6 13.1-224.6c.7-37.9-2.2-123.2-2.2-123.2s-25 114.3-27.7 140.9c-2.7 26.6-19.2 267.7-19.2 267.7s-36.9-4.7-62.1-4.7z"/><path class="st20" d="M141.4 1369.1s-8.7-31.1 14.8-80.8c13.5-28.5 51.9-52.3 98-74.7 88-42.8 122.3-31.9 134 9.6 5.4 19.3 10.4 92.8 4.7 133.4-9.3 66.5-13.2 176.5-7.4 218.1 1.1 8.3-23.8 29-75.5 40.4-37.5 8.2-123 5.3-131.4-29.4l4.9-202-42.1-14.6z"/><path class="st7" d="M344.4 1235.8c0 17.8-22.6 32.2-50.5 32.2s-50.5-14.4-50.5-32.2c0-17.8 22.6-32.2 50.5-32.2 27.8 0 50.5 14.5 50.5 32.2z"/><path class="st15" d="M334.1 1226.2c0 14.1-18 25.6-40.2 25.6s-40.2-11.5-40.2-25.6c0-14.1 18-25.6 40.2-25.6s40.2 11.5 40.2 25.6z"/><path class="st15" d="M330.5 1237.2h-69c-.9 0-1.7-.7-1.7-1.7v-75.3h71.5v76.1c0 .6-.4.9-.8.9z"/><path class="st19" d="M267.6 1160.3c0 32.8 19.3 61.9 50.4 72.4 6.6 2.2 13.4-2.7 13.4-9.6v-62.9h-63.8z"/><path class="st15" d="M357.8 1129.1c-3.1 47.4-12.1 84.5-36.4 84.5-36.1 0-61.6-37.9-61.6-85.5 0-47.5 2.1-73.5 38.2-73.5s62.9 27.9 59.8 74.5z"/><path d="M259.8 1194.2s-.8-23.7 5.3-55c3.5-18 6.2-24.4 21.6-27.8 4.6-1 40.1 10.1 48.8 9.1 11.2-1.4 20-21.8 22.3-6.2 0 0 6.3-10.7-1.5-37.4-6.5-22.1-104.4-53.4-116.6 31.4-6.2 42.9 13.9 63.2 20.1 85.9z"/><path class="st15" d="M277.2 1148.3c0 11.6.5 23.2-8.6 23.2s-20.5-14.6-20.5-26.3 3.5-18.1 12.6-18.1c9.2.1 16.5 9.5 16.5 21.2z"/><path class="st26" d="M364.4 1568.2h-.9c-22.1-.6-25.8-27.9-4.1-32.2 9-1.8 18.2-2.8 25.6-6l11.5-17.6c2.5-3.8 15.5-16.4 19.2-13.8 3 2.1-6.2 16.5-7.5 20 0 0-9.8 16.4 2.4 10.5 10.5-5.1 37-49 35.5-16.4-1.6 36.4-51.4 55.8-81.7 55.5z"/><path class="st17" d="M140.4 1348.2s9 148.4 12.1 162.8c3 14.4 50.9 89.4 210.5 63.1 0 0 5.5-28.6 2.8-47.6-31.3-1.9-127.7-1.7-149.2-35-7.3-11.3-9.7-79.7-9.7-79.7 4.5-37.9-28.6-69.7-66.5-63.6zm147.1 690.4s.6 29 0 36.6c-.6 7.5 69.1 51 100.4 56.2 17.2 2.9 28-3.6 34.1-10.8 5.4-6.3 4.2-15.9-2.3-21.2-39.2-31.6-63.2-64.1-63.2-64.1l-69 3.3zm-94 58.4s-7.1 36.4-5.7 45.1c1.3 8.7 6.9 64.4 54.5 62.1 47.6-2.3 16.2-59.8 13.3-67.3-2.9-7.5-9.3-39.8-9.3-39.8h-52.8z"/><path class="st7" d="M418.8 1515.5l44-4.6 65.2-73.3-43.9 4.6z"/><path d="M418.8 1515.5l-10.6-11.7 65.2-73.3 10.7 11.7zm109.2-77.9l-10.6-11.7-44 4.6 10.7 11.7z" fill="#04194f"/><path class="st26" d="M514.4 1453c-5.9 6.6-13 7.9-25.2 9.4-12.8 1.6-25.3 1.5-27.4 7-2.4 6.3 10.3 6.2 10.3 6.2s19.9-.1 18.9 1.7-18.7 4.1-24.8 4.4c-11.1.5-15.7.2-16.2 5.4-.7 7.9 29.6 2.4 29 5.4-.5 3-24.3 5.6-26.3 6.9-2 1.3-.2 4 8.8 5.5 8.7 1.4 29.2.8 38.5-5.2 20.3-13 31.9-36 28-47l-3.9-10.9-9.7 11.2z"/><path class="st28" d="M1271.5 95.3L737 403.9l3-76.7 534.5-308.6z"/><path class="st29" d="M778.6 352.1l-5.1 2.9-8.5-7.8V360l-5.1 2.9v-20.8l5.1-2.9 8.5 8v-12.9l5.1-2.9v20.7zm13-23.3c.9 0 1.6.4 2 1.2v-3l5.1-2.9v16.4l-5.1 2.9v-3c-.4 1.2-1.1 2.4-2 3.5-.9 1.1-2 2-3.3 2.7-1.4.8-2.6 1.2-3.7 1.1-1.1-.1-1.9-.5-2.6-1.4-.6-.9-.9-2.2-.9-3.9 0-1.7.3-3.4.9-5 .6-1.6 1.5-3.1 2.6-4.4 1.1-1.3 2.3-2.3 3.7-3.1 1.3-.8 2.4-1.1 3.3-1.1zm-4.2 7.1c-.7 1.1-1 2.3-1 3.5 0 1.3.3 2 1 2.4.7.3 1.5.2 2.6-.5 1.1-.6 1.9-1.5 2.6-2.6s1-2.3 1-3.5c0-1.2-.3-2-1-2.3s-1.6-.2-2.6.4c-1.1.6-2 1.5-2.6 2.6zm41.1-27.3c1.2.6 1.8 2 1.8 4.2v9.5l-5.1 2.9v-8.9c0-1-.3-1.7-.8-1.9-.6-.3-1.3-.1-2.3.5-1 .6-1.8 1.4-2.4 2.3-.6 1-.9 2-.9 3.1v8.7l-5.1 2.9V323c0-1-.3-1.7-.8-1.9-.6-.3-1.3-.1-2.3.5-1 .6-1.8 1.4-2.4 2.3-.6 1-.9 2-.9 3.1v8.7l-5.1 2.9v-16.4l5.1-2.9v2.8c.4-1.2 1.1-2.3 2-3.3.9-1 2-1.9 3.2-2.6 1.3-.7 2.4-1.1 3.4-1.1s1.7.4 2.2 1.2c.6-1.4 1.4-2.6 2.4-3.8 1-1.2 2.1-2.1 3.3-2.8 2-1.4 3.6-1.7 4.7-1.1zm20.8-4.6l-11.5 6.6c.1 1.2.4 1.9 1 2.1.6.2 1.3.1 2.2-.5.8-.4 1.4-1 1.9-1.6.5-.7.8-1.3 1-2l5.4-3.1c-.2 1.3-.7 2.6-1.4 3.9-.7 1.3-1.7 2.6-2.8 3.8-1.1 1.2-2.4 2.2-3.8 3-1.6.9-3.1 1.4-4.3 1.5-1.3.1-2.2-.4-3-1.2-.7-.9-1.1-2.1-1.1-3.8 0-1.7.4-3.4 1.1-5.1.7-1.7 1.7-3.2 3-4.6 1.3-1.4 2.7-2.6 4.3-3.5 1.6-1 3.1-1.5 4.3-1.5 1.2-.1 2.2.3 2.9 1.1.7.8 1 2 1 3.6-.1.3-.1.7-.2 1.3zm-5.9-1.2c-.6-.2-1.4 0-2.2.5-.9.5-1.7 1.3-2.3 2.2-.6.9-1 1.9-1 3l6.5-3.7c-.1-1.1-.4-1.8-1-2z"/><path class="st28" d="M1271.5 201.4L737 510l3-76.8 534.5-308.6z"/><path class="st29" d="M768.1 449.6v4.3l7.1-4.1v3.8l-7.1 4.1v4.6l8-4.6v4l-13.1 7.6v-20.8l13.1-7.6v4l-8 4.7zm43.1-22.9c1.2.6 1.8 2 1.8 4.2v9.5l-5.1 2.9v-8.9c0-1-.3-1.7-.8-1.9-.6-.3-1.3-.1-2.3.5-1 .6-1.8 1.4-2.4 2.3-.6 1-.9 2-.9 3.1v8.7l-5.1 2.9v-8.9c0-1-.3-1.7-.8-1.9-.6-.3-1.3-.1-2.3.5-1 .6-1.8 1.4-2.4 2.3-.6.9-.9 2-.9 3.1v8.7l-5.1 2.9v-16.4l5.1-2.9v2.8c.4-1.2 1.1-2.3 2-3.3.9-1 2-1.9 3.2-2.6 1.3-.7 2.4-1.1 3.4-1.1s1.7.4 2.2 1.2c.6-1.3 1.4-2.6 2.4-3.8 1-1.2 2.1-2.1 3.3-2.8 2-1.3 3.6-1.6 4.7-1.1zm14.8-9.5c.9 0 1.6.4 2 1.2v-3l5.1-2.9v16.4l-5.1 2.9v-3c-.4 1.2-1.1 2.4-2 3.5-.9 1.1-2 2-3.3 2.7-1.4.8-2.6 1.2-3.7 1.1-1.1-.1-1.9-.5-2.6-1.4s-.9-2.2-.9-3.9c0-1.7.3-3.4.9-5 .6-1.6 1.5-3.1 2.6-4.4 1.1-1.3 2.3-2.3 3.7-3.1 1.3-.8 2.4-1.1 3.3-1.1zm-4.3 7.1c-.7 1.1-1 2.3-1 3.5 0 1.3.3 2 1 2.4.7.3 1.5.2 2.6-.5 1.1-.6 1.9-1.5 2.6-2.6.7-1.1 1-2.3 1-3.5 0-1.2-.3-2-1-2.3s-1.6-.2-2.6.4c-1.1.6-1.9 1.5-2.6 2.6zm15.2-20.6c.6-.8 1.3-1.5 2.2-2 .9-.5 1.6-.7 2.2-.5.6.2.8.6.8 1.4 0 .7-.3 1.5-.8 2.3-.6.8-1.3 1.5-2.2 2-.9.5-1.6.7-2.2.5-.6-.2-.8-.6-.8-1.4 0-.7.3-1.5.8-2.3zm4.7 3.8v16.4l-5.1 2.9v-16.4l5.1-2.9zm8.6-10.3v21.7l-5.1 2.9v-21.7l5.1-2.9z"/><path class="st28" d="M1281.8 448.8L737 764.3l.7-220.3 542.5-309z"/><path class="st29" d="M795.7 540.3v20.6l-5.1 2.9V551l-4.5 15.5-4.4 2.5-4.5-10.3v12.9l-5.1 2.9V554l6.2-3.6 5.7 11.1 5.6-17.6 6.1-3.6zm19.1 2.3l-11.5 6.6c.1 1.2.4 1.9 1 2.1.6.2 1.3.1 2.2-.5.8-.4 1.4-1 1.9-1.6.5-.7.8-1.3 1-2l5.4-3.1c-.2 1.3-.7 2.6-1.4 3.9-.7 1.3-1.7 2.6-2.8 3.8-1.1 1.2-2.4 2.2-3.8 3-1.6.9-3.1 1.4-4.3 1.5-1.3.1-2.2-.4-3-1.2-.7-.9-1.1-2.1-1.1-3.8 0-1.7.4-3.4 1.1-5.1.7-1.7 1.7-3.2 3-4.6 1.3-1.4 2.7-2.6 4.3-3.5 1.6-1 3.1-1.5 4.3-1.5 1.2-.1 2.2.3 2.9 1.1.7.8 1 2 1 3.6 0 .3-.1.8-.2 1.3zm-5.8-1.1c-.6-.2-1.4 0-2.2.5-.9.5-1.7 1.3-2.3 2.2-.6.9-1 1.9-1 3l6.5-3.7c-.1-1.2-.4-1.8-1-2zm19.7-14.7c1.3.3 2 1.2 2.4 2.7l-4.8 2.7c-.1-.6-.5-.9-.9-1-.5-.1-1.1.1-1.8.5-.6.3-1 .7-1.3 1.1-.3.4-.4.9-.4 1.3 0 .5.3.7.8.7.5-.1 1.4-.3 2.6-.7 1.3-.4 2.3-.7 3.1-.9.8-.2 1.5-.1 2.1.3s.9 1.1.9 2.2c0 .9-.3 1.9-.8 2.9s-1.3 2-2.2 3c-1 1-2.1 1.8-3.4 2.6-2.2 1.3-4 1.8-5.4 1.6-1.3-.2-2.2-1.1-2.5-2.8l4.9-2.8c.1.7.4 1 .9 1.1.5.1 1.2-.1 2-.6.6-.3 1-.7 1.3-1.2.3-.4.4-.9.4-1.3 0-.6-.3-.8-.8-.7-.5.1-1.4.3-2.7.8-1.2.5-2.2.8-3 .9-.8.2-1.5.1-2.1-.2-.6-.3-.9-1.1-.9-2.2 0-1.5.6-3 1.7-4.5 1.1-1.6 2.7-2.9 4.8-4.1 2.2-1.2 3.9-1.7 5.1-1.4zm16.5-9.5c1.3.3 2 1.2 2.4 2.7l-4.8 2.7c-.1-.6-.5-.9-.9-1-.5-.1-1.1.1-1.8.5-.6.3-1 .7-1.3 1.1-.3.4-.4.8-.4 1.3s.3.7.8.7c.5-.1 1.4-.3 2.6-.7 1.3-.4 2.3-.7 3.1-.9.8-.2 1.5-.1 2.1.3.6.3.9 1.1.9 2.2 0 .9-.3 1.9-.8 2.9s-1.3 2-2.2 3c-1 1-2.1 1.8-3.4 2.6-2.2 1.3-4 1.8-5.4 1.6-1.3-.2-2.2-1.1-2.5-2.8l4.9-2.8c.1.7.4 1 .9 1.1.5.1 1.2-.1 2-.6.6-.3 1-.7 1.3-1.2.3-.4.4-.9.4-1.3 0-.6-.3-.8-.8-.7-.5.1-1.4.3-2.7.8-1.2.5-2.2.8-3 .9-.8.2-1.5.1-2.1-.2-.6-.3-.9-1.1-.9-2.2 0-1.5.6-3 1.7-4.5 1.1-1.6 2.7-2.9 4.8-4.1 2.2-1.2 3.9-1.7 5.1-1.4zm15-9.3c.9 0 1.6.4 2 1.2v-3l5.1-2.9v16.4l-5.1 2.9v-3c-.4 1.2-1.1 2.4-2 3.5-.9 1.1-2 2-3.3 2.7-1.4.8-2.6 1.2-3.7 1.1-1.1-.1-1.9-.5-2.6-1.4-.6-.9-.9-2.2-.9-3.9 0-1.7.3-3.4.9-5 .6-1.6 1.5-3.1 2.6-4.4 1.1-1.3 2.3-2.3 3.7-3.1 1.3-.8 2.4-1.2 3.3-1.1zm-4.3 7c-.7 1.1-1 2.3-1 3.5 0 1.3.3 2 1 2.4.7.3 1.5.2 2.6-.5 1.1-.6 1.9-1.5 2.6-2.6.7-1.1 1-2.3 1-3.5 0-1.2-.3-2-1-2.3-.7-.3-1.6-.2-2.6.4-1 .7-1.9 1.5-2.6 2.6zm24.5-18.7c.9 0 1.6.4 2 1.2v-3l5.1-2.9v16.3c0 1.5-.3 3.1-.9 4.6-.6 1.6-1.5 3.1-2.7 4.5-1.2 1.4-2.8 2.7-4.6 3.7-2.5 1.4-4.5 2-6 1.7-1.5-.3-2.4-1.4-2.7-3.2l5-2.9c.2.6.5.9 1.1.9.6 0 1.3-.2 2.2-.7 1.1-.6 1.9-1.4 2.5-2.4.6-1 1-2.1 1-3.4v-2.9c-.4 1.2-1.1 2.4-2 3.5-.9 1.1-2 2-3.3 2.7-1.4.8-2.6 1.2-3.7 1.1-1.1-.1-1.9-.5-2.6-1.4-.6-.9-.9-2.2-.9-3.9 0-1.7.3-3.4.9-5 .6-1.6 1.5-3.1 2.6-4.4 1.1-1.3 2.3-2.3 3.7-3.1 1.3-.7 2.4-1 3.3-1zm-4.3 7.1c-.7 1.1-1 2.3-1 3.5s.3 2 1 2.4c.7.3 1.5.2 2.6-.5 1.1-.6 1.9-1.5 2.6-2.6.7-1.1 1-2.3 1-3.5 0-1.2-.3-2-1-2.3-.7-.3-1.6-.2-2.6.4-1.1.6-1.9 1.5-2.6 2.6zm30.5-13.7l-11.5 6.6c.1 1.2.4 1.9 1 2.1.6.2 1.3.1 2.2-.5.8-.4 1.4-1 1.9-1.6.5-.7.8-1.3 1-2l5.4-3.1c-.2 1.3-.7 2.6-1.4 3.9-.7 1.3-1.7 2.6-2.8 3.8-1.1 1.2-2.4 2.2-3.8 3-1.6.9-3.1 1.4-4.3 1.5-1.3.1-2.2-.4-3-1.2-.7-.9-1.1-2.1-1.1-3.8 0-1.7.4-3.4 1.1-5.1.7-1.7 1.7-3.2 3-4.6 1.3-1.4 2.7-2.6 4.3-3.5 1.6-1 3.1-1.5 4.3-1.5 1.2-.1 2.2.3 2.9 1.1.7.8 1 2 1 3.6-.1.2-.1.7-.2 1.3zm-5.9-1.2c-.6-.2-1.4 0-2.2.5-.9.5-1.7 1.3-2.3 2.2-.6.9-1 1.9-1 3l6.5-3.7c-.1-1.2-.4-1.8-1-2z"/><path class="st17" d="M1953.9 798.2c3.3 24.1-9.9 52.8-29.5 64.1-19.5 11.3-37.9.8-41.3-23.2-3.2-24 10-52.6 29.5-63.9 19.5-11.3 38.1-.9 41.3 23zm-31.6 48.6c12.7-7.3 21.2-25.7 19.2-41.4-2.2-15.4-14.1-22-26.8-14.9-12.5 7.4-21.1 25.7-18.9 41.3 2 15.7 14 22.2 26.5 15m-1402.8-530c3.3 24.1-9.9 52.8-29.5 64.1-19.5 11.3-37.9.8-41.3-23.2-3.2-24 10-52.6 29.5-63.9 19.5-11.3 38-.9 41.3 23zm-31.7 48.6C500.6 358 509 339.7 507 324c-2.2-15.4-14.1-22-26.8-14.9-12.5 7.4-21.1 25.7-18.9 41.3 2.1 15.7 14 22.2 26.5 15"/><path class="st12" d="M641.7 1989.3c-8.9 5.2-14.4 12.5-18.2 19.5-3.9 7-6.5 13.4-10.3 18.4-2.4 3.3-5.4 6.3-10 8.9-6.9 3.9-10.8 3.5-15.1 2.1-4.2-1.4-8.5-4.5-14.7-5-4.1-.3-9 .8-14.9 4.1-2.2 1.3-3.8 4.7-3.4 7.4.4 2.8 2.6 4.1 4.8 2.8 6.9-3.9 10.8-3.5 15.1-2.1 4.2 1.4 8.5 4.5 14.7 5 4 .3 8.8-.7 14.4-3.9 9.3-5.4 14.8-12.7 18.7-19.8 3.9-7 6.5-13.4 10.2-18.3 2.5-3.3 5.4-6.3 10-9 6.9-3.9 10.8-3.4 15.1-2.1 4.2 1.4 8.5 4.5 14.7 5.1 4 .3 8.8-.7 14.4-3.9 9.3-5.4 14.9-12.8 18.7-19.8 4-7 6.5-13.4 10.2-18.3 2.5-3.3 5.4-6.3 10-9 6.8-3.8 10.8-3.4 15-2 4.3 1.4 8.5 4.4 14.7 5 4 .3 8.8-.6 14.4-3.9 9.3-5.4 14.9-12.8 18.7-19.8 3.9-7 6.5-13.3 10.2-18.3 2.5-3.3 5.4-6.3 10-8.9 2.3-1.3 3.9-4.7 3.5-7.5-.4-2.7-2.6-3.9-4.9-2.6-8.9 5.1-14.4 12.5-18.2 19.5-3.9 7-6.5 13.4-10.3 18.4-2.4 3.3-5.3 6.2-10 8.9-6.9 3.9-10.8 3.4-15.1 2.1-4.2-1.4-8.5-4.5-14.7-5-4.1-.3-9 .8-14.8 4.1-8.9 5.2-14.4 12.5-18.2 19.5-3.9 7-6.5 13.4-10.3 18.4-2.4 3.3-5.3 6.2-10 8.9-6.9 3.9-10.8 3.5-15.1 2.1-4.2-1.4-8.5-4.5-14.7-5-3.8-.4-8.8.7-14.6 4zm1502.6-969.5c-8.9 5.1-14.4 12.5-18.2 19.5-3.9 7-6.5 13.4-10.3 18.4-2.4 3.3-5.4 6.3-10 8.9-6.9 3.9-10.8 3.5-15.1 2.1-4.2-1.4-8.5-4.5-14.7-5-4.1-.3-9 .8-14.9 4.1-2.2 1.3-3.8 4.7-3.4 7.4.4 2.8 2.6 4.1 4.8 2.8 6.9-3.9 10.8-3.5 15.1-2.1 4.2 1.4 8.5 4.5 14.7 5 4 .3 8.8-.7 14.4-3.9 9.3-5.4 14.8-12.7 18.7-19.8 3.9-7 6.5-13.4 10.2-18.3 2.5-3.3 5.4-6.3 10-9 6.9-3.9 10.8-3.4 15.1-2.1 4.2 1.4 8.5 4.5 14.7 5.1 4 .3 8.8-.7 14.4-3.9 9.3-5.4 14.9-12.8 18.7-19.8 4-7 6.5-13.4 10.2-18.3 2.5-3.3 5.4-6.3 10-9 6.8-3.8 10.8-3.4 15-2 4.3 1.4 8.5 4.4 14.7 5 4 .3 8.8-.6 14.4-3.9 9.3-5.4 14.9-12.8 18.7-19.8 3.9-7 6.5-13.3 10.2-18.3 2.5-3.3 5.4-6.3 10-8.9 2.3-1.3 3.9-4.7 3.5-7.5-.4-2.7-2.6-3.9-4.9-2.6-8.9 5.1-14.4 12.5-18.2 19.5-3.9 7-6.5 13.4-10.3 18.4-2.4 3.3-5.3 6.2-10 8.9-6.9 3.9-10.8 3.4-15.1 2.1-4.2-1.4-8.5-4.5-14.7-5-4.1-.3-9 .8-14.8 4.1-8.9 5.2-14.4 12.5-18.2 19.5-3.9 7-6.5 13.4-10.3 18.4-2.4 3.3-5.3 6.2-10 8.9-6.9 3.9-10.8 3.5-15.1 2.1-4.2-1.4-8.5-4.5-14.7-5-3.9-.4-8.8.7-14.6 4zm-835.4-502.5c-8.9 5.2-14.4 12.5-18.2 19.5-3.9 7-6.5 13.4-10.3 18.4-2.4 3.3-5.4 6.3-10 8.9-6.9 3.9-10.8 3.5-15.1 2.1-4.2-1.4-8.5-4.5-14.7-5-4.1-.3-9 .8-14.9 4.1-2.2 1.3-3.8 4.7-3.4 7.4.4 2.8 2.6 4.1 4.8 2.8 6.9-3.9 10.8-3.5 15.1-2.1 4.2 1.4 8.5 4.5 14.7 5 4 .3 8.8-.7 14.4-3.9 9.3-5.4 14.8-12.7 18.7-19.8 3.9-7 6.5-13.4 10.2-18.3 2.5-3.3 5.4-6.3 10-9 6.9-3.9 10.8-3.4 15.1-2.1 4.2 1.4 8.5 4.5 14.7 5.1 4 .3 8.8-.7 14.4-3.9 9.3-5.4 14.9-12.8 18.7-19.8 4-7 6.5-13.4 10.2-18.3 2.5-3.3 5.4-6.3 10-9 6.8-3.8 10.8-3.4 15-2 4.3 1.4 8.5 4.4 14.7 5 4 .3 8.8-.6 14.4-3.9 9.3-5.4 14.9-12.8 18.7-19.8 3.9-7 6.5-13.3 10.2-18.3 2.5-3.3 5.4-6.3 10-8.9 2.3-1.3 3.9-4.7 3.5-7.5-.4-2.7-2.6-3.9-4.9-2.6-8.9 5.1-14.4 12.5-18.2 19.5-3.9 7-6.5 13.4-10.3 18.4-2.4 3.3-5.3 6.2-10 8.9-6.9 3.9-10.8 3.4-15.1 2.1-4.2-1.4-8.5-4.5-14.7-5-4.1-.3-9 .8-14.8 4.1-8.9 5.2-14.4 12.5-18.2 19.5-3.9 7-6.5 13.4-10.3 18.4-2.4 3.3-5.3 6.2-10 8.9-6.9 3.9-10.8 3.5-15.1 2.1-4.2-1.4-8.5-4.5-14.7-5-3.9-.4-8.9.7-14.6 4z"/></g></switch></svg>