<svg xmlns="http://www.w3.org/2000/svg" width="31" height="31" fill="none"><path d="M24.313 0a6.675 6.675 0 00-4.724 1.955 6.712 6.712 0 00-1.965 4.73v7.412c-.69.047-1.394.076-2.124.076-.73 0-1.431.03-2.123.07V6.686a6.717 6.717 0 00-1.997-4.673 6.68 6.68 0 00-9.384 0A6.716 6.716 0 000 6.685V24.4a6.716 6.716 0 001.996 4.673 6.68 6.68 0 009.384 0 6.717 6.717 0 001.996-4.673v-7.412a31.327 31.327 0 012.124-.076c.73 0 1.431-.03 2.123-.07V24.4a6.717 6.717 0 001.997 4.673 6.68 6.68 0 009.384 0A6.717 6.717 0 0031 24.4V6.685a6.711 6.711 0 00-1.965-4.73A6.675 6.675 0 0024.313 0zM6.687 2.739a3.94 3.94 0 012.788 1.154 3.962 3.962 0 011.16 2.792v7.849a22.453 22.453 0 00-5.684 1.611c-.786.346-1.527.79-2.204 1.32V6.685a3.962 3.962 0 011.157-2.79A3.94 3.94 0 016.687 2.74zM10.635 24.4c0 1.05-.416 2.057-1.156 2.799a3.942 3.942 0 01-5.583 0A3.964 3.964 0 012.74 24.4v-1.777c0-1.57 1.24-3.057 3.319-3.982a19.421 19.421 0 014.576-1.342V24.4zm13.678 3.946a3.94 3.94 0 01-2.788-1.154 3.962 3.962 0 01-1.16-2.792v-7.849a22.453 22.453 0 005.684-1.611c.786-.346 1.527-.79 2.204-1.32V24.4a3.962 3.962 0 01-1.157 2.79 3.94 3.94 0 01-2.783 1.156zm.628-15.912a19.42 19.42 0 01-4.576 1.342V6.685c0-1.05.416-2.057 1.156-2.799a3.942 3.942 0 015.583 0 3.964 3.964 0 011.156 2.799v1.777c0 1.563-1.24 3.05-3.319 3.972z" fill="#fff"/></svg>