<svg xmlns="http://www.w3.org/2000/svg" width="59" height="59" fill="none"><path d="M18.046 24.79l11.459-11.453L40.968 24.8l6.664-6.668L29.505 0 11.377 18.127l6.669 6.664zM0 29.5l6.666-6.665 6.666 6.666-6.666 6.666L0 29.5zm18.046 4.709l11.459 11.459 11.464-11.464 6.668 6.66-.005.004L29.505 59 11.378 40.877l-.01-.009 6.678-6.659zm27.62-4.706l6.666-6.666 6.666 6.666-6.666 6.666-6.666-6.666z" fill="#fff"/><path d="M36.266 29.497l-6.761-6.766-5 5-.578.573-1.184 1.184-.01.009.01.014 6.762 6.757 6.761-6.766.005-.005h-.005z" fill="#fff"/></svg>