<svg xmlns="http://www.w3.org/2000/svg" width="42" height="26" fill="none"><path d="M14.384 0H30.19c-.01.207-.082.406-.208.572-.535.908-1.016 1.853-1.542 2.76-.744 1.304-1.44 2.632-2.195 3.93-.48.934-1.02 1.84-1.53 2.758H15.5c-.16 0-.32.008-.48.017-.134.35-.357.655-.536.984-.234.375-.424.776-.655 1.152-.245.506-.584.959-.83 1.463-.508.853-.983 1.72-1.48 2.583a98.067 98.067 0 00-1.523 2.684c-.21.322-.403.653-.58.994-1.039 1.79-2.045 3.595-3.085 5.383a2.2 2.2 0 01-.346.53c-1.779-.013-3.558 0-5.337 0-.22.003-.437.033-.649.09 0-.488.33-.878.551-1.287.268-.55.625-1.06.894-1.61 2.132-3.774 4.242-7.562 6.368-11.34.481-.82.894-1.658 1.379-2.462.604-1.059 1.168-2.142 1.798-3.188.2-.439.47-.84.691-1.267.784-1.38 1.554-2.769 2.335-4.15.092-.215.216-.416.368-.596z" fill="#fff"/><path d="M32.7 5.557c1.053-1.82 2.07-3.66 3.137-5.471h5.71c.083.004.165.017.246.038-.19.285-.35.587-.517.883-1.377 2.445-2.75 4.891-4.119 7.339-.575.996-1.11 2.015-1.693 3.007l-.058.02-.01.124A4732.7 4732.7 0 0027.368 25.8c-5.241.005-10.483.005-15.725 0 .298-.617.651-1.206.983-1.805 1.493-2.716 3.024-5.408 4.496-8.124 3.22-.005 6.44-.005 9.661 0 1.99-3.428 3.936-6.882 5.91-10.315h.006z" fill="#fff"/></svg>