<svg xmlns="http://www.w3.org/2000/svg" width="795" height="535" fill="none"><g opacity=".56" fill="#D8D6ED"><path opacity=".56" d="M322.741 300.886l96.576 55.754-2.268 1.307-98.817-57.061 82.757-48.098 2.267 1.307-80.515 46.791zm80.515-49.405l34.601-20.114-152.226-87.9 113.996-66.238 2.295 1.307-61.36 35.64-1.895-1.094-2.241 1.308 1.895 1.093-48.155 27.984 152.227 87.9-36.87 21.421-2.267-1.307z"/><path opacity=".56" d="M498.659 102.145l-91.427 53.14-68.91-39.802-1.894-1.093 2.241-1.308 1.894 1.094 66.669 38.495 89.159-51.833 2.268 1.307zM322.154 394.228l-1.147.666-49.648 28.865-80.276-46.364-77.153 44.843-2.268-1.307 79.395-46.151 80.302 46.338 47.38-27.531 1.147-.667 2.268 1.308z"/><path opacity=".56" d="M359.504 325.162l-77.127 44.816 134.832 77.843-127.549 74.108-2.294-1.308 125.308-72.8-91.667-52.927 1.147-.667-2.267-1.307-1.147.667-40.898-23.609 79.394-46.124 2.268 1.308zm5.735-53.781l-2.241 1.308-85.21-49.192-90.306 52.473-149.585-86.379 2.267-1.307 147.318 85.045 90.279-52.446 87.478 50.498zm250.857 38.041l-42.499 24.703 80.275 46.337-55.677 32.359 91.266 52.686-2.267 1.334-93.535-54.02 55.705-32.359-80.302-46.337 44.766-26.01 2.268 1.307z"/><path opacity=".56" d="M747.433 303.287l-70.351 40.895-130.297-75.228-58.692 34.12-84.837-48.979-2.268-1.307 1.894-1.52 2.642 1.52 82.542 47.671 58.719-34.119 130.27 75.201 68.11-39.561 2.268 1.307zm-628.488-64.691l-47.033 27.317 63.627 36.734-121.52 70.613-2.267-1.307 119.252-69.306-63.628-36.734 49.275-28.651 2.294 1.334z"/></g><path d="M292.727 518.994c4.642 2.694 4.669 7.043.054 9.737-4.616 2.694-12.139 2.694-16.808 0-4.668-2.694-4.695-7.043-.053-9.737 4.615-2.668 12.139-2.668 16.807 0z" fill="#D8D6ED"/><path d="M287.926 521.795c1.974 1.147 2.001 2.988.026 4.135-1.974 1.147-5.175 1.147-7.149 0-1.975-1.147-2.001-2.988-.027-4.135 1.947-1.147 5.149-1.147 7.15 0z" fill="#E7FFF9"/><path d="M134.632 297.765c4.642 2.694 4.668 7.042.053 9.737-4.615 2.694-12.139 2.694-16.807 0-4.669-2.695-4.696-7.043-.054-9.737 4.642-2.694 12.166-2.694 16.808 0z" fill="#D8D6ED"/><path d="M129.829 300.566c1.974 1.147 2.001 2.988.027 4.135-1.974 1.147-5.176 1.147-7.15 0-1.974-1.147-2.001-2.988-.027-4.135 1.975-1.147 5.176-1.147 7.15 0z" fill="#E7FFF9"/><path d="M21.249 369.792c4.642 2.694 4.669 7.042.053 9.737-4.615 2.694-12.138 2.694-16.807 0-4.669-2.695-4.696-7.043-.054-9.737 4.643-2.695 12.166-2.695 16.808 0z" fill="#D8D6ED"/><path d="M16.447 372.593c1.974 1.147 2.001 2.988.027 4.135-1.974 1.147-5.176 1.147-7.15 0-1.974-1.147-2-2.988-.027-4.135 1.975-1.147 5.176-1.147 7.15 0z" fill="#E7FFF9"/><path d="M508.128 95.022c4.642 2.695 4.668 7.043.053 9.737-4.615 2.695-12.139 2.695-16.807 0-4.669-2.694-4.696-7.042-.054-9.737 4.642-2.694 12.166-2.694 16.808 0z" fill="#D8D6ED"/><path d="M503.326 97.823c1.974 1.147 2.001 2.988.026 4.135-1.974 1.147-5.175 1.147-7.149 0-1.975-1.147-2.001-2.988-.027-4.135 1.974-1.147 5.175-1.147 7.15 0z" fill="#E7FFF9"/><path d="M426.76 353.786c4.642 2.694 4.668 7.043.053 9.737s-12.139 2.694-16.807 0c-4.669-2.694-4.696-7.043-.054-9.737 4.642-2.694 12.166-2.694 16.808 0z" fill="#D8D6ED"/><path d="M421.957 356.587c1.974 1.147 2.001 2.988.027 4.135-1.974 1.147-5.176 1.147-7.15 0-1.974-1.147-2.001-2.988-.027-4.135 1.974-1.147 5.176-1.147 7.15 0z" fill="#E7FFF9"/><path d="M199.354 432.161l72.591-48.391c13.846-9.23 31.667-9.897 46.18-1.787l131.898 73.921a44.23 44.23 0 0047.781-2.908l72.191-42.603" stroke="url(#paint0_linear_35_2)" stroke-miterlimit="10"/><path opacity=".5" d="M291.127 473.217l116.344-75.735-232.795-93.128-30.6 67.865 147.051 100.998z" fill="url(#paint1_linear_35_2)"/><path d="M274.853 426.239l-49.888 28.998c-3.602 2.08-9.444 2.08-13.046 0l-50.209-28.998c-1.814-1.04-2.721-2.427-2.721-3.815l-.08 1.574c0 1.387.907 2.748 2.721 3.815l50.209 28.998c3.628 2.08 9.471 2.08 13.046 0l49.888-28.998c1.788-1.04 2.668-2.401 2.695-3.761l.08-1.574c0 1.36-.907 2.721-2.695 3.761z" fill="url(#paint2_linear_35_2)"/><path d="M274.853 426.239l-49.888 28.998c-3.602 2.08-9.444 2.08-13.046 0l-50.209-28.998c-1.814-1.04-2.721-2.427-2.721-3.815l-.08 1.574c0 1.387.907 2.748 2.721 3.815l50.209 28.998c3.628 2.08 9.471 2.08 13.046 0l49.888-28.998c1.788-1.04 2.668-2.401 2.695-3.761l.08-1.574c0 1.36-.907 2.721-2.695 3.761z" fill="url(#paint3_linear_35_2)"/><path d="M274.827 418.69c3.628 2.08 3.628 5.468.053 7.549l-49.888 28.998c-3.602 2.08-9.444 2.08-13.046 0l-50.208-28.998c-3.629-2.081-3.629-5.468-.054-7.576l49.889-28.997c3.601-2.081 9.444-2.081 13.045 0l50.209 29.024z" fill="url(#paint4_linear_35_2)"/><path d="M313.83 339.46l-147.478-85.632c-1.708-.987-3.442-1.2-4.936-.694l-4.135 1.334c1.494-.48 3.228-.293 4.936.694l147.477 85.632c4.029 2.347 6.457 8.19 5.443 13.098l-23.984 115.323c-.587 2.801-2.161 4.669-4.188 5.335l4.135-1.333c2.001-.641 3.601-2.535 4.188-5.336l23.984-115.323c1.014-4.882-1.414-10.75-5.442-13.098z" fill="url(#paint5_linear_35_2)"/><path d="M309.695 340.794c4.028 2.347 6.456 8.19 5.442 13.098l-23.984 115.323c-1.014 4.882-5.095 6.963-9.124 4.615l-147.477-85.632c-4.029-2.321-6.457-8.189-5.443-13.071l23.984-115.323c1.014-4.882 5.095-6.963 9.124-4.642l147.478 85.632z" fill="#fff"/><path d="M306.947 341.541c3.895 2.267 6.243 7.949 5.282 12.671l-23.21 111.695c-.987 4.722-4.935 6.749-8.83 4.482l-142.863-82.938c-3.895-2.267-6.269-7.923-5.282-12.671l23.21-111.695c.987-4.722 4.936-6.749 8.831-4.482l142.862 82.938z" fill="url(#paint6_linear_35_2)"/><path d="M679.003 245.852l-114.424 72.4a23.62 23.62 0 01-24.944.187l-61.814-37.907" stroke="url(#paint7_linear_35_2)" stroke-width="3" stroke-miterlimit="10"/><path d="M554.415 352.078c-5.016 0-10.031-1.333-14.433-4.028l-82.009-47.698 4.028-6.909 82.089 47.751c6.403 3.922 14.54 3.868 20.783-.106l136.779-84.752 4.216 6.802-136.753 84.725c-4.429 2.802-9.551 4.215-14.7 4.215z" fill="url(#paint8_linear_35_2)"/><path opacity=".5" d="M790.384 245.479c5.229 3.014 5.256 7.896.054 10.937l-72.085 41.882c-5.202 3.015-13.633 3.015-18.862 0l-72.565-41.882c-5.229-3.014-5.255-7.923-.08-10.937l72.085-41.883c5.202-3.014 13.633-3.014 18.862 0l72.591 41.883z" fill="url(#paint9_linear_35_2)"/><path d="M790.438 220.056l-72.085 41.882c-5.202 3.015-13.632 3.015-18.861 0l-72.565-41.882c-2.642-1.521-3.949-3.521-3.949-5.495l-.133 10.43c0 2.001 1.307 3.975 3.948 5.495l72.565 41.883c5.229 3.014 13.659 3.014 18.862 0l72.085-41.883c2.587-1.493 3.868-3.467 3.868-5.415l.133-10.43c0 1.947-1.28 3.921-3.868 5.415z" fill="url(#paint10_linear_35_2)"/><path d="M790.438 220.056l-72.085 41.882c-5.202 3.015-13.632 3.015-18.861 0l-72.565-41.882c-2.642-1.521-3.949-3.521-3.949-5.495l-.133 10.43c0 2.001 1.307 3.975 3.948 5.495l72.565 41.883c5.229 3.014 13.659 3.014 18.862 0l72.085-41.883c2.587-1.493 3.868-3.467 3.868-5.415l.133-10.43c0 1.947-1.28 3.921-3.868 5.415z" fill="url(#paint11_linear_35_2)" stroke="#fff" stroke-width=".5" stroke-miterlimit="10"/><path d="M790.384 209.118c5.229 3.015 5.256 7.897.054 10.938l-72.085 41.882c-5.202 3.015-13.633 3.015-18.862 0l-72.565-41.882c-5.229-3.015-5.255-7.923-.08-10.938l72.085-41.882c5.202-3.015 13.633-3.015 18.862 0l72.591 41.882z" fill="url(#paint12_linear_35_2)"/><path d="M765.813 210.772c3.655 2.108 3.682 5.523.054 7.63l-50.422 29.291c-3.628 2.107-9.524 2.107-13.179 0l-50.742-29.291c-3.655-2.107-3.682-5.522-.054-7.63l50.396-29.291c3.628-2.107 9.524-2.107 13.205 0l50.742 29.291z" fill="url(#paint13_linear_35_2)"/><path d="M768.455 213.947V10.004H649.043V213.36c-.694 1.761.106 3.681 2.481 5.042l50.742 29.291c3.655 2.107 9.551 2.107 13.179 0l50.396-29.291c2.107-1.201 2.934-2.881 2.614-4.455z" fill="url(#paint14_linear_35_2)"/><path d="M707.495 44.684V248.04c-.16.373-.187.773-.214 1.147 2.882.293 5.923-.214 8.137-1.494l50.396-29.291c2.107-1.227 2.934-2.881 2.587-4.455V44.684h-60.906z" fill="url(#paint15_linear_35_2)"/><path d="M690.901 157.979v7.123l-6.856 3.974.027-7.149 6.829-3.948z" fill="url(#paint16_linear_35_2)"/><path d="M684.071 161.927l-.026 7.149-6.857-3.974v-7.123l6.883 3.948z" fill="url(#paint17_linear_35_2)"/><path d="M690.901 157.979l-6.83 3.948-6.883-3.948 6.83-3.975 6.883 3.975z" fill="url(#paint18_linear_35_2)"/><path d="M743.324 119.991v7.123l-6.856 3.975.027-7.123 6.829-3.975z" fill="url(#paint19_linear_35_2)"/><path d="M736.495 123.966l-.027 7.123-6.856-3.975v-7.123l6.883 3.975z" fill="url(#paint20_linear_35_2)"/><path d="M743.324 119.991l-6.829 3.975-6.883-3.975 6.829-3.974 6.883 3.974z" fill="url(#paint21_linear_35_2)"/><path d="M687.833 75.415v7.122l-6.856 3.975.026-7.123 6.83-3.974z" fill="url(#paint22_linear_35_2)"/><path d="M681.004 79.39l-.027 7.122-6.883-3.975.027-7.122 6.883 3.974z" fill="url(#paint23_linear_35_2)"/><path d="M687.833 75.415l-6.829 3.975-6.883-3.975 6.829-3.975 6.883 3.975z" fill="url(#paint24_linear_35_2)"/><path d="M750.261 197.3v7.123l-6.857 3.975.027-7.123 6.83-3.975z" fill="url(#paint25_linear_35_2)"/><path d="M743.431 201.275l-.027 7.123-6.856-3.975V197.3l6.883 3.975z" fill="url(#paint26_linear_35_2)"/><path d="M750.26 197.301l-6.829 3.974-6.883-3.974 6.829-3.975 6.883 3.975z" fill="url(#paint27_linear_35_2)"/><path opacity=".5" d="M230.46 170.49c5.229 3.015 5.256 7.896.053 10.938l-72.084 41.882c-5.203 3.014-13.633 3.014-18.862 0l-72.538-41.909c-5.23-3.015-5.256-7.923-.08-10.938l72.085-41.882c5.202-3.014 13.632-3.014 18.861 0l72.565 41.909z" fill="url(#paint28_linear_35_2)"/><path d="M220.189 330.097c.161.08.347.186.507.347l22.437 19.927c.72.64 1.12 1.707.987 2.614l-4.162 30.758c-.534 4.002-2.454 7.417-5.709 10.191-2.481 2.107-5.763 3.841-9.711 5.149-6.67 2.214-12.966 2.48-13.259 2.48-.24 0-.48-.053-.747-.186-.24-.107-.48-.294-.694-.507-.24-.267-5.682-6.296-10.991-14.352-3.122-4.775-5.576-9.284-7.203-13.419-2.135-5.388-2.962-10.163-2.428-14.165l4.162-30.758c.133-.934.747-1.494 1.547-1.387l24.704 3.174c.214-.026.374.027.56.134z" fill="#fff"/><path opacity=".42" d="M294.248 371.419c.48.267.747.96.64 1.521l-2.801 13.418c-.107.56-.587.8-1.067.533l-17.154-9.977c-.48-.266-.747-.96-.64-1.52l2.801-13.418c.106-.561.587-.801 1.067-.534l17.154 9.977zm-6.937 27.744c.481.266.747.96.641 1.52l-2.801 13.419c-.107.56-.587.8-1.068.533l-17.154-9.977c-.48-.267-.747-.96-.64-1.52l2.801-13.419c.107-.56.587-.8 1.067-.533l17.154 9.977zm-6.936 27.743c.48.267.747.961.64 1.521l-2.801 13.418c-.107.561-.587.801-1.067.534l-17.154-9.977c-.48-.267-.747-.961-.641-1.521l2.802-13.418c.106-.56.587-.8 1.067-.534l17.154 9.977z" fill="#fff"/><path opacity=".5" d="M478.676 421.731c1.094.64 1.094 1.654 0 2.294l-15.074 8.75c-1.093.64-2.854.64-3.948 0l-15.18-8.75c-1.094-.64-1.094-1.654-.027-2.294l15.074-8.75c1.093-.64 2.854-.64 3.948 0l15.207 8.75z" fill="url(#paint29_linear_35_2)"/><path d="M469.392 414.742l-.027 14.805-14.219 8.27.026-14.806 14.22-8.269z" fill="url(#paint30_linear_35_2)"/><path d="M455.172 423.011l-.027 14.806-14.299-8.27.026-14.805 14.3 8.269z" fill="url(#paint31_linear_35_2)"/><path d="M469.391 414.742l-14.219 8.269-14.3-8.269 14.22-8.243 14.299 8.243z" fill="url(#paint32_linear_35_2)"/><path opacity=".5" d="M468.35 509.177c1.761 1.014 1.761 2.668.027 3.682l-24.197 14.058c-1.734 1.014-4.589 1.014-6.323 0L413.5 512.859c-1.761-1.014-1.761-2.668-.027-3.682l24.197-14.058c1.734-1.014 4.589-1.014 6.323 0l24.357 14.058z" fill="url(#paint33_linear_35_2)"/><path d="M453.41 497.946l-.026 23.796L430.547 535l.027-23.795 22.836-13.259z" fill="url(#paint34_linear_35_2)"/><path d="M430.574 511.205L430.547 535l-22.97-13.258.054-23.796 22.943 13.259z" fill="url(#paint35_linear_35_2)"/><path d="M453.411 497.946l-22.837 13.258-22.943-13.258 22.81-13.258 22.97 13.258z" fill="url(#paint36_linear_35_2)"/><path opacity=".5" d="M102.565 301.419c.881.507.881 1.307 0 1.814l-12.031 6.99c-.854.506-2.268.506-3.149 0l-12.111-6.99c-.88-.507-.88-1.334 0-1.814l12.031-6.989c.854-.507 2.268-.507 3.148 0l12.112 6.989z" fill="url(#paint37_linear_35_2)"/><path d="M95.148 295.844v11.818l-11.365 6.589.027-11.818 11.338-6.589z" fill="url(#paint38_linear_35_2)"/><path d="M83.81 302.433l-.027 11.818-11.391-6.589v-11.818l11.418 6.589z" fill="url(#paint39_linear_35_2)"/><path d="M95.148 295.844l-11.338 6.589-11.418-6.589 11.338-6.589 11.418 6.589z" fill="url(#paint40_linear_35_2)"/><path opacity=".5" d="M781.9 353.439c.881.507.881 1.307 0 1.814l-12.031 6.989c-.854.507-2.268.507-3.149 0l-12.111-6.989c-.881-.507-.881-1.334 0-1.814l12.031-6.99c.854-.506 2.268-.506 3.149 0l12.111 6.99z" fill="url(#paint41_linear_35_2)"/><path d="M774.484 347.863v11.818l-11.365 6.589.027-11.818 11.338-6.589z" fill="url(#paint42_linear_35_2)"/><path d="M763.146 354.452l-.027 11.818-11.391-6.589v-11.818l11.418 6.589z" fill="url(#paint43_linear_35_2)"/><path d="M774.484 347.864l-11.338 6.589-11.418-6.589 11.338-6.59 11.418 6.59z" fill="url(#paint44_linear_35_2)"/><path opacity=".4" d="M306.279 116.977c5.229 3.014 5.255 7.896.053 10.937l-72.085 41.882c-5.202 3.015-13.632 3.015-18.861 0l-72.565-41.882c-5.229-3.014-5.256-7.923-.08-10.937l72.084-41.883c5.203-3.014 13.633-3.014 18.862 0l72.592 41.883z" fill="url(#paint45_linear_35_2)"/><path d="M302.865 102.118L230.78 144c-5.202 3.015-13.633 3.015-18.862 0l-72.565-41.882c-2.641-1.521-3.948-3.521-3.948-5.495l-.134 10.43c0 2.001 1.308 3.975 3.949 5.496l72.565 41.882c5.229 3.014 13.659 3.014 18.861 0l72.085-41.882c2.588-1.494 3.869-3.468 3.869-5.416l.133-10.43c0 1.974-1.281 3.921-3.868 5.415z" fill="url(#paint46_linear_35_2)"/><path d="M302.865 102.118L230.78 144c-5.202 3.015-13.633 3.015-18.862 0l-72.565-41.882c-2.641-1.521-3.948-3.521-3.948-5.495l-.134 10.43c0 2.001 1.308 3.975 3.949 5.496l72.565 41.882c5.229 3.014 13.659 3.014 18.861 0l72.085-41.882c2.588-1.494 3.869-3.468 3.869-5.416l.133-10.43c0 1.974-1.281 3.921-3.868 5.415z" fill="url(#paint47_linear_35_2)" stroke="#fff" stroke-width=".5" stroke-miterlimit="10"/><path d="M302.812 91.207c5.229 3.015 5.256 7.896.053 10.938l-72.084 41.882c-5.203 3.014-13.633 3.014-18.862 0l-72.565-41.882c-5.229-3.015-5.256-7.923-.08-10.938l72.085-41.882c5.202-3.015 13.632-3.015 18.861 0l72.592 41.882z" fill="url(#paint48_linear_35_2)"/><path d="M216.213 79.816l-.027 17.767-17.047 9.897.026-17.767 17.048-9.897z" fill="url(#paint49_linear_35_2)"/><path d="M199.166 89.713l-.027 17.767-17.154-9.897.027-17.767 17.154 9.897z" fill="url(#paint50_linear_35_2)"/><path d="M216.213 79.816l-17.047 9.897-17.154-9.897 17.047-9.923 17.154 9.923z" fill="url(#paint51_linear_35_2)"/><path d="M252.869 85.312v14.699l-14.086 8.163V93.502l14.086-8.19z" fill="url(#paint52_linear_35_2)"/><path d="M238.783 93.502v14.672l-14.193-8.163.027-14.699 14.166 8.19z" fill="url(#paint53_linear_35_2)"/><path d="M252.87 85.312l-14.087 8.19-14.166-8.19 14.086-8.19 14.167 8.19z" fill="url(#paint54_linear_35_2)"/><path d="M234.034 51.672V64.29l-12.112 7.043V58.715l12.112-7.043z" fill="url(#paint55_linear_35_2)"/><path d="M221.922 58.715v12.618L209.73 64.29V51.672l12.192 7.043z" fill="url(#paint56_linear_35_2)"/><path d="M234.034 51.672l-12.112 7.043-12.192-7.043 12.139-7.042 12.165 7.042z" fill="url(#paint57_linear_35_2)"/><path d="M245.933 29.424v9.55l-9.151 5.309v-9.55l9.151-5.31z" fill="url(#paint58_linear_35_2)"/><path d="M236.782 34.733v9.55l-9.204-5.309v-9.55l9.204 5.309z" fill="url(#paint59_linear_35_2)"/><path d="M245.933 29.424l-9.151 5.309-9.204-5.31 9.151-5.308 9.204 5.309z" fill="url(#paint60_linear_35_2)"/><path d="M215.227 22.995l-.026 8.51-8.164 4.748.027-8.51 8.163-4.748z" fill="url(#paint61_linear_35_2)"/><path d="M207.063 27.744l-.027 8.51-8.217-4.749.027-8.51 8.217 4.749z" fill="url(#paint62_linear_35_2)"/><path d="M215.226 22.995l-8.163 4.748-8.217-4.748 8.163-4.748 8.217 4.748z" fill="url(#paint63_linear_35_2)"/><path d="M125.32 190.258l73.499 41.188c15.127 8.484 33.801 7.336 47.781-2.907l66.242-48.579" stroke="url(#paint64_linear_35_2)" stroke-miterlimit="10"/><path d="M201.781 188.337l-72.085 41.883c-5.202 3.014-13.633 3.014-18.862 0l-72.565-41.883c-2.64-1.52-3.948-3.521-3.948-5.495l-.133 10.43c0 2.001 1.307 3.975 3.948 5.496L110.7 240.65c5.229 3.015 13.659 3.015 18.861 0l72.085-41.882c2.588-1.494 3.869-3.468 3.869-5.416l.133-10.43c0 1.974-1.281 3.921-3.868 5.415z" fill="url(#paint65_linear_35_2)"/><path d="M201.781 188.337l-72.085 41.883c-5.202 3.014-13.633 3.014-18.862 0l-72.565-41.883c-2.64-1.52-3.948-3.521-3.948-5.495l-.133 10.43c0 2.001 1.307 3.975 3.948 5.496L110.7 240.65c5.229 3.015 13.659 3.015 18.861 0l72.085-41.882c2.588-1.494 3.869-3.468 3.869-5.416l.133-10.43c0 1.974-1.281 3.921-3.868 5.415z" fill="url(#paint66_linear_35_2)" stroke="#fff" stroke-width=".5" stroke-miterlimit="10"/><path d="M201.728 177.426c5.229 3.015 5.256 7.897.053 10.938l-72.084 41.882c-5.203 3.015-13.633 3.015-18.862 0L38.27 188.364c-5.229-3.015-5.256-7.923-.08-10.938l72.085-41.882c5.202-3.014 13.632-3.014 18.861 0l72.592 41.882z" fill="url(#paint67_linear_35_2)"/><path opacity=".32" d="M119.078 208.131c26.418 0 47.835-11.943 47.835-26.677 0-14.733-21.417-26.676-47.835-26.676s-47.834 11.943-47.834 26.676c0 14.734 21.416 26.677 47.834 26.677z" fill="#94A3C0"/><path d="M143.649 145.841l-.026 5.496-24.838 14.432.027-5.469 24.837-14.459z" fill="#FF7C40"/><path d="M118.811 160.3l-.026 5.469-31.454-9.284v-5.468l31.48 9.283z" fill="#FF4237"/><path d="M143.649 145.841l-24.838 14.432-31.454-9.257c8.778-10.057 29.987-14.031 47.381-8.91 3.442 1.014 6.163 2.161 8.911 3.735z" fill="url(#paint68_linear_35_2)"/><path d="M161.897 171.451c-.4 7.122-5.843 12.538-11.552 16.112-6.242 3.895-13.606 6.003-20.835 7.016-7.177 1.014-14.487.907-21.637-.24-7.176-1.147-14.353-3.468-20.489-7.469-5.575-3.628-10.858-9.204-10.83-16.273v4.455c0 1.654-.054 3.335.266 4.962 1.174 5.842 5.762 10.351 10.565 13.498 6.002 3.922 13.019 6.216 20.035 7.39 7.096 1.2 14.353 1.307 21.476.373 7.23-.96 14.486-2.987 20.809-6.722 5.656-3.335 11.125-8.457 12.059-15.286.213-1.521.16-3.068.16-4.588v-3.975c0 .24-.027.507-.027.747z" fill="#265497"/><path d="M149.358 153.124c16.7 9.63 16.78 25.263.187 34.92-16.594 9.63-43.566 9.63-60.267 0-13.366-7.71-16.487-18.941-8.003-28.678l38.043 11.205 30.04-17.447z" fill="url(#paint69_linear_35_2)"/><path opacity=".5" d="M659.768 443.472l116.371-75.708-232.822-93.128-30.6 67.838 147.051 100.998z" fill="url(#paint70_linear_35_2)"/><path d="M643.521 396.521l-49.889 28.998c-3.601 2.081-9.444 2.081-13.046 0l-50.208-28.998c-1.814-1.04-2.721-2.427-2.721-3.814l-.08 1.573c0 1.388.907 2.748 2.721 3.815l50.208 28.998c3.629 2.081 9.471 2.081 13.046 0l49.888-28.998c1.788-1.04 2.668-2.401 2.668-3.761l.08-1.574c0 1.36-.88 2.721-2.667 3.761z" fill="url(#paint71_linear_35_2)"/><path d="M643.521 396.521l-49.889 28.998c-3.601 2.081-9.444 2.081-13.046 0l-50.208-28.998c-1.814-1.04-2.721-2.427-2.721-3.814l-.08 1.573c0 1.388.907 2.748 2.721 3.815l50.208 28.998c3.629 2.081 9.471 2.081 13.046 0l49.888-28.998c1.788-1.04 2.668-2.401 2.668-3.761l.08-1.574c0 1.36-.88 2.721-2.667 3.761z" fill="url(#paint72_linear_35_2)"/><path d="M643.467 388.945c3.628 2.081 3.628 5.469.054 7.55l-49.889 28.997c-3.601 2.081-9.444 2.081-13.046 0l-50.208-28.997c-3.628-2.081-3.628-5.469-.053-7.577l49.888-28.997c3.602-2.081 9.444-2.081 13.046 0l50.208 29.024z" fill="url(#paint73_linear_35_2)"/><path d="M682.498 309.742L535.02 224.11c-1.708-.987-3.442-1.2-4.936-.693l-4.135 1.333c1.494-.48 3.228-.293 4.936.694l147.477 85.632c4.029 2.348 6.457 8.19 5.443 13.098l-23.984 115.323c-.587 2.801-2.161 4.669-4.189 5.336l4.136-1.334c2-.64 3.601-2.534 4.188-5.335L687.94 322.84c1.014-4.908-1.414-10.777-5.442-13.098z" fill="url(#paint74_linear_35_2)"/><path d="M678.363 311.076c4.028 2.348 6.456 8.19 5.442 13.098l-23.984 115.323c-1.014 4.882-5.095 6.963-9.124 4.615L503.22 358.48c-4.029-2.32-6.457-8.189-5.443-13.071l23.984-115.323c1.014-4.882 5.096-6.963 9.124-4.642l147.478 85.632z" fill="#fff"/><path d="M675.588 311.823c3.895 2.267 6.243 7.95 5.283 12.671L657.66 436.189c-.987 4.722-4.935 6.75-8.83 4.482l-142.836-82.938c-3.895-2.267-6.269-7.923-5.282-12.671l23.21-111.695c.987-4.722 4.936-6.749 8.831-4.482l142.835 82.938z" fill="url(#paint75_linear_35_2)"/><path opacity=".42" d="M649.497 317.132c2.881 1.68 4.615 5.842 3.868 9.336l-17.101 82.218c-.72 3.494-3.628 4.962-6.509 3.281l-105.166-61.063c-2.855-1.654-4.616-5.842-3.895-9.337l17.1-82.217c.721-3.495 3.629-4.962 6.51-3.308l105.193 61.09z" fill="#fff"/><path opacity=".42" d="M662.062 316.011c1.308.747 2.081 2.641 1.761 4.215l-7.71 37.081c-.32 1.574-1.627 2.24-2.934 1.493l-47.435-27.53c-1.28-.747-2.08-2.641-1.76-4.215l7.71-37.08c.32-1.574 1.654-2.241 2.934-1.494l47.434 27.53zm-10.404 48.312c1.307.747 2.081 2.641 1.76 4.215l-7.71 37.08c-.32 1.574-1.627 2.241-2.934 1.494l-47.434-27.53c-1.281-.747-2.081-2.641-1.761-4.215l7.71-37.081c.32-1.574 1.654-2.241 2.935-1.494l47.434 27.531z" fill="#fff"/><path opacity=".42" d="M634.93 368.831c.534.293.854 1.067.721 1.707l-3.148 15.073c-.134.64-.667.907-1.201.613l-19.288-11.204c-.534-.294-.854-1.067-.721-1.707l3.148-15.073c.134-.64.667-.907 1.201-.613l19.288 11.204z" fill="#fff"/><path opacity=".79" d="M551.694 280.638c.534.293.854 1.067.72 1.707l-3.148 15.073c-.133.64-.667.907-1.2.613l-19.289-11.204c-.533-.293-.853-1.067-.72-1.707l3.148-15.073c.134-.64.667-.907 1.201-.613l19.288 11.204zm6.696 39.401c.534.294.854 1.067.721 1.708l-3.148 15.072c-.134.64-.667.907-1.201.614l-19.288-11.205c-.534-.293-.854-1.067-.721-1.707l3.148-15.072c.134-.64.667-.907 1.201-.614l19.288 11.204z" fill="#fff"/><path d="M493.935 188.551c52.61 30.358 52.877 79.603.614 109.988-52.263 30.384-137.287 30.358-189.87 0-52.609-30.385-52.903-79.604-.64-109.988 52.263-30.385 137.287-30.385 189.896 0z" fill="url(#paint76_linear_35_2)"/><path d="M509.996 228.805l-.027 10.884c-.053 19.768-13.046 39.535-39.03 54.607-52.263 30.385-137.287 30.358-189.87 0-26.492-15.285-39.697-35.346-39.644-55.38l.027-10.884c-.054 20.034 13.179 40.095 39.644 55.38 52.609 30.358 137.606 30.385 189.869 0 25.985-15.072 38.977-34.839 39.031-54.607z" fill="url(#paint77_linear_35_2)" stroke="#fff" stroke-width=".5" stroke-miterlimit="10"/><path d="M470.379 173.425c52.609 30.358 52.876 79.603.613 109.988-52.263 30.384-137.286 30.358-189.869 0-52.61-30.385-52.903-79.604-.641-109.988 52.263-30.358 137.287-30.358 189.897 0z" fill="url(#paint78_linear_35_2)"/><path d="M442.793 189.458c37.27 21.528 37.457 56.421.427 77.922-37.029 21.528-97.269 21.528-134.539 0-37.269-21.528-37.483-56.421-.453-77.922 37.029-21.528 97.269-21.528 134.565 0z" fill="url(#paint79_linear_35_2)"/><path d="M442.793 189.458c37.27 21.528 37.457 56.421.427 77.922-37.029 21.528-97.269 21.528-134.539 0-37.269-21.528-37.483-56.421-.453-77.922 37.029-21.528 97.269-21.528 134.565 0z" fill="url(#paint80_linear_35_2)"/><path d="M470.859 0H280.562v229.873h.081c.693 13.631 10.031 27.13 28.038 37.534 37.27 21.528 97.51 21.528 134.539 0 17.901-10.404 27.052-23.903 27.612-37.534h.054V0h-.027z" fill="url(#paint81_linear_35_2)"/><path d="M375.27 104.679c-10.325-5.949-19.662-6.509-26.438-2.587l-6.91 4.028c6.749-3.922 16.114-3.362 26.438 2.587 20.516 11.845 37.11 40.575 37.056 64.158-.026 11.711-4.162 19.954-10.831 23.822l6.91-4.028c6.669-3.868 10.804-12.111 10.831-23.823.053-23.582-16.541-52.312-37.056-64.157z" fill="url(#paint82_linear_35_2)"/><path d="M368.36 108.681c-20.516-11.845-37.217-2.321-37.27 21.261-.08 23.582 16.514 52.286 37.03 64.131 20.515 11.844 37.216 2.347 37.296-21.235.053-23.555-16.541-52.313-37.056-64.157z" fill="url(#paint83_linear_35_2)"/><path d="M368.093 128.288c-5.816-3.361-10.538-.667-10.564 6.029-.027 4.748 2.347 10.217 5.789 14.192l-3.548 21.208 7.043 4.081 2.267 1.307 7.043 4.082-3.414-25.263c3.468 0 5.869-2.721 5.869-7.443.053-6.669-4.669-14.832-10.485-18.193z" fill="url(#paint84_linear_35_2)"/><path d="M368.093 128.288c-1.574-.907-3.042-1.334-4.376-1.414-1.174 1.281-1.84 3.228-1.867 5.762-.027 4.749 2.348 10.217 5.789 14.192l-3.522 21.235 7.044 4.081 2.267 1.307 2.108 1.228-2.801-20.728c3.468 0 5.869-2.721 5.869-7.443.026-6.696-4.696-14.859-10.511-18.22z" fill="#265497"/><path d="M598.594 468.042l-39.377 22.888c-2.828 1.654-7.443 1.654-10.298 0l-39.644-22.888c-1.44-.827-2.161-1.921-2.161-3.015l-.08 5.709c0 1.094.721 2.188 2.161 3.015l39.644 22.888c2.855 1.654 7.47 1.654 10.298 0l39.377-22.888c1.414-.827 2.108-1.894 2.108-2.962l.08-5.708c0 1.067-.721 2.134-2.108 2.961z" fill="url(#paint85_linear_35_2)"/><path d="M598.594 468.042l-39.377 22.888c-2.828 1.654-7.443 1.654-10.298 0l-39.644-22.888c-1.44-.827-2.161-1.921-2.161-3.015l-.08 5.709c0 1.094.721 2.188 2.161 3.015l39.644 22.888c2.855 1.654 7.47 1.654 10.298 0l39.377-22.888c1.414-.827 2.108-1.894 2.108-2.962l.08-5.708c0 1.067-.721 2.134-2.108 2.961z" fill="url(#paint86_linear_35_2)" stroke="#fff" stroke-width=".5" stroke-miterlimit="10"/><path d="M598.541 462.066c2.855 1.654 2.881 4.322.027 5.976L559.19 490.93c-2.828 1.654-7.443 1.654-10.297 0l-39.644-22.888c-2.855-1.654-2.882-4.322-.027-5.976l39.377-22.889c2.828-1.653 7.443-1.653 10.298 0l39.644 22.889z" fill="url(#paint87_linear_35_2)"/><path d="M583.334 465.774l-25.184 14.619c-1.814 1.04-4.775 1.04-6.59 0l-25.344-14.619c-.907-.534-1.387-1.227-1.387-1.921l-.054 3.655c0 .693.454 1.387 1.388 1.92l25.344 14.619c1.814 1.041 4.776 1.041 6.59 0l25.184-14.619c.907-.533 1.361-1.2 1.361-1.894l.053-3.654c0 .667-.454 1.36-1.361 1.894z" fill="url(#paint88_linear_35_2)"/><path d="M583.334 465.774l-25.184 14.619c-1.814 1.04-4.775 1.04-6.59 0l-25.344-14.619c-.907-.534-1.387-1.227-1.387-1.921l-.054 3.655c0 .693.454 1.387 1.388 1.92l25.344 14.619c1.814 1.041 4.776 1.041 6.59 0l25.184-14.619c.907-.533 1.361-1.2 1.361-1.894l.053-3.654c0 .667-.454 1.36-1.361 1.894z" fill="#333379"/><path d="M583.308 461.959c1.814 1.041 1.84 2.775.026 3.815l-25.184 14.619c-1.814 1.04-4.776 1.04-6.59 0l-25.344-14.619c-1.814-1.067-1.841-2.774-.027-3.815l25.185-14.619c1.814-1.04 4.775-1.04 6.589 0l25.345 14.619z" fill="#374FA1"/><path d="M421.744 420.877l-28.919 16.807c-2.081 1.2-5.469 1.2-7.577 0l-29.106-16.807c-1.067-.613-1.574-1.414-1.574-2.214l-.053 4.188c0 .801.533 1.601 1.574 2.214l29.106 16.807c2.107 1.2 5.495 1.2 7.576 0l28.92-16.807c1.04-.613 1.547-1.387 1.547-2.187l.053-4.188c0 .8-.533 1.574-1.547 2.187z" fill="url(#paint89_linear_35_2)"/><path d="M421.744 420.877l-28.919 16.807c-2.081 1.2-5.469 1.2-7.577 0l-29.106-16.807c-1.067-.613-1.574-1.414-1.574-2.214l-.053 4.188c0 .801.533 1.601 1.574 2.214l29.106 16.807c2.107 1.2 5.495 1.2 7.576 0l28.92-16.807c1.04-.613 1.547-1.387 1.547-2.187l.053-4.188c0 .8-.533 1.574-1.547 2.187z" fill="url(#paint90_linear_35_2)" stroke="#fff" stroke-width=".5" stroke-miterlimit="10"/><path d="M421.718 416.503c2.108 1.2 2.108 3.174.027 4.374l-28.92 16.807c-2.081 1.2-5.469 1.2-7.576 0l-29.106-16.807c-2.108-1.2-2.108-3.174-.027-4.374l28.919-16.807c2.081-1.2 5.469-1.2 7.577 0l29.106 16.807z" fill="url(#paint91_linear_35_2)"/><path d="M410.539 419.197l-18.488 10.751c-1.334.773-3.495.773-4.829 0l-18.595-10.751c-.667-.4-1.013-.907-1.013-1.414l-.027 2.668c0 .507.347 1.014 1.014 1.414l18.594 10.75c1.334.774 3.495.774 4.829 0l18.488-10.75c.667-.374.987-.881.987-1.387l.027-2.668c0 .507-.32 1.014-.987 1.387z" fill="url(#paint92_linear_35_2)"/><path d="M410.539 419.197l-18.488 10.751c-1.334.773-3.495.773-4.829 0l-18.595-10.751c-.667-.4-1.013-.907-1.013-1.414l-.027 2.668c0 .507.347 1.014 1.014 1.414l18.594 10.75c1.334.774 3.495.774 4.829 0l18.488-10.75c.667-.374.987-.881.987-1.387l.027-2.668c0 .507-.32 1.014-.987 1.387z" fill="#333379"/><path d="M410.539 416.396c1.334.773 1.334 2.027.027 2.801l-18.488 10.751c-1.334.773-3.495.773-4.829 0l-18.595-10.751c-1.333-.774-1.36-2.028-.026-2.801l18.488-10.751c1.334-.773 3.495-.773 4.829 0l18.594 10.751z" fill="#374FA1"/><path d="M431.455 231.233v7.123l-6.83 3.974v-7.122l6.83-3.975z" fill="url(#paint93_linear_35_2)"/><path d="M424.625 235.208v7.122l-6.883-3.974v-7.123l6.883 3.975z" fill="url(#paint94_linear_35_2)"/><path d="M431.455 231.233l-6.83 3.975-6.883-3.975 6.83-3.975 6.883 3.975z" fill="url(#paint95_linear_35_2)"/><path d="M426.786 211.893v7.122l-6.83 3.975v-7.123l6.83-3.974z" fill="url(#paint96_linear_35_2)"/><path d="M419.956 215.867v7.123l-6.883-3.975v-7.122l6.883 3.974z" fill="url(#paint97_linear_35_2)"/><path d="M426.786 211.893l-6.83 3.975-6.883-3.975 6.83-3.975 6.883 3.975z" fill="url(#paint98_linear_35_2)"/><path d="M444.794 203.223v7.122l-6.83 3.975v-7.123l6.83-3.974z" fill="url(#paint99_linear_35_2)"/><path d="M437.964 207.197v7.123l-6.883-3.975v-7.122l6.883 3.974z" fill="url(#paint100_linear_35_2)"/><path d="M444.794 203.223l-6.83 3.975-6.883-3.975 6.83-3.975 6.883 3.975z" fill="url(#paint101_linear_35_2)"/><path d="M333.412 225.898v7.123l-6.83 3.974v-7.122l6.83-3.975z" fill="url(#paint102_linear_35_2)"/><path d="M326.582 229.873v7.122l-6.883-3.974v-7.123l6.883 3.975z" fill="url(#paint103_linear_35_2)"/><path d="M333.412 225.898l-6.83 3.975-6.883-3.975 6.83-3.975 6.883 3.975z" fill="url(#paint104_linear_35_2)"/><path d="M318.739 211.893v7.122l-6.83 3.975v-7.123l6.83-3.974z" fill="url(#paint105_linear_35_2)"/><path d="M311.909 215.867v7.123l-6.883-3.975v-7.122l6.883 3.974z" fill="url(#paint106_linear_35_2)"/><path d="M318.739 211.893l-6.83 3.975-6.883-3.975 6.83-3.975 6.883 3.975z" fill="url(#paint107_linear_35_2)"/><path d="M336.747 203.223v7.122l-6.83 3.975v-7.123l6.83-3.974z" fill="url(#paint108_linear_35_2)"/><path d="M329.917 207.197v7.123l-6.883-3.975v-7.122l6.883 3.974z" fill="url(#paint109_linear_35_2)"/><path d="M336.747 203.223l-6.83 3.975-6.883-3.975 6.83-3.975 6.883 3.975z" fill="url(#paint110_linear_35_2)"/><path d="M432.789 123.859v7.123l-6.83 3.975v-7.123l6.83-3.975z" fill="url(#paint111_linear_35_2)"/><path d="M425.959 127.834v7.123l-6.883-3.975v-7.123l6.883 3.975z" fill="url(#paint112_linear_35_2)"/><path d="M432.789 123.86l-6.83 3.974-6.883-3.974 6.83-3.975 6.883 3.975z" fill="url(#paint113_linear_35_2)"/><path d="M418.115 109.854v7.123l-6.83 3.975v-7.123l6.83-3.975z" fill="url(#paint114_linear_35_2)"/><path d="M411.285 113.829v7.123l-6.883-3.975v-7.123l6.883 3.975z" fill="url(#paint115_linear_35_2)"/><path d="M418.115 109.855l-6.83 3.975-6.883-3.975 6.83-3.975 6.883 3.975z" fill="url(#paint116_linear_35_2)"/><path d="M404.776 90.514v7.122l-6.83 3.975v-7.123l6.83-3.974z" fill="url(#paint117_linear_35_2)"/><path d="M397.946 94.489v7.122l-6.883-3.975v-7.122l6.883 3.975z" fill="url(#paint118_linear_35_2)"/><path d="M404.776 90.514l-6.83 3.975-6.883-3.975 6.83-3.975 6.883 3.975z" fill="url(#paint119_linear_35_2)"/><path d="M231.294 364.027c0-.032 0-.065-.005-.103 0-.032-.006-.064-.006-.102-.005-.032-.005-.07-.01-.103l-.017-.102v-.005a3.33 3.33 0 00-.016-.098c-.005-.037-.016-.07-.021-.107-.006-.038-.016-.071-.027-.108-.011-.038-.016-.076-.027-.108a.535.535 0 00-.027-.086v-.006c0-.005-.006-.011-.006-.016-.01-.038-.021-.07-.032-.108a.927.927 0 00-.038-.108c-.011-.032-.027-.07-.037-.102-.011-.033-.027-.065-.044-.103-.01-.027-.021-.048-.032-.075v-.006c0-.005-.005-.01-.005-.016a.55.55 0 01-.044-.102c-.016-.038-.032-.076-.053-.108-.022-.043-.044-.081-.065-.124a1.752 1.752 0 00-.087-.151c-.005-.011-.01-.017-.016-.027a6.793 6.793 0 00-.151-.243c-.043-.065-.086-.124-.129-.189-.033-.043-.06-.081-.092-.118l-.081-.098a1.488 1.488 0 00-.081-.091c-.027-.033-.054-.06-.081-.092l-.016-.016-.005-.006-.065-.064-.086-.087c-.033-.027-.06-.059-.092-.086-.032-.027-.059-.054-.092-.081-.016-.011-.032-.027-.048-.038l-.011-.01a.094.094 0 00-.038-.027c-.032-.022-.059-.049-.091-.07-.033-.022-.06-.044-.092-.065-.027-.022-.059-.038-.086-.059l-.087-.054c-.005-.006-.016-.006-.021-.011l-21.026-12.137c-.022-.01-.043-.027-.065-.037a.583.583 0 00-.086-.044.391.391 0 00-.086-.037c-.033-.011-.054-.027-.081-.038-.027-.011-.054-.022-.086-.032-.006 0-.011-.006-.017-.006h-.005c-.022-.005-.043-.016-.059-.021-.027-.011-.06-.017-.087-.022-.027-.005-.059-.016-.086-.022l-.092-.016c-.021-.005-.043-.005-.059-.005h-.032c-.033 0-.065-.006-.097-.006-.038 0-.071 0-.108.006l-.119.016h-.005a1.473 1.473 0 00-.141.038c-.059.021-.113.048-.167.075l-5.674 3.296a.932.932 0 01.307-.113h.006c.107-.022.226-.027.35-.016h.011c.124.01.248.037.383.086h.005c.135.048.275.108.421.194l21.026 12.136c.14.081.28.178.41.286l.01.011c.13.108.259.227.378.356l.005.006a4.8 4.8 0 01.658.9c.092.157.173.319.243.48 0 0 0 .006.006.006.075.167.134.34.188.507v.005a3.52 3.52 0 01.162 1.014l-.048 16.387c0 .162-.017.308-.044.448v.011a1.455 1.455 0 01-.118.366v.006a1.22 1.22 0 01-.157.243c-.021.021-.037.048-.059.07a.921.921 0 01-.227.188l5.675-3.295a.963.963 0 00.226-.189c.022-.022.038-.049.06-.07.027-.033.054-.059.075-.092.027-.043.054-.092.076-.14 0 0 0-.006.005-.006v-.005a.74.74 0 00.043-.102c.011-.038.027-.071.038-.108a.588.588 0 00.027-.108c.006-.016.006-.033.011-.043v-.011c.005-.016.005-.027.011-.043l.016-.097c.005-.033.005-.065.011-.097 0-.033.005-.065.005-.098v-.107l.049-16.387c-.006-.043-.006-.076-.006-.108z" fill="url(#paint120_linear_35_2)"/><path d="M223.554 363.838c1.143.664 2.071 2.26 2.066 3.576l-.049 16.387c-.005 1.316-.933 1.845-2.077 1.187l-21.025-12.136c-1.149-.664-2.072-2.266-2.072-3.582l.049-16.387c.005-1.316.933-1.845 2.082-1.181l21.026 12.136z" fill="url(#paint121_linear_35_2)"/><path d="M212.614 361.756c1.538.89 2.784 3.042 2.778 4.806-.005.982-.393 1.624-1.003 1.861l-.016 5.022c-.006 1.133-.809 1.591-1.796 1.019-.987-.571-1.786-1.952-1.786-3.09l.016-5.022c-.604-.933-.992-2.028-.987-3.01.006-1.758 1.263-2.47 2.794-1.586z" fill="url(#paint122_radial_35_2)"/><path d="M211.299 343.001l.016-.07c.038-.167.076-.334.124-.485a3.433 3.433 0 01.194-.507c.006-.011.011-.027.017-.043.07-.151.151-.297.237-.427.011-.021.027-.037.038-.053a2.52 2.52 0 01.318-.394c.07-.076.146-.146.221-.216l.097-.081c.108-.086.221-.167.34-.237l-2.438 1.418a2.96 2.96 0 00-.34.238l-.097.081c-.076.064-.151.14-.221.215-.033.033-.059.065-.092.097a3.138 3.138 0 00-.226.297l-.038.054c-.006.005-.006.011-.011.011a2.935 2.935 0 00-.221.404c0 .006-.005.011-.005.011l-.017.043a4.147 4.147 0 00-.118.281l-.049.146a.535.535 0 00-.027.086c-.011.027-.016.054-.027.081a4.441 4.441 0 00-.075.302c-.006.038-.017.07-.022.108l-.016.07c-.005.038-.016.07-.022.108a4.57 4.57 0 00-.043.28l-.016.157c0 .016-.005.037-.005.054 0 .021-.006.043-.006.07l-.016.275c-.005.091-.005.189-.005.286v.016l-.022 6.926c0 .124-.011.237-.032.339v.011a1.173 1.173 0 01-.092.281v.005a.896.896 0 01-.119.184c-.016.016-.027.037-.043.053a.734.734 0 01-.172.141l2.438-1.419a.88.88 0 00.172-.14c.016-.016.027-.038.043-.054.017-.022.038-.043.06-.07a.745.745 0 00.059-.108v-.011l.032-.081a.428.428 0 00.027-.081c.006-.027.017-.054.022-.081 0-.01.005-.021.005-.032v-.011c0-.011.006-.021.006-.032.005-.027.011-.049.011-.076.005-.027.005-.048.005-.075 0-.027.005-.049.005-.076v-.081l.022-6.925c0-.222.011-.437.032-.642 0-.022.006-.038.006-.054.027-.211.054-.389.086-.567z" fill="url(#paint123_linear_35_2)"/><path d="M226.111 352.468a10.562 10.562 0 00-.022-.437l-.016-.205c0-.027-.005-.059-.005-.086-.006-.049-.006-.103-.011-.151l-.049-.443-.064-.453c0-.005 0-.011-.006-.016 0-.005 0-.016-.005-.022-.022-.14-.049-.28-.07-.42a7.128 7.128 0 00-.097-.47c-.011-.059-.027-.113-.038-.172-.005-.033-.016-.065-.022-.097l-.048-.2c-.038-.162-.081-.318-.124-.48-.033-.119-.07-.237-.103-.356a1.538 1.538 0 00-.016-.065l-.016-.059c-.049-.156-.097-.313-.151-.469l-.162-.464-.032-.092c-.011-.021-.016-.048-.027-.07a5.975 5.975 0 00-.108-.28c-.059-.146-.119-.292-.178-.443-.043-.108-.092-.216-.14-.323-.006-.017-.017-.038-.022-.054-.011-.022-.016-.038-.027-.06-.065-.145-.129-.291-.199-.437a23.298 23.298 0 00-.232-.48c-.011-.027-.027-.048-.038-.075a1.283 1.283 0 00-.049-.092c-.064-.124-.129-.253-.194-.377a18.517 18.517 0 00-.264-.47 4.757 4.757 0 00-.135-.237c-.016-.032-.032-.065-.054-.092-.081-.135-.167-.264-.248-.394-.119-.194-.237-.393-.367-.582-.021-.032-.038-.065-.059-.092a28.69 28.69 0 00-.561-.798c-.006-.005-.011-.016-.016-.022-.13-.178-.265-.356-.405-.528a8.911 8.911 0 00-.329-.405c-.005-.005-.005-.011-.011-.016 0-.005-.005-.005-.005-.011-.113-.14-.232-.275-.351-.41a12.89 12.89 0 00-.35-.388c-.017-.022-.038-.038-.054-.059-.022-.022-.038-.044-.06-.065a10.736 10.736 0 00-.253-.264c-.124-.13-.254-.254-.383-.378-.038-.038-.076-.07-.113-.108-.033-.027-.06-.054-.092-.081l-.194-.178c-.135-.118-.265-.237-.399-.35l-.173-.141-.092-.075c-.043-.038-.091-.076-.135-.113-.129-.103-.264-.205-.393-.303l-.286-.204-.054-.038c-.016-.011-.033-.027-.054-.038-.13-.086-.254-.173-.383-.254a9.716 9.716 0 00-.383-.231c-.027-.017-.059-.033-.086-.054l-.286-.162c-.038-.022-.076-.038-.108-.06-.049-.027-.097-.048-.146-.075-.037-.022-.075-.038-.113-.059-.059-.033-.124-.06-.183-.087-.044-.021-.087-.043-.13-.059-.016-.005-.032-.016-.054-.027-.118-.054-.243-.102-.361-.151-.006 0-.011-.005-.016-.005a4.424 4.424 0 00-.346-.13l-.048-.016c-.043-.016-.086-.027-.135-.043a2.483 2.483 0 00-.178-.06c-.032-.01-.059-.016-.092-.027-.054-.016-.108-.032-.161-.043l-.119-.032c-.043-.011-.086-.022-.13-.027-.054-.011-.107-.027-.161-.038l-.081-.016c-.049-.011-.103-.016-.151-.027l-.184-.032c-.021-.006-.043-.006-.064-.011l-.152-.016c-.064-.006-.129-.016-.194-.022-.016 0-.037-.005-.054-.005-.043-.006-.086 0-.129-.006-.076-.005-.157-.005-.232-.005h-.065c-.032 0-.064.005-.097.005-.097 0-.194.006-.286.017-.027 0-.059 0-.086.005a.246.246 0 00-.065.011c-.14.016-.28.032-.42.059-.011 0-.027.005-.038.005h-.006c-.199.038-.388.098-.577.157-.016.005-.032.011-.054.016-.016.005-.027.011-.038.016l-.242.097-.113.049a4.81 4.81 0 00-.34.178l-2.438 1.419a3.108 3.108 0 01.453-.227c.081-.032.156-.07.237-.097.032-.011.059-.022.092-.032.189-.065.377-.119.577-.157.016-.005.032-.005.048-.005.141-.027.281-.049.421-.06.049-.005.097-.01.146-.01l.286-.017c.054 0 .108-.005.162 0 .075 0 .151.006.231.006.065.005.125.005.189.011.065.005.13.01.194.021.071.006.146.016.216.027l.184.032c.075.011.156.027.232.044.053.01.107.021.161.037.081.022.168.038.248.06.054.016.108.027.162.043.092.027.184.054.275.086.044.016.087.027.13.043.129.043.264.092.394.146.005 0 .01.005.016.005a9.414 9.414 0 01.545.238l.296.145c.049.027.097.049.146.076.129.07.264.14.394.216.307.178.604.366.906.577l.054.038c.275.194.55.399.82.614l.091.076c.259.216.518.437.772.674.027.027.059.054.086.081.253.243.507.491.755.75.022.021.038.043.059.065.259.28.518.566.766.868.006.005.006.011.011.016.254.302.496.621.734.939.005.011.011.016.016.027.21.291.415.588.615.884.124.189.248.389.367.583.102.162.205.324.302.485.043.076.086.157.135.238.156.28.312.561.458.841l.049.092c.172.345.339.696.496 1.052.005.016.016.032.021.054.151.345.292.695.421 1.046.011.022.016.049.027.07.13.356.254.718.361 1.079.006.022.011.043.017.059.102.345.194.696.28 1.041.006.033.016.065.022.097a18.988 18.988 0 01.215 1.085c.06.356.098.712.13 1.062 0 .027.005.06.005.086.027.351.043.702.043 1.047l-.021 6.926a1.7 1.7 0 01-.032.34v.01a1.158 1.158 0 01-.092.281v.005a.94.94 0 01-.119.184c-.016.016-.027.037-.043.054a.714.714 0 01-.173.14l2.438-1.419a.856.856 0 00.173-.14c.016-.016.027-.038.043-.054.016-.022.038-.043.06-.07a.696.696 0 00.059-.108v-.011l.032-.081a.428.428 0 00.027-.081c.006-.027.016-.054.022-.08 0-.011.005-.022.005-.033v-.011c0-.01.006-.021.006-.032.005-.027.01-.049.01-.076.006-.026.006-.048.006-.075 0-.027.005-.049.005-.076v-.08l.022-6.926c-.006-.141-.006-.275-.011-.41z" fill="url(#paint124_linear_35_2)"/><path d="M214.654 338.665c4.989 2.88 9.035 9.887 9.019 15.626l-.022 6.926c-.005 1.003-.712 1.408-1.586.906-.879-.507-1.58-1.726-1.58-2.729l.021-6.926c.011-3.727-2.621-8.285-5.863-10.157-3.247-1.871-5.896-.367-5.906 3.366l-.022 6.926c-.005 1.003-.712 1.408-1.586.906-.879-.507-1.58-1.726-1.58-2.729l.021-6.926c.022-5.75 4.094-8.069 9.084-5.189z" fill="url(#paint125_linear_35_2)"/><path d="M214.379 364.653a.89.89 0 01.156-.033h.016a.458.458 0 01.151.011h.011a.375.375 0 01.135.054l-2.201-1.278s-.005 0-.005-.006a.161.161 0 00-.049-.021l-.048-.017c-.011-.005-.022-.005-.032-.005h-.006c-.005 0-.011 0-.011-.005-.016-.006-.037-.006-.059-.006h-.102c-.011 0-.027 0-.038.006l-.087.016c-.01.005-.021.011-.037.011-.011.005-.022.005-.033.01l-.043.017c-.043.016-.086.043-.135.064l-25.324 14.623 2.2 1.279 25.325-14.623a.826.826 0 01.178-.081l.038-.016z" fill="url(#paint126_linear_35_2)"/><path d="M185.343 385.759c-.006-2.033-.728-3.468-1.888-4.148l-2.201-1.278c1.16.674 1.883 2.109 1.888 4.148 0 .237-.011.475-.027.712-.005.075-.016.151-.022.227-.016.151-.032.307-.053.463a15.257 15.257 0 01-.157.869l-.081.329a15.55 15.55 0 01-.124.458c-.027.092-.054.178-.081.265-.054.172-.113.345-.172.517-.027.071-.049.146-.076.216-.092.238-.183.475-.286.712-.011.027-.027.054-.038.081-.091.21-.194.421-.296.626l-.097.194c-.103.194-.205.388-.313.577l-.065.113c-.129.227-.264.448-.41.664l-.124.189c-.102.156-.21.313-.318.464l-.178.242c-.097.13-.194.248-.291.372-.081.103-.168.205-.254.308-.081.097-.167.189-.248.28-.14.157-.286.308-.432.459l-.275.275c-.07.07-.145.135-.215.205-.119.108-.243.216-.367.318-.076.06-.146.124-.221.184-.135.107-.27.205-.405.307a9.496 9.496 0 01-.809.529c-.2.113-.399.215-.593.307-.049.022-.103.049-.151.07a5.435 5.435 0 01-.556.221c-.011.006-.027.006-.038.011-.156.054-.313.092-.469.13-.086.021-.178.037-.264.054-.119.021-.232.037-.345.054-.065.005-.13.016-.195.021-.14.011-.28.011-.42.005h-.092a4.431 4.431 0 01-.48-.059.743.743 0 01-.113-.027c-.124-.027-.238-.065-.356-.102-.038-.011-.076-.027-.108-.038a3.607 3.607 0 01-.426-.2l2.2 1.279c.011.005.022.016.038.021.103.06.216.114.324.162.021.011.043.016.064.022a.812.812 0 00.108.037c.06.022.114.044.173.06.059.016.124.027.183.043a.785.785 0 00.114.027l.064.016c.13.022.259.038.394.043h.113c.103.006.211.006.313 0a.6.6 0 00.103-.011c.064-.005.129-.01.194-.021l.183-.016c.054-.006.108-.022.162-.033.086-.016.173-.032.264-.054.049-.01.097-.016.146-.032.108-.027.216-.065.324-.097.01-.005.027-.005.037-.011.13-.043.265-.097.4-.151.054-.021.107-.048.156-.07.049-.022.102-.043.151-.07.194-.092.394-.194.593-.308.205-.118.41-.253.615-.388.065-.043.13-.097.194-.14a9.857 9.857 0 00.626-.491c.124-.103.243-.21.367-.318.075-.065.146-.135.216-.205.043-.043.091-.081.135-.124.048-.049.091-.103.14-.151.145-.151.291-.302.431-.459.043-.048.092-.097.135-.145l.113-.135c.087-.103.168-.205.254-.308.054-.064.108-.129.162-.199l.129-.178.178-.243c.038-.054.081-.108.119-.162.07-.097.135-.199.199-.297.044-.064.087-.124.125-.188l.048-.076c.113-.178.227-.361.335-.55l.021-.038c.022-.038.043-.081.065-.118.075-.13.145-.259.216-.389.032-.059.064-.124.097-.189l.097-.194.086-.167c.076-.151.14-.302.21-.459.011-.026.027-.053.038-.08.006-.006.006-.017.011-.022.081-.194.162-.388.237-.583.016-.032.027-.07.038-.107.027-.071.049-.141.076-.216.032-.097.07-.194.102-.291.027-.076.043-.151.07-.227l.081-.27c.016-.054.038-.113.049-.167.027-.097.048-.194.07-.291.027-.113.059-.221.081-.335.01-.037.021-.075.027-.118.016-.081.027-.157.043-.238.032-.172.065-.345.086-.512.005-.049.016-.097.027-.146.016-.108.022-.215.032-.318.006-.075.017-.151.022-.226.027-.227.038-.464.038-.702z" fill="url(#paint127_linear_35_2)"/><path d="M186.308 376.417l.13.064-2.201-1.278c-.022-.011-.038-.022-.059-.032l-.07-.033a5.326 5.326 0 00-.394-.194c-.027-.011-.049-.027-.076-.038-.021-.011-.043-.016-.064-.021a5.396 5.396 0 00-.491-.173c-.006 0-.011-.005-.017-.005a5.2 5.2 0 00-.534-.124l-.064-.017c-.027-.005-.06-.005-.087-.01a6.49 6.49 0 00-.485-.06c-.027 0-.049-.005-.076-.01h-.026a7.835 7.835 0 00-.615-.006h-.06c-.027 0-.054.006-.081.006-.232.01-.469.032-.712.07-.156.021-.318.054-.48.086-.054.011-.102.027-.156.038-.103.021-.2.043-.302.075a.042.042 0 00-.027.011 8.675 8.675 0 00-.572.178.695.695 0 00-.108.043 10.006 10.006 0 00-.534.2c-.038.016-.075.037-.113.054-.173.075-.34.151-.513.237-.064.032-.129.059-.194.092-.226.113-.453.232-.679.366-.346.2-.68.416-1.014.648-.108.075-.216.156-.324.232-.227.162-.448.329-.669.507-.124.097-.243.199-.367.302a18.54 18.54 0 00-.604.528c-.118.108-.243.222-.361.335-.076.07-.151.135-.221.205a21.426 21.426 0 00-1.165 1.246c-.065.07-.119.151-.184.221-.14.167-.28.334-.415.507-.086.108-.184.216-.27.329-.075.092-.14.194-.21.286-.103.135-.2.27-.297.404-.065.092-.135.178-.199.276-.114.161-.216.323-.329.49a7.831 7.831 0 00-.205.308c-.027.043-.06.081-.087.124a25.77 25.77 0 00-.588.965c-.037.065-.07.13-.108.189-.124.216-.248.432-.361.647-.054.103-.102.205-.156.308l-.162.324a5.62 5.62 0 00-.14.28 32.24 32.24 0 00-.346.75l-.064.14-.017.038c-.14.318-.269.636-.393.96-.022.059-.038.113-.065.173-.043.118-.086.231-.124.35-.059.162-.119.324-.173.486-.043.124-.075.248-.113.372a9.505 9.505 0 00-.135.442c-.027.092-.059.183-.086.275-.043.162-.076.324-.119.486-.048.183-.092.366-.135.544l-.048.195c-.065.296-.119.593-.167.89-.011.059-.017.124-.027.183-.022.135-.044.27-.06.405-.021.178-.032.35-.054.528-.01.124-.027.254-.037.378-.033.399-.049.793-.049 1.176.011 3.36 1.203 5.728 3.118 6.845l2.2 1.278c-1.92-1.117-3.106-3.485-3.117-6.845 0-.388.016-.782.048-1.176.011-.124.027-.253.038-.377.032-.308.065-.621.113-.934.011-.059.016-.118.027-.183.06-.361.13-.723.216-1.084.043-.184.086-.367.135-.545.065-.253.129-.507.205-.761.043-.145.086-.296.135-.442.091-.286.183-.572.286-.852.043-.119.08-.237.124-.351.145-.393.302-.782.474-1.17l.065-.146c.151-.345.313-.685.486-1.025l.161-.323c.168-.324.34-.642.518-.96l.108-.189c.216-.372.442-.734.674-1.095.07-.103.141-.205.205-.308.173-.259.351-.512.529-.76.097-.135.199-.27.297-.405.156-.21.318-.41.48-.615.134-.172.275-.339.415-.507.248-.291.496-.582.755-.857a21.598 21.598 0 011.78-1.678 10.7 10.7 0 01.367-.302c.221-.178.442-.34.669-.507.108-.075.215-.162.323-.232.335-.232.675-.448 1.014-.647.227-.13.454-.254.68-.367.065-.032.13-.065.194-.092.173-.081.345-.161.513-.232a8.622 8.622 0 01.647-.253c.038-.011.075-.027.113-.043.194-.065.383-.124.572-.178.113-.033.221-.054.334-.081.054-.011.103-.027.157-.038.162-.032.323-.065.48-.086.243-.038.48-.06.712-.07.048 0 .097-.006.14-.006.21-.005.415-.005.615.006.032 0 .07.005.103.01.161.011.323.033.485.06.049.005.097.016.146.027.183.032.361.075.534.124.005 0 .01.005.016.005a5.396 5.396 0 01.625.232 3.1 3.1 0 01.394.184z" fill="url(#paint128_linear_35_2)"/><path d="M214.239 364.772c.653-.377 1.116.087.917.912l-1.198 5.016c-.124.529-.496 1.052-.911 1.289l-7.19 4.148c-.529.308-.96 1.052-.96 1.662 0 .609-.427 1.354-.961 1.661l-15 8.663c-1.521 5.502-5.405 11.041-9.952 13.668-5.89 3.404-10.696.658-10.712-6.106-.022-6.764 4.752-15.038 10.647-18.437 4.547-2.626 8.453-1.585 10.001 2.147l25.319-14.623zm-35.266 32.175c3.566-2.06 6.457-7.071 6.446-11.165-.011-4.094-2.924-5.756-6.484-3.701-3.565 2.061-6.456 7.072-6.445 11.166.005 4.099 2.912 5.761 6.483 3.7z" fill="url(#paint129_linear_35_2)"/><path d="M195.974 379.497c-.464.269-.847.054-.847-.486 0-.539.378-1.192.842-1.456.469-.27.847-.054.852.48 0 .539-.377 1.192-.847 1.462zm2.546-1.467c-.469.269-.847.053-.847-.486s.373-1.187.842-1.456c.464-.27.847-.054.847.485 0 .534-.378 1.187-.842 1.457zm2.541-1.468c-.469.27-.847.054-.847-.485 0-.54.372-1.187.841-1.456.47-.27.847-.054.847.485s-.377 1.187-.841 1.456zm2.54-1.467c-.469.27-.846.054-.846-.48 0-.539.372-1.187.841-1.456.469-.27.847-.054.847.48 0 .539-.378 1.186-.842 1.456zm2.541-1.462c-.469.27-.847.054-.847-.48 0-.539.372-1.186.842-1.456.469-.27.846-.054.846.485 0 .529-.377 1.182-.841 1.451zm2.535-1.467c-.464.27-.847.054-.847-.485 0-.54.378-1.192.842-1.457.469-.269.847-.053.847.486.005.534-.373 1.187-.842 1.456zm2.994-4.692l-18.701 10.798c-.335.194-.61.669-.61 1.052l.006 2.573c0 .388.275.545.615.351l18.701-10.799c.334-.194.604-.664.604-1.052l-.006-2.573c0-.383-.269-.545-.609-.35z" fill="url(#paint130_linear_35_2)"/><path d="M195.968 377.561c-.463.269-.841.922-.841 1.456 0 .539.383.75.847.485.469-.269.847-.922.847-1.461 0-.54-.383-.75-.853-.48z" fill="url(#paint131_linear_35_2)"/><path d="M198.514 376.088c-.469.27-.841.922-.841 1.456 0 .54.377.755.847.486.464-.27.841-.923.841-1.457 0-.539-.383-.749-.847-.485z" fill="url(#paint132_linear_35_2)"/><path d="M201.055 374.621c-.469.269-.841.922-.841 1.456 0 .539.377.755.847.485.469-.269.841-.922.841-1.456 0-.539-.383-.755-.847-.485z" fill="url(#paint133_linear_35_2)"/><path d="M203.595 373.159c-.469.269-.841.922-.841 1.456 0 .539.377.755.847.48.469-.27.841-.922.841-1.456-.005-.534-.383-.75-.847-.48z" fill="url(#paint134_linear_35_2)"/><path d="M206.136 371.691c-.469.27-.841.923-.841 1.457 0 .539.377.755.847.48.469-.27.841-.922.841-1.456-.005-.535-.383-.75-.847-.481z" fill="url(#paint135_linear_35_2)"/><path d="M208.672 370.225c-.464.269-.842.922-.842 1.456 0 .539.383.75.847.485.469-.269.841-.922.841-1.456 0-.539-.377-.755-.846-.485z" fill="url(#paint136_linear_35_2)"/><defs><linearGradient id="paint0_linear_35_2" x1="393.248" y1="475.786" x2="375.326" y2="362.015" gradientUnits="userSpaceOnUse"><stop stop-color="#2970FF"/><stop offset=".13" stop-color="#2779FF"/><stop offset=".338" stop-color="#2090FF"/><stop offset=".6" stop-color="#15B7FF"/><stop offset=".901" stop-color="#05ECFF"/><stop offset="1" stop-color="#0FF"/></linearGradient><linearGradient id="paint1_linear_35_2" x1="199.517" y1="408.313" x2="352.152" y2="319" gradientUnits="userSpaceOnUse"><stop stop-color="#A3AEEB"/><stop offset=".193" stop-color="#A9B4EC" stop-opacity=".807"/><stop offset=".448" stop-color="#B9C4EE" stop-opacity=".552"/><stop offset=".736" stop-color="#D3E0F2" stop-opacity=".265"/><stop offset="1" stop-color="#F2FFF7" stop-opacity="0"/></linearGradient><linearGradient id="paint2_linear_35_2" x1="140.691" y1="458.046" x2="298.032" y2="401.737" gradientUnits="userSpaceOnUse"><stop stop-color="#A3AEEB"/><stop offset=".154" stop-color="#B1BCED"/><stop offset=".719" stop-color="#E0ECF4"/><stop offset="1" stop-color="#F2FFF7"/></linearGradient><linearGradient id="paint3_linear_35_2" x1="140.691" y1="458.046" x2="298.032" y2="401.737" gradientUnits="userSpaceOnUse"><stop stop-color="#A3AEEB"/><stop offset=".154" stop-color="#B1BCED"/><stop offset=".719" stop-color="#E0ECF4"/><stop offset="1" stop-color="#F2FFF7"/></linearGradient><linearGradient id="paint4_linear_35_2" x1="180.438" y1="440.277" x2="249.792" y2="407.604" gradientUnits="userSpaceOnUse"><stop stop-color="#F2FFF7"/><stop offset="1" stop-color="#fff"/></linearGradient><linearGradient id="paint5_linear_35_2" x1="229.357" y1="507.072" x2="240.912" y2="245.343" gradientUnits="userSpaceOnUse"><stop stop-color="#A3AEEB"/><stop offset=".154" stop-color="#B1BCED"/><stop offset=".719" stop-color="#E0ECF4"/><stop offset="1" stop-color="#F2FFF7"/></linearGradient><linearGradient id="paint6_linear_35_2" x1="253.075" y1="724.73" x2="189.371" y2="-16.919" gradientUnits="userSpaceOnUse"><stop stop-color="#2970FF"/><stop offset=".13" stop-color="#2779FF"/><stop offset=".338" stop-color="#2090FF"/><stop offset=".6" stop-color="#15B7FF"/><stop offset=".901" stop-color="#05ECFF"/><stop offset="1" stop-color="#0FF"/></linearGradient><linearGradient id="paint7_linear_35_2" x1="578.446" y1="325.923" x2="578.446" y2="242.475" gradientUnits="userSpaceOnUse"><stop stop-color="#2970FF"/><stop offset=".13" stop-color="#2779FF"/><stop offset=".338" stop-color="#2090FF"/><stop offset=".6" stop-color="#15B7FF"/><stop offset=".901" stop-color="#05ECFF"/><stop offset="1" stop-color="#0FF"/></linearGradient><linearGradient id="paint8_linear_35_2" x1="581.938" y1="352.082" x2="581.938" y2="256.327" gradientUnits="userSpaceOnUse"><stop stop-color="#FF6B1F"/><stop offset=".195" stop-color="#FF8127"/><stop offset=".531" stop-color="#FFA233"/><stop offset=".812" stop-color="#FFB73A"/><stop offset="1" stop-color="#FFBE3D"/></linearGradient><linearGradient id="paint9_linear_35_2" x1="706.778" y1="348.957" x2="710.919" y2="133.626" gradientUnits="userSpaceOnUse"><stop stop-color="#A3AEEB"/><stop offset=".154" stop-color="#B1BCED"/><stop offset=".719" stop-color="#E0ECF4"/><stop offset="1" stop-color="#F2FFF7"/></linearGradient><linearGradient id="paint10_linear_35_2" x1="594.628" y1="270.784" x2="825.828" y2="188.042" gradientUnits="userSpaceOnUse"><stop stop-color="#A3AEEB"/><stop offset=".154" stop-color="#B1BCED"/><stop offset=".719" stop-color="#E0ECF4"/><stop offset="1" stop-color="#F2FFF7"/></linearGradient><linearGradient id="paint11_linear_35_2" x1="594.628" y1="270.784" x2="825.828" y2="188.042" gradientUnits="userSpaceOnUse"><stop stop-color="#A3AEEB"/><stop offset=".154" stop-color="#B1BCED"/><stop offset=".719" stop-color="#E0ECF4"/><stop offset="1" stop-color="#F2FFF7"/></linearGradient><linearGradient id="paint12_linear_35_2" x1="654.006" y1="240.337" x2="754.222" y2="193.125" gradientUnits="userSpaceOnUse"><stop stop-color="#F2FFF7"/><stop offset="1" stop-color="#fff"/></linearGradient><linearGradient id="paint13_linear_35_2" x1="661.793" y1="319.015" x2="774.756" y2="67.309" gradientUnits="userSpaceOnUse"><stop stop-color="#2970FF"/><stop offset=".13" stop-color="#2779FF"/><stop offset=".338" stop-color="#2090FF"/><stop offset=".6" stop-color="#15B7FF"/><stop offset=".901" stop-color="#05ECFF"/><stop offset="1" stop-color="#0FF"/></linearGradient><linearGradient id="paint14_linear_35_2" x1="708.656" y1="270.173" x2="708.656" y2="46.468" gradientUnits="userSpaceOnUse"><stop stop-color="#2970FF"/><stop offset=".13" stop-color="#2779FF" stop-opacity=".871"/><stop offset=".338" stop-color="#2090FF" stop-opacity=".662"/><stop offset=".6" stop-color="#15B7FF" stop-opacity=".401"/><stop offset=".901" stop-color="#05ECFF" stop-opacity=".099"/><stop offset="1" stop-color="#0FF" stop-opacity="0"/></linearGradient><linearGradient id="paint15_linear_35_2" x1="737.909" y1="267.135" x2="737.909" y2="75.865" gradientUnits="userSpaceOnUse"><stop stop-color="#2970FF"/><stop offset=".097" stop-color="#3276FF" stop-opacity=".903"/><stop offset=".252" stop-color="#4986FF" stop-opacity=".748"/><stop offset=".447" stop-color="#709FFF" stop-opacity=".553"/><stop offset=".674" stop-color="#A6C3FF" stop-opacity=".326"/><stop offset=".925" stop-color="#E9F1FF" stop-opacity=".074"/><stop offset="1" stop-color="#fff" stop-opacity="0"/></linearGradient><linearGradient id="paint16_linear_35_2" x1="693.18" y1="143.663" x2="682.107" y2="182.227" gradientUnits="userSpaceOnUse"><stop stop-color="#A3AEEB"/><stop offset=".154" stop-color="#B1BCED"/><stop offset=".719" stop-color="#E0ECF4"/><stop offset="1" stop-color="#F2FFF7"/></linearGradient><linearGradient id="paint17_linear_35_2" x1="680.262" y1="170.945" x2="681.789" y2="139.253" gradientUnits="userSpaceOnUse"><stop stop-color="#A3AEEB"/><stop offset=".154" stop-color="#B1BCED"/><stop offset=".719" stop-color="#E0ECF4"/><stop offset="1" stop-color="#F2FFF7"/></linearGradient><linearGradient id="paint18_linear_35_2" x1="677.184" y1="157.968" x2="690.901" y2="157.968" gradientUnits="userSpaceOnUse"><stop stop-color="#F2FFF7"/><stop offset="1" stop-color="#fff"/></linearGradient><linearGradient id="paint19_linear_35_2" x1="745.603" y1="105.691" x2="734.531" y2="144.256" gradientUnits="userSpaceOnUse"><stop stop-color="#A3AEEB"/><stop offset=".154" stop-color="#B1BCED"/><stop offset=".719" stop-color="#E0ECF4"/><stop offset="1" stop-color="#F2FFF7"/></linearGradient><linearGradient id="paint20_linear_35_2" x1="732.686" y1="132.973" x2="734.213" y2="101.282" gradientUnits="userSpaceOnUse"><stop stop-color="#A3AEEB"/><stop offset=".154" stop-color="#B1BCED"/><stop offset=".719" stop-color="#E0ECF4"/><stop offset="1" stop-color="#F2FFF7"/></linearGradient><linearGradient id="paint21_linear_35_2" x1="729.608" y1="119.997" x2="743.325" y2="119.997" gradientUnits="userSpaceOnUse"><stop stop-color="#F2FFF7"/><stop offset="1" stop-color="#fff"/></linearGradient><linearGradient id="paint22_linear_35_2" x1="690.107" y1="61.099" x2="679.034" y2="99.664" gradientUnits="userSpaceOnUse"><stop stop-color="#A3AEEB"/><stop offset=".154" stop-color="#B1BCED"/><stop offset=".719" stop-color="#E0ECF4"/><stop offset="1" stop-color="#F2FFF7"/></linearGradient><linearGradient id="paint23_linear_35_2" x1="677.189" y1="88.381" x2="678.716" y2="56.689" gradientUnits="userSpaceOnUse"><stop stop-color="#A3AEEB"/><stop offset=".154" stop-color="#B1BCED"/><stop offset=".719" stop-color="#E0ECF4"/><stop offset="1" stop-color="#F2FFF7"/></linearGradient><linearGradient id="paint24_linear_35_2" x1="674.112" y1="75.404" x2="687.829" y2="75.404" gradientUnits="userSpaceOnUse"><stop stop-color="#F2FFF7"/><stop offset="1" stop-color="#fff"/></linearGradient><linearGradient id="paint25_linear_35_2" x1="752.54" y1="182.985" x2="741.468" y2="221.55" gradientUnits="userSpaceOnUse"><stop stop-color="#A3AEEB"/><stop offset=".154" stop-color="#B1BCED"/><stop offset=".719" stop-color="#E0ECF4"/><stop offset="1" stop-color="#F2FFF7"/></linearGradient><linearGradient id="paint26_linear_35_2" x1="739.623" y1="210.267" x2="741.15" y2="178.576" gradientUnits="userSpaceOnUse"><stop stop-color="#A3AEEB"/><stop offset=".154" stop-color="#B1BCED"/><stop offset=".719" stop-color="#E0ECF4"/><stop offset="1" stop-color="#F2FFF7"/></linearGradient><linearGradient id="paint27_linear_35_2" x1="736.545" y1="197.291" x2="750.262" y2="197.291" gradientUnits="userSpaceOnUse"><stop stop-color="#F2FFF7"/><stop offset="1" stop-color="#fff"/></linearGradient><linearGradient id="paint28_linear_35_2" x1="126.039" y1="192.162" x2="209.28" y2="132.7" gradientUnits="userSpaceOnUse"><stop stop-color="#A3AEEB"/><stop offset=".193" stop-color="#A9B4EC" stop-opacity=".807"/><stop offset=".448" stop-color="#B9C4EE" stop-opacity=".552"/><stop offset=".736" stop-color="#D3E0F2" stop-opacity=".265"/><stop offset="1" stop-color="#F2FFF7" stop-opacity="0"/></linearGradient><linearGradient id="paint29_linear_35_2" x1="456.845" y1="426.268" x2="474.253" y2="413.833" gradientUnits="userSpaceOnUse"><stop stop-color="#A3AEEB"/><stop offset=".193" stop-color="#A9B4EC" stop-opacity=".807"/><stop offset=".448" stop-color="#B9C4EE" stop-opacity=".552"/><stop offset=".736" stop-color="#D3E0F2" stop-opacity=".265"/><stop offset="1" stop-color="#F2FFF7" stop-opacity="0"/></linearGradient><linearGradient id="paint30_linear_35_2" x1="474.117" y1="385.008" x2="451.102" y2="465.17" gradientUnits="userSpaceOnUse"><stop stop-color="#A3AEEB"/><stop offset=".154" stop-color="#B1BCED"/><stop offset=".719" stop-color="#E0ECF4"/><stop offset="1" stop-color="#F2FFF7"/></linearGradient><linearGradient id="paint31_linear_35_2" x1="447.266" y1="441.717" x2="450.441" y2="375.843" gradientUnits="userSpaceOnUse"><stop stop-color="#A3AEEB"/><stop offset=".154" stop-color="#B1BCED"/><stop offset=".719" stop-color="#E0ECF4"/><stop offset="1" stop-color="#F2FFF7"/></linearGradient><linearGradient id="paint32_linear_35_2" x1="440.869" y1="414.743" x2="469.381" y2="414.743" gradientUnits="userSpaceOnUse"><stop stop-color="#F2FFF7"/><stop offset="1" stop-color="#fff"/></linearGradient><linearGradient id="paint33_linear_35_2" x1="433.27" y1="516.461" x2="461.222" y2="496.494" gradientUnits="userSpaceOnUse"><stop stop-color="#A3AEEB"/><stop offset=".193" stop-color="#A9B4EC" stop-opacity=".807"/><stop offset=".448" stop-color="#B9C4EE" stop-opacity=".552"/><stop offset=".736" stop-color="#D3E0F2" stop-opacity=".265"/><stop offset="1" stop-color="#F2FFF7" stop-opacity="0"/></linearGradient><linearGradient id="paint34_linear_35_2" x1="461.003" y1="450.212" x2="424.048" y2="578.925" gradientUnits="userSpaceOnUse"><stop stop-color="#A3AEEB"/><stop offset=".154" stop-color="#B1BCED"/><stop offset=".719" stop-color="#E0ECF4"/><stop offset="1" stop-color="#F2FFF7"/></linearGradient><linearGradient id="paint35_linear_35_2" x1="417.89" y1="541.268" x2="422.987" y2="435.495" gradientUnits="userSpaceOnUse"><stop stop-color="#A3AEEB"/><stop offset=".154" stop-color="#B1BCED"/><stop offset=".719" stop-color="#E0ECF4"/><stop offset="1" stop-color="#F2FFF7"/></linearGradient><linearGradient id="paint36_linear_35_2" x1="407.619" y1="497.957" x2="453.4" y2="497.957" gradientUnits="userSpaceOnUse"><stop stop-color="#F2FFF7"/><stop offset="1" stop-color="#fff"/></linearGradient><linearGradient id="paint37_linear_35_2" x1="85.148" y1="305.036" x2="99.042" y2="295.112" gradientUnits="userSpaceOnUse"><stop stop-color="#A3AEEB"/><stop offset=".193" stop-color="#A9B4EC" stop-opacity=".807"/><stop offset=".448" stop-color="#B9C4EE" stop-opacity=".552"/><stop offset=".736" stop-color="#D3E0F2" stop-opacity=".265"/><stop offset="1" stop-color="#F2FFF7" stop-opacity="0"/></linearGradient><linearGradient id="paint38_linear_35_2" x1="98.932" y1="272.107" x2="80.564" y2="336.085" gradientUnits="userSpaceOnUse"><stop stop-color="#A3AEEB"/><stop offset=".154" stop-color="#B1BCED"/><stop offset=".719" stop-color="#E0ECF4"/><stop offset="1" stop-color="#F2FFF7"/></linearGradient><linearGradient id="paint39_linear_35_2" x1="77.503" y1="317.367" x2="80.037" y2="264.792" gradientUnits="userSpaceOnUse"><stop stop-color="#A3AEEB"/><stop offset=".154" stop-color="#B1BCED"/><stop offset=".719" stop-color="#E0ECF4"/><stop offset="1" stop-color="#F2FFF7"/></linearGradient><linearGradient id="paint40_linear_35_2" x1="72.397" y1="295.839" x2="95.153" y2="295.839" gradientUnits="userSpaceOnUse"><stop stop-color="#F2FFF7"/><stop offset="1" stop-color="#fff"/></linearGradient><linearGradient id="paint41_linear_35_2" x1="764.482" y1="357.061" x2="778.375" y2="347.136" gradientUnits="userSpaceOnUse"><stop stop-color="#A3AEEB"/><stop offset=".193" stop-color="#A9B4EC" stop-opacity=".807"/><stop offset=".448" stop-color="#B9C4EE" stop-opacity=".552"/><stop offset=".736" stop-color="#D3E0F2" stop-opacity=".265"/><stop offset="1" stop-color="#F2FFF7" stop-opacity="0"/></linearGradient><linearGradient id="paint42_linear_35_2" x1="778.267" y1="324.131" x2="759.898" y2="388.11" gradientUnits="userSpaceOnUse"><stop stop-color="#A3AEEB"/><stop offset=".154" stop-color="#B1BCED"/><stop offset=".719" stop-color="#E0ECF4"/><stop offset="1" stop-color="#F2FFF7"/></linearGradient><linearGradient id="paint43_linear_35_2" x1="756.837" y1="369.392" x2="759.371" y2="316.816" gradientUnits="userSpaceOnUse"><stop stop-color="#A3AEEB"/><stop offset=".154" stop-color="#B1BCED"/><stop offset=".719" stop-color="#E0ECF4"/><stop offset="1" stop-color="#F2FFF7"/></linearGradient><linearGradient id="paint44_linear_35_2" x1="751.731" y1="347.864" x2="774.487" y2="347.864" gradientUnits="userSpaceOnUse"><stop stop-color="#F2FFF7"/><stop offset="1" stop-color="#fff"/></linearGradient><linearGradient id="paint45_linear_35_2" x1="201.85" y1="138.651" x2="285.091" y2="79.189" gradientUnits="userSpaceOnUse"><stop stop-color="#A3AEEB"/><stop offset=".193" stop-color="#A9B4EC" stop-opacity=".807"/><stop offset=".448" stop-color="#B9C4EE" stop-opacity=".552"/><stop offset=".736" stop-color="#D3E0F2" stop-opacity=".265"/><stop offset="1" stop-color="#F2FFF7" stop-opacity="0"/></linearGradient><linearGradient id="paint46_linear_35_2" x1="107.053" y1="152.861" x2="338.252" y2="70.12" gradientUnits="userSpaceOnUse"><stop stop-color="#A3AEEB"/><stop offset=".154" stop-color="#B1BCED"/><stop offset=".719" stop-color="#E0ECF4"/><stop offset="1" stop-color="#F2FFF7"/></linearGradient><linearGradient id="paint47_linear_35_2" x1="107.053" y1="152.861" x2="338.252" y2="70.12" gradientUnits="userSpaceOnUse"><stop stop-color="#A3AEEB"/><stop offset=".154" stop-color="#B1BCED"/><stop offset=".719" stop-color="#E0ECF4"/><stop offset="1" stop-color="#F2FFF7"/></linearGradient><linearGradient id="paint48_linear_35_2" x1="166.432" y1="122.415" x2="266.648" y2="75.203" gradientUnits="userSpaceOnUse"><stop stop-color="#F2FFF7"/><stop offset="1" stop-color="#fff"/></linearGradient><linearGradient id="paint49_linear_35_2" x1="221.889" y1="44.137" x2="194.277" y2="140.31" gradientUnits="userSpaceOnUse"><stop stop-color="#2970FF"/><stop offset=".13" stop-color="#2779FF"/><stop offset=".338" stop-color="#2090FF"/><stop offset=".6" stop-color="#15B7FF"/><stop offset=".901" stop-color="#05ECFF"/><stop offset="1" stop-color="#0FF"/></linearGradient><linearGradient id="paint50_linear_35_2" x1="189.677" y1="112.173" x2="193.485" y2="33.141" gradientUnits="userSpaceOnUse"><stop stop-color="#2970FF"/><stop offset=".13" stop-color="#2779FF"/><stop offset=".338" stop-color="#2090FF"/><stop offset=".6" stop-color="#15B7FF"/><stop offset=".901" stop-color="#05ECFF"/><stop offset="1" stop-color="#0FF"/></linearGradient><linearGradient id="paint51_linear_35_2" x1="188.678" y1="208.404" x2="200.568" y2="61.745" gradientUnits="userSpaceOnUse"><stop stop-color="#2970FF"/><stop offset=".13" stop-color="#2779FF"/><stop offset=".338" stop-color="#2090FF"/><stop offset=".6" stop-color="#15B7FF"/><stop offset=".901" stop-color="#05ECFF"/><stop offset="1" stop-color="#0FF"/></linearGradient><linearGradient id="paint52_linear_35_2" x1="257.57" y1="55.842" x2="234.755" y2="135.308" gradientUnits="userSpaceOnUse"><stop stop-color="#2970FF"/><stop offset=".13" stop-color="#2779FF"/><stop offset=".338" stop-color="#2090FF"/><stop offset=".6" stop-color="#15B7FF"/><stop offset=".901" stop-color="#05ECFF"/><stop offset="1" stop-color="#0FF"/></linearGradient><linearGradient id="paint53_linear_35_2" x1="230.952" y1="112.059" x2="234.099" y2="46.755" gradientUnits="userSpaceOnUse"><stop stop-color="#2970FF"/><stop offset=".13" stop-color="#2779FF"/><stop offset=".338" stop-color="#2090FF"/><stop offset=".6" stop-color="#15B7FF"/><stop offset=".901" stop-color="#05ECFF"/><stop offset="1" stop-color="#0FF"/></linearGradient><linearGradient id="paint54_linear_35_2" x1="230.128" y1="191.572" x2="239.953" y2="70.391" gradientUnits="userSpaceOnUse"><stop stop-color="#2970FF"/><stop offset=".13" stop-color="#2779FF"/><stop offset=".338" stop-color="#2090FF"/><stop offset=".6" stop-color="#15B7FF"/><stop offset=".901" stop-color="#05ECFF"/><stop offset="1" stop-color="#0FF"/></linearGradient><linearGradient id="paint55_linear_35_2" x1="238.083" y1="26.319" x2="218.465" y2="94.647" gradientUnits="userSpaceOnUse"><stop stop-color="#2970FF"/><stop offset=".13" stop-color="#2779FF"/><stop offset=".338" stop-color="#2090FF"/><stop offset=".6" stop-color="#15B7FF"/><stop offset=".901" stop-color="#05ECFF"/><stop offset="1" stop-color="#0FF"/></linearGradient><linearGradient id="paint56_linear_35_2" x1="215.196" y1="74.656" x2="217.902" y2="18.506" gradientUnits="userSpaceOnUse"><stop stop-color="#2970FF"/><stop offset=".13" stop-color="#2779FF"/><stop offset=".338" stop-color="#2090FF"/><stop offset=".6" stop-color="#15B7FF"/><stop offset=".901" stop-color="#05ECFF"/><stop offset="1" stop-color="#0FF"/></linearGradient><linearGradient id="paint57_linear_35_2" x1="214.487" y1="143.027" x2="222.935" y2="38.829" gradientUnits="userSpaceOnUse"><stop stop-color="#2970FF"/><stop offset=".13" stop-color="#2779FF"/><stop offset=".338" stop-color="#2090FF"/><stop offset=".6" stop-color="#15B7FF"/><stop offset=".901" stop-color="#05ECFF"/><stop offset="1" stop-color="#0FF"/></linearGradient><linearGradient id="paint58_linear_35_2" x1="248.988" y1="10.276" x2="234.167" y2="61.898" gradientUnits="userSpaceOnUse"><stop stop-color="#2970FF"/><stop offset=".13" stop-color="#2779FF"/><stop offset=".338" stop-color="#2090FF"/><stop offset=".6" stop-color="#15B7FF"/><stop offset=".901" stop-color="#05ECFF"/><stop offset="1" stop-color="#0FF"/></linearGradient><linearGradient id="paint59_linear_35_2" x1="231.698" y1="46.795" x2="233.742" y2="4.374" gradientUnits="userSpaceOnUse"><stop stop-color="#2970FF"/><stop offset=".13" stop-color="#2779FF"/><stop offset=".338" stop-color="#2090FF"/><stop offset=".6" stop-color="#15B7FF"/><stop offset=".901" stop-color="#05ECFF"/><stop offset="1" stop-color="#0FF"/></linearGradient><linearGradient id="paint60_linear_35_2" x1="231.161" y1="98.449" x2="237.544" y2="19.728" gradientUnits="userSpaceOnUse"><stop stop-color="#2970FF"/><stop offset=".13" stop-color="#2779FF"/><stop offset=".338" stop-color="#2090FF"/><stop offset=".6" stop-color="#15B7FF"/><stop offset=".901" stop-color="#05ECFF"/><stop offset="1" stop-color="#0FF"/></linearGradient><linearGradient id="paint61_linear_35_2" x1="217.939" y1="5.92" x2="204.717" y2="51.973" gradientUnits="userSpaceOnUse"><stop stop-color="#2970FF"/><stop offset=".13" stop-color="#2779FF"/><stop offset=".338" stop-color="#2090FF"/><stop offset=".6" stop-color="#15B7FF"/><stop offset=".901" stop-color="#05ECFF"/><stop offset="1" stop-color="#0FF"/></linearGradient><linearGradient id="paint62_linear_35_2" x1="202.513" y1="38.5" x2="204.337" y2=".655" gradientUnits="userSpaceOnUse"><stop stop-color="#2970FF"/><stop offset=".13" stop-color="#2779FF"/><stop offset=".338" stop-color="#2090FF"/><stop offset=".6" stop-color="#15B7FF"/><stop offset=".901" stop-color="#05ECFF"/><stop offset="1" stop-color="#0FF"/></linearGradient><linearGradient id="paint63_linear_35_2" x1="202.035" y1="84.578" x2="207.728" y2="14.352" gradientUnits="userSpaceOnUse"><stop stop-color="#2970FF"/><stop offset=".13" stop-color="#2779FF"/><stop offset=".338" stop-color="#2090FF"/><stop offset=".6" stop-color="#15B7FF"/><stop offset=".901" stop-color="#05ECFF"/><stop offset="1" stop-color="#0FF"/></linearGradient><linearGradient id="paint64_linear_35_2" x1="227.283" y1="237.907" x2="217.326" y2="174.701" gradientUnits="userSpaceOnUse"><stop stop-color="#2970FF"/><stop offset=".13" stop-color="#2779FF"/><stop offset=".338" stop-color="#2090FF"/><stop offset=".6" stop-color="#15B7FF"/><stop offset=".901" stop-color="#05ECFF"/><stop offset="1" stop-color="#0FF"/></linearGradient><linearGradient id="paint65_linear_35_2" x1="5.97" y1="239.074" x2="237.17" y2="156.332" gradientUnits="userSpaceOnUse"><stop stop-color="#A3AEEB"/><stop offset=".154" stop-color="#B1BCED"/><stop offset=".719" stop-color="#E0ECF4"/><stop offset="1" stop-color="#F2FFF7"/></linearGradient><linearGradient id="paint66_linear_35_2" x1="5.97" y1="239.074" x2="237.17" y2="156.332" gradientUnits="userSpaceOnUse"><stop stop-color="#A3AEEB"/><stop offset=".154" stop-color="#B1BCED"/><stop offset=".719" stop-color="#E0ECF4"/><stop offset="1" stop-color="#F2FFF7"/></linearGradient><linearGradient id="paint67_linear_35_2" x1="65.349" y1="208.627" x2="165.565" y2="161.415" gradientUnits="userSpaceOnUse"><stop stop-color="#F2FFF7"/><stop offset="1" stop-color="#fff"/></linearGradient><linearGradient id="paint68_linear_35_2" x1="87.336" y1="150.077" x2="143.649" y2="150.077" gradientUnits="userSpaceOnUse"><stop stop-color="#FF6B1F"/><stop offset=".195" stop-color="#FF8127"/><stop offset=".531" stop-color="#FFA233"/><stop offset=".812" stop-color="#FFB73A"/><stop offset="1" stop-color="#FFBE3D"/></linearGradient><linearGradient id="paint69_linear_35_2" x1="128.557" y1="142.703" x2="110.24" y2="197.659" gradientUnits="userSpaceOnUse"><stop stop-color="#2970FF"/><stop offset=".13" stop-color="#2779FF"/><stop offset=".338" stop-color="#2090FF"/><stop offset=".6" stop-color="#15B7FF"/><stop offset=".901" stop-color="#05ECFF"/><stop offset="1" stop-color="#0FF"/></linearGradient><linearGradient id="paint70_linear_35_2" x1="568.171" y1="378.585" x2="720.806" y2="289.271" gradientUnits="userSpaceOnUse"><stop stop-color="#A3AEEB"/><stop offset=".193" stop-color="#A9B4EC" stop-opacity=".807"/><stop offset=".448" stop-color="#B9C4EE" stop-opacity=".552"/><stop offset=".736" stop-color="#D3E0F2" stop-opacity=".265"/><stop offset="1" stop-color="#F2FFF7" stop-opacity="0"/></linearGradient><linearGradient id="paint71_linear_35_2" x1="509.346" y1="428.318" x2="666.687" y2="372.008" gradientUnits="userSpaceOnUse"><stop stop-color="#A3AEEB"/><stop offset=".154" stop-color="#B1BCED"/><stop offset=".719" stop-color="#E0ECF4"/><stop offset="1" stop-color="#F2FFF7"/></linearGradient><linearGradient id="paint72_linear_35_2" x1="509.346" y1="428.318" x2="666.687" y2="372.008" gradientUnits="userSpaceOnUse"><stop stop-color="#A3AEEB"/><stop offset=".154" stop-color="#B1BCED"/><stop offset=".719" stop-color="#E0ECF4"/><stop offset="1" stop-color="#F2FFF7"/></linearGradient><linearGradient id="paint73_linear_35_2" x1="549.091" y1="410.548" x2="618.445" y2="377.875" gradientUnits="userSpaceOnUse"><stop stop-color="#F2FFF7"/><stop offset="1" stop-color="#fff"/></linearGradient><linearGradient id="paint74_linear_35_2" x1="598.012" y1="477.344" x2="609.567" y2="215.615" gradientUnits="userSpaceOnUse"><stop stop-color="#A3AEEB"/><stop offset=".154" stop-color="#B1BCED"/><stop offset=".719" stop-color="#E0ECF4"/><stop offset="1" stop-color="#F2FFF7"/></linearGradient><linearGradient id="paint75_linear_35_2" x1="621.73" y1="695.002" x2="558.026" y2="-46.647" gradientUnits="userSpaceOnUse"><stop stop-color="#2970FF"/><stop offset=".13" stop-color="#2779FF"/><stop offset=".338" stop-color="#2090FF"/><stop offset=".6" stop-color="#15B7FF"/><stop offset=".901" stop-color="#05ECFF"/><stop offset="1" stop-color="#0FF"/></linearGradient><linearGradient id="paint76_linear_35_2" x1="265.01" y1="243.541" x2="533.569" y2="243.541" gradientUnits="userSpaceOnUse"><stop stop-color="#A3AEEB"/><stop offset=".291" stop-color="#A6B1EB" stop-opacity=".709"/><stop offset=".495" stop-color="#AFBAED" stop-opacity=".505"/><stop offset=".671" stop-color="#BEC9EF" stop-opacity=".329"/><stop offset=".833" stop-color="#D3DFF2" stop-opacity=".167"/><stop offset=".983" stop-color="#EEFBF6" stop-opacity=".017"/><stop offset="1" stop-color="#F2FFF7" stop-opacity="0"/></linearGradient><linearGradient id="paint77_linear_35_2" x1="241.413" y1="272.552" x2="510.003" y2="272.552" gradientUnits="userSpaceOnUse"><stop stop-color="#A3AEEB"/><stop offset=".154" stop-color="#B1BCED"/><stop offset=".719" stop-color="#E0ECF4"/><stop offset="1" stop-color="#F2FFF7"/></linearGradient><linearGradient id="paint78_linear_35_2" x1="241.445" y1="228.424" x2="510.004" y2="228.424" gradientUnits="userSpaceOnUse"><stop stop-color="#F2FFF7"/><stop offset="1" stop-color="#fff"/></linearGradient><linearGradient id="paint79_linear_35_2" x1="280.582" y1="228.424" x2="470.866" y2="228.424" gradientUnits="userSpaceOnUse"><stop stop-color="#2970FF"/><stop offset=".13" stop-color="#2779FF"/><stop offset=".338" stop-color="#2090FF"/><stop offset=".6" stop-color="#15B7FF"/><stop offset=".901" stop-color="#05ECFF"/><stop offset="1" stop-color="#0FF"/></linearGradient><linearGradient id="paint80_linear_35_2" x1="280.582" y1="228.424" x2="470.866" y2="228.424" gradientUnits="userSpaceOnUse"><stop stop-color="#2970FF"/><stop offset=".13" stop-color="#2779FF"/><stop offset=".338" stop-color="#2090FF"/><stop offset=".6" stop-color="#15B7FF"/><stop offset=".901" stop-color="#05ECFF"/><stop offset="1" stop-color="#0FF"/></linearGradient><linearGradient id="paint81_linear_35_2" x1="375.714" y1="287.218" x2="375.714" y2="4.411" gradientUnits="userSpaceOnUse"><stop stop-color="#2970FF"/><stop offset=".164" stop-color="#1D9BFF" stop-opacity=".836"/><stop offset=".33" stop-color="#12BFFF" stop-opacity=".67"/><stop offset=".497" stop-color="#0ADBFF" stop-opacity=".503"/><stop offset=".665" stop-color="#05EFFF" stop-opacity=".335"/><stop offset=".832" stop-color="#01FBFF" stop-opacity=".168"/><stop offset="1" stop-color="#0FF" stop-opacity="0"/></linearGradient><linearGradient id="paint82_linear_35_2" x1="388.494" y1="207.619" x2="368.933" y2="83.127" gradientUnits="userSpaceOnUse"><stop stop-color="#2970FF"/><stop offset=".13" stop-color="#2779FF"/><stop offset=".338" stop-color="#2090FF"/><stop offset=".6" stop-color="#15B7FF"/><stop offset=".901" stop-color="#05ECFF"/><stop offset="1" stop-color="#0FF"/></linearGradient><linearGradient id="paint83_linear_35_2" x1="368.241" y1="204.521" x2="368.241" y2="95.789" gradientUnits="userSpaceOnUse"><stop stop-color="#FF8654"/><stop offset=".069" stop-color="#FF924F"/><stop offset=".225" stop-color="#FFA547"/><stop offset=".403" stop-color="#FFB341"/><stop offset=".621" stop-color="#FFBC3E"/><stop offset="1" stop-color="#FFBE3D"/></linearGradient><linearGradient id="paint84_linear_35_2" x1="357.528" y1="153.019" x2="378.603" y2="153.019" gradientUnits="userSpaceOnUse"><stop stop-color="#FF6B1F"/><stop offset=".195" stop-color="#FF8127"/><stop offset=".531" stop-color="#FFA233"/><stop offset=".812" stop-color="#FFB73A"/><stop offset="1" stop-color="#FFBE3D"/></linearGradient><linearGradient id="paint85_linear_35_2" x1="491.598" y1="495.753" x2="617.912" y2="450.548" gradientUnits="userSpaceOnUse"><stop stop-color="#A3AEEB"/><stop offset=".154" stop-color="#B1BCED"/><stop offset=".719" stop-color="#E0ECF4"/><stop offset="1" stop-color="#F2FFF7"/></linearGradient><linearGradient id="paint86_linear_35_2" x1="491.598" y1="495.753" x2="617.912" y2="450.548" gradientUnits="userSpaceOnUse"><stop stop-color="#A3AEEB"/><stop offset=".154" stop-color="#B1BCED"/><stop offset=".719" stop-color="#E0ECF4"/><stop offset="1" stop-color="#F2FFF7"/></linearGradient><linearGradient id="paint87_linear_35_2" x1="524.039" y1="479.119" x2="578.791" y2="453.325" gradientUnits="userSpaceOnUse"><stop stop-color="#F2FFF7"/><stop offset="1" stop-color="#fff"/></linearGradient><linearGradient id="paint88_linear_35_2" x1="514.951" y1="483.483" x2="595.696" y2="454.586" gradientUnits="userSpaceOnUse"><stop stop-color="#A3AEEB"/><stop offset=".154" stop-color="#B1BCED"/><stop offset=".719" stop-color="#E0ECF4"/><stop offset="1" stop-color="#F2FFF7"/></linearGradient><linearGradient id="paint89_linear_35_2" x1="343.19" y1="441.221" x2="435.926" y2="408.032" gradientUnits="userSpaceOnUse"><stop stop-color="#A3AEEB"/><stop offset=".154" stop-color="#B1BCED"/><stop offset=".719" stop-color="#E0ECF4"/><stop offset="1" stop-color="#F2FFF7"/></linearGradient><linearGradient id="paint90_linear_35_2" x1="343.19" y1="441.221" x2="435.926" y2="408.032" gradientUnits="userSpaceOnUse"><stop stop-color="#A3AEEB"/><stop offset=".154" stop-color="#B1BCED"/><stop offset=".719" stop-color="#E0ECF4"/><stop offset="1" stop-color="#F2FFF7"/></linearGradient><linearGradient id="paint91_linear_35_2" x1="367.007" y1="429.009" x2="407.205" y2="410.072" gradientUnits="userSpaceOnUse"><stop stop-color="#F2FFF7"/><stop offset="1" stop-color="#fff"/></linearGradient><linearGradient id="paint92_linear_35_2" x1="360.334" y1="432.213" x2="419.615" y2="410.998" gradientUnits="userSpaceOnUse"><stop stop-color="#A3AEEB"/><stop offset=".154" stop-color="#B1BCED"/><stop offset=".719" stop-color="#E0ECF4"/><stop offset="1" stop-color="#F2FFF7"/></linearGradient><linearGradient id="paint93_linear_35_2" x1="433.739" y1="216.921" x2="422.667" y2="255.486" gradientUnits="userSpaceOnUse"><stop stop-color="#A3AEEB"/><stop offset=".154" stop-color="#B1BCED"/><stop offset=".719" stop-color="#E0ECF4"/><stop offset="1" stop-color="#F2FFF7"/></linearGradient><linearGradient id="paint94_linear_35_2" x1="420.821" y1="244.203" x2="422.349" y2="212.512" gradientUnits="userSpaceOnUse"><stop stop-color="#A3AEEB"/><stop offset=".154" stop-color="#B1BCED"/><stop offset=".719" stop-color="#E0ECF4"/><stop offset="1" stop-color="#F2FFF7"/></linearGradient><linearGradient id="paint95_linear_35_2" x1="417.744" y1="231.227" x2="431.461" y2="231.227" gradientUnits="userSpaceOnUse"><stop stop-color="#F2FFF7"/><stop offset="1" stop-color="#fff"/></linearGradient><linearGradient id="paint96_linear_35_2" x1="429.07" y1="197.581" x2="417.998" y2="236.146" gradientUnits="userSpaceOnUse"><stop stop-color="#A3AEEB"/><stop offset=".154" stop-color="#B1BCED"/><stop offset=".719" stop-color="#E0ECF4"/><stop offset="1" stop-color="#F2FFF7"/></linearGradient><linearGradient id="paint97_linear_35_2" x1="416.152" y1="224.863" x2="417.68" y2="193.171" gradientUnits="userSpaceOnUse"><stop stop-color="#A3AEEB"/><stop offset=".154" stop-color="#B1BCED"/><stop offset=".719" stop-color="#E0ECF4"/><stop offset="1" stop-color="#F2FFF7"/></linearGradient><linearGradient id="paint98_linear_35_2" x1="413.075" y1="211.886" x2="426.792" y2="211.886" gradientUnits="userSpaceOnUse"><stop stop-color="#F2FFF7"/><stop offset="1" stop-color="#fff"/></linearGradient><linearGradient id="paint99_linear_35_2" x1="447.078" y1="188.911" x2="436.006" y2="227.476" gradientUnits="userSpaceOnUse"><stop stop-color="#A3AEEB"/><stop offset=".154" stop-color="#B1BCED"/><stop offset=".719" stop-color="#E0ECF4"/><stop offset="1" stop-color="#F2FFF7"/></linearGradient><linearGradient id="paint100_linear_35_2" x1="434.16" y1="216.193" x2="435.688" y2="184.502" gradientUnits="userSpaceOnUse"><stop stop-color="#A3AEEB"/><stop offset=".154" stop-color="#B1BCED"/><stop offset=".719" stop-color="#E0ECF4"/><stop offset="1" stop-color="#F2FFF7"/></linearGradient><linearGradient id="paint101_linear_35_2" x1="431.083" y1="203.216" x2="444.8" y2="203.216" gradientUnits="userSpaceOnUse"><stop stop-color="#F2FFF7"/><stop offset="1" stop-color="#fff"/></linearGradient><linearGradient id="paint102_linear_35_2" x1="335.696" y1="211.586" x2="324.623" y2="250.151" gradientUnits="userSpaceOnUse"><stop stop-color="#A3AEEB"/><stop offset=".154" stop-color="#B1BCED"/><stop offset=".719" stop-color="#E0ECF4"/><stop offset="1" stop-color="#F2FFF7"/></linearGradient><linearGradient id="paint103_linear_35_2" x1="322.778" y1="238.868" x2="324.306" y2="207.177" gradientUnits="userSpaceOnUse"><stop stop-color="#A3AEEB"/><stop offset=".154" stop-color="#B1BCED"/><stop offset=".719" stop-color="#E0ECF4"/><stop offset="1" stop-color="#F2FFF7"/></linearGradient><linearGradient id="paint104_linear_35_2" x1="319.701" y1="225.892" x2="333.418" y2="225.892" gradientUnits="userSpaceOnUse"><stop stop-color="#F2FFF7"/><stop offset="1" stop-color="#fff"/></linearGradient><linearGradient id="paint105_linear_35_2" x1="321.023" y1="197.581" x2="309.951" y2="236.146" gradientUnits="userSpaceOnUse"><stop stop-color="#A3AEEB"/><stop offset=".154" stop-color="#B1BCED"/><stop offset=".719" stop-color="#E0ECF4"/><stop offset="1" stop-color="#F2FFF7"/></linearGradient><linearGradient id="paint106_linear_35_2" x1="308.106" y1="224.863" x2="309.633" y2="193.171" gradientUnits="userSpaceOnUse"><stop stop-color="#A3AEEB"/><stop offset=".154" stop-color="#B1BCED"/><stop offset=".719" stop-color="#E0ECF4"/><stop offset="1" stop-color="#F2FFF7"/></linearGradient><linearGradient id="paint107_linear_35_2" x1="305.028" y1="211.886" x2="318.745" y2="211.886" gradientUnits="userSpaceOnUse"><stop stop-color="#F2FFF7"/><stop offset="1" stop-color="#fff"/></linearGradient><linearGradient id="paint108_linear_35_2" x1="339.031" y1="188.911" x2="327.959" y2="227.476" gradientUnits="userSpaceOnUse"><stop stop-color="#A3AEEB"/><stop offset=".154" stop-color="#B1BCED"/><stop offset=".719" stop-color="#E0ECF4"/><stop offset="1" stop-color="#F2FFF7"/></linearGradient><linearGradient id="paint109_linear_35_2" x1="326.113" y1="216.193" x2="327.641" y2="184.502" gradientUnits="userSpaceOnUse"><stop stop-color="#A3AEEB"/><stop offset=".154" stop-color="#B1BCED"/><stop offset=".719" stop-color="#E0ECF4"/><stop offset="1" stop-color="#F2FFF7"/></linearGradient><linearGradient id="paint110_linear_35_2" x1="323.036" y1="203.216" x2="336.753" y2="203.216" gradientUnits="userSpaceOnUse"><stop stop-color="#F2FFF7"/><stop offset="1" stop-color="#fff"/></linearGradient><linearGradient id="paint111_linear_35_2" x1="435.073" y1="109.548" x2="424" y2="148.113" gradientUnits="userSpaceOnUse"><stop stop-color="#A3AEEB"/><stop offset=".154" stop-color="#B1BCED"/><stop offset=".719" stop-color="#E0ECF4"/><stop offset="1" stop-color="#F2FFF7"/></linearGradient><linearGradient id="paint112_linear_35_2" x1="422.155" y1="136.83" x2="423.683" y2="105.138" gradientUnits="userSpaceOnUse"><stop stop-color="#A3AEEB"/><stop offset=".154" stop-color="#B1BCED"/><stop offset=".719" stop-color="#E0ECF4"/><stop offset="1" stop-color="#F2FFF7"/></linearGradient><linearGradient id="paint113_linear_35_2" x1="419.078" y1="123.853" x2="432.795" y2="123.853" gradientUnits="userSpaceOnUse"><stop stop-color="#F2FFF7"/><stop offset="1" stop-color="#fff"/></linearGradient><linearGradient id="paint114_linear_35_2" x1="420.399" y1="95.543" x2="409.327" y2="134.108" gradientUnits="userSpaceOnUse"><stop stop-color="#A3AEEB"/><stop offset=".154" stop-color="#B1BCED"/><stop offset=".719" stop-color="#E0ECF4"/><stop offset="1" stop-color="#F2FFF7"/></linearGradient><linearGradient id="paint115_linear_35_2" x1="407.482" y1="122.825" x2="409.009" y2="91.133" gradientUnits="userSpaceOnUse"><stop stop-color="#A3AEEB"/><stop offset=".154" stop-color="#B1BCED"/><stop offset=".719" stop-color="#E0ECF4"/><stop offset="1" stop-color="#F2FFF7"/></linearGradient><linearGradient id="paint116_linear_35_2" x1="404.404" y1="109.848" x2="418.121" y2="109.848" gradientUnits="userSpaceOnUse"><stop stop-color="#F2FFF7"/><stop offset="1" stop-color="#fff"/></linearGradient><linearGradient id="paint117_linear_35_2" x1="407.06" y1="76.202" x2="395.988" y2="114.767" gradientUnits="userSpaceOnUse"><stop stop-color="#A3AEEB"/><stop offset=".154" stop-color="#B1BCED"/><stop offset=".719" stop-color="#E0ECF4"/><stop offset="1" stop-color="#F2FFF7"/></linearGradient><linearGradient id="paint118_linear_35_2" x1="394.143" y1="103.484" x2="395.67" y2="71.793" gradientUnits="userSpaceOnUse"><stop stop-color="#A3AEEB"/><stop offset=".154" stop-color="#B1BCED"/><stop offset=".719" stop-color="#E0ECF4"/><stop offset="1" stop-color="#F2FFF7"/></linearGradient><linearGradient id="paint119_linear_35_2" x1="391.065" y1="90.507" x2="404.782" y2="90.507" gradientUnits="userSpaceOnUse"><stop stop-color="#F2FFF7"/><stop offset="1" stop-color="#fff"/></linearGradient><linearGradient id="paint120_linear_35_2" x1="201.054" y1="366.627" x2="231.296" y2="366.627" gradientUnits="userSpaceOnUse"><stop stop-color="#01B3F9"/><stop offset="1" stop-color="#015BEA"/></linearGradient><linearGradient id="paint121_linear_35_2" x1="213.013" y1="355.221" x2="213.013" y2="382.05" gradientUnits="userSpaceOnUse"><stop stop-color="#01B3F9"/><stop offset="1" stop-color="#015BEA"/></linearGradient><linearGradient id="paint123_linear_35_2" x1="208.261" y1="347.044" x2="212.901" y2="347.044" gradientUnits="userSpaceOnUse"><stop stop-color="#01B3F9"/><stop offset="1" stop-color="#015BEA"/></linearGradient><linearGradient id="paint124_linear_35_2" x1="208.219" y1="349.122" x2="226.117" y2="349.122" gradientUnits="userSpaceOnUse"><stop stop-color="#01B3F9"/><stop offset="1" stop-color="#015BEA"/></linearGradient><linearGradient id="paint125_linear_35_2" x1="214.617" y1="337.109" x2="214.617" y2="365.12" gradientUnits="userSpaceOnUse"><stop stop-color="#DFFEFF"/><stop offset="1" stop-color="#01B0F9"/></linearGradient><linearGradient id="paint126_linear_35_2" x1="188.367" y1="370.1" x2="225.482" y2="373.89" gradientUnits="userSpaceOnUse"><stop stop-color="#DFFEFF"/><stop offset="1" stop-color="#01B0F9"/></linearGradient><linearGradient id="paint127_linear_35_2" x1="174.889" y1="378.614" x2="182.731" y2="402.66" gradientUnits="userSpaceOnUse"><stop stop-color="#DFFEFF"/><stop offset="1" stop-color="#01B0F9"/></linearGradient><linearGradient id="paint128_linear_35_2" x1="172.04" y1="366.175" x2="180.404" y2="406.035" gradientUnits="userSpaceOnUse"><stop stop-color="#DFFEFF"/><stop offset="1" stop-color="#01B0F9"/></linearGradient><linearGradient id="paint129_linear_35_2" x1="173.426" y1="367.493" x2="208.102" y2="395.896" gradientUnits="userSpaceOnUse"><stop stop-color="#01B3F9"/><stop offset="1" stop-color="#015BEA"/></linearGradient><linearGradient id="paint130_linear_35_2" x1="203.272" y1="384.257" x2="201.442" y2="366.092" gradientUnits="userSpaceOnUse"><stop stop-color="#F6FBFF"/><stop offset="1" stop-color="#3D6DFF"/></linearGradient><linearGradient id="paint131_linear_35_2" x1="196.139" y1="379.734" x2="195.093" y2="372.023" gradientUnits="userSpaceOnUse"><stop stop-color="#01B3F9"/><stop offset="1" stop-color="#015BEA"/></linearGradient><linearGradient id="paint132_linear_35_2" x1="198.83" y1="379.369" x2="197.784" y2="371.658" gradientUnits="userSpaceOnUse"><stop stop-color="#01B3F9"/><stop offset="1" stop-color="#015BEA"/></linearGradient><linearGradient id="paint133_linear_35_2" x1="201.519" y1="379.004" x2="200.474" y2="371.293" gradientUnits="userSpaceOnUse"><stop stop-color="#01B3F9"/><stop offset="1" stop-color="#015BEA"/></linearGradient><linearGradient id="paint134_linear_35_2" x1="204.208" y1="378.639" x2="203.163" y2="370.929" gradientUnits="userSpaceOnUse"><stop stop-color="#01B3F9"/><stop offset="1" stop-color="#015BEA"/></linearGradient><linearGradient id="paint135_linear_35_2" x1="206.898" y1="378.275" x2="205.852" y2="370.564" gradientUnits="userSpaceOnUse"><stop stop-color="#01B3F9"/><stop offset="1" stop-color="#015BEA"/></linearGradient><linearGradient id="paint136_linear_35_2" x1="209.587" y1="377.91" x2="208.542" y2="370.2" gradientUnits="userSpaceOnUse"><stop stop-color="#01B3F9"/><stop offset="1" stop-color="#015BEA"/></linearGradient><radialGradient id="paint122_radial_35_2" cx="0" cy="0" r="1" gradientUnits="userSpaceOnUse" gradientTransform="translate(207.064 378.552) scale(24.0681)"><stop stop-color="#419DFF"/><stop offset=".526" stop-color="#1D4CD4"/><stop offset="1" stop-color="#08137A"/></radialGradient></defs></svg>