<svg xmlns="http://www.w3.org/2000/svg" width="169" height="138" fill="none"><path d="M4.764 128.484A4.761 4.761 0 000 133.242 4.76 4.76 0 004.764 138a4.761 4.761 0 004.764-4.758 4.748 4.748 0 00-4.764-4.758zm31.899 0a4.761 4.761 0 00-4.764 4.758A4.76 4.76 0 0036.663 138a4.761 4.761 0 004.764-4.758 4.748 4.748 0 00-4.764-4.758zm31.898 0a4.761 4.761 0 00-4.764 4.758A4.76 4.76 0 0068.561 138c2.62 0 4.765-2.141 4.765-4.758a4.762 4.762 0 00-4.764-4.758zm31.878 0a4.761 4.761 0 00-4.765 4.758A4.761 4.761 0 00100.44 138a4.76 4.76 0 004.764-4.758c.021-2.638-2.122-4.758-4.764-4.758zm31.898 0a4.76 4.76 0 00-4.764 4.758 4.76 4.76 0 004.764 4.758 4.76 4.76 0 004.764-4.758 4.748 4.748 0 00-4.764-4.758zm31.899 0a4.76 4.76 0 00-4.764 4.758 4.76 4.76 0 004.764 4.758 4.76 4.76 0 004.764-4.758 4.762 4.762 0 00-4.764-4.758zM4.764 102.792A4.761 4.761 0 000 107.55c0 2.616 2.144 4.757 4.764 4.757a4.76 4.76 0 004.764-4.757 4.761 4.761 0 00-4.764-4.758zm31.899 9.515a4.76 4.76 0 004.764-4.757 4.761 4.761 0 00-4.764-4.758 4.761 4.761 0 00-4.764 4.758 4.76 4.76 0 004.764 4.757zm31.898 0a4.76 4.76 0 004.765-4.757 4.761 4.761 0 00-4.764-4.758 4.761 4.761 0 00-4.765 4.758 4.76 4.76 0 004.764 4.757zm31.877 0a4.76 4.76 0 004.765-4.757 4.761 4.761 0 00-4.765-4.758 4.76 4.76 0 00-4.764 4.758 4.76 4.76 0 004.764 4.757zm31.899-9.515a4.76 4.76 0 00-4.764 4.758c0 2.616 2.144 4.757 4.764 4.757a4.76 4.76 0 004.764-4.757 4.76 4.76 0 00-4.764-4.758zm31.899 0a4.76 4.76 0 00-4.764 4.758c0 2.616 2.143 4.757 4.764 4.757A4.76 4.76 0 00169 107.55c0-2.617-2.144-4.758-4.764-4.758zM4.764 77.1A4.761 4.761 0 000 81.856a4.761 4.761 0 004.764 4.758 4.761 4.761 0 004.764-4.758A4.747 4.747 0 004.764 77.1zm31.899 9.515a4.761 4.761 0 004.764-4.758 4.761 4.761 0 00-4.764-4.758 4.761 4.761 0 00-4.764 4.758 4.761 4.761 0 004.764 4.758zm31.898 0a4.761 4.761 0 004.765-4.758 4.761 4.761 0 00-4.764-4.758 4.761 4.761 0 00-4.765 4.758 4.761 4.761 0 004.764 4.758zm31.877 0a4.761 4.761 0 004.765-4.758 4.761 4.761 0 00-4.765-4.758 4.761 4.761 0 00-4.764 4.758 4.761 4.761 0 004.764 4.758zm31.899-9.515a4.76 4.76 0 00-4.764 4.757 4.761 4.761 0 004.764 4.758 4.76 4.76 0 004.764-4.758 4.747 4.747 0 00-4.764-4.758zm31.899 0a4.76 4.76 0 00-4.764 4.757 4.76 4.76 0 004.764 4.758A4.76 4.76 0 00169 81.857a4.761 4.761 0 00-4.764-4.758zM4.764 51.385A4.761 4.761 0 000 56.143 4.761 4.761 0 004.764 60.9a4.761 4.761 0 004.764-4.758 4.761 4.761 0 00-4.764-4.758zm31.899 0a4.761 4.761 0 00-4.764 4.758 4.761 4.761 0 004.764 4.758 4.761 4.761 0 004.764-4.758 4.761 4.761 0 00-4.764-4.758zm31.898 0a4.761 4.761 0 00-4.764 4.758 4.761 4.761 0 004.764 4.758c2.62 0 4.765-2.141 4.765-4.758s-2.144-4.758-4.764-4.758zm31.877 0a4.761 4.761 0 00-4.764 4.758 4.761 4.761 0 004.764 4.758 4.762 4.762 0 004.765-4.758c.021-2.617-2.123-4.758-4.765-4.758zm31.899 0a4.76 4.76 0 00-4.764 4.758 4.761 4.761 0 004.764 4.758 4.76 4.76 0 004.764-4.758 4.76 4.76 0 00-4.764-4.758zm31.899 0a4.76 4.76 0 00-4.764 4.758 4.76 4.76 0 004.764 4.758A4.76 4.76 0 00169 56.143c0-2.617-2.144-4.758-4.764-4.758zM4.764 25.693A4.761 4.761 0 000 30.45c0 2.616 2.144 4.757 4.764 4.757a4.761 4.761 0 004.764-4.757 4.761 4.761 0 00-4.764-4.758zm31.899 9.515a4.761 4.761 0 004.764-4.757 4.761 4.761 0 00-4.764-4.758 4.761 4.761 0 00-4.764 4.758 4.761 4.761 0 004.764 4.757zm31.898 0a4.761 4.761 0 004.765-4.757 4.761 4.761 0 00-4.764-4.758 4.761 4.761 0 00-4.765 4.758 4.761 4.761 0 004.764 4.757zm31.878 0a4.761 4.761 0 004.764-4.757 4.761 4.761 0 00-4.764-4.758 4.761 4.761 0 00-4.765 4.758 4.761 4.761 0 004.765 4.757zm31.898-9.515a4.76 4.76 0 00-4.764 4.758c0 2.616 2.144 4.757 4.764 4.757a4.76 4.76 0 004.764-4.757 4.76 4.76 0 00-4.764-4.758zm31.899 0a4.76 4.76 0 00-4.764 4.758c0 2.616 2.143 4.757 4.764 4.757A4.76 4.76 0 00169 30.451c0-2.617-2.144-4.758-4.764-4.758zM4.764 0C2.144 0 0 2.141 0 4.758a4.761 4.761 0 004.764 4.758 4.761 4.761 0 004.764-4.758A4.761 4.761 0 004.764 0zm31.899 9.516a4.761 4.761 0 004.764-4.758A4.761 4.761 0 0036.663 0a4.761 4.761 0 00-4.764 4.758 4.761 4.761 0 004.764 4.758zm31.898 0a4.761 4.761 0 004.765-4.758A4.761 4.761 0 0068.562 0a4.761 4.761 0 00-4.765 4.758 4.761 4.761 0 004.764 4.758zm31.877 0a4.761 4.761 0 004.765-4.758A4.761 4.761 0 00100.438 0a4.76 4.76 0 00-4.764 4.758 4.76 4.76 0 004.764 4.758zM132.337 0a4.76 4.76 0 00-4.764 4.758 4.761 4.761 0 004.764 4.758 4.76 4.76 0 004.764-4.758A4.76 4.76 0 00132.337 0zm31.899 0a4.76 4.76 0 00-4.764 4.758 4.76 4.76 0 004.764 4.758A4.76 4.76 0 00169 4.758C169 2.14 166.856 0 164.236 0z" opacity=".2" fill="#175CFF"/></svg>