<svg width="1050" height="703" fill="none" xmlns="http://www.w3.org/2000/svg"><g clip-path="url(#clip0)"><path d="M451.133 99.868c-157.409-9.974-213.204 67.647-293.281 148.014-79.934 80.223-116.937 165.07-70.394 285.621 46.544 120.694 156.254 151.338 328.406 151.338 172.298 0 349.654 16.767 439.417-48.856 89.761-65.624 120.405-215.517-9.685-294.004-76.608-46.255-176.923-228.526-394.463-242.113z" fill="#E3DFFF"/><path d="M183.91 657.453c-1.821-22.003-8.953-42.791-15.933-63.428-6.98-20.485-14.87-42.032-15.326-63.883-.151-9.407 4.097-28.678 17.603-25.036 4.552 1.212 7.434 6.22 9.407 10.014 2.731 5.008 4.856 10.47 6.677 15.933 6.979 20.484 8.345 42.335 8.193 63.882 0 16.085-1.214 32.321.152 48.557.153.911 1.518 1.063 1.518 0 0-22.61 1.214-45.217 5.159-67.524 1.973-10.621 4.553-21.093 7.586-31.563 1.063-3.64 4.552-9.406 8.346-10.318 5.615-1.517 12.596.153 14.871 6.222 8.194 22.761 1.214 47.343-6.374 69.345-3.185 9.256-6.371 18.513-10.469 27.466-3.338 7.283-6.676 14.566-9.863 21.85-.91 2.125-1.821 4.249-2.731 6.524-.304.912 1.063 1.367 1.517.456 5.766-13.808 12.898-27.162 17.906-41.274 7.587-21.091 16.084-42.79 15.022-65.703-.152-5.007-1.063-10.015-2.276-14.87-1.214-4.401-2.579-7.739-6.526-10.167-2.731-1.668-6.372-1.821-9.407-1.517-3.945.454-5.311 1.517-7.587 4.855-.759 1.214-2.731 3.035-3.187 4.401-.759 2.579-1.517 5.159-2.275 7.587a321.524 321.524 0 00-4.098 16.388c-2.276 10.015-3.793 20.181-5.007 30.499-1.821 15.782-2.277 31.563-2.277 47.496h1.519c-1.519-18.513 0-37.177-.153-55.842-.303-21.091-2.58-42.183-10.166-61.909-2.732-7.285-6.07-15.933-12.595-20.637-6.827-4.856-14.415.456-18.057 6.374-5.007 7.89-4.704 18.36-3.642 27.313 1.214 10.318 3.642 20.332 6.525 30.196 8.498 29.437 21.699 57.662 24.127 88.464.303.759 1.821.759 1.821-.151z" fill="#F59E0B"/><path d="M183.758 657.15c-.456-4.248-.911-8.346-1.67-12.594-.151-.76-1.517-.607-1.517.152.303 4.248.91 8.346 1.517 12.593.151.912 1.67.608 1.517-.454-.605-4.098-1.213-8.043-1.517-12.139-.456 0-1.063.151-1.517.151.91 3.945 1.366 8.043 1.668 12.14.153 1.061 1.67 1.061 1.519.151z" fill="#F59E0B"/><path d="M162.969 657.757c-6.373-16.994-19.878-29.437-31.865-42.488-6.373-6.978-12.443-14.415-16.692-22.912-4.097-8.041-9.559-20.181-4.097-28.678 4.856-7.436 15.326-1.366 20.485 2.124 6.677 4.552 11.988 10.469 16.995 16.691 13.96 17.146 24.582 37.176 30.5 58.42 1.518 5.159 2.579 10.621 3.491 15.934.151.909 1.668.607 1.516-.456-3.338-20.637-11.228-40.363-22.306-58.117-8.649-13.808-19.271-28.679-33.838-36.569-4.704-2.579-10.925-4.552-15.781-1.367-6.221 4.098-5.159 13.203-3.641 19.423 4.552 17.603 16.995 31.108 29.134 44.005 9.711 10.318 19.422 20.941 24.582 34.446.455.758 1.972.454 1.517-.456zm59.33-114.261c-10.014 15.629-8.193 35.659-11.228 53.26-1.821 10.167-5.464 19.727-7.283 29.893-1.973 10.623-4.098 21.244-6.678 31.865-.303.911 1.214 1.367 1.519.456 2.426-10.166 4.552-20.182 6.373-30.5 1.668-9.56 5.006-18.816 6.979-28.376 1.821-9.104 2.579-18.36 3.338-27.464.911-9.863 2.732-19.727 8.194-28.224.607-1.062-.607-1.822-1.214-.91zm-56.75-22.912c.758 11.379 4.552 22.305 7.132 33.382 2.882 12.291 5.31 24.886 7.89 37.328 2.428 12.14 4.552 24.278 7.132 36.418 2.731 12.442 4.855 25.189 4.855 37.935 0 .91 1.518.91 1.518 0 0-11.532-1.821-22.913-4.098-34.142-2.58-12.593-5.006-25.037-7.435-37.631-2.428-11.988-4.703-24.126-7.436-36.115-2.731-12.291-7.283-24.43-8.041-37.175-.152-.912-1.67-.912-1.517 0z" fill="#F59E0B"/><path d="M127.764 583.858c11.381 10.926 20.788 23.672 29.438 36.722 4.4 6.676 8.345 13.656 12.291 20.637 4.399 7.739 6.979 15.933 10.166 24.279.304.91 1.821.454 1.518-.456-2.884-7.436-5.008-15.022-8.801-22.153-4.097-7.437-8.346-14.871-12.898-22.003-8.801-13.658-18.513-27.01-30.348-38.24-.911-.454-2.125.607-1.366 1.214z" fill="#F59E0B"/><path d="M129.89 604.342c9.257 6.222 19.271 11.079 28.072 17.906.759.607 1.821-.456 1.063-1.061-8.801-6.981-18.968-11.988-28.376-18.21-.759-.455-1.517.76-.759 1.365zm25.34-1.212c3.338 4.4 5.311 10.167 7.284 15.326 2.275 6.372 3.945 13.049 5.462 19.725.153.91 1.67.608 1.518-.455-1.67-6.979-3.338-13.959-5.918-20.637-1.821-5.006-3.794-10.47-7.132-14.718-.455-.76-1.821 0-1.214.759zm49.923-17.602c.454 6.372 3.641 12.291 3.794 18.663 0 .911 1.517.911 1.517 0-.151-6.525-3.338-12.291-3.794-18.663 0-1.063-1.517-1.063-1.517 0zm-29.589-53.413c-2.124 6.676-1.821 13.959-2.731 20.788-.151.91 1.365.91 1.517 0 .911-6.829.607-13.808 2.731-20.486.304-.758-1.213-1.214-1.517-.302zm-11.988 27.619c3.339 4.703 6.07 9.711 9.559 14.414 3.187 4.25 5.767 8.346 6.829 13.657.152.911 1.669.607 1.517-.454-1.063-4.552-2.882-7.892-5.462-11.684-3.793-5.464-7.284-11.23-11.078-16.692-.606-.758-1.972 0-1.365.759zm24.278 18.359c-1.518 9.408-3.035 18.663-3.945 28.072-.153.91 1.366.91 1.517 0 .91-9.256 2.428-18.513 3.945-27.769.152-.758-1.365-1.214-1.517-.303zm40.06-24.127c-3.794 9.862-10.167 18.513-14.566 27.92-.456.911.909 1.669 1.365.758 4.552-9.558 10.926-18.36 14.719-28.223.303-.911-1.214-1.365-1.518-.455z" fill="#F59E0B"/><path d="M756.844 682.097c-2.745-6.795-6.359-12.865-11.418-18.214-6.215-6.793-14.311-11.274-19.804-18.791-5.347-7.371-9.973-15.611-14.454-23.561-2.601-4.624-4.77-9.395-5.637-14.743-.868-5.203-.578-10.552-.29-15.755-.432.144-.722.434-1.155.578 3.468 1.445 6.07 4.192 8.817 6.65 2.746 2.457 6.071 4.336 9.107 6.503 6.938 5.059 13.297 11.853 18.356 18.792 4.77 6.504 8.094 14.02 11.275 21.392 2.746 6.361 5.059 13.587 9.106 19.224.434.578 1.59.29 1.302-.579-5.061-14.598-7.084-30.064-6.65-45.386.145-6.937 1.011-14.021 2.168-20.959 1.012-6.649 2.603-13.443 6.071-19.37h-1.301c1.735 3.182 2.023 6.794 2.746 10.408.724 4.048 2.169 7.806 3.614 11.564 3.181 8.238 4.914 17.201 6.505 25.873 1.735 9.251 2.167 17.924.722 27.319-1.3 8.528-3.614 16.912-5.493 25.441-.144.722.869 1.301 1.301.578 2.602-5.204 4.915-10.407 7.084-15.756 2.313-5.781 3.902-11.852 5.925-17.779 3.181-9.251 8.818-17.634 17.635-22.26 10.552-5.493 34.835-10.986 37.582 6.215.288-.288.722-.578 1.012-.866-16.044-6.794-28.476 8.238-36.571 20.091a301.524 301.524 0 01-17.345 23.127c-2.457 3.036-4.624 6.65-7.516 9.251-2.601 2.313-7.516 5.782-11.13 5.493-.868-.144-.868 1.301 0 1.445 4.771.434 11.564-4.48 14.166-8.094 5.493-7.516 11.996-14.31 17.489-21.826 8.963-12.432 20.959-36.281 40.183-28.187.578.289 1.157-.144 1.013-.868-2.746-17.055-25.007-13.153-36.426-8.527-8.672 3.613-14.743 9.83-18.791 18.212-2.89 5.783-4.337 11.998-6.36 18.068-2.457 7.372-5.781 14.455-9.251 21.393.435.144.869.434 1.301.578 1.879-8.817 4.336-17.635 5.637-26.596 1.303-8.672.868-16.911-.722-25.439-1.589-9.251-3.614-18.502-6.794-27.32-1.445-3.758-2.745-7.516-3.614-11.563-.722-3.614-1.156-7.227-2.889-10.697-.29-.433-1.013-.433-1.301 0-6.65 11.276-7.518 25.873-8.384 38.594-1.013 16.189 1.3 32.956 6.649 48.422.433-.144.867-.433 1.301-.579-4.337-5.925-6.794-13.731-9.685-20.38-3.468-7.805-7.082-15.466-12.287-22.26-4.624-6.071-10.261-11.852-16.332-16.477-3.47-2.747-7.372-4.915-10.698-7.806-2.601-2.313-5.059-4.626-8.382-6.071-.579-.288-1.013 0-1.157.578-.722 9.251-.29 18.214 3.758 26.74 4.192 8.819 9.685 17.201 14.888 25.296 2.313 3.469 4.77 6.649 7.806 9.54 3.324 3.18 7.082 5.637 10.551 8.673 6.504 5.927 11.274 13.153 14.6 21.247 1.155.724 2.457.29 2.167-.576zm-9.829 1.012c-8.238-13.299-14.743-31.222-30.354-37.292-8.384-3.181-18.502-1.446-26.307 2.312-8.817 4.192-15.899 11.708-22.116 19.08-.433.578 0 1.446.724 1.156 13.441-3.902 30.21-4.77 42.64 2.602 5.926 3.469 10.552 9.541 15.322 14.455 3.036 3.324 5.348 8.817 10.118 9.973.867.289 1.301-1.156.434-1.444-3.18-.724-5.349-4.337-7.228-6.794-1.734-2.313-3.758-4.336-5.781-6.505-4.77-5.059-9.541-10.264-16.044-13.153-12.287-5.205-27.175-4.482-39.751-.723.29.433.434.867.722 1.155 11.42-13.441 27.899-27.463 46.979-20.959 7.804 2.747 13.441 9.829 17.778 16.479 4.336 6.505 7.661 13.587 11.853 20.092.289 1.011 1.445.288 1.011-.434z" fill="#624DE3"/><path d="M725.045 620.234c5.782 12.286 16.19 21.391 23.706 32.521 3.758 5.493 6.938 11.708 9.685 17.779 3.468 7.516 2.311 15.178 2.311 23.128 0 .867 1.447.867 1.447 0 0-6.793 1.156-13.877-1.013-20.381-2.313-6.793-6.359-13.298-9.973-19.369-7.228-12.287-18.792-21.538-24.861-34.547-.434-.722-1.591 0-1.302.869zm-19.801 37.144c10.695 5.637 21.103 11.563 28.619 21.392 2.601 3.469 5.203 7.083 7.95 10.407.723 1.012 3.036 4.77 4.625 4.626.868-.144.868-1.59 0-1.446-1.155.146-5.059-6.215-5.637-6.938-2.458-3.18-4.771-6.504-7.228-9.685-6.938-8.961-17.489-14.454-27.463-19.657-.866-.289-1.59.867-.866 1.301z" fill="#624DE3"/><path d="M765.228 617.775c.144 6.359 1.879 12.43 2.602 18.791.868 7.516.144 15.321-1.013 22.838-2.023 13.732-1.155 27.753-4.913 41.34.433 0 1.011.144 1.445.144v-1.59c0-.867-1.445-.867-1.445 0v1.59c0 .867 1.155 1.013 1.445.145 3.614-13.153 3.324-26.741 4.771-40.184.722-7.227 1.733-14.309 1.3-21.681-.29-7.228-2.603-14.166-2.747-21.393 0-1.013-1.445-1.013-1.445 0z" fill="#624DE3"/><path d="M812.205 626.88c-10.986 6.939-19.08 19.08-25.439 30.356-6.072 10.84-11.42 24.138-23.417 29.485-.868.435-.146 1.591.723 1.303 10.695-4.771 16.478-15.901 21.681-25.73 6.65-12.43 15.032-26.307 27.174-33.968.867-.722.145-2.024-.722-1.446zM511.822 373.848c0 8.042-6.525 14.567-14.568 14.567-8.042 0-14.566-6.525-14.566-14.567v-10.167c0-8.041 6.524-14.566 14.566-14.566 8.043 0 14.568 6.525 14.568 14.566v10.167z" fill="#624DE3"/><path d="M660.83 533.48c-4.097-19.727-21.547-72.988-64.035-92.259-42.486-19.271-82.394-3.642-97.114 5.311-14.719 8.953-31.713 43.853-39.452 76.477-7.588 32.625-33.535 32.169-53.716 39.452l9.408 33.991 207.58 1.365.456-5.31c54.323-3.036 40.818-39.302 36.873-59.027zm-212.436 52.198c8.345 0 45.218-27.769 52.804-26.858 3.794 20.333 4.25 31.107 4.705 32.473.455 1.214-55.234 11.076-57.509-5.615z" fill="#7965EF"/><path d="M522.14 456.092c-2.731 12.898-13.657 91.347 5.008 142.939 14.566 1.215 36.417 0 36.417 0-4.25-27.161-12.596-102.273 4.703-145.368-17.146.305-46.128 2.429-46.128 2.429z" fill="#FEF3C7"/><path d="M531.7 432.875c-14.719.911-18.21 16.845-11.533 26.708 6.676 9.862 19.423 1.821 21.698-3.187 15.934 15.022 36.722 1.517 41.123-20.941 0-1.82-25.341-6.676-51.288-2.58z" fill="#FEF3C7"/><path d="M573.732 351.846c-.607-14.869-15.933-43.245-52.199-41.728-25.796 1.973-28.983 26.403-28.983 26.403-.91 2.731-5.462 8.498-5.462 8.498-1.366-11.382 5.918-41.881 38.541-42.64 36.722-.909 54.172 27.769 54.93 48.406-3.033 5.008-6.827 1.061-6.827 1.061z" fill="#624DE3"/><path d="M501.807 323.775c-12.444 8.497-19.879 22.609-13.505 36.721 6.22 14.111 8.041 20.182 1.972 31.258-8.497 15.478-12.139 29.893-5.766 43.094 38.845-5.311 55.991-9.712 55.991-9.712s-15.022-103.031-38.692-101.361z" fill="#171347"/><path d="M559.467 394.485s9.56 28.983 10.47 41.274c.76 11.228-36.266 18.663-38.997 6.979-2.731-13.959-6.828-37.783-6.828-37.783" fill="#C97440"/><path d="M562.653 406.623l-3.034-12.138-35.205 10.319s1.214 7.283 2.884 16.539c2.58.455 5.311.758 8.042.607 11.381-.456 21.244-6.525 27.313-15.327z" fill="#AB5D2D"/><path d="M497.86 380.373c.911 19.271 17.147 34.293 36.419 33.384 19.271-.91 34.293-17.146 33.382-36.418l-1.668-36.873c-.912-19.271-17.148-34.293-36.419-33.383-19.27.911-34.294 17.147-33.382 36.419l1.668 36.871z" fill="#C97440"/><path d="M543.99 342.136c-4.401-2.428-10.166-3.489-14.871-1.063-1.668.912-.151 3.491 1.519 2.58 3.64-1.82 8.345-.758 11.835 1.063 1.668 1.063 3.187-1.67 1.517-2.58zm-42.184 5.007c2.126-1.973 5.008-2.733 7.89-2.126 1.822.456 2.733-2.58.761-2.882-3.794-.759-7.892.151-10.775 2.882-1.365 1.214.759 3.338 2.124 2.126zM522.746 374c-.304 0-.607-.152-.758-.303l-6.829-6.069c-.303-.304-.456-.607-.303-.912.151-.302.303-.758.607-.909l6.827-3.794c.608-.304 1.215-.151 1.519.456.303.607.151 1.212-.456 1.517l-5.463 3.035 5.615 5.006c.455.456.455 1.063.151 1.67-.303.151-.607.303-.91.303zm2.429 9.713c-1.821 0-3.643-.456-5.008-1.519-.456-.302-.607-1.061-.305-1.516.305-.456 1.063-.608 1.519-.305 1.973 1.367 5.159 1.367 7.435.153 1.365-.76 2.883-2.277 2.73-5.312 0-.605.456-1.213 1.063-1.213s1.214.455 1.214 1.062c.152 3.338-1.214 5.917-3.945 7.436a9.862 9.862 0 01-4.703 1.214z" fill="#31241C"/><path d="M530.334 361.406c.758 2.124 3.338 3.338 5.462 2.428 2.124-.76 3.338-3.339 2.428-5.463-.758-2.124-3.338-3.338-5.463-2.429-2.124.76-3.187 3.34-2.427 5.464zm-25.341 1.517c.76 2.124 3.339 3.338 5.463 2.428 2.124-.758 3.338-3.338 2.429-5.463-.761-2.124-3.34-3.338-5.464-2.427-2.275.758-3.338 3.338-2.428 5.462z" fill="#1A191F"/><path d="M506.056 361.86c-.153 0-.304 0-.456-.151l-4.096-2.58c-.456-.304-.607-.911-.305-1.365.305-.456.912-.607 1.366-.305l4.098 2.58c.454.304.607.911.303 1.365-.303.305-.607.456-.91.456zm30.043-1.364a.833.833 0 01-.758-.455c-.303-.454-.151-1.062.304-1.366l4.4-3.034c.455-.304 1.062-.153 1.365.303.304.456.153 1.063-.303 1.366l-4.401 3.035c-.151 0-.302.151-.607.151z" fill="#1A191F"/><path d="M601.045 380.677c-5.767-12.444 1.365-20.182-1.67-32.169-2.731-10.47-15.022-10.016-21.547-24.886-9.863-22.608-60.241-42.942-78.905 2.884 20.939-14.113 42.336-6.829 50.378 3.642 16.387 21.091-.456 30.044 5.918 42.638 4.552 9.104 7.587 15.326 1.669 29.134-5.917 13.809 2.427 27.01 2.427 27.01 19.576-2.124 41.578-4.096 61.608-7.434-.153-33.687-14.112-28.376-19.878-40.819z" fill="#171347"/><path d="M512.276 553.661c-16.994 1.517-23.521 6.525-38.845 14.567-15.175 8.043-18.513 9.862-14.871 11.381-8.953.607-3.794 5.31 2.58 3.338-4.25 1.821 1.668 3.794 10.014.607 2.125 3.338 12.898 1.821 19.727-2.124 6.827-3.947 23.217-7.132 38.239-2.126 1.821-9.255-3.946-25.34-3.946-25.34l-12.898-.303z" fill="#C97440"/><path d="M523.201 553.813c9.104-1.973 34.901-4.097 50.076-3.185.909 11.986-5.615 36.113-5.615 36.113l-40.514-8.952c-.153 0 1.819-12.746-3.947-23.976z" fill="#624DE3"/><path d="M522.443 554.117c18.058-2.58 36.418-2.58 54.626-3.034 8.802-.304 17.299-1.214 25.949-2.277 8.345-.909 18.056.91 26.099 3.187.91.303 1.366-1.214.456-1.517-7.285-2.277-15.934-3.642-23.672-3.491-3.794.152-7.588.912-11.382 1.366-5.31.758-10.621.758-15.78 1.062-18.967.607-37.783.456-56.598 3.187-1.215.151-.761 1.668.302 1.517zm80.727-46.584a318.742 318.742 0 012.731 37.935c0 .91 1.518.91 1.518 0 0-12.898-.911-25.644-2.732-38.39-.152-.911-1.669-.455-1.517.455zm-77.389 71.013c5.462 0 10.622 2.428 15.781 3.794 6.222 1.67 12.291 3.793 18.36 5.463 12.444 3.49 25.493 5.614 38.391 6.372 20.637 1.214 45.522.153 61-15.173.758-.759-.305-1.822-1.063-1.063-16.236 16.085-42.942 16.085-64.186 14.416-12.747-.911-25.492-3.642-37.783-7.131-5.463-1.67-10.925-3.34-16.54-5.008-4.552-1.366-9.105-3.338-13.96-3.187-1.062 0-1.062 1.517 0 1.517zm-30.347-86.642c-1.368 4.096-.912 8.497-.912 12.746.151 5.767.456 11.684.759 17.451.304 5.766.455 11.53.911 17.145.454 5.311 2.427 10.319 2.731 15.478 0 .91 1.517.91 1.517 0-.303-4.855-2.124-9.256-2.58-14.112a276.307 276.307 0 01-.91-15.781c-.304-5.31-.607-10.622-.758-15.933-.153-5.31-1.063-11.532.758-16.692.303-.758-1.214-1.212-1.516-.302zm23.064-51.895c-2.428 8.344-4.097 19.118 5.31 23.822 3.338 1.669 7.283.911 10.47-.607 2.277-1.062 4.25-2.731 6.222-4.4 1.973-1.669 2.731.91 4.401 2.124 13.808 9.863 32.016-3.793 36.569-17.45.304-.91-1.215-1.365-1.517-.456-4.857 14.568-25.796 27.92-37.783 13.05a.735.735 0 00-1.063 0c-5.008 4.552-11.532 9.864-18.208 5.615-7.437-4.553-5.008-14.567-3.187-21.244.456-.91-1.063-1.366-1.214-.454zm-48.102 144.762c4.855-.911 8.649-3.794 12.594-6.373 5.615-3.49 11.837-5.464 17.754-7.89.91-.305.456-1.822-.455-1.519-5.008 2.126-10.014 3.794-14.871 6.222-5.159 2.58-9.711 7.132-15.629 8.042-.758.304-.303 1.67.607 1.518zm-10.774-.003c12.14-5.159 23.216-12.291 35.659-16.692.91-.303.456-1.821-.456-1.517-12.594 4.401-23.822 11.684-35.961 16.843-.912.456-.152 1.669.758 1.366zm-2.73-3.643c4.703-2.882 10.167-4.247 15.175-6.827 4.855-2.58 9.711-5.159 14.718-7.436.911-.456.153-1.67-.759-1.366-5.008 2.276-9.863 4.855-14.719 7.435-4.855 2.58-10.319 3.947-15.174 6.829-.758.607 0 1.821.759 1.365zm78.753-112.134c.454 2.731 4.247 2.58 5.613.455.76-1.215 0-2.58-1.061-3.187-1.366-.759-3.187-.607-4.098.607-.607.758.76 1.518 1.367.758.605-.909 3.489 0 2.427 1.063-.759.759-2.429.91-2.58-.303-.454-.76-1.821-.304-1.668.607zm-2.126 11.229c-.454 2.731 2.731 3.489 4.552 1.972.912-.758 1.366-2.275.608-3.338-.759-1.063-2.429-.911-3.49-.607-.911.303-.607 1.821.456 1.517.605-.152 1.365-.454 1.819 0 .456.304-.151 1.063-.454 1.365-.607.456-2.125.76-1.972-.454.151-.911-1.366-1.365-1.519-.455zm-.91 14.566c.152 3.035 4.552 1.821 5.008-.454.607-2.733-4.401-4.401-4.856-1.366-.152.91 1.367 1.366 1.518.454.152-1.214 1.821-.302 1.821.607 0 .759-1.972 1.67-2.125.759.153-.91-1.366-.91-1.366 0zm-29.437 83.002c-.152 2.276.151 4.856.911 6.98.303.91 1.82.456 1.517-.456-.759-1.972-1.063-4.401-.91-6.524 0-.91-1.518-.91-1.518 0z" fill="#1F0E03"/><path d="M522.14 554.27c2.883 1.974 3.034 5.919 3.794 8.953 1.061 4.098 1.82 9.104 0 13.05-.456.911.91 1.669 1.365.76 1.973-4.553 1.215-9.56.152-14.264-.91-3.642-1.366-7.587-4.552-9.864a.781.781 0 00-.759 1.365zm-36.723-171.622c-2.428 17.755 23.824 17.755 35.052 17.148.91 0 .91-1.517 0-1.517-10.016.454-35.81.91-33.535-15.326.152-.912-1.365-1.366-1.517-.305z" fill="#1F0E03"/><path d="M529.271 398.886c0 2.58-2.579 4.552-5.615 4.552-3.033 0-5.613-1.972-5.613-4.552 0-2.58 2.427-4.552 5.613-4.552 3.187 0 5.615 1.972 5.615 4.552z" fill="#FFBC45"/><path d="M525.629 302.531c-18.665.455-28.981 10.471-34.141 21.244 1.82.151 3.641.758 5.311 1.518 3.794-6.678 11.228-13.961 24.885-15.024 36.265-1.668 51.592 26.859 52.199 41.73 0 0 3.794 3.945 6.676-.911-.758-20.789-18.209-49.467-54.93-48.557z" fill="#624DE3"/><path d="M592.244 373.848c0 8.042-6.525 14.567-14.567 14.567-8.043 0-14.568-6.525-14.568-14.567v-10.167c0-8.041 6.525-14.566 14.568-14.566 8.042 0 14.567 6.525 14.567 14.566v10.167z" fill="#624DE3"/><path d="M588.905 372.332c-.607 9.864-13.808 12.139-17.45 2.883-1.063-2.73-.456-6.677-.456-9.56 0-10.167 13.961-11.835 17.45-2.882 1.063 2.731.456 6.676.456 9.559 0 .911 1.517.911 1.517 0 0-6.069.607-11.987-5.16-15.781-6.978-4.552-15.324 1.517-15.78 8.953-.304 5.918-.304 12.14 5.159 15.781 6.981 4.552 15.327-1.517 15.781-8.953 0-1.062-1.517-1.062-1.517 0z" fill="#1F0E03"/><path d="M417.741 584.617h116.69c5.31 0 6.524 10.772-2.429 10.772H264.331c-8.041-16.085-44.156-114.564-47.796-123.82-3.643-9.255-.305-20.029 14.263-20.029h102.576c10.774 0 22.609 1.821 30.197 18.208 7.586 16.388 54.17 114.869 54.17 114.869z" fill="#99ABCE"/><path d="M534.733 594.933c.304-.151.607-.302.91-.455h.153c4.552-2.58 3.033-9.863-1.366-9.863H417.741s0-.152-.152-.152c0-.151-.151-.304-.151-.455-.456-.91-1.214-2.58-2.428-5.008-10.014-21.242-44.915-95.141-51.288-109.252-7.436-16.389-19.423-18.21-30.197-18.21h-9.56c10.774 0 22.609 1.821 30.197 18.21 7.436 16.387 54.02 114.867 54.02 114.867l4.097 10.47s5.008.151 13.049.304h106.674c.607 0 1.061 0 1.517-.153.304 0 .607-.151.758-.151.153 0 .305 0 .456-.152z" fill="#49687A"/><path d="M320.78 524.981c2.883 7.283-.607 13.201-7.738 13.201-7.285 0-15.478-5.918-18.513-13.201-2.883-7.285.607-13.202 7.738-13.202 7.284 0 15.629 5.917 18.513 13.202z" stroke="#1F0E03" stroke-width="1.509" stroke-miterlimit="10"/><path d="M671.299 603.737H250.371v66.765c46.129 9.865 108.495 16.996 169.797 17.755 83.913 1.061 171.013.151 251.131-3.794v-80.726z" fill="#171347"/><path d="M688.75 602.068c0 3.946-3.187 7.284-7.283 7.284H240.205c-3.945 0-7.283-3.187-7.283-7.284 0-3.946 3.187-7.284 7.283-7.284h441.413c3.945.151 7.132 3.338 7.132 7.284z" fill="#241E6F"/><g filter="url(#filter0_d)"><path d="M438.226 254.731c0 32.169-26.098 58.268-58.268 58.268h-213.65c-32.17 0-58.269-26.099-58.269-58.268V177.95c0-32.169 26.099-58.268 58.269-58.268h213.801c32.17 0 58.269 26.099 58.269 58.268v76.781h-.152z" fill="#DEF4ED"/></g><path d="M256.89 150.343h4.474v10.693h10.431v-10.693h4.508v24.513h-4.508v-9.871h-10.431v9.871h-4.474v-24.513zm24.129 0h16.287v3.948h-11.812v6.285h11.154v3.948h-11.154v6.383h11.812v3.949h-16.287v-24.513zm19.569 0h4.475v20.564h10.496v3.949h-14.971v-24.513zm17.865 0h9.147c1.669 0 3.149.307 4.442.921 1.295.592 2.294 1.47 2.994 2.632.724 1.163 1.086 2.556 1.086 4.179 0 1.601-.362 2.983-1.086 4.146-.723 1.162-1.732 2.051-3.027 2.665-1.271.614-2.74.921-4.409.921h-4.672v9.049h-4.475v-24.513zm9.213 11.516c1.208 0 2.172-.34 2.896-1.02.723-.702 1.085-1.623 1.085-2.764 0-1.141-.362-2.051-1.085-2.731-.724-.702-1.688-1.053-2.896-1.053h-4.738v7.568h4.738zm13.67-11.516h4.376l-.296 17.076h-3.784l-.296-17.076zm-.461 21.847c0-.745.252-1.371.757-1.875s1.13-.757 1.875-.757c.769 0 1.404.253 1.909.757.505.504.757 1.13.757 1.875 0 .768-.252 1.404-.757 1.909-.505.504-1.14.757-1.909.757-.745 0-1.37-.253-1.875-.757a2.658 2.658 0 01-.757-1.909zm66.245 23.513H257.958v9.712H407.12v-9.712zm-20.334 23.52H257.958v9.711h128.828v-9.711zm-43.398 23.519h-85.43v9.712h85.43v-9.712zm52.655 23.521H257.958v9.711h138.085v-9.711z" fill="#B45309"/><path d="M228.369 272.335c-4.401-11.076-19.878-18.967-27.617-18.815h-26.555c-8.65.758-23.216 7.739-27.617 18.815 10.319 10.319 24.886 16.692 40.969 16.692 15.934 0 30.349-6.373 40.82-16.692z" fill="#31241C"/><path d="M176.626 230.91s-2.579 20.94-4.249 32.624c-1.214 8.65 29.59 11.078 30.651 1.821.76-11.077 1.821-29.741 1.821-29.741" fill="#C97440"/><path d="M175.26 240.47l1.214-9.56 28.073 4.704s-.304 5.766-.76 12.898c-1.973.607-4.097 1.062-6.221 1.214-8.65.758-16.843-2.882-22.306-9.256z" fill="#AB5D2D"/><path d="M222.755 214.368c1.062 14.871-10.014 27.92-25.038 28.983-14.871 1.063-27.92-10.015-28.981-25.037l-2.126-28.528c-1.061-14.87 10.016-27.92 25.038-28.982 14.871-1.062 27.92 10.015 28.983 25.037l2.124 28.527z" fill="#C97440"/><path d="M185.883 192.974c3.793-.759 6.829-2.428 9.104-5.615 1.063-1.517-1.517-3.034-2.58-1.517-1.821 2.58-4.4 3.642-7.283 4.249-1.972.303-1.214 3.186.759 2.883zm30.499-5.918c-2.124-.455-3.491-1.365-4.401-3.338-.91-1.669-3.489-.152-2.58 1.518 1.366 2.579 3.49 4.097 6.222 4.704 1.973.303 2.731-2.58.759-2.884zm-13.507 25.039c-.304 0-.607-.152-.758-.304-.456-.455-.456-1.214-.153-1.669l3.642-4.097-4.096-1.669c-.607-.303-.912-.91-.607-1.517.302-.607.909-.911 1.516-.607l5.615 2.276c.303.152.607.455.607.759.152.303 0 .758-.304 1.062l-4.703 5.311a.836.836 0 01-.759.455zm-6.826 11.531c-.305 0-.759-.152-.912-.455-.303-.456-.303-1.214.305-1.518 4.552-3.186 8.497-4.4 11.986-3.793.607.151 1.063.759.912 1.365-.152.607-.759 1.063-1.366.911-2.884-.607-6.222.607-10.167 3.338-.304 0-.456.152-.758.152z" fill="#31241C"/><path d="M195.896 202.837c-.454 1.82-2.275 2.883-3.945 2.427-1.82-.455-2.882-2.276-2.427-3.945.454-1.821 2.276-2.883 3.945-2.428 1.822.304 2.883 2.125 2.427 3.946zm19.727-1.213c-.456 1.821-2.277 2.883-3.945 2.427-1.821-.455-2.884-2.276-2.428-3.945.456-1.821 2.275-2.883 3.945-2.428 1.821.456 2.882 2.125 2.428 3.946z" fill="#1A191F"/><path d="M173.894 211.335c1.214 5.311-1.973 10.622-7.283 11.836-5.311 1.214-10.622-1.973-11.836-7.284l-.759-3.035c-1.214-5.311 1.973-10.622 7.284-11.835 5.311-1.214 10.621 1.972 11.836 7.283l.758 3.035z" fill="#C97440"/><path d="M159.024 202.079c-2.276-6.525-13.505-33.383 3.186-34.142 1.063-10.47 15.629-16.084 33.991-19.574 18.208-3.642 29.589 5.007 28.222 13.505-1.365 8.497-12.593 11.683-21.546 9.104-2.58 9.256-14.72 6.069-17.451 4.249-2.124 8.952-12.291 11.077-11.076 17.298 1.214 6.221 1.669 12.595 1.972 13.809.304 1.213-5.159 3.793-6.22 1.213-1.214-2.427-5.767-7.131-11.078-5.462z" fill="#31241C"/><path d="M209.553 348.355c11.077 2.124 4.704-35.356 4.704-41.123-.303.305-.454.456-.759.759 23.824.153 47.648.304 71.469 0 16.997-.151 34.143-.607 51.137-.607 10.471 0 20.941-.454 31.411-.759 11.228-.454 22.458-.454 33.384-3.338 20.939-5.615 28.527-27.617 30.651-47.04.151-.91-1.366-.91-1.517 0-1.67 14.417-5.919 30.197-17.603 39.757-8.8 7.283-21.547 8.193-32.473 8.649-10.772.456-21.698.911-32.472 1.063-34.142.455-68.435.758-102.576.758-10.471 0-21.092 0-31.562-.151-.456 0-.758.302-.758.758 0 4.855 5.006 41.121-2.733 39.604-.91 0-1.365 1.366-.303 1.67zm221.238-157.051c0 18.816.76 37.784-.454 56.599 0 .912 1.517.912 1.517 0 1.214-18.815.455-37.783.455-56.599 0-.91-1.518-.91-1.518 0z" fill="#1F0E03"/><g filter="url(#filter1_d)"><path d="M1020 437.579c0 33.382-27.01 60.392-60.392 60.392H737.915c-33.384 0-60.393-27.01-60.393-60.392v-79.513c0-33.383 27.009-60.392 60.393-60.392h221.693c33.382 0 60.392 27.009 60.392 60.392v79.513z" fill="#FFF2D8"/></g><g filter="url(#filter2_d)"><path d="M745.956 532.569c-10.318 9.862-18.815 9.862-18.815 0v-35.661c0-9.863 8.497-17.904 18.815-17.904h37.633c10.317 0 10.317 8.041 0 17.904-10.318 9.865-27.314 25.949-37.633 35.661z" fill="#FFF2D8"/></g><path d="M728.531 337.311h-6.35v-3.948h17.109v3.948h-6.251v20.565h-4.508v-20.565zm13.49-3.948h4.475v10.693h10.43v-10.693h4.508v24.513h-4.508v-9.871h-10.43v9.871h-4.475v-24.513zm30.581 0h5.791l8.456 24.513h-4.87l-1.744-5.265h-9.476l-1.777 5.265h-4.837l8.457-24.513zm6.35 15.3l-3.455-10.332-3.455 10.332h6.91zm10.624-15.3h3.488l11.681 15.727v-15.727h4.475v24.513h-3.521l-11.648-16.024v16.024h-4.475v-24.513zm24.388 0h4.475v10.891l9.213-10.891h5.626l-8.489 10.068 8.786 14.445h-5.265l-6.581-10.793-3.29 3.916v6.877h-4.475v-24.513zm30.763 24.907c-1.93 0-3.608-.361-5.034-1.085-1.403-.724-2.501-1.634-3.29-2.731-.79-1.119-1.295-2.28-1.514-3.488l4.212-1.119c.329 1.339.987 2.381 1.974 3.126.987.747 2.226 1.119 3.718 1.119 1.14 0 2.061-.285 2.764-.856.724-.569 1.086-1.25 1.086-2.04 0-.724-.264-1.349-.79-1.875-.505-.548-1.196-.91-2.073-1.086l-3.685-.724c-1.953-.372-3.488-1.217-4.607-2.533-1.118-1.317-1.678-2.917-1.678-4.804 0-1.316.374-2.522 1.119-3.62a8.023 8.023 0 013.027-2.632 8.942 8.942 0 014.047-.954c1.821 0 3.368.308 4.64.921 1.271.615 2.258 1.394 2.961 2.336.724.922 1.206 1.899 1.448 2.929l-4.179 1.316c-.461-1.185-1.086-2.029-1.876-2.534-.789-.526-1.788-.789-2.994-.789-.679 0-1.294.143-1.842.427a3.456 3.456 0 00-1.251 1.119c-.284.439-.427.888-.427 1.349 0 .724.241 1.361.723 1.908.483.527 1.152.867 2.008 1.02l3.487.757c2.127.461 3.773 1.339 4.936 2.633 1.163 1.273 1.744 2.796 1.744 4.573 0 1.273-.351 2.468-1.053 3.586-.703 1.119-1.711 2.031-3.027 2.731-1.295.682-2.819 1.02-4.574 1.02zm14.098-24.907h4.376l-.296 17.076h-3.784l-.296-17.076zm-.461 21.847c0-.745.253-1.37.757-1.875.505-.503 1.13-.757 1.875-.757.768 0 1.405.254 1.909.757.505.505.756 1.13.756 1.875 0 .769-.251 1.405-.756 1.909-.504.505-1.141.757-1.909.757-.745 0-1.37-.252-1.875-.757a2.66 2.66 0 01-.757-1.909zm13.992 25.163H717.732v10.014h154.624v-10.014zm-21.092 24.429H717.732v10.014h133.532v-10.014zm-44.915 24.432h-88.617v10.015h88.617v-10.015z" fill="#B45309"/><path d="M907.864 459.583c4.552-11.382 20.486-19.574 28.679-19.574h27.466c9.104.909 24.126 8.041 28.678 19.574-10.774 10.621-25.796 17.299-42.488 17.299a60.264 60.264 0 01-42.335-17.299z" fill="#31241C"/><path d="M961.426 416.639s2.58 21.698 4.401 33.838c1.365 8.953-30.802 11.379-31.714 1.821-.91-11.381-1.821-30.804-1.821-30.804" fill="#C97440"/><path d="M962.793 426.503l-1.367-10.014-29.134 4.855s.304 5.918.76 13.354c1.973.607 4.248 1.063 6.372 1.214 9.257.91 17.754-2.884 23.369-9.409z" fill="#AB5D2D"/><path d="M913.63 399.493c-1.214 15.478 10.47 28.983 25.947 30.046 15.478 1.212 28.983-10.472 30.044-25.949l2.277-29.589c1.214-15.477-10.47-28.983-25.948-30.045-15.477-1.214-28.982 10.469-30.045 25.947l-2.275 29.59z" fill="#C97440"/><path d="M952.173 374.455c-1.519-2.884-4.857-5.007-8.195-4.552-1.972.152-1.972 3.187 0 3.034 2.429-.303 4.553 1.063 5.615 3.035.759 1.67 3.49.152 2.58-1.517zm-30.501-.909c1.366-1.366 3.794-2.277 5.615-1.821 1.822.455 2.731-2.429.759-2.883-2.882-.76-6.525.454-8.497 2.58-1.366 1.365.758 3.489 2.123 2.124zm12.596 23.366c-.304 0-.607-.151-.911-.303l-4.855-5.463c-.305-.303-.305-.607-.305-1.063.152-.303.305-.605.607-.758l5.767-2.427c.607-.304 1.214 0 1.517.605.304.607 0 1.214-.608 1.519l-4.399 1.821 3.794 4.248c.454.456.303 1.214-.153 1.67 0 .151-.303.151-.454.151zm-.457 15.63c-3.187 0-5.159-3.338-6.525-10.165 0-.304 0-.758.303-1.063.304-.303.607-.455.911-.302 1.973.302 4.401.607 7.89.607 1.822 0 3.794 0 6.069-.153.456 0 .76.153 1.063.607.151.304.151.758 0 1.214-3.642 6.222-6.827 9.255-9.711 9.255zm-3.945-8.951c.909 4.248 2.277 6.676 3.945 6.676 1.063 0 3.186-.911 6.676-6.373-4.097.151-7.283.151-10.621-.303z" fill="#31241C"/><path d="M941.399 387.353c.454 1.822 2.275 2.883 4.097 2.429 1.821-.456 2.882-2.277 2.428-4.098-.456-1.822-2.277-2.883-4.098-2.429-1.82.456-2.882 2.277-2.427 4.098zm-20.486-1.212c.456 1.82 2.275 2.882 4.096 2.427 1.822-.454 2.884-2.276 2.429-4.097-.456-1.821-2.276-2.884-4.097-2.428-1.67.456-2.884 2.277-2.428 4.098z" fill="#1A191F"/><path d="M964.311 396.155c-1.366 5.464 1.972 10.926 7.436 12.291 5.462 1.366 10.925-1.972 12.291-7.434l.758-3.187c1.366-5.464-1.973-10.926-7.436-12.291-5.462-1.365-10.926 1.973-12.291 7.434l-.758 3.187z" fill="#C97440"/><path d="M979.638 386.595c2.429-6.827 14.113-34.596-3.338-35.507-1.062-10.926-16.236-16.69-35.204-20.333-18.967-3.642-30.803 5.159-29.286 13.961 1.366 8.8 13.049 12.138 22.305 9.407 2.58 9.56 15.326 6.373 18.057 4.401 2.126 9.256 12.596 11.532 11.533 18.057-1.214 6.525-1.668 13.05-1.973 14.415-.302 1.366 5.311 3.945 6.525 1.214 1.214-2.428 5.918-7.283 11.381-5.615z" fill="#31241C"/><path d="M958.847 493.42c22.307-.909 46.133-15.022 50.983-38.087.15-.909-1.21-1.365-1.51-.454-4.56 22.305-27.773 36.113-49.473 37.025-.909 0-.909 1.516 0 1.516zm-18.359.153c4.096.152 8.192.152 12.139.303.91 0 .91-1.517 0-1.517-4.098-.151-8.194-.151-12.139-.304-1.063 0-1.063 1.518 0 1.518zm-194.986 33.532c7.587-6.828 15.326-13.657 22.458-21.091 3.338-3.34 6.22-7.892 10.318-10.472 2.427-1.668 5.311-1.819 8.042-1.972 5.463-.303 10.925-.151 16.387-.303 9.865-.151 19.879-.607 29.741-.607 10.623 0 21.244.456 31.867.91 20.635.911 41.425 1.973 62.061-.151.911-.152.911-1.669 0-1.517-21.091 2.124-42.335 1.061-63.579.151-11.077-.456-22.305-.91-33.382-.91-10.016 0-19.879.607-29.741.759-6.83 0-16.237-1.366-22.307 2.428-3.794 2.427-6.676 6.525-9.56 9.711-7.435 7.739-15.476 14.871-23.519 22.154-.608.456.607 1.517 1.214.91z" fill="#1F0E03"/><g filter="url(#filter3_d)"><path d="M894.967 220.135c0 17.45-14.112 31.562-31.563 31.562H569.027c-17.45 0-31.562-14.112-31.562-31.562v-29.438c0-17.45 14.112-31.562 31.562-31.562h294.226c17.45 0 31.561 14.112 31.561 31.562v29.438h.153z" fill="#FCFCFC"/></g><path d="M586.63 181.138c1.061-2.276 2.882-2.276 4.097 0l3.489 7.132c1.063 2.276 4.098 4.401 6.525 4.704l7.892 1.214c2.426.304 3.033 2.125 1.212 3.794l-5.765 5.614c-1.821 1.821-2.884 5.159-2.428 7.739l1.366 7.89c.455 2.428-1.063 3.49-3.187 2.428l-7.132-3.793c-2.277-1.214-5.917-1.214-8.041 0l-7.132 3.793c-2.277 1.214-3.643.152-3.187-2.428l1.366-7.89c.454-2.428-.759-5.918-2.429-7.739l-5.766-5.614c-1.821-1.821-1.214-3.49 1.214-3.794l7.89-1.214c2.429-.303 5.464-2.428 6.525-4.704l3.491-7.132zm63.123 0c1.061-2.276 2.883-2.276 4.097 0l3.489 7.132c1.063 2.276 4.098 4.401 6.526 4.704l7.891 1.214c2.426.304 3.033 2.125 1.214 3.794l-5.767 5.614c-1.821 1.821-2.884 5.159-2.428 7.739l1.366 7.89c.455 2.428-1.063 3.49-3.187 2.428l-7.132-3.793c-2.275-1.214-5.917-1.214-8.041 0l-7.132 3.793c-2.277 1.214-3.643.152-3.187-2.428l1.366-7.89c.455-2.428-.759-5.918-2.429-7.739l-5.766-5.614c-1.821-1.821-1.214-3.49 1.214-3.794l7.89-1.214c2.429-.303 5.464-2.428 6.525-4.704l3.491-7.132zm63.277 0c1.061-2.276 2.882-2.276 4.096 0l3.489 7.132c1.063 2.276 4.099 4.401 6.525 4.704l7.892 1.214c2.427.304 3.034 2.125 1.214 3.794l-5.766 5.614c-1.821 1.821-2.884 5.159-2.428 7.739l1.365 7.89c.456 2.428-1.063 3.49-3.187 2.428l-7.131-3.793c-2.276-1.214-5.918-1.214-8.042 0l-7.132 3.793c-2.277 1.214-3.642.152-3.186-2.428l1.365-7.89c.454-2.428-.758-5.918-2.428-7.739l-5.766-5.614c-1.822-1.821-1.215-3.49 1.214-3.794l7.89-1.214c2.428-.303 5.463-2.428 6.525-4.704l3.491-7.132zm63.276 0c1.061-2.276 2.882-2.276 4.096 0l3.49 7.132c1.063 2.276 4.098 4.401 6.524 4.704l7.892 1.214c2.427.304 3.034 2.125 1.213 3.794l-5.766 5.614c-1.82 1.821-2.883 5.159-2.427 7.739l1.365 7.89c.456 2.428-1.062 3.49-3.186 2.428l-7.132-3.793c-2.277-1.214-5.918-1.214-8.043 0l-7.132 3.793c-2.275 1.214-3.641.152-3.185-2.428l1.365-7.89c.454-2.428-.76-5.918-2.428-7.739l-5.766-5.614c-1.821-1.821-1.214-3.49 1.214-3.794l7.89-1.214c2.428-.303 5.462-2.428 6.525-4.704l3.491-7.132zm63.123 0c1.063-2.276 2.884-2.276 4.098 0l3.49 7.132c1.063 2.276 4.096 4.401 6.524 4.704l7.891 1.214c2.428.304 3.035 2.125 1.214 3.794l-5.766 5.614c-1.822 1.821-2.883 5.159-2.429 7.739l1.366 7.89c.456 2.428-1.061 3.49-3.185 2.428l-7.132-3.793c-2.277-1.214-5.766-1.214-8.043 0l-7.132 3.793c-2.275 1.214-3.642.152-3.187-2.428l1.366-7.89c.456-2.428-.759-5.918-2.427-7.739l-5.766-5.614c-1.821-1.821-1.214-3.49 1.214-3.794l7.89-1.214c2.427-.303 5.462-2.428 6.525-4.704l3.489-7.132z" fill="#FFBE3D"/><path d="M695.579 246.995c5.007 0 10.014-.456 15.022-.607.91 0 .91-1.519 0-1.519-5.008 0-10.015.456-15.022.607-1.062 0-1.062 1.519 0 1.519zm21.85-.457c17.906-.454 35.659.455 53.565.153 8.953-.153 17.754-.912 26.554-1.367 9.409-.454 18.665-.303 28.073 0 8.952.304 17.905.607 26.706.76 6.221.151 12.443.454 18.512-.912 9.864-2.124 14.112-10.165 14.719-19.726 0-.91-1.517-.91-1.517 0-.304 5.311-1.518 10.471-5.464 14.264-3.64 3.49-8.951 4.401-13.656 4.704-7.132.607-14.264 0-21.395-.152-8.346-.151-16.843-.607-25.189-.758-16.844-.304-33.382 1.517-50.226 1.668-16.843.152-33.686-.454-50.529-.151-1.063 0-1.063 1.517-.153 1.517z" fill="#1F0E03"/><g filter="url(#filter4_d)"><path d="M188.006 447.29c0 17.45-14.111 31.561-31.562 31.561H31.562C14.112 478.851 0 464.74 0 447.29v-36.721c0-17.451 14.112-31.563 31.562-31.563h124.882c17.451 0 31.562 14.112 31.562 31.563v36.721z" fill="#624DE3"/></g><path d="M49.526 441.675l7.976-8.331c1.711-1.79 2.962-3.146 3.751-4.067.79-.947 1.356-1.763 1.698-2.448a4.956 4.956 0 00.513-2.171c0-1.211-.381-2.172-1.145-2.883-.763-.737-1.763-1.105-3-1.105-1.29 0-2.396.368-3.317 1.105-.895.711-1.553 1.764-1.974 3.159l-4.699-1.461c.316-1.527.948-2.856 1.895-3.988a9.86 9.86 0 013.593-2.685 10.955 10.955 0 014.502-.947c1.868 0 3.527.355 4.974 1.066 1.448.684 2.567 1.658 3.357 2.921.816 1.238 1.224 2.659 1.224 4.265 0 1.579-.435 3.119-1.303 4.619-.843 1.474-2.225 3.212-4.146 5.212l-6.91 7.265H69.27v4.541H49.526v-4.067zm36.283-2.408H72.305v-4.502l13.188-18.439H91.1v18.439h4.303v4.502H91.1v6.475h-5.291v-6.475zm0-4.502V422.96l-8.213 11.805h8.213zm24.65-20.018h5.646l-13.109 32.574H97.35l13.109-32.574zm21.315 6.081h-13.859v-4.541h19.505v4.541l-11.963 24.914h-5.923l12.24-24.914z" fill="#FDE68A"/><path d="M108.342 473.389c21.699-5.312 45.826 5.311 65.4-8.043.758-.607 0-1.822-.759-1.366-19.422 13.203-43.701 2.58-65.096 7.89-.911.305-.455 1.822.455 1.519zm72.685-55.99c.303 3.338.152 6.525.607 9.712.454 3.792 1.061 7.434 1.061 11.228 0 7.283-.607 14.87-4.854 21.092-.607.759.758 1.517 1.365.759 3.642-5.311 4.552-11.837 5.008-18.209.151-3.339.303-6.677-.153-9.864-.607-4.855-.91-9.712-1.366-14.566-.302-1.215-1.821-1.215-1.668-.152z" fill="#1F0E03"/><path d="M199.691 346.535c10.014 9.407 18.209 9.407 18.209 0v-34.446c0-9.407-8.195-17.297-18.209-17.297h-36.267c-10.015 0-10.015 7.739 0 17.297 9.864 9.409 26.251 24.886 36.267 34.446z" fill="#DEF4ED"/></g><path opacity=".8" d="M1041.74 9.09c-2.65.041-4.83-1.949-4.87-4.443-.04-2.495 2.08-4.55 4.72-4.59 2.65-.042 4.83 1.948 4.87 4.442v.018c.03 2.489-2.08 4.533-4.72 4.573zm.28 24.122c-2.65.04-4.83-1.948-4.86-4.442-.04-2.495 2.07-4.55 4.72-4.59 2.64-.042 4.82 1.948 4.86 4.442v.018c.03 2.489-2.08 4.535-4.72 4.572zm.28 24.123c-2.64.04-4.82-1.948-4.86-4.443-.04-2.494 2.07-4.55 4.72-4.59 2.65-.04 4.83 1.949 4.87 4.443v.017c.03 2.488-2.09 4.535-4.73 4.573zm.29 24.123c-2.65.042-4.83-1.948-4.87-4.443-.03-2.494 2.08-4.55 4.73-4.59 2.64-.04 4.82 1.949 4.86 4.443v.017c.03 2.49-2.08 4.533-4.72 4.573zm.28 24.123c-2.64.041-4.83-1.948-4.87-4.443-.04-2.496 2.08-4.552 4.73-4.593 2.64-.042 4.82 1.948 4.86 4.442v.021c.03 2.489-2.08 4.535-4.72 4.573zM1016.8 9.383c-2.64.042-4.82-1.948-4.86-4.443-.04-2.494 2.07-4.55 4.72-4.59 2.65-.04 4.82 1.949 4.86 4.443v.017c.03 2.49-2.08 4.534-4.72 4.573zm.29 24.123c-2.65.04-4.83-1.948-4.87-4.443-.04-2.494 2.08-4.55 4.72-4.59 2.65-.041 4.83 1.949 4.87 4.443v.017c.03 2.49-2.08 4.535-4.72 4.573zm.28 24.123c-2.65.04-4.83-1.948-4.86-4.443-.04-2.494 2.07-4.55 4.72-4.59 2.64-.04 4.82 1.948 4.86 4.443v.017c.03 2.488-2.08 4.535-4.72 4.573zm.28 24.123c-2.64.041-4.82-1.949-4.86-4.443-.04-2.494 2.07-4.55 4.72-4.59 2.65-.04 4.83 1.948 4.87 4.443v.017c.03 2.49-2.09 4.533-4.73 4.573zm.29 24.123c-2.65.041-4.83-1.949-4.87-4.443-.04-2.496 2.07-4.552 4.72-4.594 2.65-.041 4.83 1.947 4.87 4.443v.021c.03 2.489-2.08 4.535-4.72 4.573zM991.869 9.677c-2.647.04-4.826-1.949-4.865-4.443-.04-2.494 2.075-4.55 4.722-4.59 2.647-.04 4.825 1.948 4.864 4.443v.017c.031 2.49-2.082 4.533-4.721 4.573zm.284 24.123c-2.647.04-4.826-1.949-4.864-4.443-.041-2.494 2.074-4.55 4.721-4.59 2.647-.042 4.825 1.948 4.864 4.443v.017c.031 2.49-2.082 4.535-4.721 4.573zm.284 24.123c-2.647.04-4.826-1.949-4.864-4.443-.041-2.495 2.074-4.55 4.721-4.59 2.647-.04 4.825 1.948 4.864 4.442v.018c.031 2.487-2.082 4.535-4.721 4.572zm.284 24.122c-2.647.04-4.826-1.948-4.864-4.442-.041-2.495 2.074-4.55 4.721-4.59 2.647-.04 4.825 1.948 4.864 4.442v.017c.031 2.49-2.082 4.534-4.721 4.573zm.284 24.123c-2.649.042-4.828-1.946-4.868-4.443-.04-2.496 2.072-4.552 4.721-4.593 2.647-.042 4.826 1.947 4.868 4.443v.02c.031 2.49-2.081 4.535-4.721 4.573zM966.935 9.97c-2.647.04-4.826-1.948-4.864-4.442-.039-2.495 2.074-4.549 4.721-4.59 2.647-.04 4.825 1.948 4.864 4.442v.018c.031 2.489-2.08 4.533-4.721 4.572zm.284 24.123c-2.647.042-4.826-1.948-4.864-4.443-.039-2.494 2.074-4.55 4.721-4.59 2.647-.04 4.826 1.949 4.864 4.443v.017c.031 2.49-2.08 4.535-4.721 4.573zm.284 24.123c-2.647.04-4.826-1.948-4.864-4.443-.039-2.494 2.074-4.55 4.721-4.59 2.647-.041 4.826 1.949 4.864 4.443v.017c.031 2.488-2.08 4.535-4.721 4.573zm.284 24.123c-2.647.04-4.826-1.948-4.864-4.443-.039-2.494 2.074-4.55 4.721-4.59 2.647-.04 4.826 1.948 4.864 4.443v.017c.032 2.49-2.08 4.533-4.721 4.573zm.284 24.123c-2.649.041-4.827-1.947-4.868-4.443-.04-2.494 2.074-4.552 4.721-4.594 2.649-.041 4.828 1.949 4.868 4.443v.021c.032 2.489-2.079 4.535-4.721 4.573zm-26.07-96.198c-2.647.04-4.826-1.948-4.864-4.443-.039-2.494 2.074-4.55 4.721-4.59 2.647-.04 4.826 1.949 4.864 4.443v.017c.032 2.49-2.08 4.533-4.721 4.573zm.284 24.123c-2.647.041-4.826-1.948-4.864-4.443-.039-2.494 2.074-4.55 4.721-4.59 2.647-.04 4.826 1.948 4.864 4.443v.017c.032 2.49-2.079 4.535-4.721 4.573zm.284 24.123c-2.647.04-4.825-1.949-4.864-4.443-.038-2.494 2.074-4.55 4.721-4.59 2.647-.042 4.826 1.948 4.864 4.443a.1.1 0 00.001.017c.031 2.49-2.08 4.535-4.722 4.573zm.284 24.123c-2.647.04-4.825-1.949-4.864-4.443-.038-2.495 2.074-4.55 4.721-4.59 2.647-.04 4.826 1.948 4.864 4.443l.001.017c.031 2.489-2.08 4.533-4.722 4.573zm100.297 46.783c-2.64.041-4.82-1.948-4.86-4.441-.04-2.495 2.07-4.55 4.72-4.592 2.65-.042 4.83 1.948 4.86 4.443v.017c.04 2.488-2.08 4.533-4.72 4.573zm.29 24.123c-2.65.04-4.83-1.949-4.87-4.443-.04-2.494 2.08-4.549 4.72-4.59 2.65-.04 4.83 1.948 4.87 4.443v.017c.03 2.489-2.08 4.533-4.72 4.573zm.28 24.124c-2.65.042-4.82-1.948-4.86-4.442-.04-2.493 2.07-4.549 4.72-4.591 2.65-.041 4.82 1.949 4.86 4.441v.019c.03 2.488-2.08 4.534-4.72 4.573zm.29 24.121c-2.65.044-4.83-1.946-4.87-4.441-.04-2.494 2.07-4.552 4.72-4.593 2.65-.043 4.83 1.946 4.87 4.443v.02c.03 2.488-2.09 4.533-4.72 4.571zm.28 24.125c-2.65.042-4.83-1.948-4.87-4.443-.04-2.496 2.07-4.552 4.72-4.593 2.65-.042 4.83 1.946 4.87 4.441v.02c.03 2.488-2.08 4.534-4.72 4.575zm-26.07-96.199c-2.65.041-4.83-1.949-4.86-4.442-.05-2.494 2.07-4.55 4.72-4.591 2.64-.04 4.82 1.95 4.86 4.442v.018c.03 2.489-2.08 4.533-4.72 4.573zm.28 24.122c-2.64.04-4.82-1.948-4.86-4.442-.04-2.495 2.07-4.549 4.72-4.591 2.65-.039 4.83 1.949 4.86 4.443v.017c.04 2.49-2.08 4.534-4.72 4.573zm.29 24.125c-2.65.041-4.83-1.948-4.87-4.443-.04-2.492 2.08-4.548 4.72-4.59 2.65-.041 4.83 1.948 4.87 4.441v.019c.03 2.488-2.08 4.533-4.72 4.573zm.28 24.121c-2.65.043-4.83-1.947-4.87-4.441-.04-2.494 2.08-4.552 4.72-4.594 2.65-.043 4.83 1.947 4.87 4.443v.021c.03 2.487-2.08 4.533-4.72 4.571zm.29 24.125c-2.65.041-4.83-1.949-4.87-4.443-.04-2.496 2.07-4.552 4.72-4.594 2.65-.041 4.83 1.947 4.87 4.441v.021c.03 2.488-2.08 4.533-4.72 4.575zm-26.074-96.2c-2.647.042-4.826-1.946-4.865-4.441-.04-2.494 2.075-4.55 4.722-4.592 2.647-.04 4.825 1.95 4.864 4.443v.019c.031 2.488-2.082 4.531-4.721 4.571zm.284 24.123c-2.647.04-4.826-1.948-4.865-4.443-.04-2.494 2.075-4.548 4.722-4.588 2.647-.042 4.825 1.946 4.864 4.441v.017c.031 2.489-2.082 4.533-4.721 4.573zm.284 24.125c-2.647.041-4.826-1.949-4.864-4.441-.041-2.495 2.074-4.551 4.721-4.592 2.647-.042 4.825 1.948 4.864 4.442v.018c.031 2.487-2.082 4.533-4.721 4.573zm.284 24.121c-2.649.043-4.828-1.947-4.868-4.441-.04-2.495 2.072-4.552 4.721-4.594 2.647-.043 4.826 1.948 4.868 4.443v.02c.031 2.488-2.082 4.534-4.721 4.572zm.284 24.124c-2.649.042-4.828-1.948-4.868-4.443-.04-2.496 2.072-4.552 4.721-4.593 2.647-.042 4.826 1.947 4.868 4.441v.021c.031 2.487-2.082 4.533-4.721 4.574zm-26.07-96.199c-2.647.041-4.826-1.947-4.864-4.441-.039-2.495 2.074-4.551 4.721-4.592 2.647-.04 4.825 1.95 4.864 4.443v.019c.031 2.487-2.08 4.531-4.721 4.571zm.284 24.123c-2.647.041-4.826-1.949-4.864-4.443-.039-2.493 2.074-4.549 4.721-4.589 2.647-.041 4.825 1.947 4.864 4.441v.018c.031 2.489-2.08 4.533-4.721 4.573zm.284 24.124c-2.647.042-4.826-1.948-4.864-4.441-.039-2.494 2.074-4.55 4.721-4.592 2.647-.041 4.826 1.949 4.864 4.443v.017c.031 2.488-2.08 4.533-4.721 4.573zm.284 24.123c-2.649.042-4.827-1.948-4.868-4.443-.04-2.494 2.074-4.552 4.721-4.593 2.649-.042 4.828 1.948 4.868 4.442v.021c.031 2.488-2.08 4.533-4.721 4.573zm.284 24.123c-2.649.041-4.827-1.947-4.868-4.443-.04-2.494 2.074-4.552 4.721-4.593 2.649-.042 4.828 1.946 4.868 4.441v.022c.032 2.488-2.079 4.531-4.721 4.573zM915.075 10.581c-2.647.031-4.818-1.966-4.848-4.46-.029-2.495 2.095-4.542 4.742-4.573 2.645-.031 4.815 1.966 4.844 4.46.033 2.49-2.084 4.537-4.725 4.571-.006.002-.009.002-.013.002zm.284 24.125c-2.647.03-4.818-1.966-4.848-4.46-.029-2.495 2.095-4.542 4.742-4.574 2.645-.03 4.815 1.966 4.844 4.46.033 2.492-2.083 4.539-4.725 4.574a.017.017 0 00-.013 0zm.284 24.123c-2.647.03-4.818-1.966-4.848-4.46-.029-2.495 2.095-4.543 4.742-4.574 2.645-.03 4.815 1.966 4.844 4.46.033 2.491-2.083 4.539-4.725 4.573a.017.017 0 00-.013 0zm.284 24.12c-2.647.032-4.818-1.965-4.848-4.46-.029-2.494 2.095-4.541 4.742-4.573 2.645-.03 4.815 1.966 4.844 4.46.033 2.49-2.083 4.537-4.725 4.572a.035.035 0 01-.013.002zM890.14 10.876c-2.648.031-4.815-1.966-4.845-4.46-.029-2.495 2.091-4.542 4.738-4.574 2.647-.03 4.817 1.966 4.846 4.46.033 2.492-2.082 4.537-4.725 4.572a.035.035 0 01-.014.002zM890.424 35c-2.647.032-4.815-1.965-4.845-4.46-.029-2.494 2.091-4.542 4.738-4.573 2.647-.031 4.817 1.966 4.846 4.46.033 2.491-2.081 4.539-4.725 4.573-.003-.002-.009-.001-.014 0zm.284 24.123c-2.647.031-4.815-1.965-4.845-4.46-.029-2.495 2.091-4.542 4.738-4.573 2.647-.031 4.817 1.966 4.846 4.46.033 2.491-2.081 4.538-4.725 4.573-.003-.002-.009-.002-.014 0zm.284 24.121c-2.647.032-4.815-1.965-4.844-4.46-.03-2.494 2.09-4.542 4.737-4.573 2.647-.031 4.817 1.966 4.846 4.46.033 2.491-2.083 4.537-4.725 4.571a.038.038 0 01-.014.002zm-25.786-72.075c-2.645.032-4.817-1.965-4.846-4.46-.03-2.494 2.094-4.542 4.739-4.573 2.647-.031 4.817 1.966 4.846 4.46.033 2.491-2.083 4.537-4.725 4.571a.038.038 0 01-.014.002zm.284 24.125c-2.645.031-4.817-1.966-4.846-4.46-.03-2.495 2.094-4.542 4.739-4.573 2.647-.032 4.817 1.965 4.846 4.46.033 2.49-2.083 4.538-4.725 4.573a.02.02 0 00-.014 0zm.284 24.123c-2.645.031-4.817-1.966-4.846-4.46-.029-2.495 2.094-4.542 4.74-4.574 2.647-.03 4.816 1.966 4.846 4.46.033 2.492-2.084 4.54-4.725 4.574a.023.023 0 00-.015 0zm.284 24.123c-2.645.03-4.817-1.966-4.846-4.46-.029-2.495 2.094-4.542 4.74-4.574 2.647-.03 4.816 1.966 4.846 4.46.033 2.492-2.084 4.537-4.727 4.572-.004 0-.008 0-.013.002zm-25.786-72.077c-2.647.031-4.817-1.966-4.846-4.46-.029-2.495 2.093-4.542 4.74-4.573 2.647-.031 4.816 1.965 4.846 4.46.033 2.491-2.084 4.537-4.725 4.571-.006.002-.011.002-.015.002zm.284 24.125c-2.647.03-4.817-1.966-4.846-4.46-.029-2.495 2.093-4.543 4.74-4.574 2.647-.03 4.816 1.966 4.846 4.46.033 2.491-2.084 4.539-4.725 4.573a.023.023 0 00-.015 0zm.284 24.122c-2.647.032-4.817-1.965-4.846-4.46-.029-2.494 2.093-4.542 4.74-4.573 2.647-.031 4.816 1.966 4.846 4.46.033 2.491-2.084 4.539-4.725 4.573a.022.022 0 00-.015 0zm.284 24.123c-2.647.032-4.816-1.965-4.846-4.46-.029-2.494 2.093-4.542 4.74-4.573 2.647-.031 4.816 1.966 4.846 4.46.033 2.491-2.084 4.537-4.725 4.571-.006 0-.011 0-.015.002zm-25.786-72.075c-2.647.032-4.816-1.965-4.846-4.46-.029-2.494 2.093-4.542 4.74-4.573 2.645-.031 4.816 1.966 4.846 4.46.033 2.491-2.084 4.537-4.727 4.571-.004 0-.007 0-.013.002zm.284 24.123c-2.647.031-4.816-1.966-4.846-4.46-.029-2.495 2.093-4.542 4.74-4.573 2.645-.031 4.817 1.966 4.846 4.46.033 2.491-2.084 4.539-4.727 4.573-.004-.002-.007-.002-.013 0zm.284 24.123c-2.647.031-4.816-1.966-4.846-4.46-.029-2.495 2.093-4.542 4.74-4.573 2.645-.031 4.817 1.965 4.846 4.46.033 2.491-2.083 4.538-4.727 4.573-.004-.002-.007-.002-.013 0zm.284 24.123c-2.647.031-4.816-1.966-4.846-4.46-.029-2.495 2.093-4.542 4.74-4.573 2.645-.032 4.817 1.965 4.846 4.46.033 2.49-2.083 4.537-4.727 4.571-.003 0-.007 0-.013.002z" fill="#7965EF"/><path opacity=".2" d="M1039.34 12.566c-2.65.042-4.83-1.948-4.87-4.442-.03-2.495 2.08-4.55 4.72-4.59 2.65-.042 4.83 1.948 4.87 4.442v.018c.03 2.489-2.08 4.533-4.72 4.572zm.28 24.123c-2.65.04-4.82-1.948-4.86-4.443-.04-2.494 2.07-4.55 4.72-4.59 2.65-.041 4.82 1.949 4.86 4.443v.017c.04 2.49-2.08 4.535-4.72 4.573zm.29 24.123c-2.65.04-4.83-1.948-4.87-4.443-.04-2.494 2.08-4.55 4.72-4.59 2.65-.04 4.83 1.949 4.87 4.443v.017c.03 2.488-2.08 4.535-4.72 4.573zm.28 24.123c-2.65.041-4.83-1.948-4.86-4.443-.04-2.494 2.07-4.55 4.72-4.59 2.64-.04 4.82 1.948 4.86 4.443v.017c.03 2.49-2.08 4.533-4.72 4.573zm.28 24.123c-2.64.041-4.82-1.949-4.86-4.443-.04-2.496 2.07-4.552 4.72-4.594 2.65-.041 4.82 1.949 4.87 4.443v.021c.03 2.489-2.08 4.535-4.73 4.573zm-26.06-96.198c-2.65.042-4.83-1.948-4.87-4.443-.04-2.494 2.08-4.55 4.72-4.59 2.65-.04 4.83 1.949 4.87 4.443v.017c.03 2.49-2.08 4.533-4.72 4.573zm.28 24.123c-2.65.04-4.83-1.948-4.86-4.443-.04-2.494 2.07-4.55 4.72-4.59 2.64-.042 4.82 1.948 4.86 4.443v.017c.03 2.49-2.08 4.535-4.72 4.573zm.28 24.123c-2.64.04-4.82-1.949-4.86-4.443-.04-2.494 2.07-4.55 4.72-4.59 2.65-.04 4.83 1.948 4.87 4.443v.017c.03 2.487-2.09 4.535-4.73 4.573zm.29 24.123c-2.65.041-4.83-1.949-4.87-4.443-.04-2.495 2.08-4.55 4.72-4.59 2.65-.04 4.83 1.948 4.87 4.442v.018c.03 2.489-2.08 4.533-4.72 4.573zm.28 24.122c-2.64.042-4.83-1.948-4.87-4.442-.04-2.496 2.08-4.552 4.73-4.594 2.64-.041 4.82 1.947 4.86 4.443v.02c.03 2.49-2.08 4.535-4.72 4.573zm-26.068-96.197c-2.647.04-4.826-1.949-4.864-4.443-.041-2.495 2.074-4.55 4.721-4.59 2.647-.04 4.826 1.948 4.864 4.442v.018c.03 2.49-2.081 4.533-4.721 4.573zm.284 24.122c-2.647.04-4.826-1.948-4.864-4.442-.04-2.495 2.074-4.55 4.721-4.59 2.647-.042 4.826 1.948 4.864 4.442v.018c.03 2.489-2.081 4.535-4.721 4.572zm.284 24.123c-2.647.04-4.825-1.948-4.864-4.443-.04-2.494 2.074-4.55 4.721-4.59 2.647-.04 4.826 1.949 4.864 4.443v.017c.03 2.488-2.081 4.535-4.721 4.573zm.284 24.123c-2.647.04-4.825-1.948-4.864-4.443-.04-2.494 2.074-4.55 4.721-4.59 2.647-.04 4.826 1.949 4.864 4.443a.1.1 0 00.001.017c.029 2.49-2.082 4.534-4.722 4.573zm.284 24.123c-2.648.042-4.827-1.947-4.868-4.443-.04-2.496 2.073-4.552 4.722-4.593 2.647-.042 4.825 1.946 4.867 4.442l.001.021c.029 2.489-2.082 4.535-4.722 4.573zm-26.07-96.198c-2.647.04-4.825-1.948-4.864-4.443-.038-2.494 2.074-4.548 4.721-4.59 2.647-.04 4.826 1.949 4.864 4.443a.1.1 0 00.001.017c.031 2.49-2.082 4.534-4.722 4.573zm.284 24.123c-2.647.042-4.825-1.948-4.864-4.443-.038-2.494 2.074-4.55 4.721-4.59 2.647-.04 4.826 1.949 4.864 4.443l.001.017c.031 2.49-2.082 4.535-4.722 4.573zm.284 24.123c-2.647.04-4.825-1.948-4.864-4.443-.038-2.494 2.074-4.55 4.721-4.59 2.647-.041 4.826 1.948 4.864 4.443a.09.09 0 01.001.017c.031 2.488-2.082 4.535-4.722 4.573zm.284 24.123c-2.647.04-4.825-1.949-4.864-4.443-.038-2.494 2.075-4.55 4.721-4.59 2.647-.04 4.826 1.948 4.865 4.443v.017c.031 2.49-2.082 4.533-4.722 4.573zm.284 24.123c-2.648.041-4.827-1.947-4.867-4.443-.041-2.494 2.074-4.552 4.721-4.594 2.649-.041 4.827 1.949 4.868 4.443v.021c.031 2.489-2.082 4.535-4.722 4.573zm-26.071-96.198c-2.647.04-4.826-1.948-4.865-4.443-.038-2.494 2.075-4.55 4.722-4.59 2.647-.04 4.825 1.948 4.864 4.443v.017c.031 2.49-2.08 4.533-4.721 4.573zm.284 24.123c-2.647.041-4.826-1.949-4.864-4.443-.039-2.494 2.074-4.55 4.721-4.59 2.647-.04 4.825 1.948 4.864 4.443v.017c.031 2.49-2.08 4.535-4.721 4.573zm.284 24.123c-2.647.04-4.826-1.949-4.864-4.443-.039-2.495 2.074-4.55 4.721-4.59 2.647-.042 4.825 1.948 4.864 4.442v.018c.031 2.489-2.08 4.535-4.721 4.573zm.284 24.122c-2.647.04-4.826-1.948-4.864-4.442-.039-2.495 2.074-4.55 4.721-4.59 2.647-.04 4.825 1.948 4.864 4.442v.017c.031 2.49-2.08 4.534-4.721 4.573zm100.295 46.784c-2.64.041-4.82-1.949-4.86-4.441-.04-2.495 2.07-4.551 4.72-4.592 2.65-.042 4.83 1.948 4.87 4.443v.017c.03 2.487-2.08 4.533-4.73 4.573zm.29 24.123c-2.65.039-4.83-1.949-4.87-4.443-.03-2.495 2.08-4.549 4.73-4.59 2.64-.04 4.82 1.948 4.86 4.442v.018c.03 2.489-2.08 4.533-4.72 4.573zm.28 24.124c-2.64.042-4.82-1.948-4.86-4.443-.04-2.492 2.07-4.548 4.72-4.59 2.65-.041 4.83 1.949 4.86 4.441v.019c.04 2.488-2.08 4.533-4.72 4.573zm.29 24.121c-2.65.043-4.83-1.946-4.87-4.441-.04-2.494 2.07-4.552 4.72-4.593 2.65-.044 4.83 1.946 4.87 4.442v.021c.03 2.488-2.08 4.533-4.72 4.571zm.28 24.125c-2.65.041-4.83-1.949-4.87-4.443-.04-2.496 2.08-4.552 4.72-4.594 2.65-.041 4.83 1.947 4.87 4.442v.02c.04 2.488-2.08 4.533-4.72 4.575zm-26.07-96.2c-2.64.042-4.82-1.948-4.86-4.441-.04-2.494 2.07-4.55 4.72-4.592 2.65-.039 4.83 1.951 4.86 4.443v.017c.03 2.49-2.08 4.534-4.72 4.573zm.29 24.123c-2.65.04-4.83-1.948-4.87-4.443-.04-2.494 2.08-4.548 4.72-4.59 2.65-.04 4.83 1.949 4.87 4.443v.017c.03 2.49-2.08 4.533-4.72 4.573zm.28 24.125c-2.65.041-4.82-1.949-4.86-4.443-.04-2.493 2.07-4.549 4.72-4.59 2.64-.042 4.82 1.948 4.86 4.441v.019c.03 2.487-2.08 4.533-4.72 4.573zm.28 24.121c-2.64.043-4.82-1.947-4.86-4.441-.04-2.495 2.07-4.552 4.72-4.594 2.65-.043 4.83 1.947 4.87 4.443v.021c.03 2.487-2.09 4.533-4.73 4.571zm.29 24.124c-2.65.042-4.83-1.948-4.87-4.442-.04-2.496 2.07-4.552 4.72-4.594 2.65-.041 4.83 1.947 4.87 4.441v.021c.03 2.487-2.08 4.533-4.72 4.574zm-26.071-96.199c-2.647.041-4.826-1.947-4.864-4.441-.041-2.494 2.074-4.55 4.721-4.592 2.647-.04 4.826 1.95 4.864 4.443v.019c.03 2.487-2.081 4.531-4.721 4.571zm.284 24.123c-2.647.04-4.826-1.949-4.864-4.443-.04-2.494 2.074-4.549 4.721-4.588 2.647-.042 4.826 1.946 4.864 4.441v.017c.03 2.489-2.081 4.533-4.721 4.573zm.284 24.124c-2.647.042-4.826-1.948-4.864-4.441-.04-2.494 2.074-4.55 4.721-4.592 2.647-.041 4.826 1.949 4.864 4.443v.017c.03 2.488-2.081 4.534-4.721 4.573zm.284 24.121c-2.649.044-4.827-1.946-4.868-4.441-.04-2.494 2.073-4.552 4.721-4.593 2.647-.043 4.826 1.948 4.868 4.443l.001.02c.029 2.488-2.082 4.533-4.722 4.571zm.284 24.125c-2.649.042-4.827-1.948-4.868-4.443-.04-2.496 2.073-4.552 4.722-4.593 2.646-.042 4.825 1.946 4.867 4.441l.001.02c.029 2.488-2.082 4.534-4.722 4.575zm-26.07-96.199c-2.647.041-4.825-1.947-4.864-4.441-.038-2.495 2.074-4.551 4.721-4.592 2.647-.04 4.826 1.95 4.864 4.442l.001.019c.029 2.488-2.082 4.532-4.722 4.572zm.284 24.122c-2.647.042-4.825-1.948-4.864-4.442-.038-2.493 2.074-4.549 4.721-4.589 2.647-.041 4.826 1.947 4.864 4.441l.001.018c.029 2.489-2.082 4.533-4.722 4.572zm.284 24.125c-2.647.041-4.825-1.948-4.864-4.441-.038-2.494 2.074-4.55 4.721-4.592 2.647-.041 4.826 1.948 4.864 4.443l.001.017c.029 2.488-2.082 4.533-4.722 4.573zm.284 24.123c-2.648.041-4.827-1.949-4.867-4.443-.041-2.494 2.074-4.552 4.721-4.593 2.648-.042 4.827 1.948 4.868 4.442v.021c.029 2.488-2.082 4.533-4.722 4.573zm.284 24.123c-2.648.041-4.827-1.947-4.867-4.443-.041-2.494 2.074-4.552 4.721-4.594 2.649-.041 4.827 1.947 4.868 4.441v.023c.029 2.487-2.082 4.531-4.722 4.573zM912.677 14.058c-2.647.031-4.819-1.966-4.848-4.46-.03-2.495 2.094-4.542 4.741-4.573 2.647-.032 4.815 1.965 4.845 4.46.032 2.49-2.084 4.537-4.724 4.571l-.014.002zm.284 24.124c-2.647.032-4.819-1.965-4.848-4.46-.029-2.494 2.094-4.542 4.741-4.573 2.647-.031 4.815 1.966 4.845 4.46.033 2.491-2.084 4.539-4.724 4.573h-.014zm.284 24.123c-2.647.032-4.819-1.965-4.848-4.46-.029-2.494 2.094-4.542 4.741-4.573 2.647-.031 4.815 1.966 4.845 4.46.033 2.491-2.084 4.539-4.724 4.573h-.014zm.284 24.122c-2.647.03-4.819-1.966-4.848-4.46-.029-2.495 2.094-4.543 4.742-4.574 2.647-.031 4.814 1.966 4.844 4.46.033 2.49-2.084 4.537-4.723 4.572a.057.057 0 01-.015.002zm-25.788-72.075c-2.647.03-4.815-1.966-4.844-4.46-.03-2.495 2.091-4.543 4.738-4.574 2.647-.03 4.818 1.966 4.848 4.46.033 2.492-2.084 4.537-4.727 4.572-.004.002-.008.002-.015.002zm.284 24.124c-2.647.031-4.815-1.966-4.844-4.46-.029-2.495 2.091-4.542 4.738-4.573 2.647-.031 4.818 1.965 4.848 4.46.033 2.491-2.084 4.538-4.727 4.573-.004-.002-.008-.002-.015 0zm.284 24.123c-2.647.031-4.815-1.966-4.844-4.46-.029-2.495 2.091-4.542 4.738-4.573 2.647-.032 4.818 1.965 4.848 4.46.033 2.49-2.084 4.538-4.727 4.573-.004-.002-.007-.002-.015 0zm.284 24.121c-2.647.031-4.815-1.966-4.844-4.46-.029-2.495 2.091-4.542 4.738-4.573 2.647-.031 4.818 1.966 4.848 4.46.033 2.491-2.084 4.537-4.727 4.571-.004.002-.007.002-.015.002zm-25.784-72.075c-2.647.031-4.818-1.965-4.848-4.46-.029-2.495 2.095-4.542 4.742-4.573 2.647-.031 4.815 1.966 4.844 4.46.033 2.491-2.084 4.537-4.723 4.571a.057.057 0 01-.015.002zm.284 24.125c-2.647.031-4.818-1.966-4.848-4.46-.029-2.495 2.095-4.542 4.742-4.574 2.647-.03 4.815 1.966 4.844 4.46.033 2.492-2.083 4.54-4.723 4.574-.007-.002-.011-.002-.015 0zm.284 24.123c-2.647.03-4.818-1.966-4.848-4.46-.029-2.495 2.095-4.542 4.742-4.574 2.647-.03 4.815 1.966 4.844 4.46.033 2.492-2.083 4.539-4.723 4.573h-.015zm.284 24.123c-2.647.03-4.818-1.966-4.848-4.46-.029-2.495 2.095-4.543 4.742-4.574 2.647-.031 4.815 1.966 4.844 4.46.033 2.491-2.083 4.537-4.727 4.572-.003 0-.007 0-.011.002zm-25.787-72.077c-2.648.031-4.815-1.966-4.845-4.46-.029-2.495 2.091-4.542 4.738-4.573 2.647-.032 4.819 1.965 4.848 4.46.033 2.49-2.084 4.536-4.727 4.571-.003.002-.011.002-.014.002zm.284 24.124c-2.647.032-4.815-1.965-4.845-4.46-.029-2.494 2.091-4.542 4.738-4.573 2.647-.031 4.819 1.966 4.848 4.46.033 2.491-2.083 4.539-4.727 4.573a.02.02 0 00-.014 0zm.284 24.123c-2.647.031-4.815-1.965-4.845-4.46-.029-2.495 2.091-4.542 4.738-4.573 2.647-.031 4.819 1.966 4.848 4.46.033 2.491-2.083 4.538-4.727 4.573a.02.02 0 00-.014 0zm.284 24.123c-2.647.031-4.815-1.966-4.844-4.46-.03-2.495 2.09-4.542 4.737-4.573 2.647-.031 4.819 1.966 4.848 4.46.033 2.491-2.083 4.537-4.727 4.571-.003 0-.011 0-.014.002zm-25.784-72.075c-2.647.031-4.819-1.966-4.848-4.46-.03-2.495 2.094-4.542 4.741-4.573 2.644-.031 4.815 1.966 4.844 4.46.033 2.491-2.083 4.537-4.726 4.571-.004 0-.008 0-.011.002zm.284 24.123c-2.647.031-4.819-1.966-4.848-4.46-.03-2.495 2.094-4.542 4.741-4.573 2.644-.031 4.815 1.965 4.844 4.46.033 2.491-2.083 4.538-4.726 4.573a.012.012 0 00-.011 0zm.284 24.123c-2.647.031-4.819-1.966-4.848-4.46-.029-2.495 2.094-4.542 4.741-4.574 2.644-.03 4.815 1.966 4.845 4.46.033 2.492-2.084 4.54-4.727 4.574-.004-.002-.008-.002-.011 0zm.284 24.123c-2.647.03-4.819-1.966-4.848-4.46-.029-2.495 2.094-4.543 4.741-4.574 2.644-.03 4.815 1.966 4.845 4.46.033 2.492-2.084 4.537-4.727 4.572-.004 0-.008 0-.011.002z" fill="#7965EF"/><defs><filter id="filter0_d" x="104.039" y="119.682" width="338.339" height="201.317" filterUnits="userSpaceOnUse" color-interpolation-filters="sRGB"><feFlood flood-opacity="0" result="BackgroundImageFix"/><feColorMatrix in="SourceAlpha" values="0 0 0 0 0 0 0 0 0 0 0 0 0 0 0 0 0 0 127 0" result="hardAlpha"/><feOffset dy="4"/><feGaussianBlur stdDeviation="2"/><feComposite in2="hardAlpha" operator="out"/><feColorMatrix values="0 0 0 0 0 0 0 0 0 0 0 0 0 0 0 0 0 0 0.25 0"/><feBlend in2="BackgroundImageFix" result="effect1_dropShadow"/><feBlend in="SourceGraphic" in2="effect1_dropShadow" result="shape"/></filter><filter id="filter1_d" x="673.522" y="297.674" width="350.478" height="208.297" filterUnits="userSpaceOnUse" color-interpolation-filters="sRGB"><feFlood flood-opacity="0" result="BackgroundImageFix"/><feColorMatrix in="SourceAlpha" values="0 0 0 0 0 0 0 0 0 0 0 0 0 0 0 0 0 0 127 0" result="hardAlpha"/><feOffset dy="4"/><feGaussianBlur stdDeviation="2"/><feComposite in2="hardAlpha" operator="out"/><feColorMatrix values="0 0 0 0 0 0 0 0 0 0 0 0 0 0 0 0 0 0 0.25 0"/><feBlend in2="BackgroundImageFix" result="effect1_dropShadow"/><feBlend in="SourceGraphic" in2="effect1_dropShadow" result="shape"/></filter><filter id="filter2_d" x="723.141" y="479.004" width="72.186" height="68.962" filterUnits="userSpaceOnUse" color-interpolation-filters="sRGB"><feFlood flood-opacity="0" result="BackgroundImageFix"/><feColorMatrix in="SourceAlpha" values="0 0 0 0 0 0 0 0 0 0 0 0 0 0 0 0 0 0 127 0" result="hardAlpha"/><feOffset dy="4"/><feGaussianBlur stdDeviation="2"/><feComposite in2="hardAlpha" operator="out"/><feColorMatrix values="0 0 0 0 0 0 0 0 0 0 0 0 0 0 0 0 0 0 0.25 0"/><feBlend in2="BackgroundImageFix" result="effect1_dropShadow"/><feBlend in="SourceGraphic" in2="effect1_dropShadow" result="shape"/></filter><filter id="filter3_d" x="533.465" y="159.135" width="365.502" height="100.562" filterUnits="userSpaceOnUse" color-interpolation-filters="sRGB"><feFlood flood-opacity="0" result="BackgroundImageFix"/><feColorMatrix in="SourceAlpha" values="0 0 0 0 0 0 0 0 0 0 0 0 0 0 0 0 0 0 127 0" result="hardAlpha"/><feOffset dy="4"/><feGaussianBlur stdDeviation="2"/><feComposite in2="hardAlpha" operator="out"/><feColorMatrix values="0 0 0 0 0 0 0 0 0 0 0 0 0 0 0 0 0 0 0.25 0"/><feBlend in2="BackgroundImageFix" result="effect1_dropShadow"/><feBlend in="SourceGraphic" in2="effect1_dropShadow" result="shape"/></filter><filter id="filter4_d" x="-4" y="379.006" width="196.006" height="107.845" filterUnits="userSpaceOnUse" color-interpolation-filters="sRGB"><feFlood flood-opacity="0" result="BackgroundImageFix"/><feColorMatrix in="SourceAlpha" values="0 0 0 0 0 0 0 0 0 0 0 0 0 0 0 0 0 0 127 0" result="hardAlpha"/><feOffset dy="4"/><feGaussianBlur stdDeviation="2"/><feComposite in2="hardAlpha" operator="out"/><feColorMatrix values="0 0 0 0 0 0 0 0 0 0 0 0 0 0 0 0 0 0 0.25 0"/><feBlend in2="BackgroundImageFix" result="effect1_dropShadow"/><feBlend in="SourceGraphic" in2="effect1_dropShadow" result="shape"/></filter><clipPath id="clip0"><path fill="#fff" transform="translate(0 69)" d="M0 0h1020v633.387H0z"/></clipPath></defs></svg>