<svg xmlns="http://www.w3.org/2000/svg" viewBox="0 0 1050 861.3"><style>.st1{fill:#624de3}.st2{fill:#92b5f9}.st3{fill:#fff}.st4{fill:#fa7167}.st5{fill:#7c9af2}.st6{fill:#bed1f9}.st7{fill:#fb9390}.st8{fill:#e8605d}.st9{fill:#ef7f7f}.st12{fill:#0b0754}.st13{fill:#4951ec}</style><switch><g><g id="Layer_1"><path class="st1" d="M1038.4 830.7H7.3c-1.8 0-3.4 1.4-3.5 3.2-.1 2 1.4 3.6 3.4 3.6h1031.2c1.9 0 3.4-1.5 3.4-3.4s-1.5-3.4-3.4-3.4z"/><circle transform="translate(-.593 1.68)" class="st2" cx="365.3" cy="129.9" r="55.6"/><path class="st2" d="M386.2 179.8c-27.5 11.5-59.3-1.5-70.8-29s1.5-59.3 29-70.8 59.3 1.5 70.8 29-1.5 59.2-29 70.8z"/><circle transform="rotate(-58.231 365.367 130.077)" class="st3" cx="365.4" cy="130.1" r="44.2"/><path class="st3" d="M381.5 168.5c-21.3 8.9-45.9-1.1-54.8-22.4-8.9-21.3 1.1-45.9 22.4-54.8 21.3-8.9 45.9 1.1 54.8 22.4 8.9 21.3-1.1 45.9-22.4 54.8z"/><path class="st2" d="M331 141.8l-6.9 2.9c-1.1.5-1.7 1.8-1.2 2.9.5 1.1 1.8 1.7 2.9 1.2l6.9-2.9c1.1-.5 1.7-1.8 1.2-2.9-.5-1.1-1.8-1.6-2.9-1.2zm47.4 19.5c-1.1.5-1.7 1.8-1.2 2.9l2.9 6.9c.5 1.1 1.8 1.7 2.9 1.2 1.1-.5 1.7-1.8 1.2-2.9l-2.9-6.9c-.4-1.2-1.7-1.7-2.9-1.2zm26.4-50.4l-6.9 2.9c-1.1.5-1.7 1.8-1.2 2.9.5 1.1 1.8 1.7 2.9 1.2l6.9-2.9c1.1-.5 1.7-1.8 1.2-2.9-.5-1.1-1.8-1.7-2.9-1.2zm-57.3-23.4c-1.1.5-1.7 1.8-1.2 2.9l2.9 6.9c.5 1.1 1.8 1.7 2.9 1.2 1.1-.5 1.7-1.8 1.2-2.9l-2.9-6.9c-.5-1.2-1.8-1.7-2.9-1.2zM363 68.6l.6-8.8c.1-.7.7-1.3 1.4-1.2l10.1.7c.7.1 1.3.7 1.2 1.4l-.6 8.8c-.1.7-.7 1.3-1.4 1.2l-10-.7c-.8 0-1.3-.6-1.3-1.4zm-39.2 16.7l-6.7-5.7c-.5-.5-1.4-.4-1.8.1l-6.6 7.7c-.5.5-.4 1.4.1 1.8l6.7 5.7c.5.5 1.4.4 1.8-.1l6.6-7.7c.5-.5.4-1.3-.1-1.8zm10.8-14.4c-.6.3-1.4 0-1.7-.7l-2.4-5.8c-.3-.6 0-1.4.7-1.7l11.9-5c.6-.3 1.4 0 1.7.7l2.4 5.8c.3.6 0 1.4-.7 1.7l-11.9 5z"/><path class="st2" d="M337.7 73.1c-5.8.4-11.5-2.8-13.9-8.5-3-7.1.4-15.2 7.5-18.2s15.2.4 18.2 7.5c2.4 5.7.7 12-3.7 15.9l1.3 3.2c6-4.6 8.5-12.9 5.4-20.3-3.7-8.7-13.8-12.9-22.5-9.2-8.7 3.7-12.9 13.8-9.2 22.5 3.1 7.4 10.7 11.4 18.3 10.4l-1.4-3.3z"/><path class="st2" d="M343.4 77.6c1.4-.6 2.8-1.1 4.2-1.6l-3.5-8.4-6.6 2.8 3.5 8.3c.7-.4 1.5-.8 2.4-1.1zm25.6 50.6c.9 2.1-.1 4.5-2.2 5.3-2.1.9-4.5-.1-5.3-2.2-.9-2.1.1-4.5 2.2-5.3 2.1-.8 4.5.1 5.3 2.2z"/><path class="st2" d="M369.6 96.5l-2.9 33.5c-.1.8-.8 1.5-1.7 1.4-.8-.1-1.5-.8-1.4-1.7.1-.1-.2 1.3 6-33.2z"/><path class="st2" d="M394.7 146.4l-30-15.1c-.8-.4-1.1-1.3-.7-2.1.4-.8 1.3-1.1 2.1-.7.1.1-1.2-.7 28.6 17.9z"/><path class="st2" d="M366.8 129.1c.4.8 0 1.8-.9 2.2-.8.4-1.8 0-2.2-.9-.4-.8 0-1.8.9-2.2.9-.3 1.8.1 2.2.9z"/><path class="st4" d="M778.7 370.5c-.4-.5-1-.7-1.6-.5-2.9.8-8.3-.4-10.9-1.3l-2.9-14.2c2.1-1.9 6.5-5 9.5-5.4.6-.1 1.1-.5 1.3-1.1l3.6-10.8c.2-.6 0-1.2-.4-1.7-2.2-2.1-3.8-7.3-4.3-10.1l10.8-9.6c2.7.9 7.6 3.1 9.5 5.5.4.5 1 .7 1.6.6l11.1-2.3c.6-.1 1.1-.6 1.3-1.2.8-2.9 4.5-7 6.6-8.8l13.7 4.6c.6 2.7 1.1 8.1-.1 11-.2.6-.1 1.2.3 1.7l7.5 8.5c.4.5 1 .7 1.6.5 2.9-.8 8.3.4 10.9 1.3l2.9 14.2c-2.1 1.9-6.5 5-9.5 5.4-.6.1-1.1.5-1.3 1.1l-3.6 10.8c-.2.6 0 1.2.4 1.7 2.2 2.1 3.8 7.3 4.3 10.1l-10.8 9.6c-2.7-.9-7.6-3.1-9.5-5.5-.4-.5-1-.7-1.6-.6l-11.1 2.3c-.6.1-1.1.6-1.3 1.2-.8 2.9-4.5 7-6.6 8.8l-13.7-4.6c-.6-2.7-1.1-8.1.1-11 .2-.6.1-1.2-.3-1.7l-7.5-8.5zm31.1-3.5c7.7-1.6 12.7-9.1 11.1-16.8-1.6-7.7-9.1-12.7-16.8-11.1-7.7 1.6-12.7 9.1-11.1 16.8 1.6 7.7 9.1 12.6 16.8 11.1zm1.8 8.9c12.7-2.6 20.8-14.9 18.3-27.5-2.6-12.7-14.9-20.8-27.5-18.3-12.7 2.6-20.8 14.9-18.3 27.5 2.6 12.7 14.9 20.9 27.5 18.3zm59.1 45.3c.1-.5.5-.8 1-.9l8.8-1.8c.5-.1 1 .1 1.3.5 1.5 1.9 5.4 3.7 7.5 4.4l8.6-7.6c-.4-2.2-1.7-6.3-3.4-8-.3-.3-.5-.9-.3-1.3l2.9-8.5c.2-.5.6-.8 1.1-.9 2.4-.3 5.9-2.8 7.5-4.3l-2.3-11.2c-2.1-.7-6.3-1.7-8.6-1-.5.1-1 0-1.3-.4l-6-6.8c-.3-.4-.4-.9-.2-1.3.9-2.2.5-6.5 0-8.7l-10.9-3.6c-1.7 1.4-4.6 4.6-5.2 6.9-.1.5-.5.8-1 .9l-8.8 1.8c-.5.1-1-.1-1.3-.5-1.5-1.9-5.4-3.7-7.5-4.4l-8.6 7.6c.4 2.2 1.7 6.3 3.4 8 .3.3.5.9.3 1.3l-2.9 8.5c-.2.5-.6.8-1.1.9-2.4.3-5.9 2.8-7.5 4.3l2.3 11.2c2.1.7 6.3 1.7 8.6 1 .5-.1 1 0 1.3.4l6 6.8c.3.4.4.9.2 1.3-.9 2.2-.5 6.5 0 8.7l10.9 3.7c1.7-1.5 4.6-4.6 5.2-7zm3.1-13.5c-7.6 1.5-15-3.4-16.5-11s3.4-15 11-16.5 15 3.4 16.5 11-3.4 15-11 16.5z"/><path class="st2" d="M250.2 242.8l-9.8-3.7-8.6 6c-1 .7-2.3-.1-2.3-1.2l.5-10.5-8.3-6.3c-1-.7-.7-2.2.5-2.5l10.1-2.8 3.4-9.9c.4-1.1 1.9-1.3 2.6-.3l5.8 8.8 10.5.2c1.2 0 1.8 1.4 1.1 2.3L249 231l3 10c.4 1.2-.7 2.2-1.8 1.8z"/><path class="st5" d="M265.2 180.2l-5.3-14.4-13.7 4.1-5.8-13.8-13.6 2.2-6.1-9.6-4.8 3.1 8.1 12.9 12.8-2.2 6.1 14.4 13.4-4 4.9 13z"/><path class="st6" d="M838.2 246l-13.4-7.3-7.6 12-13.5-6.6-8.7 10.5-11-3.3-1.6 5.6 14.6 4.4 8.2-10 14.1 6.9 7.5-11.8 12.1 6.6z"/><path class="st2" d="M485.2 65.7l-5.7 14.1 12.8 6.2-5.1 14.2 11.5 7.5-2 11.2 5.7 1 2.7-15-10.9-7 5.2-14.8-12.6-6.1 5.2-12.8z"/><path class="st4" d="M822.9 430.6l-2.8-5.5-6.4.2-2.7-6.5-6.7 2.4-3.4-7.2-6.4 1.4-4.4-6.4 2.4-1.6 3.3 4.7 6.8-1.4 3.2 6.8 6.8-2.3 3 7.1 6.2-.2 2.7 5.1 4-1 .7 2.9zm-117.2-257l-3-8.8 13.7-6.3-2.8-13.5 9.5-6.4-3.3-4.8-12.6 8.6 2.6 12.7-14.2 6.6L700 175z"/><path class="st6" d="M815.1 153.3c15.1 23-5.4 55-32.2 50.2-4.8-.9-9.8.3-14.2 2.9l-14.8 9.1c-4.1 2.5-9.2 1.4-11.8-2.5l-5.7-8.7c-2.6-3.9-1.7-9.4 1.9-12.5 13.4-11.5 19.1-14.7 20.9-24.4 5.3-28.2 40.8-37.1 55.9-14.1z"/><path class="st3" d="M779.7 165.9c-.3-1.3-.6-2.7-.7-4.1-.7-8 5.5-10.8 8.8-8.8 2.1 1.3 2.9 4.4 1.7 7.3-1.1 2.6-3.4 4.5-5.8 6.6 1.3 4.5 3.3 8.6 6 12.3 7.3-4.4 12.6-2 12.9 2 .2 2.6-1.4 5.2-3.9 6.3-1.5.6-5.3 1.5-9.9-3.5-12.4 8.7-28.5 21.6-28.6 21.7l-2.1-2.9s16.1-12.9 28.5-21.6c-2.6-3.5-4.5-7.5-5.9-11.7-14.1 12.3-26.5 22.1-27 22.4l-2-2.9c.9-.5 13-9.9 28-23.1zm6-9.8c-1.1-.4-4 .8-2.8 7.1 3.2-2.9 4.2-4.1 2.8-7.1zm6.3 26c1.8 1.9 4.5 3.6 6.4 1.5 2.3-2.6-1.1-4.5-6.4-1.5z"/><path class="st2" d="M769.1 206.2c-.1.1-.3.1-.4.2l-14.8 9.1c-4.1 2.5-9.2 1.4-11.8-2.5l-5.7-8.7c-2.6-3.9-1.7-9.4 1.9-12.5 6-5.1 10.4-8.6 13.7-11.7l17.1 26.1z"/><path class="st7" d="M103.2 638.3s-.5-2.4-.6-3.2c-.1-.9-.2-3.8-.2-3.8s0-9.9.7-9.8c.7.1 1.7 1.7 1.9 2.4.2.6.5 1.3.7 1.9.2.6.8 1 1.6.7.8-.2.5-2.8.2-3.7-.9-2.7-4.8-9.6-5.2-10.3-.5-.9 2.7-18 3.3-23.9 1.3-9.7 3.1-19.6 3.2-20.6l17.3-38.2-11.5-11.8s-19.8 42.1-20.5 44.3c-.4 1.1-1.6 23.8-1.6 23.8.1 11.2.2 21.1.2 23 0 0-1.6 5.7-2.9 9.2-1.2 3.5-1 7.3-1.2 8.3 0 .2-.9 3.7-.3 8.2.5 3.9 1.8-.1 1.8-.1s.3-7.3.9-7.2c.4.1 0 4.1.6 8.4.1 1.1.3 2.2.4 3.2.4 2.6 2.1 3.1 2.1.3 0-1 0-2.6-.1-3.8-.2-1.3.1-2.5.1-3.6 0-2.2 0-3.7.1-3.7.1.1.4-.4.6.8.2 1.4 0 4.5.5 6.5.3 1.1.7 3.6.7 3.6s1.1 3.9 1.4 3.9c1.3-.1 1.3-3.1.7-4.6.1-1.2-.4-3.7-.4-3.7s.1-5.4.9-5.4c.6 0 2.9 13 4.1 12.8 1 .1.5-3.9.5-3.9z"/><path class="st8" d="M119.1 552s-7.2-1.2-11-2.7c-5.1-1.9-8.4-3.5-8.4-3.5s5.6-23.8 12.5-38.3c2.9-6 5.8-8.9 9.8-9.6 0 0 8.5 5.6 8.2 19.1 0 3.3-11.1 35-11.1 35z"/><path class="st7" d="M141.1 632.1l9.3 85.5s-4.5 18.1-4 23.2c.5 5.1 10.1 72.5 10.1 72.5l-.4 3.8v11.2h35.4s-7.5-3.5-18-10.3c-.8-.5-2.6-2.1-3-5.3-2.8-20.8 2.7-90 2.7-90l4.4-90.1-36.5-.5zM112.6 650c-2 .5-5.1 74-6.7 77.3-10.5 20.6-13 83.4-13 83.4l-3.1 8.9-3.3 11s10.5 2.9 16-.3l-.6-10.8-.6-9.9 26.5-78.2 14.5-79.8-29.7-1.6z"/><path class="st4" d="M165.4 507.7c-4.3-6-21.9-23.5-23.9-23.4-5.7.1-24.5.1-28.1 2v4.1c.1 18.4 2.4 36.6 7.1 54.4 3.2 12.4 6.3 25.6 5.9 30.4l.1.1c10.9 10.8 28 9.9 37.9-1.9 0 0 0-13.2 1.5-25.2 2.3-18.8 10.1-25.5-.5-40.5z"/><path class="st7" d="M135.7 465.6s.5 12.2-.6 16.9c-1.1 4.6-2.5 5 6.7 6.4 3.6.6 7.1 1.4 7.1 1.4s-.9-6.8-1.1-9.7c-.2-4.7 1.1-19.4 1.1-19.4l-13.2 4.4z"/><path class="st9" d="M142.7 471.7c1.9 1 3.6 1.7 5.3 1.9.3-5.8.9-12.4.9-12.4l-12.6 4.2c1.5 2.5 3.6 4.7 6.4 6.3z"/><path class="st7" d="M138.7 431.3s-5.2 1.8-8.1 7.6c-2.9 5.8-4 22 7.4 28.3 5.6 3.1 12.2 3.7 15.2 1 3.1-2.8 2.7-9.1 2.4-14.3-.6-10.2-2.9-25.9-16.9-22.6z"/><path d="M130.3 451.7c.6 2.7-.2 5.3-1.9 5.8s-3.6-1.3-4.3-4c-.6-2.7.2-5.3 1.9-5.8s3.6 1.3 4.3 4z" fill="#f7a491"/><path class="st4" d="M102 819.5c-4.8 2.2-10 .8-12.1.1l-3.4 11s10.6 3.1 16.1 0l-.6-11.1zm53.7 11.4h36.8c1.4-.1 1.7-1.3 1.2-2-1-1.5-5.3-2.5-10.1-4.8-8.5.9-26.3-5.1-27.6-7.1-.7 4-1 13.7-.3 13.9z"/><path class="st7" d="M229.8 535.5c.7-1 3.1-5.8 3.1-5.8s2.5-8.3 2-8.2c-.3.1-1.3 1.2-2.5 3.8-.7 1.5-1.5 4.2-2.3 5.6-1.3 2.3-2.8 3.3-2.5 2.4.3-.7 1.2-1.2 2-2.6 2-3.4 3.7-9 3-8.9-.7.1-2.6 3.9-4.7 6.9-.9 1.3-3.5 2.9-5.2 4 0-.7.2-1.5.3-1.8.2-.7 3.1-4.5 2-5s-8.1 7.9-8.1 7.9l-2.9 4.9-.3.2s-34.8 13.6-35.9 13.3c-2.7-.9-12.1-27.9-12.1-27.9l-19.4 3.5c-.3-.2 20.4 40.3 24.3 42.3 3.4 1.7 39.5-17.1 46.3-21.1 9.3-3.6 13-7.9 14.5-10.1.8-1.2 3.9-6.3 3.9-6.3s.7-7.1.2-7.2c-1.7-.2-2.2 6.5-2.2 6.5s-2.3 3.2-2.7 3.6c-1 .8-.8 0-.8 0z"/><path class="st8" d="M133.7 500.5c-2.7 11.2 11.5 36.3 11.5 36.3s20.2-9.8 23.7-14c0 0-13.9-23-14.8-24.5-1.9-3.2-8.4-9.9-12.8-8.7-2.7.9-7.6 10.9-7.6 10.9z"/><path class="st12" d="M136.9 472.8c1.5-10.3 18.6-31.3 12-40.1-5.3-7.1-14.7-5-20.6-2.9-26.9 9.3-25.4 43.1-33.9 48.4-15.4 9.6-24.9 15.6-26 37.2-1.3 25.7 20.5 38.8 46.7 32.5 14.1-3.4 17.8-8 23.5-21.3 2.5-6 7.7-24.7 6.3-33.8-1.3-8.3-9.2-11.7-8-20z"/><path class="st7" d="M147.2 453.9c0 3.1-1.1 5.5-2.5 5.5s-2.5-2.5-2.5-5.5c0-3.1 1.1-5.5 2.5-5.5s2.5 2.4 2.5 5.5z"/><path class="st2" d="M180.9 687.7l1.3-50.7c.2-14.3-2.6-28.5-8.3-41.6l-9.6-22c-3.9 1.3-7.5 2.3-11.6 2.8-8.9 1-17.6 0-26.4-1 0 .3-.1.6-.1.9-1.6 7.5-10.5 24.1-14.3 46.9-4.3 25.8-5.9 64.5-5.3 67.5 40.8 1.8 50.5 3.2 74.3-2.8z"/><path class="st13" d="M688.1 433.9l30.7 30.7s58.4 22.8 64.9 36.9c6.5 14-5.9 13.4-19.6 11.4-13.7-2-52.5-26.1-52.5-26.1L676 445.7l12.1-11.8z"/><path class="st6" d="M777.9 495.2l-7.6-2.7-14.7 6.9s-7.6 5.1-11.3 17.9c-3.7 12.7 0 88.8 6.1 101.1 6.2 12.2 27.5-123.2 27.5-123.2z"/><path class="st7" d="M826.1 800.4s5.4 3.5 5.8 5.1c.4 1.6 4.4 18.9 2.9 20.9-1.5 2-6.9 1-4.8 2.5 1.6 1.1 11.8 1.9 18.4.2 1.9-.5 1-16.7 1.3-19.1.4-3.6 2.9-11.7 1.4-13.8-.7-1-4.9-2.8-8.7-4.3-4-1.6-8.4-5.9-8.4-5.9l-7.9 14.4z"/><path class="st12" d="M842.1 791.6s-3.2 30.7-6.9 32.9c-1 .6-6.2 1.1-6.7 3.6 0 .1-.1 2.6 1.5 2.6l19.9-.1s.2-15.1.1-21c0 0 2.7-15.1 1.8-16.2-1-1-9.7-1.8-9.7-1.8z"/><path class="st7" d="M903.9 800.4s5.4 3.5 5.8 5.1c.4 1.6 4.4 18.9 2.9 20.9-1.5 2-6.9 1-4.8 2.5 1.6 1.1 11.8 1.9 18.4.2 1.9-.5 1-16.7 1.3-19.1.4-3.6 2.9-11.7 1.4-13.8-.7-1-4.9-2.8-8.7-4.3-4-1.6-8.4-5.9-8.4-5.9l-7.9 14.4z"/><path class="st8" d="M806.2 601s18.2 36.1 21.9 45.8l27.7 70.3 61.1 71.9s-4.5 11.5-11.2 14.6c0 0-73.7-59.5-79.7-68.9-9.2-14.3-51.3-101.8-51.3-101.8l-7.8-16.8 39.3-15.1z"/><path class="st4" d="M762.3 600.7l.3 30.8S749.4 732 752 738c6.2 14.6 74.5 63.9 74.5 63.9l9.3-16-49.1-54.8 18.6-53.3c5.2-12.4 16.3-36.3 16-49.8-.2-11.5-23.1-38.2-23.1-38.2l-35.9 10.9z"/><path class="st13" d="M790.2 646.2c18.1-4.1 32.8-10.5 34.3-15.6.7-2.3-9.4-25.3-16.8-55.9-2.4-10-2-19.4-5.9-54.5-.8-7.4-3.9-23-15.4-27.1-4-1.4-6.3-1.2-6.3-1.2-.1 0-14.7.1-21.3 3.8-1.6 2.2-7.8 14.4-9.4 47.7-.7 14.5-3.6 61.2-3 68.8l.3 3.3c2.5 20.1 23.7 35.2 43.5 30.7z"/><path class="st7" d="M758.2 518.5c7.4-.8 26-25.1 26-25.1v-.1l-11.5-18.1s-16.9 3.1-13.6 8.2c3.3 5.1 5.2 17.5 5.2 17.5-.1.1-.1.3-.2.5-1.2 2.4-5 9.9-5.9 17.1z"/><path class="st9" d="M759.1 483.3c-3.3-5.1 13.6-8.2 13.6-8.2l1 1.5c0 1.3-.1 2.4-.5 3.4-1.8 5.1-6.2 9.7-10.8 11.9-.8-3.1-1.9-6.5-3.3-8.6z"/><path class="st7" d="M763.2 446.4c.4-.3 13.2 20.7 10.1 29.4-3.1 8.7-13.4 15.6-19.5 12.5-6.8-3.4-17.1-27.6-10.9-37.8 6.1-10.2 20.3-4.1 20.3-4.1z"/><path class="st12" d="M744.6 437c7.5-1.6 21 .6 28.6 5.9 9.3 6.6 9.6 18.2 5.4 25.8-4.2 7.6-1.7 13.2-1.7 13.2s-13.1-.8-15.7-9.7c-1.1-3.7.3-6.3-2.2-8.4-1.9-1.6-3.6-6.3-5.5-10.1 0 0-8.4-4.5-11.7-.8-1.1 1.2-6.8-13.8 2.8-15.9z"/><path class="st7" d="M757.6 465.4c1.1 2.7 3.4 4.4 5 3.8 1.6-.7 2-3.4.8-6.2-1.1-2.7-3.4-4.4-5-3.8-1.5.7-1.9 3.5-.8 6.2z"/><path class="st12" d="M920 791.7s-3.3 30.6-7 32.9c-1 .6-6.2 1.1-6.7 3.6 0 .1-.2 2.7 1.5 2.6h19.9s.2-15.1.1-21c0 0 2.7-15.1 1.8-16.2-1-1.2-9.6-1.9-9.6-1.9z"/><path class="st1" d="M480.8 650.1c-15.8-33-20.1-82.3-2.9-121.4 29-66 108.8-92.9 102.9-167.7-1.5-18.8-9.9-34-22.2-43.7-32.5-25.6-84.7-12.1-122 5.8-23.8 11.4-46 27.7-66.4 48.7l-10.4-132.1c44.8-31.8 99-48.4 153-52.6 110.8-8.7 196.4 32.9 205.1 143.7 7.9 101.1-60.4 145.9-106.2 196.4-25.4 28-31.2 49.7-29.2 74.7 1 12.9 5.9 28.9 13.7 39.1l-115.4 9.1zm79.5 180.6c-107.7 8.5-120.2-136.2-11.4-144.8 107.2-8.4 118.7 136.3 11.4 144.8z"/><path class="st7" d="M671.7 440.5c-.2-.9.5-.2-.8-7.3-.4-2.1-1.7-4.2-2.6-5.4-.5-.6-1.7-1.7-2.4-2.1-1.2-.7-2.2.5-1.9 1.1.2.7 1.5 3 1.8 3.7.2.7.4 2.3-.2 2.9-.6.6-9.5-9.7-10-10.6-.5-.8-1.5-4.1-1.5-4.1s-.8-2.4-1.7-1.8c-.6.4-1.3 2.4.5 6.3 1.6 3.4 3.7 6.2 3.5 6.4-.6.5-4.5-4.1-4.5-4.1s-1.4-2.6-2.3-3.5c-.6-1.7-1.6-3.9-2.7-3-.2.2.5 3.8.5 3.8s1.4 2.4 1.9 3.6c1 2.1 3.3 4.7 4.1 6 .7 1.1 0 .9 0 1 0 .1-1-1.2-2.6-3-.8-.9-1.8-1.8-2.6-3.1-.7-1.1-1.8-2.6-2.5-3.4-2-2.4-3.1-.8-1.5 1.8.6 1 1.2 2 1.9 3.1 2.5 4.1 5.7 7.3 5.4 7.7-.4.5-5.8-5.7-5.8-5.7s-3.8-2.5-1.5 1.2c2.6 4.3 5.5 7.1 5.6 7.2.9.8 3.3 4.4 6.8 6.7 3.5 2.2 9.2 5.6 9.2 5.6.7.8 2.3 3.3 4.6 7l8.5-10.2c-3.4-3.2-7-7.1-7.2-7.8z"/><path class="st5" d="M665 454.9l11.7-10.3 40.3 39.8s62.4 5.5 62.6 5.5l2.5.8c22.7 7.8 13.3 26.3 9 29.2-10.2 6.7-66.6 2.7-84.7-8.6-14.8-9.2-41.4-56.4-41.4-56.4z"/><path class="st7" d="M244.7 512c.5 1.7.7 2.2 1.3 3.3 3.7 7.2 12.3 17.4 12.3 17.4l6.6-15.9s-1.1-5-3-12.1c-6.4 1.7-12.5 2.8-17.2 7.3z"/><path class="st13" d="M282.7 498.2s-36.9 17-38.1 16.7c-.8-.2-15.2-25.9-15.3-50.1-.1-11.2 10.8-24.6 22.9-21.9 6.1 1.3 6 3.1 15 17.1 9 14 15.5 38.2 15.5 38.2z"/><path class="st7" d="M314.2 802.5l-.9 15.5c-.3 2-1.6 6.8-1.6 8.6 0 6.7 29.9-5.7 23.2-8.7-.6-.3-3.8-2.3-4-4.6-.3-3.5-1.1-10.6-1.1-10.6l-15.6-.2z"/><path class="st12" d="M334.8 817.9s-7 2.1-10.6 2.6c-3.6.5-8.3-3.8-10.9-2.6-2.8 1.3-2.7 12.9-2.7 12.9s37.6 3.3 48.2-.1c4.2-1.5-9.6-8-24-12.8z"/><path class="st7" d="M253.1 802.5l-.9 15.5c-.3 2-1.6 6.8-1.6 8.6 0 6.7 29.9-5.7 23.2-8.7-.6-.3-4.7-3.8-4.9-6.1-.3-3.5-.1-9.1-.1-9.1l-15.7-.2z"/><path class="st12" d="M273.7 817.9s-7 2.1-10.6 2.6c-3.6.5-8.3-3.8-10.9-2.6-2.8 1.3-2.9 12.9-2.9 12.9s37.8 3.8 48.4-.1c4.2-1.6-9.6-8-24-12.8z"/><path class="st7" d="M262.2 520.6l26.3-39.3c.1-.3.3-1 .7-2.1 1.3-3.9 4.1-12 6.5-20.1v-.1c.8-2.8 2.4-7.7 3.9-12.5 1.7-5.3 3.9-11.9 3.9-13-.1-.2-.2-.5-.4-1-1-2.7-2.3-9-2.7-11.8-.3-1.8-.6-6 1.4-6 3.1 0 1.6 4.3 3 6.9.5-1.8 1.6-5.3 2.1-8.9l.5-8.4c.1-.6-.5-5.2 1.6-5.2h.1c1.9.2 1.9 5.1 2.7 13.3.3-1 .5-2.1.7-3.2 0-.6.4-3.1.7-4.4-.4-2.3-.2-6 2.1-5.6 1.2.2 1.1 5.3 1.1 5.3 0 .7-.1 6.1 0 7.1.2-1.8 1.2-9.5 3-9.5 1.5 0 1.6 2.1 1.6 3.7 0 1-1 9.3-1 10.3.7-1.3 1.5-8.6 2.2-8.6 2.9 0 1.9 10.4.8 13.2-.1.3-.2.8-.3 1.5-.4 1.9-1 5-2.5 7.8-1.8 3.4-4.4 8.7-4.8 9.5-.3 1.7-1.2 7.7-2.3 15.2-.5 3.2-1 6.8-1.5 10.4-.1.8-.6 3.3-2.7 12.8-2.8 12.9-3.1 13.5-3.3 13.7-1.2 2.3-29.6 43.4-30.8 45.2l-.7 1-11.9-17.2z"/><path class="st9" d="M311.2 428.9s-2.1-5.8-5.9-5.8c0 0 2.1-.8 3.9.7 1.8 1.5 2 5.1 2 5.1z"/><path class="st7" d="M255.9 417.6l-3.4 22.9s12.9 11.1 20.4 8.7c6.3-2 2-10.8 2-10.8s-3.4-12.2-2.3-18.6c1-6.4-16.7-2.2-16.7-2.2z"/><path class="st9" d="M258.3 424.5c3.2 1.6 9.6 3.9 14.6 4.4-.5-3.2-.7-6.6-.3-9.1.5-3-3-3.6-7-3.5-5.1.5-9.7 1.3-9.7 1.3l-.7 4.4c1 1.1 2 2 3.1 2.5z"/><path class="st7" d="M239.6 391.3c-.5 0 5.1 25.5 13.8 29.9 8.7 4.4 21.7 2.1 24.2-4.8 2.7-7.6-7.1-33.7-19.4-37-12.3-3.3-18.6 11.9-18.6 11.9z"/><path class="st12" d="M249.7 367.8c-7 4.3-10.2 10.6-11.2 13.2-3.3 1.7-7.2 5.2-9.1 14.9-2.3 11.9 6 21 14.8 23.8 8.8 2.8 10.3 9 10.3 9l.9-6.7s-2-5.8-4.9-8.7c-2.9-2.9 1.4-7.2 1.8-10.6.3-2.7-1.5-7.8-1.1-12.2 0 0 4.9-7.9 9.7-9.9 8-3.4-2.3-18.3-11.2-12.8z"/><path class="st7" d="M253.4 407c1.1 2.9.7 5.9-1 6.5-1.7.7-4-1.2-5.2-4.1-1.1-2.9-.7-5.9 1-6.5 1.7-.7 4 1.2 5.2 4.1zm32.5 114.2l50.7-8.8s-5.8-15.5-7.8-15.5c-2.1 0-38.4 16.9-38.4 16.9l-2.9 6.2-1.6 1.2z"/><path class="st12" d="M259.9 558.4s-5.1 26.1-3 45.9c2.1 19.8 2.2 90.1 2.2 90.1L251.2 807l18.7.4s22.1-112.5 21.7-109.6 7.4-79.2 7.4-79.2l-26.4-62.7-12.7 2.5z"/><path class="st12" d="M264.8 557.1s-3.3 23.5.8 33.8c4.1 10.3 35.4 111.5 35.8 119.8.4 8.3 10.8 99.4 10.8 99.4l21.7-.7 4.7-101.4-9.8-127.4-9.6-32.2-54.4 8.7z"/><path class="st7" d="M252.5 440.5s5.4 3.7 10.3 3.3c5-.4 12.1-5.4 12.1-5.4l-1-3.6s-12.9-2-13.2-1.8c-.4.3-8.2 7.5-8.2 7.5zm57.1 55.6s19.2 19.3 27.9 16c8.7-3.3 12.2-14.6-8.9-31.1-19-14.7-19 15.1-19 15.1z"/><path class="st5" d="M322.6 520c-2.9-16.6-23.5-68.1-25.2-77.6-.8-4.6-11.9-4.7-22.6-4.1-11.2.6-22.4 2.2-22.4 2.2s-9.9 1.7-14.3 6.1c-4.4 4.4-5.5 16.4.8 39.4 5 18.1 11.1 28 14.1 41.2.6 4.4 1.1 8.8 1.8 13.9 1.1 19.7 0 45.8 0 45.8s54 12 74.3-6.2c.1-.1-3.6-43.8-6.5-60.7z"/><path class="st13" d="M336.3 484.4s-21.2 18.7-22.4 18.7c-.8 0-30.3-23.1-37.1-42.1-3.8-10.5 4.1-22.3 13.1-22.2 6.2 0 9 1.7 21.4 12.9 12.4 11 25 32.7 25 32.7z"/><path class="st4" d="M660.3 114l-46 31.1c-4.7 3.2-11 1.9-14.2-2.7l-31.1-46c-3.2-4.7-1.9-11 2.7-14.2l46-31.1c4.7-3.2 11-1.9 14.2 2.7l31.1 46c3.2 4.7 1.9 11.1-2.7 14.2z"/><path class="st3" d="M637.2 81.4c8.1 11.9 4.9 28.1-7 36.1-11.9 8.1-28.1 4.9-36.1-7-8.1-11.9-4.9-28.1 7-36.1 11.8-8 28-4.9 36.1 7z"/><path class="st4" d="M607 85.3L617.7 97c.8.9.7 2.2-.1 3-.9.8-2.2.7-3-.1-.1-.1-.2-.3-.3-.5L607 85.3z"/><path class="st4" d="M615.2 97l16.1-9-14 12c-.8.6-1.9.6-2.5-.2-.6-.8-.6-1.9.2-2.5 0-.1.1-.2.2-.3z"/><path class="st6" d="M198.5 365.9h-76.1c-21.5 0-38.9-17.4-38.9-38.9v-2.2c0-21.5 17.4-38.9 38.9-38.9h76.1c21.5 0 38.9 17.4 38.9 38.9v2.2c.1 21.4-17.4 38.9-38.9 38.9z"/><path class="st6" d="M219.2 335.6l37.9 17-25.4-35.5z"/><path class="st3" d="M134.8 323.3c0 3.3-3 5.9-6.6 5.9-3.7 0-6.6-2.6-6.6-5.9 0-3.3 3-5.9 6.6-5.9 3.6-.1 6.6 2.6 6.6 5.9zm30.9 0c0 3.3-3 5.9-6.6 5.9-3.7 0-6.6-2.6-6.6-5.9 0-3.3 3-5.9 6.6-5.9 3.6-.1 6.6 2.6 6.6 5.9zm30.9 0c0 3.3-3 5.9-6.6 5.9-3.7 0-6.6-2.6-6.6-5.9 0-3.3 3-5.9 6.6-5.9 3.6-.1 6.6 2.6 6.6 5.9z"/><path class="st6" d="M554.3 52.4L548 39.1l5.2-2.4 3.6 7.5 8.6-5.2 3 4.9z"/><path class="st4" d="M200.7 244l-13.8 4.9-2-5.4 7.9-2.8-4.4-9.1 5.2-2.5z"/><path class="st2" d="M774.8 109.8c1 3.3 2.1 6.6 3.1 9.8.8 2.6 1.4 6.7 3.9 8.2.6.4 1.6.2 2-.5 1.2-2.7-.5-6.2-1.4-8.9-1-3.3-2.1-6.6-3.1-9.8-.9-2.8-5.3-1.6-4.5 1.2zm34.8-3.5c-5.3 18.1-5.4 17.6-5 19.4.3 1.4 2.3 1.9 3.3.9 1.2-1.3.9-.9 6.1-19.1.7-2.8-3.6-4-4.4-1.2zm20.2 40.3c3.1-1.5 6.3-3 9.4-4.5 2.8-1.3 6.4-2.4 8.3-4.9.8-1.1-.3-2.6-1.5-2.6-3.1-.1-6.4 2.3-9.1 3.6-3.1 1.5-6.2 3-9.4 4.5-2.6 1.3-.3 5.2 2.3 3.9zm-10.2 54.5c3.2 4.1 6.4 8.4 10.1 12.2 2 2 4.8-1 3.1-3.1-3.4-4-6.8-8-10.1-12.1-1.8-2.2-4.8.9-3.1 3zm11.8-21.1c2.9 1.3 5.8 2.5 8.8 3.6 2.7 1.1 5.9 2.9 8.8 2.5 1.5-.2 1.7-2.3.9-3.2-1.1-1.2-1.7-1.1-8.1-3.6-2.9-1.1-5.8-2.3-8.7-3.4-2.3-.9-4 3.1-1.7 4.1z"/></g></g></switch></svg>