<svg width="723" height="589" fill="none" xmlns="http://www.w3.org/2000/svg"><g filter="url(#filter0_d)"><path d="M671.93 71.936H532.232c-17.002 0-30.784 13.783-30.784 30.784v65.275c0 17.001 13.783 30.783 30.784 30.783H671.93c17.001 0 30.783-13.782 30.783-30.783V102.72c0-17.001-13.782-30.784-30.783-30.784z" fill="#fff" fill-opacity=".01"/></g><path d="M671.93 71.936H532.232c-17.002 0-30.784 13.783-30.784 30.784v65.275c0 17.001 13.783 30.783 30.784 30.783H671.93c17.001 0 30.783-13.782 30.783-30.783V102.72c0-17.001-13.782-30.784-30.783-30.784z" fill="#fff"/><path d="M678.165 99.085H525.996a4.19 4.19 0 000 8.38h152.169a4.19 4.19 0 000-8.38z" fill="#EFF0F7"/><g filter="url(#filter1_d)"><path d="M581.255 99.085h-55.259a4.19 4.19 0 000 8.38h55.259a4.19 4.19 0 000-8.38z" fill="#3F80FD" fill-opacity=".01"/></g><path d="M581.448 99.085h-55.259a4.19 4.19 0 000 8.38h55.259a4.19 4.19 0 000-8.38z" fill="#3F80FD"/><path d="M678.165 115.126H525.996a4.19 4.19 0 00-4.189 4.19 4.19 4.19 0 004.189 4.19h152.169a4.19 4.19 0 000-8.38z" fill="#EFF0F7"/><g filter="url(#filter2_d)"><path d="M661.765 115.126H525.996a4.19 4.19 0 00-4.189 4.19 4.19 4.19 0 004.189 4.19h135.769a4.19 4.19 0 000-8.38z" fill="#3F80FD" fill-opacity=".01"/></g><path d="M661.958 115.126H526.189a4.19 4.19 0 00-4.189 4.19 4.19 4.19 0 004.189 4.19h135.769a4.19 4.19 0 000-8.38z" fill="#3F80FD"/><path d="M678.165 131.168H525.996a4.189 4.189 0 000 8.379h152.169a4.19 4.19 0 000-8.379z" fill="#EFF0F7"/><g filter="url(#filter3_d)"><path d="M572.841 131.063h-46.652a4.19 4.19 0 00-4.189 4.19 4.19 4.19 0 004.189 4.19h46.652a4.19 4.19 0 000-8.38z" fill="#3F80FD" fill-opacity=".01"/></g><path d="M572.944 131.063h-46.755a4.19 4.19 0 00-4.189 4.19 4.19 4.19 0 004.189 4.19h46.755a4.19 4.19 0 000-8.38z" fill="#3F80FD"/><path d="M678.165 147.209H525.996a4.19 4.19 0 00-4.189 4.19 4.19 4.19 0 004.189 4.19h152.169a4.19 4.19 0 000-8.38z" fill="#EFF0F7"/><g filter="url(#filter4_d)"><path d="M635.702 147.209H525.996a4.19 4.19 0 00-4.189 4.19 4.19 4.19 0 004.189 4.19h109.706a4.19 4.19 0 000-8.38z" fill="#3F80FD" fill-opacity=".01"/></g><path d="M635.702 147H525.996a4.19 4.19 0 00-4.189 4.19 4.19 4.19 0 004.189 4.19h109.706a4.19 4.19 0 000-8.38z" fill="#3F80FD"/><path d="M678.165 163.251H525.996a4.19 4.19 0 000 8.379h152.169a4.19 4.19 0 100-8.379z" fill="#EFF0F7"/><g filter="url(#filter5_d)"><path d="M594.447 163.251h-68.451a4.19 4.19 0 000 8.379h68.451a4.19 4.19 0 100-8.379z" fill="#3F80FD" fill-opacity=".01"/></g><path d="M594.64 163.251h-68.451a4.19 4.19 0 000 8.379h68.451a4.19 4.19 0 100-8.379z" fill="#3F80FD"/><g filter="url(#filter6_d)"><path d="M290.103 154.989H202c-17.673 0-32 14.327-32 32v93.269c0 17.673 14.327 32 32 32h88.103c17.673 0 32-14.327 32-32v-93.269c0-17.673-14.327-32-32-32z" fill="#fff" fill-opacity=".01"/></g><path d="M290.103 154.989H202c-17.673 0-32 14.327-32 32v93.269c0 17.673 14.327 32 32 32h88.103c17.673 0 32-14.327 32-32v-93.269c0-17.673-14.327-32-32-32z" fill="#fff"/><path d="M302.966 233.623c0 31.433-25.482 56.915-56.914 56.915-31.433 0-56.915-25.482-56.915-56.915s25.482-56.914 56.915-56.914c31.432 0 56.914 25.481 56.914 56.914zm-88.327 0c0 17.349 14.064 31.413 31.413 31.413 17.348 0 31.412-14.064 31.412-31.413 0-17.348-14.064-31.412-31.412-31.412-17.349 0-31.413 14.064-31.413 31.412z" fill="#F5F7FC"/><g filter="url(#filter7_d)"><path d="M252.057 189.779a44.255 44.255 0 0136.909 54.647" stroke="#FFC226" stroke-opacity=".01" stroke-width="25.322" stroke-linecap="round"/></g><path d="M252.057 189.779a44.255 44.255 0 0136.909 54.647" stroke="#FFC226" stroke-width="25.322" stroke-linecap="round"/><g filter="url(#filter8_d)"><path d="M210.208 207.668a44.256 44.256 0 0160.032-11.103" stroke="#FF8139" stroke-opacity=".01" stroke-width="25.322" stroke-linecap="round"/></g><path d="M210.208 207.668a44.256 44.256 0 0160.032-11.103" stroke="#FF8139" stroke-width="25.322" stroke-linecap="round"/><g filter="url(#filter9_d)"><path d="M254.758 277.012a44.25 44.25 0 01-44.848-17.851 44.252 44.252 0 01-1.848-48.235" stroke="#FF3951" stroke-opacity=".01" stroke-width="25.322" stroke-linecap="round"/></g><path d="M254.758 277.012a44.25 44.25 0 01-44.848-17.851 44.252 44.252 0 01-1.848-48.235" stroke="#FF3951" stroke-width="25.322" stroke-linecap="round"/><g filter="url(#filter10_d)"><path d="M433.845 14H302.783c-14.36 0-26 11.64-26 26v53.726c0 14.359 11.64 26 26 26h131.062c14.359 0 26-11.641 26-26V40c0-14.36-11.641-26-26-26z" fill="#fff" fill-opacity=".01"/></g><path d="M433.845 14H302.783c-14.36 0-26 11.64-26 26v53.726c0 14.359 11.64 26 26 26h131.062c14.359 0 26-11.641 26-26V40c0-14.36-11.641-26-26-26z" fill="#fff"/><path opacity=".1" d="M400.399 59.2c-23.445-13.221-11.816 32.53-46.362 11.192-29.828-18.425-34.2 18.397-50.561 30.06-2.579 1.838-6.133 7.535-9.419 7.569l144.155-.757a4.41 4.41 0 004.388-4.411V25.705c-13.16 4.638-18.756 46.718-42.201 33.496z" fill="#F4263E"/><g filter="url(#filter11_d)"><path d="M294.967 105.211c23.964 0 25.128-55.635 59.44-35.564 34.312 20.07 21.992-24.874 45.279-12.437 23.286 12.437 28.843-27.143 41.915-31.506" stroke="#F4263E" stroke-opacity=".01" stroke-width="3.151" stroke-linecap="round"/></g><path d="M294.967 105.211c23.964 0 25.128-55.635 59.44-35.564 34.312 20.07 21.992-24.874 45.279-12.437 23.286 12.437 28.843-27.143 41.915-31.506" stroke="#F4263E" stroke-width="3.151" stroke-linecap="round"/><g clip-path="url(#clip0)"><path d="M714 49c0-19.33-15.67-35-35-35H525c-19.33 0-35 15.67-35 35v188.696c0 19.33 15.67 35 35 35h154c19.33 0 35-15.67 35-35V49z" fill="#fff"/><path d="M602 237.639c36.473 0 66.041-29.567 66.041-66.041 0-36.473-29.568-66.041-66.041-66.041s-66.041 29.568-66.041 66.041c0 36.474 29.568 66.041 66.041 66.041z" stroke="#EFEFF5" stroke-width="21.655"/><g filter="url(#filter12_d)"><path d="M623.914 109.299a66.044 66.044 0 00-76.065 24.496" stroke="#CAB7FF" stroke-opacity=".01" stroke-width="21.655" stroke-linecap="round"/></g><path d="M623.914 109.299a66.044 66.044 0 00-76.065 24.496" stroke="#CAB7FF" stroke-width="21.655" stroke-linecap="round"/><g filter="url(#filter13_d)"><path d="M593.062 237.032a66.04 66.04 0 0054.891-18.003 66.04 66.04 0 0019.73-54.295" stroke="#3C16A8" stroke-opacity=".01" stroke-width="21.655" stroke-linecap="round"/></g><path d="M593.062 237.032a66.04 66.04 0 0054.891-18.003 66.04 66.04 0 0019.73-54.295" stroke="#171347" stroke-width="21.655" stroke-linecap="round"/><g filter="url(#filter14_d)"><path d="M668.041 171.598a66.042 66.042 0 00-55.567-65.205" stroke="#7545FF" stroke-opacity=".01" stroke-width="21.655" stroke-linecap="round"/></g><path d="M668.041 171.598a66.042 66.042 0 00-55.567-65.205" stroke="#624DE3" stroke-width="21.655" stroke-linecap="round"/><path d="M629.639 166.448h-55.277a7.592 7.592 0 000 15.182h55.277a7.591 7.591 0 000-15.182z" fill="#DADAE3"/><path d="M566.042 42.41h-53.185a7.814 7.814 0 000 15.628h53.185a7.814 7.814 0 000-15.628z" fill="#9292C8"/><path d="M600.676 64.267h-89.51a6.123 6.123 0 000 12.246h89.51a6.123 6.123 0 100-12.246z" fill="#E8E8F3"/><g filter="url(#filter15_d)"><path d="M642.748 67.557a8.095 8.095 0 008.095-8.096 8.095 8.095 0 10-8.095 8.096z" fill="#7545FF" fill-opacity=".01"/></g><path d="M642.748 67.557a8.095 8.095 0 008.095-8.096 8.095 8.095 0 10-8.095 8.096z" fill="#7545FF"/><path d="M665.19 67.557a8.095 8.095 0 10-8.095-8.096 8.095 8.095 0 008.095 8.096z" fill="#CAB7FF"/><path d="M687.633 67.557a8.096 8.096 0 100-16.192 8.096 8.096 0 000 16.192z" fill="#3C16A8"/></g><path d="M347.367 491.524h-29.999v5.271h29.999v-5.271z" fill="#4E4B66"/><path d="M363.631 568.7h-3.233L333.97 445.358l-1.504-7.028-4.752-22.141-1.757-8.266-6.649-30.983-2.32-10.838h11.542l1.869 10.838 1.237 7.127.83 4.738 4.737 27.384 1.518 8.8 24.91 143.711z" fill="#4E4B66"/><path d="M328.53 366.102l1.869 10.838h-11.091l-2.32-10.838h11.542zm10.191 58.887l-4.751 20.369-1.504-7.028-4.752-22.141-1.757-8.266 5.679-23.856.83 4.738 4.737 27.384 1.518 8.8z" fill="#14142B"/><path d="M347.929 366.102l-2.319 10.838-8.407 39.249-4.737 22.141-27.947 130.37H301.3l26.414-152.511 4.752-27.384 2.052-11.865 1.884-10.838h11.527z" fill="#4E4B66"/><path d="M347.929 366.102l-2.319 10.838h-11.092l1.884-10.838h11.527z" fill="#14142B"/><path d="M547.821 491.524h-29.999v5.271h29.999v-5.271z" fill="#4E4B66"/><path d="M564.085 568.7h-3.233l-26.428-123.342-1.504-7.028-4.752-22.141-1.757-8.266-6.649-30.983-2.32-10.838h11.541l1.87 10.838 1.237 7.127.83 4.738 4.737 27.384 1.518 8.8 24.91 143.711z" fill="#4E4B66"/><path d="M528.983 366.102l1.87 10.838h-11.091l-2.32-10.838h11.541zm10.192 58.887l-4.751 20.369-1.504-7.028-4.752-22.141-1.757-8.266 5.679-23.856.83 4.738 4.737 27.384 1.518 8.8z" fill="#14142B"/><path d="M548.383 366.102l-2.32 10.838-8.406 39.249-4.737 22.141-27.933 130.37h-3.233l26.414-152.511 4.752-27.384 2.052-11.865 1.884-10.838h11.527z" fill="#4E4B66"/><path d="M548.383 366.102l-2.32 10.838h-11.091l1.884-10.838h11.527z" fill="#14142B"/><path d="M566.364 351.257H288.583a3 3 0 00-3 3v8.845c0 1.656 1.344 3 3 3h277.781a3 3 0 003-3v-8.845a3 3 0 00-3-3z" fill="#4E4B66"/><path d="M355.112 351.257h-71.676a3.139 3.139 0 01-3.118-2.783l-5.049-44.318a3.138 3.138 0 013.118-3.493h68.161a3.139 3.139 0 013.118 2.783l5.446 47.811z" fill="#D9DBE9"/><path d="M351.064 347.854h-64.353a3.137 3.137 0 01-3.117-2.782l-4.674-41.021h67.153l4.991 43.803z" fill="#fff"/><path d="M376.972 347.854h-95.817v3.388h95.817v-3.388z" fill="#D9DBE9"/><path d="M397.777 347.854H301.96v3.388h95.817v-3.388z" fill="#EFF0F7"/><path d="M346.312 306.188l-.239-2.137H278.92l.253 2.137h67.139zm101.769 4.537l1.42 2.2 1.527 2.413a218.462 218.462 0 012.917 4.932c1.894 3.33 3.727 6.705 5.422 10.126a139.62 139.62 0 018.537 20.938c.55 1.771 1.038 3.543 1.527 5.314l.626 2.673.26 1.328.137.672c0 .214.092.504.092.443s.122 0 .275-.397c.164-.353.416-.658.733-.885.259-.153.305 0 .168.137a4.59 4.59 0 01-1.054.718 17.11 17.11 0 01-4.108 1.405 50.025 50.025 0 01-5.238.931c-3.635.474-7.636.703-11.393.901h-.382a5.365 5.365 0 00-5.025 4.575 5.36 5.36 0 003.498 5.826 66.088 66.088 0 0013.011 3.222 40.129 40.129 0 0014.936-.382 21.506 21.506 0 004.582-1.695 17.676 17.676 0 004.918-3.696 16.139 16.139 0 003.573-6.261c.598-2.103.81-4.297.626-6.476 0-.58 0-.794-.091-1.084l-.107-.84-.199-1.71c-.168-1.115-.32-2.245-.504-3.36-.381-2.23-.809-4.444-1.344-6.613a133.607 133.607 0 00-8.766-24.939c-1.848-3.94-3.818-7.819-5.971-11.591a138.819 138.819 0 00-3.36-5.605 94.785 94.785 0 00-1.802-2.78 96.923 96.923 0 00-2.001-2.871 10.687 10.687 0 00-14.586-2.464 10.687 10.687 0 00-3.083 14.468l.229.427z" fill="#fff"/><path d="M407.244 249.088c-.153 1.039-.825 1.787-1.527 1.695-.703-.091-1.1-1.023-.947-2.046.153-1.023.825-1.787 1.527-1.695.703.091 1.1 1.023.947 2.046z" fill="#14142B"/><path d="M406.51 250.89c-1.697 2.966-6.441 7.222-6.231 8.079.21.857 1.382 1.069 2.208 1.354a5.974 5.974 0 002.572.295l1.451-9.728z" fill="#FF97B8"/><path d="M411.749 243.926a.5.5 0 01-.336-.168 4.809 4.809 0 00-4.185-1.42.627.627 0 01-.733-.473.613.613 0 01.474-.718 6.018 6.018 0 015.299 1.741.626.626 0 010 .87.634.634 0 01-.519.168z" fill="#14142B"/><path d="M437.498 260.466c-.443 9.621.29 27 7.758 32.269 0 0-1.146 9.851-18.51 12.447-19.074 2.84-10.537-8.125-10.537-8.125 10.049-4.032 8.628-11.729 5.727-18.708l15.562-17.883z" fill="#FFD5BD"/><path d="M448.249 296.584c.748-4.353 1.527-9.316-1.757-10.08-3.604-.84-22.266 1.65-28.161 6.109-5.895 4.459-2.871 12.218-2.871 12.218l32.789-8.247z" fill="#fff"/><path d="M397.928 312.803c-.703 15.394 0 45.922 10.446 92.135h69.059c.428-9.606-9.484-51.023-8.628-96.534a17.208 17.208 0 00-4.906-12.351 17.2 17.2 0 00-12.245-5.166c-1.359 0-2.794 0-4.276.168-9.77.68-19.49 1.945-29.108 3.788-2.871.657-5.666 1.42-8.201 2.199a17.287 17.287 0 00-12.141 15.761z" fill="#624DE3"/><path opacity=".2" d="M408.359 340.506c1.099 7.819 3.634 21.381-5.513 36.378a441.681 441.681 0 01-2.566-17.471l8.079-18.907z" fill="#14142B"/><path d="M354.54 359.428l-11.622-4.001 4.734-12.218a14.734 14.734 0 0111.744 9.576l-4.856 6.643z" fill="#FFD5BD"/><path d="M337.04 352.125c-.612-1.377-2.474-9.159-1.237-9.866 1.237-.707 12.126 1.008 12.126 1.008l-4.735 12.263s-5.542-2.029-6.154-3.405z" fill="#FFD5BD"/><path d="M398.004 311.382a319.244 319.244 0 01-2.199 7.3c-.764 2.444-1.527 4.948-2.413 7.407-1.649 4.918-3.467 9.759-5.376 14.493-1.909 4.735-4.047 9.332-6.353 13.623a60.259 60.259 0 01-7.636 11.347l11.194-1.726c-2.153-.931-4.367-1.893-6.597-3.054-2.23-1.161-4.505-2.199-6.75-3.421l-6.873-3.62c-2.29-1.206-4.581-2.519-6.918-3.649l-.244-.123a5.41 5.41 0 00-6.579 1.375 5.403 5.403 0 00-.156 6.719 81.788 81.788 0 005.467 6.491c1.909 2.062 3.91 4.017 5.987 5.941a87.913 87.913 0 006.567 5.482 82.78 82.78 0 007.3 4.979 8.828 8.828 0 0010.599-1.176l.595-.565a71.781 71.781 0 0011.683-14.768 131.193 131.193 0 008.171-15.501c2.397-5.238 4.459-10.553 6.338-15.898.931-2.673 1.832-5.36 2.642-8.064.809-2.703 1.527-5.36 2.306-8.353a10.696 10.696 0 00-7.575-13.088 10.691 10.691 0 00-13.088 7.574l-.092.275z" fill="#fff"/><path d="M441.926 252.05c-2.672 12.524-3.589 19.992-10.95 25.535-11.072 8.339-25.825.214-26.955-12.874-1.008-11.775 3.513-30.284 16.647-33.476a17.488 17.488 0 0121.258 20.815z" fill="#FFD5BD"/><path d="M414.941 253.364c-5.987-.458-5.636-3.222-4.292-5.253 1.344-2.031 5-7.536 2.978-9.331s-8.323 2.199-6.613-5.773c1.711-7.972 12.951-18.067 22.771-11.882 19.563-3.222 25.962 4.673 22.908 11.973 15.532 6.873 4.322 20.786-1.863 20.786 5.513 4.917-14.114 21.121-16.066 19.96-1.953-1.161-24.191-8.613-19.823-20.48z" fill="#14142B"/><path d="M427.037 225.126a1.538 1.538 0 001.084-.473 18.444 18.444 0 0117.746-4.842 1.524 1.524 0 001.833-1.13 1.53 1.53 0 00-1.13-1.832 21.655 21.655 0 00-20.679 5.681 1.529 1.529 0 000 2.153 1.522 1.522 0 001.146.443zm20.235 42.67a1.528 1.528 0 001.084-.443c4.307-4.337 6.109-7.727 5.559-10.69a6.94 6.94 0 00-4.337-4.949 1.532 1.532 0 00-2.099 1.896c.136.382.419.695.785.869 1.604.764 2.459 1.649 2.642 2.703.184 1.054-.427 3.696-4.719 8.003-.143.142-.257.31-.334.497a1.516 1.516 0 000 1.174 1.522 1.522 0 001.419.94z" fill="#14142B"/><path d="M422.301 252.387a14.571 14.571 0 01-5.65 7.391c-3.498 2.306-5.865-.305-5.407-4.077.413-3.406 2.734-8.705 6.491-9.515 3.757-.809 5.742 2.551 4.566 6.201z" fill="#FFD5BD"/><path d="M302.89 575.297c-1.649 0-3.253-.229-3.787-.962a1.179 1.179 0 010-1.344 1.522 1.522 0 01.962-.718c2.153-.58 6.659 1.986 6.857 2.108a.28.28 0 01.121.129.28.28 0 01.017.176.308.308 0 01-.23.26 24.195 24.195 0 01-3.94.351zm-2.046-2.504a2.184 2.184 0 00-.58.076.898.898 0 00-.351.149.89.89 0 00-.26.279c-.214.381-.138.565 0 .672.611.839 3.879.855 6.276.519a13.946 13.946 0 00-5.146-1.695h.061z" fill="#3F80FD"/><path d="M306.8 574.946h-.122c-1.528-.687-4.658-3.482-4.414-4.948 0-.336.29-.764 1.13-.855a2.264 2.264 0 011.695.519c1.65 1.359 2.001 4.841 2.016 4.979a.314.314 0 01-.137.274.226.226 0 01-.168.031zm-3.162-5.238h-.183c-.55 0-.58.275-.595.336-.138.885 1.954 3.054 3.558 4.031a7.192 7.192 0 00-1.71-3.985c-.3-.25-.679-.386-1.07-.382z" fill="#3F80FD"/><path d="M321.476 574.641h-12.92l2.459-29.903h12.92l-2.459 29.903z" fill="#FFD5BD"/><path d="M308.541 573.144h14.096a.944.944 0 01.978.885l.839 11.424a2.23 2.23 0 01-2.199 2.306c-5.07-.092-12.37-.382-18.769-.382-7.468 0-8.247.397-17.013.397-5.299 0-5.971-5.36-3.68-5.834 10.415-2.214 12.966-2.459 22.495-7.834a6.74 6.74 0 013.253-.962z" fill="#14142B"/><path opacity=".2" d="M311.03 544.753l-1.283 15.41h12.92l1.268-15.41H311.03z" fill="#14142B"/><path d="M383.252 575.297a4.232 4.232 0 01-3.055-.84 1.3 1.3 0 010-1.527 1.44 1.44 0 01.962-.703c1.879-.443 5.452 2.001 5.605 2.108a.315.315 0 01.103.136.305.305 0 01.019.169.274.274 0 01-.229.229 15.57 15.57 0 01-3.405.428zm-1.619-2.459a1.526 1.526 0 00-.382 0 .834.834 0 00-.565.412c-.275.504-.107.718 0 .779.55.733 3.192.733 5.116.413a9.92 9.92 0 00-4.078-1.604h-.091z" fill="#3F80FD"/><path d="M386.581 574.946h-.138c-1.344-.733-3.924-3.559-3.65-4.994a1.009 1.009 0 01.978-.81 1.665 1.665 0 011.298.398c1.527 1.221 1.817 4.948 1.817 5.1a.301.301 0 01-.137.291.311.311 0 01-.168.015zm-2.596-5.238h-.138c-.397 0-.443.229-.458.305-.153.855 1.527 3.054 2.825 4.001a7.376 7.376 0 00-1.527-4.047 1.094 1.094 0 00-.702-.259z" fill="#3F80FD"/><path d="M398.401 574.641h-12.905l-6.49-29.903h12.904l6.491 29.903z" fill="#FFD5BD"/><path d="M384.58 573.144h14.493a1.112 1.112 0 011.099.885l2.551 11.424a1.896 1.896 0 01-1.879 2.306c-5.07-.092-7.529-.382-13.912-.382-3.925 0-8.95.397-14.371.397-5.422 0-6.109-5.36-3.91-5.834 9.942-2.184 10.69-5.177 13.821-8.048a3.142 3.142 0 012.108-.748z" fill="#14142B"/><path d="M429.067 404.938s-71.625 21.732-73.397 50.505c-3.253 52.993 22.74 98.152 22.74 98.152h19.365s-7.361-22.388-10.003-70.388c-3.314-60.324 110.752 1.405 89.661-78.269h-48.366z" fill="#171347"/><path opacity=".2" d="M391.926 544.753h-12.92l3.344 15.41h12.921l-3.345-15.41z" fill="#14142B"/><path d="M408.374 404.938s-92.625 6.109-96.29 55.269c-4.2 56.507-5.422 93.388-5.422 93.388h19.182s9.866-34.652 18.326-84.469c2.551-14.92 34.194-17.486 64.143-19.258 25.809-1.527 45.632-3.054 47.801-31.643l-.336-13.287h-47.404z" fill="#171347"/><path d="M301.975 548.464c-.107 0 1.237 9.164 1.237 9.164H329.8l.718-8.11-28.543-1.054zm70.586 0c-.107 0 2.443 9.164 2.443 9.164h26.573l-.488-8.11-28.528-1.054z" fill="#624DE3"/><path d="M412.543 445.806l12.966-88.073a10.028 10.028 0 013.366-6.139 10.03 10.03 0 016.561-2.444h76.497a10.038 10.038 0 017.596 3.477 10.039 10.039 0 012.331 8.023l-12.523 85.156a7.454 7.454 0 01-7.468 7.453H362.42a7.464 7.464 0 012.189-5.275 7.44 7.44 0 015.279-2.178h42.655z" fill="#3F80FD"/><path opacity=".5" d="M412.543 445.806l12.966-88.073a10.028 10.028 0 013.366-6.139 10.03 10.03 0 016.561-2.444h76.497a10.038 10.038 0 017.596 3.477 10.039 10.039 0 012.331 8.023l-12.523 85.156a7.454 7.454 0 01-7.468 7.453H362.42a7.464 7.464 0 012.189-5.275 7.44 7.44 0 015.279-2.178h42.655z" fill="#fff"/><path opacity=".3" d="M435.436 349.15h76.497a10.038 10.038 0 017.596 3.477 10.039 10.039 0 012.331 8.023l-12.523 85.156a7.454 7.454 0 01-7.468 7.453h-81.11l14.677-104.109z" fill="#3F80FD"/><path d="M508.359 588.874h4.322l-10.812-135.615h-4.338l10.828 135.615z" fill="#3F80FD"/><path opacity=".6" d="M508.359 588.874h4.322l-10.812-135.615h-4.338l10.828 135.615z" fill="#fff"/><path d="M434.825 588.874h4.322l-10.828-135.615h-4.322l10.828 135.615z" fill="#3F80FD"/><path opacity=".6" d="M434.825 588.874h4.322l-10.828-135.615h-4.322l10.828 135.615z" fill="#fff"/><path d="M428.166 588.874h4.337l10.813-135.615h-4.322l-10.828 135.615z" fill="#3F80FD"/><path opacity=".7" d="M428.166 588.874h4.337l10.813-135.615h-4.322l-10.828 135.615z" fill="#fff"/><path d="M354.632 588.874h4.322l10.827-135.615h-4.321l-10.828 135.615z" fill="#3F80FD"/><path opacity=".7" d="M354.632 588.874h4.322l10.827-135.615h-4.321l-10.828 135.615z" fill="#fff"/><path d="M103.61 156.519s20.036-8.787 25.917 15.985c4.766 19.95 15.236 23.306 14.783 27.42-.452 4.114-35.419 13.681-55.168-2.361l14.468-41.044z" fill="#171347"/><path d="M126.894 239.923a99.467 99.467 0 002.204 5.438 172.19 172.19 0 002.39 5.195c1.646 3.435 3.506 6.755 5.395 10.018a123.952 123.952 0 0013.266 18.79l.959 1.087c.344.387.515.63 1.231 1.36a11.297 11.297 0 004.78 2.862c1.652.465 3.386.562 5.08.286a15.956 15.956 0 003.921-1.145 27.909 27.909 0 005.725-3.434 55.349 55.349 0 004.608-3.964 99.003 99.003 0 0014.225-17.917l-5.081-3.836a147.286 147.286 0 01-15.57 14.311 29.775 29.775 0 01-7.899 4.637c-1.145.386-1.932.214-1.732.157.2-.057.186 0 .143 0-.043 0-.315-.415-.544-.73l-.787-1.03a146.041 146.041 0 01-11.305-17.631c-1.689-3.091-3.263-6.254-4.795-9.431a208.42 208.42 0 01-2.218-4.78 124.589 124.589 0 01-2.003-4.722l-11.993 4.479z" fill="#FFD5BD"/><path d="M130.973 222.707c5.352-.201 14.643 13.782 14.769 19.262.125 5.48-13.925 16.873-13.925 16.873s-16.228-20.365-14.01-26.948c2.375-6.855 5.381-8.915 13.166-9.187z" fill="#171347"/><path opacity=".2" d="M131.86 227.401l7.241 22.683-6.526 7.885-.715-30.568z" fill="#14142B"/><path d="M186.742 260.831l14.802-3.765-10.008-7.898s-7.442 3.134-7.914 8.343l3.12 3.32z" fill="#FFD5BD"/><path d="M208.257 250.847c-.081-1.834-5.638-5.478-7.685-5.725-2.046-.246-9.216 4.165-9.216 4.165l10.175 7.785s6.808-4.392 6.726-6.225zM93.178 572.021h12.565l-.615-29.108H92.563l.615 29.108z" fill="#FFD5BD"/><path d="M106.959 570.561H92.792a1.004 1.004 0 00-1.002.859l-1.603 11.177a2.017 2.017 0 002.018 2.232c4.923-.086 7.299-.372 13.509-.372 3.821 0 14.784.401 20.036.401 5.252 0 5.552-5.224 3.363-5.724-9.846-2.118-16.801-5.038-20.121-7.828a3.297 3.297 0 00-2.033-.745z" fill="#171347"/><path opacity=".2" d="M105.127 542.913l.315 15.012H92.877l-.33-15.012h12.58z" fill="#14142B"/><path d="M136.024 228.932c.272 7.957-1.101 26.518-9.459 69.723l-51.032-1.517c1.43-20.737-10.863-73.742-6.784-76.463 4.08-2.722 14.458-2.002 21.753-2.218a162.12 162.12 0 0123.183.701c5.896.715 12.265 1.932 16.443 2.862a7.397 7.397 0 015.896 6.912z" fill="#171347"/><path d="M93.579 192.454c1.245 7.499 2.29 21.208-3.077 26.017a28.913 28.913 0 0017.702 12.622c11.764-5.968 5.481-11.935 5.481-11.935-8.257-2.233-7.856-8.401-6.239-14.154l-13.867-12.55z" fill="#FFD5BD"/><path d="M108.204 231.093l-1.517-2.976-8.172 1.846 9.689 1.13z" fill="#A0A3BD"/><path d="M106.687 228.116c-2.633-1.202-14.37-11.287-15.241-11.577-.87-.291-5.714.29-6.096 1.359-.383 1.069 6.716 23.505 9.03 24.458 2.314.952 7.928-11.378 12.307-14.24z" fill="#fff"/><path d="M108.204 231.093l.687-2.976 5.009.357-5.696 2.619z" fill="#A0A3BD"/><path d="M108.891 228.117c4.05-2.691 1.879-10.047 2.662-10.776.783-.729 5.823.91 6.097 1.345.273.434 2.845 24.418 1.302 23.67-1.543-.748-5.682-11.377-10.061-14.239z" fill="#fff"/><path opacity=".2" d="M99.231 197.563l8.2 7.442a24.695 24.695 0 00-.83 4.092c-3.163-.558-7.427-4.178-7.656-7.513a11.16 11.16 0 01.286-4.021z" fill="#14142B"/><path d="M89.5 175.281c.157 12.479 0 17.76 5.925 24.443 8.987 10.017 24.328 7.155 27.849-5.123 3.205-11.034 2.418-29.581-9.517-35.134a17.02 17.02 0 00-22.306 7.474 17.017 17.017 0 00-1.95 8.34z" fill="#FFD5BD"/><path d="M90.516 181.277l15.67-.773a.358.358 0 00.343-.372.355.355 0 00-.386-.344l-15.67.773a.352.352 0 00-.313.247.358.358 0 00-.016.139.343.343 0 00.372.33z" fill="#fff"/><path d="M126.565 298.655s-6.454 93.378-10.018 131.545c-3.735 39.713-8.586 124.82-8.586 124.82H90.974s-3.55-86.553-2.204-125.721c1.431-42.69.53-131.746.53-131.746l37.265 1.102z" fill="#171347"/><path d="M89.4 555.621h19.935l1.474-6.354-22.34-.788.93 7.142z" fill="#624DE3"/><path opacity=".2" d="M89.428 330.897c2.06-2.29 4.293-1.102 6.84 5.424 8.487 22.268-.558 57.801-7.155 78.266.444-25.473.43-58.989.315-83.69z" fill="#14142B"/><path d="M109.964 180.662c0 1.016.458 1.86 1.117 1.889.658.028 1.23-.759 1.288-1.775.057-1.016-.444-1.86-1.117-1.889-.672-.029-1.288.758-1.288 1.775zm11.449.343c0 1.016.458 1.86 1.116 1.889.659.029 1.231-.759 1.288-1.775.058-1.016-.443-1.86-1.116-1.889-.673-.028-1.288.687-1.288 1.775z" fill="#14142B"/><path d="M122.429 179.202l2.462-.587s-1.345 1.846-2.462.587z" fill="#14142B"/><path d="M117.006 181.764a26.9 26.9 0 003.291 6.64 4.3 4.3 0 01-3.649.501l.358-7.141z" fill="#FF97B8"/><path d="M110.937 192.597c.472.098.95.161 1.431.186a.303.303 0 00.287-.172.303.303 0 00.028-.114.314.314 0 00-.286-.301 7.991 7.991 0 01-6.383-3.463.308.308 0 00-.186-.137.298.298 0 00-.229.037.284.284 0 00-.14.293c.006.038.02.075.04.107a8.298 8.298 0 005.438 3.564z" fill="#14142B"/><path d="M85.636 186.529a9.074 9.074 0 004.494 5.31c2.862 1.431 4.894-.959 4.622-3.979-.243-2.704-2.018-6.74-5.138-6.926a4.09 4.09 0 00-3.978 5.595z" fill="#FFD5BD"/><path d="M105.485 177.17a.576.576 0 00.63-.286c1.359-2.39 4.894-2.762 4.923-2.777a.585.585 0 00.529-.644.59.59 0 00-.415-.506c-.074-.023-.152-.031-.229-.023-.171 0-4.178.429-5.839 3.363a.591.591 0 00.215.816l.186.057zm19.62-2.004a.555.555 0 00.558-.186.585.585 0 000-.844 5.924 5.924 0 00-5.209-1.517.599.599 0 00-.429.73.613.613 0 00.729.429 4.634 4.634 0 014.108 1.245.605.605 0 00.243.143z" fill="#14142B"/><path d="M62.452 235.1a1354.482 1354.482 0 01-5.209 20.193c-1.789 6.697-3.75 13.381-5.91 19.849-2.161 6.469-4.837 12.88-7.313 19.463s-4.995 13.223-7.27 19.935l5.724 2.705c3.721-6.068 7.156-12.236 10.548-18.504 1.67-3.13 3.3-6.297 4.894-9.503a114.093 114.093 0 004.508-10.017c2.733-6.784 5.009-13.61 7.04-20.479 2.033-6.87 3.893-13.739 5.467-20.808L62.452 235.1z" fill="#FFD5BD"/><path d="M68.749 220.675c-5.152 1.431-11.29 14.234-11.82 18.818-.532 4.585 19.419 14.769 19.419 14.769s7.67-14.468 5.724-21.151c-2.046-6.941-7.427-14.039-13.323-12.436z" fill="#171347"/><path d="M111.682 572.765a4.784 4.784 0 003.048-.773 1.687 1.687 0 00.544-1.431.98.98 0 00-.515-.787c-1.532-.844-6.541 1.717-7.156 2.003a.314.314 0 00-.157.315.273.273 0 00.243.244c1.314.27 2.651.414 3.993.429zm2.247-2.605c.186-.011.373.024.543.101a.361.361 0 01.146.136.366.366 0 01.055.193 1.059 1.059 0 01-.344.958c-.758.687-2.862.802-5.61.344a16.006 16.006 0 015.21-1.732z" fill="#3F80FD"/><path d="M107.789 572.321h.114c1.503-.687 4.465-3.391 4.294-4.808 0-.344-.301-.759-1.117-.845a2.151 2.151 0 00-1.66.516c-1.574 1.316-1.86 4.694-1.874 4.837a.29.29 0 00.028.153.296.296 0 00.1.119.304.304 0 00.115.028zm2.991-5.094h.172c.543 0 .586.271.601.343.128.859-1.875 2.991-3.406 3.921a6.904 6.904 0 011.603-3.878c.283-.253.65-.391 1.03-.386z" fill="#3F80FD"/><path d="M19.42 572.021h12.564l7.614-29.108h-12.58l-7.599 29.108z" fill="#FFD5BD"/><path d="M19.305 570.561H33.43a.748.748 0 01.614.234.755.755 0 01.202.625l-.859 11.177a2.636 2.636 0 01-2.504 2.232c-4.909-.086-7.156-.372-13.424-.372-3.821 0-7.628.401-12.88.401-5.252 0-4.407-5.224-2.103-5.724 10.318-2.118 10.661-5.038 14.597-7.828a3.99 3.99 0 012.232-.745z" fill="#171347"/><path opacity=".2" d="M39.584 542.913l-3.907 15.012h-12.58l3.922-15.012h12.565z" fill="#14142B"/><path d="M75.532 297.138c-14.525 19.462-23.37 90.931-29.795 129.141-6.683 39.741-23.112 128.798-23.112 128.798h16.987s23.112-90.588 35.219-128.941c13.38-42.346 33.373-128.941 33.373-128.941l-32.672-.057z" fill="#171347"/><path d="M21.409 555.621h19.95l1.459-6.354-22.34-.788.93 7.142z" fill="#624DE3"/><path d="M17.63 570.919a4.736 4.736 0 01-2.418-2.018 1.663 1.663 0 01.143-1.546.955.955 0 01.787-.486c1.76-.1 5.18 4.365 5.567 4.88a.3.3 0 010 .343.271.271 0 01-.315.115 21.015 21.015 0 01-3.763-1.288zm-.9-3.32a1.29 1.29 0 00-.545-.143.354.354 0 00-.315.214 1.064 1.064 0 00-.114 1.002c.4.945 2.218 1.946 4.923 2.733a16.343 16.343 0 00-3.95-3.806z" fill="#3F80FD"/><path d="M21.337 572.192a.258.258 0 01-.1-.071c-1.059-1.26-2.561-4.98-1.746-6.168.2-.286.601-.558 1.431-.272a2.193 2.193 0 011.274 1.173c.859 1.861-.343 5.038-.386 5.181a.302.302 0 01-.23.186.267.267 0 01-.243-.029zm-.5-5.881l-.172-.072c-.515-.186-.644 0-.673 0-.5.701.4 3.492 1.431 4.995a6.9 6.9 0 00.23-4.194 1.515 1.515 0 00-.817-.729z" fill="#3F80FD"/><path d="M110.981 178.93l2.461-.587s-1.345 1.846-2.461.587z" fill="#14142B"/><path d="M74.86 294.061l-1.431 4.537c-.186.343.229.715.816.744l52.52 1.56c.458 0 .845-.201.888-.487l.587-4.565c0-.315-.344-.587-.845-.601l-51.676-1.546a.956.956 0 00-.859.358z" fill="#624DE3"/><path d="M81.63 300.114h-1.432c-.272 0-.472-.157-.458-.329l.83-5.924c0-.172.272-.301.544-.301h1.431c.272 0 .472.157.458.329l-.83 5.925c-.029.172-.272.3-.544.3zm41.214 1.217h-1.431c-.272 0-.472-.158-.458-.329l.83-5.911c0-.171.272-.315.544-.3h1.431c.272 0 .472.157.458.329l-.83 5.91c-.029.186-.272.315-.544.301zm-20.607-.616h-1.432c-.271 0-.472-.157-.458-.343l.83-5.91c0-.172.272-.301.544-.301h1.431c.272 0 .473.158.458.329l-.83 5.911c.029.2-.272.329-.543.314z" fill="#14142B"/><path d="M38.195 312.279l-10.017 9.173 12.68 1.631s4.75-6.511 2.49-11.219l-5.153.415z" fill="#FFD5BD"/><path d="M26.474 331.885c1.273 2.09 9.44 1.147 10.69.787 1.252-.361 3.721-9.589 3.721-9.589l-12.679-1.617s-3.004 8.329-1.732 10.419z" fill="#FFD5BD"/><path d="M102.094 157.822s10.547-4.838 22.181 9.831c-14.01 4.165-23.426 1.274-23.426 1.274l1.245-11.105z" fill="#171347"/><path d="M103.61 156.519s4.156 51.795 0 55.254c-4.155 3.459-28.617-17.414-28.95-19.334-.334-1.92 2.074-40.371 28.95-35.92z" fill="#171347"/><path d="M111.124 189.205c3.32 0 6.368-4.107 6.812-9.159a10.267 10.267 0 00-.251-4.058 10.26 10.26 0 00-1.81-3.641 4.294 4.294 0 00-3.22-1.517c-3.32 0-6.383 4.107-6.826 9.159a10.172 10.172 0 002.075 7.699 4.293 4.293 0 003.22 1.517zm1.531-17.659a3.645 3.645 0 011.48.351c.464.219.876.533 1.21.922a9.558 9.558 0 011.875 7.156c-.401 4.679-3.148 8.5-6.096 8.5a3.573 3.573 0 01-2.691-1.288 9.52 9.52 0 01-1.889-7.155c.415-4.68 3.149-8.486 6.111-8.486zm10.934 17.659c2.69 0 5.152-4.021 5.595-9.159.301-3.449-.415-6.583-1.86-8.157a2.97 2.97 0 00-2.204-1.059c-2.69 0-5.138 4.021-5.596 9.159-.286 3.449.43 6.569 1.875 8.157a2.976 2.976 0 002.19 1.059zm1.531-17.659a2.206 2.206 0 011.674.83c1.303 1.431 1.961 4.407 1.675 7.613-.387 4.608-2.633 8.501-4.88 8.501a2.247 2.247 0 01-1.66-.83c-1.303-1.431-1.961-4.408-1.689-7.614.401-4.608 2.605-8.5 4.88-8.5z" fill="#fff"/><path d="M117.578 180.375h.157a2.096 2.096 0 011.961 0 .355.355 0 00.486-.114.326.326 0 00.054-.127.34.34 0 00-.154-.36 2.863 2.863 0 00-2.647 0 .372.372 0 00-.186.473.393.393 0 00.329.128z" fill="#fff"/><defs><filter id="filter0_d" x="481.448" y="57.937" width="241.265" height="166.842" filterUnits="userSpaceOnUse" color-interpolation-filters="sRGB"><feFlood flood-opacity="0" result="BackgroundImageFix"/><feColorMatrix in="SourceAlpha" values="0 0 0 0 0 0 0 0 0 0 0 0 0 0 0 0 0 0 127 0" result="hardAlpha"/><feOffset dy="6"/><feGaussianBlur stdDeviation="10"/><feColorMatrix values="0 0 0 0 0.247059 0 0 0 0 0.501961 0 0 0 0 0.992157 0 0 0 0.05 0"/><feBlend in2="BackgroundImageFix" result="effect1_dropShadow"/><feBlend in="SourceGraphic" in2="effect1_dropShadow" result="shape"/></filter><filter id="filter1_d" x="512.753" y="93.652" width="81.746" height="26.488" filterUnits="userSpaceOnUse" color-interpolation-filters="sRGB"><feFlood flood-opacity="0" result="BackgroundImageFix"/><feColorMatrix in="SourceAlpha" values="0 0 0 0 0 0 0 0 0 0 0 0 0 0 0 0 0 0 127 0" result="hardAlpha"/><feOffset dy="3.622"/><feGaussianBlur stdDeviation="4.527"/><feColorMatrix values="0 0 0 0 0.247059 0 0 0 0 0.501961 0 0 0 0 0.992157 0 0 0 0.29 0"/><feBlend in2="BackgroundImageFix" result="effect1_dropShadow"/><feBlend in="SourceGraphic" in2="effect1_dropShadow" result="shape"/></filter><filter id="filter2_d" x="512.753" y="109.694" width="162.256" height="26.488" filterUnits="userSpaceOnUse" color-interpolation-filters="sRGB"><feFlood flood-opacity="0" result="BackgroundImageFix"/><feColorMatrix in="SourceAlpha" values="0 0 0 0 0 0 0 0 0 0 0 0 0 0 0 0 0 0 127 0" result="hardAlpha"/><feOffset dy="3.622"/><feGaussianBlur stdDeviation="4.527"/><feColorMatrix values="0 0 0 0 0.247059 0 0 0 0 0.501961 0 0 0 0 0.992157 0 0 0 0.29 0"/><feBlend in2="BackgroundImageFix" result="effect1_dropShadow"/><feBlend in="SourceGraphic" in2="effect1_dropShadow" result="shape"/></filter><filter id="filter3_d" x="512.946" y="125.631" width="73.139" height="26.488" filterUnits="userSpaceOnUse" color-interpolation-filters="sRGB"><feFlood flood-opacity="0" result="BackgroundImageFix"/><feColorMatrix in="SourceAlpha" values="0 0 0 0 0 0 0 0 0 0 0 0 0 0 0 0 0 0 127 0" result="hardAlpha"/><feOffset dy="3.622"/><feGaussianBlur stdDeviation="4.527"/><feColorMatrix values="0 0 0 0 0.247059 0 0 0 0 0.501961 0 0 0 0 0.992157 0 0 0 0.29 0"/><feBlend in2="BackgroundImageFix" result="effect1_dropShadow"/><feBlend in="SourceGraphic" in2="effect1_dropShadow" result="shape"/></filter><filter id="filter4_d" x="512.753" y="141.777" width="136.193" height="26.488" filterUnits="userSpaceOnUse" color-interpolation-filters="sRGB"><feFlood flood-opacity="0" result="BackgroundImageFix"/><feColorMatrix in="SourceAlpha" values="0 0 0 0 0 0 0 0 0 0 0 0 0 0 0 0 0 0 127 0" result="hardAlpha"/><feOffset dy="3.622"/><feGaussianBlur stdDeviation="4.527"/><feColorMatrix values="0 0 0 0 0.247059 0 0 0 0 0.501961 0 0 0 0 0.992157 0 0 0 0.29 0"/><feBlend in2="BackgroundImageFix" result="effect1_dropShadow"/><feBlend in="SourceGraphic" in2="effect1_dropShadow" result="shape"/></filter><filter id="filter5_d" x="512.753" y="157.819" width="94.938" height="26.487" filterUnits="userSpaceOnUse" color-interpolation-filters="sRGB"><feFlood flood-opacity="0" result="BackgroundImageFix"/><feColorMatrix in="SourceAlpha" values="0 0 0 0 0 0 0 0 0 0 0 0 0 0 0 0 0 0 127 0" result="hardAlpha"/><feOffset dy="3.622"/><feGaussianBlur stdDeviation="4.527"/><feColorMatrix values="0 0 0 0 0.247059 0 0 0 0 0.501961 0 0 0 0 0.992157 0 0 0 0.29 0"/><feBlend in2="BackgroundImageFix" result="effect1_dropShadow"/><feBlend in="SourceGraphic" in2="effect1_dropShadow" result="shape"/></filter><filter id="filter6_d" x="150" y="140.989" width="192.103" height="197.269" filterUnits="userSpaceOnUse" color-interpolation-filters="sRGB"><feFlood flood-opacity="0" result="BackgroundImageFix"/><feColorMatrix in="SourceAlpha" values="0 0 0 0 0 0 0 0 0 0 0 0 0 0 0 0 0 0 127 0" result="hardAlpha"/><feOffset dy="6"/><feGaussianBlur stdDeviation="10"/><feColorMatrix values="0 0 0 0 1 0 0 0 0 0.505882 0 0 0 0 0.223529 0 0 0 0.1 0"/><feBlend in2="BackgroundImageFix" result="effect1_dropShadow"/><feBlend in="SourceGraphic" in2="effect1_dropShadow" result="shape"/></filter><filter id="filter7_d" x="231.603" y="173.221" width="79.154" height="95.556" filterUnits="userSpaceOnUse" color-interpolation-filters="sRGB"><feFlood flood-opacity="0" result="BackgroundImageFix"/><feColorMatrix in="SourceAlpha" values="0 0 0 0 0 0 0 0 0 0 0 0 0 0 0 0 0 0 127 0" result="hardAlpha"/><feOffset dy="3.896"/><feGaussianBlur stdDeviation="3.896"/><feColorMatrix values="0 0 0 0 1 0 0 0 0 0.760784 0 0 0 0 0.14902 0 0 0 0.21 0"/><feBlend in2="BackgroundImageFix" result="effect1_dropShadow"/><feBlend in="SourceGraphic" in2="effect1_dropShadow" result="shape"/></filter><filter id="filter8_d" x="189.755" y="172.813" width="100.938" height="59.204" filterUnits="userSpaceOnUse" color-interpolation-filters="sRGB"><feFlood flood-opacity="0" result="BackgroundImageFix"/><feColorMatrix in="SourceAlpha" values="0 0 0 0 0 0 0 0 0 0 0 0 0 0 0 0 0 0 127 0" result="hardAlpha"/><feOffset dy="3.896"/><feGaussianBlur stdDeviation="3.896"/><feColorMatrix values="0 0 0 0 1 0 0 0 0 0.505882 0 0 0 0 0.223529 0 0 0 0.16 0"/><feBlend in2="BackgroundImageFix" result="effect1_dropShadow"/><feBlend in="SourceGraphic" in2="effect1_dropShadow" result="shape"/></filter><filter id="filter9_d" x="173.554" y="188.524" width="109.45" height="123.44" filterUnits="userSpaceOnUse" color-interpolation-filters="sRGB"><feFlood flood-opacity="0" result="BackgroundImageFix"/><feColorMatrix in="SourceAlpha" values="0 0 0 0 0 0 0 0 0 0 0 0 0 0 0 0 0 0 127 0" result="hardAlpha"/><feOffset dy="5.843"/><feGaussianBlur stdDeviation="7.791"/><feColorMatrix values="0 0 0 0 1 0 0 0 0 0.223529 0 0 0 0 0.317647 0 0 0 0.34 0"/><feBlend in2="BackgroundImageFix" result="effect1_dropShadow"/><feBlend in="SourceGraphic" in2="effect1_dropShadow" result="shape"/></filter><filter id="filter10_d" x="256.783" y="0" width="223.062" height="145.726" filterUnits="userSpaceOnUse" color-interpolation-filters="sRGB"><feFlood flood-opacity="0" result="BackgroundImageFix"/><feColorMatrix in="SourceAlpha" values="0 0 0 0 0 0 0 0 0 0 0 0 0 0 0 0 0 0 127 0" result="hardAlpha"/><feOffset dy="6"/><feGaussianBlur stdDeviation="10"/><feColorMatrix values="0 0 0 0 0.956863 0 0 0 0 0.14902 0 0 0 0 0.243137 0 0 0 0.1 0"/><feBlend in2="BackgroundImageFix" result="effect1_dropShadow"/><feBlend in="SourceGraphic" in2="effect1_dropShadow" result="shape"/></filter><filter id="filter11_d" x="290.241" y="22.238" width="156.087" height="88.96" filterUnits="userSpaceOnUse" color-interpolation-filters="sRGB"><feFlood flood-opacity="0" result="BackgroundImageFix"/><feColorMatrix in="SourceAlpha" values="0 0 0 0 0 0 0 0 0 0 0 0 0 0 0 0 0 0 127 0" result="hardAlpha"/><feOffset dy="1.26"/><feGaussianBlur stdDeviation="1.575"/><feColorMatrix values="0 0 0 0 0.956863 0 0 0 0 0.14902 0 0 0 0 0.243137 0 0 0 0.33 0"/><feBlend in2="BackgroundImageFix" result="effect1_dropShadow"/><feBlend in="SourceGraphic" in2="effect1_dropShadow" result="shape"/></filter><filter id="filter12_d" x="529.043" y="94.73" width="113.68" height="65.85" filterUnits="userSpaceOnUse" color-interpolation-filters="sRGB"><feFlood flood-opacity="0" result="BackgroundImageFix"/><feColorMatrix in="SourceAlpha" values="0 0 0 0 0 0 0 0 0 0 0 0 0 0 0 0 0 0 127 0" result="hardAlpha"/><feOffset dy="7.978"/><feGaussianBlur stdDeviation="3.989"/><feColorMatrix values="0 0 0 0 0.460416 0 0 0 0 0.270833 0 0 0 0 1 0 0 0 0.09 0"/><feBlend in2="BackgroundImageFix" result="effect1_dropShadow"/><feBlend in="SourceGraphic" in2="effect1_dropShadow" result="shape"/></filter><filter id="filter13_d" x="574.255" y="153.906" width="112.592" height="110.517" filterUnits="userSpaceOnUse" color-interpolation-filters="sRGB"><feFlood flood-opacity="0" result="BackgroundImageFix"/><feColorMatrix in="SourceAlpha" values="0 0 0 0 0 0 0 0 0 0 0 0 0 0 0 0 0 0 127 0" result="hardAlpha"/><feOffset dy="7.978"/><feGaussianBlur stdDeviation="3.989"/><feColorMatrix values="0 0 0 0 0.460416 0 0 0 0 0.270833 0 0 0 0 1 0 0 0 0.09 0"/><feBlend in2="BackgroundImageFix" result="effect1_dropShadow"/><feBlend in="SourceGraphic" in2="effect1_dropShadow" result="shape"/></filter><filter id="filter14_d" x="593.667" y="95.564" width="93.18" height="102.818" filterUnits="userSpaceOnUse" color-interpolation-filters="sRGB"><feFlood flood-opacity="0" result="BackgroundImageFix"/><feColorMatrix in="SourceAlpha" values="0 0 0 0 0 0 0 0 0 0 0 0 0 0 0 0 0 0 127 0" result="hardAlpha"/><feOffset dy="7.978"/><feGaussianBlur stdDeviation="3.989"/><feColorMatrix values="0 0 0 0 0.460416 0 0 0 0 0.270833 0 0 0 0 1 0 0 0 0.09 0"/><feBlend in2="BackgroundImageFix" result="effect1_dropShadow"/><feBlend in="SourceGraphic" in2="effect1_dropShadow" result="shape"/></filter><filter id="filter15_d" x="629.443" y="49.803" width="26.61" height="26.61" filterUnits="userSpaceOnUse" color-interpolation-filters="sRGB"><feFlood flood-opacity="0" result="BackgroundImageFix"/><feColorMatrix in="SourceAlpha" values="0 0 0 0 0 0 0 0 0 0 0 0 0 0 0 0 0 0 127 0" result="hardAlpha"/><feOffset dy="3.647"/><feGaussianBlur stdDeviation="2.605"/><feColorMatrix values="0 0 0 0 0.460416 0 0 0 0 0.270833 0 0 0 0 1 0 0 0 0.18 0"/><feBlend in2="BackgroundImageFix" result="effect1_dropShadow"/><feBlend in="SourceGraphic" in2="effect1_dropShadow" result="shape"/></filter><clipPath id="clip0"><path fill="#fff" transform="translate(490 14)" d="M0 0h224v258.902H0z"/></clipPath></defs></svg>