<svg width="708" height="517" fill="none" xmlns="http://www.w3.org/2000/svg"><g clip-path="url(#clip0)"><g filter="url(#filter0_dd)"><path d="M658.908 30.5H72.436C62.254 30.5 54 38.754 54 48.936v410.53c0 10.182 8.254 18.436 18.436 18.436h586.472c10.182 0 18.436-8.254 18.436-18.436V48.936c0-10.182-8.254-18.436-18.436-18.436z" fill="#fff" fill-opacity=".01"/></g><path d="M658.908 30.5H72.436C62.254 30.5 54 38.754 54 48.936v410.53c0 10.182 8.254 18.436 18.436 18.436h586.472c10.182 0 18.436-8.254 18.436-18.436V48.936c0-10.182-8.254-18.436-18.436-18.436z" fill="#fff"/><path d="M641.885 137.268H289.001c-8.145 0-14.748 6.603-14.748 14.748V426.1c0 8.146 6.603 14.749 14.748 14.749h352.884c8.145 0 14.748-6.603 14.748-14.749V152.016c0-8.145-6.603-14.748-14.748-14.748zm-397.299 0H93.646c-8.146 0-14.749 6.603-14.749 14.748v114.302c0 8.145 6.603 14.748 14.749 14.748h150.94c8.145 0 14.748-6.603 14.748-14.748V152.016c0-8.145-6.603-14.748-14.748-14.748zm0 159.784H93.646c-8.146 0-14.749 6.603-14.749 14.749v114.301c0 8.145 6.603 14.748 14.749 14.748h150.94c8.145 0 14.748-6.603 14.748-14.748V311.801c0-8.146-6.603-14.749-14.748-14.749z" fill="#F3F6FC"/><path d="M88.047 70.652a9.15 9.15 0 100-18.3 9.15 9.15 0 000 18.3z" fill="#F8334A"/><path d="M115.196 70.652a9.15 9.15 0 100-18.3 9.15 9.15 0 000 18.3z" fill="#F7C31D"/><path d="M142.343 70.651a9.15 9.15 0 100-18.3 9.15 9.15 0 000 18.3z" fill="#38D535"/><path d="M460.938 89.814H94.932c-8.856 0-16.035 7.179-16.035 16.034 0 8.856 7.18 16.035 16.035 16.035h366.006c8.856 0 16.035-7.179 16.035-16.035 0-8.855-7.179-16.034-16.035-16.034zm133.041-.002h-85.64c-8.856 0-16.035 7.179-16.035 16.034v.001c0 8.855 7.179 16.034 16.035 16.034h85.64c8.856 0 16.035-7.179 16.035-16.034v-.001c0-8.855-7.179-16.034-16.035-16.034zm52.915 0h-12.175c-5.379 0-9.74 4.36-9.74 9.74v12.59c0 5.379 4.361 9.74 9.74 9.74h12.175c5.379 0 9.74-4.361 9.74-9.74v-12.59c0-5.38-4.361-9.74-9.74-9.74z" fill="#F3F6FC"/><path d="M201.999 102.826H97.983a3.021 3.021 0 000 6.042h104.016a3.022 3.022 0 000-6.042zm54.315 0h-40.346a3.022 3.022 0 000 6.042h40.346a3.022 3.022 0 000-6.042zm287.704 0h-34.894a3.022 3.022 0 000 6.042h34.894a3.022 3.022 0 000-6.042zm-84.718 0h-12.565a3.022 3.022 0 000 6.042H459.3a3.022 3.022 0 000-6.042zm132.767 0h-12.565a3.022 3.022 0 000 6.042h12.565a3.022 3.022 0 000-6.042z" fill="#C0C9E2"/><path d="M639.757 109.441c.58.58 1.519.58 2.099 0l4.976-4.977a1.55 1.55 0 00-2.191-2.192l-3.835 3.835-3.834-3.835a1.55 1.55 0 00-2.192 2.192l4.977 4.977z" fill="#C0C9E2" stroke="#C0C9E2" stroke-width=".812"/><path d="M623.78 212.454H307.106a6.746 6.746 0 000 13.493H623.78a6.746 6.746 0 000-13.493z" fill="#D3DEF5"/><path d="M300.36 219.2a6.746 6.746 0 016.746-6.746h145.812v13.492H307.106a6.746 6.746 0 01-6.746-6.746z" fill="#2253FF"/><path d="M526.313 212.453h-80.066v13.493h80.066v-13.493z" fill="#F13D6F"/><path d="M581.693 212.453h-55.38v13.493h55.38v-13.493z" fill="#693CF3"/><path d="M317.287 264.451h-12.015a4.805 4.805 0 00-4.805 4.806v12.014a4.805 4.805 0 004.805 4.805h12.015a4.805 4.805 0 004.805-4.805v-12.014a4.805 4.805 0 00-4.805-4.806z" fill="#2253FF"/><path d="M317.287 304.444h-12.015a4.806 4.806 0 00-4.805 4.806v12.014a4.805 4.805 0 004.805 4.805h12.015a4.805 4.805 0 004.805-4.805V309.25a4.806 4.806 0 00-4.805-4.806z" fill="#F13D6F"/><path d="M317.287 344.436h-12.015a4.805 4.805 0 00-4.805 4.805v12.015a4.805 4.805 0 004.805 4.805h12.015a4.805 4.805 0 004.805-4.805v-12.015a4.805 4.805 0 00-4.805-4.805z" fill="#693CF3"/><path d="M317.287 384.429h-12.015a4.805 4.805 0 00-4.805 4.805v12.015a4.805 4.805 0 004.805 4.805h12.015a4.805 4.805 0 004.805-4.805v-12.015a4.805 4.805 0 00-4.805-4.805z" fill="#D3DEF5"/><path d="M441.293 270.033h-99.032a4.954 4.954 0 000 9.909h99.032a4.954 4.954 0 000-9.909zm0 40.269h-99.032a4.954 4.954 0 000 9.909h99.032a4.954 4.954 0 000-9.909zm0 39.992h-99.032a4.954 4.954 0 000 9.909h99.032a4.954 4.954 0 000-9.909zm0 39.993h-99.032a4.954 4.954 0 000 9.909h99.032a4.954 4.954 0 000-9.909z" fill="#96A4CA"/><path d="M536.928 270.033h-62.639a4.954 4.954 0 000 9.909h62.639a4.954 4.954 0 000-9.909zm0 40.269h-62.639a4.954 4.954 0 000 9.909h62.639a4.954 4.954 0 000-9.909zm0 39.992h-62.639a4.954 4.954 0 000 9.909h62.639a4.954 4.954 0 000-9.909zm0 39.993h-62.639a4.954 4.954 0 000 9.909h62.639a4.954 4.954 0 000-9.909zm88.645-120.254h-23.216a4.954 4.954 0 000 9.909h23.216a4.955 4.955 0 000-9.909zm0 40.269h-23.216a4.954 4.954 0 000 9.909h23.216a4.955 4.955 0 100-9.909zm0 39.992h-23.216a4.954 4.954 0 000 9.909h23.216a4.955 4.955 0 100-9.909zm0 39.993h-23.216a4.954 4.954 0 000 9.909h23.216a4.955 4.955 0 000-9.909z" fill="#C0C9E2"/><path d="M367.052 172.064h-56.373c-5.64 0-10.212 4.572-10.212 10.212 0 5.639 4.572 10.211 10.212 10.211h56.373c5.64 0 10.212-4.572 10.212-10.211 0-5.64-4.572-10.212-10.212-10.212z" fill="#D4DDF0"/><path d="M478.757 183.544h-83.873a4.471 4.471 0 000 8.943h83.873a4.472 4.472 0 100-8.943z" fill="#C0C9E2"/><path fill-rule="evenodd" clip-rule="evenodd" d="M168.449 209.051v-50.149c-27.41.335-49.527 22.659-49.527 50.149 0 25.591 19.169 46.706 43.931 49.769l6.222-49.769h-.626z" fill="#2253FF"/><path fill-rule="evenodd" clip-rule="evenodd" d="M217.809 196.823l-49.499 12.576v-50.494c.21-.003.419-.004.629-.004 23.535 0 43.305 16.121 48.87 37.922z" fill="#693CF3"/><path fill-rule="evenodd" clip-rule="evenodd" d="M219.309 209.017c0 27.844-22.572 50.416-50.417 50.416-2.118 0-4.205-.13-6.255-.384l5.866-49.861 49.313-12.398a50.536 50.536 0 011.493 12.227z" fill="#F13D6F"/><path d="M109.54 439.94v-99.961c0-6.109 4.952-11.061 11.061-11.061h11.137c6.109 0 11.061 4.952 11.061 11.061v99.961H109.54z" fill="#2253FF"/><path d="M152.486 439.94v-47.937c0-6.109 4.952-11.062 11.061-11.062h11.138c6.109 0 11.061 4.953 11.061 11.062v47.937h-33.26z" fill="#693CF3"/><path d="M195.432 439.94v-65.381c0-6.109 4.952-11.062 11.061-11.062h11.137c6.109 0 11.061 4.953 11.061 11.062v65.381h-33.259z" fill="#F13D6F"/></g><defs><clipPath id="clip0"><path fill="#fff" transform="translate(0 .5)" d="M0 0h708v516H0z"/></clipPath><filter id="filter0_dd" x="0" y=".5" width="707.197" height="515.402" filterUnits="userSpaceOnUse" color-interpolation-filters="sRGB"><feFlood flood-opacity="0" result="BackgroundImageFix"/><feColorMatrix in="SourceAlpha" values="0 0 0 0 0 0 0 0 0 0 0 0 0 0 0 0 0 0 127 0"/><feOffset dy="4.776"/><feGaussianBlur stdDeviation="14.927"/><feColorMatrix values="0 0 0 0 0.133333 0 0 0 0 0.32549 0 0 0 0 1 0 0 0 0.1 0"/><feBlend in2="BackgroundImageFix" result="effect1_dropShadow"/><feColorMatrix in="SourceAlpha" values="0 0 0 0 0 0 0 0 0 0 0 0 0 0 0 0 0 0 127 0"/><feOffset dx="-20" dy="4"/><feGaussianBlur stdDeviation="17"/><feColorMatrix values="0 0 0 0 0.0346875 0 0 0 0 0.0765563 0 0 0 0 0.225 0 0 0 0.17 0"/><feBlend in2="effect1_dropShadow" result="effect2_dropShadow"/><feBlend in="SourceGraphic" in2="effect2_dropShadow" result="shape"/></filter></defs></svg>