<svg width="1508" height="655" fill="none" xmlns="http://www.w3.org/2000/svg"><g clip-path="url(#clip0)"><path d="M1281.79 504.83c.07.067.1.149.17.216.09.108.12.19.15.273.05.123.05.22.08.303-.01.097.02.179.02.277l-.02.292a.769.769 0 01-.08.268.762.762 0 01-.13.241l-.19.215a.54.54 0 01-.2.174c-.1.087-.14.102-.25.148-.12.046-.22.036-.29.066-.1-.011-.18.02-.27.01-.09-.011-.19-.021-.28-.031-.11-.052-.21-.063-.26-.088a.878.878 0 01-.24-.145l-.21-.201c-.07-.067-.15-.134-.18-.216-.09-.108-.12-.191-.15-.272-.05-.124-.04-.222-.07-.304-.04-.082-.03-.18.02-.292l.02-.293c0-.097.03-.154.07-.267.03-.057.07-.169.13-.241l.19-.215c.06-.072.12-.144.2-.174.14-.103.34-.179.51-.2.09.012.17-.019.26-.009l.29.031c.09.012.15.037.26.089.05.025.16.077.23.144l.22.201zm5.42 13.945c.07.067.11.149.22.201.08.108.12.191.15.273.05.123.04.221.07.303-.01.097.03.18.02.277l-.02.292a.769.769 0 01-.08.268.762.762 0 01-.13.241l-.18.215a.63.63 0 01-.2.174c-.1.087-.14.102-.26.148s-.21.036-.29.066c-.09-.011-.17.02-.27.01-.09-.011-.19-.021-.28-.031a.822.822 0 01-.26-.088 1.278 1.278 0 01-.24-.145l-.21-.201a.626.626 0 01-.17-.216c-.09-.108-.12-.191-.16-.272-.05-.124-.04-.222-.07-.304.01-.097-.03-.18-.02-.277l.02-.292a.764.764 0 01.08-.267.907.907 0 01.13-.242l.18-.215c.07-.072.13-.143.21-.174.14-.102.33-.179.5-.199.1.011.18-.019.27-.01l.28.032c.1.011.15.037.26.088.06.026.17.078.24.145l.21.2zm5.47 13.93c.07.067.1.149.21.201.09.108.12.191.15.273.05.123.04.221.08.303-.01.097.02.18.01.277l-.02.293c0 .097-.03.154-.07.267-.03.087-.08.168-.13.241l-.19.215c-.06.072-.12.144-.2.174a.652.652 0 01-.26.148c-.11.046-.21.036-.29.067-.09-.012-.17.019-.26.009l-.29-.031a.822.822 0 01-.26-.088.999.999 0 01-.23-.145l-.22-.201c-.07-.067-.14-.133-.17-.216-.09-.108-.12-.19-.15-.272-.05-.124-.04-.221-.08-.304.01-.097-.02-.179-.02-.277l.02-.292a.764.764 0 01.08-.267.907.907 0 01.13-.242l.19-.215a.54.54 0 01.2-.174c.14-.102.33-.179.51-.199.09.011.17-.019.26-.01l.29.032c.09.011.14.037.26.088.05.026.16.078.23.145l.22.2zm5.19 13.234c.07.067.12.191.21.201.09.107.12.19.15.273.05.123.04.22.08.303-.01.097.02.179.01.277l-.02.292c0 .098-.03.155-.07.268a.87.87 0 01-.13.24l-.19.216c-.06.072-.12.144-.2.174-.1.087-.14.102-.26.148-.11.046-.21.036-.29.067-.09-.011-.17.019-.26.008l-.29-.031c-.09-.01-.14-.036-.26-.087a.966.966 0 01-.23-.145l-.22-.2c-.07-.068-.14-.135-.17-.217-.09-.107-.12-.19-.15-.272-.05-.124-.04-.221-.08-.303.01-.099-.02-.181-.02-.277l.03-.294c0-.097.03-.154.07-.266.02-.057.07-.17.13-.241l.19-.216c.06-.071.12-.143.2-.173.14-.104.33-.18.51-.2.09.011.17-.02.26-.01l.29.032c.09.011.14.036.26.088.05.026.16.077.23.144.07.067.14.134.22.201zm103.99-86.967c-.04-.083-.11-.149-.14-.231a.794.794 0 01-.15-.273c-.05-.123-.04-.221-.08-.304a.639.639 0 01-.01-.277c0-.098.01-.196.02-.293a.769.769 0 01.08-.268c.02-.057.07-.17.13-.243l.19-.216a.573.573 0 01.21-.176c.14-.103.34-.181.51-.202.1.011.17-.02.27-.011l.29.03c.09.011.15.037.26.088a.84.84 0 01.24.143l.21.2a.55.55 0 01.18.216c.09.107.12.19.15.272.05.124.04.221.08.304-.01.097.02.18.01.277l-.02.294a.775.775 0 01-.08.268.907.907 0 01-.13.242l-.19.216a.564.564 0 01-.21.176c-.1.087-.18.118-.26.15-.12.046-.21.036-.29.067-.1-.01-.17.021-.27.011l-.29-.03a.766.766 0 01-.26-.086c-.05-.027-.17-.078-.24-.145l-.21-.199zm7.46 11.912c.03.082.1.148.21.2.09.108.12.191.16.273.04.124.04.221.07.303-.01.098.03.18.02.277l-.02.293a.758.758 0 01-.08.267.741.741 0 01-.13.241l-.18.215c-.07.072-.13.144-.21.175a.737.737 0 01-.25.148c-.12.046-.21.035-.29.066-.1-.011-.17.019-.27.01-.09-.012-.19-.021-.28-.032-.1-.011-.15-.036-.26-.088a.876.876 0 01-.24-.145l-.21-.2a.813.813 0 01-.18-.216c-.08-.108-.12-.19-.15-.272-.05-.124-.04-.222-.07-.304a.634.634 0 01-.02-.277l.02-.293c.01-.097.03-.154.07-.266.03-.058.07-.17.14-.242l.18-.215a.618.618 0 01.2-.174c.14-.103.34-.179.51-.199.1.011.17-.02.27-.01.09.011.19.021.28.031a.78.78 0 01.26.089c.05.026.17.077.24.144l.21.201zm5.46 13.93c.04.082.11.149.22.2.08.108.12.191.15.274.05.123.04.22.07.302 0 .098.03.18.02.278l-.02.292c-.01.098-.03.155-.07.268a1.56 1.56 0 01-.13.24l-.19.216c-.06.071-.12.143-.2.174-.1.087-.18.117-.26.148-.12.046-.21.035-.29.066-.09-.011-.17.02-.27.01a23.3 23.3 0 00-.28-.032.793.793 0 01-.26-.087c-.05-.027-.16-.079-.23-.145l-.22-.201a.626.626 0 01-.17-.216c-.09-.108-.12-.19-.15-.272-.05-.124-.05-.222-.08-.304-.03-.082-.02-.18-.02-.277l.02-.293a.766.766 0 01.08-.266.892.892 0 01.13-.242l.18-.215c.07-.072.13-.144.21-.174.14-.103.33-.179.5-.199.1.011.18-.02.27-.01.09.011.19.021.28.031.1.012.15.037.26.089a.87.87 0 01.24.144l.21.201zm5.19 13.233c.04.083.12.191.22.202.09.107.12.19.15.272.05.123.04.221.07.303 0 .098.03.18.02.278l-.02.292c-.01.097-.03.154-.07.267-.03.057-.07.169-.13.241l-.19.215c-.06.073-.12.145-.2.175a.798.798 0 01-.26.148c-.12.045-.21.036-.29.066-.09-.011-.17.02-.27.009l-.28-.031a.753.753 0 01-.26-.088.935.935 0 01-.23-.145l-.22-.2a.626.626 0 01-.17-.216.794.794 0 01-.15-.273c-.05-.123-.05-.221-.08-.303-.03-.083-.02-.18-.02-.277l.02-.293a.764.764 0 01.08-.267.903.903 0 01.13-.241l.18-.215c.07-.072.13-.143.21-.174a1.1 1.1 0 01.5-.199c.1.01.18-.02.27-.01l.28.032c.1.01.15.035.26.088a.87.87 0 01.24.144l.21.201v-.001zm-67.01 72.715c.35-.138.75-.124 1.1.04.35.163.63.463.77.832.15.369.15.779 0 1.138-.15.358-.43.638-.78.776-.35.138-.75.123-1.1-.04a1.514 1.514 0 01-.77-.833 1.493 1.493 0 010-1.137c.15-.359.43-.638.78-.776zm15.44-5.072c.07.067.1.149.21.201.09.108.12.19.16.273.05.123.04.22.07.303-.01.097.03.179.02.277l-.02.292a.769.769 0 01-.08.268.758.758 0 01-.13.24l-.18.215c-.07.072-.13.144-.2.175a.873.873 0 01-.26.148c-.12.046-.21.035-.29.066-.1-.011-.17.02-.27.009l-.28-.031a.818.818 0 01-.26-.087.878.878 0 01-.24-.145l-.21-.201a.813.813 0 01-.18-.216c-.08-.108-.12-.19-.15-.272-.05-.124-.04-.221-.07-.303a.641.641 0 01-.02-.278l.02-.293a.77.77 0 01.08-.267c.02-.056.06-.169.13-.24l.18-.215a.606.606 0 01.2-.174c.14-.104.34-.18.51-.2.1.011.17-.02.27-.009l.28.031c.09.011.15.037.26.087.06.027.17.078.24.145l.21.201zm13.27-5.206c.08.067.11.149.22.201.08.108.12.191.15.273.05.123.04.221.07.303 0 .098.03.18.02.277-.01.098-.01.195-.02.292-.01.098-.03.155-.07.268-.04.087-.08.169-.13.241l-.19.214c-.06.073-.12.145-.2.175a.75.75 0 01-.26.148c-.12.047-.21.036-.29.067-.09-.012-.17.019-.27.009l-.28-.031a.798.798 0 01-.26-.088 1.278 1.278 0 01-.24-.145l-.21-.2c-.07-.068-.14-.134-.17-.216-.09-.109-.12-.191-.16-.273-.04-.123-.04-.22-.07-.303.01-.099-.02-.18-.02-.278l.02-.292a.775.775 0 01.08-.268.914.914 0 01.13-.24l.18-.215c.07-.072.13-.144.21-.174a1.1 1.1 0 01.5-.199c.1.01.18-.02.27-.01.09.011.19.02.28.032.1.01.15.036.26.087.06.026.17.078.24.145l.21.2zm12.43-5.859c.36-.138.75-.124 1.1.04.35.163.63.463.78.832.14.369.14.779-.01 1.137-.14.359-.42.639-.77.777-.36.138-.75.123-1.1-.041a1.565 1.565 0 01-.78-.832 1.54 1.54 0 01.01-1.137c.14-.359.42-.639.77-.776zm-91.57-73.382c.36-.139.75-.124 1.1.039.35.164.63.464.78.833.14.369.14.779 0 1.137-.15.359-.43.638-.78.777-.35.138-.75.123-1.1-.04a1.567 1.567 0 01-.78-.833 1.54 1.54 0 01.01-1.137c.14-.359.42-.638.77-.776zm-13.93 5.465c.35-.138.75-.123 1.1.04.35.164.63.463.77.833.15.369.15.778 0 1.137s-.43.638-.78.776c-.35.138-.75.124-1.1-.04a1.512 1.512 0 01-.77-.832 1.495 1.495 0 010-1.138c.15-.358.43-.638.78-.776zm27.21-10.671c.35-.138.74-.124 1.1.04.35.163.63.463.77.832.15.37.14.779 0 1.138-.15.359-.43.638-.78.776-.35.138-.75.124-1.1-.04a1.514 1.514 0 01-.77-.833 1.493 1.493 0 010-1.137c.15-.359.43-.638.78-.776zm15.44-5.072c.07.067.1.149.21.201.09.108.11.149.16.273.04.123.04.22.07.303-.01.097.02.179.02.277l-.02.292a.769.769 0 01-.08.268.762.762 0 01-.13.241l-.18.215c-.07.072-.13.143-.21.174-.1.087-.18.117-.25.148-.12.046-.22.036-.29.066-.1-.011-.18.02-.27.01-.09-.011-.19-.021-.28-.031-.1-.012-.15-.037-.26-.088a.878.878 0 01-.24-.145l-.21-.201c-.07-.067-.15-.134-.18-.216a.966.966 0 01-.15-.272c-.05-.124-.04-.222-.07-.304-.04-.082-.03-.18-.02-.277l.02-.293c.01-.097.03-.154.07-.266.03-.058.07-.17.13-.242l.19-.215c.06-.072.12-.144.2-.174.14-.103.34-.179.51-.199.09.011.17-.02.27-.01l.28.032c.09.011.15.037.26.088.05.026.16.078.24.144l.21.201zm-10.53 17.609c.36-.138.75-.124 1.1.04.35.164.63.463.78.833.14.369.14.778 0 1.137-.15.359-.43.638-.78.776-.35.138-.75.124-1.1-.04a1.565 1.565 0 01-.78-.832c-.14-.37-.14-.779.01-1.138.14-.359.42-.638.77-.776zm-27.2 10.671c.35-.138.74-.123 1.09.04.36.164.63.464.78.833.14.369.14.779 0 1.137-.15.359-.43.638-.78.777-.35.138-.75.123-1.1-.04a1.57 1.57 0 01-.78-.833 1.54 1.54 0 01.01-1.137c.14-.359.42-.638.78-.777zm13.93-5.465c.35-.138.75-.124 1.1.04.35.163.63.463.78.832.14.37.14.779-.01 1.138a1.375 1.375 0 01-1.87.736 1.531 1.531 0 01-.78-.833 1.591 1.591 0 010-1.137c.15-.359.43-.638.78-.776zm28.72-10.278c.07.067.1.149.21.201.09.108.12.191.15.273.05.123.04.221.08.303-.01.097.02.18.02.277l-.03.292c0 .098-.03.155-.07.268-.03.087-.08.168-.13.241l-.19.215a.54.54 0 01-.2.174.75.75 0 01-.26.148c-.11.046-.21.036-.29.066-.09-.011-.17.02-.26.01l-.29-.031c-.09-.012-.14-.037-.25-.088a.854.854 0 01-.24-.145l-.22-.201a.626.626 0 01-.17-.216c-.09-.108-.12-.191-.15-.272-.05-.123-.04-.222-.08-.304-.03-.082-.02-.18-.02-.277l.03-.292c0-.098.03-.154.07-.267a.892.892 0 01.13-.242l.19-.215a.54.54 0 01.2-.174c.14-.102.33-.179.51-.199.09.011.17-.019.26-.01l.29.032c.09.011.15.037.26.088.05.026.16.078.23.145l.22.2zm-9.98 19.002c.35-.138.74-.124 1.1.04.35.164.63.463.77.833.15.369.15.778 0 1.137s-.43.638-.78.776c-.35.138-.75.124-1.1-.04a1.512 1.512 0 01-.77-.832c-.15-.37-.15-.779 0-1.138.15-.359.43-.638.78-.776zm-13.27 5.206a1.37 1.37 0 011.09.04c.36.163.63.463.78.832.14.37.14.779 0 1.138-.15.359-.43.638-.78.776-.35.138-.75.123-1.1-.04a1.567 1.567 0 01-.78-.833 1.54 1.54 0 01.01-1.137c.14-.359.42-.638.78-.776zm-13.94 5.466c.35-.138.75-.124 1.1.04.35.163.63.463.77.832.15.37.15.779 0 1.138-.15.358-.43.638-.78.776-.35.138-.75.123-1.1-.04a1.514 1.514 0 01-.77-.833 1.493 1.493 0 010-1.137c.15-.359.43-.638.78-.776zm42.65-15.744c.07.067.1.149.21.201.09.108.12.191.16.273.04.123.04.221.07.303-.01.097.02.18.02.277l-.02.293a.77.77 0 01-.08.267.762.762 0 01-.13.241l-.18.215c-.07.072-.13.144-.21.174a.721.721 0 01-.25.148c-.12.046-.21.036-.29.066-.1-.011-.18.02-.27.01-.09-.011-.19-.021-.28-.031-.1-.012-.15-.037-.26-.088a.854.854 0 01-.24-.145l-.21-.201c-.07-.067-.14-.133-.18-.216-.08-.108-.12-.19-.15-.272-.05-.124-.04-.222-.07-.304a.633.633 0 01-.02-.277l.02-.292c.01-.098.03-.154.07-.267.03-.057.07-.169.13-.242l.19-.215a.63.63 0 01.2-.174c.14-.102.34-.179.51-.199.1.011.17-.019.27-.01l.28.032c.09.011.15.037.26.088.05.026.16.078.24.145l.21.2zm2.89-31.673c.07.067.11.149.22.201.08.108.1.15.15.273.05.123.04.221.07.303-.01.098.03.18.02.277-.01.098-.01.195-.02.292a.769.769 0 01-.08.268.762.762 0 01-.13.241l-.18.215a.618.618 0 01-.2.174.88.88 0 01-.26.149c-.12.046-.21.035-.29.066-.09-.012-.17.019-.27.009l-.28-.031a.775.775 0 01-.26-.088 1.278 1.278 0 01-.24-.145l-.21-.2c-.07-.068-.14-.134-.18-.216a.971.971 0 01-.15-.273c-.05-.123-.04-.221-.07-.303.01-.098-.03-.18-.02-.278l.02-.292a.764.764 0 01.08-.267.752.752 0 01.13-.241l.18-.216a.643.643 0 01.2-.174c.14-.102.34-.179.51-.199.1.011.17-.019.27-.009l.28.031c.1.011.15.037.26.089.06.025.17.077.24.144l.21.2zm12.43-5.859c.35-.138.75-.124 1.1.04.35.163.63.463.78.832.14.37.14.779-.01 1.138-.14.358-.42.638-.77.776-.36.138-.75.123-1.1-.04a1.567 1.567 0 01-.78-.833 1.591 1.591 0 010-1.137c.15-.359.43-.638.78-.776zm27.21-10.672c.74-.291 1.57.094 1.87.873.31.778-.03 1.622-.78 1.913-.74.291-1.56-.094-1.87-.872-.31-.779.04-1.623.78-1.914zm-13.94 5.466c.36-.138.75-.124 1.1.04.35.164.63.463.78.832.14.37.14.779 0 1.138-.15.359-.43.638-.78.776-.35.138-.75.124-1.1-.04a1.569 1.569 0 01-.78-.832c-.14-.37-.14-.779.01-1.138.14-.359.42-.638.77-.776zm-20.78 23.602c.07.067.1.149.21.201.09.108.12.191.15.273.05.123.05.221.08.303-.01.098.02.18.02.277-.01.098-.02.195-.02.293a.77.77 0 01-.08.267.762.762 0 01-.13.241l-.18.215c-.07.072-.13.144-.21.174-.1.087-.18.118-.25.149-.12.046-.22.035-.29.066-.1-.012-.18.019-.27.009l-.28-.031c-.1-.011-.15-.036-.26-.088a.854.854 0 01-.24-.145l-.21-.2c-.07-.067-.15-.134-.18-.216-.09-.108-.12-.191-.15-.273-.05-.123-.04-.221-.07-.303 0-.098-.03-.18-.02-.277l.02-.293c.01-.098.03-.154.07-.267.04-.087.08-.168.13-.241l.19-.215a.542.542 0 01.2-.175c.14-.102.34-.179.51-.199.09.011.17-.019.27-.009l.28.031a.78.78 0 01.26.089c.05.025.16.077.24.144l.21.2zm39.64-16.531c.74-.291 1.57.094 1.87.873.31.778-.04 1.622-.78 1.913-.74.291-1.57-.093-1.87-.872-.31-.779.04-1.623.78-1.914zm-27.21 10.672c.35-.138.75-.124 1.1.04.35.163.63.463.77.832.15.37.15.779 0 1.138-.15.359-.43.638-.78.776a1.4 1.4 0 01-1.1-.04 1.514 1.514 0 01-.77-.833 1.493 1.493 0 010-1.137c.15-.359.43-.638.78-.776zm13.27-5.206c.35-.138.75-.124 1.1.04.35.164.63.463.78.833.14.369.14.778-.01 1.137-.14.359-.42.638-.78.776a1.37 1.37 0 01-1.09-.04 1.565 1.565 0 01-.78-.832c-.14-.37-.14-.779 0-1.138.15-.359.43-.638.78-.776zm-20.24 24.996c.07.066.11.148.22.2.08.108.12.191.15.273.05.124.04.221.07.303 0 .098.03.18.02.277-.01.098-.01.195-.02.293-.01.098-.03.154-.07.267-.04.087-.08.169-.14.241l-.18.215a.618.618 0 01-.2.174c-.1.088-.18.118-.26.149-.12.046-.21.035-.29.066-.09-.011-.17.019-.27.01l-.28-.032a.775.775 0 01-.26-.088 1.326 1.326 0 01-.24-.144l-.21-.201a.626.626 0 01-.17-.216c-.09-.108-.12-.19-.16-.273-.04-.124-.04-.221-.07-.303.01-.098-.03-.18-.02-.277l.02-.293a.77.77 0 01.08-.267.762.762 0 01.13-.241l.18-.215c.07-.072.13-.144.21-.174.14-.103.33-.179.5-.199.1.011.18-.02.27-.01l.28.031c.1.012.15.037.26.089a.87.87 0 01.24.144l.21.201zm12.43-5.86c.35-.138.75-.124 1.1.04.35.164.63.463.78.832.14.37.14.779-.01 1.138a1.364 1.364 0 01-1.87.736 1.567 1.567 0 01-.78-.833 1.591 1.591 0 010-1.137c.15-.359.43-.638.78-.776zm13.28-5.206c.35-.138.74-.123 1.09.04.36.164.63.463.78.833.14.369.14.778 0 1.137-.15.359-.43.638-.78.776-.35.138-.75.124-1.1-.04a1.565 1.565 0 01-.78-.832c-.14-.37-.14-.779.01-1.138.14-.359.42-.638.78-.776zm13.93-5.466c.74-.291 1.57.094 1.88.873.3.779-.04 1.622-.79 1.913-.74.291-1.56-.093-1.87-.872-.3-.779.04-1.623.78-1.914zm-90.1 51.411c.74-.291 1.57.094 1.88.872.3.779-.04 1.623-.78 1.914-.75.291-1.57-.094-1.88-.873-.3-.778.04-1.622.78-1.913zm13.94-5.466c.7-.276 1.53.109 1.87.872.31.779-.04 1.623-.78 1.914-.74.291-1.57-.094-1.87-.873-.31-.778.04-1.622.78-1.913zm13.27-5.206c.74-.291 1.57.094 1.87.873.31.778-.03 1.622-.78 1.913-.74.291-1.56-.093-1.87-.872-.3-.779.04-1.623.78-1.914zm15.44-5.072c.07.067.11.149.22.201.08.108.12.191.15.273.05.123.04.221.07.303 0 .098.03.18.02.277l-.02.293c-.01.097-.03.154-.07.267a1.62 1.62 0 01-.13.241l-.19.215c-.06.072-.12.144-.2.174a.75.75 0 01-.26.148c-.12.046-.21.036-.29.067-.09-.012-.17.019-.27.009-.09-.011-.18-.021-.28-.031a.775.775 0 01-.26-.088.966.966 0 01-.23-.145l-.22-.2c-.07-.068-.14-.134-.17-.217-.09-.107-.12-.19-.16-.272-.04-.124-.04-.221-.07-.304-.03-.082-.02-.179-.02-.277l.02-.292a.764.764 0 01.08-.267.888.888 0 01.13-.241l.18-.216c.07-.071.13-.143.21-.174.14-.102.33-.179.5-.199.1.011.18-.019.27-.009l.28.031c.1.011.15.037.26.088.06.026.17.078.24.145l.21.2zm-37.46 28.977c.35-.138.75-.123 1.1.04.35.164.63.464.78.833.14.369.14.778-.01 1.137a1.364 1.364 0 01-1.87.736 1.565 1.565 0 01-.78-.832 1.591 1.591 0 010-1.137c.15-.359.43-.639.78-.777zm27.21-10.671c.35-.138.75-.124 1.1.04.35.164.63.463.78.832.14.37.14.779-.01 1.138a1.375 1.375 0 01-1.87.736 1.533 1.533 0 01-.78-.832c-.14-.37-.14-.779 0-1.138.15-.359.43-.638.78-.776zm-13.27 5.206a1.39 1.39 0 011.1.04c.35.163.63.463.77.832.15.369.15.778 0 1.137s-.43.639-.78.777c-.35.138-.75.123-1.1-.041a1.512 1.512 0 01-.77-.832 1.493 1.493 0 010-1.137c.15-.359.43-.638.78-.776zm28.71-10.277c.08.066.12.19.22.2.08.108.12.19.15.273.05.123.04.22.07.303 0 .097.03.179.02.277l-.02.292c-.01.098-.03.155-.07.268-.03.057-.07.169-.13.241l-.19.215c-.06.072-.12.144-.2.174-.1.087-.18.117-.26.148-.12.046-.21.036-.29.067-.09-.011-.17.019-.27.008l-.28-.03a.798.798 0 01-.26-.088.966.966 0 01-.23-.145l-.22-.2c-.07-.068-.14-.135-.17-.217a.8.8 0 01-.15-.272c-.05-.124-.05-.221-.08-.303-.03-.083-.02-.181-.02-.277l.02-.294a.76.76 0 01.08-.266c.02-.057.07-.17.13-.241l.18-.216c.07-.071.13-.143.21-.173.14-.104.33-.18.5-.199.1.01.18-.021.27-.011l.28.032c.1.011.15.036.26.088.06.027.17.078.24.144l.21.202zm-10.25 18.305c.35-.138.75-.124 1.1.04.35.163.63.463.78.832.14.369.14.779-.01 1.137a1.375 1.375 0 01-1.87.737 1.534 1.534 0 01-.78-.833 1.591 1.591 0 010-1.137c.15-.359.43-.638.78-.776zm-27.21 10.671c.36-.138.75-.123 1.1.04.35.164.63.463.78.832.14.37.14.779-.01 1.138a1.364 1.364 0 01-1.87.736 1.569 1.569 0 01-.78-.832c-.14-.37-.14-.779 0-1.138.15-.359.43-.638.78-.776zm13.94-5.466c.35-.138.75-.123 1.1.04.35.164.63.463.77.833.15.369.15.778 0 1.137s-.43.638-.78.776c-.35.138-.75.124-1.1-.04a1.512 1.512 0 01-.77-.832 1.495 1.495 0 010-1.138c.15-.358.43-.638.78-.776zm28.71-10.277c.08.066.11.149.22.201.09.107.12.19.15.272.05.124.04.221.07.303 0 .098.03.18.02.278l-.02.292a.999.999 0 01-.07.267c-.03.058-.07.17-.13.241l-.19.215c-.06.073-.12.145-.2.175-.1.087-.18.117-.26.148-.12.046-.21.036-.29.067-.09-.012-.17.019-.27.008l-.28-.031a.753.753 0 01-.26-.088.935.935 0 01-.23-.145l-.22-.199c-.07-.068-.14-.135-.17-.217a.794.794 0 01-.15-.273c-.05-.123-.05-.22-.08-.303-.03-.082-.02-.18-.02-.277l.02-.293a.77.77 0 01.08-.267.884.884 0 01.13-.24l.18-.216c.07-.071.13-.143.21-.174.14-.103.33-.179.5-.199.1.011.18-.02.27-.01l.28.032c.1.011.15.036.26.088a.87.87 0 01.24.144l.21.201zm2.9-31.673c.07.066.1.148.21.2.09.108.12.191.15.273.05.124.04.221.08.303-.01.098.02.18.01.277 0 .098-.01.196-.02.293 0 .098-.03.155-.07.267a.996.996 0 01-.13.241l-.19.216c-.06.071-.12.143-.2.174-.1.087-.18.117-.26.148-.11.046-.21.035-.29.066-.09-.011-.17.019-.26.01l-.29-.032c-.09-.011-.14-.036-.26-.088a.931.931 0 01-.23-.144l-.22-.201a.626.626 0 01-.17-.216.8.8 0 01-.15-.272c-.05-.124-.05-.222-.08-.304.01-.098-.02-.18-.02-.277l.02-.293a.76.76 0 01.08-.266c.03-.088.08-.169.13-.242l.19-.215c.06-.072.12-.144.2-.174.14-.103.33-.179.51-.199.09.011.17-.02.26-.01l.29.031c.09.012.15.037.26.089.05.026.16.077.23.144l.22.201zm39.64-16.531c.74-.291 1.56.093 1.87.872.3.779-.04 1.623-.78 1.914-.74.291-1.57-.094-1.88-.873-.3-.779.04-1.622.79-1.913zm-13.94 5.465c.7-.275 1.53.11 1.87.873.31.779-.04 1.622-.78 1.913-.74.291-1.57-.093-1.87-.872-.31-.779.04-1.623.78-1.914zm-13.27 5.206c.74-.291 1.56.094 1.87.872.31.779-.04 1.623-.78 1.914-.74.291-1.57-.094-1.87-.872-.31-.779.03-1.623.78-1.914zm-7.24 19.094c.07.066.12.19.21.201.09.107.12.19.15.272.05.123.04.221.08.303-.01.098.02.18.02.278l-.03.291c0 .098-.02.155-.07.268a.888.888 0 01-.13.241l-.19.215a.533.533 0 01-.2.175.785.785 0 01-.26.148c-.11.046-.21.036-.29.066-.09-.011-.17.02-.26.009l-.29-.031c-.09-.01-.14-.036-.26-.088a.935.935 0 01-.23-.145l-.22-.2a.626.626 0 01-.17-.216c-.09-.108-.12-.191-.15-.273-.05-.123-.04-.22-.08-.303.01-.098-.02-.18-.02-.277l.02-.293a.764.764 0 01.08-.267.903.903 0 01.13-.241l.19-.216c.06-.071.12-.142.2-.173.14-.103.33-.18.51-.199.09.01.17-.02.26-.01l.29.032c.09.01.15.035.26.088.05.026.16.077.23.144.07.066.15.134.22.201zm39.64-16.532c.74-.291 1.56.094 1.87.873.3.778-.04 1.622-.78 1.913-.74.291-1.57-.094-1.88-.872-.3-.779.04-1.623.79-1.914zm-13.94 5.466c.35-.138.75-.123 1.1.04.35.164.63.463.77.833.15.369.15.778 0 1.137s-.43.638-.78.776c-.35.138-.75.124-1.1-.04a1.515 1.515 0 01-.77-.832c-.15-.37-.15-.779 0-1.138.15-.359.43-.638.78-.776zm-13.27 5.206c.35-.138.74-.124 1.1.04.35.163.63.463.77.832.15.369.14.779 0 1.137-.15.359-.43.639-.78.777-.35.138-.75.123-1.1-.04a1.517 1.517 0 01-.77-.833 1.493 1.493 0 010-1.137c.14-.359.42-.638.78-.776zm-7.24 19.094c.07.066.1.148.21.2.09.108.12.191.15.273.05.123.04.22.08.302-.01.098.02.18.02.278-.01.098-.02.196-.02.292a.769.769 0 01-.08.268.888.888 0 01-.13.241l-.19.215c-.06.072-.12.144-.2.175a.762.762 0 01-.26.147c-.11.046-.21.036-.29.067-.09-.011-.17.019-.26.008l-.29-.03c-.09-.011-.14-.037-.25-.088a.854.854 0 01-.24-.145l-.22-.2c-.07-.068-.14-.134-.17-.217-.09-.108-.12-.19-.15-.272-.05-.123-.04-.221-.08-.303.01-.098-.02-.181-.01-.277l.02-.293c0-.098.02-.154.07-.267a.888.888 0 01.13-.241l.19-.216c.06-.071.12-.143.2-.173.14-.103.33-.18.51-.199.09.01.17-.02.26-.011l.29.032c.09.011.15.036.26.088.05.027.16.077.23.144.07.067.15.134.22.202zm39.64-16.532c.74-.291 1.56.094 1.87.872.3.779-.04 1.623-.78 1.914-.74.291-1.57-.094-1.88-.873-.3-.778.04-1.622.79-1.913zm-13.94 5.466c.35-.138.75-.124 1.1.04.35.163.63.463.77.832.15.369.15.779 0 1.138-.15.358-.43.638-.78.776a1.4 1.4 0 01-1.1-.04 1.517 1.517 0 01-.77-.833 1.493 1.493 0 010-1.137c.15-.359.43-.638.78-.776zm-13.27 5.205a1.4 1.4 0 011.1.04c.35.164.63.464.77.833.15.369.14.778 0 1.137-.15.359-.43.638-.78.776-.35.138-.75.124-1.1-.04a1.512 1.512 0 01-.77-.832 1.495 1.495 0 010-1.138c.15-.358.43-.638.78-.776zm-72.56-63.961a1.4 1.4 0 011.1.04c.35.164.63.463.77.833.15.369.14.778 0 1.137-.15.359-.43.638-.78.776-.35.138-.75.124-1.1-.04a1.512 1.512 0 01-.77-.832c-.15-.37-.15-.779 0-1.138.14-.358.42-.638.78-.776zm-13.28 5.206c.36-.138.75-.124 1.1.04.35.163.63.463.78.832.14.37.14.779 0 1.138-.15.359-.43.638-.78.776-.35.138-.75.124-1.1-.04a1.567 1.567 0 01-.78-.833 1.54 1.54 0 01.01-1.137c.14-.359.42-.638.77-.776zm28.72-10.278c.07.067.1.149.21.201.09.108.11.15.15.273.05.123.05.221.08.303-.01.098.02.18.02.277l-.02.293a.77.77 0 01-.08.267.762.762 0 01-.13.241l-.18.215c-.07.072-.13.144-.21.174-.1.087-.18.118-.25.148-.12.046-.22.036-.29.067-.1-.012-.18.019-.27.009-.09-.011-.19-.021-.28-.031-.1-.011-.15-.036-.26-.088a.854.854 0 01-.24-.145l-.21-.2c-.07-.068-.15-.134-.18-.217-.09-.107-.1-.149-.15-.272-.05-.123-.04-.221-.07-.304-.04-.082-.03-.179-.02-.277l.02-.292c.01-.098.03-.154.07-.267.03-.057.07-.169.13-.241l.19-.216c.06-.071.12-.143.2-.174.14-.102.34-.179.51-.199.09.011.17-.019.27-.009l.28.031c.09.011.15.037.26.088.05.026.16.078.23.145l.22.2zm13.27-5.205c.07.066.11.148.22.2.08.108.1.15.15.273.05.124.04.221.07.303-.01.098.03.18.02.277-.01.098-.01.196-.02.293a.758.758 0 01-.08.267.741.741 0 01-.13.241l-.18.215a.634.634 0 01-.2.175.873.873 0 01-.26.148c-.12.046-.21.035-.29.066-.1-.011-.17.019-.27.01l-.28-.032a.775.775 0 01-.26-.088 1.02 1.02 0 01-.24-.144l-.21-.201a.813.813 0 01-.18-.216.966.966 0 01-.15-.272c-.05-.124-.04-.222-.07-.304.01-.098-.03-.18-.02-.277l.02-.293a.76.76 0 01.08-.266.757.757 0 01.13-.242l.18-.215a.618.618 0 01.2-.174c.14-.103.34-.179.51-.199.1.011.17-.02.27-.01l.28.031c.1.012.15.037.26.089a.87.87 0 01.24.144l.21.201zm25.7-11.066c.36-.138.75-.123 1.1.04.35.164.63.463.78.833.14.369.14.779 0 1.137-.15.359-.43.638-.78.776-.35.138-.75.124-1.1-.04a1.565 1.565 0 01-.78-.832c-.14-.369-.14-.779.01-1.138.14-.358.42-.638.77-.776zm-13.27 5.206c.35-.138.75-.124 1.1.04.35.164.63.463.78.832.14.37.14.779-.01 1.138-.14.359-.42.638-.78.776a1.37 1.37 0 01-1.09-.04 1.569 1.569 0 01-.78-.832c-.14-.37-.14-.779 0-1.138.15-.359.43-.638.78-.776zm-46.61 2.207c.36-.138.75-.124 1.1.04.35.164.63.463.78.833.14.369.14.778-.01 1.137a1.364 1.364 0 01-1.87.736 1.565 1.565 0 01-.78-.832c-.14-.37-.14-.779.01-1.138.14-.359.42-.638.77-.776zm15.45-5.072c.07.067.1.149.21.201.09.108.12.191.15.273.05.123.04.221.08.303-.01.097.02.18.01.277l-.02.293c0 .097-.03.154-.07.267-.03.087-.08.168-.13.241l-.19.215c-.06.072-.12.144-.2.174a.75.75 0 01-.26.148c-.11.046-.21.036-.29.066-.09-.011-.17.02-.26.01l-.29-.031a.822.822 0 01-.26-.088.966.966 0 01-.23-.145l-.22-.201a.626.626 0 01-.17-.216c-.09-.108-.12-.191-.15-.272-.05-.124-.04-.222-.08-.304-.03-.082-.02-.179-.02-.277l.02-.292a.764.764 0 01.08-.267.907.907 0 01.13-.242l.19-.215a.54.54 0 01.2-.174c.14-.102.33-.179.51-.199.09.011.17-.019.26-.01l.29.032c.09.011.14.037.25.088.06.026.17.078.24.145l.22.2zm13.27-5.205c.07.066.1.148.21.2.09.108.12.191.15.273.05.124.05.221.08.303-.01.098.02.18.02.277-.01.098-.02.195-.02.293a.764.764 0 01-.08.267.752.752 0 01-.13.241l-.19.215c-.06.072-.12.144-.2.174-.1.088-.18.118-.25.149-.12.046-.22.035-.29.066-.1-.011-.18.019-.27.01l-.28-.032c-.1-.011-.15-.036-.26-.088a.875.875 0 01-.24-.144l-.21-.201c-.07-.067-.15-.134-.18-.216-.09-.108-.12-.191-.15-.273-.05-.124-.04-.221-.08-.303.01-.098-.02-.18-.01-.277l.02-.293c0-.097.03-.154.07-.267.03-.087.08-.168.13-.241l.19-.215c.06-.072.12-.144.2-.174.14-.103.34-.179.51-.2.09.012.17-.019.27-.009.09.011.18.021.28.031.09.012.15.037.26.089.05.025.16.077.23.144l.22.201zm12.43-5.86c.35-.138.75-.124 1.1.04.35.163.63.463.77.832.15.37.15.779 0 1.138-.15.359-.43.638-.78.776-.35.138-.75.124-1.1-.04a1.514 1.514 0 01-.77-.833 1.493 1.493 0 010-1.137c.15-.359.43-.638.78-.776zm1.2 124.096a1.37 1.37 0 011.09.04c.36.163.63.463.78.832.14.369.14.779 0 1.138-.15.358-.43.638-.78.776-.35.138-.75.123-1.1-.04a1.57 1.57 0 01-.78-.833 1.54 1.54 0 01.01-1.137c.14-.359.42-.638.78-.776zm-13.28 5.205c.35-.138.75-.123 1.1.04.35.164.63.464.78.833.14.369.14.778-.01 1.137a1.364 1.364 0 01-1.87.736 1.565 1.565 0 01-.78-.832 1.591 1.591 0 010-1.137c.15-.359.43-.639.78-.777zm28.72-10.277c.07.067.1.149.21.201.09.107.1.149.15.272.05.124.04.221.08.303-.01.098.02.18.02.278l-.02.292a.758.758 0 01-.08.267.86.86 0 01-.13.241l-.19.215c-.06.073-.12.145-.2.175-.1.087-.18.117-.26.148-.11.046-.21.036-.28.067-.1-.012-.18.019-.27.008l-.28-.031c-.1-.01-.15-.036-.26-.088a.81.81 0 01-.24-.145l-.21-.199a.566.566 0 01-.18-.217c-.09-.108-.1-.149-.15-.272-.05-.124-.04-.221-.07-.303-.04-.083-.03-.181-.02-.277l.02-.294c0-.097.03-.154.07-.266.03-.057.07-.17.13-.241l.19-.216c.06-.071.12-.143.2-.174.14-.103.34-.179.51-.199.09.011.17-.02.26-.01l.29.032c.09.011.15.036.26.088.05.026.16.077.23.144.08.067.15.134.22.201zm13.27-5.205c.07.066.1.148.21.2a.8.8 0 01.16.273c.04.123.04.22.07.303-.01.097.02.18.02.278-.01.097-.01.195-.02.291a.769.769 0 01-.08.268.888.888 0 01-.13.241l-.18.215c-.07.072-.13.144-.21.175-.1.086-.18.117-.25.147-.12.046-.21.036-.29.067-.1-.011-.17.02-.27.008l-.28-.03c-.1-.011-.15-.037-.26-.088a.854.854 0 01-.24-.145l-.21-.2c-.07-.068-.15-.134-.18-.216a.985.985 0 01-.15-.273c-.05-.123-.04-.221-.07-.303 0-.098-.03-.18-.02-.277l.02-.293c.01-.098.03-.154.07-.267.03-.056.07-.169.14-.241l.18-.216a.626.626 0 01.2-.173c.14-.103.34-.18.51-.199.1.01.17-.02.27-.011l.28.032c.09.011.15.036.26.088.06.027.17.078.24.145l.21.201zm25.7-11.066c.35-.138.75-.124 1.1.04.35.164.63.463.78.832.14.369.14.779-.01 1.138-.14.358-.42.638-.77.776-.36.138-.75.123-1.1-.04a1.567 1.567 0 01-.78-.833 1.591 1.591 0 010-1.137c.15-.359.43-.638.78-.776zm-13.27 5.205c.35-.138.75-.123 1.1.041.35.163.63.463.77.832.15.369.15.778 0 1.137a1.381 1.381 0 01-1.88.736 1.512 1.512 0 01-.77-.832 1.54 1.54 0 010-1.137c.15-.359.43-.639.78-.777z" fill="#57586E"/></g><path opacity=".102" d="M1107.5 29c164.86 0 298.5 133.643 298.5 298.5S1272.36 626 1107.5 626C942.643 626 809 492.357 809 327.5S942.643 29 1107.5 29z" fill="#7965EF"/><path opacity=".102" d="M1508 87.998l-102 58.998V29l102 58.998z" fill="#FFCF70"/><path d="M1501.5 41c1.93 0 3.5 1.567 3.5 3.5s-1.57 3.5-3.5 3.5-3.5-1.567-3.5-3.5 1.57-3.5 3.5-3.5z" fill="#F2D53B"/><path d="M1296.5 354a6.5 6.5 0 110 13 6.5 6.5 0 010-13z" fill="#241E6F"/><path d="M1465.5 176c4.69 0 8.5 3.805 8.5 8.5 0 4.694-3.81 8.5-8.5 8.5-4.69 0-8.5-3.806-8.5-8.5 0-4.695 3.81-8.5 8.5-8.5z" fill="#5CC9A7"/><defs><clipPath id="clip0"><path fill="#fff" transform="rotate(-21.415 1861.952 -3107.923)" d="M0 0h134.015v133.921H0z"/></clipPath></defs></svg>