<svg width="839" height="701" fill="none" xmlns="http://www.w3.org/2000/svg"><path d="M616.118 603.348h-29.999v5.271h29.999v-5.271z" fill="#4E4B66"/><path d="M632.383 680.524h-3.233l-26.429-123.342-1.504-7.028-4.752-22.141-1.757-8.266-6.648-30.983-2.32-10.838h11.541l1.869 10.838 1.237 7.127.83 4.738 4.737 27.384 1.519 8.8 24.91 143.711z" fill="#4E4B66"/><path d="M597.281 477.926l1.869 10.838h-11.09l-2.32-10.838h11.541zm10.192 58.887l-4.752 20.369-1.504-7.028-4.752-22.141-1.757-8.266 5.679-23.856.83 4.738 4.737 27.384 1.519 8.8z" fill="#14142B"/><path d="M616.681 477.926l-2.319 10.838-8.407 39.249-4.737 22.141-27.947 130.37h-3.219l26.414-152.511 4.752-27.384 2.052-11.865 1.884-10.838h11.527z" fill="#4E4B66"/><path d="M616.681 477.926l-2.319 10.838H603.27l1.884-10.838h11.527z" fill="#14142B"/><path d="M816.572 603.348h-29.999v5.271h29.999v-5.271z" fill="#4E4B66"/><path d="M832.836 680.524h-3.233l-26.428-123.342-1.504-7.028-4.752-22.141-1.757-8.266-6.649-30.983-2.32-10.838h11.541l1.87 10.838 1.237 7.127.83 4.738 4.737 27.384 1.518 8.8 24.91 143.711z" fill="#4E4B66"/><path d="M797.734 477.926l1.87 10.838h-11.091l-2.32-10.838h11.541zm10.193 58.887l-4.751 20.369-1.504-7.028-4.752-22.141-1.757-8.266 5.679-23.856.83 4.738 4.737 27.384 1.518 8.8z" fill="#14142B"/><path d="M817.134 477.926l-2.32 10.838-8.406 39.249-4.737 22.141-27.933 130.37h-3.233l26.414-152.511 4.752-27.384 2.052-11.865 1.884-10.838h11.527z" fill="#4E4B66"/><path d="M817.134 477.926l-2.32 10.838h-11.091l1.884-10.838h11.527z" fill="#14142B"/><path d="M835.115 463.081H557.334a3 3 0 00-3 3v8.845c0 1.656 1.344 3 3 3h277.781a3 3 0 003-3v-8.845a3 3 0 00-3-3z" fill="#4E4B66"/><path d="M623.864 463.081h-71.676a3.139 3.139 0 01-3.118-2.783l-5.049-44.318a3.138 3.138 0 013.118-3.493H615.3a3.139 3.139 0 013.118 2.783l5.446 47.811z" fill="#D9DBE9"/><path d="M619.815 459.678h-64.353a3.137 3.137 0 01-3.117-2.782l-4.674-41.021h67.153l4.991 43.803z" fill="#fff"/><path d="M645.723 459.678h-95.817v3.388h95.817v-3.388z" fill="#D9DBE9"/><path d="M666.528 459.678h-95.817v3.388h95.817v-3.388z" fill="#EFF0F7"/><path d="M615.063 418.012l-.239-2.137h-67.153l.253 2.137h67.139z" fill="#fff"/><path d="M716.832 422.549l1.42 2.2 1.527 2.413a218.462 218.462 0 012.917 4.932c1.894 3.33 3.727 6.705 5.422 10.126a139.62 139.62 0 018.537 20.938c.55 1.771 1.038 3.543 1.527 5.314l.626 2.673.26 1.328.137.672c0 .214.092.504.092.443s.122 0 .275-.397c.164-.353.416-.658.733-.885.259-.153.305 0 .168.137a4.59 4.59 0 01-1.054.718 17.11 17.11 0 01-4.108 1.405 50.025 50.025 0 01-5.238.931c-3.635.474-7.636.703-11.393.901h-.382a5.365 5.365 0 00-5.025 4.575 5.36 5.36 0 003.498 5.826 66.088 66.088 0 0013.011 3.222 40.129 40.129 0 0014.936-.382 21.506 21.506 0 004.582-1.695 17.676 17.676 0 004.918-3.696 16.139 16.139 0 003.573-6.261c.598-2.103.81-4.297.626-6.476 0-.58 0-.794-.091-1.084l-.107-.84-.199-1.71c-.168-1.115-.32-2.245-.504-3.36-.381-2.23-.809-4.444-1.344-6.613a133.607 133.607 0 00-8.766-24.939c-1.848-3.94-3.818-7.819-5.971-11.591a138.819 138.819 0 00-3.36-5.605 94.785 94.785 0 00-1.802-2.78 96.923 96.923 0 00-2.001-2.871 10.687 10.687 0 00-14.586-2.464 10.687 10.687 0 00-3.083 14.468l.229.427z" fill="#CAB7FF"/><path d="M675.995 360.912c-.153 1.038-.825 1.787-1.527 1.695-.703-.092-1.1-1.023-.947-2.046.153-1.024.825-1.787 1.527-1.696.703.092 1.1 1.024.947 2.047z" fill="#14142B"/><path d="M675.261 362.714c-1.697 2.966-6.441 7.222-6.231 8.079.21.857 1.382 1.069 2.208 1.354a5.974 5.974 0 002.572.295l1.451-9.728z" fill="#FF97B8"/><path d="M680.5 355.75a.505.505 0 01-.336-.168 4.809 4.809 0 00-4.185-1.42.627.627 0 01-.733-.474.615.615 0 01.474-.718 6.019 6.019 0 015.299 1.741.627.627 0 010 .871.647.647 0 01-.519.168z" fill="#14142B"/><path d="M706.25 372.29c-.443 9.621.29 27 7.758 32.269 0 0-1.146 9.851-18.51 12.447-19.074 2.84-10.537-8.125-10.537-8.125 10.049-4.032 8.628-11.729 5.727-18.708l15.562-17.883z" fill="#FFD5BD"/><path d="M717.001 408.408c.748-4.353 1.527-9.316-1.757-10.08-3.604-.84-22.266 1.65-28.161 6.109-5.895 4.459-2.871 12.218-2.871 12.218l32.789-8.247z" fill="#fff"/><path d="M666.679 424.627c-.703 15.394 0 45.922 10.446 92.135h69.059c.428-9.606-9.484-51.023-8.628-96.534a17.208 17.208 0 00-4.906-12.351 17.2 17.2 0 00-12.245-5.166c-1.359 0-2.794 0-4.276.168-9.77.68-19.49 1.945-29.108 3.788-2.871.657-5.666 1.42-8.201 2.199a17.287 17.287 0 00-12.141 15.761z" fill="#624DE3"/><path opacity=".2" d="M677.111 452.33c1.099 7.819 3.634 21.381-5.513 36.378a441.775 441.775 0 01-2.567-17.471l8.08-18.907z" fill="#14142B"/><path d="M623.291 471.252l-11.622-4.001 4.734-12.218a14.734 14.734 0 0111.744 9.576l-4.856 6.643z" fill="#FFD5BD"/><path d="M605.791 463.949c-.612-1.377-2.474-9.159-1.237-9.866 1.237-.707 12.126 1.008 12.126 1.008l-4.735 12.263s-5.542-2.029-6.154-3.405z" fill="#FFD5BD"/><path d="M666.755 423.206a319.244 319.244 0 01-2.199 7.3c-.764 2.444-1.527 4.948-2.413 7.407-1.649 4.918-3.467 9.759-5.376 14.493-1.909 4.735-4.047 9.332-6.353 13.623a60.259 60.259 0 01-7.636 11.347l11.194-1.726c-2.153-.931-4.367-1.893-6.597-3.054-2.23-1.161-4.505-2.199-6.75-3.421l-6.873-3.62c-2.29-1.206-4.581-2.519-6.918-3.649l-.244-.123a5.41 5.41 0 00-6.579 1.375 5.403 5.403 0 00-.156 6.719 81.788 81.788 0 005.467 6.491c1.909 2.062 3.91 4.017 5.987 5.941a87.913 87.913 0 006.567 5.482 82.78 82.78 0 007.3 4.979 8.828 8.828 0 0010.599-1.176l.595-.565a71.781 71.781 0 0011.683-14.768 131.193 131.193 0 008.171-15.501c2.397-5.238 4.459-10.553 6.338-15.898.931-2.673 1.832-5.36 2.642-8.064.809-2.703 1.527-5.36 2.306-8.353a10.696 10.696 0 00-7.575-13.088 10.691 10.691 0 00-13.088 7.574l-.092.275z" fill="#CAB7FF"/><path d="M710.678 363.874c-2.672 12.524-3.589 19.992-10.95 25.535-11.072 8.339-25.825.214-26.955-12.874-1.008-11.775 3.513-30.285 16.647-33.476a17.48 17.48 0 0120.969 12.02c.844 2.859.944 5.887.289 8.795z" fill="#FFD5BD"/><path d="M683.693 365.188c-5.987-.458-5.637-3.222-4.293-5.254 1.344-2.031 5.001-7.536 2.979-9.331-2.022-1.795-8.323 2.199-6.613-5.772 1.711-7.972 12.951-18.067 22.771-11.882 19.563-3.222 25.962 4.673 22.908 11.973 15.532 6.873 4.321 20.785-1.864 20.785 5.513 4.918-14.113 21.122-16.065 19.961-1.953-1.161-24.191-8.613-19.823-20.48z" fill="#14142B"/><path d="M695.788 336.95a1.527 1.527 0 001.084-.474 18.453 18.453 0 0117.746-4.841 1.531 1.531 0 001.834-1.13 1.53 1.53 0 00-1.13-1.833 21.652 21.652 0 00-20.68 5.682 1.528 1.528 0 000 2.153 1.537 1.537 0 001.146.443zm20.235 42.669a1.528 1.528 0 001.084-.443c4.307-4.337 6.109-7.727 5.559-10.69a6.936 6.936 0 00-4.337-4.948 1.532 1.532 0 00-2.099 1.895c.136.383.419.695.785.869 1.604.764 2.459 1.649 2.642 2.703.184 1.054-.427 3.696-4.719 8.003-.143.142-.257.31-.334.497a1.516 1.516 0 000 1.174 1.522 1.522 0 001.419.94z" fill="#14142B"/><path d="M691.052 364.21a14.57 14.57 0 01-5.65 7.392c-3.498 2.306-5.865-.305-5.407-4.077.413-3.406 2.734-8.706 6.491-9.515 3.757-.81 5.742 2.55 4.566 6.2z" fill="#FFD5BD"/><path d="M571.642 687.121c-1.649 0-3.253-.229-3.787-.962a1.179 1.179 0 010-1.344 1.522 1.522 0 01.962-.718c2.153-.58 6.659 1.986 6.857 2.108a.28.28 0 01.121.129.28.28 0 01.017.176.308.308 0 01-.23.26 24.195 24.195 0 01-3.94.351zm-2.046-2.504a2.184 2.184 0 00-.58.076.898.898 0 00-.351.149.89.89 0 00-.26.279c-.214.381-.138.565 0 .672.611.839 3.879.855 6.276.519a13.946 13.946 0 00-5.146-1.695h.061z" fill="#3F80FD"/><path d="M575.551 686.77h-.122c-1.528-.687-4.658-3.482-4.414-4.948 0-.336.29-.764 1.13-.855a2.264 2.264 0 011.695.519c1.65 1.359 2.001 4.841 2.016 4.979a.314.314 0 01-.137.274.226.226 0 01-.168.031zm-3.162-5.238h-.183c-.55 0-.58.275-.595.336-.138.885 1.954 3.054 3.558 4.031a7.192 7.192 0 00-1.71-3.985c-.3-.25-.679-.386-1.07-.382z" fill="#3F80FD"/><path d="M590.227 686.465h-12.92l2.459-29.903h12.92l-2.459 29.903z" fill="#FFD5BD"/><path d="M577.292 684.968h14.096a.944.944 0 01.978.885l.839 11.424a2.23 2.23 0 01-2.199 2.306c-5.07-.092-12.37-.382-18.769-.382-7.468 0-8.247.397-17.013.397-5.299 0-5.971-5.36-3.68-5.834 10.415-2.214 12.966-2.459 22.495-7.834a6.74 6.74 0 013.253-.962z" fill="#14142B"/><path opacity=".2" d="M579.782 656.577l-1.283 15.41h12.92l1.268-15.41h-12.905z" fill="#14142B"/><path d="M652.003 687.121a4.232 4.232 0 01-3.055-.84 1.3 1.3 0 010-1.527 1.44 1.44 0 01.962-.703c1.879-.443 5.452 2.001 5.605 2.108a.315.315 0 01.103.136.305.305 0 01.019.169.274.274 0 01-.229.229 15.57 15.57 0 01-3.405.428zm-1.619-2.459a1.526 1.526 0 00-.382 0 .834.834 0 00-.565.412c-.275.504-.107.718 0 .779.55.733 3.192.733 5.116.413a9.92 9.92 0 00-4.078-1.604h-.091z" fill="#3F80FD"/><path d="M655.332 686.77h-.138c-1.344-.733-3.924-3.559-3.65-4.994a1.009 1.009 0 01.978-.81 1.665 1.665 0 011.298.398c1.527 1.221 1.817 4.948 1.817 5.1a.301.301 0 01-.137.291.311.311 0 01-.168.015zm-2.596-5.238h-.138c-.397 0-.443.229-.458.305-.153.855 1.527 3.054 2.825 4.001a7.376 7.376 0 00-1.527-4.047 1.094 1.094 0 00-.702-.259z" fill="#3F80FD"/><path d="M667.153 686.465h-12.905l-6.49-29.903h12.904l6.491 29.903z" fill="#FFD5BD"/><path d="M653.331 684.968h14.493a1.112 1.112 0 011.099.885l2.551 11.424a1.896 1.896 0 01-1.879 2.306c-5.07-.092-7.529-.382-13.912-.382-3.925 0-8.95.397-14.371.397-5.422 0-6.109-5.36-3.91-5.834 9.942-2.184 10.69-5.177 13.821-8.048a3.142 3.142 0 012.108-.748z" fill="#14142B"/><path d="M697.818 516.762s-71.625 21.732-73.397 50.505c-3.253 52.993 22.74 98.152 22.74 98.152h19.365s-7.361-22.388-10.003-70.388c-3.314-60.324 110.752 1.405 89.661-78.269h-48.366z" fill="#171347"/><path opacity=".2" d="M660.678 656.577h-12.92l3.344 15.41h12.921l-3.345-15.41z" fill="#14142B"/><path d="M677.126 516.762s-92.625 6.109-96.29 55.269c-4.2 56.507-5.422 93.388-5.422 93.388h19.182s9.866-34.652 18.326-84.469c2.551-14.92 34.194-17.486 64.143-19.258 25.809-1.527 45.632-3.054 47.801-31.643l-.336-13.287h-47.404z" fill="#171347"/><path d="M570.727 660.288c-.107 0 1.237 9.164 1.237 9.164h26.588l.718-8.11-28.543-1.054zm70.585 0c-.107 0 2.443 9.164 2.443 9.164h26.573l-.488-8.11-28.528-1.054zm39.982-102.658l12.966-88.073a10.028 10.028 0 013.366-6.139 10.03 10.03 0 016.561-2.444h76.497a10.038 10.038 0 017.596 3.477 10.039 10.039 0 012.331 8.023l-12.523 85.156a7.454 7.454 0 01-7.468 7.453H631.171a7.464 7.464 0 012.189-5.275 7.44 7.44 0 015.279-2.178h42.655z" fill="#3F80FD"/><path opacity=".5" d="M681.294 557.63l12.966-88.073a10.028 10.028 0 013.366-6.139 10.03 10.03 0 016.561-2.444h76.497a10.038 10.038 0 017.596 3.477 10.039 10.039 0 012.331 8.023l-12.523 85.156a7.454 7.454 0 01-7.468 7.453H631.171a7.464 7.464 0 012.189-5.275 7.44 7.44 0 015.279-2.178h42.655z" fill="#fff"/><path opacity=".3" d="M704.188 460.974h76.497a10.033 10.033 0 019.926 11.5l-12.522 85.156a7.454 7.454 0 01-7.469 7.453h-81.11l14.678-104.109z" fill="#3F80FD"/><path d="M777.11 700.698h4.322L770.62 565.083h-4.338l10.828 135.615z" fill="#3F80FD"/><path opacity=".6" d="M777.11 700.698h4.322L770.62 565.083h-4.338l10.828 135.615z" fill="#fff"/><path d="M703.577 700.698h4.322l-10.828-135.615h-4.322l10.828 135.615z" fill="#3F80FD"/><path opacity=".6" d="M703.577 700.698h4.322l-10.828-135.615h-4.322l10.828 135.615z" fill="#fff"/><path d="M696.917 700.698h4.337l10.814-135.615h-4.323l-10.828 135.615z" fill="#3F80FD"/><path opacity=".7" d="M696.917 700.698h4.337l10.814-135.615h-4.323l-10.828 135.615z" fill="#fff"/><path d="M623.384 700.698h4.322l10.827-135.615h-4.321l-10.828 135.615z" fill="#3F80FD"/><path opacity=".7" d="M623.384 700.698h4.322l10.827-135.615h-4.321l-10.828 135.615z" fill="#fff"/><g filter="url(#filter0_dd)"><path d="M499.625 307.499H247.147c-13.267 0-24.022 10.755-24.022 24.022V542.53c0 13.267 10.755 24.022 24.022 24.022h252.478c13.267 0 24.022-10.755 24.022-24.022V331.521c0-13.267-10.755-24.022-24.022-24.022z" fill="#fff" fill-opacity=".01"/></g><path d="M499.625 307.499H247.147c-13.267 0-24.022 10.755-24.022 24.022V542.53c0 13.267 10.755 24.022 24.022 24.022h252.478c13.267 0 24.022-10.755 24.022-24.022V331.521c0-13.267-10.755-24.022-24.022-24.022z" fill="#fff"/><g filter="url(#filter1_d)"><path d="M245.212 326.463a5.266 5.266 0 01-10.432 1.028 5.269 5.269 0 012.24-5.408 5.269 5.269 0 016.65.655 5.273 5.273 0 011.542 3.725z" fill="#FF3951" fill-opacity=".01"/></g><path d="M245.212 326.463a5.266 5.266 0 01-10.432 1.028 5.269 5.269 0 012.24-5.408 5.269 5.269 0 016.65.655 5.273 5.273 0 011.542 3.725z" fill="#FF3951"/><g filter="url(#filter2_d)"><path d="M260.551 326.463a5.266 5.266 0 01-10.432 1.028 5.269 5.269 0 012.24-5.408 5.267 5.267 0 018.192 4.38z" fill="#FFC226" fill-opacity=".01"/></g><path d="M260.551 326.463a5.266 5.266 0 01-10.432 1.028 5.269 5.269 0 012.24-5.408 5.267 5.267 0 018.192 4.38z" fill="#FFC226"/><g filter="url(#filter3_d)"><path d="M275.892 326.463a5.258 5.258 0 01-3.253 4.866 5.263 5.263 0 01-7.181-3.838 5.27 5.27 0 015.166-6.295 5.267 5.267 0 015.268 5.267z" fill="#9AE886" fill-opacity=".01"/></g><path d="M275.892 326.463a5.258 5.258 0 01-3.253 4.866 5.263 5.263 0 01-7.181-3.838 5.27 5.27 0 015.166-6.295 5.267 5.267 0 015.268 5.267z" fill="#9AE886"/><path d="M523.647 337.139H223.125v1.755h300.522v-1.755z" fill="#F5F7FC"/><path d="M499.091 359.649H393.589a4.805 4.805 0 000 9.609h105.502a4.804 4.804 0 000-9.609zm-39.371 16.815h-66.131a4.805 4.805 0 000 9.609h66.131a4.804 4.804 0 000-9.609z" fill="#EFF0F7"/><g filter="url(#filter4_dd)"><path d="M679.068 21.441H444.147c-13.267 0-24.022 10.755-24.022 24.022v213.243c0 13.268 10.755 24.022 24.022 24.022h234.921c13.267 0 24.021-10.754 24.021-24.022V45.463c0-13.267-10.754-24.022-24.021-24.022z" fill="#fff" fill-opacity=".01"/></g><path d="M679.068 21.441H444.147c-13.267 0-24.022 10.755-24.022 24.022v213.243c0 13.268 10.755 24.022 24.022 24.022h234.921c13.267 0 24.021-10.754 24.021-24.022V45.463c0-13.267-10.754-24.022-24.021-24.022z" fill="#fff"/><g filter="url(#filter5_d)"><path d="M441.862 41.621a5.266 5.266 0 01-8.992 3.725 5.27 5.27 0 01-1.142-5.74 5.271 5.271 0 014.867-3.252 5.27 5.27 0 015.267 5.267z" fill="#FF3951" fill-opacity=".01"/></g><path d="M441.862 41.621a5.266 5.266 0 01-8.992 3.725 5.27 5.27 0 01-1.142-5.74 5.271 5.271 0 014.867-3.252 5.27 5.27 0 015.267 5.267z" fill="#FF3951"/><g filter="url(#filter6_d)"><path d="M458.402 41.622a5.266 5.266 0 11-10.533 0 5.266 5.266 0 0110.533 0z" fill="#FFC226" fill-opacity=".01"/></g><path d="M458.402 41.622a5.266 5.266 0 11-10.533 0 5.266 5.266 0 0110.533 0z" fill="#FFC226"/><g filter="url(#filter7_d)"><path d="M474.942 41.622a5.265 5.265 0 01-8.991 3.724 5.267 5.267 0 013.725-8.992 5.268 5.268 0 015.266 5.268z" fill="#9AE886" fill-opacity=".01"/></g><path d="M474.942 41.622a5.265 5.265 0 01-8.991 3.724 5.267 5.267 0 013.725-8.992 5.268 5.268 0 015.266 5.268z" fill="#9AE886"/><path d="M702.79 52.297H419.826v1.756H702.79v-1.756z" fill="#F5F7FC"/><path d="M636.253 73.806H451.144a4.804 4.804 0 000 9.608h185.109a4.804 4.804 0 100-9.608zM514.599 90.621h-63.455a4.804 4.804 0 000 9.609h63.455a4.804 4.804 0 100-9.609z" fill="#EFF0F7"/><path d="M672.644 118.64H450.571a4.231 4.231 0 000 8.462h222.073a4.23 4.23 0 100-8.462z" fill="#F5F7FC"/><g filter="url(#filter8_d)"><path d="M564.251 118.639H458.072a4.231 4.231 0 10-.001 8.463h106.18a4.23 4.23 0 100-8.463z" fill="#FF3951" fill-opacity=".01"/></g><path d="M564.251 118.639H458.072a4.231 4.231 0 10-.001 8.463h106.18a4.23 4.23 0 100-8.463z" fill="#624DE3"/><path d="M672.158 147.365h-221.1a4.718 4.718 0 000 9.437h221.1a4.72 4.72 0 000-9.437z" fill="#F5F7FC"/><g filter="url(#filter9_d)"><path d="M628.509 147.365H458.072a4.23 4.23 0 10-.001 8.463h170.438a4.232 4.232 0 000-8.463z" fill="#FFC226" fill-opacity=".01"/></g><path d="M628.509 147.365H458.072a4.23 4.23 0 10-.001 8.463h170.438a4.232 4.232 0 000-8.463z" fill="#CAB7FF"/><path d="M672.644 176.089H450.571a4.23 4.23 0 100 8.463h222.073a4.231 4.231 0 100-8.463z" fill="#F5F7FC"/><g filter="url(#filter10_d)"><path d="M494.449 176.089h-36.377a4.23 4.23 0 100 8.463h36.377a4.231 4.231 0 100-8.463z" fill="#FF3951" fill-opacity=".01"/></g><path d="M494.449 176.089h-36.377a4.23 4.23 0 100 8.463h36.377a4.231 4.231 0 100-8.463z" fill="#624DE3"/><path d="M672.644 204.813H450.571a4.232 4.232 0 000 8.463h222.073a4.23 4.23 0 100-8.463z" fill="#F5F7FC"/><g filter="url(#filter11_d)"><path d="M591.712 204.814h-133.64a4.232 4.232 0 100 8.463h133.64a4.231 4.231 0 000-8.463z" fill="#FFC226" fill-opacity=".01"/></g><path d="M591.712 204.814h-133.64a4.232 4.232 0 100 8.463h133.64a4.231 4.231 0 000-8.463z" fill="#CAB7FF"/><path d="M672.644 233.539H450.571a4.231 4.231 0 000 8.464h222.073a4.233 4.233 0 000-8.464z" fill="#F5F7FC"/><g filter="url(#filter12_d)"><path d="M612.802 233.539h-154.73a4.231 4.231 0 100 8.464h154.73a4.232 4.232 0 000-8.464z" fill="#FF3951" fill-opacity=".01"/></g><path d="M612.802 233.539h-154.73a4.231 4.231 0 100 8.464h154.73a4.232 4.232 0 000-8.464z" fill="#624DE3"/><path d="M380.326 456.264c0 38.766-31.425 70.191-70.191 70.191-38.765 0-70.191-31.425-70.191-70.191 0-38.765 31.426-70.191 70.191-70.191 38.766 0 70.191 31.426 70.191 70.191zm-108.93 0c0 21.395 17.344 38.74 38.739 38.74 21.395 0 38.74-17.345 38.74-38.74 0-21.395-17.345-38.74-38.74-38.74-21.395 0-38.739 17.345-38.739 38.74z" fill="#F5F7FC"/><g filter="url(#filter13_d)"><path d="M317.542 402.193a54.596 54.596 0 0121.419 7.728 54.587 54.587 0 0124.929 36.91 54.56 54.56 0 01-.83 22.756" stroke="#FFC226" stroke-opacity=".01" stroke-width="31.229" stroke-linecap="round"/></g><path d="M317.542 402.193a54.596 54.596 0 0121.419 7.728 54.587 54.587 0 0124.929 36.91 54.56 54.56 0 01-.83 22.756" stroke="#CAB7FF" stroke-width="31.229" stroke-linecap="round"/><g filter="url(#filter14_d)"><path d="M265.931 424.255a54.58 54.58 0 0174.035-13.694" stroke="#FF8139" stroke-opacity=".01" stroke-width="31.229" stroke-linecap="round"/></g><path d="M265.931 424.255a54.58 54.58 0 0174.035-13.694" stroke="#624DE3" stroke-width="31.229" stroke-linecap="round"/><g filter="url(#filter15_d)"><path d="M320.873 509.774a54.578 54.578 0 01-57.589-81.502" stroke="#FF3951" stroke-opacity=".01" stroke-width="31.229" stroke-linecap="round"/></g><path d="M320.873 509.774a54.578 54.578 0 01-57.589-81.502" stroke="#171347" stroke-width="31.229" stroke-linecap="round"/><g filter="url(#filter16_d)"><path d="M417.56 438.248a7.207 7.207 0 007.206-7.207 7.207 7.207 0 10-14.413 0 7.207 7.207 0 007.207 7.207z" fill="#FF3951" fill-opacity=".01"/></g><path d="M417.56 438.248a7.207 7.207 0 007.206-7.207 7.207 7.207 0 10-14.413 0 7.207 7.207 0 007.207 7.207z" fill="#171347"/><path d="M492.196 427.438h-57.821a3.603 3.603 0 100 7.207h57.821a3.604 3.604 0 000-7.207z" fill="#EFF0F7"/><g filter="url(#filter17_d)"><path d="M417.56 463.471a7.206 7.206 0 007.206-7.207 7.206 7.206 0 00-7.206-7.206 7.206 7.206 0 100 14.413z" fill="#FF8139" fill-opacity=".01"/></g><path d="M417.56 463.471a7.206 7.206 0 007.206-7.207 7.206 7.206 0 00-7.206-7.206 7.206 7.206 0 100 14.413z" fill="#7545FF"/><path d="M492.196 452.661h-57.821a3.603 3.603 0 100 7.207h57.821a3.604 3.604 0 000-7.207z" fill="#EFF0F7"/><g filter="url(#filter18_d)"><path d="M417.56 488.694a7.206 7.206 0 007.206-7.207 7.206 7.206 0 00-7.206-7.206 7.206 7.206 0 100 14.413z" fill="#FFC226" fill-opacity=".01"/></g><path d="M417.56 488.694a7.206 7.206 0 007.206-7.207 7.206 7.206 0 00-7.206-7.206 7.206 7.206 0 100 14.413z" fill="#CAB7FF"/><path d="M492.196 477.884h-57.821a3.603 3.603 0 100 7.206h57.821a3.603 3.603 0 000-7.206z" fill="#EFF0F7"/><g filter="url(#filter19_dd)"><path d="M366.71 19.217H114.232c-13.267 0-24.022 10.755-24.022 24.022v213.243c0 13.267 10.755 24.022 24.022 24.022H366.71c13.268 0 24.022-10.755 24.022-24.022V43.239c0-13.267-10.754-24.022-24.022-24.022z" fill="#fff" fill-opacity=".01"/></g><path d="M366.71 19.217H114.232c-13.267 0-24.022 10.755-24.022 24.022v213.243c0 13.267 10.755 24.022 24.022 24.022H366.71c13.268 0 24.022-10.755 24.022-24.022V43.239c0-13.267-10.754-24.022-24.022-24.022z" fill="#fff"/><path d="M390.732 51.092H90.21v1.756h300.522v-1.756z" fill="#F5F7FC"/><path d="M333.512 72.6H147.465a4.336 4.336 0 000 8.672h186.047a4.336 4.336 0 000-8.671zm-33.308 15.878H180.756a4.336 4.336 0 100 8.672h119.448a4.336 4.336 0 100-8.672z" fill="#EFF0F7"/><g filter="url(#filter20_d)"><path d="M311.336 148.961v98.608a7.207 7.207 0 0014.413 0v-98.608a7.207 7.207 0 00-14.413 0z" fill="#FFC226" fill-opacity=".01"/></g><path d="M311.336 148.961v98.608a7.207 7.207 0 0014.413 0v-98.608a7.207 7.207 0 00-14.413 0z" fill="#CAB7FF"/><path d="M280.108 164.008v83.543a7.207 7.207 0 0014.413 0v-83.543a7.207 7.207 0 00-14.413 0z" fill="#624DE3"/><g filter="url(#filter21_d)"><path d="M248.879 216.699v30.852a7.206 7.206 0 0014.413 0v-30.852a7.206 7.206 0 00-14.413 0z" fill="#FFC226" fill-opacity=".01"/></g><path d="M248.879 216.699v30.852a7.206 7.206 0 0014.413 0v-30.852a7.206 7.206 0 00-14.413 0z" fill="#CAB7FF"/><path d="M217.651 137.776v109.775a7.207 7.207 0 0014.413 0V137.776a7.207 7.207 0 00-14.413 0z" fill="#624DE3"/><g filter="url(#filter22_d)"><path d="M186.422 127.944v119.607a7.206 7.206 0 0014.413 0V127.944a7.206 7.206 0 00-14.413 0z" fill="#FFC226" fill-opacity=".01"/></g><path d="M186.422 127.944v119.607a7.206 7.206 0 0014.413 0V127.944a7.206 7.206 0 00-14.413 0z" fill="#CAB7FF"/><path d="M155.193 177.054v70.497a7.207 7.207 0 0014.414 0v-70.497a7.207 7.207 0 10-14.414 0z" fill="#624DE3"/><g filter="url(#filter23_d)"><path d="M113.498 40.416a5.264 5.264 0 01-6.294 5.167 5.27 5.27 0 01-4.139-4.139 5.267 5.267 0 1110.433-1.028z" fill="#FF3951" fill-opacity=".01"/></g><path d="M113.498 40.416a5.264 5.264 0 01-6.294 5.167 5.27 5.27 0 01-4.139-4.139 5.267 5.267 0 1110.433-1.028z" fill="#FF3951"/><g filter="url(#filter24_d)"><path d="M128.838 40.416a5.265 5.265 0 01-6.295 5.167 5.267 5.267 0 116.295-5.167z" fill="#FFC226" fill-opacity=".01"/></g><path d="M128.838 40.416a5.265 5.265 0 01-6.295 5.167 5.267 5.267 0 116.295-5.167z" fill="#FFC226"/><g filter="url(#filter25_d)"><path d="M144.177 40.416a5.272 5.272 0 01-3.251 4.867 5.27 5.27 0 01-7.182-3.839 5.266 5.266 0 1110.433-1.028z" fill="#9AE886" fill-opacity=".01"/></g><path d="M144.177 40.416a5.272 5.272 0 01-3.251 4.867 5.27 5.27 0 01-7.182-3.839 5.266 5.266 0 1110.433-1.028z" fill="#9AE886"/><g clip-path="url(#clip0)"><path d="M213.309 295.143l16.774-11.644s1.61-8.214 3.682-10.143c2.847-2.048 14.48-7.181 18.48-5.762 3.139 1.341 3.126 18.01 0 18.854-3.127.845-15.633 4.723-15.633 4.723l-17.899 14.49-5.404-10.518z" fill="#FFD5BD"/><path d="M109.185 298.842s.75.699 1.994 1.943c2.933 2.864 9.513 8.643 16.332 14.831 13.637 11.183 30.463 23.679 40.913 22.724 18.752-1.705 59.665-34.93 59.665-34.93l-7.706-14.149s-29.798 19.809-47.698 23.969c-17.899 4.159-46.879-49.335-60.79-53.068l-2.71 38.68z" fill="#624DE3"/><path d="M218.235 288.248a1 1 0 00-.474 1.356l8.141 16.224a1 1 0 001.726.106l2.132-3.199a.998.998 0 00.061-1.004l-7.263-14.419a1 1 0 00-1.313-.457l-3.01 1.393z" fill="#14142A"/><path opacity=".2" d="M111.128 300.785a324.561 324.561 0 0016.28 14.831c-3.307-15.104-13.825-27.565-13.825-27.565l-2.455 12.734z" fill="#14142B"/><path d="M109.645 687.568l13.826 1.449 2.591-29.816-13.825-1.466-2.592 29.833zm-69.007-1.006h13.4l1.108-31.043H41.728l-1.09 31.043z" fill="#FFD5BD"/><path d="M55.913 685.01h-16.28c-.546 0-1.023.375-1.143.921l-2.642 11.933a2.015 2.015 0 001.603 2.353c.119.017.238.034.358.034 5.267-.086 9.103-.41 15.717-.41 4.074 0 16.365.427 21.99.427 5.626 0 6.36-5.558 4.058-6.069-10.33-2.25-18.104-5.37-21.411-8.336a3.225 3.225 0 00-2.25-.853z" fill="#171347"/><path d="M60.328 687.363a4.053 4.053 0 002.574-.682c.494-.426.75-1.057.665-1.705a.936.936 0 00-.546-.886c-1.483-.767-5.813 1.892-6.29 2.199a.266.266 0 00-.154.307.33.33 0 00.239.273 16.19 16.19 0 003.512.494zm1.994-2.779a.681.681 0 01.41.086c.084 0 .187.119.204.375.051.426-.102.852-.426 1.142a6.504 6.504 0 01-4.773.238 12.798 12.798 0 014.585-1.841z" fill="#FF3951"/><path d="M56.901 686.885h.154c1.38-.75 4.057-3.699 3.784-5.114a1.04 1.04 0 00-1.023-.835 1.688 1.688 0 00-1.347.409c-1.55 1.261-1.875 5.114-1.892 5.302 0 .119.051.221.154.289a.287.287 0 00.17-.051zm2.694-5.438h.153c.41 0 .443.239.46.324.17.87-1.534 3.103-2.915 4.143a7.517 7.517 0 011.586-4.194 1.07 1.07 0 01.716-.273z" fill="#FF3951"/><path d="M124.937 684.584h-16.28c-.546 0-1.023.375-1.143.92l-2.642 11.933a2.015 2.015 0 001.602 2.353c.12.017.239.034.358.034 5.268-.085 9.104-.409 15.718-.409 4.074 0 16.365.426 21.991.426 5.625 0 6.358-5.557 4.057-6.069-10.331-2.25-18.104-5.37-21.411-8.336a3.23 3.23 0 00-2.25-.852z" fill="#171347"/><path d="M129.369 686.937a4.053 4.053 0 002.574-.682c.494-.426.75-1.057.665-1.705a.936.936 0 00-.546-.886c-1.483-.767-5.813 1.892-6.29 2.199a.265.265 0 00-.153.307.33.33 0 00.238.273c1.142.289 2.319.46 3.512.494zm1.994-2.83a.69.69 0 01.41.085c.085 0 .187.12.204.375.051.427-.102.853-.426 1.143a6.504 6.504 0 01-4.773.238 12.8 12.8 0 014.585-1.841z" fill="#FF3951"/><path d="M125.942 686.459h.154c1.381-.75 4.057-3.699 3.784-5.114a1.04 1.04 0 00-1.023-.835 1.687 1.687 0 00-1.346.409c-1.552 1.261-1.875 5.114-1.892 5.302 0 .119.051.221.153.289a.287.287 0 00.17-.051zm2.694-5.438h.153c.409 0 .443.239.461.324.17.87-1.535 3.103-2.916 4.143a7.52 7.52 0 011.586-4.194c.187-.17.443-.273.716-.273z" fill="#FF3951"/><path opacity=".2" d="M112.237 657.735l13.825 1.466-1.347 15.377-13.825-1.449 1.347-15.394zm-70.507-2.199h13.416l-.58 16.007H41.15l.58-16.007z" fill="#14142B"/><path d="M47.27 383.225h71.121c6.818 36.924 27.923 167.607 12.734 284.056l-24.071-2.983s2.233-154.583-19.024-211.725c-2.455 30.582-5.353 63.074-7.876 80.428-6.188 42.618-19.434 135.763-19.434 135.763H36.206s5.012-89.156 7.33-131.041c2.54-45.465 3.632-145.122 3.734-154.498z" fill="#171347"/><path opacity=".2" d="M88.03 452.573a191.429 191.429 0 017.944 30.77c1.994-27.276-5.967-56.085-5.967-56.085l-1.978 25.315z" fill="#14142B"/><path d="M134.32 671.119a2 2 0 01-2.237 1.503l-26.092-3.881a2 2 0 01-1.694-2.196l.472-4.308a2 2 0 012.248-1.765l26.768 3.502a2 2 0 011.683 2.459l-1.148 4.686zm-70.442-3.914a2 2 0 01-1.986 1.764H36.757a2 2 0 01-2-2v-4.68a2 2 0 011.963-2l25.747-.482a2 2 0 012.023 2.235l-.612 5.163z" fill="#D9DBE9"/><path d="M118.987 384.077H47.389v8.524l72.519-.886-.921-7.638z" fill="#14142B"/><path d="M71.403 380.242h.557a1 1 0 011 1v13.138a1 1 0 01-1 1h-.557a1 1 0 01-1-1v-13.138a1 1 0 011-1zm36.225 0h.557a1 1 0 011 1v13.138a1 1 0 01-1 1h-.557a1 1 0 01-1-1v-13.138a1 1 0 011-1z" fill="#6E7191"/><path d="M88.342 382.594h9.246a2 2 0 012 2v5.547a2 2 0 01-2 2h-9.246a2 2 0 01-2-2v-5.547a2 2 0 012-2z" fill="#fff"/><path d="M111.895 260.162s-45.243-2.131-78.945 6.376c0 0 14.882 74.922 14.32 117.54h71.717s4.654-79.934-7.092-123.916z" fill="#624DE3"/><path d="M87.151 265.841a1 1 0 01.923 1.196l-1.62 8.012a.907.907 0 00.002.41c.765 3.211 10.8 45.574 13.136 68.385a.976.976 0 01-.291.798l-3.102 3.075a1 1 0 01-1.24.134l-5.125-3.254a1.003 1.003 0 01-.465-.832c-.082-5.308-.89-48.284-5.98-67.348a.958.958 0 00-.328-.501l-8.225-6.736a1 1 0 01.325-1.724l5.854-1.9a.99.99 0 01.366-.048l5.77.333zm10.851-66.725s2.796 18.462-7.006 25.571c-9.802 7.108-9.802-27.276-9.802-27.276l16.808 1.705z" fill="#14142B"/><path d="M58.675 261.764c6.529 5.932 22.519 3.733 22.519 3.733s9.99-2.727 7.893-5.847c-5.882-.971-8.728-3.716-9.905-7.228a16.896 16.896 0 01-.596-6.716 34.74 34.74 0 01.494-3.751l-19.758-14.711c2.575 9.734 5.745 27.514-.647 34.52z" fill="#FFD5BD"/><path opacity=".2" d="M63.874 236.62c.784 11.933 10.535 15.138 15.342 15.803a16.901 16.901 0 01-.596-6.717l-14.746-9.086z" fill="#14142B"/><path d="M62.544 239.364c4.228 6.256 12.104 8.916 19.246 6.495a18.688 18.688 0 0010.655-8.677c.324-.545.614-1.125.886-1.705 4.825-11.285 6.36-31.025-5.574-38.424-8.506-5.336-19.723-2.779-25.06 5.728a18.16 18.16 0 00-2.693 7.91c-1.466 13.143-2.949 20.865 2.54 28.673z" fill="#FFD5BD"/><path d="M79.233 217.731c-.256 1.04.239 2.012.938 2.131.699.119 1.415-.648 1.602-1.705.188-1.057-.255-2.011-.937-2.131-.682-.119-1.398.614-1.603 1.705zm12.052 2.046c-.255 1.04.24 2.029.938 2.148.699.119 1.398-.665 1.585-1.705.188-1.04-.238-2.028-.937-2.148-.699-.119-1.415.648-1.585 1.705z" fill="#14142B"/><path d="M87.365 219.658a39.268 39.268 0 003.528 9.972 6.224 6.224 0 01-5.284 0l1.756-9.972z" fill="#FF97B8"/><path d="M76.165 213.18a.686.686 0 00.648-.136c1.142-1.142 2.761-1.654 4.364-1.415a.63.63 0 00.767-.46.63.63 0 00-.46-.767 6.287 6.287 0 00-5.524 1.704c-.238.239-.255.631-.017.87l.017.017a.73.73 0 00.205.187zm6.785 21.752a9.692 9.692 0 01-7.893-4.296.31.31 0 01.102-.443l.017-.017a.329.329 0 01.443.102 9.312 9.312 0 007.348 3.955c.17.017.306.154.323.324a.335.335 0 01-.323.324l-.017.051zm14.217-18.428a.672.672 0 00.358.102.627.627 0 00.443-.767v-.017a6.26 6.26 0 00-3.904-4.279.605.605 0 00-.767.392c0 .017 0 .017-.017.034a.623.623 0 00.426.785 5.141 5.141 0 013.035 3.409c.085.17.238.307.426.341zm-24.77-20.507v5.881a4.387 4.387 0 00-2.846 5.114c1.278 5.114-2.421 12.342-6.53 14.917 0 0 .137-2.131-1.704-1.859-1.841.273-2.71 11.371.136 17.047 0 0-4.688-5.386-6.256-17.319-1.432-11.047-.699-19.997 2.011-23.866l15.19.085z" fill="#14142B"/><path d="M57.209 197.701s-4.416-9.955 12.052-12.223c16.467-2.267 33.821 4.262 33.821 4.262s.853 15.786-13.109 15.632c-13.603-.153-32.764-7.671-32.764-7.671z" fill="#14142B"/><path d="M52.503 220.425a12.704 12.704 0 006.069 7.518c3.904 2.097 6.819-1.177 6.546-5.353-.273-3.733-2.574-9.427-6.904-9.751-4.33-.324-6.87 3.631-5.71 7.586z" fill="#FFD5BD"/><path d="M61.59 254.229l18.905 8.524 1.108-6.819 6.938 2.438a5.68 5.68 0 013.784 5.983l-.767 7.501-9.597-5.25-4.773 6.819-22.707-10.928 7.108-8.268z" fill="#CAB7FF"/><path opacity=".2" d="M39.155 301.791a1032.31 1032.31 0 013.58 24.411 36.077 36.077 0 001.398-29.304l-4.978 4.893z" fill="#14142B"/><path d="M32.95 266.538c-8.148 3.75-34.623 56.852-32.867 86.837 1.705 29.219 47.306 65.649 47.306 65.649s9.87-8.012 11.251-14.899c0 0-32.134-33.293-32.986-50.75-.835-17.149 17.9-47.732 17.9-47.732s2.13-12.785-1.705-23.865c-3.836-11.081-8.899-15.24-8.899-15.24z" fill="#624DE3"/><path d="M58.64 397.033s-7.432 16.673-13.637 20.048c0 0-1.347 5.642 4.057 13.314 5.404 7.671 26.236-18.701 9.58-33.362z" fill="#CAB7FF"/></g><defs><filter id="filter0_dd" x="205.109" y="288.281" width="336.555" height="303.493" filterUnits="userSpaceOnUse" color-interpolation-filters="sRGB"><feFlood flood-opacity="0" result="BackgroundImageFix"/><feColorMatrix in="SourceAlpha" values="0 0 0 0 0 0 0 0 0 0 0 0 0 0 0 0 0 0 127 0" result="hardAlpha"/><feOffset dy="8.408"/><feGaussianBlur stdDeviation="8.408"/><feColorMatrix values="0 0 0 0 0.078875 0 0 0 0 0.0770833 0 0 0 0 0.166667 0 0 0 0.03 0"/><feBlend in2="BackgroundImageFix" result="effect1_dropShadow"/><feColorMatrix in="SourceAlpha" values="0 0 0 0 0 0 0 0 0 0 0 0 0 0 0 0 0 0 127 0" result="hardAlpha"/><feOffset dy="-1.201"/><feGaussianBlur stdDeviation="9.008"/><feColorMatrix values="0 0 0 0 0.078875 0 0 0 0 0.0770833 0 0 0 0 0.166667 0 0 0 0.02 0"/><feBlend in2="effect1_dropShadow" result="effect2_dropShadow"/><feBlend in="SourceGraphic" in2="effect2_dropShadow" result="shape"/></filter><filter id="filter1_d" x="225.07" y="313.989" width="29.752" height="29.752" filterUnits="userSpaceOnUse" color-interpolation-filters="sRGB"><feFlood flood-opacity="0" result="BackgroundImageFix"/><feColorMatrix in="SourceAlpha" values="0 0 0 0 0 0 0 0 0 0 0 0 0 0 0 0 0 0 127 0" result="hardAlpha"/><feOffset dy="2.402"/><feGaussianBlur stdDeviation="4.804"/><feColorMatrix values="0 0 0 0 1 0 0 0 0 0.223529 0 0 0 0 0.317647 0 0 0 0.14 0"/><feBlend in2="BackgroundImageFix" result="effect1_dropShadow"/><feBlend in="SourceGraphic" in2="effect1_dropShadow" result="shape"/></filter><filter id="filter2_d" x="241.61" y="315.19" width="27.349" height="27.35" filterUnits="userSpaceOnUse" color-interpolation-filters="sRGB"><feFlood flood-opacity="0" result="BackgroundImageFix"/><feColorMatrix in="SourceAlpha" values="0 0 0 0 0 0 0 0 0 0 0 0 0 0 0 0 0 0 127 0" result="hardAlpha"/><feOffset dy="2.402"/><feGaussianBlur stdDeviation="4.204"/><feColorMatrix values="0 0 0 0 1 0 0 0 0 0.760784 0 0 0 0 0.14902 0 0 0 0.14 0"/><feBlend in2="BackgroundImageFix" result="effect1_dropShadow"/><feBlend in="SourceGraphic" in2="effect1_dropShadow" result="shape"/></filter><filter id="filter3_d" x="258.15" y="316.391" width="24.948" height="24.948" filterUnits="userSpaceOnUse" color-interpolation-filters="sRGB"><feFlood flood-opacity="0" result="BackgroundImageFix"/><feColorMatrix in="SourceAlpha" values="0 0 0 0 0 0 0 0 0 0 0 0 0 0 0 0 0 0 127 0" result="hardAlpha"/><feOffset dy="2.402"/><feGaussianBlur stdDeviation="3.603"/><feColorMatrix values="0 0 0 0 0.603922 0 0 0 0 0.909804 0 0 0 0 0.52549 0 0 0 0.29 0"/><feBlend in2="BackgroundImageFix" result="effect1_dropShadow"/><feBlend in="SourceGraphic" in2="effect1_dropShadow" result="shape"/></filter><filter id="filter4_dd" x="398.506" y="2.224" width="326.203" height="309.331" filterUnits="userSpaceOnUse" color-interpolation-filters="sRGB"><feFlood flood-opacity="0" result="BackgroundImageFix"/><feColorMatrix in="SourceAlpha" values="0 0 0 0 0 0 0 0 0 0 0 0 0 0 0 0 0 0 127 0" result="hardAlpha"/><feOffset dy="7.207"/><feGaussianBlur stdDeviation="10.81"/><feColorMatrix values="0 0 0 0 0.0987208 0 0 0 0 0.0910417 0 0 0 0 0.475 0 0 0 0.02 0"/><feBlend in2="BackgroundImageFix" result="effect1_dropShadow"/><feColorMatrix in="SourceAlpha" values="0 0 0 0 0 0 0 0 0 0 0 0 0 0 0 0 0 0 127 0" result="hardAlpha"/><feOffset dy="-1.201"/><feGaussianBlur stdDeviation="9.008"/><feColorMatrix values="0 0 0 0 0.078875 0 0 0 0 0.0770833 0 0 0 0 0.166667 0 0 0 0.04 0"/><feBlend in2="effect1_dropShadow" result="effect2_dropShadow"/><feBlend in="SourceGraphic" in2="effect2_dropShadow" result="shape"/></filter><filter id="filter5_d" x="421.718" y="29.147" width="29.753" height="29.752" filterUnits="userSpaceOnUse" color-interpolation-filters="sRGB"><feFlood flood-opacity="0" result="BackgroundImageFix"/><feColorMatrix in="SourceAlpha" values="0 0 0 0 0 0 0 0 0 0 0 0 0 0 0 0 0 0 127 0" result="hardAlpha"/><feOffset dy="2.402"/><feGaussianBlur stdDeviation="4.804"/><feColorMatrix values="0 0 0 0 1 0 0 0 0 0.223529 0 0 0 0 0.317647 0 0 0 0.14 0"/><feBlend in2="BackgroundImageFix" result="effect1_dropShadow"/><feBlend in="SourceGraphic" in2="effect1_dropShadow" result="shape"/></filter><filter id="filter6_d" x="439.46" y="30.349" width="27.35" height="27.35" filterUnits="userSpaceOnUse" color-interpolation-filters="sRGB"><feFlood flood-opacity="0" result="BackgroundImageFix"/><feColorMatrix in="SourceAlpha" values="0 0 0 0 0 0 0 0 0 0 0 0 0 0 0 0 0 0 127 0" result="hardAlpha"/><feOffset dy="2.402"/><feGaussianBlur stdDeviation="4.204"/><feColorMatrix values="0 0 0 0 1 0 0 0 0 0.760784 0 0 0 0 0.14902 0 0 0 0.14 0"/><feBlend in2="BackgroundImageFix" result="effect1_dropShadow"/><feBlend in="SourceGraphic" in2="effect1_dropShadow" result="shape"/></filter><filter id="filter7_d" x="457.201" y="31.55" width="24.948" height="24.948" filterUnits="userSpaceOnUse" color-interpolation-filters="sRGB"><feFlood flood-opacity="0" result="BackgroundImageFix"/><feColorMatrix in="SourceAlpha" values="0 0 0 0 0 0 0 0 0 0 0 0 0 0 0 0 0 0 127 0" result="hardAlpha"/><feOffset dy="2.402"/><feGaussianBlur stdDeviation="3.603"/><feColorMatrix values="0 0 0 0 0.603922 0 0 0 0 0.909804 0 0 0 0 0.52549 0 0 0 0.29 0"/><feBlend in2="BackgroundImageFix" result="effect1_dropShadow"/><feBlend in="SourceGraphic" in2="effect1_dropShadow" result="shape"/></filter><filter id="filter8_d" x="444.232" y="112.634" width="133.86" height="27.68" filterUnits="userSpaceOnUse" color-interpolation-filters="sRGB"><feFlood flood-opacity="0" result="BackgroundImageFix"/><feColorMatrix in="SourceAlpha" values="0 0 0 0 0 0 0 0 0 0 0 0 0 0 0 0 0 0 127 0" result="hardAlpha"/><feOffset dy="3.603"/><feGaussianBlur stdDeviation="4.804"/><feColorMatrix values="0 0 0 0 1 0 0 0 0 0.223529 0 0 0 0 0.317647 0 0 0 0.15 0"/><feBlend in2="BackgroundImageFix" result="effect1_dropShadow"/><feBlend in="SourceGraphic" in2="effect1_dropShadow" result="shape"/></filter><filter id="filter9_d" x="444.232" y="140.158" width="198.117" height="27.68" filterUnits="userSpaceOnUse" color-interpolation-filters="sRGB"><feFlood flood-opacity="0" result="BackgroundImageFix"/><feColorMatrix in="SourceAlpha" values="0 0 0 0 0 0 0 0 0 0 0 0 0 0 0 0 0 0 127 0" result="hardAlpha"/><feOffset dy="2.402"/><feGaussianBlur stdDeviation="4.804"/><feColorMatrix values="0 0 0 0 0.890196 0 0 0 0 0.795294 0 0 0 0 0.458824 0 0 0 0.31 0"/><feBlend in2="BackgroundImageFix" result="effect1_dropShadow"/><feBlend in="SourceGraphic" in2="effect1_dropShadow" result="shape"/></filter><filter id="filter10_d" x="444.232" y="170.083" width="64.058" height="27.68" filterUnits="userSpaceOnUse" color-interpolation-filters="sRGB"><feFlood flood-opacity="0" result="BackgroundImageFix"/><feColorMatrix in="SourceAlpha" values="0 0 0 0 0 0 0 0 0 0 0 0 0 0 0 0 0 0 127 0" result="hardAlpha"/><feOffset dy="3.603"/><feGaussianBlur stdDeviation="4.804"/><feColorMatrix values="0 0 0 0 1 0 0 0 0 0.223529 0 0 0 0 0.317647 0 0 0 0.15 0"/><feBlend in2="BackgroundImageFix" result="effect1_dropShadow"/><feBlend in="SourceGraphic" in2="effect1_dropShadow" result="shape"/></filter><filter id="filter11_d" x="444.232" y="197.608" width="161.321" height="27.68" filterUnits="userSpaceOnUse" color-interpolation-filters="sRGB"><feFlood flood-opacity="0" result="BackgroundImageFix"/><feColorMatrix in="SourceAlpha" values="0 0 0 0 0 0 0 0 0 0 0 0 0 0 0 0 0 0 127 0" result="hardAlpha"/><feOffset dy="2.402"/><feGaussianBlur stdDeviation="4.804"/><feColorMatrix values="0 0 0 0 0.890196 0 0 0 0 0.795294 0 0 0 0 0.458824 0 0 0 0.31 0"/><feBlend in2="BackgroundImageFix" result="effect1_dropShadow"/><feBlend in="SourceGraphic" in2="effect1_dropShadow" result="shape"/></filter><filter id="filter12_d" x="444.232" y="227.533" width="182.411" height="27.682" filterUnits="userSpaceOnUse" color-interpolation-filters="sRGB"><feFlood flood-opacity="0" result="BackgroundImageFix"/><feColorMatrix in="SourceAlpha" values="0 0 0 0 0 0 0 0 0 0 0 0 0 0 0 0 0 0 127 0" result="hardAlpha"/><feOffset dy="3.603"/><feGaussianBlur stdDeviation="4.804"/><feColorMatrix values="0 0 0 0 1 0 0 0 0 0.223529 0 0 0 0 0.317647 0 0 0 0.15 0"/><feBlend in2="BackgroundImageFix" result="effect1_dropShadow"/><feBlend in="SourceGraphic" in2="effect1_dropShadow" result="shape"/></filter><filter id="filter13_d" x="292.317" y="381.773" width="97.618" height="117.845" filterUnits="userSpaceOnUse" color-interpolation-filters="sRGB"><feFlood flood-opacity="0" result="BackgroundImageFix"/><feColorMatrix in="SourceAlpha" values="0 0 0 0 0 0 0 0 0 0 0 0 0 0 0 0 0 0 127 0" result="hardAlpha"/><feOffset dy="4.804"/><feGaussianBlur stdDeviation="4.804"/><feColorMatrix values="0 0 0 0 1 0 0 0 0 0.760784 0 0 0 0 0.14902 0 0 0 0.21 0"/><feBlend in2="BackgroundImageFix" result="effect1_dropShadow"/><feBlend in="SourceGraphic" in2="effect1_dropShadow" result="shape"/></filter><filter id="filter14_d" x="240.707" y="381.269" width="124.483" height="73.014" filterUnits="userSpaceOnUse" color-interpolation-filters="sRGB"><feFlood flood-opacity="0" result="BackgroundImageFix"/><feColorMatrix in="SourceAlpha" values="0 0 0 0 0 0 0 0 0 0 0 0 0 0 0 0 0 0 127 0" result="hardAlpha"/><feOffset dy="4.804"/><feGaussianBlur stdDeviation="4.804"/><feColorMatrix values="0 0 0 0 1 0 0 0 0 0.505882 0 0 0 0 0.223529 0 0 0 0.16 0"/><feBlend in2="BackgroundImageFix" result="effect1_dropShadow"/><feBlend in="SourceGraphic" in2="effect1_dropShadow" result="shape"/></filter><filter id="filter15_d" x="220.727" y="400.645" width="134.98" height="152.234" filterUnits="userSpaceOnUse" color-interpolation-filters="sRGB"><feFlood flood-opacity="0" result="BackgroundImageFix"/><feColorMatrix in="SourceAlpha" values="0 0 0 0 0 0 0 0 0 0 0 0 0 0 0 0 0 0 127 0" result="hardAlpha"/><feOffset dy="7.207"/><feGaussianBlur stdDeviation="9.609"/><feColorMatrix values="0 0 0 0 1 0 0 0 0 0.223529 0 0 0 0 0.317647 0 0 0 0.34 0"/><feBlend in2="BackgroundImageFix" result="effect1_dropShadow"/><feBlend in="SourceGraphic" in2="effect1_dropShadow" result="shape"/></filter><filter id="filter16_d" x="400.744" y="419.03" width="33.631" height="33.631" filterUnits="userSpaceOnUse" color-interpolation-filters="sRGB"><feFlood flood-opacity="0" result="BackgroundImageFix"/><feColorMatrix in="SourceAlpha" values="0 0 0 0 0 0 0 0 0 0 0 0 0 0 0 0 0 0 127 0" result="hardAlpha"/><feOffset dy="4.804"/><feGaussianBlur stdDeviation="4.804"/><feColorMatrix values="0 0 0 0 1 0 0 0 0 0.223529 0 0 0 0 0.317647 0 0 0 0.19 0"/><feBlend in2="BackgroundImageFix" result="effect1_dropShadow"/><feBlend in="SourceGraphic" in2="effect1_dropShadow" result="shape"/></filter><filter id="filter17_d" x="405.549" y="449.058" width="24.022" height="24.022" filterUnits="userSpaceOnUse" color-interpolation-filters="sRGB"><feFlood flood-opacity="0" result="BackgroundImageFix"/><feColorMatrix in="SourceAlpha" values="0 0 0 0 0 0 0 0 0 0 0 0 0 0 0 0 0 0 127 0" result="hardAlpha"/><feOffset dy="4.804"/><feGaussianBlur stdDeviation="2.402"/><feColorMatrix values="0 0 0 0 1 0 0 0 0 0.505882 0 0 0 0 0.223529 0 0 0 0.13 0"/><feBlend in2="BackgroundImageFix" result="effect1_dropShadow"/><feBlend in="SourceGraphic" in2="effect1_dropShadow" result="shape"/></filter><filter id="filter18_d" x="401.946" y="473.08" width="31.229" height="31.229" filterUnits="userSpaceOnUse" color-interpolation-filters="sRGB"><feFlood flood-opacity="0" result="BackgroundImageFix"/><feColorMatrix in="SourceAlpha" values="0 0 0 0 0 0 0 0 0 0 0 0 0 0 0 0 0 0 127 0" result="hardAlpha"/><feOffset dy="7.207"/><feGaussianBlur stdDeviation="4.204"/><feColorMatrix values="0 0 0 0 1 0 0 0 0 0.760784 0 0 0 0 0.14902 0 0 0 0.44 0"/><feBlend in2="BackgroundImageFix" result="effect1_dropShadow"/><feBlend in="SourceGraphic" in2="effect1_dropShadow" result="shape"/></filter><filter id="filter19_dd" x="68.59" y="0" width="343.762" height="309.33" filterUnits="userSpaceOnUse" color-interpolation-filters="sRGB"><feFlood flood-opacity="0" result="BackgroundImageFix"/><feColorMatrix in="SourceAlpha" values="0 0 0 0 0 0 0 0 0 0 0 0 0 0 0 0 0 0 127 0" result="hardAlpha"/><feOffset dy="7.207"/><feGaussianBlur stdDeviation="10.81"/><feColorMatrix values="0 0 0 0 0.0987208 0 0 0 0 0.0910417 0 0 0 0 0.475 0 0 0 0.02 0"/><feBlend in2="BackgroundImageFix" result="effect1_dropShadow"/><feColorMatrix in="SourceAlpha" values="0 0 0 0 0 0 0 0 0 0 0 0 0 0 0 0 0 0 127 0" result="hardAlpha"/><feOffset dy="-1.201"/><feGaussianBlur stdDeviation="9.008"/><feColorMatrix values="0 0 0 0 0.078875 0 0 0 0 0.0770833 0 0 0 0 0.166667 0 0 0 0.04 0"/><feBlend in2="effect1_dropShadow" result="effect2_dropShadow"/><feBlend in="SourceGraphic" in2="effect2_dropShadow" result="shape"/></filter><filter id="filter20_d" x="298.124" y="133.347" width="40.837" height="139.445" filterUnits="userSpaceOnUse" color-interpolation-filters="sRGB"><feFlood flood-opacity="0" result="BackgroundImageFix"/><feColorMatrix in="SourceAlpha" values="0 0 0 0 0 0 0 0 0 0 0 0 0 0 0 0 0 0 127 0" result="hardAlpha"/><feOffset dy="4.804"/><feGaussianBlur stdDeviation="6.606"/><feColorMatrix values="0 0 0 0 1 0 0 0 0 0.760784 0 0 0 0 0.14902 0 0 0 0.22 0"/><feBlend in2="BackgroundImageFix" result="effect1_dropShadow"/><feBlend in="SourceGraphic" in2="effect1_dropShadow" result="shape"/></filter><filter id="filter21_d" x="235.667" y="201.085" width="40.837" height="71.689" filterUnits="userSpaceOnUse" color-interpolation-filters="sRGB"><feFlood flood-opacity="0" result="BackgroundImageFix"/><feColorMatrix in="SourceAlpha" values="0 0 0 0 0 0 0 0 0 0 0 0 0 0 0 0 0 0 127 0" result="hardAlpha"/><feOffset dy="4.804"/><feGaussianBlur stdDeviation="6.606"/><feColorMatrix values="0 0 0 0 1 0 0 0 0 0.760784 0 0 0 0 0.14902 0 0 0 0.22 0"/><feBlend in2="BackgroundImageFix" result="effect1_dropShadow"/><feBlend in="SourceGraphic" in2="effect1_dropShadow" result="shape"/></filter><filter id="filter22_d" x="173.21" y="112.33" width="40.838" height="160.444" filterUnits="userSpaceOnUse" color-interpolation-filters="sRGB"><feFlood flood-opacity="0" result="BackgroundImageFix"/><feColorMatrix in="SourceAlpha" values="0 0 0 0 0 0 0 0 0 0 0 0 0 0 0 0 0 0 127 0" result="hardAlpha"/><feOffset dy="4.804"/><feGaussianBlur stdDeviation="6.606"/><feColorMatrix values="0 0 0 0 1 0 0 0 0 0.760784 0 0 0 0 0.14902 0 0 0 0.22 0"/><feBlend in2="BackgroundImageFix" result="effect1_dropShadow"/><feBlend in="SourceGraphic" in2="effect1_dropShadow" result="shape"/></filter><filter id="filter23_d" x="93.355" y="27.942" width="29.752" height="29.752" filterUnits="userSpaceOnUse" color-interpolation-filters="sRGB"><feFlood flood-opacity="0" result="BackgroundImageFix"/><feColorMatrix in="SourceAlpha" values="0 0 0 0 0 0 0 0 0 0 0 0 0 0 0 0 0 0 127 0" result="hardAlpha"/><feOffset dy="2.402"/><feGaussianBlur stdDeviation="4.804"/><feColorMatrix values="0 0 0 0 1 0 0 0 0 0.223529 0 0 0 0 0.317647 0 0 0 0.14 0"/><feBlend in2="BackgroundImageFix" result="effect1_dropShadow"/><feBlend in="SourceGraphic" in2="effect1_dropShadow" result="shape"/></filter><filter id="filter24_d" x="109.896" y="29.143" width="27.35" height="27.35" filterUnits="userSpaceOnUse" color-interpolation-filters="sRGB"><feFlood flood-opacity="0" result="BackgroundImageFix"/><feColorMatrix in="SourceAlpha" values="0 0 0 0 0 0 0 0 0 0 0 0 0 0 0 0 0 0 127 0" result="hardAlpha"/><feOffset dy="2.402"/><feGaussianBlur stdDeviation="4.204"/><feColorMatrix values="0 0 0 0 1 0 0 0 0 0.760784 0 0 0 0 0.14902 0 0 0 0.14 0"/><feBlend in2="BackgroundImageFix" result="effect1_dropShadow"/><feBlend in="SourceGraphic" in2="effect1_dropShadow" result="shape"/></filter><filter id="filter25_d" x="126.436" y="30.345" width="24.948" height="24.948" filterUnits="userSpaceOnUse" color-interpolation-filters="sRGB"><feFlood flood-opacity="0" result="BackgroundImageFix"/><feColorMatrix in="SourceAlpha" values="0 0 0 0 0 0 0 0 0 0 0 0 0 0 0 0 0 0 127 0" result="hardAlpha"/><feOffset dy="2.402"/><feGaussianBlur stdDeviation="3.603"/><feColorMatrix values="0 0 0 0 0.603922 0 0 0 0 0.909804 0 0 0 0 0.52549 0 0 0 0.29 0"/><feBlend in2="BackgroundImageFix" result="effect1_dropShadow"/><feBlend in="SourceGraphic" in2="effect1_dropShadow" result="shape"/></filter><clipPath id="clip0"><path fill="#fff" transform="translate(0 185)" d="M0 0h255v516H0z"/></clipPath></defs></svg>