<svg width="1508" height="655" fill="none" xmlns="http://www.w3.org/2000/svg"><g clip-path="url(#clip0)"><path d="M72.443 448.491c.071.067.103.149.175.216.087.108.12.191.152.273.048.124.041.221.074.303-.007.098.025.18.019.277l-.021.293a.774.774 0 01-.075.267.928.928 0 01-.13.241l-.187.215c-.062.072-.124.144-.202.174-.101.088-.14.103-.257.149-.117.046-.211.035-.29.066-.094-.011-.172.019-.266.01-.094-.012-.188-.021-.283-.032-.11-.052-.204-.062-.26-.088a.948.948 0 01-.236-.145l-.214-.2a.668.668 0 01-.175-.216.902.902 0 01-.152-.273c-.048-.123-.041-.221-.074-.303-.032-.082-.025-.18.02-.293l.021-.292a.765.765 0 01.076-.267.955.955 0 01.13-.242l.186-.215c.062-.071.124-.143.202-.174.14-.102.336-.179.508-.199.094.011.172-.019.266-.01.094.012.188.021.283.032.094.011.15.037.26.088a.961.961 0 01.236.145l.214.2zm5.424 13.946c.072.067.104.149.214.2.088.108.12.191.152.273.049.124.042.221.074.303-.007.098.025.18.02.277l-.022.293a.773.773 0 01-.075.267.912.912 0 01-.13.241l-.186.216c-.063.071-.125.143-.202.174a.686.686 0 01-.258.148c-.116.046-.21.035-.29.066-.093-.011-.171.019-.266.01-.094-.012-.188-.021-.282-.032a.748.748 0 01-.26-.088.947.947 0 01-.237-.145l-.214-.2c-.07-.067-.142-.134-.174-.216-.088-.108-.12-.191-.152-.272-.049-.124-.042-.222-.074-.304.007-.098-.025-.18-.02-.277l.022-.293a.776.776 0 01.075-.266.941.941 0 01.13-.242l.186-.215c.063-.072.125-.144.202-.174.14-.103.336-.179.508-.199.095.011.172-.02.266-.01l.283.031c.094.012.15.037.26.089.055.026.165.077.236.144l.215.201h-.001zm5.464 13.93c.072.067.104.149.214.201.087.108.12.19.152.273.048.123.041.22.073.303-.006.097.026.179.02.277l-.021.292a.785.785 0 01-.075.268.903.903 0 01-.13.24l-.187.216c-.062.071-.124.143-.202.174-.101.087-.14.102-.257.148-.117.046-.211.035-.29.066-.094-.011-.172.02-.266.01l-.283-.032a.767.767 0 01-.26-.087.978.978 0 01-.236-.145l-.214-.201a.668.668 0 01-.175-.216.922.922 0 01-.152-.272c-.048-.124-.041-.222-.074-.304.007-.098-.025-.18-.019-.277l.021-.293a.774.774 0 01.076-.266.944.944 0 01.13-.242l.186-.215c.062-.072.124-.144.202-.174.14-.103.335-.179.507-.199.095.011.173-.02.267-.01l.283.031c.094.012.149.038.26.089a.987.987 0 01.236.144l.214.201zm5.19 13.233c.072.067.12.191.214.202.087.107.12.19.152.272.049.124.042.221.074.303-.007.098.025.18.02.278l-.022.292a.78.78 0 01-.075.267.916.916 0 01-.13.241l-.187.215a.562.562 0 01-.201.175c-.102.087-.141.102-.258.148-.117.045-.21.036-.29.067-.093-.012-.171.019-.266.008l-.283-.031a.75.75 0 01-.26-.088.95.95 0 01-.236-.145l-.214-.2c-.07-.067-.142-.134-.174-.216a.903.903 0 01-.152-.273c-.049-.123-.042-.22-.074-.303.007-.098-.026-.18-.02-.277l.021-.293c.007-.098.03-.154.076-.267.023-.056.069-.169.13-.241l.186-.215a.586.586 0 01.202-.174c.14-.103.336-.18.508-.199.094.01.172-.02.266-.01l.283.032c.094.01.149.035.26.088.055.026.165.077.236.144l.215.201v-.001zm103.991-86.967c-.032-.082-.104-.148-.137-.231-.087-.108-.119-.19-.152-.272-.048-.123-.041-.222-.073-.304a.639.639 0 01-.017-.278c.006-.097.015-.195.021-.293.008-.097.032-.154.078-.267a.984.984 0 01.134-.243l.189-.216a.585.585 0 01.206-.176 1.17 1.17 0 01.515-.202c.096.011.174-.02.27-.011l.285.03a.783.783 0 01.264.087c.056.026.167.077.238.144l.216.2a.633.633 0 01.176.215.897.897 0 01.153.273c.048.123.041.221.073.303-.008.098.025.18.017.278l-.022.293c-.007.098-.031.155-.077.268-.024.057-.071.17-.134.242l-.189.217c-.064.072-.127.144-.206.175a.782.782 0 01-.261.15c-.119.047-.214.037-.294.068-.096-.011-.175.02-.269.011l-.287-.03a.774.774 0 01-.262-.087c-.056-.026-.168-.077-.239-.144l-.216-.2zm7.464 11.912c.032.083.104.149.214.201.087.108.119.191.151.273.049.123.042.221.075.303-.008.098.024.18.018.277l-.02.293a.8.8 0 01-.076.267.905.905 0 01-.13.241l-.186.215c-.063.072-.125.144-.202.174a.795.795 0 01-.258.149c-.116.045-.211.035-.289.066-.094-.012-.173.019-.267.009a26.99 26.99 0 00-.282-.031.747.747 0 01-.26-.088.982.982 0 01-.237-.145l-.214-.2a.651.651 0 01-.174-.216c-.088-.108-.12-.191-.152-.273-.049-.124-.042-.221-.074-.303-.032-.083-.025-.18-.019-.278l.021-.292a.768.768 0 01.075-.267c.023-.057.068-.169.13-.241l.186-.216a.597.597 0 01.202-.174c.141-.102.336-.179.508-.199.095.011.173-.019.266-.009l.283.031c.095.011.15.037.26.089a.926.926 0 01.237.144l.214.2zm5.463 13.93c.032.083.104.149.214.201.087.108.12.191.152.273.048.124.042.221.074.303-.007.098.025.18.019.277l-.021.293a.774.774 0 01-.075.267.921.921 0 01-.131.241l-.186.215c-.062.072-.124.144-.202.174-.101.088-.179.118-.257.149-.117.045-.211.035-.29.066-.094-.012-.172.019-.266.01a12.877 12.877 0 00-.283-.032.736.736 0 01-.259-.088.945.945 0 01-.237-.145l-.214-.2a.668.668 0 01-.175-.216c-.087-.108-.119-.19-.152-.273-.048-.124-.041-.221-.074-.303-.032-.083-.025-.18-.019-.277l.021-.293a.768.768 0 01.075-.267c.024-.057.069-.169.131-.241l.186-.215c.062-.072.124-.144.202-.174.14-.103.335-.18.507-.2.095.012.173-.019.267-.009l.283.031c.094.011.149.037.259.089a.93.93 0 01.238.144l.213.2zm5.19 13.234c.033.082.121.191.215.201a.93.93 0 01.151.273c.048.123.042.22.074.303-.007.097.025.18.019.278l-.02.291a.8.8 0 01-.076.268c-.023.057-.068.169-.131.241l-.186.215a.578.578 0 01-.201.175.79.79 0 01-.258.147c-.117.046-.211.036-.289.067-.094-.011-.172.02-.267.008l-.283-.03c-.094-.011-.149-.037-.259-.088a.95.95 0 01-.237-.145l-.214-.2c-.071-.068-.142-.135-.174-.217a.888.888 0 01-.152-.272c-.049-.123-.042-.221-.074-.303-.033-.083-.026-.18-.019-.277l.02-.293c.007-.098.03-.154.076-.267.023-.057.068-.169.13-.241l.186-.216a.583.583 0 01.202-.173c.141-.103.336-.18.508-.199.094.01.173-.021.266-.011l.283.032a.74.74 0 01.26.088c.055.027.165.078.237.144l.214.202-.001-.001zm-67.015 72.715a1.388 1.388 0 011.099.04c.351.163.63.463.775.832a1.53 1.53 0 01-.003 1.137 1.394 1.394 0 01-.778.777 1.392 1.392 0 01-1.099-.041 1.535 1.535 0 01-.775-.832 1.53 1.53 0 01.003-1.137 1.39 1.39 0 01.778-.776zm15.442-5.073c.072.067.104.15.214.202.087.107.12.19.152.272.048.124.041.221.074.303-.007.098.025.18.019.277l-.021.293a.79.79 0 01-.075.267.938.938 0 01-.131.241l-.186.215c-.062.072-.124.144-.202.174-.101.088-.179.118-.257.149-.117.045-.211.035-.289.066-.095-.012-.173.019-.267.009l-.283-.031c-.094-.011-.149-.037-.259-.088a.95.95 0 01-.237-.145l-.214-.2a.651.651 0 01-.174-.216.88.88 0 01-.152-.273c-.049-.123-.042-.22-.074-.303a.636.636 0 01-.019-.277l.02-.293c.007-.098.03-.154.075-.267.024-.056.07-.169.131-.241l.186-.215a.587.587 0 01.202-.174c.14-.103.336-.179.508-.199.094.011.172-.02.266-.01l.283.032c.094.01.149.036.259.087a.945.945 0 01.237.145l.214.2zm13.273-5.205c.072.066.104.149.214.201.087.108.119.19.152.273.048.123.042.22.074.302-.008.098.025.18.018.278l-.02.292a.773.773 0 01-.075.268.938.938 0 01-.131.241l-.186.214a.57.57 0 01-.202.175.779.779 0 01-.257.148c-.118.046-.212.036-.29.066-.094-.011-.172.02-.267.009l-.282-.03c-.095-.012-.149-.038-.26-.088a.98.98 0 01-.237-.145l-.214-.201c-.07-.067-.142-.133-.175-.216a.926.926 0 01-.151-.272c-.048-.124-.042-.221-.074-.303.007-.099-.025-.181-.019-.278l.02-.292a.806.806 0 01.076-.268c.023-.056.069-.168.131-.24l.186-.215a.558.558 0 01.202-.174c.139-.103.335-.18.508-.199.094.01.172-.021.266-.01l.283.031a.767.767 0 01.259.087c.055.027.166.078.237.145l.214.201zm12.43-5.86a1.397 1.397 0 011.099.04c.351.164.63.464.775.833a1.53 1.53 0 01-.003 1.137 1.39 1.39 0 01-.778.776 1.392 1.392 0 01-1.099-.04 1.535 1.535 0 01-.775-.832 1.538 1.538 0 01.003-1.138c.146-.358.426-.638.778-.776zm-91.57-73.382a1.391 1.391 0 011.1.04c.35.164.63.463.775.833.144.369.144.778-.003 1.137a1.392 1.392 0 01-.778.776 1.391 1.391 0 01-1.099-.04 1.533 1.533 0 01-.775-.832 1.536 1.536 0 01.002-1.138c.147-.359.427-.638.779-.776zm-13.935 5.466a1.391 1.391 0 011.098.04c.352.164.63.463.775.832.145.37.144.779-.002 1.138a1.392 1.392 0 01-.779.776 1.391 1.391 0 01-1.098-.04 1.533 1.533 0 01-.775-.832 1.536 1.536 0 01.002-1.138c.147-.359.427-.638.779-.776zm27.209-10.671a1.39 1.39 0 011.098.04c.351.163.63.463.775.832.145.369.144.779-.002 1.138a1.397 1.397 0 01-.779.776 1.394 1.394 0 01-1.098-.04 1.533 1.533 0 01-.775-.833 1.535 1.535 0 01.002-1.137c.147-.359.427-.638.779-.776zm15.442-5.072c.071.066.103.149.213.2.088.108.104.15.152.273.049.124.042.221.074.303-.007.098.025.18.019.277l-.021.293a.742.742 0 01-.075.267.905.905 0 01-.13.241l-.186.215a.576.576 0 01-.202.174c-.102.088-.179.118-.258.149-.116.046-.211.035-.289.066-.094-.011-.172.019-.267.01-.094-.012-.188-.021-.282-.032a.754.754 0 01-.26-.088.95.95 0 01-.237-.145l-.214-.2c-.07-.067-.142-.134-.174-.216a.77.77 0 01-.152-.273c-.048-.123-.042-.221-.074-.303-.032-.082-.025-.18-.019-.277l.021-.293c.007-.097.03-.154.075-.267.024-.057.069-.169.13-.241l.186-.215c.063-.072.125-.144.202-.174a1.15 1.15 0 01.508-.2c.095.012.172-.019.267-.009l.282.031a.78.78 0 01.26.089.943.943 0 01.237.144l.214.201zm-10.525 17.609a1.39 1.39 0 011.098.04c.352.163.63.463.775.832.145.37.144.779-.002 1.138a1.394 1.394 0 01-.779.776 1.394 1.394 0 01-1.098-.04 1.533 1.533 0 01-.775-.833 1.535 1.535 0 01.002-1.137c.147-.359.427-.638.779-.776zm-27.21 10.671a1.391 1.391 0 011.1.04c.35.164.63.463.774.833a1.53 1.53 0 01-.002 1.137 1.392 1.392 0 01-.779.776 1.391 1.391 0 01-1.098-.04 1.533 1.533 0 01-.775-.832 1.536 1.536 0 01.002-1.138c.147-.359.427-.638.779-.776zm13.937-5.466a1.395 1.395 0 011.099.04c.351.164.63.463.775.833a1.53 1.53 0 01-.003 1.137 1.392 1.392 0 01-.778.776 1.391 1.391 0 01-1.099-.04 1.533 1.533 0 01-.775-.832 1.536 1.536 0 01.003-1.138c.146-.358.426-.638.778-.776zm28.715-10.277c.071.067.103.149.213.2.088.108.12.191.153.273.048.124.041.221.073.303-.007.098.026.18.019.277l-.02.293a.766.766 0 01-.076.267.905.905 0 01-.13.241l-.186.215c-.062.072-.124.144-.202.175-.101.087-.179.117-.257.148-.117.046-.212.035-.29.066-.094-.011-.172.019-.266.01-.094-.012-.189-.021-.283-.032a.754.754 0 01-.26-.088.943.943 0 01-.236-.145l-.215-.2c-.07-.067-.142-.134-.174-.216a.922.922 0 01-.152-.272c-.048-.124-.042-.222-.074-.304-.032-.082-.025-.18-.019-.277l.021-.293c.007-.097.03-.154.075-.266.024-.058.069-.17.131-.242l.185-.215c.063-.072.125-.144.202-.174.141-.103.336-.179.508-.199.095.011.173-.02.267-.01l.282.031c.094.012.15.037.26.089.055.026.165.077.237.144l.214.201zm-9.979 19.002a1.392 1.392 0 011.099.04c.351.163.63.463.775.832.145.37.144.779-.003 1.138a1.39 1.39 0 01-.778.776 1.392 1.392 0 01-1.099-.04 1.537 1.537 0 01-.775-.833 1.53 1.53 0 01.003-1.137 1.39 1.39 0 01.778-.776zm-13.272 5.205a1.394 1.394 0 011.098.04c.351.164.63.463.775.833.145.369.144.778-.002 1.137a1.394 1.394 0 01-.779.776 1.39 1.39 0 01-1.098-.039 1.536 1.536 0 01-.775-.833 1.535 1.535 0 01.002-1.137c.147-.359.427-.639.779-.777zm-13.937 5.466a1.395 1.395 0 011.099.04c.351.164.63.463.775.833.145.369.144.778-.002 1.137a1.392 1.392 0 01-.779.776 1.391 1.391 0 01-1.099-.04 1.533 1.533 0 01-.775-.832 1.536 1.536 0 01.003-1.138c.146-.358.426-.638.778-.776zm42.651-15.743c.072.067.104.149.214.201a.89.89 0 01.152.273c.048.123.041.22.074.303-.007.097.025.179.019.277l-.021.292c-.007.098-.03.155-.075.268a.932.932 0 01-.131.24l-.186.216c-.062.071-.124.143-.202.174-.101.087-.179.117-.257.148-.117.046-.211.035-.289.066-.095-.011-.173.02-.267.01l-.283-.032a.76.76 0 01-.259-.087.98.98 0 01-.237-.145l-.214-.201a.651.651 0 01-.174-.216c-.088-.108-.12-.191-.152-.272-.049-.124-.042-.222-.074-.304a.635.635 0 01-.019-.277l.02-.293a.767.767 0 01.076-.266.936.936 0 01.13-.242l.186-.215c.062-.072.124-.144.202-.174.14-.103.336-.179.508-.199.094.011.172-.02.266-.01l.283.031c.094.012.149.038.26.089.055.026.165.077.236.144l.214.201zm2.892-31.673c.072.067.105.149.214.2.087.109.104.15.152.274.048.123.042.22.074.302-.007.098.025.18.019.278-.008.098-.014.195-.02.292a.8.8 0 01-.076.268.938.938 0 01-.131.241l-.186.215a.578.578 0 01-.202.174.769.769 0 01-.257.148c-.117.046-.211.036-.289.066-.094-.011-.173.02-.267.01l-.283-.031c-.094-.011-.149-.037-.259-.088a.973.973 0 01-.238-.145l-.213-.201c-.071-.067-.143-.133-.175-.216a.787.787 0 01-.151-.272c-.049-.123-.043-.221-.075-.304.008-.097-.025-.18-.018-.277l.02-.292c.007-.098.03-.154.076-.267a.896.896 0 01.13-.242l.186-.215c.062-.072.124-.144.202-.174.14-.102.336-.179.508-.199.094.011.172-.019.266-.01l.283.032c.094.011.15.036.26.088.055.026.165.077.236.144l.214.201zm12.431-5.86a1.394 1.394 0 011.098.04c.351.164.63.463.775.833.145.369.144.778-.002 1.137a1.394 1.394 0 01-.779.776 1.39 1.39 0 01-1.098-.04 1.535 1.535 0 01-.775-.832 1.538 1.538 0 01.002-1.138c.147-.359.427-.638.779-.776zm27.208-10.671c.742-.291 1.569.094 1.874.872.305.779-.039 1.623-.781 1.914-.742.291-1.568-.094-1.873-.873-.306-.778.039-1.622.78-1.913zm-13.936 5.466a1.392 1.392 0 011.099.04c.351.163.63.463.775.832.145.37.144.779-.003 1.138a1.39 1.39 0 01-.778.776 1.394 1.394 0 01-1.098-.04 1.535 1.535 0 01-.776-.833 1.53 1.53 0 01.003-1.137 1.39 1.39 0 01.778-.776zm-20.786 23.602c.072.067.105.149.215.201a.93.93 0 01.151.273c.049.123.042.22.075.303-.008.097.024.18.018.277-.008.098-.014.195-.02.292a.8.8 0 01-.076.268.938.938 0 01-.131.241l-.185.215c-.063.072-.125.144-.203.174a.769.769 0 01-.257.148c-.117.046-.211.036-.289.066-.094-.011-.173.02-.267.01l-.282-.031c-.095-.011-.149-.037-.26-.088a.973.973 0 01-.238-.145l-.213-.201c-.071-.067-.143-.133-.175-.215a.919.919 0 01-.151-.273c-.049-.123-.043-.221-.075-.303.008-.098-.025-.18-.018-.278l.02-.292c.007-.098.03-.154.076-.267a.911.911 0 01.13-.242l.186-.215a.578.578 0 01.202-.174c.14-.102.336-.179.508-.199.094.011.172-.019.266-.01l.283.032c.094.011.15.037.26.088.055.026.166.078.236.145l.214.2zm39.64-16.531c.742-.291 1.568.094 1.873.872.306.779-.039 1.623-.781 1.914-.742.291-1.568-.094-1.873-.872-.306-.779.039-1.623.781-1.914zm-27.209 10.671a1.394 1.394 0 011.098.04c.351.164.63.463.775.833.145.369.144.779-.002 1.137a1.394 1.394 0 01-.779.776 1.39 1.39 0 01-1.098-.04 1.535 1.535 0 01-.775-.832 1.538 1.538 0 01.002-1.138c.147-.358.427-.638.779-.776zm13.272-5.205a1.392 1.392 0 011.099.04c.351.163.63.463.775.832.145.37.144.779-.003 1.138a1.39 1.39 0 01-.778.776 1.39 1.39 0 01-1.098-.04 1.535 1.535 0 01-.776-.833 1.54 1.54 0 01.003-1.137c.146-.359.427-.638.778-.776zm-20.239 24.995c.072.067.104.149.214.201.087.108.119.191.152.273.048.123.042.221.074.303-.008.098.025.18.018.277l-.02.292a.773.773 0 01-.075.268.938.938 0 01-.131.241l-.186.215c-.062.072-.124.144-.202.174a.779.779 0 01-.257.148c-.118.047-.212.036-.29.067-.094-.012-.172.019-.266.009l-.283-.031c-.095-.011-.149-.037-.26-.088a.95.95 0 01-.237-.145l-.214-.2c-.07-.068-.142-.134-.175-.216a.942.942 0 01-.151-.273c-.048-.124-.042-.221-.074-.303.007-.098-.025-.18-.019-.278l.02-.292a.794.794 0 01.076-.267.921.921 0 01.131-.241l.186-.216c.062-.071.124-.143.202-.174.139-.102.335-.179.507-.199.095.011.173-.019.267-.01l.282.032c.094.011.15.037.26.088.055.026.166.078.237.145l.214.2zm12.43-5.859a1.392 1.392 0 011.099.04c.351.163.63.463.775.832.145.369.144.779-.003 1.138a1.393 1.393 0 01-.778.776 1.394 1.394 0 01-1.098-.04 1.535 1.535 0 01-.776-.833 1.53 1.53 0 01.003-1.137c.146-.359.426-.639.778-.776zm13.273-5.206a1.39 1.39 0 011.098.04c.352.164.631.463.775.832.145.37.144.779-.002 1.138a1.396 1.396 0 01-.778.776 1.392 1.392 0 01-1.099-.04 1.538 1.538 0 01-.775-.832 1.538 1.538 0 01.002-1.138c.147-.359.427-.638.779-.776zm13.936-5.466c.742-.291 1.568.094 1.874.873.305.778-.039 1.622-.781 1.913-.742.291-1.568-.094-1.874-.872-.305-.779.039-1.623.781-1.914zm-90.1 51.41c.743-.291 1.569.094 1.874.873.306.779-.039 1.622-.78 1.913-.743.291-1.569-.093-1.874-.872-.306-.779.039-1.623.78-1.914zm13.937-5.465c.703-.276 1.529.109 1.874.872.305.779-.039 1.623-.781 1.914-.742.291-1.569-.094-1.874-.873-.305-.779.039-1.622.781-1.913zm13.273-5.206c.742-.291 1.568.094 1.873.872.306.779-.039 1.623-.781 1.914-.742.291-1.568-.094-1.873-.872-.306-.779.039-1.623.781-1.914zm15.442-5.072c.071.067.103.149.213.201.088.108.12.191.153.273.048.123.041.221.073.303-.007.097.026.179.019.277l-.021.292a.752.752 0 01-.075.268.905.905 0 01-.13.241l-.186.215a.587.587 0 01-.202.174c-.102.087-.179.117-.257.148-.117.046-.212.036-.29.066-.094-.011-.172.02-.267.01l-.282-.031a.799.799 0 01-.26-.088.999.999 0 01-.237-.145l-.214-.201c-.07-.067-.142-.134-.174-.216-.088-.108-.12-.191-.152-.272-.049-.124-.042-.222-.074-.304-.032-.082-.025-.18-.019-.277l.021-.293c.007-.097.03-.154.075-.266.024-.058.069-.17.131-.242l.185-.215c.063-.072.125-.144.202-.174.141-.103.336-.179.508-.199.095.011.172-.019.267-.01l.282.032c.094.011.15.037.26.088.055.026.165.078.237.144l.214.201zm-37.461 28.977a1.397 1.397 0 011.099.04c.351.164.63.463.775.833.144.369.144.778-.003 1.137a1.39 1.39 0 01-.778.776 1.392 1.392 0 01-1.099-.04 1.536 1.536 0 01-.775-.832 1.537 1.537 0 01.003-1.138 1.39 1.39 0 01.778-.776zm27.209-10.671a1.39 1.39 0 011.098.04c.352.163.631.463.776.832.144.369.144.779-.003 1.137a1.391 1.391 0 01-.778.777 1.396 1.396 0 01-1.099-.04 1.54 1.54 0 01-.775-.833 1.535 1.535 0 01.002-1.137c.147-.359.427-.638.779-.776zm-13.273 5.205a1.396 1.396 0 011.099.04c.351.164.63.464.775.833a1.53 1.53 0 01-.003 1.137 1.39 1.39 0 01-.778.776 1.392 1.392 0 01-1.099-.04 1.535 1.535 0 01-.775-.832 1.538 1.538 0 01.003-1.138c.146-.358.426-.638.778-.776zm28.715-10.277c.071.066.12.19.214.201.087.107.12.19.152.272.048.124.041.221.073.303-.006.098.026.18.02.278l-.021.292c-.007.098-.03.155-.075.267-.024.058-.069.17-.131.241l-.186.215c-.062.073-.124.145-.202.175-.101.087-.179.117-.257.148-.117.046-.211.036-.289.067-.094-.012-.173.019-.267.008l-.283-.031c-.094-.01-.149-.036-.259-.088a.894.894 0 01-.237-.145l-.214-.199c-.071-.068-.142-.135-.175-.217-.087-.108-.119-.19-.152-.273-.048-.123-.041-.22-.073-.303a.635.635 0 01-.019-.277l.02-.293c.007-.097.03-.154.075-.267.024-.056.07-.169.131-.24l.186-.216c.062-.071.124-.143.202-.174.14-.103.335-.179.508-.199.094.011.172-.02.266-.01l.283.032a.743.743 0 01.259.088c.056.026.166.077.237.144l.214.201zm-10.252 18.305a1.397 1.397 0 011.099.04c.351.164.63.464.775.833a1.53 1.53 0 01-.003 1.137 1.39 1.39 0 01-.778.776 1.392 1.392 0 01-1.099-.04 1.535 1.535 0 01-.775-.832 1.533 1.533 0 01.003-1.138c.146-.358.426-.638.778-.776zm-27.209 10.672a1.392 1.392 0 011.099.04c.351.163.63.463.775.832a1.53 1.53 0 01-.003 1.137 1.391 1.391 0 01-.778.777 1.397 1.397 0 01-1.099-.04 1.54 1.54 0 01-.775-.833 1.535 1.535 0 01.003-1.137 1.39 1.39 0 01.778-.776zm13.937-5.466a1.39 1.39 0 011.098.04c.352.163.63.463.775.832.145.369.144.779-.002 1.138a1.397 1.397 0 01-.779.776 1.394 1.394 0 01-1.098-.04 1.53 1.53 0 01-.775-.833 1.535 1.535 0 01.002-1.137c.147-.359.427-.638.779-.776zm28.715-10.277c.071.066.103.148.213.201.087.107.12.19.152.272.048.123.042.221.074.303-.007.098.025.18.019.278l-.021.292c-.007.097-.03.154-.075.267a.924.924 0 01-.131.241l-.186.215a.568.568 0 01-.201.175.794.794 0 01-.258.147c-.117.046-.211.037-.289.067-.094-.011-.172.02-.267.009l-.283-.031c-.093-.011-.149-.037-.259-.088a.95.95 0 01-.237-.145l-.214-.2c-.071-.068-.142-.134-.174-.217a.888.888 0 01-.152-.272c-.049-.123-.042-.221-.074-.303-.033-.083-.026-.18-.019-.277l.02-.293c.007-.098.03-.154.076-.267a.948.948 0 01.13-.241l.186-.216a.583.583 0 01.202-.173c.141-.103.336-.18.508-.199.094.01.172-.02.266-.011l.283.033a.73.73 0 01.26.087c.055.027.165.078.236.145l.215.201zm2.892-31.673c.071.066.104.148.214.2a.93.93 0 01.151.273c.048.123.042.221.074.303-.007.098.025.18.019.277-.008.098-.014.195-.02.293a.8.8 0 01-.076.267.921.921 0 01-.131.241l-.186.215c-.062.072-.124.144-.202.174-.101.087-.179.118-.257.149-.117.046-.211.035-.289.066-.094-.012-.173.019-.267.009l-.283-.031a.743.743 0 01-.259-.088.973.973 0 01-.238-.145l-.213-.2c-.071-.067-.143-.134-.175-.216-.087-.108-.119-.191-.151-.273-.049-.124-.043-.221-.075-.303.008-.098-.025-.18-.018-.277l.02-.293c.007-.098.03-.154.076-.267a.89.89 0 01.13-.241l.186-.216c.062-.071.124-.143.202-.174.14-.102.336-.179.508-.199.094.011.172-.019.266-.009l.283.031a.75.75 0 01.26.089.922.922 0 01.236.144l.214.2.001.001zm39.639-16.532c.741-.291 1.568.094 1.873.873.306.778-.039 1.622-.781 1.913-.742.291-1.568-.093-1.873-.872-.306-.779.039-1.623.781-1.914zm-13.937 5.466c.703-.276 1.529.109 1.874.873.305.778-.039 1.622-.781 1.913-.742.291-1.568-.094-1.874-.872-.305-.779.039-1.623.781-1.914zm-13.272 5.206c.742-.291 1.568.093 1.873.872.306.779-.039 1.623-.781 1.914-.742.291-1.568-.094-1.873-.873-.306-.778.039-1.622.781-1.913zm-7.24 19.094c.072.066.12.19.214.2.087.108.119.191.151.273.049.123.043.22.075.303-.008.097.024.18.018.277l-.02.292a.8.8 0 01-.076.268.888.888 0 01-.13.241l-.186.215c-.062.072-.124.144-.202.175a.794.794 0 01-.258.147c-.117.046-.211.036-.289.067-.094-.011-.172.019-.267.008l-.282-.03c-.095-.011-.149-.037-.26-.088a.95.95 0 01-.237-.145l-.213-.2c-.071-.068-.144-.134-.176-.217-.087-.108-.119-.19-.151-.272-.048-.123-.042-.221-.074-.303.007-.098-.025-.181-.019-.277l.02-.293a.794.794 0 01.076-.267c.023-.057.068-.169.131-.241l.185-.216c.063-.071.125-.143.203-.173.139-.103.335-.18.507-.199.095.01.172-.02.267-.011l.282.032c.094.011.15.036.26.088.056.027.166.077.237.145.072.066.142.133.214.201zm39.639-16.532c.742-.291 1.568.094 1.873.872.306.779-.039 1.623-.78 1.914-.742.291-1.569-.094-1.874-.873-.306-.778.039-1.622.781-1.913zm-13.936 5.466a1.39 1.39 0 011.098.04c.351.163.63.463.775.832.145.369.144.779-.002 1.138a1.397 1.397 0 01-.779.776 1.394 1.394 0 01-1.098-.04 1.536 1.536 0 01-.775-.833 1.535 1.535 0 01.002-1.137c.147-.359.427-.638.779-.776zm-13.273 5.205a1.394 1.394 0 011.098.04c.352.164.631.464.776.833a1.54 1.54 0 01-.003 1.137 1.393 1.393 0 01-.778.776 1.392 1.392 0 01-1.099-.04 1.535 1.535 0 01-.775-.832 1.533 1.533 0 01.003-1.138c.146-.358.426-.638.778-.776zm-7.24 19.094c.072.066.104.148.214.201.087.107.119.19.152.272.048.124.042.221.074.303-.008.098.025.18.019.278l-.021.292a.768.768 0 01-.075.267.908.908 0 01-.131.241l-.186.215c-.062.073-.124.145-.202.175-.101.087-.18.117-.257.148-.118.046-.211.036-.29.067-.094-.012-.172.019-.267.008l-.282-.031c-.094-.01-.149-.036-.259-.088a.906.906 0 01-.238-.144l-.213-.2c-.071-.068-.143-.135-.175-.217a.91.91 0 01-.152-.272c-.048-.124-.042-.221-.074-.303.007-.099-.025-.181-.019-.278l.02-.293a.79.79 0 01.076-.266.908.908 0 01.131-.241l.186-.216c.062-.071.124-.143.202-.174.139-.103.335-.179.508-.199.094.011.172-.02.266-.01l.283.032a.729.729 0 01.259.088c.056.026.166.077.237.144l.214.201zm39.639-16.531c.742-.291 1.568.093 1.874.872.305.779-.039 1.623-.781 1.914-.742.291-1.568-.094-1.874-.873-.305-.779.039-1.623.781-1.913zm-13.936 5.465a1.394 1.394 0 011.098.04c.352.164.631.464.775.833.145.369.144.778-.002 1.137a1.396 1.396 0 01-.778.776 1.392 1.392 0 01-1.099-.04 1.535 1.535 0 01-.775-.832 1.53 1.53 0 01.003-1.137c.146-.359.426-.639.778-.777zm-13.273 5.206a1.392 1.392 0 011.099.04c.351.164.63.463.775.832.145.37.144.779-.003 1.138a1.39 1.39 0 01-.778.776 1.394 1.394 0 01-1.098-.04 1.536 1.536 0 01-.776-.832 1.543 1.543 0 01.003-1.138c.146-.359.427-.638.778-.776zm-72.56-63.961a1.392 1.392 0 011.099.04c.351.164.63.463.775.832.145.37.144.779-.003 1.138a1.39 1.39 0 01-.778.776 1.392 1.392 0 01-1.099-.04 1.538 1.538 0 01-.775-.832 1.533 1.533 0 01.003-1.138 1.39 1.39 0 01.778-.776zM88 411.671a1.391 1.391 0 011.098.039c.352.164.63.464.775.833.145.369.144.779-.002 1.137a1.393 1.393 0 01-.779.777 1.395 1.395 0 01-1.098-.04 1.535 1.535 0 01-.775-.833 1.533 1.533 0 01.002-1.137c.147-.359.427-.638.779-.776zm28.714-10.278c.072.067.104.149.214.201a.785.785 0 01.152.273c.049.123.042.221.074.303-.007.097.025.179.019.277l-.021.292c-.007.098-.03.155-.075.268a.938.938 0 01-.131.241l-.186.215a.578.578 0 01-.202.174c-.101.087-.179.117-.257.148-.117.046-.211.036-.289.066-.094-.011-.173.02-.267.01a26.99 26.99 0 00-.282-.031.784.784 0 01-.26-.088.98.98 0 01-.237-.145l-.214-.201a.651.651 0 01-.174-.216.774.774 0 01-.152-.272c-.049-.123-.042-.222-.074-.304a.635.635 0 01-.019-.277l.02-.293a.767.767 0 01.076-.266.936.936 0 01.13-.242l.186-.215c.062-.072.124-.144.202-.174.141-.103.336-.179.508-.199.094.011.172-.02.266-.01l.283.032c.094.011.149.037.26.088a.983.983 0 01.236.144l.214.201zm13.273-5.206c.072.067.104.149.214.201.087.108.103.15.152.273.048.123.042.221.074.303-.007.098.025.18.019.277l-.021.293a.774.774 0 01-.075.267.938.938 0 01-.131.241l-.186.215c-.062.072-.124.144-.202.174-.101.087-.18.118-.257.149-.118.046-.211.035-.29.066-.094-.012-.172.019-.266.009l-.283-.031a.736.736 0 01-.259-.088.955.955 0 01-.238-.145l-.213-.2c-.071-.067-.143-.134-.175-.216-.087-.108-.103-.15-.152-.273-.048-.123-.042-.221-.074-.303.007-.098-.025-.18-.019-.278l.02-.292a.794.794 0 01.076-.267.921.921 0 01.131-.241l.186-.216c.062-.071.124-.143.202-.174a1.14 1.14 0 01.507-.199c.095.011.173-.019.267-.009l.282.031c.095.011.15.037.26.089a.91.91 0 01.237.144l.214.2zm25.703-11.065a1.39 1.39 0 011.098.04c.352.164.631.463.776.833a1.54 1.54 0 01-.003 1.137 1.393 1.393 0 01-.778.776 1.392 1.392 0 01-1.099-.04 1.538 1.538 0 01-.775-.832 1.533 1.533 0 01.003-1.138 1.39 1.39 0 01.778-.776zm-13.273 5.206a1.392 1.392 0 011.099.04c.351.163.63.463.775.832.145.37.144.779-.003 1.138a1.39 1.39 0 01-.778.776 1.394 1.394 0 01-1.098-.04 1.535 1.535 0 01-.776-.833 1.54 1.54 0 01.003-1.137c.146-.359.427-.638.778-.776zm-46.608 2.207a1.391 1.391 0 011.098.04c.352.163.63.463.775.832.145.37.144.779-.002 1.138a1.392 1.392 0 01-.779.776 1.391 1.391 0 01-1.098-.04 1.535 1.535 0 01-.775-.833 1.533 1.533 0 01.002-1.137c.147-.359.427-.638.779-.776zm15.442-5.072c.071.067.104.149.213.201.088.107.12.19.153.273.048.123.041.22.073.303-.007.097.026.179.019.277l-.02.292c-.007.098-.03.155-.075.268a.932.932 0 01-.131.24l-.186.216c-.062.071-.124.143-.202.174-.101.087-.179.117-.257.148-.117.046-.212.035-.29.066-.094-.011-.172.02-.266.01-.094-.012-.189-.021-.283-.032a.771.771 0 01-.26-.087 1.006 1.006 0 01-.236-.145l-.214-.201c-.071-.067-.143-.134-.175-.216a.922.922 0 01-.152-.272c-.048-.124-.042-.222-.074-.304-.032-.082-.025-.18-.019-.277l.021-.293c.007-.097.03-.154.075-.266.024-.058.069-.17.131-.242l.186-.215c.062-.072.124-.144.202-.174.14-.103.335-.179.507-.199.095.011.173-.02.267-.01l.282.031c.094.012.15.038.26.089a.956.956 0 01.237.144l.214.201zm13.273-5.206c.072.067.104.149.214.201.087.108.119.191.151.273.049.123.042.221.075.303-.008.098.024.18.018.277-.008.098-.014.195-.02.292a.8.8 0 01-.076.268.905.905 0 01-.13.241l-.186.215c-.063.072-.125.144-.202.174a.782.782 0 01-.258.148c-.117.046-.211.036-.289.067-.094-.012-.173.019-.267.009l-.282-.031c-.095-.011-.149-.037-.26-.088a.95.95 0 01-.237-.145l-.214-.201c-.071-.067-.143-.133-.175-.215a.919.919 0 01-.151-.273c-.049-.124-.043-.221-.075-.303.008-.098-.024-.18-.018-.278l.02-.292c.007-.098.03-.154.076-.267a.911.911 0 01.13-.242l.186-.215a.597.597 0 01.202-.174c.14-.102.336-.179.508-.199.095.011.172-.019.266-.01.094.012.189.021.283.032.094.011.15.037.26.088.055.026.166.078.236.145l.215.2zm12.43-5.859a1.394 1.394 0 011.098.039c.352.164.631.464.775.833.145.369.144.779-.002 1.138a1.399 1.399 0 01-.778.776 1.4 1.4 0 01-1.099-.04 1.537 1.537 0 01-.775-.833 1.535 1.535 0 01.002-1.137c.147-.359.427-.639.779-.776zm1.197 124.095a1.394 1.394 0 011.098.04c.352.164.63.464.775.833.145.369.144.778-.002 1.137a1.394 1.394 0 01-.779.776 1.39 1.39 0 01-1.098-.04 1.531 1.531 0 01-.775-.832 1.535 1.535 0 01.002-1.137c.147-.359.427-.639.779-.777zm-13.273 5.206a1.392 1.392 0 011.099.04c.351.164.63.463.775.832.144.37.144.779-.003 1.138a1.39 1.39 0 01-.778.776 1.397 1.397 0 01-1.099-.04 1.538 1.538 0 01-.775-.832 1.533 1.533 0 01.003-1.138 1.39 1.39 0 01.778-.776zm28.715-10.277c.071.066.103.148.214.201.087.107.103.149.152.272.048.123.041.221.073.303-.007.098.026.18.02.278l-.021.292a.778.778 0 01-.076.267.931.931 0 01-.13.241l-.186.215a.57.57 0 01-.202.175c-.101.086-.179.117-.257.148-.117.045-.211.036-.29.066-.094-.011-.172.02-.267.009l-.282-.031a.754.754 0 01-.26-.088.943.943 0 01-.236-.145l-.214-.2c-.071-.067-.143-.134-.175-.216a.785.785 0 01-.152-.273c-.048-.123-.041-.221-.074-.303-.032-.083-.025-.18-.019-.277l.021-.293c.007-.098.03-.154.075-.267.024-.056.069-.169.131-.241l.185-.216c.063-.071.125-.142.203-.173.14-.103.335-.18.507-.199.095.01.173-.02.267-.01l.283.032c.093.01.148.035.259.088a.956.956 0 01.237.144c.072.066.142.134.214.201zm13.273-5.206c.071.066.104.149.214.201a.79.79 0 01.151.273c.049.123.042.22.075.302-.008.098.024.18.018.278l-.02.292a.8.8 0 01-.076.268c-.023.057-.068.169-.131.24l-.185.216a.576.576 0 01-.202.174.782.782 0 01-.258.148c-.117.046-.211.036-.289.067-.094-.012-.172.019-.267.008l-.282-.031c-.095-.01-.149-.036-.26-.087a.955.955 0 01-.238-.145l-.213-.2c-.071-.068-.143-.135-.175-.217a.787.787 0 01-.151-.272c-.049-.124-.042-.221-.075-.303.008-.099-.025-.181-.018-.277l.02-.293c.007-.098.03-.154.076-.267.023-.057.068-.169.13-.241l.186-.216c.063-.071.125-.143.202-.173.14-.103.336-.18.508-.2.094.011.172-.02.266-.01l.283.032c.094.011.15.036.26.088.055.026.166.077.236.144l.215.201zm25.702-11.066a1.397 1.397 0 011.099.041c.351.163.63.463.775.832a1.53 1.53 0 01-.003 1.137 1.391 1.391 0 01-.778.777 1.394 1.394 0 01-1.098-.041 1.533 1.533 0 01-.776-.832 1.54 1.54 0 01.003-1.137c.146-.359.427-.639.778-.777zm-13.272 5.206a1.394 1.394 0 011.098.04c.351.164.631.463.775.833.145.369.144.778-.002 1.137a1.394 1.394 0 01-.779.776 1.39 1.39 0 01-1.098-.04 1.538 1.538 0 01-.775-.832 1.538 1.538 0 01.002-1.138c.147-.359.427-.638.779-.776z" fill="#57586E"/></g><path opacity=".102" d="M422.5 29C587.357 29 721 162.643 721 327.5S587.357 626 422.5 626 124 492.357 124 327.5 257.643 29 422.5 29z" fill="#7965EF"/><path opacity=".102" d="M123.995 87.998L22 146.996V29l101.995 58.998z" fill="#FFCF70"/><path d="M1501.5 41c1.93 0 3.5 1.567 3.5 3.5s-1.57 3.5-3.5 3.5-3.5-1.567-3.5-3.5 1.57-3.5 3.5-3.5z" fill="#F2D53B"/><path d="M182.5 315a6.5 6.5 0 110 13 6.5 6.5 0 010-13z" fill="#241E6F"/><path d="M81.498 176a8.5 8.5 0 110 17 8.5 8.5 0 010-17z" fill="#5CC9A7"/><defs><clipPath id="clip0"><path fill="#fff" transform="rotate(-21.415 1108.31 61.678)" d="M0 0h134.015v133.921H0z"/></clipPath></defs></svg>