<svg width="24" height="23" fill="none" xmlns="http://www.w3.org/2000/svg"><path d="M19.408 6.452l-3.962-.575-1.772-3.59C12.99.898 11.01.9 10.326 2.286l-1.772 3.59-3.962.575c-1.53.223-2.142 2.105-1.035 3.184l2.868 2.795-.677 3.946c-.262 1.525 1.34 2.687 2.708 1.968L12 16.482l3.544 1.863c1.367.718 2.97-.444 2.709-1.968l-.677-3.946 2.867-2.795c1.107-1.08.495-2.961-1.035-3.184zm-.082 2.038l-3.169 3.089a.8.8 0 00-.23.708l.748 4.36a.266.266 0 01-.387.282l-3.916-2.06a.8.8 0 00-.744 0L7.71 16.93a.266.266 0 01-.386-.281l.747-4.361a.8.8 0 00-.23-.708L4.674 8.49a.266.266 0 01.148-.454L9.2 7.399a.8.8 0 00.603-.437l1.958-3.968c.098-.199.38-.2.478 0l1.958 3.968a.8.8 0 00.603.437l4.378.637c.22.032.307.3.148.454zM6.315 1.647L5.36.33a.8.8 0 00-1.295.94l.957 1.317a.8.8 0 001.294-.94zM3.14 13.448a.8.8 0 00-1.008-.514l-1.579.513a.8.8 0 10.494 1.522l1.58-.513a.8.8 0 00.514-1.008zM19.759.153A.8.8 0 0018.64.33l-.956 1.317a.8.8 0 101.294.94l.957-1.317a.8.8 0 00-.177-1.117zm3.688 13.294l-1.58-.513a.8.8 0 10-.494 1.522l1.58.513a.8.8 0 00.494-1.522zM12 19.65a.8.8 0 00-.8.8v1.623a.8.8 0 101.6 0v-1.624a.8.8 0 00-.8-.8z" fill="#fff"/></svg>