<svg width="1440" height="986" fill="none" xmlns="http://www.w3.org/2000/svg"><mask id="a" maskUnits="userSpaceOnUse" x="0" y="0" width="1440" height="986"><path d="M1440 0H0v986h1440V0z" fill="#C4C4C4"/></mask><g mask="url(#a)"><path d="M0 0h1440v986.5H0V0z" fill="url(#paint0_linear)"/><path d="M61 228h-286v295H61V228z" fill="url(#paint1_linear)"/><path d="M188 161H-97v295h285V161z" fill="url(#paint2_linear)"/><path d="M875-46h565v554L994.5 382 875-46z" fill="url(#paint3_linear)"/><path d="M820 255a3 3 0 100-6 3 3 0 000 6zm14 0a3 3 0 100-6 3 3 0 000 6zm14 0a3 3 0 100-6 3 3 0 000 6zm14 0a3 3 0 100-6 3 3 0 000 6zm14 0a3 3 0 100-6 3 3 0 000 6zm14 0a3 3 0 100-6 3 3 0 000 6zm14 0a3 3 0 100-6 3 3 0 000 6zm-84 14a3 3 0 100-6 3 3 0 000 6zm14 0a3 3 0 100-6 3 3 0 000 6zm14 0a3 3 0 100-6 3 3 0 000 6zm14 0a3 3 0 100-6 3 3 0 000 6zm14 0a3 3 0 100-6 3 3 0 000 6zm14 0a3 3 0 100-6 3 3 0 000 6zm14 0a3 3 0 100-6 3 3 0 000 6zm-84 14a3 3 0 100-6 3 3 0 000 6zm14 0a3 3 0 100-6 3 3 0 000 6zm14 0a3 3 0 100-6 3 3 0 000 6zm14 0a3 3 0 100-6 3 3 0 000 6zm14 0a3 3 0 100-6 3 3 0 000 6zm14 0a3 3 0 100-6 3 3 0 000 6zm14 0a3 3 0 100-6 3 3 0 000 6zm-84 14a3 3 0 100-6 3 3 0 000 6zm14 0a3 3 0 100-6 3 3 0 000 6zm14 0a3 3 0 100-6 3 3 0 000 6zm14 0a3 3 0 100-6 3 3 0 000 6zm14 0a3 3 0 100-6 3 3 0 000 6zm14 0a3 3 0 100-6 3 3 0 000 6zm14 0a3 3 0 100-6 3 3 0 000 6zm-84 14a3 3 0 100-6 3 3 0 000 6zm14 0a3 3 0 100-6 3 3 0 000 6zm14 0a3 3 0 100-6 3 3 0 000 6zm14 0a3 3 0 100-6 3 3 0 000 6zm14 0a3 3 0 100-6 3 3 0 000 6zm14 0a3 3 0 100-6 3 3 0 000 6zm14 0a3 3 0 100-6 3 3 0 000 6zm-84 14a3 3 0 100-6 3 3 0 000 6zm14 0a3 3 0 100-6 3 3 0 000 6zm14 0a3 3 0 100-6 3 3 0 000 6zm14 0a3 3 0 100-6 3 3 0 000 6zm14 0a3 3 0 100-6 3 3 0 000 6zm14 0a3 3 0 100-6 3 3 0 000 6zm14 0a3 3 0 100-6 3 3 0 000 6zm-84 14a3 3 0 100-6 3 3 0 000 6zm14 0a3 3 0 100-6 3 3 0 000 6zm14 0a3 3 0 100-6 3 3 0 000 6zm14 0a3 3 0 100-6 3 3 0 000 6zm14 0a3 3 0 100-6 3 3 0 000 6zm14 0a3 3 0 100-6 3 3 0 000 6zm14 0a3 3 0 100-6 3 3 0 000 6zm-84 14a3 3 0 100-6 3 3 0 000 6zm14 0a3 3 0 100-6 3 3 0 000 6zm14 0a3 3 0 100-6 3 3 0 000 6zm14 0a3 3 0 100-6 3 3 0 000 6zm14 0a3 3 0 100-6 3 3 0 000 6zm14 0a3 3 0 100-6 3 3 0 000 6zm14 0a3 3 0 100-6 3 3 0 000 6zm-84 14a3 3 0 100-6 3 3 0 000 6zm14 0a3 3 0 100-6 3 3 0 000 6zm14 0a3 3 0 100-6 3 3 0 000 6zm14 0a3 3 0 100-6 3 3 0 000 6zm14 0a3 3 0 100-6 3 3 0 000 6zm14 0a3 3 0 100-6 3 3 0 000 6zm14 0a3 3 0 100-6 3 3 0 000 6zm-84 14a3 3 0 100-6 3 3 0 000 6zm14 0a3 3 0 100-6 3 3 0 000 6zm14 0a3 3 0 100-6 3 3 0 000 6zm14 0a3 3 0 100-6 3 3 0 000 6zm14 0a3 3 0 100-6 3 3 0 000 6zm14 0a3 3 0 100-6 3 3 0 000 6zm14 0a3 3 0 100-6 3 3 0 000 6zm-84 14a3 3 0 100-6 3 3 0 000 6zm14 0a3 3 0 100-6 3 3 0 000 6zm14 0a3 3 0 100-6 3 3 0 000 6zm14 0a3 3 0 100-6 3 3 0 000 6zm14 0a3 3 0 100-6 3 3 0 000 6zm14 0a3 3 0 100-6 3 3 0 000 6zm14 0a3 3 0 100-6 3 3 0 000 6zm-84 14a3 3 0 100-6 3 3 0 000 6zm14 0a3 3 0 100-6 3 3 0 000 6zm14 0a3 3 0 100-6 3 3 0 000 6zm14 0a3 3 0 100-6 3 3 0 000 6zm14 0a3 3 0 100-6 3 3 0 000 6zm14 0a3 3 0 100-6 3 3 0 000 6zm14 0a3 3 0 100-6 3 3 0 000 6zm14-154a3 3 0 100-6 3 3 0 000 6zm14 0a3 3 0 100-6 3 3 0 000 6zm14 0a3 3 0 100-6 3 3 0 000 6zm14 0a3 3 0 100-6 3 3 0 000 6zm14 0a3 3 0 100-6 3 3 0 000 6zm14 0a3 3 0 100-6 3 3 0 000 6zm14 0c1.66 0 3-1.343 3-3s-1.34-3-3-3-3 1.343-3 3 1.34 3 3 3zm-84 14a3 3 0 100-6 3 3 0 000 6zm14 0a3 3 0 100-6 3 3 0 000 6zm14 0a3 3 0 100-6 3 3 0 000 6zm14 0a3 3 0 100-6 3 3 0 000 6zm14 0a3 3 0 100-6 3 3 0 000 6zm14 0a3 3 0 100-6 3 3 0 000 6zm14 0c1.66 0 3-1.343 3-3s-1.34-3-3-3-3 1.343-3 3 1.34 3 3 3zm-84 14a3 3 0 100-6 3 3 0 000 6zm14 0a3 3 0 100-6 3 3 0 000 6zm14 0a3 3 0 100-6 3 3 0 000 6zm14 0a3 3 0 100-6 3 3 0 000 6zm14 0a3 3 0 100-6 3 3 0 000 6zm14 0a3 3 0 100-6 3 3 0 000 6zm14 0c1.66 0 3-1.343 3-3s-1.34-3-3-3-3 1.343-3 3 1.34 3 3 3zm-84 14a3 3 0 100-6 3 3 0 000 6zm14 0a3 3 0 100-6 3 3 0 000 6zm14 0a3 3 0 100-6 3 3 0 000 6zm14 0a3 3 0 100-6 3 3 0 000 6zm14 0a3 3 0 100-6 3 3 0 000 6zm14 0a3 3 0 100-6 3 3 0 000 6zm14 0c1.66 0 3-1.343 3-3s-1.34-3-3-3-3 1.343-3 3 1.34 3 3 3zm-84 14a3 3 0 100-6 3 3 0 000 6zm14 0a3 3 0 100-6 3 3 0 000 6zm14 0a3 3 0 100-6 3 3 0 000 6zm14 0a3 3 0 100-6 3 3 0 000 6zm14 0a3 3 0 100-6 3 3 0 000 6zm14 0a3 3 0 100-6 3 3 0 000 6zm14 0c1.66 0 3-1.343 3-3s-1.34-3-3-3-3 1.343-3 3 1.34 3 3 3zm-84 14a3 3 0 100-6 3 3 0 000 6zm14 0a3 3 0 100-6 3 3 0 000 6zm14 0a3 3 0 100-6 3 3 0 000 6zm14 0a3 3 0 100-6 3 3 0 000 6zm14 0a3 3 0 100-6 3 3 0 000 6zm14 0a3 3 0 100-6 3 3 0 000 6zm14 0c1.66 0 3-1.343 3-3s-1.34-3-3-3-3 1.343-3 3 1.34 3 3 3zm-84 14a3 3 0 100-6 3 3 0 000 6zm14 0a3 3 0 100-6 3 3 0 000 6zm14 0a3 3 0 100-6 3 3 0 000 6zm14 0a3 3 0 100-6 3 3 0 000 6zm14 0a3 3 0 100-6 3 3 0 000 6zm14 0a3 3 0 100-6 3 3 0 000 6zm14 0c1.66 0 3-1.343 3-3s-1.34-3-3-3-3 1.343-3 3 1.34 3 3 3zm-84 14a3 3 0 100-6 3 3 0 000 6zm14 0a3 3 0 100-6 3 3 0 000 6zm14 0a3 3 0 100-6 3 3 0 000 6zm14 0a3 3 0 100-6 3 3 0 000 6zm14 0a3 3 0 100-6 3 3 0 000 6zm14 0a3 3 0 100-6 3 3 0 000 6zm14 0c1.66 0 3-1.343 3-3s-1.34-3-3-3-3 1.343-3 3 1.34 3 3 3zm-84 14a3 3 0 100-6 3 3 0 000 6zm14 0a3 3 0 100-6 3 3 0 000 6zm14 0a3 3 0 100-6 3 3 0 000 6zm14 0a3 3 0 100-6 3 3 0 000 6zm14 0a3 3 0 100-6 3 3 0 000 6zm14 0a3 3 0 100-6 3 3 0 000 6zm14 0c1.66 0 3-1.343 3-3s-1.34-3-3-3-3 1.343-3 3 1.34 3 3 3zm-84 14a3 3 0 100-6 3 3 0 000 6zm14 0a3 3 0 100-6 3 3 0 000 6zm14 0a3 3 0 100-6 3 3 0 000 6zm14 0a3 3 0 100-6 3 3 0 000 6zm14 0a3 3 0 100-6 3 3 0 000 6zm14 0a3 3 0 100-6 3 3 0 000 6zm14 0c1.66 0 3-1.343 3-3s-1.34-3-3-3-3 1.343-3 3 1.34 3 3 3zm-84 14a3 3 0 100-6 3 3 0 000 6zm14 0a3 3 0 100-6 3 3 0 000 6zm14 0a3 3 0 100-6 3 3 0 000 6zm14 0a3 3 0 100-6 3 3 0 000 6zm14 0a3 3 0 100-6 3 3 0 000 6zm14 0a3 3 0 100-6 3 3 0 000 6zm14 0c1.66 0 3-1.343 3-3s-1.34-3-3-3-3 1.343-3 3 1.34 3 3 3zm-84 14a3 3 0 100-6 3 3 0 000 6zm14 0a3 3 0 100-6 3 3 0 000 6zm14 0a3 3 0 100-6 3 3 0 000 6zm14 0a3 3 0 100-6 3 3 0 000 6zm14 0a3 3 0 100-6 3 3 0 000 6zm14 0a3 3 0 100-6 3 3 0 000 6zm14 0c1.66 0 3-1.343 3-3s-1.34-3-3-3-3 1.343-3 3 1.34 3 3 3z" fill="#765CFF"/><path d="M0 824h286L0 529v295z" fill="url(#paint4_linear)"/></g><defs><linearGradient id="paint0_linear" x1="720" y1="0" x2="720" y2="951" gradientUnits="userSpaceOnUse"><stop offset=".197" stop-color="#573CE9"/><stop offset="1" stop-color="#1E1079"/></linearGradient><linearGradient id="paint1_linear" x1="-82" y1="228" x2="-82" y2="523" gradientUnits="userSpaceOnUse"><stop stop-color="#5652CC"/><stop offset="1" stop-color="#32279B"/></linearGradient><linearGradient id="paint2_linear" x1="45.5" y1="161" x2="45.5" y2="456" gradientUnits="userSpaceOnUse"><stop stop-color="#573CE9"/><stop offset="1" stop-color="#261B86" stop-opacity=".28"/></linearGradient><linearGradient id="paint3_linear" x1="1172" y1="-46" x2="1172" y2="508" gradientUnits="userSpaceOnUse"><stop stop-color="#573CE9"/><stop offset=".914" stop-color="#261B86" stop-opacity="0"/></linearGradient><linearGradient id="paint4_linear" x1="143" y1="529" x2="143" y2="824" gradientUnits="userSpaceOnUse"><stop stop-color="#573CE9"/><stop offset="1" stop-color="#261B86"/></linearGradient></defs></svg>