<svg width="26" height="22" fill="none" xmlns="http://www.w3.org/2000/svg"><path d="M16.232 12.949c.153-.32.246-.675.246-1.052v-.401a2.458 2.458 0 00-2.455-2.455h-.26v-.212a.886.886 0 10-1.774 0v.212H10.08a.886.886 0 100 1.773h.122v5.3h-.122a.886.886 0 100 1.774h1.91v.212a.886.886 0 101.773 0v-.212h1.188a2.458 2.458 0 002.454-2.455v-.4c0-.883-.472-1.652-1.173-2.084zm-1.527-1.453v.4a.682.682 0 01-.682.682h-2.048v-1.764h2.048c.376 0 .682.306.682.682zm.927 3.938a.682.682 0 01-.681.68h-2.976v-1.763h2.976c.375 0 .681.306.681.682v.4z" fill="#fff"/><path d="M25.17 14.501a.884.884 0 00-.347-.071l-.009.002h-2.978v-1.935h2.978l.009.002a.886.886 0 00.89-.888c0-.005-.003-.009-.003-.013V8.985a.886.886 0 10-1.774 0v1.74h-2.1V8.756a3.833 3.833 0 00-3.829-3.829H17.8v-.29A4.504 4.504 0 0013.3.14a4.504 4.504 0 00-4.5 4.5v.29h-.207a3.833 3.833 0 00-3.829 3.828v1.967h-2.1v-1.74a.886.886 0 10-1.774 0v2.613l-.002.013a.886.886 0 00.89.888l.008-.002h2.978v1.935H1.785l-.009-.002a.886.886 0 00-.89.888c0 .005.003.009.003.013v2.613a.886.886 0 101.774 0v-1.74h2.1v1.968A3.833 3.833 0 008.592 22h9.415a3.833 3.833 0 003.829-3.828v-1.967h2.1v1.739a.886.886 0 101.774 0V15.33l.002-.013a.886.886 0 00-.541-.817zM10.574 4.638A2.73 2.73 0 0113.3 1.912a2.73 2.73 0 012.727 2.726v.29h-5.453v-.29zm9.49 13.534a2.058 2.058 0 01-2.056 2.055H8.592a2.058 2.058 0 01-2.056-2.055V8.757a2.06 2.06 0 012.056-2.056h9.415a2.06 2.06 0 012.056 2.056v9.415z" fill="#fff"/></svg>