<svg width="28" height="28" fill="none" xmlns="http://www.w3.org/2000/svg"><path d="M16.473 10.596l-1.737-3.522a.82.82 0 00-1.472 0l-1.737 3.522-3.886.564a.82.82 0 00-.455 1.4l2.812 2.74-.664 3.87a.82.82 0 001.19.865L14 18.208l3.476 1.827a.82.82 0 001.19-.865l-.664-3.87 2.812-2.74a.82.82 0 00-.455-1.4l-3.886-.564zm.075 3.83a.82.82 0 00-.236.727l.456 2.657-2.386-1.255a.819.819 0 00-.764 0l-2.386 1.255.456-2.657a.82.82 0 00-.236-.726l-1.93-1.882 2.667-.388a.82.82 0 00.618-.449L14 9.291l1.193 2.417c.12.242.35.41.618.45l2.668.387-1.93 1.882z" fill="#fff"/><path d="M14 0C6.291 0 0 6.292 0 14c0 7.709 6.292 14 14 14 7.709 0 14-6.292 14-14 0-7.709-6.292-14-14-14zm0 26.36C7.185 26.36 1.64 20.814 1.64 14 1.64 7.185 7.186 1.64 14 1.64c6.815 0 12.36 5.545 12.36 12.36 0 6.815-5.545 12.36-12.36 12.36z" fill="#fff"/><path d="M14 3.281C8.114 3.281 3.281 8.113 3.281 14S8.113 24.719 14 24.719 24.719 19.887 24.719 14c0-5.886-4.832-10.719-10.719-10.719zm0 19.797c-5.006 0-9.078-4.072-9.078-9.078 0-5.006 4.072-9.078 9.078-9.078 5.006 0 9.078 4.072 9.078 9.078 0 5.006-4.072 9.078-9.078 9.078z" fill="#fff"/></svg>