<svg width="822" height="718" fill="none" xmlns="http://www.w3.org/2000/svg"><path d="M0 216.5a1.5 1.5 0 11-3 0 1.5 1.5 0 013 0zm20 0a1.5 1.5 0 11-3 0 1.5 1.5 0 013 0zm-20 20a1.5 1.5 0 11-3 0 1.5 1.5 0 013 0zm20 0a1.5 1.5 0 11-3 0 1.5 1.5 0 013 0zm-20 20a1.5 1.5 0 11-3 0 1.5 1.5 0 013 0zm20 0a1.5 1.5 0 11-3 0 1.5 1.5 0 013 0zm-20 20a1.5 1.5 0 11-3 0 1.5 1.5 0 013 0zm20 0a1.5 1.5 0 11-3 0 1.5 1.5 0 013 0zm-20 20a1.5 1.5 0 11-3 0 1.5 1.5 0 013 0zm20 0a1.5 1.5 0 11-3 0 1.5 1.5 0 013 0zm-20 20a1.5 1.5 0 11-3 0 1.5 1.5 0 013 0zm20 0a1.5 1.5 0 11-3 0 1.5 1.5 0 013 0zm-20 20a1.5 1.5 0 11-3 0 1.5 1.5 0 013 0zm20 0a1.5 1.5 0 11-3 0 1.5 1.5 0 013 0zm-20 20a1.5 1.5 0 11-3 0 1.5 1.5 0 013 0zm20 0a1.5 1.5 0 11-3 0 1.5 1.5 0 013 0zm-20 20a1.5 1.5 0 11-3 0 1.5 1.5 0 013 0zm20 0a1.5 1.5 0 11-3 0 1.5 1.5 0 013 0zm-20 20a1.5 1.5 0 11-3 0 1.5 1.5 0 013 0zm20 0a1.5 1.5 0 11-3 0 1.5 1.5 0 013 0zm-20 20a1.5 1.5 0 11-3 0 1.5 1.5 0 013 0zm20 0a1.5 1.5 0 11-3 0 1.5 1.5 0 013 0zm-20 20a1.5 1.5 0 11-3 0 1.5 1.5 0 013 0zm20 0a1.5 1.5 0 11-3 0 1.5 1.5 0 013 0zm20-220a1.5 1.5 0 11-3 0 1.5 1.5 0 013 0zm20 0a1.5 1.5 0 11-3 0 1.5 1.5 0 013 0zm20 0a1.5 1.5 0 11-3 0 1.5 1.5 0 013 0zm20 0a1.5 1.5 0 11-3 0 1.5 1.5 0 013 0zm20 0a1.5 1.5 0 11-3.001-.001 1.5 1.5 0 013.001.001zm20 0a1.5 1.5 0 11-3.001-.001 1.5 1.5 0 013.001.001zm20 0a1.5 1.5 0 11-3.001-.001 1.5 1.5 0 013.001.001zm20 0a1.5 1.5 0 11-3.001-.001 1.5 1.5 0 013.001.001zm20 0a1.5 1.5 0 11-3.001-.001 1.5 1.5 0 013.001.001zm20 0a1.5 1.5 0 11-3.001-.001 1.5 1.5 0 013.001.001zm20 0a1.5 1.5 0 11-3.001-.001 1.5 1.5 0 013.001.001zm20 0a1.5 1.5 0 11-3.001-.001 1.5 1.5 0 013.001.001zm20 0a1.5 1.5 0 11-3.001-.001 1.5 1.5 0 013.001.001zm20 0a1.5 1.5 0 11-3.001-.001 1.5 1.5 0 013.001.001zm20 0a1.5 1.5 0 11-3.001-.001 1.5 1.5 0 013.001.001zm-280 20a1.5 1.5 0 11-3 0 1.5 1.5 0 013 0zm20 0a1.5 1.5 0 11-3 0 1.5 1.5 0 013 0zm20 0a1.5 1.5 0 11-3 0 1.5 1.5 0 013 0zm20 0a1.5 1.5 0 11-3 0 1.5 1.5 0 013 0zm20 0a1.5 1.5 0 11-3.001-.001 1.5 1.5 0 013.001.001zm20 0a1.5 1.5 0 11-3.001-.001 1.5 1.5 0 013.001.001zm20 0a1.5 1.5 0 11-3.001-.001 1.5 1.5 0 013.001.001zm20 0a1.5 1.5 0 11-3.001-.001 1.5 1.5 0 013.001.001zm20 0a1.5 1.5 0 11-3.001-.001 1.5 1.5 0 013.001.001zm20 0a1.5 1.5 0 11-3.001-.001 1.5 1.5 0 013.001.001zm20 0a1.5 1.5 0 11-3.001-.001 1.5 1.5 0 013.001.001zm20 0a1.5 1.5 0 11-3.001-.001 1.5 1.5 0 013.001.001zm20 0a1.5 1.5 0 11-3.001-.001 1.5 1.5 0 013.001.001zm20 0a1.5 1.5 0 11-3.001-.001 1.5 1.5 0 013.001.001zm20 0a1.5 1.5 0 11-3.001-.001 1.5 1.5 0 013.001.001zm-280 20a1.5 1.5 0 11-3 0 1.5 1.5 0 013 0zm20 0a1.5 1.5 0 11-3 0 1.5 1.5 0 013 0zm20 0a1.5 1.5 0 11-3 0 1.5 1.5 0 013 0zm20 0a1.5 1.5 0 11-3 0 1.5 1.5 0 013 0zm20 0a1.5 1.5 0 11-3.001-.001 1.5 1.5 0 013.001.001zm20 0a1.5 1.5 0 11-3.001-.001 1.5 1.5 0 013.001.001zm20 0a1.5 1.5 0 11-3.001-.001 1.5 1.5 0 013.001.001zm20 0a1.5 1.5 0 11-3.001-.001 1.5 1.5 0 013.001.001zm20 0a1.5 1.5 0 11-3.001-.001 1.5 1.5 0 013.001.001zm20 0a1.5 1.5 0 11-3.001-.001 1.5 1.5 0 013.001.001zm20 0a1.5 1.5 0 11-3.001-.001 1.5 1.5 0 013.001.001zm20 0a1.5 1.5 0 11-3.001-.001 1.5 1.5 0 013.001.001zm20 0a1.5 1.5 0 11-3.001-.001 1.5 1.5 0 013.001.001zm20 0a1.5 1.5 0 11-3.001-.001 1.5 1.5 0 013.001.001zm20 0a1.5 1.5 0 11-3.001-.001 1.5 1.5 0 013.001.001zm-280 20a1.5 1.5 0 11-3 0 1.5 1.5 0 013 0zm20 0a1.5 1.5 0 11-3 0 1.5 1.5 0 013 0zm20 0a1.5 1.5 0 11-3 0 1.5 1.5 0 013 0zm20 0a1.5 1.5 0 11-3 0 1.5 1.5 0 013 0zm20 0a1.5 1.5 0 11-3.001-.001 1.5 1.5 0 013.001.001zm20 0a1.5 1.5 0 11-3.001-.001 1.5 1.5 0 013.001.001zm20 0a1.5 1.5 0 11-3.001-.001 1.5 1.5 0 013.001.001zm20 0a1.5 1.5 0 11-3.001-.001 1.5 1.5 0 013.001.001zm20 0a1.5 1.5 0 11-3.001-.001 1.5 1.5 0 013.001.001zm20 0a1.5 1.5 0 11-3.001-.001 1.5 1.5 0 013.001.001zm20 0a1.5 1.5 0 11-3.001-.001 1.5 1.5 0 013.001.001zm20 0a1.5 1.5 0 11-3.001-.001 1.5 1.5 0 013.001.001zm20 0a1.5 1.5 0 11-3.001-.001 1.5 1.5 0 013.001.001zm20 0a1.5 1.5 0 11-3.001-.001 1.5 1.5 0 013.001.001zm20 0a1.5 1.5 0 11-3.001-.001 1.5 1.5 0 013.001.001zm-280 20a1.5 1.5 0 11-3 0 1.5 1.5 0 013 0zm20 0a1.5 1.5 0 11-3 0 1.5 1.5 0 013 0zm20 0a1.5 1.5 0 11-3 0 1.5 1.5 0 013 0zm20 0a1.5 1.5 0 11-3 0 1.5 1.5 0 013 0zm20 0a1.5 1.5 0 11-3.001-.001 1.5 1.5 0 013.001.001zm20 0a1.5 1.5 0 11-3.001-.001 1.5 1.5 0 013.001.001zm20 0a1.5 1.5 0 11-3.001-.001 1.5 1.5 0 013.001.001zm20 0a1.5 1.5 0 11-3.001-.001 1.5 1.5 0 013.001.001zm20 0a1.5 1.5 0 11-3.001-.001 1.5 1.5 0 013.001.001zm20 0a1.5 1.5 0 11-3.001-.001 1.5 1.5 0 013.001.001zm20 0a1.5 1.5 0 11-3.001-.001 1.5 1.5 0 013.001.001zm20 0a1.5 1.5 0 11-3.001-.001 1.5 1.5 0 013.001.001zm20 0a1.5 1.5 0 11-3.001-.001 1.5 1.5 0 013.001.001zm20 0a1.5 1.5 0 11-3.001-.001 1.5 1.5 0 013.001.001zm20 0a1.5 1.5 0 11-3.001-.001 1.5 1.5 0 013.001.001zm-280 20a1.5 1.5 0 11-3 0 1.5 1.5 0 013 0zm20 0a1.5 1.5 0 11-3 0 1.5 1.5 0 013 0zm20 0a1.5 1.5 0 11-3 0 1.5 1.5 0 013 0zm20 0a1.5 1.5 0 11-3 0 1.5 1.5 0 013 0zm20 0a1.5 1.5 0 11-3.001-.001 1.5 1.5 0 013.001.001zm20 0a1.5 1.5 0 11-3.001-.001 1.5 1.5 0 013.001.001zm20 0a1.5 1.5 0 11-3.001-.001 1.5 1.5 0 013.001.001zm20 0a1.5 1.5 0 11-3.001-.001 1.5 1.5 0 013.001.001zm20 0a1.5 1.5 0 11-3.001-.001 1.5 1.5 0 013.001.001zm20 0a1.5 1.5 0 11-3.001-.001 1.5 1.5 0 013.001.001zm20 0a1.5 1.5 0 11-3.001-.001 1.5 1.5 0 013.001.001zm20 0a1.5 1.5 0 11-3.001-.001 1.5 1.5 0 013.001.001zm20 0a1.5 1.5 0 11-3.001-.001 1.5 1.5 0 013.001.001zm20 0a1.5 1.5 0 11-3.001-.001 1.5 1.5 0 013.001.001zm20 0a1.5 1.5 0 11-3.001-.001 1.5 1.5 0 013.001.001zm-280 20a1.5 1.5 0 11-3 0 1.5 1.5 0 013 0zm20 0a1.5 1.5 0 11-3 0 1.5 1.5 0 013 0zm20 0a1.5 1.5 0 11-3 0 1.5 1.5 0 013 0zm20 0a1.5 1.5 0 11-3 0 1.5 1.5 0 013 0zm20 0a1.5 1.5 0 11-3.001-.001 1.5 1.5 0 013.001.001zm20 0a1.5 1.5 0 11-3.001-.001 1.5 1.5 0 013.001.001zm20 0a1.5 1.5 0 11-3.001-.001 1.5 1.5 0 013.001.001zm20 0a1.5 1.5 0 11-3.001-.001 1.5 1.5 0 013.001.001zm20 0a1.5 1.5 0 11-3.001-.001 1.5 1.5 0 013.001.001zm20 0a1.5 1.5 0 11-3.001-.001 1.5 1.5 0 013.001.001zm20 0a1.5 1.5 0 11-3.001-.001 1.5 1.5 0 013.001.001zm20 0a1.5 1.5 0 11-3.001-.001 1.5 1.5 0 013.001.001zm20 0a1.5 1.5 0 11-3.001-.001 1.5 1.5 0 013.001.001zm20 0a1.5 1.5 0 11-3.001-.001 1.5 1.5 0 013.001.001zm20 0a1.5 1.5 0 11-3.001-.001 1.5 1.5 0 013.001.001zm-280 20a1.5 1.5 0 11-3 0 1.5 1.5 0 013 0zm20 0a1.5 1.5 0 11-3 0 1.5 1.5 0 013 0zm20 0a1.5 1.5 0 11-3 0 1.5 1.5 0 013 0zm20 0a1.5 1.5 0 11-3 0 1.5 1.5 0 013 0zm20 0a1.5 1.5 0 11-3.001-.001 1.5 1.5 0 013.001.001zm20 0a1.5 1.5 0 11-3.001-.001 1.5 1.5 0 013.001.001zm20 0a1.5 1.5 0 11-3.001-.001 1.5 1.5 0 013.001.001zm20 0a1.5 1.5 0 11-3.001-.001 1.5 1.5 0 013.001.001zm20 0a1.5 1.5 0 11-3.001-.001 1.5 1.5 0 013.001.001zm20 0a1.5 1.5 0 11-3.001-.001 1.5 1.5 0 013.001.001zm20 0a1.5 1.5 0 11-3.001-.001 1.5 1.5 0 013.001.001zm20 0a1.5 1.5 0 11-3.001-.001 1.5 1.5 0 013.001.001zm20 0a1.5 1.5 0 11-3.001-.001 1.5 1.5 0 013.001.001zm20 0a1.5 1.5 0 11-3.001-.001 1.5 1.5 0 013.001.001zm20 0a1.5 1.5 0 11-3.001-.001 1.5 1.5 0 013.001.001zm-280 20a1.5 1.5 0 11-3 0 1.5 1.5 0 013 0zm20 0a1.5 1.5 0 11-3 0 1.5 1.5 0 013 0zm20 0a1.5 1.5 0 11-3 0 1.5 1.5 0 013 0zm20 0a1.5 1.5 0 11-3 0 1.5 1.5 0 013 0zm20 0a1.5 1.5 0 11-3.001-.001 1.5 1.5 0 013.001.001zm20 0a1.5 1.5 0 11-3.001-.001 1.5 1.5 0 013.001.001zm20 0a1.5 1.5 0 11-3.001-.001 1.5 1.5 0 013.001.001zm20 0a1.5 1.5 0 11-3.001-.001 1.5 1.5 0 013.001.001zm20 0a1.5 1.5 0 11-3.001-.001 1.5 1.5 0 013.001.001zm20 0a1.5 1.5 0 11-3.001-.001 1.5 1.5 0 013.001.001zm20 0a1.5 1.5 0 11-3.001-.001 1.5 1.5 0 013.001.001zm20 0a1.5 1.5 0 11-3.001-.001 1.5 1.5 0 013.001.001zm20 0a1.5 1.5 0 11-3.001-.001 1.5 1.5 0 013.001.001zm20 0a1.5 1.5 0 11-3.001-.001 1.5 1.5 0 013.001.001zm20 0a1.5 1.5 0 11-3.001-.001 1.5 1.5 0 013.001.001zm-280 20a1.5 1.5 0 11-3 0 1.5 1.5 0 013 0zm20 0a1.5 1.5 0 11-3 0 1.5 1.5 0 013 0zm20 0a1.5 1.5 0 11-3 0 1.5 1.5 0 013 0zm20 0a1.5 1.5 0 11-3 0 1.5 1.5 0 013 0zm20 0a1.5 1.5 0 11-3.001-.001 1.5 1.5 0 013.001.001zm20 0a1.5 1.5 0 11-3.001-.001 1.5 1.5 0 013.001.001zm20 0a1.5 1.5 0 11-3.001-.001 1.5 1.5 0 013.001.001zm20 0a1.5 1.5 0 11-3.001-.001 1.5 1.5 0 013.001.001zm20 0a1.5 1.5 0 11-3.001-.001 1.5 1.5 0 013.001.001zm20 0a1.5 1.5 0 11-3.001-.001 1.5 1.5 0 013.001.001zm20 0a1.5 1.5 0 11-3.001-.001 1.5 1.5 0 013.001.001zm20 0a1.5 1.5 0 11-3.001-.001 1.5 1.5 0 013.001.001zm20 0a1.5 1.5 0 11-3.001-.001 1.5 1.5 0 013.001.001zm20 0a1.5 1.5 0 11-3.001-.001 1.5 1.5 0 013.001.001zm20 0a1.5 1.5 0 11-3.001-.001 1.5 1.5 0 013.001.001zm-280 20a1.5 1.5 0 11-3 0 1.5 1.5 0 013 0zm20 0a1.5 1.5 0 11-3 0 1.5 1.5 0 013 0zm20 0a1.5 1.5 0 11-3 0 1.5 1.5 0 013 0zm20 0a1.5 1.5 0 11-3 0 1.5 1.5 0 013 0zm20 0a1.5 1.5 0 11-3.001-.001 1.5 1.5 0 013.001.001zm20 0a1.5 1.5 0 11-3.001-.001 1.5 1.5 0 013.001.001zm20 0a1.5 1.5 0 11-3.001-.001 1.5 1.5 0 013.001.001zm20 0a1.5 1.5 0 11-3.001-.001 1.5 1.5 0 013.001.001zm20 0a1.5 1.5 0 11-3.001-.001 1.5 1.5 0 013.001.001zm20 0a1.5 1.5 0 11-3.001-.001 1.5 1.5 0 013.001.001zm20 0a1.5 1.5 0 11-3.001-.001 1.5 1.5 0 013.001.001zm20 0a1.5 1.5 0 11-3.001-.001 1.5 1.5 0 013.001.001zm20 0a1.5 1.5 0 11-3.001-.001 1.5 1.5 0 013.001.001zm20 0a1.5 1.5 0 11-3.001-.001 1.5 1.5 0 013.001.001zm20 0a1.5 1.5 0 11-3.001-.001 1.5 1.5 0 013.001.001zm-280 20a1.5 1.5 0 11-3 0 1.5 1.5 0 013 0zm20 0a1.5 1.5 0 11-3 0 1.5 1.5 0 013 0zm20 0a1.5 1.5 0 11-3 0 1.5 1.5 0 013 0zm20 0a1.5 1.5 0 11-3 0 1.5 1.5 0 013 0zm20 0a1.5 1.5 0 11-3.001-.001 1.5 1.5 0 013.001.001zm20 0a1.5 1.5 0 11-3.001-.001 1.5 1.5 0 013.001.001zm20 0a1.5 1.5 0 11-3.001-.001 1.5 1.5 0 013.001.001zm20 0a1.5 1.5 0 11-3.001-.001 1.5 1.5 0 013.001.001zm20 0a1.5 1.5 0 11-3.001-.001 1.5 1.5 0 013.001.001zm20 0a1.5 1.5 0 11-3.001-.001 1.5 1.5 0 013.001.001zm20 0a1.5 1.5 0 11-3.001-.001 1.5 1.5 0 013.001.001zm20 0a1.5 1.5 0 11-3.001-.001 1.5 1.5 0 013.001.001zm20 0a1.5 1.5 0 11-3.001-.001 1.5 1.5 0 013.001.001zm20 0a1.5 1.5 0 11-3.001-.001 1.5 1.5 0 013.001.001zm20 0a1.5 1.5 0 11-3.001-.001 1.5 1.5 0 013.001.001zm20-220a1.5 1.5 0 11-3.001-.001 1.5 1.5 0 013.001.001zm20 0a1.5 1.5 0 11-3.001-.001 1.5 1.5 0 013.001.001zm20 0a1.5 1.5 0 11-3.001-.001 1.5 1.5 0 013.001.001zm20 0a1.5 1.5 0 11-3.001-.001 1.5 1.5 0 013.001.001zm20 0a1.5 1.5 0 11-3.001-.001 1.5 1.5 0 013.001.001zm20 0a1.5 1.5 0 11-3.001-.001 1.5 1.5 0 013.001.001zm20 0a1.5 1.5 0 11-3.001-.001 1.5 1.5 0 013.001.001zm20 0a1.5 1.5 0 11-3.001-.001 1.5 1.5 0 013.001.001zm20 0a1.5 1.5 0 11-3.001-.001 1.5 1.5 0 013.001.001zm20 0a1.5 1.5 0 11-3.001-.001 1.5 1.5 0 013.001.001zm20 0a1.5 1.5 0 11-3.001-.001 1.5 1.5 0 013.001.001zm20 0a1.5 1.5 0 11-3.001-.001 1.5 1.5 0 013.001.001zm20 0a1.5 1.5 0 11-3.001-.001 1.5 1.5 0 013.001.001zm20 0a1.5 1.5 0 11-3.001-.001 1.5 1.5 0 013.001.001zm20 0a1.5 1.5 0 11-3.001-.001 1.5 1.5 0 013.001.001zm-280 20a1.5 1.5 0 11-3.001-.001 1.5 1.5 0 013.001.001zm20 0a1.5 1.5 0 11-3.001-.001 1.5 1.5 0 013.001.001zm20 0a1.5 1.5 0 11-3.001-.001 1.5 1.5 0 013.001.001zm20 0a1.5 1.5 0 11-3.001-.001 1.5 1.5 0 013.001.001zm20 0a1.5 1.5 0 11-3.001-.001 1.5 1.5 0 013.001.001zm20 0a1.5 1.5 0 11-3.001-.001 1.5 1.5 0 013.001.001zm20 0a1.5 1.5 0 11-3.001-.001 1.5 1.5 0 013.001.001zm20 0a1.5 1.5 0 11-3.001-.001 1.5 1.5 0 013.001.001zm20 0a1.5 1.5 0 11-3.001-.001 1.5 1.5 0 013.001.001zm20 0a1.5 1.5 0 11-3.001-.001 1.5 1.5 0 013.001.001zm20 0a1.5 1.5 0 11-3.001-.001 1.5 1.5 0 013.001.001zm20 0a1.5 1.5 0 11-3.001-.001 1.5 1.5 0 013.001.001zm20 0a1.5 1.5 0 11-3.001-.001 1.5 1.5 0 013.001.001zm20 0a1.5 1.5 0 11-3.001-.001 1.5 1.5 0 013.001.001zm20 0a1.5 1.5 0 11-3.001-.001 1.5 1.5 0 013.001.001zm-280 20a1.5 1.5 0 11-3.001-.001 1.5 1.5 0 013.001.001zm20 0a1.5 1.5 0 11-3.001-.001 1.5 1.5 0 013.001.001zm20 0a1.5 1.5 0 11-3.001-.001 1.5 1.5 0 013.001.001zm20 0a1.5 1.5 0 11-3.001-.001 1.5 1.5 0 013.001.001zm20 0a1.5 1.5 0 11-3.001-.001 1.5 1.5 0 013.001.001zm20 0a1.5 1.5 0 11-3.001-.001 1.5 1.5 0 013.001.001zm20 0a1.5 1.5 0 11-3.001-.001 1.5 1.5 0 013.001.001zm20 0a1.5 1.5 0 11-3.001-.001 1.5 1.5 0 013.001.001zm20 0a1.5 1.5 0 11-3.001-.001 1.5 1.5 0 013.001.001zm20 0a1.5 1.5 0 11-3.001-.001 1.5 1.5 0 013.001.001zm20 0a1.5 1.5 0 11-3.001-.001 1.5 1.5 0 013.001.001zm20 0a1.5 1.5 0 11-3.001-.001 1.5 1.5 0 013.001.001zm20 0a1.5 1.5 0 11-3.001-.001 1.5 1.5 0 013.001.001zm20 0a1.5 1.5 0 11-3.001-.001 1.5 1.5 0 013.001.001zm20 0a1.5 1.5 0 11-3.001-.001 1.5 1.5 0 013.001.001zm-280 20a1.5 1.5 0 11-3.001-.001 1.5 1.5 0 013.001.001zm20 0a1.5 1.5 0 11-3.001-.001 1.5 1.5 0 013.001.001zm20 0a1.5 1.5 0 11-3.001-.001 1.5 1.5 0 013.001.001zm20 0a1.5 1.5 0 11-3.001-.001 1.5 1.5 0 013.001.001zm20 0a1.5 1.5 0 11-3.001-.001 1.5 1.5 0 013.001.001zm20 0a1.5 1.5 0 11-3.001-.001 1.5 1.5 0 013.001.001zm20 0a1.5 1.5 0 11-3.001-.001 1.5 1.5 0 013.001.001zm20 0a1.5 1.5 0 11-3.001-.001 1.5 1.5 0 013.001.001zm20 0a1.5 1.5 0 11-3.001-.001 1.5 1.5 0 013.001.001zm20 0a1.5 1.5 0 11-3.001-.001 1.5 1.5 0 013.001.001zm20 0a1.5 1.5 0 11-3.001-.001 1.5 1.5 0 013.001.001zm20 0a1.5 1.5 0 11-3.001-.001 1.5 1.5 0 013.001.001zm20 0a1.5 1.5 0 11-3.001-.001 1.5 1.5 0 013.001.001zm20 0a1.5 1.5 0 11-3.001-.001 1.5 1.5 0 013.001.001zm20 0a1.5 1.5 0 11-3.001-.001 1.5 1.5 0 013.001.001zm-280 20a1.5 1.5 0 11-3.001-.001 1.5 1.5 0 013.001.001zm20 0a1.5 1.5 0 11-3.001-.001 1.5 1.5 0 013.001.001zm20 0a1.5 1.5 0 11-3.001-.001 1.5 1.5 0 013.001.001zm20 0a1.5 1.5 0 11-3.001-.001 1.5 1.5 0 013.001.001zm20 0a1.5 1.5 0 11-3.001-.001 1.5 1.5 0 013.001.001zm20 0a1.5 1.5 0 11-3.001-.001 1.5 1.5 0 013.001.001zm20 0a1.5 1.5 0 11-3.001-.001 1.5 1.5 0 013.001.001zm20 0a1.5 1.5 0 11-3.001-.001 1.5 1.5 0 013.001.001zm20 0a1.5 1.5 0 11-3.001-.001 1.5 1.5 0 013.001.001zm20 0a1.5 1.5 0 11-3.001-.001 1.5 1.5 0 013.001.001zm20 0a1.5 1.5 0 11-3.001-.001 1.5 1.5 0 013.001.001zm20 0a1.5 1.5 0 11-3.001-.001 1.5 1.5 0 013.001.001zm20 0a1.5 1.5 0 11-3.001-.001 1.5 1.5 0 013.001.001zm20 0a1.5 1.5 0 11-3.001-.001 1.5 1.5 0 013.001.001zm20 0a1.5 1.5 0 11-3.001-.001 1.5 1.5 0 013.001.001zm-280 20a1.5 1.5 0 11-3.001-.001 1.5 1.5 0 013.001.001zm20 0a1.5 1.5 0 11-3.001-.001 1.5 1.5 0 013.001.001zm20 0a1.5 1.5 0 11-3.001-.001 1.5 1.5 0 013.001.001zm20 0a1.5 1.5 0 11-3.001-.001 1.5 1.5 0 013.001.001zm20 0a1.5 1.5 0 11-3.001-.001 1.5 1.5 0 013.001.001zm20 0a1.5 1.5 0 11-3.001-.001 1.5 1.5 0 013.001.001zm20 0a1.5 1.5 0 11-3.001-.001 1.5 1.5 0 013.001.001zm20 0a1.5 1.5 0 11-3.001-.001 1.5 1.5 0 013.001.001zm20 0a1.5 1.5 0 11-3.001-.001 1.5 1.5 0 013.001.001zm20 0a1.5 1.5 0 11-3.001-.001 1.5 1.5 0 013.001.001zm20 0a1.5 1.5 0 11-3.001-.001 1.5 1.5 0 013.001.001zm20 0a1.5 1.5 0 11-3.001-.001 1.5 1.5 0 013.001.001zm20 0a1.5 1.5 0 11-3.001-.001 1.5 1.5 0 013.001.001zm20 0a1.5 1.5 0 11-3.001-.001 1.5 1.5 0 013.001.001zm20 0a1.5 1.5 0 11-3.001-.001 1.5 1.5 0 013.001.001zm-280 20a1.5 1.5 0 11-3.001-.001 1.5 1.5 0 013.001.001zm20 0a1.5 1.5 0 11-3.001-.001 1.5 1.5 0 013.001.001zm20 0a1.5 1.5 0 11-3.001-.001 1.5 1.5 0 013.001.001zm20 0a1.5 1.5 0 11-3.001-.001 1.5 1.5 0 013.001.001zm20 0a1.5 1.5 0 11-3.001-.001 1.5 1.5 0 013.001.001zm20 0a1.5 1.5 0 11-3.001-.001 1.5 1.5 0 013.001.001zm20 0a1.5 1.5 0 11-3.001-.001 1.5 1.5 0 013.001.001zm20 0a1.5 1.5 0 11-3.001-.001 1.5 1.5 0 013.001.001zm20 0a1.5 1.5 0 11-3.001-.001 1.5 1.5 0 013.001.001zm20 0a1.5 1.5 0 11-3.001-.001 1.5 1.5 0 013.001.001zm20 0a1.5 1.5 0 11-3.001-.001 1.5 1.5 0 013.001.001zm20 0a1.5 1.5 0 11-3.001-.001 1.5 1.5 0 013.001.001zm20 0a1.5 1.5 0 11-3.001-.001 1.5 1.5 0 013.001.001zm20 0a1.5 1.5 0 11-3.001-.001 1.5 1.5 0 013.001.001zm20 0a1.5 1.5 0 11-3.001-.001 1.5 1.5 0 013.001.001zm-280 20a1.5 1.5 0 11-3.001-.001 1.5 1.5 0 013.001.001zm20 0a1.5 1.5 0 11-3.001-.001 1.5 1.5 0 013.001.001zm20 0a1.5 1.5 0 11-3.001-.001 1.5 1.5 0 013.001.001zm20 0a1.5 1.5 0 11-3.001-.001 1.5 1.5 0 013.001.001zm20 0a1.5 1.5 0 11-3.001-.001 1.5 1.5 0 013.001.001zm20 0a1.5 1.5 0 11-3.001-.001 1.5 1.5 0 013.001.001zm20 0a1.5 1.5 0 11-3.001-.001 1.5 1.5 0 013.001.001zm20 0a1.5 1.5 0 11-3.001-.001 1.5 1.5 0 013.001.001zm20 0a1.5 1.5 0 11-3.001-.001 1.5 1.5 0 013.001.001zm20 0a1.5 1.5 0 11-3.001-.001 1.5 1.5 0 013.001.001zm20 0a1.5 1.5 0 11-3.001-.001 1.5 1.5 0 013.001.001zm20 0a1.5 1.5 0 11-3.001-.001 1.5 1.5 0 013.001.001zm20 0a1.5 1.5 0 11-3.001-.001 1.5 1.5 0 013.001.001zm20 0a1.5 1.5 0 11-3.001-.001 1.5 1.5 0 013.001.001zm20 0a1.5 1.5 0 11-3.001-.001 1.5 1.5 0 013.001.001zm-280 20a1.5 1.5 0 11-3.001-.001 1.5 1.5 0 013.001.001zm20 0a1.5 1.5 0 11-3.001-.001 1.5 1.5 0 013.001.001zm20 0a1.5 1.5 0 11-3.001-.001 1.5 1.5 0 013.001.001zm20 0a1.5 1.5 0 11-3.001-.001 1.5 1.5 0 013.001.001zm20 0a1.5 1.5 0 11-3.001-.001 1.5 1.5 0 013.001.001zm20 0a1.5 1.5 0 11-3.001-.001 1.5 1.5 0 013.001.001zm20 0a1.5 1.5 0 11-3.001-.001 1.5 1.5 0 013.001.001zm20 0a1.5 1.5 0 11-3.001-.001 1.5 1.5 0 013.001.001zm20 0a1.5 1.5 0 11-3.001-.001 1.5 1.5 0 013.001.001zm20 0a1.5 1.5 0 11-3.001-.001 1.5 1.5 0 013.001.001zm20 0a1.5 1.5 0 11-3.001-.001 1.5 1.5 0 013.001.001zm20 0a1.5 1.5 0 11-3.001-.001 1.5 1.5 0 013.001.001zm20 0a1.5 1.5 0 11-3.001-.001 1.5 1.5 0 013.001.001zm20 0a1.5 1.5 0 11-3.001-.001 1.5 1.5 0 013.001.001zm20 0a1.5 1.5 0 11-3.001-.001 1.5 1.5 0 013.001.001zm-280 20a1.5 1.5 0 11-3.001-.001 1.5 1.5 0 013.001.001zm20 0a1.5 1.5 0 11-3.001-.001 1.5 1.5 0 013.001.001zm20 0a1.5 1.5 0 11-3.001-.001 1.5 1.5 0 013.001.001zm20 0a1.5 1.5 0 11-3.001-.001 1.5 1.5 0 013.001.001zm20 0a1.5 1.5 0 11-3.001-.001 1.5 1.5 0 013.001.001zm20 0a1.5 1.5 0 11-3.001-.001 1.5 1.5 0 013.001.001zm20 0a1.5 1.5 0 11-3.001-.001 1.5 1.5 0 013.001.001zm20 0a1.5 1.5 0 11-3.001-.001 1.5 1.5 0 013.001.001zm20 0a1.5 1.5 0 11-3.001-.001 1.5 1.5 0 013.001.001zm20 0a1.5 1.5 0 11-3.001-.001 1.5 1.5 0 013.001.001zm20 0a1.5 1.5 0 11-3.001-.001 1.5 1.5 0 013.001.001zm20 0a1.5 1.5 0 11-3.001-.001 1.5 1.5 0 013.001.001zm20 0a1.5 1.5 0 11-3.001-.001 1.5 1.5 0 013.001.001zm20 0a1.5 1.5 0 11-3.001-.001 1.5 1.5 0 013.001.001zm20 0a1.5 1.5 0 11-3.001-.001 1.5 1.5 0 013.001.001zm-280 20a1.5 1.5 0 11-3.001-.001 1.5 1.5 0 013.001.001zm20 0a1.5 1.5 0 11-3.001-.001 1.5 1.5 0 013.001.001zm20 0a1.5 1.5 0 11-3.001-.001 1.5 1.5 0 013.001.001zm20 0a1.5 1.5 0 11-3.001-.001 1.5 1.5 0 013.001.001zm20 0a1.5 1.5 0 11-3.001-.001 1.5 1.5 0 013.001.001zm20 0a1.5 1.5 0 11-3.001-.001 1.5 1.5 0 013.001.001zm20 0a1.5 1.5 0 11-3.001-.001 1.5 1.5 0 013.001.001zm20 0a1.5 1.5 0 11-3.001-.001 1.5 1.5 0 013.001.001zm20 0a1.5 1.5 0 11-3.001-.001 1.5 1.5 0 013.001.001zm20 0a1.5 1.5 0 11-3.001-.001 1.5 1.5 0 013.001.001zm20 0a1.5 1.5 0 11-3.001-.001 1.5 1.5 0 013.001.001zm20 0a1.5 1.5 0 11-3.001-.001 1.5 1.5 0 013.001.001zm20 0a1.5 1.5 0 11-3.001-.001 1.5 1.5 0 013.001.001zm20 0a1.5 1.5 0 11-3.001-.001 1.5 1.5 0 013.001.001zm20 0a1.5 1.5 0 11-3.001-.001 1.5 1.5 0 013.001.001zm-280 20a1.5 1.5 0 11-3.001-.001 1.5 1.5 0 013.001.001zm20 0a1.5 1.5 0 11-3.001-.001 1.5 1.5 0 013.001.001zm20 0a1.5 1.5 0 11-3.001-.001 1.5 1.5 0 013.001.001zm20 0a1.5 1.5 0 11-3.001-.001 1.5 1.5 0 013.001.001zm20 0a1.5 1.5 0 11-3.001-.001 1.5 1.5 0 013.001.001zm20 0a1.5 1.5 0 11-3.001-.001 1.5 1.5 0 013.001.001zm20 0a1.5 1.5 0 11-3.001-.001 1.5 1.5 0 013.001.001zm20 0a1.5 1.5 0 11-3.001-.001 1.5 1.5 0 013.001.001zm20 0a1.5 1.5 0 11-3.001-.001 1.5 1.5 0 013.001.001zm20 0a1.5 1.5 0 11-3.001-.001 1.5 1.5 0 013.001.001zm20 0a1.5 1.5 0 11-3.001-.001 1.5 1.5 0 013.001.001zm20 0a1.5 1.5 0 11-3.001-.001 1.5 1.5 0 013.001.001zm20 0a1.5 1.5 0 11-3.001-.001 1.5 1.5 0 013.001.001zm20 0a1.5 1.5 0 11-3.001-.001 1.5 1.5 0 013.001.001zm20 0a1.5 1.5 0 11-3.001-.001 1.5 1.5 0 013.001.001zm20-220a1.5 1.5 0 11-3.001-.001 1.5 1.5 0 013.001.001zm20 0a1.5 1.5 0 11-3.001-.001 1.5 1.5 0 013.001.001zm20 0a1.5 1.5 0 11-3.001-.001 1.5 1.5 0 013.001.001zm20 0a1.5 1.5 0 11-3.001-.001 1.5 1.5 0 013.001.001zm20 0a1.5 1.5 0 11-3.001-.001 1.5 1.5 0 013.001.001zm20 0a1.5 1.5 0 11-3.001-.001 1.5 1.5 0 013.001.001zm20 0a1.5 1.5 0 11-3.001-.001 1.5 1.5 0 013.001.001zm20 0a1.5 1.5 0 11-3.001-.001 1.5 1.5 0 013.001.001zm20 0a1.5 1.5 0 11-3.001-.001 1.5 1.5 0 013.001.001zm-160 20a1.5 1.5 0 11-3.001-.001 1.5 1.5 0 013.001.001zm20 0a1.5 1.5 0 11-3.001-.001 1.5 1.5 0 013.001.001zm20 0a1.5 1.5 0 11-3.001-.001 1.5 1.5 0 013.001.001zm20 0a1.5 1.5 0 11-3.001-.001 1.5 1.5 0 013.001.001zm20 0a1.5 1.5 0 11-3.001-.001 1.5 1.5 0 013.001.001zm20 0a1.5 1.5 0 11-3.001-.001 1.5 1.5 0 013.001.001zm20 0a1.5 1.5 0 11-3.001-.001 1.5 1.5 0 013.001.001zm20 0a1.5 1.5 0 11-3.001-.001 1.5 1.5 0 013.001.001zm20 0a1.5 1.5 0 11-3.001-.001 1.5 1.5 0 013.001.001zm-160 20a1.5 1.5 0 11-3.001-.001 1.5 1.5 0 013.001.001zm20 0a1.5 1.5 0 11-3.001-.001 1.5 1.5 0 013.001.001zm20 0a1.5 1.5 0 11-3.001-.001 1.5 1.5 0 013.001.001zm20 0a1.5 1.5 0 11-3.001-.001 1.5 1.5 0 013.001.001zm20 0a1.5 1.5 0 11-3.001-.001 1.5 1.5 0 013.001.001zm20 0a1.5 1.5 0 11-3.001-.001 1.5 1.5 0 013.001.001zm20 0a1.5 1.5 0 11-3.001-.001 1.5 1.5 0 013.001.001zm20 0a1.5 1.5 0 11-3.001-.001 1.5 1.5 0 013.001.001zm20 0a1.5 1.5 0 11-3.001-.001 1.5 1.5 0 013.001.001zm-160 20a1.5 1.5 0 11-3.001-.001 1.5 1.5 0 013.001.001zm20 0a1.5 1.5 0 11-3.001-.001 1.5 1.5 0 013.001.001zm20 0a1.5 1.5 0 11-3.001-.001 1.5 1.5 0 013.001.001zm20 0a1.5 1.5 0 11-3.001-.001 1.5 1.5 0 013.001.001zm20 0a1.5 1.5 0 11-3.001-.001 1.5 1.5 0 013.001.001zm20 0a1.5 1.5 0 11-3.001-.001 1.5 1.5 0 013.001.001zm20 0a1.5 1.5 0 11-3.001-.001 1.5 1.5 0 013.001.001zm20 0a1.5 1.5 0 11-3.001-.001 1.5 1.5 0 013.001.001zm20 0a1.5 1.5 0 11-3.001-.001 1.5 1.5 0 013.001.001zm-160 20a1.5 1.5 0 11-3.001-.001 1.5 1.5 0 013.001.001zm20 0a1.5 1.5 0 11-3.001-.001 1.5 1.5 0 013.001.001zm20 0a1.5 1.5 0 11-3.001-.001 1.5 1.5 0 013.001.001zm20 0a1.5 1.5 0 11-3.001-.001 1.5 1.5 0 013.001.001zm20 0a1.5 1.5 0 11-3.001-.001 1.5 1.5 0 013.001.001zm20 0a1.5 1.5 0 11-3.001-.001 1.5 1.5 0 013.001.001zm20 0a1.5 1.5 0 11-3.001-.001 1.5 1.5 0 013.001.001zm20 0a1.5 1.5 0 11-3.001-.001 1.5 1.5 0 013.001.001zm20 0a1.5 1.5 0 11-3.001-.001 1.5 1.5 0 013.001.001zm-160 20a1.5 1.5 0 11-3.001-.001 1.5 1.5 0 013.001.001zm20 0a1.5 1.5 0 11-3.001-.001 1.5 1.5 0 013.001.001zm20 0a1.5 1.5 0 11-3.001-.001 1.5 1.5 0 013.001.001zm20 0a1.5 1.5 0 11-3.001-.001 1.5 1.5 0 013.001.001zm20 0a1.5 1.5 0 11-3.001-.001 1.5 1.5 0 013.001.001zm20 0a1.5 1.5 0 11-3.001-.001 1.5 1.5 0 013.001.001zm20 0a1.5 1.5 0 11-3.001-.001 1.5 1.5 0 013.001.001zm20 0a1.5 1.5 0 11-3.001-.001 1.5 1.5 0 013.001.001zm20 0a1.5 1.5 0 11-3.001-.001 1.5 1.5 0 013.001.001zm-160 20a1.5 1.5 0 11-3.001-.001 1.5 1.5 0 013.001.001zm20 0a1.5 1.5 0 11-3.001-.001 1.5 1.5 0 013.001.001zm20 0a1.5 1.5 0 11-3.001-.001 1.5 1.5 0 013.001.001zm20 0a1.5 1.5 0 11-3.001-.001 1.5 1.5 0 013.001.001zm20 0a1.5 1.5 0 11-3.001-.001 1.5 1.5 0 013.001.001zm20 0a1.5 1.5 0 11-3.001-.001 1.5 1.5 0 013.001.001zm20 0a1.5 1.5 0 11-3.001-.001 1.5 1.5 0 013.001.001zm20 0a1.5 1.5 0 11-3.001-.001 1.5 1.5 0 013.001.001zm20 0a1.5 1.5 0 11-3.001-.001 1.5 1.5 0 013.001.001zm-160 20a1.5 1.5 0 11-3.001-.001 1.5 1.5 0 013.001.001zm20 0a1.5 1.5 0 11-3.001-.001 1.5 1.5 0 013.001.001zm20 0a1.5 1.5 0 11-3.001-.001 1.5 1.5 0 013.001.001zm20 0a1.5 1.5 0 11-3.001-.001 1.5 1.5 0 013.001.001zm20 0a1.5 1.5 0 11-3.001-.001 1.5 1.5 0 013.001.001zm20 0a1.5 1.5 0 11-3.001-.001 1.5 1.5 0 013.001.001zm20 0a1.5 1.5 0 11-3.001-.001 1.5 1.5 0 013.001.001zm20 0a1.5 1.5 0 11-3.001-.001 1.5 1.5 0 013.001.001zm20 0a1.5 1.5 0 11-3.001-.001 1.5 1.5 0 013.001.001zm-160 20a1.5 1.5 0 11-3.001-.001 1.5 1.5 0 013.001.001zm20 0a1.5 1.5 0 11-3.001-.001 1.5 1.5 0 013.001.001zm20 0a1.5 1.5 0 11-3.001-.001 1.5 1.5 0 013.001.001zm20 0a1.5 1.5 0 11-3.001-.001 1.5 1.5 0 013.001.001zm20 0a1.5 1.5 0 11-3.001-.001 1.5 1.5 0 013.001.001zm20 0a1.5 1.5 0 11-3.001-.001 1.5 1.5 0 013.001.001zm20 0a1.5 1.5 0 11-3.001-.001 1.5 1.5 0 013.001.001zm20 0a1.5 1.5 0 11-3.001-.001 1.5 1.5 0 013.001.001zm20 0a1.5 1.5 0 11-3.001-.001 1.5 1.5 0 013.001.001zm-160 20a1.5 1.5 0 11-3.001-.001 1.5 1.5 0 013.001.001zm20 0a1.5 1.5 0 11-3.001-.001 1.5 1.5 0 013.001.001zm20 0a1.5 1.5 0 11-3.001-.001 1.5 1.5 0 013.001.001zm20 0a1.5 1.5 0 11-3.001-.001 1.5 1.5 0 013.001.001zm20 0a1.5 1.5 0 11-3.001-.001 1.5 1.5 0 013.001.001zm20 0a1.5 1.5 0 11-3.001-.001 1.5 1.5 0 013.001.001zm20 0a1.5 1.5 0 11-3.001-.001 1.5 1.5 0 013.001.001zm20 0a1.5 1.5 0 11-3.001-.001 1.5 1.5 0 013.001.001zm20 0a1.5 1.5 0 11-3.001-.001 1.5 1.5 0 013.001.001zm-160 20a1.5 1.5 0 11-3.001-.001 1.5 1.5 0 013.001.001zm20 0a1.5 1.5 0 11-3.001-.001 1.5 1.5 0 013.001.001zm20 0a1.5 1.5 0 11-3.001-.001 1.5 1.5 0 013.001.001zm20 0a1.5 1.5 0 11-3.001-.001 1.5 1.5 0 013.001.001zm20 0a1.5 1.5 0 11-3.001-.001 1.5 1.5 0 013.001.001zm20 0a1.5 1.5 0 11-3.001-.001 1.5 1.5 0 013.001.001zm20 0a1.5 1.5 0 11-3.001-.001 1.5 1.5 0 013.001.001zm20 0a1.5 1.5 0 11-3.001-.001 1.5 1.5 0 013.001.001zm20 0a1.5 1.5 0 11-3.001-.001 1.5 1.5 0 013.001.001zm-160 20a1.5 1.5 0 11-3.001-.001 1.5 1.5 0 013.001.001zm20 0a1.5 1.5 0 11-3.001-.001 1.5 1.5 0 013.001.001zm20 0a1.5 1.5 0 11-3.001-.001 1.5 1.5 0 013.001.001zm20 0a1.5 1.5 0 11-3.001-.001 1.5 1.5 0 013.001.001zm20 0a1.5 1.5 0 11-3.001-.001 1.5 1.5 0 013.001.001zm20 0a1.5 1.5 0 11-3.001-.001 1.5 1.5 0 013.001.001zm20 0a1.5 1.5 0 11-3.001-.001 1.5 1.5 0 013.001.001zm20 0a1.5 1.5 0 11-3.001-.001 1.5 1.5 0 013.001.001zm20 0a1.5 1.5 0 11-3.001-.001 1.5 1.5 0 013.001.001zm-800 20a1.5 1.5 0 11-3 0 1.5 1.5 0 013 0zm20 0a1.5 1.5 0 11-3 0 1.5 1.5 0 013 0zm-20 20a1.5 1.5 0 11-3 0 1.5 1.5 0 013 0zm20 0a1.5 1.5 0 11-3 0 1.5 1.5 0 013 0zm-20 20a1.5 1.5 0 11-3 0 1.5 1.5 0 013 0zm20 0a1.5 1.5 0 11-3 0 1.5 1.5 0 013 0zm-20 20a1.5 1.5 0 11-3 0 1.5 1.5 0 013 0zm20 0a1.5 1.5 0 11-3 0 1.5 1.5 0 013 0zm-20 20a1.5 1.5 0 11-3 0 1.5 1.5 0 013 0zm20 0a1.5 1.5 0 11-3 0 1.5 1.5 0 013 0zm0 20a1.5 1.5 0 11-3 0 1.5 1.5 0 013 0zm20-100a1.5 1.5 0 11-3 0 1.5 1.5 0 013 0zm20 0a1.5 1.5 0 11-3 0 1.5 1.5 0 013 0zm20 0a1.5 1.5 0 11-3 0 1.5 1.5 0 013 0zm20 0a1.5 1.5 0 11-3 0 1.5 1.5 0 013 0zm20 0a1.5 1.5 0 11-3.001-.001 1.5 1.5 0 013.001.001zm20 0a1.5 1.5 0 11-3.001-.001 1.5 1.5 0 013.001.001zm20 0a1.5 1.5 0 11-3.001-.001 1.5 1.5 0 013.001.001zm20 0a1.5 1.5 0 11-3.001-.001 1.5 1.5 0 013.001.001zm20 0a1.5 1.5 0 11-3.001-.001 1.5 1.5 0 013.001.001zm20 0a1.5 1.5 0 11-3.001-.001 1.5 1.5 0 013.001.001zm20 0a1.5 1.5 0 11-3.001-.001 1.5 1.5 0 013.001.001zm20 0a1.5 1.5 0 11-3.001-.001 1.5 1.5 0 013.001.001zm20 0a1.5 1.5 0 11-3.001-.001 1.5 1.5 0 013.001.001zm20 0a1.5 1.5 0 11-3.001-.001 1.5 1.5 0 013.001.001zm20 0a1.5 1.5 0 11-3.001-.001 1.5 1.5 0 013.001.001zm-280 20a1.5 1.5 0 11-3 0 1.5 1.5 0 013 0zm20 0a1.5 1.5 0 11-3 0 1.5 1.5 0 013 0zm20 0a1.5 1.5 0 11-3 0 1.5 1.5 0 013 0zm20 0a1.5 1.5 0 11-3 0 1.5 1.5 0 013 0zm20 0a1.5 1.5 0 11-3.001-.001 1.5 1.5 0 013.001.001zm20 0a1.5 1.5 0 11-3.001-.001 1.5 1.5 0 013.001.001zm20 0a1.5 1.5 0 11-3.001-.001 1.5 1.5 0 013.001.001zm20 0a1.5 1.5 0 11-3.001-.001 1.5 1.5 0 013.001.001zm20 0a1.5 1.5 0 11-3.001-.001 1.5 1.5 0 013.001.001zm20 0a1.5 1.5 0 11-3.001-.001 1.5 1.5 0 013.001.001zm20 0a1.5 1.5 0 11-3.001-.001 1.5 1.5 0 013.001.001zm20 0a1.5 1.5 0 11-3.001-.001 1.5 1.5 0 013.001.001zm20 0a1.5 1.5 0 11-3.001-.001 1.5 1.5 0 013.001.001zm20 0a1.5 1.5 0 11-3.001-.001 1.5 1.5 0 013.001.001zm20 0a1.5 1.5 0 11-3.001-.001 1.5 1.5 0 013.001.001zm-280 20a1.5 1.5 0 11-3 0 1.5 1.5 0 013 0zm20 0a1.5 1.5 0 11-3 0 1.5 1.5 0 013 0zm20 0a1.5 1.5 0 11-3 0 1.5 1.5 0 013 0zm20 0a1.5 1.5 0 11-3 0 1.5 1.5 0 013 0zm20 0a1.5 1.5 0 11-3.001-.001 1.5 1.5 0 013.001.001zm20 0a1.5 1.5 0 11-3.001-.001 1.5 1.5 0 013.001.001zm20 0a1.5 1.5 0 11-3.001-.001 1.5 1.5 0 013.001.001zm20 0a1.5 1.5 0 11-3.001-.001 1.5 1.5 0 013.001.001zm20 0a1.5 1.5 0 11-3.001-.001 1.5 1.5 0 013.001.001zm20 0a1.5 1.5 0 11-3.001-.001 1.5 1.5 0 013.001.001zm20 0a1.5 1.5 0 11-3.001-.001 1.5 1.5 0 013.001.001zm20 0a1.5 1.5 0 11-3.001-.001 1.5 1.5 0 013.001.001zm20 0a1.5 1.5 0 11-3.001-.001 1.5 1.5 0 013.001.001zm20 0a1.5 1.5 0 11-3.001-.001 1.5 1.5 0 013.001.001zm20 0a1.5 1.5 0 11-3.001-.001 1.5 1.5 0 013.001.001zm-280 20a1.5 1.5 0 11-3 0 1.5 1.5 0 013 0zm20 0a1.5 1.5 0 11-3 0 1.5 1.5 0 013 0zm20 0a1.5 1.5 0 11-3 0 1.5 1.5 0 013 0zm20 0a1.5 1.5 0 11-3 0 1.5 1.5 0 013 0zm20 0a1.5 1.5 0 11-3.001-.001 1.5 1.5 0 013.001.001zm20 0a1.5 1.5 0 11-3.001-.001 1.5 1.5 0 013.001.001zm20 0a1.5 1.5 0 11-3.001-.001 1.5 1.5 0 013.001.001zm20 0a1.5 1.5 0 11-3.001-.001 1.5 1.5 0 013.001.001zm20 0a1.5 1.5 0 11-3.001-.001 1.5 1.5 0 013.001.001zm20 0a1.5 1.5 0 11-3.001-.001 1.5 1.5 0 013.001.001zm20 0a1.5 1.5 0 11-3.001-.001 1.5 1.5 0 013.001.001zm20 0a1.5 1.5 0 11-3.001-.001 1.5 1.5 0 013.001.001zm20 0a1.5 1.5 0 11-3.001-.001 1.5 1.5 0 013.001.001zm20 0a1.5 1.5 0 11-3.001-.001 1.5 1.5 0 013.001.001zm20 0a1.5 1.5 0 11-3.001-.001 1.5 1.5 0 013.001.001zm-280 20a1.5 1.5 0 11-3 0 1.5 1.5 0 013 0zm20 0a1.5 1.5 0 11-3 0 1.5 1.5 0 013 0zm20 0a1.5 1.5 0 11-3 0 1.5 1.5 0 013 0zm20 0a1.5 1.5 0 11-3 0 1.5 1.5 0 013 0zm20 0a1.5 1.5 0 11-3.001-.001 1.5 1.5 0 013.001.001zm20 0a1.5 1.5 0 11-3.001-.001 1.5 1.5 0 013.001.001zm20 0a1.5 1.5 0 11-3.001-.001 1.5 1.5 0 013.001.001zm20 0a1.5 1.5 0 11-3.001-.001 1.5 1.5 0 013.001.001zm20 0a1.5 1.5 0 11-3.001-.001 1.5 1.5 0 013.001.001zm20 0a1.5 1.5 0 11-3.001-.001 1.5 1.5 0 013.001.001zm20 0a1.5 1.5 0 11-3.001-.001 1.5 1.5 0 013.001.001zm20 0a1.5 1.5 0 11-3.001-.001 1.5 1.5 0 013.001.001zm20 0a1.5 1.5 0 11-3.001-.001 1.5 1.5 0 013.001.001zm20 0a1.5 1.5 0 11-3.001-.001 1.5 1.5 0 013.001.001zm20 0a1.5 1.5 0 11-3.001-.001 1.5 1.5 0 013.001.001zm-280 20a1.5 1.5 0 11-3 0 1.5 1.5 0 013 0zm20 0a1.5 1.5 0 11-3 0 1.5 1.5 0 013 0zm20 0a1.5 1.5 0 11-3 0 1.5 1.5 0 013 0zm20 0a1.5 1.5 0 11-3 0 1.5 1.5 0 013 0zm20 0a1.5 1.5 0 11-3.001-.001 1.5 1.5 0 013.001.001zm20 0a1.5 1.5 0 11-3.001-.001 1.5 1.5 0 013.001.001zm20 0a1.5 1.5 0 11-3.001-.001 1.5 1.5 0 013.001.001zm20 0a1.5 1.5 0 11-3.001-.001 1.5 1.5 0 013.001.001zm20 0a1.5 1.5 0 11-3.001-.001 1.5 1.5 0 013.001.001zm20 0a1.5 1.5 0 11-3.001-.001 1.5 1.5 0 013.001.001zm20 0a1.5 1.5 0 11-3.001-.001 1.5 1.5 0 013.001.001zm20 0a1.5 1.5 0 11-3.001-.001 1.5 1.5 0 013.001.001zm20 0a1.5 1.5 0 11-3.001-.001 1.5 1.5 0 013.001.001zm20 0a1.5 1.5 0 11-3.001-.001 1.5 1.5 0 013.001.001zm20 0a1.5 1.5 0 11-3.001-.001 1.5 1.5 0 013.001.001zm-280 20a1.5 1.5 0 11-3 0 1.5 1.5 0 013 0zm20 0a1.5 1.5 0 11-3 0 1.5 1.5 0 013 0zm20 0a1.5 1.5 0 11-3 0 1.5 1.5 0 013 0zm20 0a1.5 1.5 0 11-3 0 1.5 1.5 0 013 0zm20 0a1.5 1.5 0 11-3.001-.001 1.5 1.5 0 013.001.001zm20 0a1.5 1.5 0 11-3.001-.001 1.5 1.5 0 013.001.001zm20 0a1.5 1.5 0 11-3.001-.001 1.5 1.5 0 013.001.001zm20 0a1.5 1.5 0 11-3.001-.001 1.5 1.5 0 013.001.001zm20 0a1.5 1.5 0 11-3.001-.001 1.5 1.5 0 013.001.001zm20 0a1.5 1.5 0 11-3.001-.001 1.5 1.5 0 013.001.001zm20 0a1.5 1.5 0 11-3.001-.001 1.5 1.5 0 013.001.001zm20 0a1.5 1.5 0 11-3.001-.001 1.5 1.5 0 013.001.001zm20 0a1.5 1.5 0 11-3.001-.001 1.5 1.5 0 013.001.001zm20 0a1.5 1.5 0 11-3.001-.001 1.5 1.5 0 013.001.001zm20 0a1.5 1.5 0 11-3.001-.001 1.5 1.5 0 013.001.001zm-260 20a1.5 1.5 0 11-3 0 1.5 1.5 0 013 0zm20 0a1.5 1.5 0 11-3 0 1.5 1.5 0 013 0zm20 0a1.5 1.5 0 11-3 0 1.5 1.5 0 013 0zm20 0a1.5 1.5 0 11-3.001-.001 1.5 1.5 0 013.001.001zm20 0a1.5 1.5 0 11-3.001-.001 1.5 1.5 0 013.001.001zm20 0a1.5 1.5 0 11-3.001-.001 1.5 1.5 0 013.001.001zm20 0a1.5 1.5 0 11-3.001-.001 1.5 1.5 0 013.001.001zm20 0a1.5 1.5 0 11-3.001-.001 1.5 1.5 0 013.001.001zm20 0a1.5 1.5 0 11-3.001-.001 1.5 1.5 0 013.001.001zm20 0a1.5 1.5 0 11-3.001-.001 1.5 1.5 0 013.001.001zm20 0a1.5 1.5 0 11-3.001-.001 1.5 1.5 0 013.001.001zm20 0a1.5 1.5 0 11-3.001-.001 1.5 1.5 0 013.001.001zm20 0a1.5 1.5 0 11-3.001-.001 1.5 1.5 0 013.001.001zm20 0a1.5 1.5 0 11-3.001-.001 1.5 1.5 0 013.001.001zm-260 20a1.5 1.5 0 11-3 0 1.5 1.5 0 013 0zm20 0a1.5 1.5 0 11-3 0 1.5 1.5 0 013 0zm20 0a1.5 1.5 0 11-3 0 1.5 1.5 0 013 0zm20 0a1.5 1.5 0 11-3.001-.001 1.5 1.5 0 013.001.001zm20 0a1.5 1.5 0 11-3.001-.001 1.5 1.5 0 013.001.001zm20 0a1.5 1.5 0 11-3.001-.001 1.5 1.5 0 013.001.001zm20 0a1.5 1.5 0 11-3.001-.001 1.5 1.5 0 013.001.001zm20 0a1.5 1.5 0 11-3.001-.001 1.5 1.5 0 013.001.001zm20 0a1.5 1.5 0 11-3.001-.001 1.5 1.5 0 013.001.001zm20 0a1.5 1.5 0 11-3.001-.001 1.5 1.5 0 013.001.001zm20 0a1.5 1.5 0 11-3.001-.001 1.5 1.5 0 013.001.001zm20 0a1.5 1.5 0 11-3.001-.001 1.5 1.5 0 013.001.001zm20 0a1.5 1.5 0 11-3.001-.001 1.5 1.5 0 013.001.001zm20 0a1.5 1.5 0 11-3.001-.001 1.5 1.5 0 013.001.001zm-260 20a1.5 1.5 0 11-3 0 1.5 1.5 0 013 0zm20 0a1.5 1.5 0 11-3 0 1.5 1.5 0 013 0zm20 0a1.5 1.5 0 11-3 0 1.5 1.5 0 013 0zm20 0a1.5 1.5 0 11-3.001-.001 1.5 1.5 0 013.001.001zm20 0a1.5 1.5 0 11-3.001-.001 1.5 1.5 0 013.001.001zm20 0a1.5 1.5 0 11-3.001-.001 1.5 1.5 0 013.001.001zm20 0a1.5 1.5 0 11-3.001-.001 1.5 1.5 0 013.001.001zm20 0a1.5 1.5 0 11-3.001-.001 1.5 1.5 0 013.001.001zm20 0a1.5 1.5 0 11-3.001-.001 1.5 1.5 0 013.001.001zm20 0a1.5 1.5 0 11-3.001-.001 1.5 1.5 0 013.001.001zm20 0a1.5 1.5 0 11-3.001-.001 1.5 1.5 0 013.001.001zm20 0a1.5 1.5 0 11-3.001-.001 1.5 1.5 0 013.001.001zm20 0a1.5 1.5 0 11-3.001-.001 1.5 1.5 0 013.001.001zm20 0a1.5 1.5 0 11-3.001-.001 1.5 1.5 0 013.001.001zm-240 20a1.5 1.5 0 11-3 0 1.5 1.5 0 013 0zm20 0a1.5 1.5 0 11-3 0 1.5 1.5 0 013 0zm20 0a1.5 1.5 0 11-3.001-.001 1.5 1.5 0 013.001.001zm20 0a1.5 1.5 0 11-3.001-.001 1.5 1.5 0 013.001.001zm20 0a1.5 1.5 0 11-3.001-.001 1.5 1.5 0 013.001.001zm20 0a1.5 1.5 0 11-3.001-.001 1.5 1.5 0 013.001.001zm20 0a1.5 1.5 0 11-3.001-.001 1.5 1.5 0 013.001.001zm20 0a1.5 1.5 0 11-3.001-.001 1.5 1.5 0 013.001.001zm20 0a1.5 1.5 0 11-3.001-.001 1.5 1.5 0 013.001.001zm20 0a1.5 1.5 0 11-3.001-.001 1.5 1.5 0 013.001.001zm20 0a1.5 1.5 0 11-3.001-.001 1.5 1.5 0 013.001.001zm20 0a1.5 1.5 0 11-3.001-.001 1.5 1.5 0 013.001.001zm20 0a1.5 1.5 0 11-3.001-.001 1.5 1.5 0 013.001.001zm-220 20a1.5 1.5 0 11-3 0 1.5 1.5 0 013 0zm20 0a1.5 1.5 0 11-3.001-.001 1.5 1.5 0 013.001.001zm20 0a1.5 1.5 0 11-3.001-.001 1.5 1.5 0 013.001.001zm20 0a1.5 1.5 0 11-3.001-.001 1.5 1.5 0 013.001.001zm20 0a1.5 1.5 0 11-3.001-.001 1.5 1.5 0 013.001.001zm20 0a1.5 1.5 0 11-3.001-.001 1.5 1.5 0 013.001.001zm20 0a1.5 1.5 0 11-3.001-.001 1.5 1.5 0 013.001.001zm20 0a1.5 1.5 0 11-3.001-.001 1.5 1.5 0 013.001.001zm20 0a1.5 1.5 0 11-3.001-.001 1.5 1.5 0 013.001.001zm20 0a1.5 1.5 0 11-3.001-.001 1.5 1.5 0 013.001.001zm20 0a1.5 1.5 0 11-3.001-.001 1.5 1.5 0 013.001.001zm20 0a1.5 1.5 0 11-3.001-.001 1.5 1.5 0 013.001.001zm20-220a1.5 1.5 0 11-3.001-.001 1.5 1.5 0 013.001.001zm20 0a1.5 1.5 0 11-3.001-.001 1.5 1.5 0 013.001.001zm20 0a1.5 1.5 0 11-3.001-.001 1.5 1.5 0 013.001.001zm20 0a1.5 1.5 0 11-3.001-.001 1.5 1.5 0 013.001.001zm20 0a1.5 1.5 0 11-3.001-.001 1.5 1.5 0 013.001.001zm20 0a1.5 1.5 0 11-3.001-.001 1.5 1.5 0 013.001.001zm20 0a1.5 1.5 0 11-3.001-.001 1.5 1.5 0 013.001.001zm20 0a1.5 1.5 0 11-3.001-.001 1.5 1.5 0 013.001.001zm20 0a1.5 1.5 0 11-3.001-.001 1.5 1.5 0 013.001.001zm20 0a1.5 1.5 0 11-3.001-.001 1.5 1.5 0 013.001.001zm20 0a1.5 1.5 0 11-3.001-.001 1.5 1.5 0 013.001.001zm20 0a1.5 1.5 0 11-3.001-.001 1.5 1.5 0 013.001.001zm20 0a1.5 1.5 0 11-3.001-.001 1.5 1.5 0 013.001.001zm20 0a1.5 1.5 0 11-3.001-.001 1.5 1.5 0 013.001.001zm20 0a1.5 1.5 0 11-3.001-.001 1.5 1.5 0 013.001.001zm-280 20a1.5 1.5 0 11-3.001-.001 1.5 1.5 0 013.001.001zm20 0a1.5 1.5 0 11-3.001-.001 1.5 1.5 0 013.001.001zm20 0a1.5 1.5 0 11-3.001-.001 1.5 1.5 0 013.001.001zm20 0a1.5 1.5 0 11-3.001-.001 1.5 1.5 0 013.001.001zm20 0a1.5 1.5 0 11-3.001-.001 1.5 1.5 0 013.001.001zm20 0a1.5 1.5 0 11-3.001-.001 1.5 1.5 0 013.001.001zm20 0a1.5 1.5 0 11-3.001-.001 1.5 1.5 0 013.001.001zm20 0a1.5 1.5 0 11-3.001-.001 1.5 1.5 0 013.001.001zm20 0a1.5 1.5 0 11-3.001-.001 1.5 1.5 0 013.001.001zm20 0a1.5 1.5 0 11-3.001-.001 1.5 1.5 0 013.001.001zm20 0a1.5 1.5 0 11-3.001-.001 1.5 1.5 0 013.001.001zm20 0a1.5 1.5 0 11-3.001-.001 1.5 1.5 0 013.001.001zm20 0a1.5 1.5 0 11-3.001-.001 1.5 1.5 0 013.001.001zm20 0a1.5 1.5 0 11-3.001-.001 1.5 1.5 0 013.001.001zm20 0a1.5 1.5 0 11-3.001-.001 1.5 1.5 0 013.001.001zm-280 20a1.5 1.5 0 11-3.001-.001 1.5 1.5 0 013.001.001zm20 0a1.5 1.5 0 11-3.001-.001 1.5 1.5 0 013.001.001zm20 0a1.5 1.5 0 11-3.001-.001 1.5 1.5 0 013.001.001zm20 0a1.5 1.5 0 11-3.001-.001 1.5 1.5 0 013.001.001zm20 0a1.5 1.5 0 11-3.001-.001 1.5 1.5 0 013.001.001zm20 0a1.5 1.5 0 11-3.001-.001 1.5 1.5 0 013.001.001zm20 0a1.5 1.5 0 11-3.001-.001 1.5 1.5 0 013.001.001zm20 0a1.5 1.5 0 11-3.001-.001 1.5 1.5 0 013.001.001zm20 0a1.5 1.5 0 11-3.001-.001 1.5 1.5 0 013.001.001zm20 0a1.5 1.5 0 11-3.001-.001 1.5 1.5 0 013.001.001zm20 0a1.5 1.5 0 11-3.001-.001 1.5 1.5 0 013.001.001zm20 0a1.5 1.5 0 11-3.001-.001 1.5 1.5 0 013.001.001zm20 0a1.5 1.5 0 11-3.001-.001 1.5 1.5 0 013.001.001zm20 0a1.5 1.5 0 11-3.001-.001 1.5 1.5 0 013.001.001zm20 0a1.5 1.5 0 11-3.001-.001 1.5 1.5 0 013.001.001zm-280 20a1.5 1.5 0 11-3.001-.001 1.5 1.5 0 013.001.001zm20 0a1.5 1.5 0 11-3.001-.001 1.5 1.5 0 013.001.001zm20 0a1.5 1.5 0 11-3.001-.001 1.5 1.5 0 013.001.001zm20 0a1.5 1.5 0 11-3.001-.001 1.5 1.5 0 013.001.001zm20 0a1.5 1.5 0 11-3.001-.001 1.5 1.5 0 013.001.001zm20 0a1.5 1.5 0 11-3.001-.001 1.5 1.5 0 013.001.001zm20 0a1.5 1.5 0 11-3.001-.001 1.5 1.5 0 013.001.001zm20 0a1.5 1.5 0 11-3.001-.001 1.5 1.5 0 013.001.001zm20 0a1.5 1.5 0 11-3.001-.001 1.5 1.5 0 013.001.001zm20 0a1.5 1.5 0 11-3.001-.001 1.5 1.5 0 013.001.001zm20 0a1.5 1.5 0 11-3.001-.001 1.5 1.5 0 013.001.001zm20 0a1.5 1.5 0 11-3.001-.001 1.5 1.5 0 013.001.001zm20 0a1.5 1.5 0 11-3.001-.001 1.5 1.5 0 013.001.001zm20 0a1.5 1.5 0 11-3.001-.001 1.5 1.5 0 013.001.001zm20 0a1.5 1.5 0 11-3.001-.001 1.5 1.5 0 013.001.001zm-280 20a1.5 1.5 0 11-3.001-.001 1.5 1.5 0 013.001.001zm20 0a1.5 1.5 0 11-3.001-.001 1.5 1.5 0 013.001.001zm20 0a1.5 1.5 0 11-3.001-.001 1.5 1.5 0 013.001.001zm20 0a1.5 1.5 0 11-3.001-.001 1.5 1.5 0 013.001.001zm20 0a1.5 1.5 0 11-3.001-.001 1.5 1.5 0 013.001.001zm20 0a1.5 1.5 0 11-3.001-.001 1.5 1.5 0 013.001.001zm20 0a1.5 1.5 0 11-3.001-.001 1.5 1.5 0 013.001.001zm20 0a1.5 1.5 0 11-3.001-.001 1.5 1.5 0 013.001.001zm20 0a1.5 1.5 0 11-3.001-.001 1.5 1.5 0 013.001.001zm20 0a1.5 1.5 0 11-3.001-.001 1.5 1.5 0 013.001.001zm20 0a1.5 1.5 0 11-3.001-.001 1.5 1.5 0 013.001.001zm20 0a1.5 1.5 0 11-3.001-.001 1.5 1.5 0 013.001.001zm20 0a1.5 1.5 0 11-3.001-.001 1.5 1.5 0 013.001.001zm20 0a1.5 1.5 0 11-3.001-.001 1.5 1.5 0 013.001.001zm20 0a1.5 1.5 0 11-3.001-.001 1.5 1.5 0 013.001.001zm-280 20a1.5 1.5 0 11-3.001-.001 1.5 1.5 0 013.001.001zm20 0a1.5 1.5 0 11-3.001-.001 1.5 1.5 0 013.001.001zm20 0a1.5 1.5 0 11-3.001-.001 1.5 1.5 0 013.001.001zm20 0a1.5 1.5 0 11-3.001-.001 1.5 1.5 0 013.001.001zm20 0a1.5 1.5 0 11-3.001-.001 1.5 1.5 0 013.001.001zm20 0a1.5 1.5 0 11-3.001-.001 1.5 1.5 0 013.001.001zm20 0a1.5 1.5 0 11-3.001-.001 1.5 1.5 0 013.001.001zm20 0a1.5 1.5 0 11-3.001-.001 1.5 1.5 0 013.001.001zm20 0a1.5 1.5 0 11-3.001-.001 1.5 1.5 0 013.001.001zm20 0a1.5 1.5 0 11-3.001-.001 1.5 1.5 0 013.001.001zm20 0a1.5 1.5 0 11-3.001-.001 1.5 1.5 0 013.001.001zm20 0a1.5 1.5 0 11-3.001-.001 1.5 1.5 0 013.001.001zm20 0a1.5 1.5 0 11-3.001-.001 1.5 1.5 0 013.001.001zm20 0a1.5 1.5 0 11-3.001-.001 1.5 1.5 0 013.001.001zm20 0a1.5 1.5 0 11-3.001-.001 1.5 1.5 0 013.001.001zm-280 20a1.5 1.5 0 11-3.001-.001 1.5 1.5 0 013.001.001zm20 0a1.5 1.5 0 11-3.001-.001 1.5 1.5 0 013.001.001zm20 0a1.5 1.5 0 11-3.001-.001 1.5 1.5 0 013.001.001zm20 0a1.5 1.5 0 11-3.001-.001 1.5 1.5 0 013.001.001zm20 0a1.5 1.5 0 11-3.001-.001 1.5 1.5 0 013.001.001zm20 0a1.5 1.5 0 11-3.001-.001 1.5 1.5 0 013.001.001zm20 0a1.5 1.5 0 11-3.001-.001 1.5 1.5 0 013.001.001zm20 0a1.5 1.5 0 11-3.001-.001 1.5 1.5 0 013.001.001zm20 0a1.5 1.5 0 11-3.001-.001 1.5 1.5 0 013.001.001zm20 0a1.5 1.5 0 11-3.001-.001 1.5 1.5 0 013.001.001zm20 0a1.5 1.5 0 11-3.001-.001 1.5 1.5 0 013.001.001zm20 0a1.5 1.5 0 11-3.001-.001 1.5 1.5 0 013.001.001zm20 0a1.5 1.5 0 11-3.001-.001 1.5 1.5 0 013.001.001zm20 0a1.5 1.5 0 11-3.001-.001 1.5 1.5 0 013.001.001zm20 0a1.5 1.5 0 11-3.001-.001 1.5 1.5 0 013.001.001zm-280 20a1.5 1.5 0 11-3.001-.001 1.5 1.5 0 013.001.001zm20 0a1.5 1.5 0 11-3.001-.001 1.5 1.5 0 013.001.001zm20 0a1.5 1.5 0 11-3.001-.001 1.5 1.5 0 013.001.001zm20 0a1.5 1.5 0 11-3.001-.001 1.5 1.5 0 013.001.001zm20 0a1.5 1.5 0 11-3.001-.001 1.5 1.5 0 013.001.001zm20 0a1.5 1.5 0 11-3.001-.001 1.5 1.5 0 013.001.001zm20 0a1.5 1.5 0 11-3.001-.001 1.5 1.5 0 013.001.001zm20 0a1.5 1.5 0 11-3.001-.001 1.5 1.5 0 013.001.001zm20 0a1.5 1.5 0 11-3.001-.001 1.5 1.5 0 013.001.001zm20 0a1.5 1.5 0 11-3.001-.001 1.5 1.5 0 013.001.001zm20 0a1.5 1.5 0 11-3.001-.001 1.5 1.5 0 013.001.001zm20 0a1.5 1.5 0 11-3.001-.001 1.5 1.5 0 013.001.001zm20 0a1.5 1.5 0 11-3.001-.001 1.5 1.5 0 013.001.001zm20 0a1.5 1.5 0 11-3.001-.001 1.5 1.5 0 013.001.001zm20 0a1.5 1.5 0 11-3.001-.001 1.5 1.5 0 013.001.001zm-280 20a1.5 1.5 0 11-3.001-.001 1.5 1.5 0 013.001.001zm20 0a1.5 1.5 0 11-3.001-.001 1.5 1.5 0 013.001.001zm20 0a1.5 1.5 0 11-3.001-.001 1.5 1.5 0 013.001.001zm20 0a1.5 1.5 0 11-3.001-.001 1.5 1.5 0 013.001.001zm20 0a1.5 1.5 0 11-3.001-.001 1.5 1.5 0 013.001.001zm20 0a1.5 1.5 0 11-3.001-.001 1.5 1.5 0 013.001.001zm20 0a1.5 1.5 0 11-3.001-.001 1.5 1.5 0 013.001.001zm20 0a1.5 1.5 0 11-3.001-.001 1.5 1.5 0 013.001.001zm20 0a1.5 1.5 0 11-3.001-.001 1.5 1.5 0 013.001.001zm20 0a1.5 1.5 0 11-3.001-.001 1.5 1.5 0 013.001.001zm20 0a1.5 1.5 0 11-3.001-.001 1.5 1.5 0 013.001.001zm20 0a1.5 1.5 0 11-3.001-.001 1.5 1.5 0 013.001.001zm20 0a1.5 1.5 0 11-3.001-.001 1.5 1.5 0 013.001.001zm20 0a1.5 1.5 0 11-3.001-.001 1.5 1.5 0 013.001.001zm20 0a1.5 1.5 0 11-3.001-.001 1.5 1.5 0 013.001.001zm-280 20a1.5 1.5 0 11-3.001-.001 1.5 1.5 0 013.001.001zm20 0a1.5 1.5 0 11-3.001-.001 1.5 1.5 0 013.001.001zm20 0a1.5 1.5 0 11-3.001-.001 1.5 1.5 0 013.001.001zm20 0a1.5 1.5 0 11-3.001-.001 1.5 1.5 0 013.001.001zm20 0a1.5 1.5 0 11-3.001-.001 1.5 1.5 0 013.001.001zm20 0a1.5 1.5 0 11-3.001-.001 1.5 1.5 0 013.001.001zm20 0a1.5 1.5 0 11-3.001-.001 1.5 1.5 0 013.001.001zm20 0a1.5 1.5 0 11-3.001-.001 1.5 1.5 0 013.001.001zm20 0a1.5 1.5 0 11-3.001-.001 1.5 1.5 0 013.001.001zm20 0a1.5 1.5 0 11-3.001-.001 1.5 1.5 0 013.001.001zm20 0a1.5 1.5 0 11-3.001-.001 1.5 1.5 0 013.001.001zm20 0a1.5 1.5 0 11-3.001-.001 1.5 1.5 0 013.001.001zm20 0a1.5 1.5 0 11-3.001-.001 1.5 1.5 0 013.001.001zm20 0a1.5 1.5 0 11-3.001-.001 1.5 1.5 0 013.001.001zm20 0a1.5 1.5 0 11-3.001-.001 1.5 1.5 0 013.001.001zm-280 20a1.5 1.5 0 11-3.001-.001 1.5 1.5 0 013.001.001zm20 0a1.5 1.5 0 11-3.001-.001 1.5 1.5 0 013.001.001zm20 0a1.5 1.5 0 11-3.001-.001 1.5 1.5 0 013.001.001zm20 0a1.5 1.5 0 11-3.001-.001 1.5 1.5 0 013.001.001zm20 0a1.5 1.5 0 11-3.001-.001 1.5 1.5 0 013.001.001zm20 0a1.5 1.5 0 11-3.001-.001 1.5 1.5 0 013.001.001zm20 0a1.5 1.5 0 11-3.001-.001 1.5 1.5 0 013.001.001zm20 0a1.5 1.5 0 11-3.001-.001 1.5 1.5 0 013.001.001zm20 0a1.5 1.5 0 11-3.001-.001 1.5 1.5 0 013.001.001zm20 0a1.5 1.5 0 11-3.001-.001 1.5 1.5 0 013.001.001zm20 0a1.5 1.5 0 11-3.001-.001 1.5 1.5 0 013.001.001zm20 0a1.5 1.5 0 11-3.001-.001 1.5 1.5 0 013.001.001zm20 0a1.5 1.5 0 11-3.001-.001 1.5 1.5 0 013.001.001zm20 0a1.5 1.5 0 11-3.001-.001 1.5 1.5 0 013.001.001zm20 0a1.5 1.5 0 11-3.001-.001 1.5 1.5 0 013.001.001zm-280 20a1.5 1.5 0 11-3.001-.001 1.5 1.5 0 013.001.001zm20 0a1.5 1.5 0 11-3.001-.001 1.5 1.5 0 013.001.001zm20 0a1.5 1.5 0 11-3.001-.001 1.5 1.5 0 013.001.001zm20 0a1.5 1.5 0 11-3.001-.001 1.5 1.5 0 013.001.001zm20 0a1.5 1.5 0 11-3.001-.001 1.5 1.5 0 013.001.001zm20 0a1.5 1.5 0 11-3.001-.001 1.5 1.5 0 013.001.001zm20 0a1.5 1.5 0 11-3.001-.001 1.5 1.5 0 013.001.001zm20 0a1.5 1.5 0 11-3.001-.001 1.5 1.5 0 013.001.001zm20 0a1.5 1.5 0 11-3.001-.001 1.5 1.5 0 013.001.001zm20 0a1.5 1.5 0 11-3.001-.001 1.5 1.5 0 013.001.001zm20 0a1.5 1.5 0 11-3.001-.001 1.5 1.5 0 013.001.001zm20 0a1.5 1.5 0 11-3.001-.001 1.5 1.5 0 013.001.001zm20 0a1.5 1.5 0 11-3.001-.001 1.5 1.5 0 013.001.001zm20 0a1.5 1.5 0 11-3.001-.001 1.5 1.5 0 013.001.001zm20 0a1.5 1.5 0 11-3.001-.001 1.5 1.5 0 013.001.001zm20-220a1.5 1.5 0 11-3.001-.001 1.5 1.5 0 013.001.001zm20 0a1.5 1.5 0 11-3.001-.001 1.5 1.5 0 013.001.001zm20 0a1.5 1.5 0 11-3.001-.001 1.5 1.5 0 013.001.001zm20 0a1.5 1.5 0 11-3.001-.001 1.5 1.5 0 013.001.001zm20 0a1.5 1.5 0 11-3.001-.001 1.5 1.5 0 013.001.001zm20 0a1.5 1.5 0 11-3.001-.001 1.5 1.5 0 013.001.001zm20 0a1.5 1.5 0 11-3.001-.001 1.5 1.5 0 013.001.001zm20 0a1.5 1.5 0 11-3.001-.001 1.5 1.5 0 013.001.001zm20 0a1.5 1.5 0 11-3.001-.001 1.5 1.5 0 013.001.001zm-160 20a1.5 1.5 0 11-3.001-.001 1.5 1.5 0 013.001.001zm20 0a1.5 1.5 0 11-3.001-.001 1.5 1.5 0 013.001.001zm20 0a1.5 1.5 0 11-3.001-.001 1.5 1.5 0 013.001.001zm20 0a1.5 1.5 0 11-3.001-.001 1.5 1.5 0 013.001.001zm20 0a1.5 1.5 0 11-3.001-.001 1.5 1.5 0 013.001.001zm20 0a1.5 1.5 0 11-3.001-.001 1.5 1.5 0 013.001.001zm20 0a1.5 1.5 0 11-3.001-.001 1.5 1.5 0 013.001.001zm20 0a1.5 1.5 0 11-3.001-.001 1.5 1.5 0 013.001.001zm20 0a1.5 1.5 0 11-3.001-.001 1.5 1.5 0 013.001.001zm-160 20a1.5 1.5 0 11-3.001-.001 1.5 1.5 0 013.001.001zm20 0a1.5 1.5 0 11-3.001-.001 1.5 1.5 0 013.001.001zm20 0a1.5 1.5 0 11-3.001-.001 1.5 1.5 0 013.001.001zm20 0a1.5 1.5 0 11-3.001-.001 1.5 1.5 0 013.001.001zm20 0a1.5 1.5 0 11-3.001-.001 1.5 1.5 0 013.001.001zm20 0a1.5 1.5 0 11-3.001-.001 1.5 1.5 0 013.001.001zm20 0a1.5 1.5 0 11-3.001-.001 1.5 1.5 0 013.001.001zm20 0a1.5 1.5 0 11-3.001-.001 1.5 1.5 0 013.001.001zm20 0a1.5 1.5 0 11-3.001-.001 1.5 1.5 0 013.001.001zm-160 20a1.5 1.5 0 11-3.001-.001 1.5 1.5 0 013.001.001zm20 0a1.5 1.5 0 11-3.001-.001 1.5 1.5 0 013.001.001zm20 0a1.5 1.5 0 11-3.001-.001 1.5 1.5 0 013.001.001zm20 0a1.5 1.5 0 11-3.001-.001 1.5 1.5 0 013.001.001zm20 0a1.5 1.5 0 11-3.001-.001 1.5 1.5 0 013.001.001zm20 0a1.5 1.5 0 11-3.001-.001 1.5 1.5 0 013.001.001zm20 0a1.5 1.5 0 11-3.001-.001 1.5 1.5 0 013.001.001zm20 0a1.5 1.5 0 11-3.001-.001 1.5 1.5 0 013.001.001zm20 0a1.5 1.5 0 11-3.001-.001 1.5 1.5 0 013.001.001zm-160 20a1.5 1.5 0 11-3.001-.001 1.5 1.5 0 013.001.001zm20 0a1.5 1.5 0 11-3.001-.001 1.5 1.5 0 013.001.001zm20 0a1.5 1.5 0 11-3.001-.001 1.5 1.5 0 013.001.001zm20 0a1.5 1.5 0 11-3.001-.001 1.5 1.5 0 013.001.001zm20 0a1.5 1.5 0 11-3.001-.001 1.5 1.5 0 013.001.001zm20 0a1.5 1.5 0 11-3.001-.001 1.5 1.5 0 013.001.001zm20 0a1.5 1.5 0 11-3.001-.001 1.5 1.5 0 013.001.001zm20 0a1.5 1.5 0 11-3.001-.001 1.5 1.5 0 013.001.001zm20 0a1.5 1.5 0 11-3.001-.001 1.5 1.5 0 013.001.001zm-160 20a1.5 1.5 0 11-3.001-.001 1.5 1.5 0 013.001.001zm20 0a1.5 1.5 0 11-3.001-.001 1.5 1.5 0 013.001.001zm20 0a1.5 1.5 0 11-3.001-.001 1.5 1.5 0 013.001.001zm20 0a1.5 1.5 0 11-3.001-.001 1.5 1.5 0 013.001.001zm20 0a1.5 1.5 0 11-3.001-.001 1.5 1.5 0 013.001.001zm20 0a1.5 1.5 0 11-3.001-.001 1.5 1.5 0 013.001.001zm20 0a1.5 1.5 0 11-3.001-.001 1.5 1.5 0 013.001.001zm20 0a1.5 1.5 0 11-3.001-.001 1.5 1.5 0 013.001.001zm20 0a1.5 1.5 0 11-3.001-.001 1.5 1.5 0 013.001.001zm-160 20a1.5 1.5 0 11-3.001-.001 1.5 1.5 0 013.001.001zm20 0a1.5 1.5 0 11-3.001-.001 1.5 1.5 0 013.001.001zm20 0a1.5 1.5 0 11-3.001-.001 1.5 1.5 0 013.001.001zm20 0a1.5 1.5 0 11-3.001-.001 1.5 1.5 0 013.001.001zm20 0a1.5 1.5 0 11-3.001-.001 1.5 1.5 0 013.001.001zm20 0a1.5 1.5 0 11-3.001-.001 1.5 1.5 0 013.001.001zm20 0a1.5 1.5 0 11-3.001-.001 1.5 1.5 0 013.001.001zm20 0a1.5 1.5 0 11-3.001-.001 1.5 1.5 0 013.001.001zm20 0a1.5 1.5 0 11-3.001-.001 1.5 1.5 0 013.001.001zm-160 20a1.5 1.5 0 11-3.001-.001 1.5 1.5 0 013.001.001zm20 0a1.5 1.5 0 11-3.001-.001 1.5 1.5 0 013.001.001zm20 0a1.5 1.5 0 11-3.001-.001 1.5 1.5 0 013.001.001zm20 0a1.5 1.5 0 11-3.001-.001 1.5 1.5 0 013.001.001zm20 0a1.5 1.5 0 11-3.001-.001 1.5 1.5 0 013.001.001zm20 0a1.5 1.5 0 11-3.001-.001 1.5 1.5 0 013.001.001zm20 0a1.5 1.5 0 11-3.001-.001 1.5 1.5 0 013.001.001zm20 0a1.5 1.5 0 11-3.001-.001 1.5 1.5 0 013.001.001zm-140 20a1.5 1.5 0 11-3.001-.001 1.5 1.5 0 013.001.001zm20 0a1.5 1.5 0 11-3.001-.001 1.5 1.5 0 013.001.001zm20 0a1.5 1.5 0 11-3.001-.001 1.5 1.5 0 013.001.001zm20 0a1.5 1.5 0 11-3.001-.001 1.5 1.5 0 013.001.001zm20 0a1.5 1.5 0 11-3.001-.001 1.5 1.5 0 013.001.001zm20 0a1.5 1.5 0 11-3.001-.001 1.5 1.5 0 013.001.001zm-100 20a1.5 1.5 0 11-3.001-.001 1.5 1.5 0 013.001.001zm20 0a1.5 1.5 0 11-3.001-.001 1.5 1.5 0 013.001.001zm20 0a1.5 1.5 0 11-3.001-.001 1.5 1.5 0 013.001.001zm20 0a1.5 1.5 0 11-3.001-.001 1.5 1.5 0 013.001.001zm-60 20a1.5 1.5 0 11-3.001-.001 1.5 1.5 0 013.001.001zm20 0a1.5 1.5 0 11-3.001-.001 1.5 1.5 0 013.001.001zm-540 40a1.5 1.5 0 11-3.001-.001 1.5 1.5 0 013.001.001zm20 0a1.5 1.5 0 11-3.001-.001 1.5 1.5 0 013.001.001zm20 0a1.5 1.5 0 11-3.001-.001 1.5 1.5 0 013.001.001zm20 0a1.5 1.5 0 11-3.001-.001 1.5 1.5 0 013.001.001zm20 0a1.5 1.5 0 11-3.001-.001 1.5 1.5 0 013.001.001zm20 0a1.5 1.5 0 11-3.001-.001 1.5 1.5 0 013.001.001zm20 0a1.5 1.5 0 11-3.001-.001 1.5 1.5 0 013.001.001zm20 0a1.5 1.5 0 11-3.001-.001 1.5 1.5 0 013.001.001zm20 0a1.5 1.5 0 11-3.001-.001 1.5 1.5 0 013.001.001zm20 0a1.5 1.5 0 11-3.001-.001 1.5 1.5 0 013.001.001zm20 0a1.5 1.5 0 11-3.001-.001 1.5 1.5 0 013.001.001zm20 0a1.5 1.5 0 11-3.001-.001 1.5 1.5 0 013.001.001zm20 0a1.5 1.5 0 11-3.001-.001 1.5 1.5 0 013.001.001zm20 0a1.5 1.5 0 11-3.001-.001 1.5 1.5 0 013.001.001zm20 0a1.5 1.5 0 11-3.001-.001 1.5 1.5 0 013.001.001zm20 0a1.5 1.5 0 11-3.001-.001 1.5 1.5 0 013.001.001zm20 0a1.5 1.5 0 11-3.001-.001 1.5 1.5 0 013.001.001zm20 0a1.5 1.5 0 11-3.001-.001 1.5 1.5 0 013.001.001zm20 0a1.5 1.5 0 11-3.001-.001 1.5 1.5 0 013.001.001zm20 0a1.5 1.5 0 11-3.001-.001 1.5 1.5 0 013.001.001zm20 0a1.5 1.5 0 11-3.001-.001 1.5 1.5 0 013.001.001zm20 0a1.5 1.5 0 11-3.001-.001 1.5 1.5 0 013.001.001zm20 0a1.5 1.5 0 11-3.001-.001 1.5 1.5 0 013.001.001zm-540-560a1.5 1.5 0 11-3 0 1.5 1.5 0 013 0zm-20 20a1.5 1.5 0 11-3 0 1.5 1.5 0 013 0zm20 0a1.5 1.5 0 11-3 0 1.5 1.5 0 013 0zm-20 20a1.5 1.5 0 11-3 0 1.5 1.5 0 013 0zm20 0a1.5 1.5 0 11-3 0 1.5 1.5 0 013 0zm-20 20a1.5 1.5 0 11-3 0 1.5 1.5 0 013 0zm20 0a1.5 1.5 0 11-3 0 1.5 1.5 0 013 0zm200-180a1.5 1.5 0 11-3 0 1.5 1.5 0 013 0zm20 0a1.5 1.5 0 11-3 0 1.5 1.5 0 013 0zm20 0a1.5 1.5 0 11-3 0 1.5 1.5 0 013 0zm20 0a1.5 1.5 0 11-3 0 1.5 1.5 0 013 0zm20 0a1.5 1.5 0 11-3 0 1.5 1.5 0 013 0zm20 0a1.5 1.5 0 11-3 0 1.5 1.5 0 013 0zm-220 20a1.5 1.5 0 11-3 0 1.5 1.5 0 013 0zm20 0a1.5 1.5 0 11-3 0 1.5 1.5 0 013 0zm20 0a1.5 1.5 0 11-3 0 1.5 1.5 0 013 0zm20 0a1.5 1.5 0 11-3 0 1.5 1.5 0 013 0zm20 0a1.5 1.5 0 11-3 0 1.5 1.5 0 013 0zm20 0a1.5 1.5 0 11-3 0 1.5 1.5 0 013 0zm20 0a1.5 1.5 0 11-3 0 1.5 1.5 0 013 0zm20 0a1.5 1.5 0 11-3 0 1.5 1.5 0 013 0zm20 0a1.5 1.5 0 11-3 0 1.5 1.5 0 013 0zm20 0a1.5 1.5 0 11-3 0 1.5 1.5 0 013 0zm20 0a1.5 1.5 0 11-3 0 1.5 1.5 0 013 0zm20 0a1.5 1.5 0 11-3 0 1.5 1.5 0 013 0zm-240 20a1.5 1.5 0 11-3 0 1.5 1.5 0 013 0zm20 0a1.5 1.5 0 11-3 0 1.5 1.5 0 013 0zm20 0a1.5 1.5 0 11-3 0 1.5 1.5 0 013 0zm20 0a1.5 1.5 0 11-3 0 1.5 1.5 0 013 0zm20 0a1.5 1.5 0 11-3 0 1.5 1.5 0 013 0zm20 0a1.5 1.5 0 11-3 0 1.5 1.5 0 013 0zm20 0a1.5 1.5 0 11-3 0 1.5 1.5 0 013 0zm20 0a1.5 1.5 0 11-3 0 1.5 1.5 0 013 0zm20 0a1.5 1.5 0 11-3 0 1.5 1.5 0 013 0zm20 0a1.5 1.5 0 11-3 0 1.5 1.5 0 013 0zm20 0a1.5 1.5 0 11-3 0 1.5 1.5 0 013 0zm20 0a1.5 1.5 0 11-3 0 1.5 1.5 0 013 0zm20 0a1.5 1.5 0 11-3 0 1.5 1.5 0 013 0zm-260 20a1.5 1.5 0 11-3 0 1.5 1.5 0 013 0zm20 0a1.5 1.5 0 11-3 0 1.5 1.5 0 013 0zm20 0a1.5 1.5 0 11-3 0 1.5 1.5 0 013 0zm20 0a1.5 1.5 0 11-3 0 1.5 1.5 0 013 0zm20 0a1.5 1.5 0 11-3 0 1.5 1.5 0 013 0zm20 0a1.5 1.5 0 11-3 0 1.5 1.5 0 013 0zm20 0a1.5 1.5 0 11-3 0 1.5 1.5 0 013 0zm20 0a1.5 1.5 0 11-3 0 1.5 1.5 0 013 0zm20 0a1.5 1.5 0 11-3 0 1.5 1.5 0 013 0zm20 0a1.5 1.5 0 11-3 0 1.5 1.5 0 013 0zm20 0a1.5 1.5 0 11-3 0 1.5 1.5 0 013 0zm20 0a1.5 1.5 0 11-3 0 1.5 1.5 0 013 0zm20 0a1.5 1.5 0 11-3 0 1.5 1.5 0 013 0zm20 0a1.5 1.5 0 11-3 0 1.5 1.5 0 013 0zm-260 20a1.5 1.5 0 11-3 0 1.5 1.5 0 013 0zm20 0a1.5 1.5 0 11-3 0 1.5 1.5 0 013 0zm20 0a1.5 1.5 0 11-3 0 1.5 1.5 0 013 0zm20 0a1.5 1.5 0 11-3 0 1.5 1.5 0 013 0zm20 0a1.5 1.5 0 11-3 0 1.5 1.5 0 013 0zm20 0a1.5 1.5 0 11-3 0 1.5 1.5 0 013 0zm20 0a1.5 1.5 0 11-3 0 1.5 1.5 0 013 0zm20 0a1.5 1.5 0 11-3 0 1.5 1.5 0 013 0zm20 0a1.5 1.5 0 11-3 0 1.5 1.5 0 013 0zm20 0a1.5 1.5 0 11-3 0 1.5 1.5 0 013 0zm20 0a1.5 1.5 0 11-3 0 1.5 1.5 0 013 0zm20 0a1.5 1.5 0 11-3 0 1.5 1.5 0 013 0zm20 0a1.5 1.5 0 11-3 0 1.5 1.5 0 013 0zm20 0a1.5 1.5 0 11-3 0 1.5 1.5 0 013 0zm-280 20a1.5 1.5 0 11-3 0 1.5 1.5 0 013 0zm20 0a1.5 1.5 0 11-3 0 1.5 1.5 0 013 0zm20 0a1.5 1.5 0 11-3 0 1.5 1.5 0 013 0zm20 0a1.5 1.5 0 11-3 0 1.5 1.5 0 013 0zm20 0a1.5 1.5 0 11-3.001-.001 1.5 1.5 0 013.001.001zm20 0a1.5 1.5 0 11-3.001-.001 1.5 1.5 0 013.001.001zm20 0a1.5 1.5 0 11-3.001-.001 1.5 1.5 0 013.001.001zm20 0a1.5 1.5 0 11-3.001-.001 1.5 1.5 0 013.001.001zm20 0a1.5 1.5 0 11-3.001-.001 1.5 1.5 0 013.001.001zm20 0a1.5 1.5 0 11-3.001-.001 1.5 1.5 0 013.001.001zm20 0a1.5 1.5 0 11-3.001-.001 1.5 1.5 0 013.001.001zm20 0a1.5 1.5 0 11-3.001-.001 1.5 1.5 0 013.001.001zm20 0a1.5 1.5 0 11-3.001-.001 1.5 1.5 0 013.001.001zm20 0a1.5 1.5 0 11-3.001-.001 1.5 1.5 0 013.001.001zm20 0a1.5 1.5 0 11-3.001-.001 1.5 1.5 0 013.001.001zm-280 20a1.5 1.5 0 11-3 0 1.5 1.5 0 013 0zm20 0a1.5 1.5 0 11-3 0 1.5 1.5 0 013 0zm20 0a1.5 1.5 0 11-3 0 1.5 1.5 0 013 0zm20 0a1.5 1.5 0 11-3 0 1.5 1.5 0 013 0zm20 0a1.5 1.5 0 11-3.001-.001 1.5 1.5 0 013.001.001zm20 0a1.5 1.5 0 11-3.001-.001 1.5 1.5 0 013.001.001zm20 0a1.5 1.5 0 11-3.001-.001 1.5 1.5 0 013.001.001zm20 0a1.5 1.5 0 11-3.001-.001 1.5 1.5 0 013.001.001zm20 0a1.5 1.5 0 11-3.001-.001 1.5 1.5 0 013.001.001zm20 0a1.5 1.5 0 11-3.001-.001 1.5 1.5 0 013.001.001zm20 0a1.5 1.5 0 11-3.001-.001 1.5 1.5 0 013.001.001zm20 0a1.5 1.5 0 11-3.001-.001 1.5 1.5 0 013.001.001zm20 0a1.5 1.5 0 11-3.001-.001 1.5 1.5 0 013.001.001zm20 0a1.5 1.5 0 11-3.001-.001 1.5 1.5 0 013.001.001zm20 0a1.5 1.5 0 11-3.001-.001 1.5 1.5 0 013.001.001zm-280 20a1.5 1.5 0 11-3 0 1.5 1.5 0 013 0zm20 0a1.5 1.5 0 11-3 0 1.5 1.5 0 013 0zm20 0a1.5 1.5 0 11-3 0 1.5 1.5 0 013 0zm20 0a1.5 1.5 0 11-3 0 1.5 1.5 0 013 0zm20 0a1.5 1.5 0 11-3.001-.001 1.5 1.5 0 013.001.001zm20 0a1.5 1.5 0 11-3.001-.001 1.5 1.5 0 013.001.001zm20 0a1.5 1.5 0 11-3.001-.001 1.5 1.5 0 013.001.001zm20 0a1.5 1.5 0 11-3.001-.001 1.5 1.5 0 013.001.001zm20 0a1.5 1.5 0 11-3.001-.001 1.5 1.5 0 013.001.001zm20 0a1.5 1.5 0 11-3.001-.001 1.5 1.5 0 013.001.001zm20 0a1.5 1.5 0 11-3.001-.001 1.5 1.5 0 013.001.001zm20 0a1.5 1.5 0 11-3.001-.001 1.5 1.5 0 013.001.001zm20 0a1.5 1.5 0 11-3.001-.001 1.5 1.5 0 013.001.001zm20 0a1.5 1.5 0 11-3.001-.001 1.5 1.5 0 013.001.001zm20 0a1.5 1.5 0 11-3.001-.001 1.5 1.5 0 013.001.001zm-280 20a1.5 1.5 0 11-3 0 1.5 1.5 0 013 0zm20 0a1.5 1.5 0 11-3 0 1.5 1.5 0 013 0zm20 0a1.5 1.5 0 11-3 0 1.5 1.5 0 013 0zm20 0a1.5 1.5 0 11-3 0 1.5 1.5 0 013 0zm20 0a1.5 1.5 0 11-3.001-.001 1.5 1.5 0 013.001.001zm20 0a1.5 1.5 0 11-3.001-.001 1.5 1.5 0 013.001.001zm20 0a1.5 1.5 0 11-3.001-.001 1.5 1.5 0 013.001.001zm20 0a1.5 1.5 0 11-3.001-.001 1.5 1.5 0 013.001.001zm20 0a1.5 1.5 0 11-3.001-.001 1.5 1.5 0 013.001.001zm20 0a1.5 1.5 0 11-3.001-.001 1.5 1.5 0 013.001.001zm20 0a1.5 1.5 0 11-3.001-.001 1.5 1.5 0 013.001.001zm20 0a1.5 1.5 0 11-3.001-.001 1.5 1.5 0 013.001.001zm20 0a1.5 1.5 0 11-3.001-.001 1.5 1.5 0 013.001.001zm20 0a1.5 1.5 0 11-3.001-.001 1.5 1.5 0 013.001.001zm20 0a1.5 1.5 0 11-3.001-.001 1.5 1.5 0 013.001.001zm-280 20a1.5 1.5 0 11-3 0 1.5 1.5 0 013 0zm20 0a1.5 1.5 0 11-3 0 1.5 1.5 0 013 0zm20 0a1.5 1.5 0 11-3 0 1.5 1.5 0 013 0zm20 0a1.5 1.5 0 11-3 0 1.5 1.5 0 013 0zm20 0a1.5 1.5 0 11-3.001-.001 1.5 1.5 0 013.001.001zm20 0a1.5 1.5 0 11-3.001-.001 1.5 1.5 0 013.001.001zm20 0a1.5 1.5 0 11-3.001-.001 1.5 1.5 0 013.001.001zm20 0a1.5 1.5 0 11-3.001-.001 1.5 1.5 0 013.001.001zm20 0a1.5 1.5 0 11-3.001-.001 1.5 1.5 0 013.001.001zm20 0a1.5 1.5 0 11-3.001-.001 1.5 1.5 0 013.001.001zm20 0a1.5 1.5 0 11-3.001-.001 1.5 1.5 0 013.001.001zm20 0a1.5 1.5 0 11-3.001-.001 1.5 1.5 0 013.001.001zm20 0a1.5 1.5 0 11-3.001-.001 1.5 1.5 0 013.001.001zm20 0a1.5 1.5 0 11-3.001-.001 1.5 1.5 0 013.001.001zm20 0a1.5 1.5 0 11-3.001-.001 1.5 1.5 0 013.001.001zm20-180a1.5 1.5 0 11-3 0 1.5 1.5 0 013 0zm20 0a1.5 1.5 0 11-3 0 1.5 1.5 0 013 0zm20 0a1.5 1.5 0 11-3 0 1.5 1.5 0 013 0zm20 0a1.5 1.5 0 11-3 0 1.5 1.5 0 013 0zm20 0a1.5 1.5 0 11-3 0 1.5 1.5 0 013 0zm20 0a1.5 1.5 0 11-3 0 1.5 1.5 0 013 0zm20 0a1.5 1.5 0 11-3 0 1.5 1.5 0 013 0zm20 0a1.5 1.5 0 11-3 0 1.5 1.5 0 013 0zm20 0a1.5 1.5 0 11-3 0 1.5 1.5 0 013 0zm20 0a1.5 1.5 0 11-3 0 1.5 1.5 0 013 0zm20 0a1.5 1.5 0 11-3 0 1.5 1.5 0 013 0zm20 0a1.5 1.5 0 11-3 0 1.5 1.5 0 013 0zm20 0a1.5 1.5 0 11-3 0 1.5 1.5 0 013 0zm20 0a1.5 1.5 0 11-3 0 1.5 1.5 0 013 0zm20 0a1.5 1.5 0 11-3 0 1.5 1.5 0 013 0zm-280 20a1.5 1.5 0 11-3 0 1.5 1.5 0 013 0zm20 0a1.5 1.5 0 11-3 0 1.5 1.5 0 013 0zm20 0a1.5 1.5 0 11-3 0 1.5 1.5 0 013 0zm20 0a1.5 1.5 0 11-3 0 1.5 1.5 0 013 0zm20 0a1.5 1.5 0 11-3 0 1.5 1.5 0 013 0zm20 0a1.5 1.5 0 11-3 0 1.5 1.5 0 013 0zm20 0a1.5 1.5 0 11-3 0 1.5 1.5 0 013 0zm20 0a1.5 1.5 0 11-3 0 1.5 1.5 0 013 0zm20 0a1.5 1.5 0 11-3 0 1.5 1.5 0 013 0zm20 0a1.5 1.5 0 11-3 0 1.5 1.5 0 013 0zm20 0a1.5 1.5 0 11-3 0 1.5 1.5 0 013 0zm20 0a1.5 1.5 0 11-3 0 1.5 1.5 0 013 0zm20 0a1.5 1.5 0 11-3 0 1.5 1.5 0 013 0zm20 0a1.5 1.5 0 11-3 0 1.5 1.5 0 013 0zm20 0a1.5 1.5 0 11-3 0 1.5 1.5 0 013 0zm-280 20a1.5 1.5 0 11-3 0 1.5 1.5 0 013 0zm20 0a1.5 1.5 0 11-3 0 1.5 1.5 0 013 0zm20 0a1.5 1.5 0 11-3 0 1.5 1.5 0 013 0zm20 0a1.5 1.5 0 11-3 0 1.5 1.5 0 013 0zm20 0a1.5 1.5 0 11-3 0 1.5 1.5 0 013 0zm20 0a1.5 1.5 0 11-3 0 1.5 1.5 0 013 0zm20 0a1.5 1.5 0 11-3 0 1.5 1.5 0 013 0zm20 0a1.5 1.5 0 11-3 0 1.5 1.5 0 013 0zm20 0a1.5 1.5 0 11-3 0 1.5 1.5 0 013 0zm20 0a1.5 1.5 0 11-3 0 1.5 1.5 0 013 0zm20 0a1.5 1.5 0 11-3 0 1.5 1.5 0 013 0zm20 0a1.5 1.5 0 11-3 0 1.5 1.5 0 013 0zm20 0a1.5 1.5 0 11-3 0 1.5 1.5 0 013 0zm20 0a1.5 1.5 0 11-3 0 1.5 1.5 0 013 0zm20 0a1.5 1.5 0 11-3 0 1.5 1.5 0 013 0zm-280 20a1.5 1.5 0 11-3 0 1.5 1.5 0 013 0zm20 0a1.5 1.5 0 11-3 0 1.5 1.5 0 013 0zm20 0a1.5 1.5 0 11-3 0 1.5 1.5 0 013 0zm20 0a1.5 1.5 0 11-3 0 1.5 1.5 0 013 0zm20 0a1.5 1.5 0 11-3 0 1.5 1.5 0 013 0zm20 0a1.5 1.5 0 11-3 0 1.5 1.5 0 013 0zm20 0a1.5 1.5 0 11-3 0 1.5 1.5 0 013 0zm20 0a1.5 1.5 0 11-3 0 1.5 1.5 0 013 0zm20 0a1.5 1.5 0 11-3 0 1.5 1.5 0 013 0zm20 0a1.5 1.5 0 11-3 0 1.5 1.5 0 013 0zm20 0a1.5 1.5 0 11-3 0 1.5 1.5 0 013 0zm20 0a1.5 1.5 0 11-3 0 1.5 1.5 0 013 0zm20 0a1.5 1.5 0 11-3 0 1.5 1.5 0 013 0zm20 0a1.5 1.5 0 11-3 0 1.5 1.5 0 013 0zm20 0a1.5 1.5 0 11-3 0 1.5 1.5 0 013 0zm-280 20a1.5 1.5 0 11-3 0 1.5 1.5 0 013 0zm20 0a1.5 1.5 0 11-3 0 1.5 1.5 0 013 0zm20 0a1.5 1.5 0 11-3 0 1.5 1.5 0 013 0zm20 0a1.5 1.5 0 11-3 0 1.5 1.5 0 013 0zm20 0a1.5 1.5 0 11-3 0 1.5 1.5 0 013 0zm20 0a1.5 1.5 0 11-3 0 1.5 1.5 0 013 0zm20 0a1.5 1.5 0 11-3 0 1.5 1.5 0 013 0zm20 0a1.5 1.5 0 11-3 0 1.5 1.5 0 013 0zm20 0a1.5 1.5 0 11-3 0 1.5 1.5 0 013 0zm20 0a1.5 1.5 0 11-3 0 1.5 1.5 0 013 0zm20 0a1.5 1.5 0 11-3 0 1.5 1.5 0 013 0zm20 0a1.5 1.5 0 11-3 0 1.5 1.5 0 013 0zm20 0a1.5 1.5 0 11-3 0 1.5 1.5 0 013 0zm20 0a1.5 1.5 0 11-3 0 1.5 1.5 0 013 0zm20 0a1.5 1.5 0 11-3 0 1.5 1.5 0 013 0zm-280 20a1.5 1.5 0 11-3.001-.001 1.5 1.5 0 013.001.001zm20 0a1.5 1.5 0 11-3.001-.001 1.5 1.5 0 013.001.001zm20 0a1.5 1.5 0 11-3.001-.001 1.5 1.5 0 013.001.001zm20 0a1.5 1.5 0 11-3.001-.001 1.5 1.5 0 013.001.001zm20 0a1.5 1.5 0 11-3.001-.001 1.5 1.5 0 013.001.001zm20 0a1.5 1.5 0 11-3.001-.001 1.5 1.5 0 013.001.001zm20 0a1.5 1.5 0 11-3.001-.001 1.5 1.5 0 013.001.001zm20 0a1.5 1.5 0 11-3.001-.001 1.5 1.5 0 013.001.001zm20 0a1.5 1.5 0 11-3.001-.001 1.5 1.5 0 013.001.001zm20 0a1.5 1.5 0 11-3.001-.001 1.5 1.5 0 013.001.001zm20 0a1.5 1.5 0 11-3.001-.001 1.5 1.5 0 013.001.001zm20 0a1.5 1.5 0 11-3.001-.001 1.5 1.5 0 013.001.001zm20 0a1.5 1.5 0 11-3.001-.001 1.5 1.5 0 013.001.001zm20 0a1.5 1.5 0 11-3.001-.001 1.5 1.5 0 013.001.001zm20 0a1.5 1.5 0 11-3.001-.001 1.5 1.5 0 013.001.001zm-280 20a1.5 1.5 0 11-3.001-.001 1.5 1.5 0 013.001.001zm20 0a1.5 1.5 0 11-3.001-.001 1.5 1.5 0 013.001.001zm20 0a1.5 1.5 0 11-3.001-.001 1.5 1.5 0 013.001.001zm20 0a1.5 1.5 0 11-3.001-.001 1.5 1.5 0 013.001.001zm20 0a1.5 1.5 0 11-3.001-.001 1.5 1.5 0 013.001.001zm20 0a1.5 1.5 0 11-3.001-.001 1.5 1.5 0 013.001.001zm20 0a1.5 1.5 0 11-3.001-.001 1.5 1.5 0 013.001.001zm20 0a1.5 1.5 0 11-3.001-.001 1.5 1.5 0 013.001.001zm20 0a1.5 1.5 0 11-3.001-.001 1.5 1.5 0 013.001.001zm20 0a1.5 1.5 0 11-3.001-.001 1.5 1.5 0 013.001.001zm20 0a1.5 1.5 0 11-3.001-.001 1.5 1.5 0 013.001.001zm20 0a1.5 1.5 0 11-3.001-.001 1.5 1.5 0 013.001.001zm20 0a1.5 1.5 0 11-3.001-.001 1.5 1.5 0 013.001.001zm20 0a1.5 1.5 0 11-3.001-.001 1.5 1.5 0 013.001.001zm20 0a1.5 1.5 0 11-3.001-.001 1.5 1.5 0 013.001.001zm-280 20a1.5 1.5 0 11-3.001-.001 1.5 1.5 0 013.001.001zm20 0a1.5 1.5 0 11-3.001-.001 1.5 1.5 0 013.001.001zm20 0a1.5 1.5 0 11-3.001-.001 1.5 1.5 0 013.001.001zm20 0a1.5 1.5 0 11-3.001-.001 1.5 1.5 0 013.001.001zm20 0a1.5 1.5 0 11-3.001-.001 1.5 1.5 0 013.001.001zm20 0a1.5 1.5 0 11-3.001-.001 1.5 1.5 0 013.001.001zm20 0a1.5 1.5 0 11-3.001-.001 1.5 1.5 0 013.001.001zm20 0a1.5 1.5 0 11-3.001-.001 1.5 1.5 0 013.001.001zm20 0a1.5 1.5 0 11-3.001-.001 1.5 1.5 0 013.001.001zm20 0a1.5 1.5 0 11-3.001-.001 1.5 1.5 0 013.001.001zm20 0a1.5 1.5 0 11-3.001-.001 1.5 1.5 0 013.001.001zm20 0a1.5 1.5 0 11-3.001-.001 1.5 1.5 0 013.001.001zm20 0a1.5 1.5 0 11-3.001-.001 1.5 1.5 0 013.001.001zm20 0a1.5 1.5 0 11-3.001-.001 1.5 1.5 0 013.001.001zm20 0a1.5 1.5 0 11-3.001-.001 1.5 1.5 0 013.001.001zm-280 20a1.5 1.5 0 11-3.001-.001 1.5 1.5 0 013.001.001zm20 0a1.5 1.5 0 11-3.001-.001 1.5 1.5 0 013.001.001zm20 0a1.5 1.5 0 11-3.001-.001 1.5 1.5 0 013.001.001zm20 0a1.5 1.5 0 11-3.001-.001 1.5 1.5 0 013.001.001zm20 0a1.5 1.5 0 11-3.001-.001 1.5 1.5 0 013.001.001zm20 0a1.5 1.5 0 11-3.001-.001 1.5 1.5 0 013.001.001zm20 0a1.5 1.5 0 11-3.001-.001 1.5 1.5 0 013.001.001zm20 0a1.5 1.5 0 11-3.001-.001 1.5 1.5 0 013.001.001zm20 0a1.5 1.5 0 11-3.001-.001 1.5 1.5 0 013.001.001zm20 0a1.5 1.5 0 11-3.001-.001 1.5 1.5 0 013.001.001zm20 0a1.5 1.5 0 11-3.001-.001 1.5 1.5 0 013.001.001zm20 0a1.5 1.5 0 11-3.001-.001 1.5 1.5 0 013.001.001zm20 0a1.5 1.5 0 11-3.001-.001 1.5 1.5 0 013.001.001zm20 0a1.5 1.5 0 11-3.001-.001 1.5 1.5 0 013.001.001zm20 0a1.5 1.5 0 11-3.001-.001 1.5 1.5 0 013.001.001zm-280 20a1.5 1.5 0 11-3.001-.001 1.5 1.5 0 013.001.001zm20 0a1.5 1.5 0 11-3.001-.001 1.5 1.5 0 013.001.001zm20 0a1.5 1.5 0 11-3.001-.001 1.5 1.5 0 013.001.001zm20 0a1.5 1.5 0 11-3.001-.001 1.5 1.5 0 013.001.001zm20 0a1.5 1.5 0 11-3.001-.001 1.5 1.5 0 013.001.001zm20 0a1.5 1.5 0 11-3.001-.001 1.5 1.5 0 013.001.001zm20 0a1.5 1.5 0 11-3.001-.001 1.5 1.5 0 013.001.001zm20 0a1.5 1.5 0 11-3.001-.001 1.5 1.5 0 013.001.001zm20 0a1.5 1.5 0 11-3.001-.001 1.5 1.5 0 013.001.001zm20 0a1.5 1.5 0 11-3.001-.001 1.5 1.5 0 013.001.001zm20 0a1.5 1.5 0 11-3.001-.001 1.5 1.5 0 013.001.001zm20 0a1.5 1.5 0 11-3.001-.001 1.5 1.5 0 013.001.001zm20 0a1.5 1.5 0 11-3.001-.001 1.5 1.5 0 013.001.001zm20 0a1.5 1.5 0 11-3.001-.001 1.5 1.5 0 013.001.001zm20 0a1.5 1.5 0 11-3.001-.001 1.5 1.5 0 013.001.001zm20-180a1.5 1.5 0 11-3 0 1.5 1.5 0 013 0zm20 0a1.5 1.5 0 11-3 0 1.5 1.5 0 013 0zm20 0a1.5 1.5 0 11-3 0 1.5 1.5 0 013 0zm20 0a1.5 1.5 0 11-3 0 1.5 1.5 0 013 0zm20 0a1.5 1.5 0 11-3 0 1.5 1.5 0 013 0zm20 0a1.5 1.5 0 11-3 0 1.5 1.5 0 013 0zm20 0a1.5 1.5 0 11-3 0 1.5 1.5 0 013 0zm-120 20a1.5 1.5 0 11-3 0 1.5 1.5 0 013 0zm20 0a1.5 1.5 0 11-3 0 1.5 1.5 0 013 0zm20 0a1.5 1.5 0 11-3 0 1.5 1.5 0 013 0zm20 0a1.5 1.5 0 11-3 0 1.5 1.5 0 013 0zm20 0a1.5 1.5 0 11-3 0 1.5 1.5 0 013 0zm20 0a1.5 1.5 0 11-3 0 1.5 1.5 0 013 0zm20 0a1.5 1.5 0 11-3 0 1.5 1.5 0 013 0zm20 0a1.5 1.5 0 11-3 0 1.5 1.5 0 013 0zm-140 20a1.5 1.5 0 11-3 0 1.5 1.5 0 013 0zm20 0a1.5 1.5 0 11-3 0 1.5 1.5 0 013 0zm20 0a1.5 1.5 0 11-3 0 1.5 1.5 0 013 0zm20 0a1.5 1.5 0 11-3 0 1.5 1.5 0 013 0zm20 0a1.5 1.5 0 11-3 0 1.5 1.5 0 013 0zm20 0a1.5 1.5 0 11-3 0 1.5 1.5 0 013 0zm20 0a1.5 1.5 0 11-3 0 1.5 1.5 0 013 0zm20 0a1.5 1.5 0 11-3 0 1.5 1.5 0 013 0zm20 0a1.5 1.5 0 11-3 0 1.5 1.5 0 013 0zm-160 20a1.5 1.5 0 11-3 0 1.5 1.5 0 013 0zm20 0a1.5 1.5 0 11-3 0 1.5 1.5 0 013 0zm20 0a1.5 1.5 0 11-3 0 1.5 1.5 0 013 0zm20 0a1.5 1.5 0 11-3 0 1.5 1.5 0 013 0zm20 0a1.5 1.5 0 11-3 0 1.5 1.5 0 013 0zm20 0a1.5 1.5 0 11-3 0 1.5 1.5 0 013 0zm20 0a1.5 1.5 0 11-3 0 1.5 1.5 0 013 0zm20 0a1.5 1.5 0 11-3 0 1.5 1.5 0 013 0zm20 0a1.5 1.5 0 11-3 0 1.5 1.5 0 013 0zm-160 20a1.5 1.5 0 11-3 0 1.5 1.5 0 013 0zm20 0a1.5 1.5 0 11-3 0 1.5 1.5 0 013 0zm20 0a1.5 1.5 0 11-3 0 1.5 1.5 0 013 0zm20 0a1.5 1.5 0 11-3 0 1.5 1.5 0 013 0zm20 0a1.5 1.5 0 11-3 0 1.5 1.5 0 013 0zm20 0a1.5 1.5 0 11-3 0 1.5 1.5 0 013 0zm20 0a1.5 1.5 0 11-3 0 1.5 1.5 0 013 0zm20 0a1.5 1.5 0 11-3 0 1.5 1.5 0 013 0zm20 0a1.5 1.5 0 11-3 0 1.5 1.5 0 013 0zm-160 20a1.5 1.5 0 11-3.001-.001 1.5 1.5 0 013.001.001zm20 0a1.5 1.5 0 11-3.001-.001 1.5 1.5 0 013.001.001zm20 0a1.5 1.5 0 11-3.001-.001 1.5 1.5 0 013.001.001zm20 0a1.5 1.5 0 11-3.001-.001 1.5 1.5 0 013.001.001zm20 0a1.5 1.5 0 11-3.001-.001 1.5 1.5 0 013.001.001zm20 0a1.5 1.5 0 11-3.001-.001 1.5 1.5 0 013.001.001zm20 0a1.5 1.5 0 11-3.001-.001 1.5 1.5 0 013.001.001zm20 0a1.5 1.5 0 11-3.001-.001 1.5 1.5 0 013.001.001zm20 0a1.5 1.5 0 11-3.001-.001 1.5 1.5 0 013.001.001zm-160 20a1.5 1.5 0 11-3.001-.001 1.5 1.5 0 013.001.001zm20 0a1.5 1.5 0 11-3.001-.001 1.5 1.5 0 013.001.001zm20 0a1.5 1.5 0 11-3.001-.001 1.5 1.5 0 013.001.001zm20 0a1.5 1.5 0 11-3.001-.001 1.5 1.5 0 013.001.001zm20 0a1.5 1.5 0 11-3.001-.001 1.5 1.5 0 013.001.001zm20 0a1.5 1.5 0 11-3.001-.001 1.5 1.5 0 013.001.001zm20 0a1.5 1.5 0 11-3.001-.001 1.5 1.5 0 013.001.001zm20 0a1.5 1.5 0 11-3.001-.001 1.5 1.5 0 013.001.001zm20 0a1.5 1.5 0 11-3.001-.001 1.5 1.5 0 013.001.001zm-160 20a1.5 1.5 0 11-3.001-.001 1.5 1.5 0 013.001.001zm20 0a1.5 1.5 0 11-3.001-.001 1.5 1.5 0 013.001.001zm20 0a1.5 1.5 0 11-3.001-.001 1.5 1.5 0 013.001.001zm20 0a1.5 1.5 0 11-3.001-.001 1.5 1.5 0 013.001.001zm20 0a1.5 1.5 0 11-3.001-.001 1.5 1.5 0 013.001.001zm20 0a1.5 1.5 0 11-3.001-.001 1.5 1.5 0 013.001.001zm20 0a1.5 1.5 0 11-3.001-.001 1.5 1.5 0 013.001.001zm20 0a1.5 1.5 0 11-3.001-.001 1.5 1.5 0 013.001.001zm20 0a1.5 1.5 0 11-3.001-.001 1.5 1.5 0 013.001.001zm-160 20a1.5 1.5 0 11-3.001-.001 1.5 1.5 0 013.001.001zm20 0a1.5 1.5 0 11-3.001-.001 1.5 1.5 0 013.001.001zm20 0a1.5 1.5 0 11-3.001-.001 1.5 1.5 0 013.001.001zm20 0a1.5 1.5 0 11-3.001-.001 1.5 1.5 0 013.001.001zm20 0a1.5 1.5 0 11-3.001-.001 1.5 1.5 0 013.001.001zm20 0a1.5 1.5 0 11-3.001-.001 1.5 1.5 0 013.001.001zm20 0a1.5 1.5 0 11-3.001-.001 1.5 1.5 0 013.001.001zm20 0a1.5 1.5 0 11-3.001-.001 1.5 1.5 0 013.001.001zm20 0a1.5 1.5 0 11-3.001-.001 1.5 1.5 0 013.001.001zm-160 20a1.5 1.5 0 11-3.001-.001 1.5 1.5 0 013.001.001zm20 0a1.5 1.5 0 11-3.001-.001 1.5 1.5 0 013.001.001zm20 0a1.5 1.5 0 11-3.001-.001 1.5 1.5 0 013.001.001zm20 0a1.5 1.5 0 11-3.001-.001 1.5 1.5 0 013.001.001zm20 0a1.5 1.5 0 11-3.001-.001 1.5 1.5 0 013.001.001zm20 0a1.5 1.5 0 11-3.001-.001 1.5 1.5 0 013.001.001zm20 0a1.5 1.5 0 11-3.001-.001 1.5 1.5 0 013.001.001zm20 0a1.5 1.5 0 11-3.001-.001 1.5 1.5 0 013.001.001zm20 0a1.5 1.5 0 11-3.001-.001 1.5 1.5 0 013.001.001zm-820 20a1.5 1.5 0 11-3 0 1.5 1.5 0 013 0zm0 20a1.5 1.5 0 11-3 0 1.5 1.5 0 013 0zm0 20a1.5 1.5 0 11-3 0 1.5 1.5 0 013 0zm0 20a1.5 1.5 0 11-3 0 1.5 1.5 0 013 0zm0 20a1.5 1.5 0 11-3 0 1.5 1.5 0 013 0zm0 20a1.5 1.5 0 11-3 0 1.5 1.5 0 013 0zm0 20a1.5 1.5 0 11-3 0 1.5 1.5 0 013 0zm0 20a1.5 1.5 0 11-3 0 1.5 1.5 0 013 0zm0 20a1.5 1.5 0 11-3 0 1.5 1.5 0 013 0zm0 20a1.5 1.5 0 11-3 0 1.5 1.5 0 013 0zm0 20a1.5 1.5 0 11-3 0 1.5 1.5 0 013 0zm0 20a1.5 1.5 0 11-3 0 1.5 1.5 0 013 0zm0 20a1.5 1.5 0 11-3 0 1.5 1.5 0 013 0zm0 20a1.5 1.5 0 11-3 0 1.5 1.5 0 013 0zm0 20a1.5 1.5 0 11-3 0 1.5 1.5 0 013 0zm0 20a1.5 1.5 0 11-3 0 1.5 1.5 0 013 0zm0-340a1.5 1.5 0 11-3 0 1.5 1.5 0 013 0zm0 20a1.5 1.5 0 11-3 0 1.5 1.5 0 013 0z" opacity=".1" fill="#000"/><path d="M175.56 69.488c10.043-26.979 37.832-43.023 66.218-38.23l179.107 30.236c24.491 4.134 43.902 22.93 48.823 47.274l32.276 159.664c5.107 25.262-6.49 50.963-28.811 63.85l-152.616 88.113c-22.32 12.887-50.377 10.079-69.701-6.974L128.721 305.637c-18.622-16.434-25.194-42.643-16.529-65.919l63.368-170.23z" fill="url(#paint0_linear)" filter="url(#filter0_di)"/><path d="M176.853 500.496a20.001 20.001 0 0122.073-12.744l59.702 10.079a20.002 20.002 0 0116.275 15.758l10.758 53.222a19.999 19.999 0 01-9.603 21.283l-50.872 29.371a19.999 19.999 0 01-23.234-2.325l-40.712-35.928a19.999 19.999 0 01-5.509-21.973l21.122-56.743z" fill="url(#paint1_linear)" filter="url(#filter1_di)"/><path d="M508.853 537.496a20.001 20.001 0 0122.073-12.744l59.702 10.079a20.002 20.002 0 0116.275 15.758l10.758 53.222a19.999 19.999 0 01-9.603 21.283l-50.872 29.371a19.999 19.999 0 01-23.234-2.325l-40.712-35.928a19.999 19.999 0 01-5.509-21.973l21.122-56.743z" fill="url(#paint2_linear)" filter="url(#filter2_di)"/><path d="M557.707 379.992c6.695-17.986 25.221-28.682 44.145-25.487l119.405 20.157a40 40 0 0132.548 31.517l21.518 106.442c3.404 16.842-4.327 33.976-19.207 42.567L654.371 613.93c-14.88 8.591-33.584 6.719-46.467-4.65l-81.423-71.855a40 40 0 01-11.02-43.946l42.246-113.487z" fill="url(#paint3_linear)" filter="url(#filter3_di)"/><path d="M630.853 148.496a20.001 20.001 0 0122.073-12.744l59.702 10.079a20.002 20.002 0 0116.275 15.758l10.758 53.222a19.999 19.999 0 01-9.603 21.283l-50.872 29.371a19.999 19.999 0 01-23.234-2.325l-40.712-35.928a19.999 19.999 0 01-5.509-21.973l21.122-56.743z" fill="url(#paint4_linear)" filter="url(#filter4_di)"/><path d="M711.426 188.248a10.002 10.002 0 0111.037-6.372l29.851 5.04a9.998 9.998 0 018.137 7.879l5.379 26.61a9.998 9.998 0 01-4.801 10.642l-25.436 14.685a10 10 0 01-11.617-1.162l-20.356-17.964a10 10 0 01-2.755-10.986l10.561-28.372z" fill="url(#paint5_linear)" filter="url(#filter5_di)"/><defs><linearGradient id="paint0_linear" x1="146.812" y1="56.3" x2="403.65" y2="371.259" gradientUnits="userSpaceOnUse"><stop stop-color="#84DFFF"/><stop offset="1" stop-color="#49CCF9"/></linearGradient><linearGradient id="paint1_linear" x1="167.271" y1="496.1" x2="252.883" y2="601.086" gradientUnits="userSpaceOnUse"><stop stop-color="#84DFFF"/><stop offset="1" stop-color="#49CCF9"/></linearGradient><linearGradient id="paint2_linear" x1="499.271" y1="533.1" x2="584.883" y2="638.086" gradientUnits="userSpaceOnUse"><stop stop-color="#84DFFF"/><stop offset="1" stop-color="#49CCF9"/></linearGradient><linearGradient id="paint3_linear" x1="538.541" y1="371.2" x2="709.767" y2="581.172" gradientUnits="userSpaceOnUse"><stop stop-color="#84DFFF"/><stop offset="1" stop-color="#49CCF9"/></linearGradient><linearGradient id="paint4_linear" x1="621.271" y1="144.1" x2="706.883" y2="249.086" gradientUnits="userSpaceOnUse"><stop stop-color="#84DFFF"/><stop offset="1" stop-color="#49CCF9"/></linearGradient><linearGradient id="paint5_linear" x1="706.635" y1="186.05" x2="749.441" y2="238.543" gradientUnits="userSpaceOnUse"><stop stop-color="#84DFFF"/><stop offset="1" stop-color="#49CCF9"/></linearGradient><filter id="filter0_di" x="63.419" y=".415" width="484.758" height="488.019" filterUnits="userSpaceOnUse" color-interpolation-filters="sRGB"><feFlood flood-opacity="0" result="BackgroundImageFix"/><feColorMatrix in="SourceAlpha" values="0 0 0 0 0 0 0 0 0 0 0 0 0 0 0 0 0 0 127 0"/><feOffset dy="15"/><feGaussianBlur stdDeviation="22.5"/><feColorMatrix values="0 0 0 0 0.286275 0 0 0 0 0.8 0 0 0 0 0.976471 0 0 0 0.5 0"/><feBlend in2="BackgroundImageFix" result="effect1_dropShadow"/><feBlend in="SourceGraphic" in2="effect1_dropShadow" result="shape"/><feColorMatrix in="SourceAlpha" values="0 0 0 0 0 0 0 0 0 0 0 0 0 0 0 0 0 0 127 0" result="hardAlpha"/><feOffset/><feGaussianBlur stdDeviation="5"/><feComposite in2="hardAlpha" operator="arithmetic" k2="-1" k3="1"/><feColorMatrix values="0 0 0 0 1 0 0 0 0 1 0 0 0 0 1 0 0 0 0.25 0"/><feBlend in2="shape" result="effect2_innerShadow"/></filter><filter id="filter1_di" x="109.473" y="457.472" width="221.586" height="222.673" filterUnits="userSpaceOnUse" color-interpolation-filters="sRGB"><feFlood flood-opacity="0" result="BackgroundImageFix"/><feColorMatrix in="SourceAlpha" values="0 0 0 0 0 0 0 0 0 0 0 0 0 0 0 0 0 0 127 0"/><feOffset dy="15"/><feGaussianBlur stdDeviation="22.5"/><feColorMatrix values="0 0 0 0 0.286275 0 0 0 0 0.8 0 0 0 0 0.976471 0 0 0 0.5 0"/><feBlend in2="BackgroundImageFix" result="effect1_dropShadow"/><feBlend in="SourceGraphic" in2="effect1_dropShadow" result="shape"/><feColorMatrix in="SourceAlpha" values="0 0 0 0 0 0 0 0 0 0 0 0 0 0 0 0 0 0 127 0" result="hardAlpha"/><feOffset/><feGaussianBlur stdDeviation="5"/><feComposite in2="hardAlpha" operator="arithmetic" k2="-1" k3="1"/><feColorMatrix values="0 0 0 0 1 0 0 0 0 1 0 0 0 0 1 0 0 0 0.25 0"/><feBlend in2="shape" result="effect2_innerShadow"/></filter><filter id="filter2_di" x="441.473" y="494.472" width="221.586" height="222.673" filterUnits="userSpaceOnUse" color-interpolation-filters="sRGB"><feFlood flood-opacity="0" result="BackgroundImageFix"/><feColorMatrix in="SourceAlpha" values="0 0 0 0 0 0 0 0 0 0 0 0 0 0 0 0 0 0 127 0"/><feOffset dy="15"/><feGaussianBlur stdDeviation="22.5"/><feColorMatrix values="0 0 0 0 0.286275 0 0 0 0 0.8 0 0 0 0 0.976471 0 0 0 0.5 0"/><feBlend in2="BackgroundImageFix" result="effect1_dropShadow"/><feBlend in="SourceGraphic" in2="effect1_dropShadow" result="shape"/><feColorMatrix in="SourceAlpha" values="0 0 0 0 0 0 0 0 0 0 0 0 0 0 0 0 0 0 127 0" result="hardAlpha"/><feOffset/><feGaussianBlur stdDeviation="5"/><feComposite in2="hardAlpha" operator="arithmetic" k2="-1" k3="1"/><feColorMatrix values="0 0 0 0 1 0 0 0 0 1 0 0 0 0 1 0 0 0 0.25 0"/><feBlend in2="shape" result="effect2_innerShadow"/></filter><filter id="filter3_di" x="467.946" y="323.943" width="353.172" height="355.346" filterUnits="userSpaceOnUse" color-interpolation-filters="sRGB"><feFlood flood-opacity="0" result="BackgroundImageFix"/><feColorMatrix in="SourceAlpha" values="0 0 0 0 0 0 0 0 0 0 0 0 0 0 0 0 0 0 127 0"/><feOffset dy="15"/><feGaussianBlur stdDeviation="22.5"/><feColorMatrix values="0 0 0 0 0.286275 0 0 0 0 0.8 0 0 0 0 0.976471 0 0 0 0.5 0"/><feBlend in2="BackgroundImageFix" result="effect1_dropShadow"/><feBlend in="SourceGraphic" in2="effect1_dropShadow" result="shape"/><feColorMatrix in="SourceAlpha" values="0 0 0 0 0 0 0 0 0 0 0 0 0 0 0 0 0 0 127 0" result="hardAlpha"/><feOffset/><feGaussianBlur stdDeviation="5"/><feComposite in2="hardAlpha" operator="arithmetic" k2="-1" k3="1"/><feColorMatrix values="0 0 0 0 1 0 0 0 0 1 0 0 0 0 1 0 0 0 0.25 0"/><feBlend in2="shape" result="effect2_innerShadow"/></filter><filter id="filter4_di" x="563.473" y="105.472" width="221.586" height="222.673" filterUnits="userSpaceOnUse" color-interpolation-filters="sRGB"><feFlood flood-opacity="0" result="BackgroundImageFix"/><feColorMatrix in="SourceAlpha" values="0 0 0 0 0 0 0 0 0 0 0 0 0 0 0 0 0 0 127 0"/><feOffset dy="15"/><feGaussianBlur stdDeviation="22.5"/><feColorMatrix values="0 0 0 0 0.286275 0 0 0 0 0.8 0 0 0 0 0.976471 0 0 0 0.5 0"/><feBlend in2="BackgroundImageFix" result="effect1_dropShadow"/><feBlend in="SourceGraphic" in2="effect1_dropShadow" result="shape"/><feColorMatrix in="SourceAlpha" values="0 0 0 0 0 0 0 0 0 0 0 0 0 0 0 0 0 0 127 0" result="hardAlpha"/><feOffset/><feGaussianBlur stdDeviation="5"/><feComposite in2="hardAlpha" operator="arithmetic" k2="-1" k3="1"/><feColorMatrix values="0 0 0 0 1 0 0 0 0 1 0 0 0 0 1 0 0 0 0.25 0"/><feBlend in2="shape" result="effect2_innerShadow"/></filter><filter id="filter5_di" x="655.236" y="151.736" width="155.793" height="156.337" filterUnits="userSpaceOnUse" color-interpolation-filters="sRGB"><feFlood flood-opacity="0" result="BackgroundImageFix"/><feColorMatrix in="SourceAlpha" values="0 0 0 0 0 0 0 0 0 0 0 0 0 0 0 0 0 0 127 0"/><feOffset dy="15"/><feGaussianBlur stdDeviation="22.5"/><feColorMatrix values="0 0 0 0 0.286275 0 0 0 0 0.8 0 0 0 0 0.976471 0 0 0 0.5 0"/><feBlend in2="BackgroundImageFix" result="effect1_dropShadow"/><feBlend in="SourceGraphic" in2="effect1_dropShadow" result="shape"/><feColorMatrix in="SourceAlpha" values="0 0 0 0 0 0 0 0 0 0 0 0 0 0 0 0 0 0 127 0" result="hardAlpha"/><feOffset/><feGaussianBlur stdDeviation="5"/><feComposite in2="hardAlpha" operator="arithmetic" k2="-1" k3="1"/><feColorMatrix values="0 0 0 0 1 0 0 0 0 1 0 0 0 0 1 0 0 0 0.25 0"/><feBlend in2="shape" result="effect2_innerShadow"/></filter></defs></svg>