<svg width="819" height="707" fill="none" xmlns="http://www.w3.org/2000/svg"><path d="M0 205.5a1.5 1.5 0 11-3 0 1.5 1.5 0 013 0zm20 0a1.5 1.5 0 11-3 0 1.5 1.5 0 013 0zm-20 20a1.5 1.5 0 11-3 0 1.5 1.5 0 013 0zm20 0a1.5 1.5 0 11-3 0 1.5 1.5 0 013 0zm-20 20a1.5 1.5 0 11-3 0 1.5 1.5 0 013 0zm20 0a1.5 1.5 0 11-3 0 1.5 1.5 0 013 0zm-20 20a1.5 1.5 0 11-3 0 1.5 1.5 0 013 0zm20 0a1.5 1.5 0 11-3 0 1.5 1.5 0 013 0zm-20 20a1.5 1.5 0 11-3 0 1.5 1.5 0 013 0zm20 0a1.5 1.5 0 11-3 0 1.5 1.5 0 013 0zm-20 20a1.5 1.5 0 11-3 0 1.5 1.5 0 013 0zm20 0a1.5 1.5 0 11-3 0 1.5 1.5 0 013 0zm-20 20a1.5 1.5 0 11-3 0 1.5 1.5 0 013 0zm20 0a1.5 1.5 0 11-3 0 1.5 1.5 0 013 0zm-20 20a1.5 1.5 0 11-3 0 1.5 1.5 0 013 0zm20 0a1.5 1.5 0 11-3 0 1.5 1.5 0 013 0zm-20 20a1.5 1.5 0 11-3 0 1.5 1.5 0 013 0zm20 0a1.5 1.5 0 11-3 0 1.5 1.5 0 013 0zm-20 20a1.5 1.5 0 11-3 0 1.5 1.5 0 013 0zm20 0a1.5 1.5 0 11-3 0 1.5 1.5 0 013 0zm-20 20a1.5 1.5 0 11-3 0 1.5 1.5 0 013 0zm20 0a1.5 1.5 0 11-3 0 1.5 1.5 0 013 0zm-20 20a1.5 1.5 0 11-3 0 1.5 1.5 0 013 0zm20 0a1.5 1.5 0 11-3 0 1.5 1.5 0 013 0zm20-220a1.5 1.5 0 11-3 0 1.5 1.5 0 013 0zm20 0a1.5 1.5 0 11-3 0 1.5 1.5 0 013 0zm20 0a1.5 1.5 0 11-3 0 1.5 1.5 0 013 0zm20 0a1.5 1.5 0 11-3 0 1.5 1.5 0 013 0zm20 0a1.5 1.5 0 11-3.001-.001 1.5 1.5 0 013.001.001zm20 0a1.5 1.5 0 11-3.001-.001 1.5 1.5 0 013.001.001zm20 0a1.5 1.5 0 11-3.001-.001 1.5 1.5 0 013.001.001zm20 0a1.5 1.5 0 11-3.001-.001 1.5 1.5 0 013.001.001zm20 0a1.5 1.5 0 11-3.001-.001 1.5 1.5 0 013.001.001zm20 0a1.5 1.5 0 11-3.001-.001 1.5 1.5 0 013.001.001zm20 0a1.5 1.5 0 11-3.001-.001 1.5 1.5 0 013.001.001zm20 0a1.5 1.5 0 11-3.001-.001 1.5 1.5 0 013.001.001zm20 0a1.5 1.5 0 11-3.001-.001 1.5 1.5 0 013.001.001zm20 0a1.5 1.5 0 11-3.001-.001 1.5 1.5 0 013.001.001zm20 0a1.5 1.5 0 11-3.001-.001 1.5 1.5 0 013.001.001zm-280 20a1.5 1.5 0 11-3 0 1.5 1.5 0 013 0zm20 0a1.5 1.5 0 11-3 0 1.5 1.5 0 013 0zm20 0a1.5 1.5 0 11-3 0 1.5 1.5 0 013 0zm20 0a1.5 1.5 0 11-3 0 1.5 1.5 0 013 0zm20 0a1.5 1.5 0 11-3.001-.001 1.5 1.5 0 013.001.001zm20 0a1.5 1.5 0 11-3.001-.001 1.5 1.5 0 013.001.001zm20 0a1.5 1.5 0 11-3.001-.001 1.5 1.5 0 013.001.001zm20 0a1.5 1.5 0 11-3.001-.001 1.5 1.5 0 013.001.001zm20 0a1.5 1.5 0 11-3.001-.001 1.5 1.5 0 013.001.001zm20 0a1.5 1.5 0 11-3.001-.001 1.5 1.5 0 013.001.001zm20 0a1.5 1.5 0 11-3.001-.001 1.5 1.5 0 013.001.001zm20 0a1.5 1.5 0 11-3.001-.001 1.5 1.5 0 013.001.001zm20 0a1.5 1.5 0 11-3.001-.001 1.5 1.5 0 013.001.001zm20 0a1.5 1.5 0 11-3.001-.001 1.5 1.5 0 013.001.001zm20 0a1.5 1.5 0 11-3.001-.001 1.5 1.5 0 013.001.001zm-280 20a1.5 1.5 0 11-3 0 1.5 1.5 0 013 0zm20 0a1.5 1.5 0 11-3 0 1.5 1.5 0 013 0zm20 0a1.5 1.5 0 11-3 0 1.5 1.5 0 013 0zm20 0a1.5 1.5 0 11-3 0 1.5 1.5 0 013 0zm20 0a1.5 1.5 0 11-3.001-.001 1.5 1.5 0 013.001.001zm20 0a1.5 1.5 0 11-3.001-.001 1.5 1.5 0 013.001.001zm20 0a1.5 1.5 0 11-3.001-.001 1.5 1.5 0 013.001.001zm20 0a1.5 1.5 0 11-3.001-.001 1.5 1.5 0 013.001.001zm20 0a1.5 1.5 0 11-3.001-.001 1.5 1.5 0 013.001.001zm20 0a1.5 1.5 0 11-3.001-.001 1.5 1.5 0 013.001.001zm20 0a1.5 1.5 0 11-3.001-.001 1.5 1.5 0 013.001.001zm20 0a1.5 1.5 0 11-3.001-.001 1.5 1.5 0 013.001.001zm20 0a1.5 1.5 0 11-3.001-.001 1.5 1.5 0 013.001.001zm20 0a1.5 1.5 0 11-3.001-.001 1.5 1.5 0 013.001.001zm20 0a1.5 1.5 0 11-3.001-.001 1.5 1.5 0 013.001.001zm-280 20a1.5 1.5 0 11-3 0 1.5 1.5 0 013 0zm20 0a1.5 1.5 0 11-3 0 1.5 1.5 0 013 0zm20 0a1.5 1.5 0 11-3 0 1.5 1.5 0 013 0zm20 0a1.5 1.5 0 11-3 0 1.5 1.5 0 013 0zm20 0a1.5 1.5 0 11-3.001-.001 1.5 1.5 0 013.001.001zm20 0a1.5 1.5 0 11-3.001-.001 1.5 1.5 0 013.001.001zm20 0a1.5 1.5 0 11-3.001-.001 1.5 1.5 0 013.001.001zm20 0a1.5 1.5 0 11-3.001-.001 1.5 1.5 0 013.001.001zm20 0a1.5 1.5 0 11-3.001-.001 1.5 1.5 0 013.001.001zm20 0a1.5 1.5 0 11-3.001-.001 1.5 1.5 0 013.001.001zm20 0a1.5 1.5 0 11-3.001-.001 1.5 1.5 0 013.001.001zm20 0a1.5 1.5 0 11-3.001-.001 1.5 1.5 0 013.001.001zm20 0a1.5 1.5 0 11-3.001-.001 1.5 1.5 0 013.001.001zm20 0a1.5 1.5 0 11-3.001-.001 1.5 1.5 0 013.001.001zm20 0a1.5 1.5 0 11-3.001-.001 1.5 1.5 0 013.001.001zm-280 20a1.5 1.5 0 11-3 0 1.5 1.5 0 013 0zm20 0a1.5 1.5 0 11-3 0 1.5 1.5 0 013 0zm20 0a1.5 1.5 0 11-3 0 1.5 1.5 0 013 0zm20 0a1.5 1.5 0 11-3 0 1.5 1.5 0 013 0zm20 0a1.5 1.5 0 11-3.001-.001 1.5 1.5 0 013.001.001zm20 0a1.5 1.5 0 11-3.001-.001 1.5 1.5 0 013.001.001zm20 0a1.5 1.5 0 11-3.001-.001 1.5 1.5 0 013.001.001zm20 0a1.5 1.5 0 11-3.001-.001 1.5 1.5 0 013.001.001zm20 0a1.5 1.5 0 11-3.001-.001 1.5 1.5 0 013.001.001zm20 0a1.5 1.5 0 11-3.001-.001 1.5 1.5 0 013.001.001zm20 0a1.5 1.5 0 11-3.001-.001 1.5 1.5 0 013.001.001zm20 0a1.5 1.5 0 11-3.001-.001 1.5 1.5 0 013.001.001zm20 0a1.5 1.5 0 11-3.001-.001 1.5 1.5 0 013.001.001zm20 0a1.5 1.5 0 11-3.001-.001 1.5 1.5 0 013.001.001zm20 0a1.5 1.5 0 11-3.001-.001 1.5 1.5 0 013.001.001zm-280 20a1.5 1.5 0 11-3 0 1.5 1.5 0 013 0zm20 0a1.5 1.5 0 11-3 0 1.5 1.5 0 013 0zm20 0a1.5 1.5 0 11-3 0 1.5 1.5 0 013 0zm20 0a1.5 1.5 0 11-3 0 1.5 1.5 0 013 0zm20 0a1.5 1.5 0 11-3.001-.001 1.5 1.5 0 013.001.001zm20 0a1.5 1.5 0 11-3.001-.001 1.5 1.5 0 013.001.001zm20 0a1.5 1.5 0 11-3.001-.001 1.5 1.5 0 013.001.001zm20 0a1.5 1.5 0 11-3.001-.001 1.5 1.5 0 013.001.001zm20 0a1.5 1.5 0 11-3.001-.001 1.5 1.5 0 013.001.001zm20 0a1.5 1.5 0 11-3.001-.001 1.5 1.5 0 013.001.001zm20 0a1.5 1.5 0 11-3.001-.001 1.5 1.5 0 013.001.001zm20 0a1.5 1.5 0 11-3.001-.001 1.5 1.5 0 013.001.001zm20 0a1.5 1.5 0 11-3.001-.001 1.5 1.5 0 013.001.001zm20 0a1.5 1.5 0 11-3.001-.001 1.5 1.5 0 013.001.001zm20 0a1.5 1.5 0 11-3.001-.001 1.5 1.5 0 013.001.001zm-280 20a1.5 1.5 0 11-3 0 1.5 1.5 0 013 0zm20 0a1.5 1.5 0 11-3 0 1.5 1.5 0 013 0zm20 0a1.5 1.5 0 11-3 0 1.5 1.5 0 013 0zm20 0a1.5 1.5 0 11-3 0 1.5 1.5 0 013 0zm20 0a1.5 1.5 0 11-3.001-.001 1.5 1.5 0 013.001.001zm20 0a1.5 1.5 0 11-3.001-.001 1.5 1.5 0 013.001.001zm20 0a1.5 1.5 0 11-3.001-.001 1.5 1.5 0 013.001.001zm20 0a1.5 1.5 0 11-3.001-.001 1.5 1.5 0 013.001.001zm20 0a1.5 1.5 0 11-3.001-.001 1.5 1.5 0 013.001.001zm20 0a1.5 1.5 0 11-3.001-.001 1.5 1.5 0 013.001.001zm20 0a1.5 1.5 0 11-3.001-.001 1.5 1.5 0 013.001.001zm20 0a1.5 1.5 0 11-3.001-.001 1.5 1.5 0 013.001.001zm20 0a1.5 1.5 0 11-3.001-.001 1.5 1.5 0 013.001.001zm20 0a1.5 1.5 0 11-3.001-.001 1.5 1.5 0 013.001.001zm20 0a1.5 1.5 0 11-3.001-.001 1.5 1.5 0 013.001.001zm-280 20a1.5 1.5 0 11-3 0 1.5 1.5 0 013 0zm20 0a1.5 1.5 0 11-3 0 1.5 1.5 0 013 0zm20 0a1.5 1.5 0 11-3 0 1.5 1.5 0 013 0zm20 0a1.5 1.5 0 11-3 0 1.5 1.5 0 013 0zm20 0a1.5 1.5 0 11-3.001-.001 1.5 1.5 0 013.001.001zm20 0a1.5 1.5 0 11-3.001-.001 1.5 1.5 0 013.001.001zm20 0a1.5 1.5 0 11-3.001-.001 1.5 1.5 0 013.001.001zm20 0a1.5 1.5 0 11-3.001-.001 1.5 1.5 0 013.001.001zm20 0a1.5 1.5 0 11-3.001-.001 1.5 1.5 0 013.001.001zm20 0a1.5 1.5 0 11-3.001-.001 1.5 1.5 0 013.001.001zm20 0a1.5 1.5 0 11-3.001-.001 1.5 1.5 0 013.001.001zm20 0a1.5 1.5 0 11-3.001-.001 1.5 1.5 0 013.001.001zm20 0a1.5 1.5 0 11-3.001-.001 1.5 1.5 0 013.001.001zm20 0a1.5 1.5 0 11-3.001-.001 1.5 1.5 0 013.001.001zm20 0a1.5 1.5 0 11-3.001-.001 1.5 1.5 0 013.001.001zm-280 20a1.5 1.5 0 11-3 0 1.5 1.5 0 013 0zm20 0a1.5 1.5 0 11-3 0 1.5 1.5 0 013 0zm20 0a1.5 1.5 0 11-3 0 1.5 1.5 0 013 0zm20 0a1.5 1.5 0 11-3 0 1.5 1.5 0 013 0zm20 0a1.5 1.5 0 11-3.001-.001 1.5 1.5 0 013.001.001zm20 0a1.5 1.5 0 11-3.001-.001 1.5 1.5 0 013.001.001zm20 0a1.5 1.5 0 11-3.001-.001 1.5 1.5 0 013.001.001zm20 0a1.5 1.5 0 11-3.001-.001 1.5 1.5 0 013.001.001zm20 0a1.5 1.5 0 11-3.001-.001 1.5 1.5 0 013.001.001zm20 0a1.5 1.5 0 11-3.001-.001 1.5 1.5 0 013.001.001zm20 0a1.5 1.5 0 11-3.001-.001 1.5 1.5 0 013.001.001zm20 0a1.5 1.5 0 11-3.001-.001 1.5 1.5 0 013.001.001zm20 0a1.5 1.5 0 11-3.001-.001 1.5 1.5 0 013.001.001zm20 0a1.5 1.5 0 11-3.001-.001 1.5 1.5 0 013.001.001zm20 0a1.5 1.5 0 11-3.001-.001 1.5 1.5 0 013.001.001zm-280 20a1.5 1.5 0 11-3 0 1.5 1.5 0 013 0zm20 0a1.5 1.5 0 11-3 0 1.5 1.5 0 013 0zm20 0a1.5 1.5 0 11-3 0 1.5 1.5 0 013 0zm20 0a1.5 1.5 0 11-3 0 1.5 1.5 0 013 0zm20 0a1.5 1.5 0 11-3.001-.001 1.5 1.5 0 013.001.001zm20 0a1.5 1.5 0 11-3.001-.001 1.5 1.5 0 013.001.001zm20 0a1.5 1.5 0 11-3.001-.001 1.5 1.5 0 013.001.001zm20 0a1.5 1.5 0 11-3.001-.001 1.5 1.5 0 013.001.001zm20 0a1.5 1.5 0 11-3.001-.001 1.5 1.5 0 013.001.001zm20 0a1.5 1.5 0 11-3.001-.001 1.5 1.5 0 013.001.001zm20 0a1.5 1.5 0 11-3.001-.001 1.5 1.5 0 013.001.001zm20 0a1.5 1.5 0 11-3.001-.001 1.5 1.5 0 013.001.001zm20 0a1.5 1.5 0 11-3.001-.001 1.5 1.5 0 013.001.001zm20 0a1.5 1.5 0 11-3.001-.001 1.5 1.5 0 013.001.001zm20 0a1.5 1.5 0 11-3.001-.001 1.5 1.5 0 013.001.001zm-280 20a1.5 1.5 0 11-3 0 1.5 1.5 0 013 0zm20 0a1.5 1.5 0 11-3 0 1.5 1.5 0 013 0zm20 0a1.5 1.5 0 11-3 0 1.5 1.5 0 013 0zm20 0a1.5 1.5 0 11-3 0 1.5 1.5 0 013 0zm20 0a1.5 1.5 0 11-3.001-.001 1.5 1.5 0 013.001.001zm20 0a1.5 1.5 0 11-3.001-.001 1.5 1.5 0 013.001.001zm20 0a1.5 1.5 0 11-3.001-.001 1.5 1.5 0 013.001.001zm20 0a1.5 1.5 0 11-3.001-.001 1.5 1.5 0 013.001.001zm20 0a1.5 1.5 0 11-3.001-.001 1.5 1.5 0 013.001.001zm20 0a1.5 1.5 0 11-3.001-.001 1.5 1.5 0 013.001.001zm20 0a1.5 1.5 0 11-3.001-.001 1.5 1.5 0 013.001.001zm20 0a1.5 1.5 0 11-3.001-.001 1.5 1.5 0 013.001.001zm20 0a1.5 1.5 0 11-3.001-.001 1.5 1.5 0 013.001.001zm20 0a1.5 1.5 0 11-3.001-.001 1.5 1.5 0 013.001.001zm20 0a1.5 1.5 0 11-3.001-.001 1.5 1.5 0 013.001.001zm-280 20a1.5 1.5 0 11-3 0 1.5 1.5 0 013 0zm20 0a1.5 1.5 0 11-3 0 1.5 1.5 0 013 0zm20 0a1.5 1.5 0 11-3 0 1.5 1.5 0 013 0zm20 0a1.5 1.5 0 11-3 0 1.5 1.5 0 013 0zm20 0a1.5 1.5 0 11-3.001-.001 1.5 1.5 0 013.001.001zm20 0a1.5 1.5 0 11-3.001-.001 1.5 1.5 0 013.001.001zm20 0a1.5 1.5 0 11-3.001-.001 1.5 1.5 0 013.001.001zm20 0a1.5 1.5 0 11-3.001-.001 1.5 1.5 0 013.001.001zm20 0a1.5 1.5 0 11-3.001-.001 1.5 1.5 0 013.001.001zm20 0a1.5 1.5 0 11-3.001-.001 1.5 1.5 0 013.001.001zm20 0a1.5 1.5 0 11-3.001-.001 1.5 1.5 0 013.001.001zm20 0a1.5 1.5 0 11-3.001-.001 1.5 1.5 0 013.001.001zm20 0a1.5 1.5 0 11-3.001-.001 1.5 1.5 0 013.001.001zm20 0a1.5 1.5 0 11-3.001-.001 1.5 1.5 0 013.001.001zm20 0a1.5 1.5 0 11-3.001-.001 1.5 1.5 0 013.001.001zm20-220a1.5 1.5 0 11-3.001-.001 1.5 1.5 0 013.001.001zm20 0a1.5 1.5 0 11-3.001-.001 1.5 1.5 0 013.001.001zm20 0a1.5 1.5 0 11-3.001-.001 1.5 1.5 0 013.001.001zm20 0a1.5 1.5 0 11-3.001-.001 1.5 1.5 0 013.001.001zm20 0a1.5 1.5 0 11-3.001-.001 1.5 1.5 0 013.001.001zm20 0a1.5 1.5 0 11-3.001-.001 1.5 1.5 0 013.001.001zm20 0a1.5 1.5 0 11-3.001-.001 1.5 1.5 0 013.001.001zm20 0a1.5 1.5 0 11-3.001-.001 1.5 1.5 0 013.001.001zm20 0a1.5 1.5 0 11-3.001-.001 1.5 1.5 0 013.001.001zm20 0a1.5 1.5 0 11-3.001-.001 1.5 1.5 0 013.001.001zm20 0a1.5 1.5 0 11-3.001-.001 1.5 1.5 0 013.001.001zm20 0a1.5 1.5 0 11-3.001-.001 1.5 1.5 0 013.001.001zm20 0a1.5 1.5 0 11-3.001-.001 1.5 1.5 0 013.001.001zm20 0a1.5 1.5 0 11-3.001-.001 1.5 1.5 0 013.001.001zm20 0a1.5 1.5 0 11-3.001-.001 1.5 1.5 0 013.001.001zm-280 20a1.5 1.5 0 11-3.001-.001 1.5 1.5 0 013.001.001zm20 0a1.5 1.5 0 11-3.001-.001 1.5 1.5 0 013.001.001zm20 0a1.5 1.5 0 11-3.001-.001 1.5 1.5 0 013.001.001zm20 0a1.5 1.5 0 11-3.001-.001 1.5 1.5 0 013.001.001zm20 0a1.5 1.5 0 11-3.001-.001 1.5 1.5 0 013.001.001zm20 0a1.5 1.5 0 11-3.001-.001 1.5 1.5 0 013.001.001zm20 0a1.5 1.5 0 11-3.001-.001 1.5 1.5 0 013.001.001zm20 0a1.5 1.5 0 11-3.001-.001 1.5 1.5 0 013.001.001zm20 0a1.5 1.5 0 11-3.001-.001 1.5 1.5 0 013.001.001zm20 0a1.5 1.5 0 11-3.001-.001 1.5 1.5 0 013.001.001zm20 0a1.5 1.5 0 11-3.001-.001 1.5 1.5 0 013.001.001zm20 0a1.5 1.5 0 11-3.001-.001 1.5 1.5 0 013.001.001zm20 0a1.5 1.5 0 11-3.001-.001 1.5 1.5 0 013.001.001zm20 0a1.5 1.5 0 11-3.001-.001 1.5 1.5 0 013.001.001zm20 0a1.5 1.5 0 11-3.001-.001 1.5 1.5 0 013.001.001zm-280 20a1.5 1.5 0 11-3.001-.001 1.5 1.5 0 013.001.001zm20 0a1.5 1.5 0 11-3.001-.001 1.5 1.5 0 013.001.001zm20 0a1.5 1.5 0 11-3.001-.001 1.5 1.5 0 013.001.001zm20 0a1.5 1.5 0 11-3.001-.001 1.5 1.5 0 013.001.001zm20 0a1.5 1.5 0 11-3.001-.001 1.5 1.5 0 013.001.001zm20 0a1.5 1.5 0 11-3.001-.001 1.5 1.5 0 013.001.001zm20 0a1.5 1.5 0 11-3.001-.001 1.5 1.5 0 013.001.001zm20 0a1.5 1.5 0 11-3.001-.001 1.5 1.5 0 013.001.001zm20 0a1.5 1.5 0 11-3.001-.001 1.5 1.5 0 013.001.001zm20 0a1.5 1.5 0 11-3.001-.001 1.5 1.5 0 013.001.001zm20 0a1.5 1.5 0 11-3.001-.001 1.5 1.5 0 013.001.001zm20 0a1.5 1.5 0 11-3.001-.001 1.5 1.5 0 013.001.001zm20 0a1.5 1.5 0 11-3.001-.001 1.5 1.5 0 013.001.001zm20 0a1.5 1.5 0 11-3.001-.001 1.5 1.5 0 013.001.001zm20 0a1.5 1.5 0 11-3.001-.001 1.5 1.5 0 013.001.001zm-280 20a1.5 1.5 0 11-3.001-.001 1.5 1.5 0 013.001.001zm20 0a1.5 1.5 0 11-3.001-.001 1.5 1.5 0 013.001.001zm20 0a1.5 1.5 0 11-3.001-.001 1.5 1.5 0 013.001.001zm20 0a1.5 1.5 0 11-3.001-.001 1.5 1.5 0 013.001.001zm20 0a1.5 1.5 0 11-3.001-.001 1.5 1.5 0 013.001.001zm20 0a1.5 1.5 0 11-3.001-.001 1.5 1.5 0 013.001.001zm20 0a1.5 1.5 0 11-3.001-.001 1.5 1.5 0 013.001.001zm20 0a1.5 1.5 0 11-3.001-.001 1.5 1.5 0 013.001.001zm20 0a1.5 1.5 0 11-3.001-.001 1.5 1.5 0 013.001.001zm20 0a1.5 1.5 0 11-3.001-.001 1.5 1.5 0 013.001.001zm20 0a1.5 1.5 0 11-3.001-.001 1.5 1.5 0 013.001.001zm20 0a1.5 1.5 0 11-3.001-.001 1.5 1.5 0 013.001.001zm20 0a1.5 1.5 0 11-3.001-.001 1.5 1.5 0 013.001.001zm20 0a1.5 1.5 0 11-3.001-.001 1.5 1.5 0 013.001.001zm20 0a1.5 1.5 0 11-3.001-.001 1.5 1.5 0 013.001.001zm-280 20a1.5 1.5 0 11-3.001-.001 1.5 1.5 0 013.001.001zm20 0a1.5 1.5 0 11-3.001-.001 1.5 1.5 0 013.001.001zm20 0a1.5 1.5 0 11-3.001-.001 1.5 1.5 0 013.001.001zm20 0a1.5 1.5 0 11-3.001-.001 1.5 1.5 0 013.001.001zm20 0a1.5 1.5 0 11-3.001-.001 1.5 1.5 0 013.001.001zm20 0a1.5 1.5 0 11-3.001-.001 1.5 1.5 0 013.001.001zm20 0a1.5 1.5 0 11-3.001-.001 1.5 1.5 0 013.001.001zm20 0a1.5 1.5 0 11-3.001-.001 1.5 1.5 0 013.001.001zm20 0a1.5 1.5 0 11-3.001-.001 1.5 1.5 0 013.001.001zm20 0a1.5 1.5 0 11-3.001-.001 1.5 1.5 0 013.001.001zm20 0a1.5 1.5 0 11-3.001-.001 1.5 1.5 0 013.001.001zm20 0a1.5 1.5 0 11-3.001-.001 1.5 1.5 0 013.001.001zm20 0a1.5 1.5 0 11-3.001-.001 1.5 1.5 0 013.001.001zm20 0a1.5 1.5 0 11-3.001-.001 1.5 1.5 0 013.001.001zm20 0a1.5 1.5 0 11-3.001-.001 1.5 1.5 0 013.001.001zm-280 20a1.5 1.5 0 11-3.001-.001 1.5 1.5 0 013.001.001zm20 0a1.5 1.5 0 11-3.001-.001 1.5 1.5 0 013.001.001zm20 0a1.5 1.5 0 11-3.001-.001 1.5 1.5 0 013.001.001zm20 0a1.5 1.5 0 11-3.001-.001 1.5 1.5 0 013.001.001zm20 0a1.5 1.5 0 11-3.001-.001 1.5 1.5 0 013.001.001zm20 0a1.5 1.5 0 11-3.001-.001 1.5 1.5 0 013.001.001zm20 0a1.5 1.5 0 11-3.001-.001 1.5 1.5 0 013.001.001zm20 0a1.5 1.5 0 11-3.001-.001 1.5 1.5 0 013.001.001zm20 0a1.5 1.5 0 11-3.001-.001 1.5 1.5 0 013.001.001zm20 0a1.5 1.5 0 11-3.001-.001 1.5 1.5 0 013.001.001zm20 0a1.5 1.5 0 11-3.001-.001 1.5 1.5 0 013.001.001zm20 0a1.5 1.5 0 11-3.001-.001 1.5 1.5 0 013.001.001zm20 0a1.5 1.5 0 11-3.001-.001 1.5 1.5 0 013.001.001zm20 0a1.5 1.5 0 11-3.001-.001 1.5 1.5 0 013.001.001zm20 0a1.5 1.5 0 11-3.001-.001 1.5 1.5 0 013.001.001zm-280 20a1.5 1.5 0 11-3.001-.001 1.5 1.5 0 013.001.001zm20 0a1.5 1.5 0 11-3.001-.001 1.5 1.5 0 013.001.001zm20 0a1.5 1.5 0 11-3.001-.001 1.5 1.5 0 013.001.001zm20 0a1.5 1.5 0 11-3.001-.001 1.5 1.5 0 013.001.001zm20 0a1.5 1.5 0 11-3.001-.001 1.5 1.5 0 013.001.001zm20 0a1.5 1.5 0 11-3.001-.001 1.5 1.5 0 013.001.001zm20 0a1.5 1.5 0 11-3.001-.001 1.5 1.5 0 013.001.001zm20 0a1.5 1.5 0 11-3.001-.001 1.5 1.5 0 013.001.001zm20 0a1.5 1.5 0 11-3.001-.001 1.5 1.5 0 013.001.001zm20 0a1.5 1.5 0 11-3.001-.001 1.5 1.5 0 013.001.001zm20 0a1.5 1.5 0 11-3.001-.001 1.5 1.5 0 013.001.001zm20 0a1.5 1.5 0 11-3.001-.001 1.5 1.5 0 013.001.001zm20 0a1.5 1.5 0 11-3.001-.001 1.5 1.5 0 013.001.001zm20 0a1.5 1.5 0 11-3.001-.001 1.5 1.5 0 013.001.001zm20 0a1.5 1.5 0 11-3.001-.001 1.5 1.5 0 013.001.001zm-280 20a1.5 1.5 0 11-3.001-.001 1.5 1.5 0 013.001.001zm20 0a1.5 1.5 0 11-3.001-.001 1.5 1.5 0 013.001.001zm20 0a1.5 1.5 0 11-3.001-.001 1.5 1.5 0 013.001.001zm20 0a1.5 1.5 0 11-3.001-.001 1.5 1.5 0 013.001.001zm20 0a1.5 1.5 0 11-3.001-.001 1.5 1.5 0 013.001.001zm20 0a1.5 1.5 0 11-3.001-.001 1.5 1.5 0 013.001.001zm20 0a1.5 1.5 0 11-3.001-.001 1.5 1.5 0 013.001.001zm20 0a1.5 1.5 0 11-3.001-.001 1.5 1.5 0 013.001.001zm20 0a1.5 1.5 0 11-3.001-.001 1.5 1.5 0 013.001.001zm20 0a1.5 1.5 0 11-3.001-.001 1.5 1.5 0 013.001.001zm20 0a1.5 1.5 0 11-3.001-.001 1.5 1.5 0 013.001.001zm20 0a1.5 1.5 0 11-3.001-.001 1.5 1.5 0 013.001.001zm20 0a1.5 1.5 0 11-3.001-.001 1.5 1.5 0 013.001.001zm20 0a1.5 1.5 0 11-3.001-.001 1.5 1.5 0 013.001.001zm20 0a1.5 1.5 0 11-3.001-.001 1.5 1.5 0 013.001.001zm-280 20a1.5 1.5 0 11-3.001-.001 1.5 1.5 0 013.001.001zm20 0a1.5 1.5 0 11-3.001-.001 1.5 1.5 0 013.001.001zm20 0a1.5 1.5 0 11-3.001-.001 1.5 1.5 0 013.001.001zm20 0a1.5 1.5 0 11-3.001-.001 1.5 1.5 0 013.001.001zm20 0a1.5 1.5 0 11-3.001-.001 1.5 1.5 0 013.001.001zm20 0a1.5 1.5 0 11-3.001-.001 1.5 1.5 0 013.001.001zm20 0a1.5 1.5 0 11-3.001-.001 1.5 1.5 0 013.001.001zm20 0a1.5 1.5 0 11-3.001-.001 1.5 1.5 0 013.001.001zm20 0a1.5 1.5 0 11-3.001-.001 1.5 1.5 0 013.001.001zm20 0a1.5 1.5 0 11-3.001-.001 1.5 1.5 0 013.001.001zm20 0a1.5 1.5 0 11-3.001-.001 1.5 1.5 0 013.001.001zm20 0a1.5 1.5 0 11-3.001-.001 1.5 1.5 0 013.001.001zm20 0a1.5 1.5 0 11-3.001-.001 1.5 1.5 0 013.001.001zm20 0a1.5 1.5 0 11-3.001-.001 1.5 1.5 0 013.001.001zm20 0a1.5 1.5 0 11-3.001-.001 1.5 1.5 0 013.001.001zm-280 20a1.5 1.5 0 11-3.001-.001 1.5 1.5 0 013.001.001zm20 0a1.5 1.5 0 11-3.001-.001 1.5 1.5 0 013.001.001zm20 0a1.5 1.5 0 11-3.001-.001 1.5 1.5 0 013.001.001zm20 0a1.5 1.5 0 11-3.001-.001 1.5 1.5 0 013.001.001zm20 0a1.5 1.5 0 11-3.001-.001 1.5 1.5 0 013.001.001zm20 0a1.5 1.5 0 11-3.001-.001 1.5 1.5 0 013.001.001zm20 0a1.5 1.5 0 11-3.001-.001 1.5 1.5 0 013.001.001zm20 0a1.5 1.5 0 11-3.001-.001 1.5 1.5 0 013.001.001zm20 0a1.5 1.5 0 11-3.001-.001 1.5 1.5 0 013.001.001zm20 0a1.5 1.5 0 11-3.001-.001 1.5 1.5 0 013.001.001zm20 0a1.5 1.5 0 11-3.001-.001 1.5 1.5 0 013.001.001zm20 0a1.5 1.5 0 11-3.001-.001 1.5 1.5 0 013.001.001zm20 0a1.5 1.5 0 11-3.001-.001 1.5 1.5 0 013.001.001zm20 0a1.5 1.5 0 11-3.001-.001 1.5 1.5 0 013.001.001zm20 0a1.5 1.5 0 11-3.001-.001 1.5 1.5 0 013.001.001zm-280 20a1.5 1.5 0 11-3.001-.001 1.5 1.5 0 013.001.001zm20 0a1.5 1.5 0 11-3.001-.001 1.5 1.5 0 013.001.001zm20 0a1.5 1.5 0 11-3.001-.001 1.5 1.5 0 013.001.001zm20 0a1.5 1.5 0 11-3.001-.001 1.5 1.5 0 013.001.001zm20 0a1.5 1.5 0 11-3.001-.001 1.5 1.5 0 013.001.001zm20 0a1.5 1.5 0 11-3.001-.001 1.5 1.5 0 013.001.001zm20 0a1.5 1.5 0 11-3.001-.001 1.5 1.5 0 013.001.001zm20 0a1.5 1.5 0 11-3.001-.001 1.5 1.5 0 013.001.001zm20 0a1.5 1.5 0 11-3.001-.001 1.5 1.5 0 013.001.001zm20 0a1.5 1.5 0 11-3.001-.001 1.5 1.5 0 013.001.001zm20 0a1.5 1.5 0 11-3.001-.001 1.5 1.5 0 013.001.001zm20 0a1.5 1.5 0 11-3.001-.001 1.5 1.5 0 013.001.001zm20 0a1.5 1.5 0 11-3.001-.001 1.5 1.5 0 013.001.001zm20 0a1.5 1.5 0 11-3.001-.001 1.5 1.5 0 013.001.001zm20 0a1.5 1.5 0 11-3.001-.001 1.5 1.5 0 013.001.001zm-280 20a1.5 1.5 0 11-3.001-.001 1.5 1.5 0 013.001.001zm20 0a1.5 1.5 0 11-3.001-.001 1.5 1.5 0 013.001.001zm20 0a1.5 1.5 0 11-3.001-.001 1.5 1.5 0 013.001.001zm20 0a1.5 1.5 0 11-3.001-.001 1.5 1.5 0 013.001.001zm20 0a1.5 1.5 0 11-3.001-.001 1.5 1.5 0 013.001.001zm20 0a1.5 1.5 0 11-3.001-.001 1.5 1.5 0 013.001.001zm20 0a1.5 1.5 0 11-3.001-.001 1.5 1.5 0 013.001.001zm20 0a1.5 1.5 0 11-3.001-.001 1.5 1.5 0 013.001.001zm20 0a1.5 1.5 0 11-3.001-.001 1.5 1.5 0 013.001.001zm20 0a1.5 1.5 0 11-3.001-.001 1.5 1.5 0 013.001.001zm20 0a1.5 1.5 0 11-3.001-.001 1.5 1.5 0 013.001.001zm20 0a1.5 1.5 0 11-3.001-.001 1.5 1.5 0 013.001.001zm20 0a1.5 1.5 0 11-3.001-.001 1.5 1.5 0 013.001.001zm20 0a1.5 1.5 0 11-3.001-.001 1.5 1.5 0 013.001.001zm20 0a1.5 1.5 0 11-3.001-.001 1.5 1.5 0 013.001.001zm20-220a1.5 1.5 0 11-3.001-.001 1.5 1.5 0 013.001.001zm20 0a1.5 1.5 0 11-3.001-.001 1.5 1.5 0 013.001.001zm20 0a1.5 1.5 0 11-3.001-.001 1.5 1.5 0 013.001.001zm20 0a1.5 1.5 0 11-3.001-.001 1.5 1.5 0 013.001.001zm20 0a1.5 1.5 0 11-3.001-.001 1.5 1.5 0 013.001.001zm20 0a1.5 1.5 0 11-3.001-.001 1.5 1.5 0 013.001.001zm20 0a1.5 1.5 0 11-3.001-.001 1.5 1.5 0 013.001.001zm20 0a1.5 1.5 0 11-3.001-.001 1.5 1.5 0 013.001.001zm20 0a1.5 1.5 0 11-3.001-.001 1.5 1.5 0 013.001.001zm-160 20a1.5 1.5 0 11-3.001-.001 1.5 1.5 0 013.001.001zm20 0a1.5 1.5 0 11-3.001-.001 1.5 1.5 0 013.001.001zm20 0a1.5 1.5 0 11-3.001-.001 1.5 1.5 0 013.001.001zm20 0a1.5 1.5 0 11-3.001-.001 1.5 1.5 0 013.001.001zm20 0a1.5 1.5 0 11-3.001-.001 1.5 1.5 0 013.001.001zm20 0a1.5 1.5 0 11-3.001-.001 1.5 1.5 0 013.001.001zm20 0a1.5 1.5 0 11-3.001-.001 1.5 1.5 0 013.001.001zm20 0a1.5 1.5 0 11-3.001-.001 1.5 1.5 0 013.001.001zm20 0a1.5 1.5 0 11-3.001-.001 1.5 1.5 0 013.001.001zm-160 20a1.5 1.5 0 11-3.001-.001 1.5 1.5 0 013.001.001zm20 0a1.5 1.5 0 11-3.001-.001 1.5 1.5 0 013.001.001zm20 0a1.5 1.5 0 11-3.001-.001 1.5 1.5 0 013.001.001zm20 0a1.5 1.5 0 11-3.001-.001 1.5 1.5 0 013.001.001zm20 0a1.5 1.5 0 11-3.001-.001 1.5 1.5 0 013.001.001zm20 0a1.5 1.5 0 11-3.001-.001 1.5 1.5 0 013.001.001zm20 0a1.5 1.5 0 11-3.001-.001 1.5 1.5 0 013.001.001zm20 0a1.5 1.5 0 11-3.001-.001 1.5 1.5 0 013.001.001zm20 0a1.5 1.5 0 11-3.001-.001 1.5 1.5 0 013.001.001zm-160 20a1.5 1.5 0 11-3.001-.001 1.5 1.5 0 013.001.001zm20 0a1.5 1.5 0 11-3.001-.001 1.5 1.5 0 013.001.001zm20 0a1.5 1.5 0 11-3.001-.001 1.5 1.5 0 013.001.001zm20 0a1.5 1.5 0 11-3.001-.001 1.5 1.5 0 013.001.001zm20 0a1.5 1.5 0 11-3.001-.001 1.5 1.5 0 013.001.001zm20 0a1.5 1.5 0 11-3.001-.001 1.5 1.5 0 013.001.001zm20 0a1.5 1.5 0 11-3.001-.001 1.5 1.5 0 013.001.001zm20 0a1.5 1.5 0 11-3.001-.001 1.5 1.5 0 013.001.001zm20 0a1.5 1.5 0 11-3.001-.001 1.5 1.5 0 013.001.001zm-160 20a1.5 1.5 0 11-3.001-.001 1.5 1.5 0 013.001.001zm20 0a1.5 1.5 0 11-3.001-.001 1.5 1.5 0 013.001.001zm20 0a1.5 1.5 0 11-3.001-.001 1.5 1.5 0 013.001.001zm20 0a1.5 1.5 0 11-3.001-.001 1.5 1.5 0 013.001.001zm20 0a1.5 1.5 0 11-3.001-.001 1.5 1.5 0 013.001.001zm20 0a1.5 1.5 0 11-3.001-.001 1.5 1.5 0 013.001.001zm20 0a1.5 1.5 0 11-3.001-.001 1.5 1.5 0 013.001.001zm20 0a1.5 1.5 0 11-3.001-.001 1.5 1.5 0 013.001.001zm20 0a1.5 1.5 0 11-3.001-.001 1.5 1.5 0 013.001.001zm-160 20a1.5 1.5 0 11-3.001-.001 1.5 1.5 0 013.001.001zm20 0a1.5 1.5 0 11-3.001-.001 1.5 1.5 0 013.001.001zm20 0a1.5 1.5 0 11-3.001-.001 1.5 1.5 0 013.001.001zm20 0a1.5 1.5 0 11-3.001-.001 1.5 1.5 0 013.001.001zm20 0a1.5 1.5 0 11-3.001-.001 1.5 1.5 0 013.001.001zm20 0a1.5 1.5 0 11-3.001-.001 1.5 1.5 0 013.001.001zm20 0a1.5 1.5 0 11-3.001-.001 1.5 1.5 0 013.001.001zm20 0a1.5 1.5 0 11-3.001-.001 1.5 1.5 0 013.001.001zm20 0a1.5 1.5 0 11-3.001-.001 1.5 1.5 0 013.001.001zm-160 20a1.5 1.5 0 11-3.001-.001 1.5 1.5 0 013.001.001zm20 0a1.5 1.5 0 11-3.001-.001 1.5 1.5 0 013.001.001zm20 0a1.5 1.5 0 11-3.001-.001 1.5 1.5 0 013.001.001zm20 0a1.5 1.5 0 11-3.001-.001 1.5 1.5 0 013.001.001zm20 0a1.5 1.5 0 11-3.001-.001 1.5 1.5 0 013.001.001zm20 0a1.5 1.5 0 11-3.001-.001 1.5 1.5 0 013.001.001zm20 0a1.5 1.5 0 11-3.001-.001 1.5 1.5 0 013.001.001zm20 0a1.5 1.5 0 11-3.001-.001 1.5 1.5 0 013.001.001zm20 0a1.5 1.5 0 11-3.001-.001 1.5 1.5 0 013.001.001zm-160 20a1.5 1.5 0 11-3.001-.001 1.5 1.5 0 013.001.001zm20 0a1.5 1.5 0 11-3.001-.001 1.5 1.5 0 013.001.001zm20 0a1.5 1.5 0 11-3.001-.001 1.5 1.5 0 013.001.001zm20 0a1.5 1.5 0 11-3.001-.001 1.5 1.5 0 013.001.001zm20 0a1.5 1.5 0 11-3.001-.001 1.5 1.5 0 013.001.001zm20 0a1.5 1.5 0 11-3.001-.001 1.5 1.5 0 013.001.001zm20 0a1.5 1.5 0 11-3.001-.001 1.5 1.5 0 013.001.001zm20 0a1.5 1.5 0 11-3.001-.001 1.5 1.5 0 013.001.001zm20 0a1.5 1.5 0 11-3.001-.001 1.5 1.5 0 013.001.001zm-160 20a1.5 1.5 0 11-3.001-.001 1.5 1.5 0 013.001.001zm20 0a1.5 1.5 0 11-3.001-.001 1.5 1.5 0 013.001.001zm20 0a1.5 1.5 0 11-3.001-.001 1.5 1.5 0 013.001.001zm20 0a1.5 1.5 0 11-3.001-.001 1.5 1.5 0 013.001.001zm20 0a1.5 1.5 0 11-3.001-.001 1.5 1.5 0 013.001.001zm20 0a1.5 1.5 0 11-3.001-.001 1.5 1.5 0 013.001.001zm20 0a1.5 1.5 0 11-3.001-.001 1.5 1.5 0 013.001.001zm20 0a1.5 1.5 0 11-3.001-.001 1.5 1.5 0 013.001.001zm20 0a1.5 1.5 0 11-3.001-.001 1.5 1.5 0 013.001.001zm-160 20a1.5 1.5 0 11-3.001-.001 1.5 1.5 0 013.001.001zm20 0a1.5 1.5 0 11-3.001-.001 1.5 1.5 0 013.001.001zm20 0a1.5 1.5 0 11-3.001-.001 1.5 1.5 0 013.001.001zm20 0a1.5 1.5 0 11-3.001-.001 1.5 1.5 0 013.001.001zm20 0a1.5 1.5 0 11-3.001-.001 1.5 1.5 0 013.001.001zm20 0a1.5 1.5 0 11-3.001-.001 1.5 1.5 0 013.001.001zm20 0a1.5 1.5 0 11-3.001-.001 1.5 1.5 0 013.001.001zm20 0a1.5 1.5 0 11-3.001-.001 1.5 1.5 0 013.001.001zm20 0a1.5 1.5 0 11-3.001-.001 1.5 1.5 0 013.001.001zm-160 20a1.5 1.5 0 11-3.001-.001 1.5 1.5 0 013.001.001zm20 0a1.5 1.5 0 11-3.001-.001 1.5 1.5 0 013.001.001zm20 0a1.5 1.5 0 11-3.001-.001 1.5 1.5 0 013.001.001zm20 0a1.5 1.5 0 11-3.001-.001 1.5 1.5 0 013.001.001zm20 0a1.5 1.5 0 11-3.001-.001 1.5 1.5 0 013.001.001zm20 0a1.5 1.5 0 11-3.001-.001 1.5 1.5 0 013.001.001zm20 0a1.5 1.5 0 11-3.001-.001 1.5 1.5 0 013.001.001zm20 0a1.5 1.5 0 11-3.001-.001 1.5 1.5 0 013.001.001zm20 0a1.5 1.5 0 11-3.001-.001 1.5 1.5 0 013.001.001zm-160 20a1.5 1.5 0 11-3.001-.001 1.5 1.5 0 013.001.001zm20 0a1.5 1.5 0 11-3.001-.001 1.5 1.5 0 013.001.001zm20 0a1.5 1.5 0 11-3.001-.001 1.5 1.5 0 013.001.001zm20 0a1.5 1.5 0 11-3.001-.001 1.5 1.5 0 013.001.001zm20 0a1.5 1.5 0 11-3.001-.001 1.5 1.5 0 013.001.001zm20 0a1.5 1.5 0 11-3.001-.001 1.5 1.5 0 013.001.001zm20 0a1.5 1.5 0 11-3.001-.001 1.5 1.5 0 013.001.001zm20 0a1.5 1.5 0 11-3.001-.001 1.5 1.5 0 013.001.001zm20 0a1.5 1.5 0 11-3.001-.001 1.5 1.5 0 013.001.001zm-800 20a1.5 1.5 0 11-3 0 1.5 1.5 0 013 0zm20 0a1.5 1.5 0 11-3 0 1.5 1.5 0 013 0zm-20 20a1.5 1.5 0 11-3 0 1.5 1.5 0 013 0zm20 0a1.5 1.5 0 11-3 0 1.5 1.5 0 013 0zm-20 20a1.5 1.5 0 11-3 0 1.5 1.5 0 013 0zm20 0a1.5 1.5 0 11-3 0 1.5 1.5 0 013 0zm-20 20a1.5 1.5 0 11-3 0 1.5 1.5 0 013 0zm20 0a1.5 1.5 0 11-3 0 1.5 1.5 0 013 0zm-20 20a1.5 1.5 0 11-3 0 1.5 1.5 0 013 0zm20 0a1.5 1.5 0 11-3 0 1.5 1.5 0 013 0zm0 20a1.5 1.5 0 11-3 0 1.5 1.5 0 013 0zm20-100a1.5 1.5 0 11-3 0 1.5 1.5 0 013 0zm20 0a1.5 1.5 0 11-3 0 1.5 1.5 0 013 0zm20 0a1.5 1.5 0 11-3 0 1.5 1.5 0 013 0zm20 0a1.5 1.5 0 11-3 0 1.5 1.5 0 013 0zm20 0a1.5 1.5 0 11-3.001-.001 1.5 1.5 0 013.001.001zm20 0a1.5 1.5 0 11-3.001-.001 1.5 1.5 0 013.001.001zm20 0a1.5 1.5 0 11-3.001-.001 1.5 1.5 0 013.001.001zm20 0a1.5 1.5 0 11-3.001-.001 1.5 1.5 0 013.001.001zm20 0a1.5 1.5 0 11-3.001-.001 1.5 1.5 0 013.001.001zm20 0a1.5 1.5 0 11-3.001-.001 1.5 1.5 0 013.001.001zm20 0a1.5 1.5 0 11-3.001-.001 1.5 1.5 0 013.001.001zm20 0a1.5 1.5 0 11-3.001-.001 1.5 1.5 0 013.001.001zm20 0a1.5 1.5 0 11-3.001-.001 1.5 1.5 0 013.001.001zm20 0a1.5 1.5 0 11-3.001-.001 1.5 1.5 0 013.001.001zm20 0a1.5 1.5 0 11-3.001-.001 1.5 1.5 0 013.001.001zm-280 20a1.5 1.5 0 11-3 0 1.5 1.5 0 013 0zm20 0a1.5 1.5 0 11-3 0 1.5 1.5 0 013 0zm20 0a1.5 1.5 0 11-3 0 1.5 1.5 0 013 0zm20 0a1.5 1.5 0 11-3 0 1.5 1.5 0 013 0zm20 0a1.5 1.5 0 11-3.001-.001 1.5 1.5 0 013.001.001zm20 0a1.5 1.5 0 11-3.001-.001 1.5 1.5 0 013.001.001zm20 0a1.5 1.5 0 11-3.001-.001 1.5 1.5 0 013.001.001zm20 0a1.5 1.5 0 11-3.001-.001 1.5 1.5 0 013.001.001zm20 0a1.5 1.5 0 11-3.001-.001 1.5 1.5 0 013.001.001zm20 0a1.5 1.5 0 11-3.001-.001 1.5 1.5 0 013.001.001zm20 0a1.5 1.5 0 11-3.001-.001 1.5 1.5 0 013.001.001zm20 0a1.5 1.5 0 11-3.001-.001 1.5 1.5 0 013.001.001zm20 0a1.5 1.5 0 11-3.001-.001 1.5 1.5 0 013.001.001zm20 0a1.5 1.5 0 11-3.001-.001 1.5 1.5 0 013.001.001zm20 0a1.5 1.5 0 11-3.001-.001 1.5 1.5 0 013.001.001zm-280 20a1.5 1.5 0 11-3 0 1.5 1.5 0 013 0zm20 0a1.5 1.5 0 11-3 0 1.5 1.5 0 013 0zm20 0a1.5 1.5 0 11-3 0 1.5 1.5 0 013 0zm20 0a1.5 1.5 0 11-3 0 1.5 1.5 0 013 0zm20 0a1.5 1.5 0 11-3.001-.001 1.5 1.5 0 013.001.001zm20 0a1.5 1.5 0 11-3.001-.001 1.5 1.5 0 013.001.001zm20 0a1.5 1.5 0 11-3.001-.001 1.5 1.5 0 013.001.001zm20 0a1.5 1.5 0 11-3.001-.001 1.5 1.5 0 013.001.001zm20 0a1.5 1.5 0 11-3.001-.001 1.5 1.5 0 013.001.001zm20 0a1.5 1.5 0 11-3.001-.001 1.5 1.5 0 013.001.001zm20 0a1.5 1.5 0 11-3.001-.001 1.5 1.5 0 013.001.001zm20 0a1.5 1.5 0 11-3.001-.001 1.5 1.5 0 013.001.001zm20 0a1.5 1.5 0 11-3.001-.001 1.5 1.5 0 013.001.001zm20 0a1.5 1.5 0 11-3.001-.001 1.5 1.5 0 013.001.001zm20 0a1.5 1.5 0 11-3.001-.001 1.5 1.5 0 013.001.001zm-280 20a1.5 1.5 0 11-3 0 1.5 1.5 0 013 0zm20 0a1.5 1.5 0 11-3 0 1.5 1.5 0 013 0zm20 0a1.5 1.5 0 11-3 0 1.5 1.5 0 013 0zm20 0a1.5 1.5 0 11-3 0 1.5 1.5 0 013 0zm20 0a1.5 1.5 0 11-3.001-.001 1.5 1.5 0 013.001.001zm20 0a1.5 1.5 0 11-3.001-.001 1.5 1.5 0 013.001.001zm20 0a1.5 1.5 0 11-3.001-.001 1.5 1.5 0 013.001.001zm20 0a1.5 1.5 0 11-3.001-.001 1.5 1.5 0 013.001.001zm20 0a1.5 1.5 0 11-3.001-.001 1.5 1.5 0 013.001.001zm20 0a1.5 1.5 0 11-3.001-.001 1.5 1.5 0 013.001.001zm20 0a1.5 1.5 0 11-3.001-.001 1.5 1.5 0 013.001.001zm20 0a1.5 1.5 0 11-3.001-.001 1.5 1.5 0 013.001.001zm20 0a1.5 1.5 0 11-3.001-.001 1.5 1.5 0 013.001.001zm20 0a1.5 1.5 0 11-3.001-.001 1.5 1.5 0 013.001.001zm20 0a1.5 1.5 0 11-3.001-.001 1.5 1.5 0 013.001.001zm-280 20a1.5 1.5 0 11-3 0 1.5 1.5 0 013 0zm20 0a1.5 1.5 0 11-3 0 1.5 1.5 0 013 0zm20 0a1.5 1.5 0 11-3 0 1.5 1.5 0 013 0zm20 0a1.5 1.5 0 11-3 0 1.5 1.5 0 013 0zm20 0a1.5 1.5 0 11-3.001-.001 1.5 1.5 0 013.001.001zm20 0a1.5 1.5 0 11-3.001-.001 1.5 1.5 0 013.001.001zm20 0a1.5 1.5 0 11-3.001-.001 1.5 1.5 0 013.001.001zm20 0a1.5 1.5 0 11-3.001-.001 1.5 1.5 0 013.001.001zm20 0a1.5 1.5 0 11-3.001-.001 1.5 1.5 0 013.001.001zm20 0a1.5 1.5 0 11-3.001-.001 1.5 1.5 0 013.001.001zm20 0a1.5 1.5 0 11-3.001-.001 1.5 1.5 0 013.001.001zm20 0a1.5 1.5 0 11-3.001-.001 1.5 1.5 0 013.001.001zm20 0a1.5 1.5 0 11-3.001-.001 1.5 1.5 0 013.001.001zm20 0a1.5 1.5 0 11-3.001-.001 1.5 1.5 0 013.001.001zm20 0a1.5 1.5 0 11-3.001-.001 1.5 1.5 0 013.001.001zm-280 20a1.5 1.5 0 11-3 0 1.5 1.5 0 013 0zm20 0a1.5 1.5 0 11-3 0 1.5 1.5 0 013 0zm20 0a1.5 1.5 0 11-3 0 1.5 1.5 0 013 0zm20 0a1.5 1.5 0 11-3 0 1.5 1.5 0 013 0zm20 0a1.5 1.5 0 11-3.001-.001 1.5 1.5 0 013.001.001zm20 0a1.5 1.5 0 11-3.001-.001 1.5 1.5 0 013.001.001zm20 0a1.5 1.5 0 11-3.001-.001 1.5 1.5 0 013.001.001zm20 0a1.5 1.5 0 11-3.001-.001 1.5 1.5 0 013.001.001zm20 0a1.5 1.5 0 11-3.001-.001 1.5 1.5 0 013.001.001zm20 0a1.5 1.5 0 11-3.001-.001 1.5 1.5 0 013.001.001zm20 0a1.5 1.5 0 11-3.001-.001 1.5 1.5 0 013.001.001zm20 0a1.5 1.5 0 11-3.001-.001 1.5 1.5 0 013.001.001zm20 0a1.5 1.5 0 11-3.001-.001 1.5 1.5 0 013.001.001zm20 0a1.5 1.5 0 11-3.001-.001 1.5 1.5 0 013.001.001zm20 0a1.5 1.5 0 11-3.001-.001 1.5 1.5 0 013.001.001zm-280 20a1.5 1.5 0 11-3 0 1.5 1.5 0 013 0zm20 0a1.5 1.5 0 11-3 0 1.5 1.5 0 013 0zm20 0a1.5 1.5 0 11-3 0 1.5 1.5 0 013 0zm20 0a1.5 1.5 0 11-3 0 1.5 1.5 0 013 0zm20 0a1.5 1.5 0 11-3.001-.001 1.5 1.5 0 013.001.001zm20 0a1.5 1.5 0 11-3.001-.001 1.5 1.5 0 013.001.001zm20 0a1.5 1.5 0 11-3.001-.001 1.5 1.5 0 013.001.001zm20 0a1.5 1.5 0 11-3.001-.001 1.5 1.5 0 013.001.001zm20 0a1.5 1.5 0 11-3.001-.001 1.5 1.5 0 013.001.001zm20 0a1.5 1.5 0 11-3.001-.001 1.5 1.5 0 013.001.001zm20 0a1.5 1.5 0 11-3.001-.001 1.5 1.5 0 013.001.001zm20 0a1.5 1.5 0 11-3.001-.001 1.5 1.5 0 013.001.001zm20 0a1.5 1.5 0 11-3.001-.001 1.5 1.5 0 013.001.001zm20 0a1.5 1.5 0 11-3.001-.001 1.5 1.5 0 013.001.001zm20 0a1.5 1.5 0 11-3.001-.001 1.5 1.5 0 013.001.001zm-260 20a1.5 1.5 0 11-3 0 1.5 1.5 0 013 0zm20 0a1.5 1.5 0 11-3 0 1.5 1.5 0 013 0zm20 0a1.5 1.5 0 11-3 0 1.5 1.5 0 013 0zm20 0a1.5 1.5 0 11-3.001-.001 1.5 1.5 0 013.001.001zm20 0a1.5 1.5 0 11-3.001-.001 1.5 1.5 0 013.001.001zm20 0a1.5 1.5 0 11-3.001-.001 1.5 1.5 0 013.001.001zm20 0a1.5 1.5 0 11-3.001-.001 1.5 1.5 0 013.001.001zm20 0a1.5 1.5 0 11-3.001-.001 1.5 1.5 0 013.001.001zm20 0a1.5 1.5 0 11-3.001-.001 1.5 1.5 0 013.001.001zm20 0a1.5 1.5 0 11-3.001-.001 1.5 1.5 0 013.001.001zm20 0a1.5 1.5 0 11-3.001-.001 1.5 1.5 0 013.001.001zm20 0a1.5 1.5 0 11-3.001-.001 1.5 1.5 0 013.001.001zm20 0a1.5 1.5 0 11-3.001-.001 1.5 1.5 0 013.001.001zm20 0a1.5 1.5 0 11-3.001-.001 1.5 1.5 0 013.001.001zm-260 20a1.5 1.5 0 11-3 0 1.5 1.5 0 013 0zm20 0a1.5 1.5 0 11-3 0 1.5 1.5 0 013 0zm20 0a1.5 1.5 0 11-3 0 1.5 1.5 0 013 0zm20 0a1.5 1.5 0 11-3.001-.001 1.5 1.5 0 013.001.001zm20 0a1.5 1.5 0 11-3.001-.001 1.5 1.5 0 013.001.001zm20 0a1.5 1.5 0 11-3.001-.001 1.5 1.5 0 013.001.001zm20 0a1.5 1.5 0 11-3.001-.001 1.5 1.5 0 013.001.001zm20 0a1.5 1.5 0 11-3.001-.001 1.5 1.5 0 013.001.001zm20 0a1.5 1.5 0 11-3.001-.001 1.5 1.5 0 013.001.001zm20 0a1.5 1.5 0 11-3.001-.001 1.5 1.5 0 013.001.001zm20 0a1.5 1.5 0 11-3.001-.001 1.5 1.5 0 013.001.001zm20 0a1.5 1.5 0 11-3.001-.001 1.5 1.5 0 013.001.001zm20 0a1.5 1.5 0 11-3.001-.001 1.5 1.5 0 013.001.001zm20 0a1.5 1.5 0 11-3.001-.001 1.5 1.5 0 013.001.001zm-260 20a1.5 1.5 0 11-3 0 1.5 1.5 0 013 0zm20 0a1.5 1.5 0 11-3 0 1.5 1.5 0 013 0zm20 0a1.5 1.5 0 11-3 0 1.5 1.5 0 013 0zm20 0a1.5 1.5 0 11-3.001-.001 1.5 1.5 0 013.001.001zm20 0a1.5 1.5 0 11-3.001-.001 1.5 1.5 0 013.001.001zm20 0a1.5 1.5 0 11-3.001-.001 1.5 1.5 0 013.001.001zm20 0a1.5 1.5 0 11-3.001-.001 1.5 1.5 0 013.001.001zm20 0a1.5 1.5 0 11-3.001-.001 1.5 1.5 0 013.001.001zm20 0a1.5 1.5 0 11-3.001-.001 1.5 1.5 0 013.001.001zm20 0a1.5 1.5 0 11-3.001-.001 1.5 1.5 0 013.001.001zm20 0a1.5 1.5 0 11-3.001-.001 1.5 1.5 0 013.001.001zm20 0a1.5 1.5 0 11-3.001-.001 1.5 1.5 0 013.001.001zm20 0a1.5 1.5 0 11-3.001-.001 1.5 1.5 0 013.001.001zm20 0a1.5 1.5 0 11-3.001-.001 1.5 1.5 0 013.001.001zm-240 20a1.5 1.5 0 11-3 0 1.5 1.5 0 013 0zm20 0a1.5 1.5 0 11-3 0 1.5 1.5 0 013 0zm20 0a1.5 1.5 0 11-3.001-.001 1.5 1.5 0 013.001.001zm20 0a1.5 1.5 0 11-3.001-.001 1.5 1.5 0 013.001.001zm20 0a1.5 1.5 0 11-3.001-.001 1.5 1.5 0 013.001.001zm20 0a1.5 1.5 0 11-3.001-.001 1.5 1.5 0 013.001.001zm20 0a1.5 1.5 0 11-3.001-.001 1.5 1.5 0 013.001.001zm20 0a1.5 1.5 0 11-3.001-.001 1.5 1.5 0 013.001.001zm20 0a1.5 1.5 0 11-3.001-.001 1.5 1.5 0 013.001.001zm20 0a1.5 1.5 0 11-3.001-.001 1.5 1.5 0 013.001.001zm20 0a1.5 1.5 0 11-3.001-.001 1.5 1.5 0 013.001.001zm20 0a1.5 1.5 0 11-3.001-.001 1.5 1.5 0 013.001.001zm20 0a1.5 1.5 0 11-3.001-.001 1.5 1.5 0 013.001.001zm-220 20a1.5 1.5 0 11-3 0 1.5 1.5 0 013 0zm20 0a1.5 1.5 0 11-3.001-.001 1.5 1.5 0 013.001.001zm20 0a1.5 1.5 0 11-3.001-.001 1.5 1.5 0 013.001.001zm20 0a1.5 1.5 0 11-3.001-.001 1.5 1.5 0 013.001.001zm20 0a1.5 1.5 0 11-3.001-.001 1.5 1.5 0 013.001.001zm20 0a1.5 1.5 0 11-3.001-.001 1.5 1.5 0 013.001.001zm20 0a1.5 1.5 0 11-3.001-.001 1.5 1.5 0 013.001.001zm20 0a1.5 1.5 0 11-3.001-.001 1.5 1.5 0 013.001.001zm20 0a1.5 1.5 0 11-3.001-.001 1.5 1.5 0 013.001.001zm20 0a1.5 1.5 0 11-3.001-.001 1.5 1.5 0 013.001.001zm20 0a1.5 1.5 0 11-3.001-.001 1.5 1.5 0 013.001.001zm20 0a1.5 1.5 0 11-3.001-.001 1.5 1.5 0 013.001.001zm20-220a1.5 1.5 0 11-3.001-.001 1.5 1.5 0 013.001.001zm20 0a1.5 1.5 0 11-3.001-.001 1.5 1.5 0 013.001.001zm20 0a1.5 1.5 0 11-3.001-.001 1.5 1.5 0 013.001.001zm20 0a1.5 1.5 0 11-3.001-.001 1.5 1.5 0 013.001.001zm20 0a1.5 1.5 0 11-3.001-.001 1.5 1.5 0 013.001.001zm20 0a1.5 1.5 0 11-3.001-.001 1.5 1.5 0 013.001.001zm20 0a1.5 1.5 0 11-3.001-.001 1.5 1.5 0 013.001.001zm20 0a1.5 1.5 0 11-3.001-.001 1.5 1.5 0 013.001.001zm20 0a1.5 1.5 0 11-3.001-.001 1.5 1.5 0 013.001.001zm20 0a1.5 1.5 0 11-3.001-.001 1.5 1.5 0 013.001.001zm20 0a1.5 1.5 0 11-3.001-.001 1.5 1.5 0 013.001.001zm20 0a1.5 1.5 0 11-3.001-.001 1.5 1.5 0 013.001.001zm20 0a1.5 1.5 0 11-3.001-.001 1.5 1.5 0 013.001.001zm20 0a1.5 1.5 0 11-3.001-.001 1.5 1.5 0 013.001.001zm20 0a1.5 1.5 0 11-3.001-.001 1.5 1.5 0 013.001.001zm-280 20a1.5 1.5 0 11-3.001-.001 1.5 1.5 0 013.001.001zm20 0a1.5 1.5 0 11-3.001-.001 1.5 1.5 0 013.001.001zm20 0a1.5 1.5 0 11-3.001-.001 1.5 1.5 0 013.001.001zm20 0a1.5 1.5 0 11-3.001-.001 1.5 1.5 0 013.001.001zm20 0a1.5 1.5 0 11-3.001-.001 1.5 1.5 0 013.001.001zm20 0a1.5 1.5 0 11-3.001-.001 1.5 1.5 0 013.001.001zm20 0a1.5 1.5 0 11-3.001-.001 1.5 1.5 0 013.001.001zm20 0a1.5 1.5 0 11-3.001-.001 1.5 1.5 0 013.001.001zm20 0a1.5 1.5 0 11-3.001-.001 1.5 1.5 0 013.001.001zm20 0a1.5 1.5 0 11-3.001-.001 1.5 1.5 0 013.001.001zm20 0a1.5 1.5 0 11-3.001-.001 1.5 1.5 0 013.001.001zm20 0a1.5 1.5 0 11-3.001-.001 1.5 1.5 0 013.001.001zm20 0a1.5 1.5 0 11-3.001-.001 1.5 1.5 0 013.001.001zm20 0a1.5 1.5 0 11-3.001-.001 1.5 1.5 0 013.001.001zm20 0a1.5 1.5 0 11-3.001-.001 1.5 1.5 0 013.001.001zm-280 20a1.5 1.5 0 11-3.001-.001 1.5 1.5 0 013.001.001zm20 0a1.5 1.5 0 11-3.001-.001 1.5 1.5 0 013.001.001zm20 0a1.5 1.5 0 11-3.001-.001 1.5 1.5 0 013.001.001zm20 0a1.5 1.5 0 11-3.001-.001 1.5 1.5 0 013.001.001zm20 0a1.5 1.5 0 11-3.001-.001 1.5 1.5 0 013.001.001zm20 0a1.5 1.5 0 11-3.001-.001 1.5 1.5 0 013.001.001zm20 0a1.5 1.5 0 11-3.001-.001 1.5 1.5 0 013.001.001zm20 0a1.5 1.5 0 11-3.001-.001 1.5 1.5 0 013.001.001zm20 0a1.5 1.5 0 11-3.001-.001 1.5 1.5 0 013.001.001zm20 0a1.5 1.5 0 11-3.001-.001 1.5 1.5 0 013.001.001zm20 0a1.5 1.5 0 11-3.001-.001 1.5 1.5 0 013.001.001zm20 0a1.5 1.5 0 11-3.001-.001 1.5 1.5 0 013.001.001zm20 0a1.5 1.5 0 11-3.001-.001 1.5 1.5 0 013.001.001zm20 0a1.5 1.5 0 11-3.001-.001 1.5 1.5 0 013.001.001zm20 0a1.5 1.5 0 11-3.001-.001 1.5 1.5 0 013.001.001zm-280 20a1.5 1.5 0 11-3.001-.001 1.5 1.5 0 013.001.001zm20 0a1.5 1.5 0 11-3.001-.001 1.5 1.5 0 013.001.001zm20 0a1.5 1.5 0 11-3.001-.001 1.5 1.5 0 013.001.001zm20 0a1.5 1.5 0 11-3.001-.001 1.5 1.5 0 013.001.001zm20 0a1.5 1.5 0 11-3.001-.001 1.5 1.5 0 013.001.001zm20 0a1.5 1.5 0 11-3.001-.001 1.5 1.5 0 013.001.001zm20 0a1.5 1.5 0 11-3.001-.001 1.5 1.5 0 013.001.001zm20 0a1.5 1.5 0 11-3.001-.001 1.5 1.5 0 013.001.001zm20 0a1.5 1.5 0 11-3.001-.001 1.5 1.5 0 013.001.001zm20 0a1.5 1.5 0 11-3.001-.001 1.5 1.5 0 013.001.001zm20 0a1.5 1.5 0 11-3.001-.001 1.5 1.5 0 013.001.001zm20 0a1.5 1.5 0 11-3.001-.001 1.5 1.5 0 013.001.001zm20 0a1.5 1.5 0 11-3.001-.001 1.5 1.5 0 013.001.001zm20 0a1.5 1.5 0 11-3.001-.001 1.5 1.5 0 013.001.001zm20 0a1.5 1.5 0 11-3.001-.001 1.5 1.5 0 013.001.001zm-280 20a1.5 1.5 0 11-3.001-.001 1.5 1.5 0 013.001.001zm20 0a1.5 1.5 0 11-3.001-.001 1.5 1.5 0 013.001.001zm20 0a1.5 1.5 0 11-3.001-.001 1.5 1.5 0 013.001.001zm20 0a1.5 1.5 0 11-3.001-.001 1.5 1.5 0 013.001.001zm20 0a1.5 1.5 0 11-3.001-.001 1.5 1.5 0 013.001.001zm20 0a1.5 1.5 0 11-3.001-.001 1.5 1.5 0 013.001.001zm20 0a1.5 1.5 0 11-3.001-.001 1.5 1.5 0 013.001.001zm20 0a1.5 1.5 0 11-3.001-.001 1.5 1.5 0 013.001.001zm20 0a1.5 1.5 0 11-3.001-.001 1.5 1.5 0 013.001.001zm20 0a1.5 1.5 0 11-3.001-.001 1.5 1.5 0 013.001.001zm20 0a1.5 1.5 0 11-3.001-.001 1.5 1.5 0 013.001.001zm20 0a1.5 1.5 0 11-3.001-.001 1.5 1.5 0 013.001.001zm20 0a1.5 1.5 0 11-3.001-.001 1.5 1.5 0 013.001.001zm20 0a1.5 1.5 0 11-3.001-.001 1.5 1.5 0 013.001.001zm20 0a1.5 1.5 0 11-3.001-.001 1.5 1.5 0 013.001.001zm-280 20a1.5 1.5 0 11-3.001-.001 1.5 1.5 0 013.001.001zm20 0a1.5 1.5 0 11-3.001-.001 1.5 1.5 0 013.001.001zm20 0a1.5 1.5 0 11-3.001-.001 1.5 1.5 0 013.001.001zm20 0a1.5 1.5 0 11-3.001-.001 1.5 1.5 0 013.001.001zm20 0a1.5 1.5 0 11-3.001-.001 1.5 1.5 0 013.001.001zm20 0a1.5 1.5 0 11-3.001-.001 1.5 1.5 0 013.001.001zm20 0a1.5 1.5 0 11-3.001-.001 1.5 1.5 0 013.001.001zm20 0a1.5 1.5 0 11-3.001-.001 1.5 1.5 0 013.001.001zm20 0a1.5 1.5 0 11-3.001-.001 1.5 1.5 0 013.001.001zm20 0a1.5 1.5 0 11-3.001-.001 1.5 1.5 0 013.001.001zm20 0a1.5 1.5 0 11-3.001-.001 1.5 1.5 0 013.001.001zm20 0a1.5 1.5 0 11-3.001-.001 1.5 1.5 0 013.001.001zm20 0a1.5 1.5 0 11-3.001-.001 1.5 1.5 0 013.001.001zm20 0a1.5 1.5 0 11-3.001-.001 1.5 1.5 0 013.001.001zm20 0a1.5 1.5 0 11-3.001-.001 1.5 1.5 0 013.001.001zm-280 20a1.5 1.5 0 11-3.001-.001 1.5 1.5 0 013.001.001zm20 0a1.5 1.5 0 11-3.001-.001 1.5 1.5 0 013.001.001zm20 0a1.5 1.5 0 11-3.001-.001 1.5 1.5 0 013.001.001zm20 0a1.5 1.5 0 11-3.001-.001 1.5 1.5 0 013.001.001zm20 0a1.5 1.5 0 11-3.001-.001 1.5 1.5 0 013.001.001zm20 0a1.5 1.5 0 11-3.001-.001 1.5 1.5 0 013.001.001zm20 0a1.5 1.5 0 11-3.001-.001 1.5 1.5 0 013.001.001zm20 0a1.5 1.5 0 11-3.001-.001 1.5 1.5 0 013.001.001zm20 0a1.5 1.5 0 11-3.001-.001 1.5 1.5 0 013.001.001zm20 0a1.5 1.5 0 11-3.001-.001 1.5 1.5 0 013.001.001zm20 0a1.5 1.5 0 11-3.001-.001 1.5 1.5 0 013.001.001zm20 0a1.5 1.5 0 11-3.001-.001 1.5 1.5 0 013.001.001zm20 0a1.5 1.5 0 11-3.001-.001 1.5 1.5 0 013.001.001zm20 0a1.5 1.5 0 11-3.001-.001 1.5 1.5 0 013.001.001zm20 0a1.5 1.5 0 11-3.001-.001 1.5 1.5 0 013.001.001zm-280 20a1.5 1.5 0 11-3.001-.001 1.5 1.5 0 013.001.001zm20 0a1.5 1.5 0 11-3.001-.001 1.5 1.5 0 013.001.001zm20 0a1.5 1.5 0 11-3.001-.001 1.5 1.5 0 013.001.001zm20 0a1.5 1.5 0 11-3.001-.001 1.5 1.5 0 013.001.001zm20 0a1.5 1.5 0 11-3.001-.001 1.5 1.5 0 013.001.001zm20 0a1.5 1.5 0 11-3.001-.001 1.5 1.5 0 013.001.001zm20 0a1.5 1.5 0 11-3.001-.001 1.5 1.5 0 013.001.001zm20 0a1.5 1.5 0 11-3.001-.001 1.5 1.5 0 013.001.001zm20 0a1.5 1.5 0 11-3.001-.001 1.5 1.5 0 013.001.001zm20 0a1.5 1.5 0 11-3.001-.001 1.5 1.5 0 013.001.001zm20 0a1.5 1.5 0 11-3.001-.001 1.5 1.5 0 013.001.001zm20 0a1.5 1.5 0 11-3.001-.001 1.5 1.5 0 013.001.001zm20 0a1.5 1.5 0 11-3.001-.001 1.5 1.5 0 013.001.001zm20 0a1.5 1.5 0 11-3.001-.001 1.5 1.5 0 013.001.001zm20 0a1.5 1.5 0 11-3.001-.001 1.5 1.5 0 013.001.001zm-280 20a1.5 1.5 0 11-3.001-.001 1.5 1.5 0 013.001.001zm20 0a1.5 1.5 0 11-3.001-.001 1.5 1.5 0 013.001.001zm20 0a1.5 1.5 0 11-3.001-.001 1.5 1.5 0 013.001.001zm20 0a1.5 1.5 0 11-3.001-.001 1.5 1.5 0 013.001.001zm20 0a1.5 1.5 0 11-3.001-.001 1.5 1.5 0 013.001.001zm20 0a1.5 1.5 0 11-3.001-.001 1.5 1.5 0 013.001.001zm20 0a1.5 1.5 0 11-3.001-.001 1.5 1.5 0 013.001.001zm20 0a1.5 1.5 0 11-3.001-.001 1.5 1.5 0 013.001.001zm20 0a1.5 1.5 0 11-3.001-.001 1.5 1.5 0 013.001.001zm20 0a1.5 1.5 0 11-3.001-.001 1.5 1.5 0 013.001.001zm20 0a1.5 1.5 0 11-3.001-.001 1.5 1.5 0 013.001.001zm20 0a1.5 1.5 0 11-3.001-.001 1.5 1.5 0 013.001.001zm20 0a1.5 1.5 0 11-3.001-.001 1.5 1.5 0 013.001.001zm20 0a1.5 1.5 0 11-3.001-.001 1.5 1.5 0 013.001.001zm20 0a1.5 1.5 0 11-3.001-.001 1.5 1.5 0 013.001.001zm-280 20a1.5 1.5 0 11-3.001-.001 1.5 1.5 0 013.001.001zm20 0a1.5 1.5 0 11-3.001-.001 1.5 1.5 0 013.001.001zm20 0a1.5 1.5 0 11-3.001-.001 1.5 1.5 0 013.001.001zm20 0a1.5 1.5 0 11-3.001-.001 1.5 1.5 0 013.001.001zm20 0a1.5 1.5 0 11-3.001-.001 1.5 1.5 0 013.001.001zm20 0a1.5 1.5 0 11-3.001-.001 1.5 1.5 0 013.001.001zm20 0a1.5 1.5 0 11-3.001-.001 1.5 1.5 0 013.001.001zm20 0a1.5 1.5 0 11-3.001-.001 1.5 1.5 0 013.001.001zm20 0a1.5 1.5 0 11-3.001-.001 1.5 1.5 0 013.001.001zm20 0a1.5 1.5 0 11-3.001-.001 1.5 1.5 0 013.001.001zm20 0a1.5 1.5 0 11-3.001-.001 1.5 1.5 0 013.001.001zm20 0a1.5 1.5 0 11-3.001-.001 1.5 1.5 0 013.001.001zm20 0a1.5 1.5 0 11-3.001-.001 1.5 1.5 0 013.001.001zm20 0a1.5 1.5 0 11-3.001-.001 1.5 1.5 0 013.001.001zm20 0a1.5 1.5 0 11-3.001-.001 1.5 1.5 0 013.001.001zm-280 20a1.5 1.5 0 11-3.001-.001 1.5 1.5 0 013.001.001zm20 0a1.5 1.5 0 11-3.001-.001 1.5 1.5 0 013.001.001zm20 0a1.5 1.5 0 11-3.001-.001 1.5 1.5 0 013.001.001zm20 0a1.5 1.5 0 11-3.001-.001 1.5 1.5 0 013.001.001zm20 0a1.5 1.5 0 11-3.001-.001 1.5 1.5 0 013.001.001zm20 0a1.5 1.5 0 11-3.001-.001 1.5 1.5 0 013.001.001zm20 0a1.5 1.5 0 11-3.001-.001 1.5 1.5 0 013.001.001zm20 0a1.5 1.5 0 11-3.001-.001 1.5 1.5 0 013.001.001zm20 0a1.5 1.5 0 11-3.001-.001 1.5 1.5 0 013.001.001zm20 0a1.5 1.5 0 11-3.001-.001 1.5 1.5 0 013.001.001zm20 0a1.5 1.5 0 11-3.001-.001 1.5 1.5 0 013.001.001zm20 0a1.5 1.5 0 11-3.001-.001 1.5 1.5 0 013.001.001zm20 0a1.5 1.5 0 11-3.001-.001 1.5 1.5 0 013.001.001zm20 0a1.5 1.5 0 11-3.001-.001 1.5 1.5 0 013.001.001zm20 0a1.5 1.5 0 11-3.001-.001 1.5 1.5 0 013.001.001zm-280 20a1.5 1.5 0 11-3.001-.001 1.5 1.5 0 013.001.001zm20 0a1.5 1.5 0 11-3.001-.001 1.5 1.5 0 013.001.001zm20 0a1.5 1.5 0 11-3.001-.001 1.5 1.5 0 013.001.001zm20 0a1.5 1.5 0 11-3.001-.001 1.5 1.5 0 013.001.001zm20 0a1.5 1.5 0 11-3.001-.001 1.5 1.5 0 013.001.001zm20 0a1.5 1.5 0 11-3.001-.001 1.5 1.5 0 013.001.001zm20 0a1.5 1.5 0 11-3.001-.001 1.5 1.5 0 013.001.001zm20 0a1.5 1.5 0 11-3.001-.001 1.5 1.5 0 013.001.001zm20 0a1.5 1.5 0 11-3.001-.001 1.5 1.5 0 013.001.001zm20 0a1.5 1.5 0 11-3.001-.001 1.5 1.5 0 013.001.001zm20 0a1.5 1.5 0 11-3.001-.001 1.5 1.5 0 013.001.001zm20 0a1.5 1.5 0 11-3.001-.001 1.5 1.5 0 013.001.001zm20 0a1.5 1.5 0 11-3.001-.001 1.5 1.5 0 013.001.001zm20 0a1.5 1.5 0 11-3.001-.001 1.5 1.5 0 013.001.001zm20 0a1.5 1.5 0 11-3.001-.001 1.5 1.5 0 013.001.001zm20-220a1.5 1.5 0 11-3.001-.001 1.5 1.5 0 013.001.001zm20 0a1.5 1.5 0 11-3.001-.001 1.5 1.5 0 013.001.001zm20 0a1.5 1.5 0 11-3.001-.001 1.5 1.5 0 013.001.001zm20 0a1.5 1.5 0 11-3.001-.001 1.5 1.5 0 013.001.001zm20 0a1.5 1.5 0 11-3.001-.001 1.5 1.5 0 013.001.001zm20 0a1.5 1.5 0 11-3.001-.001 1.5 1.5 0 013.001.001zm20 0a1.5 1.5 0 11-3.001-.001 1.5 1.5 0 013.001.001zm20 0a1.5 1.5 0 11-3.001-.001 1.5 1.5 0 013.001.001zm20 0a1.5 1.5 0 11-3.001-.001 1.5 1.5 0 013.001.001zm-160 20a1.5 1.5 0 11-3.001-.001 1.5 1.5 0 013.001.001zm20 0a1.5 1.5 0 11-3.001-.001 1.5 1.5 0 013.001.001zm20 0a1.5 1.5 0 11-3.001-.001 1.5 1.5 0 013.001.001zm20 0a1.5 1.5 0 11-3.001-.001 1.5 1.5 0 013.001.001zm20 0a1.5 1.5 0 11-3.001-.001 1.5 1.5 0 013.001.001zm20 0a1.5 1.5 0 11-3.001-.001 1.5 1.5 0 013.001.001zm20 0a1.5 1.5 0 11-3.001-.001 1.5 1.5 0 013.001.001zm20 0a1.5 1.5 0 11-3.001-.001 1.5 1.5 0 013.001.001zm20 0a1.5 1.5 0 11-3.001-.001 1.5 1.5 0 013.001.001zm-160 20a1.5 1.5 0 11-3.001-.001 1.5 1.5 0 013.001.001zm20 0a1.5 1.5 0 11-3.001-.001 1.5 1.5 0 013.001.001zm20 0a1.5 1.5 0 11-3.001-.001 1.5 1.5 0 013.001.001zm20 0a1.5 1.5 0 11-3.001-.001 1.5 1.5 0 013.001.001zm20 0a1.5 1.5 0 11-3.001-.001 1.5 1.5 0 013.001.001zm20 0a1.5 1.5 0 11-3.001-.001 1.5 1.5 0 013.001.001zm20 0a1.5 1.5 0 11-3.001-.001 1.5 1.5 0 013.001.001zm20 0a1.5 1.5 0 11-3.001-.001 1.5 1.5 0 013.001.001zm20 0a1.5 1.5 0 11-3.001-.001 1.5 1.5 0 013.001.001zm-160 20a1.5 1.5 0 11-3.001-.001 1.5 1.5 0 013.001.001zm20 0a1.5 1.5 0 11-3.001-.001 1.5 1.5 0 013.001.001zm20 0a1.5 1.5 0 11-3.001-.001 1.5 1.5 0 013.001.001zm20 0a1.5 1.5 0 11-3.001-.001 1.5 1.5 0 013.001.001zm20 0a1.5 1.5 0 11-3.001-.001 1.5 1.5 0 013.001.001zm20 0a1.5 1.5 0 11-3.001-.001 1.5 1.5 0 013.001.001zm20 0a1.5 1.5 0 11-3.001-.001 1.5 1.5 0 013.001.001zm20 0a1.5 1.5 0 11-3.001-.001 1.5 1.5 0 013.001.001zm20 0a1.5 1.5 0 11-3.001-.001 1.5 1.5 0 013.001.001zm-160 20a1.5 1.5 0 11-3.001-.001 1.5 1.5 0 013.001.001zm20 0a1.5 1.5 0 11-3.001-.001 1.5 1.5 0 013.001.001zm20 0a1.5 1.5 0 11-3.001-.001 1.5 1.5 0 013.001.001zm20 0a1.5 1.5 0 11-3.001-.001 1.5 1.5 0 013.001.001zm20 0a1.5 1.5 0 11-3.001-.001 1.5 1.5 0 013.001.001zm20 0a1.5 1.5 0 11-3.001-.001 1.5 1.5 0 013.001.001zm20 0a1.5 1.5 0 11-3.001-.001 1.5 1.5 0 013.001.001zm20 0a1.5 1.5 0 11-3.001-.001 1.5 1.5 0 013.001.001zm20 0a1.5 1.5 0 11-3.001-.001 1.5 1.5 0 013.001.001zm-160 20a1.5 1.5 0 11-3.001-.001 1.5 1.5 0 013.001.001zm20 0a1.5 1.5 0 11-3.001-.001 1.5 1.5 0 013.001.001zm20 0a1.5 1.5 0 11-3.001-.001 1.5 1.5 0 013.001.001zm20 0a1.5 1.5 0 11-3.001-.001 1.5 1.5 0 013.001.001zm20 0a1.5 1.5 0 11-3.001-.001 1.5 1.5 0 013.001.001zm20 0a1.5 1.5 0 11-3.001-.001 1.5 1.5 0 013.001.001zm20 0a1.5 1.5 0 11-3.001-.001 1.5 1.5 0 013.001.001zm20 0a1.5 1.5 0 11-3.001-.001 1.5 1.5 0 013.001.001zm20 0a1.5 1.5 0 11-3.001-.001 1.5 1.5 0 013.001.001zm-160 20a1.5 1.5 0 11-3.001-.001 1.5 1.5 0 013.001.001zm20 0a1.5 1.5 0 11-3.001-.001 1.5 1.5 0 013.001.001zm20 0a1.5 1.5 0 11-3.001-.001 1.5 1.5 0 013.001.001zm20 0a1.5 1.5 0 11-3.001-.001 1.5 1.5 0 013.001.001zm20 0a1.5 1.5 0 11-3.001-.001 1.5 1.5 0 013.001.001zm20 0a1.5 1.5 0 11-3.001-.001 1.5 1.5 0 013.001.001zm20 0a1.5 1.5 0 11-3.001-.001 1.5 1.5 0 013.001.001zm20 0a1.5 1.5 0 11-3.001-.001 1.5 1.5 0 013.001.001zm20 0a1.5 1.5 0 11-3.001-.001 1.5 1.5 0 013.001.001zm-160 20a1.5 1.5 0 11-3.001-.001 1.5 1.5 0 013.001.001zm20 0a1.5 1.5 0 11-3.001-.001 1.5 1.5 0 013.001.001zm20 0a1.5 1.5 0 11-3.001-.001 1.5 1.5 0 013.001.001zm20 0a1.5 1.5 0 11-3.001-.001 1.5 1.5 0 013.001.001zm20 0a1.5 1.5 0 11-3.001-.001 1.5 1.5 0 013.001.001zm20 0a1.5 1.5 0 11-3.001-.001 1.5 1.5 0 013.001.001zm20 0a1.5 1.5 0 11-3.001-.001 1.5 1.5 0 013.001.001zm20 0a1.5 1.5 0 11-3.001-.001 1.5 1.5 0 013.001.001zm-140 20a1.5 1.5 0 11-3.001-.001 1.5 1.5 0 013.001.001zm20 0a1.5 1.5 0 11-3.001-.001 1.5 1.5 0 013.001.001zm20 0a1.5 1.5 0 11-3.001-.001 1.5 1.5 0 013.001.001zm20 0a1.5 1.5 0 11-3.001-.001 1.5 1.5 0 013.001.001zm20 0a1.5 1.5 0 11-3.001-.001 1.5 1.5 0 013.001.001zm20 0a1.5 1.5 0 11-3.001-.001 1.5 1.5 0 013.001.001zm-100 20a1.5 1.5 0 11-3.001-.001 1.5 1.5 0 013.001.001zm20 0a1.5 1.5 0 11-3.001-.001 1.5 1.5 0 013.001.001zm20 0a1.5 1.5 0 11-3.001-.001 1.5 1.5 0 013.001.001zm20 0a1.5 1.5 0 11-3.001-.001 1.5 1.5 0 013.001.001zm-60 20a1.5 1.5 0 11-3.001-.001 1.5 1.5 0 013.001.001zm20 0a1.5 1.5 0 11-3.001-.001 1.5 1.5 0 013.001.001zm-540 40a1.5 1.5 0 11-3.001-.001 1.5 1.5 0 013.001.001zm20 0a1.5 1.5 0 11-3.001-.001 1.5 1.5 0 013.001.001zm20 0a1.5 1.5 0 11-3.001-.001 1.5 1.5 0 013.001.001zm20 0a1.5 1.5 0 11-3.001-.001 1.5 1.5 0 013.001.001zm20 0a1.5 1.5 0 11-3.001-.001 1.5 1.5 0 013.001.001zm20 0a1.5 1.5 0 11-3.001-.001 1.5 1.5 0 013.001.001zm20 0a1.5 1.5 0 11-3.001-.001 1.5 1.5 0 013.001.001zm20 0a1.5 1.5 0 11-3.001-.001 1.5 1.5 0 013.001.001zm20 0a1.5 1.5 0 11-3.001-.001 1.5 1.5 0 013.001.001zm20 0a1.5 1.5 0 11-3.001-.001 1.5 1.5 0 013.001.001zm20 0a1.5 1.5 0 11-3.001-.001 1.5 1.5 0 013.001.001zm20 0a1.5 1.5 0 11-3.001-.001 1.5 1.5 0 013.001.001zm20 0a1.5 1.5 0 11-3.001-.001 1.5 1.5 0 013.001.001zm20 0a1.5 1.5 0 11-3.001-.001 1.5 1.5 0 013.001.001zm20 0a1.5 1.5 0 11-3.001-.001 1.5 1.5 0 013.001.001zm20 0a1.5 1.5 0 11-3.001-.001 1.5 1.5 0 013.001.001zm20 0a1.5 1.5 0 11-3.001-.001 1.5 1.5 0 013.001.001zm20 0a1.5 1.5 0 11-3.001-.001 1.5 1.5 0 013.001.001zm20 0a1.5 1.5 0 11-3.001-.001 1.5 1.5 0 013.001.001zm20 0a1.5 1.5 0 11-3.001-.001 1.5 1.5 0 013.001.001zm20 0a1.5 1.5 0 11-3.001-.001 1.5 1.5 0 013.001.001zm20 0a1.5 1.5 0 11-3.001-.001 1.5 1.5 0 013.001.001zm20 0a1.5 1.5 0 11-3.001-.001 1.5 1.5 0 013.001.001zm-540-560a1.5 1.5 0 11-3 0 1.5 1.5 0 013 0zm-20 20a1.5 1.5 0 11-3 0 1.5 1.5 0 013 0zm20 0a1.5 1.5 0 11-3 0 1.5 1.5 0 013 0zm-20 20a1.5 1.5 0 11-3 0 1.5 1.5 0 013 0zm20 0a1.5 1.5 0 11-3 0 1.5 1.5 0 013 0zm-20 20a1.5 1.5 0 11-3 0 1.5 1.5 0 013 0zm20 0a1.5 1.5 0 11-3 0 1.5 1.5 0 013 0zm200-180a1.5 1.5 0 11-3 0 1.5 1.5 0 013 0zm20 0a1.5 1.5 0 11-3 0 1.5 1.5 0 013 0zm20 0a1.5 1.5 0 11-3 0 1.5 1.5 0 013 0zm20 0a1.5 1.5 0 11-3 0 1.5 1.5 0 013 0zm20 0a1.5 1.5 0 11-3 0 1.5 1.5 0 013 0zm20 0a1.5 1.5 0 11-3 0 1.5 1.5 0 013 0zm-220 20a1.5 1.5 0 11-3 0 1.5 1.5 0 013 0zm20 0a1.5 1.5 0 11-3 0 1.5 1.5 0 013 0zm20 0a1.5 1.5 0 11-3 0 1.5 1.5 0 013 0zm20 0a1.5 1.5 0 11-3 0 1.5 1.5 0 013 0zm20 0a1.5 1.5 0 11-3 0 1.5 1.5 0 013 0zm20 0a1.5 1.5 0 11-3 0 1.5 1.5 0 013 0zm20 0a1.5 1.5 0 11-3 0 1.5 1.5 0 013 0zm20 0a1.5 1.5 0 11-3 0 1.5 1.5 0 013 0zm20 0a1.5 1.5 0 11-3 0 1.5 1.5 0 013 0zm20 0a1.5 1.5 0 11-3 0 1.5 1.5 0 013 0zm20 0a1.5 1.5 0 11-3 0 1.5 1.5 0 013 0zm20 0a1.5 1.5 0 11-3 0 1.5 1.5 0 013 0zm-240 20a1.5 1.5 0 11-3 0 1.5 1.5 0 013 0zm20 0a1.5 1.5 0 11-3 0 1.5 1.5 0 013 0zm20 0a1.5 1.5 0 11-3 0 1.5 1.5 0 013 0zm20 0a1.5 1.5 0 11-3 0 1.5 1.5 0 013 0zm20 0a1.5 1.5 0 11-3 0 1.5 1.5 0 013 0zm20 0a1.5 1.5 0 11-3 0 1.5 1.5 0 013 0zm20 0a1.5 1.5 0 11-3 0 1.5 1.5 0 013 0zm20 0a1.5 1.5 0 11-3 0 1.5 1.5 0 013 0zm20 0a1.5 1.5 0 11-3 0 1.5 1.5 0 013 0zm20 0a1.5 1.5 0 11-3 0 1.5 1.5 0 013 0zm20 0a1.5 1.5 0 11-3 0 1.5 1.5 0 013 0zm20 0a1.5 1.5 0 11-3 0 1.5 1.5 0 013 0zm20 0a1.5 1.5 0 11-3 0 1.5 1.5 0 013 0zm-260 20a1.5 1.5 0 11-3 0 1.5 1.5 0 013 0zm20 0a1.5 1.5 0 11-3 0 1.5 1.5 0 013 0zm20 0a1.5 1.5 0 11-3 0 1.5 1.5 0 013 0zm20 0a1.5 1.5 0 11-3 0 1.5 1.5 0 013 0zm20 0a1.5 1.5 0 11-3 0 1.5 1.5 0 013 0zm20 0a1.5 1.5 0 11-3 0 1.5 1.5 0 013 0zm20 0a1.5 1.5 0 11-3 0 1.5 1.5 0 013 0zm20 0a1.5 1.5 0 11-3 0 1.5 1.5 0 013 0zm20 0a1.5 1.5 0 11-3 0 1.5 1.5 0 013 0zm20 0a1.5 1.5 0 11-3 0 1.5 1.5 0 013 0zm20 0a1.5 1.5 0 11-3 0 1.5 1.5 0 013 0zm20 0a1.5 1.5 0 11-3 0 1.5 1.5 0 013 0zm20 0a1.5 1.5 0 11-3 0 1.5 1.5 0 013 0zm20 0a1.5 1.5 0 11-3 0 1.5 1.5 0 013 0zm-260 20a1.5 1.5 0 11-3 0 1.5 1.5 0 013 0zm20 0a1.5 1.5 0 11-3 0 1.5 1.5 0 013 0zm20 0a1.5 1.5 0 11-3 0 1.5 1.5 0 013 0zm20 0a1.5 1.5 0 11-3 0 1.5 1.5 0 013 0zm20 0a1.5 1.5 0 11-3 0 1.5 1.5 0 013 0zm20 0a1.5 1.5 0 11-3 0 1.5 1.5 0 013 0zm20 0a1.5 1.5 0 11-3 0 1.5 1.5 0 013 0zm20 0a1.5 1.5 0 11-3 0 1.5 1.5 0 013 0zm20 0a1.5 1.5 0 11-3 0 1.5 1.5 0 013 0zm20 0a1.5 1.5 0 11-3 0 1.5 1.5 0 013 0zm20 0a1.5 1.5 0 11-3 0 1.5 1.5 0 013 0zm20 0a1.5 1.5 0 11-3 0 1.5 1.5 0 013 0zm20 0a1.5 1.5 0 11-3 0 1.5 1.5 0 013 0zm20 0a1.5 1.5 0 11-3 0 1.5 1.5 0 013 0zm-280 20a1.5 1.5 0 11-3 0 1.5 1.5 0 013 0zm20 0a1.5 1.5 0 11-3 0 1.5 1.5 0 013 0zm20 0a1.5 1.5 0 11-3 0 1.5 1.5 0 013 0zm20 0a1.5 1.5 0 11-3 0 1.5 1.5 0 013 0zm20 0a1.5 1.5 0 11-3.001-.001 1.5 1.5 0 013.001.001zm20 0a1.5 1.5 0 11-3.001-.001 1.5 1.5 0 013.001.001zm20 0a1.5 1.5 0 11-3.001-.001 1.5 1.5 0 013.001.001zm20 0a1.5 1.5 0 11-3.001-.001 1.5 1.5 0 013.001.001zm20 0a1.5 1.5 0 11-3.001-.001 1.5 1.5 0 013.001.001zm20 0a1.5 1.5 0 11-3.001-.001 1.5 1.5 0 013.001.001zm20 0a1.5 1.5 0 11-3.001-.001 1.5 1.5 0 013.001.001zm20 0a1.5 1.5 0 11-3.001-.001 1.5 1.5 0 013.001.001zm20 0a1.5 1.5 0 11-3.001-.001 1.5 1.5 0 013.001.001zm20 0a1.5 1.5 0 11-3.001-.001 1.5 1.5 0 013.001.001zm20 0a1.5 1.5 0 11-3.001-.001 1.5 1.5 0 013.001.001zm-280 20a1.5 1.5 0 11-3 0 1.5 1.5 0 013 0zm20 0a1.5 1.5 0 11-3 0 1.5 1.5 0 013 0zm20 0a1.5 1.5 0 11-3 0 1.5 1.5 0 013 0zm20 0a1.5 1.5 0 11-3 0 1.5 1.5 0 013 0zm20 0a1.5 1.5 0 11-3.001-.001 1.5 1.5 0 013.001.001zm20 0a1.5 1.5 0 11-3.001-.001 1.5 1.5 0 013.001.001zm20 0a1.5 1.5 0 11-3.001-.001 1.5 1.5 0 013.001.001zm20 0a1.5 1.5 0 11-3.001-.001 1.5 1.5 0 013.001.001zm20 0a1.5 1.5 0 11-3.001-.001 1.5 1.5 0 013.001.001zm20 0a1.5 1.5 0 11-3.001-.001 1.5 1.5 0 013.001.001zm20 0a1.5 1.5 0 11-3.001-.001 1.5 1.5 0 013.001.001zm20 0a1.5 1.5 0 11-3.001-.001 1.5 1.5 0 013.001.001zm20 0a1.5 1.5 0 11-3.001-.001 1.5 1.5 0 013.001.001zm20 0a1.5 1.5 0 11-3.001-.001 1.5 1.5 0 013.001.001zm20 0a1.5 1.5 0 11-3.001-.001 1.5 1.5 0 013.001.001zm-280 20a1.5 1.5 0 11-3 0 1.5 1.5 0 013 0zm20 0a1.5 1.5 0 11-3 0 1.5 1.5 0 013 0zm20 0a1.5 1.5 0 11-3 0 1.5 1.5 0 013 0zm20 0a1.5 1.5 0 11-3 0 1.5 1.5 0 013 0zm20 0a1.5 1.5 0 11-3.001-.001 1.5 1.5 0 013.001.001zm20 0a1.5 1.5 0 11-3.001-.001 1.5 1.5 0 013.001.001zm20 0a1.5 1.5 0 11-3.001-.001 1.5 1.5 0 013.001.001zm20 0a1.5 1.5 0 11-3.001-.001 1.5 1.5 0 013.001.001zm20 0a1.5 1.5 0 11-3.001-.001 1.5 1.5 0 013.001.001zm20 0a1.5 1.5 0 11-3.001-.001 1.5 1.5 0 013.001.001zm20 0a1.5 1.5 0 11-3.001-.001 1.5 1.5 0 013.001.001zm20 0a1.5 1.5 0 11-3.001-.001 1.5 1.5 0 013.001.001zm20 0a1.5 1.5 0 11-3.001-.001 1.5 1.5 0 013.001.001zm20 0a1.5 1.5 0 11-3.001-.001 1.5 1.5 0 013.001.001zm20 0a1.5 1.5 0 11-3.001-.001 1.5 1.5 0 013.001.001zm-280 20a1.5 1.5 0 11-3 0 1.5 1.5 0 013 0zm20 0a1.5 1.5 0 11-3 0 1.5 1.5 0 013 0zm20 0a1.5 1.5 0 11-3 0 1.5 1.5 0 013 0zm20 0a1.5 1.5 0 11-3 0 1.5 1.5 0 013 0zm20 0a1.5 1.5 0 11-3.001-.001 1.5 1.5 0 013.001.001zm20 0a1.5 1.5 0 11-3.001-.001 1.5 1.5 0 013.001.001zm20 0a1.5 1.5 0 11-3.001-.001 1.5 1.5 0 013.001.001zm20 0a1.5 1.5 0 11-3.001-.001 1.5 1.5 0 013.001.001zm20 0a1.5 1.5 0 11-3.001-.001 1.5 1.5 0 013.001.001zm20 0a1.5 1.5 0 11-3.001-.001 1.5 1.5 0 013.001.001zm20 0a1.5 1.5 0 11-3.001-.001 1.5 1.5 0 013.001.001zm20 0a1.5 1.5 0 11-3.001-.001 1.5 1.5 0 013.001.001zm20 0a1.5 1.5 0 11-3.001-.001 1.5 1.5 0 013.001.001zm20 0a1.5 1.5 0 11-3.001-.001 1.5 1.5 0 013.001.001zm20 0a1.5 1.5 0 11-3.001-.001 1.5 1.5 0 013.001.001zm-280 20a1.5 1.5 0 11-3 0 1.5 1.5 0 013 0zm20 0a1.5 1.5 0 11-3 0 1.5 1.5 0 013 0zm20 0a1.5 1.5 0 11-3 0 1.5 1.5 0 013 0zm20 0a1.5 1.5 0 11-3 0 1.5 1.5 0 013 0zm20 0a1.5 1.5 0 11-3.001-.001 1.5 1.5 0 013.001.001zm20 0a1.5 1.5 0 11-3.001-.001 1.5 1.5 0 013.001.001zm20 0a1.5 1.5 0 11-3.001-.001 1.5 1.5 0 013.001.001zm20 0a1.5 1.5 0 11-3.001-.001 1.5 1.5 0 013.001.001zm20 0a1.5 1.5 0 11-3.001-.001 1.5 1.5 0 013.001.001zm20 0a1.5 1.5 0 11-3.001-.001 1.5 1.5 0 013.001.001zm20 0a1.5 1.5 0 11-3.001-.001 1.5 1.5 0 013.001.001zm20 0a1.5 1.5 0 11-3.001-.001 1.5 1.5 0 013.001.001zm20 0a1.5 1.5 0 11-3.001-.001 1.5 1.5 0 013.001.001zm20 0a1.5 1.5 0 11-3.001-.001 1.5 1.5 0 013.001.001zm20 0a1.5 1.5 0 11-3.001-.001 1.5 1.5 0 013.001.001zm20-180a1.5 1.5 0 11-3 0 1.5 1.5 0 013 0zm20 0a1.5 1.5 0 11-3 0 1.5 1.5 0 013 0zm20 0a1.5 1.5 0 11-3 0 1.5 1.5 0 013 0zm20 0a1.5 1.5 0 11-3 0 1.5 1.5 0 013 0zm20 0a1.5 1.5 0 11-3 0 1.5 1.5 0 013 0zm20 0a1.5 1.5 0 11-3 0 1.5 1.5 0 013 0zm20 0a1.5 1.5 0 11-3 0 1.5 1.5 0 013 0zm20 0a1.5 1.5 0 11-3 0 1.5 1.5 0 013 0zm20 0a1.5 1.5 0 11-3 0 1.5 1.5 0 013 0zm20 0a1.5 1.5 0 11-3 0 1.5 1.5 0 013 0zm20 0a1.5 1.5 0 11-3 0 1.5 1.5 0 013 0zm20 0a1.5 1.5 0 11-3 0 1.5 1.5 0 013 0zm20 0a1.5 1.5 0 11-3 0 1.5 1.5 0 013 0zm20 0a1.5 1.5 0 11-3 0 1.5 1.5 0 013 0zm20 0a1.5 1.5 0 11-3 0 1.5 1.5 0 013 0zm-280 20a1.5 1.5 0 11-3 0 1.5 1.5 0 013 0zm20 0a1.5 1.5 0 11-3 0 1.5 1.5 0 013 0zm20 0a1.5 1.5 0 11-3 0 1.5 1.5 0 013 0zm20 0a1.5 1.5 0 11-3 0 1.5 1.5 0 013 0zm20 0a1.5 1.5 0 11-3 0 1.5 1.5 0 013 0zm20 0a1.5 1.5 0 11-3 0 1.5 1.5 0 013 0zm20 0a1.5 1.5 0 11-3 0 1.5 1.5 0 013 0zm20 0a1.5 1.5 0 11-3 0 1.5 1.5 0 013 0zm20 0a1.5 1.5 0 11-3 0 1.5 1.5 0 013 0zm20 0a1.5 1.5 0 11-3 0 1.5 1.5 0 013 0zm20 0a1.5 1.5 0 11-3 0 1.5 1.5 0 013 0zm20 0a1.5 1.5 0 11-3 0 1.5 1.5 0 013 0zm20 0a1.5 1.5 0 11-3 0 1.5 1.5 0 013 0zm20 0a1.5 1.5 0 11-3 0 1.5 1.5 0 013 0zm20 0a1.5 1.5 0 11-3 0 1.5 1.5 0 013 0zm-280 20a1.5 1.5 0 11-3 0 1.5 1.5 0 013 0zm20 0a1.5 1.5 0 11-3 0 1.5 1.5 0 013 0zm20 0a1.5 1.5 0 11-3 0 1.5 1.5 0 013 0zm20 0a1.5 1.5 0 11-3 0 1.5 1.5 0 013 0zm20 0a1.5 1.5 0 11-3 0 1.5 1.5 0 013 0zm20 0a1.5 1.5 0 11-3 0 1.5 1.5 0 013 0zm20 0a1.5 1.5 0 11-3 0 1.5 1.5 0 013 0zm20 0a1.5 1.5 0 11-3 0 1.5 1.5 0 013 0zm20 0a1.5 1.5 0 11-3 0 1.5 1.5 0 013 0zm20 0a1.5 1.5 0 11-3 0 1.5 1.5 0 013 0zm20 0a1.5 1.5 0 11-3 0 1.5 1.5 0 013 0zm20 0a1.5 1.5 0 11-3 0 1.5 1.5 0 013 0zm20 0a1.5 1.5 0 11-3 0 1.5 1.5 0 013 0zm20 0a1.5 1.5 0 11-3 0 1.5 1.5 0 013 0zm20 0a1.5 1.5 0 11-3 0 1.5 1.5 0 013 0zm-280 20a1.5 1.5 0 11-3 0 1.5 1.5 0 013 0zm20 0a1.5 1.5 0 11-3 0 1.5 1.5 0 013 0zm20 0a1.5 1.5 0 11-3 0 1.5 1.5 0 013 0zm20 0a1.5 1.5 0 11-3 0 1.5 1.5 0 013 0zm20 0a1.5 1.5 0 11-3 0 1.5 1.5 0 013 0zm20 0a1.5 1.5 0 11-3 0 1.5 1.5 0 013 0zm20 0a1.5 1.5 0 11-3 0 1.5 1.5 0 013 0zm20 0a1.5 1.5 0 11-3 0 1.5 1.5 0 013 0zm20 0a1.5 1.5 0 11-3 0 1.5 1.5 0 013 0zm20 0a1.5 1.5 0 11-3 0 1.5 1.5 0 013 0zm20 0a1.5 1.5 0 11-3 0 1.5 1.5 0 013 0zm20 0a1.5 1.5 0 11-3 0 1.5 1.5 0 013 0zm20 0a1.5 1.5 0 11-3 0 1.5 1.5 0 013 0zm20 0a1.5 1.5 0 11-3 0 1.5 1.5 0 013 0zm20 0a1.5 1.5 0 11-3 0 1.5 1.5 0 013 0zm-280 20a1.5 1.5 0 11-3 0 1.5 1.5 0 013 0zm20 0a1.5 1.5 0 11-3 0 1.5 1.5 0 013 0zm20 0a1.5 1.5 0 11-3 0 1.5 1.5 0 013 0zm20 0a1.5 1.5 0 11-3 0 1.5 1.5 0 013 0zm20 0a1.5 1.5 0 11-3 0 1.5 1.5 0 013 0zm20 0a1.5 1.5 0 11-3 0 1.5 1.5 0 013 0zm20 0a1.5 1.5 0 11-3 0 1.5 1.5 0 013 0zm20 0a1.5 1.5 0 11-3 0 1.5 1.5 0 013 0zm20 0a1.5 1.5 0 11-3 0 1.5 1.5 0 013 0zm20 0a1.5 1.5 0 11-3 0 1.5 1.5 0 013 0zm20 0a1.5 1.5 0 11-3 0 1.5 1.5 0 013 0zm20 0a1.5 1.5 0 11-3 0 1.5 1.5 0 013 0zm20 0a1.5 1.5 0 11-3 0 1.5 1.5 0 013 0zm20 0a1.5 1.5 0 11-3 0 1.5 1.5 0 013 0zm20 0a1.5 1.5 0 11-3 0 1.5 1.5 0 013 0zm-280 20a1.5 1.5 0 11-3.001-.001 1.5 1.5 0 013.001.001zm20 0a1.5 1.5 0 11-3.001-.001 1.5 1.5 0 013.001.001zm20 0a1.5 1.5 0 11-3.001-.001 1.5 1.5 0 013.001.001zm20 0a1.5 1.5 0 11-3.001-.001 1.5 1.5 0 013.001.001zm20 0a1.5 1.5 0 11-3.001-.001 1.5 1.5 0 013.001.001zm20 0a1.5 1.5 0 11-3.001-.001 1.5 1.5 0 013.001.001zm20 0a1.5 1.5 0 11-3.001-.001 1.5 1.5 0 013.001.001zm20 0a1.5 1.5 0 11-3.001-.001 1.5 1.5 0 013.001.001zm20 0a1.5 1.5 0 11-3.001-.001 1.5 1.5 0 013.001.001zm20 0a1.5 1.5 0 11-3.001-.001 1.5 1.5 0 013.001.001zm20 0a1.5 1.5 0 11-3.001-.001 1.5 1.5 0 013.001.001zm20 0a1.5 1.5 0 11-3.001-.001 1.5 1.5 0 013.001.001zm20 0a1.5 1.5 0 11-3.001-.001 1.5 1.5 0 013.001.001zm20 0a1.5 1.5 0 11-3.001-.001 1.5 1.5 0 013.001.001zm20 0a1.5 1.5 0 11-3.001-.001 1.5 1.5 0 013.001.001zm-280 20a1.5 1.5 0 11-3.001-.001 1.5 1.5 0 013.001.001zm20 0a1.5 1.5 0 11-3.001-.001 1.5 1.5 0 013.001.001zm20 0a1.5 1.5 0 11-3.001-.001 1.5 1.5 0 013.001.001zm20 0a1.5 1.5 0 11-3.001-.001 1.5 1.5 0 013.001.001zm20 0a1.5 1.5 0 11-3.001-.001 1.5 1.5 0 013.001.001zm20 0a1.5 1.5 0 11-3.001-.001 1.5 1.5 0 013.001.001zm20 0a1.5 1.5 0 11-3.001-.001 1.5 1.5 0 013.001.001zm20 0a1.5 1.5 0 11-3.001-.001 1.5 1.5 0 013.001.001zm20 0a1.5 1.5 0 11-3.001-.001 1.5 1.5 0 013.001.001zm20 0a1.5 1.5 0 11-3.001-.001 1.5 1.5 0 013.001.001zm20 0a1.5 1.5 0 11-3.001-.001 1.5 1.5 0 013.001.001zm20 0a1.5 1.5 0 11-3.001-.001 1.5 1.5 0 013.001.001zm20 0a1.5 1.5 0 11-3.001-.001 1.5 1.5 0 013.001.001zm20 0a1.5 1.5 0 11-3.001-.001 1.5 1.5 0 013.001.001zm20 0a1.5 1.5 0 11-3.001-.001 1.5 1.5 0 013.001.001zm-280 20a1.5 1.5 0 11-3.001-.001 1.5 1.5 0 013.001.001zm20 0a1.5 1.5 0 11-3.001-.001 1.5 1.5 0 013.001.001zm20 0a1.5 1.5 0 11-3.001-.001 1.5 1.5 0 013.001.001zm20 0a1.5 1.5 0 11-3.001-.001 1.5 1.5 0 013.001.001zm20 0a1.5 1.5 0 11-3.001-.001 1.5 1.5 0 013.001.001zm20 0a1.5 1.5 0 11-3.001-.001 1.5 1.5 0 013.001.001zm20 0a1.5 1.5 0 11-3.001-.001 1.5 1.5 0 013.001.001zm20 0a1.5 1.5 0 11-3.001-.001 1.5 1.5 0 013.001.001zm20 0a1.5 1.5 0 11-3.001-.001 1.5 1.5 0 013.001.001zm20 0a1.5 1.5 0 11-3.001-.001 1.5 1.5 0 013.001.001zm20 0a1.5 1.5 0 11-3.001-.001 1.5 1.5 0 013.001.001zm20 0a1.5 1.5 0 11-3.001-.001 1.5 1.5 0 013.001.001zm20 0a1.5 1.5 0 11-3.001-.001 1.5 1.5 0 013.001.001zm20 0a1.5 1.5 0 11-3.001-.001 1.5 1.5 0 013.001.001zm20 0a1.5 1.5 0 11-3.001-.001 1.5 1.5 0 013.001.001zm-280 20a1.5 1.5 0 11-3.001-.001 1.5 1.5 0 013.001.001zm20 0a1.5 1.5 0 11-3.001-.001 1.5 1.5 0 013.001.001zm20 0a1.5 1.5 0 11-3.001-.001 1.5 1.5 0 013.001.001zm20 0a1.5 1.5 0 11-3.001-.001 1.5 1.5 0 013.001.001zm20 0a1.5 1.5 0 11-3.001-.001 1.5 1.5 0 013.001.001zm20 0a1.5 1.5 0 11-3.001-.001 1.5 1.5 0 013.001.001zm20 0a1.5 1.5 0 11-3.001-.001 1.5 1.5 0 013.001.001zm20 0a1.5 1.5 0 11-3.001-.001 1.5 1.5 0 013.001.001zm20 0a1.5 1.5 0 11-3.001-.001 1.5 1.5 0 013.001.001zm20 0a1.5 1.5 0 11-3.001-.001 1.5 1.5 0 013.001.001zm20 0a1.5 1.5 0 11-3.001-.001 1.5 1.5 0 013.001.001zm20 0a1.5 1.5 0 11-3.001-.001 1.5 1.5 0 013.001.001zm20 0a1.5 1.5 0 11-3.001-.001 1.5 1.5 0 013.001.001zm20 0a1.5 1.5 0 11-3.001-.001 1.5 1.5 0 013.001.001zm20 0a1.5 1.5 0 11-3.001-.001 1.5 1.5 0 013.001.001zm-280 20a1.5 1.5 0 11-3.001-.001 1.5 1.5 0 013.001.001zm20 0a1.5 1.5 0 11-3.001-.001 1.5 1.5 0 013.001.001zm20 0a1.5 1.5 0 11-3.001-.001 1.5 1.5 0 013.001.001zm20 0a1.5 1.5 0 11-3.001-.001 1.5 1.5 0 013.001.001zm20 0a1.5 1.5 0 11-3.001-.001 1.5 1.5 0 013.001.001zm20 0a1.5 1.5 0 11-3.001-.001 1.5 1.5 0 013.001.001zm20 0a1.5 1.5 0 11-3.001-.001 1.5 1.5 0 013.001.001zm20 0a1.5 1.5 0 11-3.001-.001 1.5 1.5 0 013.001.001zm20 0a1.5 1.5 0 11-3.001-.001 1.5 1.5 0 013.001.001zm20 0a1.5 1.5 0 11-3.001-.001 1.5 1.5 0 013.001.001zm20 0a1.5 1.5 0 11-3.001-.001 1.5 1.5 0 013.001.001zm20 0a1.5 1.5 0 11-3.001-.001 1.5 1.5 0 013.001.001zm20 0a1.5 1.5 0 11-3.001-.001 1.5 1.5 0 013.001.001zm20 0a1.5 1.5 0 11-3.001-.001 1.5 1.5 0 013.001.001zm20 0a1.5 1.5 0 11-3.001-.001 1.5 1.5 0 013.001.001zm20-180a1.5 1.5 0 11-3 0 1.5 1.5 0 013 0zm20 0a1.5 1.5 0 11-3 0 1.5 1.5 0 013 0zm20 0a1.5 1.5 0 11-3 0 1.5 1.5 0 013 0zm20 0a1.5 1.5 0 11-3 0 1.5 1.5 0 013 0zm20 0a1.5 1.5 0 11-3 0 1.5 1.5 0 013 0zm20 0a1.5 1.5 0 11-3 0 1.5 1.5 0 013 0zm20 0a1.5 1.5 0 11-3 0 1.5 1.5 0 013 0zm-120 20a1.5 1.5 0 11-3 0 1.5 1.5 0 013 0zm20 0a1.5 1.5 0 11-3 0 1.5 1.5 0 013 0zm20 0a1.5 1.5 0 11-3 0 1.5 1.5 0 013 0zm20 0a1.5 1.5 0 11-3 0 1.5 1.5 0 013 0zm20 0a1.5 1.5 0 11-3 0 1.5 1.5 0 013 0zm20 0a1.5 1.5 0 11-3 0 1.5 1.5 0 013 0zm20 0a1.5 1.5 0 11-3 0 1.5 1.5 0 013 0zm20 0a1.5 1.5 0 11-3 0 1.5 1.5 0 013 0zm-140 20a1.5 1.5 0 11-3 0 1.5 1.5 0 013 0zm20 0a1.5 1.5 0 11-3 0 1.5 1.5 0 013 0zm20 0a1.5 1.5 0 11-3 0 1.5 1.5 0 013 0zm20 0a1.5 1.5 0 11-3 0 1.5 1.5 0 013 0zm20 0a1.5 1.5 0 11-3 0 1.5 1.5 0 013 0zm20 0a1.5 1.5 0 11-3 0 1.5 1.5 0 013 0zm20 0a1.5 1.5 0 11-3 0 1.5 1.5 0 013 0zm20 0a1.5 1.5 0 11-3 0 1.5 1.5 0 013 0zm20 0a1.5 1.5 0 11-3 0 1.5 1.5 0 013 0zm-160 20a1.5 1.5 0 11-3 0 1.5 1.5 0 013 0zm20 0a1.5 1.5 0 11-3 0 1.5 1.5 0 013 0zm20 0a1.5 1.5 0 11-3 0 1.5 1.5 0 013 0zm20 0a1.5 1.5 0 11-3 0 1.5 1.5 0 013 0zm20 0a1.5 1.5 0 11-3 0 1.5 1.5 0 013 0zm20 0a1.5 1.5 0 11-3 0 1.5 1.5 0 013 0zm20 0a1.5 1.5 0 11-3 0 1.5 1.5 0 013 0zm20 0a1.5 1.5 0 11-3 0 1.5 1.5 0 013 0zm20 0a1.5 1.5 0 11-3 0 1.5 1.5 0 013 0zm-160 20a1.5 1.5 0 11-3 0 1.5 1.5 0 013 0zm20 0a1.5 1.5 0 11-3 0 1.5 1.5 0 013 0zm20 0a1.5 1.5 0 11-3 0 1.5 1.5 0 013 0zm20 0a1.5 1.5 0 11-3 0 1.5 1.5 0 013 0zm20 0a1.5 1.5 0 11-3 0 1.5 1.5 0 013 0zm20 0a1.5 1.5 0 11-3 0 1.5 1.5 0 013 0zm20 0a1.5 1.5 0 11-3 0 1.5 1.5 0 013 0zm20 0a1.5 1.5 0 11-3 0 1.5 1.5 0 013 0zm20 0a1.5 1.5 0 11-3 0 1.5 1.5 0 013 0zm-160 20a1.5 1.5 0 11-3.001-.001 1.5 1.5 0 013.001.001zm20 0a1.5 1.5 0 11-3.001-.001 1.5 1.5 0 013.001.001zm20 0a1.5 1.5 0 11-3.001-.001 1.5 1.5 0 013.001.001zm20 0a1.5 1.5 0 11-3.001-.001 1.5 1.5 0 013.001.001zm20 0a1.5 1.5 0 11-3.001-.001 1.5 1.5 0 013.001.001zm20 0a1.5 1.5 0 11-3.001-.001 1.5 1.5 0 013.001.001zm20 0a1.5 1.5 0 11-3.001-.001 1.5 1.5 0 013.001.001zm20 0a1.5 1.5 0 11-3.001-.001 1.5 1.5 0 013.001.001zm20 0a1.5 1.5 0 11-3.001-.001 1.5 1.5 0 013.001.001zm-160 20a1.5 1.5 0 11-3.001-.001 1.5 1.5 0 013.001.001zm20 0a1.5 1.5 0 11-3.001-.001 1.5 1.5 0 013.001.001zm20 0a1.5 1.5 0 11-3.001-.001 1.5 1.5 0 013.001.001zm20 0a1.5 1.5 0 11-3.001-.001 1.5 1.5 0 013.001.001zm20 0a1.5 1.5 0 11-3.001-.001 1.5 1.5 0 013.001.001zm20 0a1.5 1.5 0 11-3.001-.001 1.5 1.5 0 013.001.001zm20 0a1.5 1.5 0 11-3.001-.001 1.5 1.5 0 013.001.001zm20 0a1.5 1.5 0 11-3.001-.001 1.5 1.5 0 013.001.001zm20 0a1.5 1.5 0 11-3.001-.001 1.5 1.5 0 013.001.001zm-160 20a1.5 1.5 0 11-3.001-.001 1.5 1.5 0 013.001.001zm20 0a1.5 1.5 0 11-3.001-.001 1.5 1.5 0 013.001.001zm20 0a1.5 1.5 0 11-3.001-.001 1.5 1.5 0 013.001.001zm20 0a1.5 1.5 0 11-3.001-.001 1.5 1.5 0 013.001.001zm20 0a1.5 1.5 0 11-3.001-.001 1.5 1.5 0 013.001.001zm20 0a1.5 1.5 0 11-3.001-.001 1.5 1.5 0 013.001.001zm20 0a1.5 1.5 0 11-3.001-.001 1.5 1.5 0 013.001.001zm20 0a1.5 1.5 0 11-3.001-.001 1.5 1.5 0 013.001.001zm20 0a1.5 1.5 0 11-3.001-.001 1.5 1.5 0 013.001.001zm-160 20a1.5 1.5 0 11-3.001-.001 1.5 1.5 0 013.001.001zm20 0a1.5 1.5 0 11-3.001-.001 1.5 1.5 0 013.001.001zm20 0a1.5 1.5 0 11-3.001-.001 1.5 1.5 0 013.001.001zm20 0a1.5 1.5 0 11-3.001-.001 1.5 1.5 0 013.001.001zm20 0a1.5 1.5 0 11-3.001-.001 1.5 1.5 0 013.001.001zm20 0a1.5 1.5 0 11-3.001-.001 1.5 1.5 0 013.001.001zm20 0a1.5 1.5 0 11-3.001-.001 1.5 1.5 0 013.001.001zm20 0a1.5 1.5 0 11-3.001-.001 1.5 1.5 0 013.001.001zm20 0a1.5 1.5 0 11-3.001-.001 1.5 1.5 0 013.001.001zm-160 20a1.5 1.5 0 11-3.001-.001 1.5 1.5 0 013.001.001zm20 0a1.5 1.5 0 11-3.001-.001 1.5 1.5 0 013.001.001zm20 0a1.5 1.5 0 11-3.001-.001 1.5 1.5 0 013.001.001zm20 0a1.5 1.5 0 11-3.001-.001 1.5 1.5 0 013.001.001zm20 0a1.5 1.5 0 11-3.001-.001 1.5 1.5 0 013.001.001zm20 0a1.5 1.5 0 11-3.001-.001 1.5 1.5 0 013.001.001zm20 0a1.5 1.5 0 11-3.001-.001 1.5 1.5 0 013.001.001zm20 0a1.5 1.5 0 11-3.001-.001 1.5 1.5 0 013.001.001zm20 0a1.5 1.5 0 11-3.001-.001 1.5 1.5 0 013.001.001zm-820 20a1.5 1.5 0 11-3 0 1.5 1.5 0 013 0zm0 20a1.5 1.5 0 11-3 0 1.5 1.5 0 013 0zm0 20a1.5 1.5 0 11-3 0 1.5 1.5 0 013 0zm0 20a1.5 1.5 0 11-3 0 1.5 1.5 0 013 0zm0 20a1.5 1.5 0 11-3 0 1.5 1.5 0 013 0zm0 20a1.5 1.5 0 11-3 0 1.5 1.5 0 013 0zm0 20a1.5 1.5 0 11-3 0 1.5 1.5 0 013 0zm0 20a1.5 1.5 0 11-3 0 1.5 1.5 0 013 0zm0 20a1.5 1.5 0 11-3 0 1.5 1.5 0 013 0zm0 20a1.5 1.5 0 11-3 0 1.5 1.5 0 013 0zm0 20a1.5 1.5 0 11-3 0 1.5 1.5 0 013 0zm0 20a1.5 1.5 0 11-3 0 1.5 1.5 0 013 0zm0 20a1.5 1.5 0 11-3 0 1.5 1.5 0 013 0zm0 20a1.5 1.5 0 11-3 0 1.5 1.5 0 013 0zm0 20a1.5 1.5 0 11-3 0 1.5 1.5 0 013 0zm0 20a1.5 1.5 0 11-3 0 1.5 1.5 0 013 0zm0-340a1.5 1.5 0 11-3 0 1.5 1.5 0 013 0zm0 20a1.5 1.5 0 11-3 0 1.5 1.5 0 013 0z" opacity=".1" fill="#000"/><path d="M287.779 242.638c-15.739-58.742 19.12-119.12 77.862-134.86l212.721-56.999c58.742-15.74 119.12 19.12 134.86 77.862l56.999 212.721c15.739 58.742-19.12 119.12-77.862 134.86l-212.721 56.999c-58.742 15.739-119.12-19.12-134.86-77.862l-56.999-212.721z" fill="url(#paint0_linear)" filter="url(#filter0_di)"/><path d="M80.294 190.108C67.429 142.096 95.92 92.746 143.933 79.881L317.8 33.294c48.012-12.865 97.362 15.627 110.227 63.64L474.614 270.8c12.865 48.012-15.627 97.362-63.639 110.227l-173.867 46.587c-48.012 12.865-97.362-15.627-110.227-63.639L80.294 190.108z" fill="url(#paint1_linear)" filter="url(#filter1_di)"/><path d="M266.529 486.072c-8.576-32.008 10.419-64.908 42.426-73.485l115.912-31.058c32.008-8.576 64.908 10.419 73.484 42.426l31.059 115.912c8.576 32.008-10.419 64.908-42.427 73.484L371.072 644.41c-32.008 8.576-64.908-10.419-73.485-42.427l-31.058-115.911z" fill="url(#paint2_linear)" filter="url(#filter2_di)"/><path d="M67.764 534.036c-4.288-16.004 5.21-32.454 21.214-36.742l57.955-15.529c16.004-4.289 32.454 5.209 36.743 21.213l15.529 57.955c4.288 16.004-5.209 32.454-21.213 36.743l-57.956 15.529c-16.004 4.288-32.454-5.209-36.742-21.213l-15.53-57.956z" fill="url(#paint3_linear)" filter="url(#filter3_di)"/><path d="M44.882 418.018c-2.144-8.002 2.605-16.227 10.607-18.371l28.978-7.765c8.002-2.144 16.227 2.605 18.371 10.607l7.764 28.977c2.145 8.002-2.604 16.227-10.606 18.372l-28.978 7.764c-8.002 2.144-16.227-2.604-18.371-10.606l-7.765-28.978z" fill="url(#paint4_linear)" filter="url(#filter4_di)"/><path d="M694.882 153.017c-2.144-8.002 2.605-16.227 10.607-18.371l28.978-7.765c8.002-2.144 16.227 2.605 18.371 10.607l7.764 28.977c2.145 8.002-2.604 16.227-10.606 18.372l-28.978 7.764c-8.002 2.144-16.227-2.604-18.371-10.606l-7.765-28.978z" fill="url(#paint5_linear)" filter="url(#filter5_di)"/><defs><linearGradient id="paint0_linear" x1="464.824" y1="92.018" x2="614.16" y2="477.614" gradientUnits="userSpaceOnUse"><stop stop-color="#9F8FFF"/><stop offset="1" stop-color="#7B68EE"/></linearGradient><linearGradient id="paint1_linear" x1="225" y1="67" x2="347.059" y2="382.165" gradientUnits="userSpaceOnUse"><stop stop-color="#9F8FFF"/><stop offset="1" stop-color="#7B68EE"/></linearGradient><linearGradient id="paint2_linear" x1="363" y1="404" x2="444.373" y2="614.11" gradientUnits="userSpaceOnUse"><stop stop-color="#9F8FFF"/><stop offset="1" stop-color="#7B68EE"/></linearGradient><linearGradient id="paint3_linear" x1="116" y1="493" x2="156.686" y2="598.055" gradientUnits="userSpaceOnUse"><stop stop-color="#9F8FFF"/><stop offset="1" stop-color="#7B68EE"/></linearGradient><linearGradient id="paint4_linear" x1="69" y1="397.5" x2="89.343" y2="450.027" gradientUnits="userSpaceOnUse"><stop stop-color="#9F8FFF"/><stop offset="1" stop-color="#7B68EE"/></linearGradient><linearGradient id="paint5_linear" x1="719" y1="132.499" x2="739.343" y2="185.026" gradientUnits="userSpaceOnUse"><stop stop-color="#9F8FFF"/><stop offset="1" stop-color="#7B68EE"/></linearGradient><filter id="filter0_di" x="239" y="17" width="580" height="580" filterUnits="userSpaceOnUse" color-interpolation-filters="sRGB"><feFlood flood-opacity="0" result="BackgroundImageFix"/><feColorMatrix in="SourceAlpha" values="0 0 0 0 0 0 0 0 0 0 0 0 0 0 0 0 0 0 127 0"/><feOffset dy="15"/><feGaussianBlur stdDeviation="22.5"/><feColorMatrix values="0 0 0 0 0.36597 0 0 0 0 0.297014 0 0 0 0 0.783333 0 0 0 0.5 0"/><feBlend in2="BackgroundImageFix" result="effect1_dropShadow"/><feBlend in="SourceGraphic" in2="effect1_dropShadow" result="shape"/><feColorMatrix in="SourceAlpha" values="0 0 0 0 0 0 0 0 0 0 0 0 0 0 0 0 0 0 127 0" result="hardAlpha"/><feOffset/><feGaussianBlur stdDeviation="5"/><feComposite in2="hardAlpha" operator="arithmetic" k2="-1" k3="1"/><feColorMatrix values="0 0 0 0 1 0 0 0 0 1 0 0 0 0 1 0 0 0 0.25 0"/><feBlend in2="shape" result="effect2_innerShadow"/></filter><filter id="filter1_di" x="32.205" y=".205" width="490.499" height="490.499" filterUnits="userSpaceOnUse" color-interpolation-filters="sRGB"><feFlood flood-opacity="0" result="BackgroundImageFix"/><feColorMatrix in="SourceAlpha" values="0 0 0 0 0 0 0 0 0 0 0 0 0 0 0 0 0 0 127 0"/><feOffset dy="15"/><feGaussianBlur stdDeviation="22.5"/><feColorMatrix values="0 0 0 0 0.36597 0 0 0 0 0.297014 0 0 0 0 0.783333 0 0 0 0.5 0"/><feBlend in2="BackgroundImageFix" result="effect1_dropShadow"/><feBlend in="SourceGraphic" in2="effect1_dropShadow" result="shape"/><feColorMatrix in="SourceAlpha" values="0 0 0 0 0 0 0 0 0 0 0 0 0 0 0 0 0 0 127 0" result="hardAlpha"/><feOffset/><feGaussianBlur stdDeviation="5"/><feComposite in2="hardAlpha" operator="arithmetic" k2="-1" k3="1"/><feColorMatrix values="0 0 0 0 1 0 0 0 0 1 0 0 0 0 1 0 0 0 0.25 0"/><feBlend in2="shape" result="effect2_innerShadow"/></filter><filter id="filter2_di" x="219.47" y="349.47" width="356.999" height="356.999" filterUnits="userSpaceOnUse" color-interpolation-filters="sRGB"><feFlood flood-opacity="0" result="BackgroundImageFix"/><feColorMatrix in="SourceAlpha" values="0 0 0 0 0 0 0 0 0 0 0 0 0 0 0 0 0 0 127 0"/><feOffset dy="15"/><feGaussianBlur stdDeviation="22.5"/><feColorMatrix values="0 0 0 0 0.36597 0 0 0 0 0.297014 0 0 0 0 0.783333 0 0 0 0.5 0"/><feBlend in2="BackgroundImageFix" result="effect1_dropShadow"/><feBlend in="SourceGraphic" in2="effect1_dropShadow" result="shape"/><feColorMatrix in="SourceAlpha" values="0 0 0 0 0 0 0 0 0 0 0 0 0 0 0 0 0 0 127 0" result="hardAlpha"/><feOffset/><feGaussianBlur stdDeviation="5"/><feComposite in2="hardAlpha" operator="arithmetic" k2="-1" k3="1"/><feColorMatrix values="0 0 0 0 1 0 0 0 0 1 0 0 0 0 1 0 0 0 0.25 0"/><feBlend in2="shape" result="effect2_innerShadow"/></filter><filter id="filter3_di" x="21.735" y="450.735" width="223.5" height="223.5" filterUnits="userSpaceOnUse" color-interpolation-filters="sRGB"><feFlood flood-opacity="0" result="BackgroundImageFix"/><feColorMatrix in="SourceAlpha" values="0 0 0 0 0 0 0 0 0 0 0 0 0 0 0 0 0 0 127 0"/><feOffset dy="15"/><feGaussianBlur stdDeviation="22.5"/><feColorMatrix values="0 0 0 0 0.36597 0 0 0 0 0.297014 0 0 0 0 0.783333 0 0 0 0.5 0"/><feBlend in2="BackgroundImageFix" result="effect1_dropShadow"/><feBlend in="SourceGraphic" in2="effect1_dropShadow" result="shape"/><feColorMatrix in="SourceAlpha" values="0 0 0 0 0 0 0 0 0 0 0 0 0 0 0 0 0 0 127 0" result="hardAlpha"/><feOffset/><feGaussianBlur stdDeviation="5"/><feComposite in2="hardAlpha" operator="arithmetic" k2="-1" k3="1"/><feColorMatrix values="0 0 0 0 1 0 0 0 0 1 0 0 0 0 1 0 0 0 0.25 0"/><feBlend in2="shape" result="effect2_innerShadow"/></filter><filter id="filter4_di" x="-.633" y="361.367" width="156.75" height="156.75" filterUnits="userSpaceOnUse" color-interpolation-filters="sRGB"><feFlood flood-opacity="0" result="BackgroundImageFix"/><feColorMatrix in="SourceAlpha" values="0 0 0 0 0 0 0 0 0 0 0 0 0 0 0 0 0 0 127 0"/><feOffset dy="15"/><feGaussianBlur stdDeviation="22.5"/><feColorMatrix values="0 0 0 0 0.36597 0 0 0 0 0.297014 0 0 0 0 0.783333 0 0 0 0.5 0"/><feBlend in2="BackgroundImageFix" result="effect1_dropShadow"/><feBlend in="SourceGraphic" in2="effect1_dropShadow" result="shape"/><feColorMatrix in="SourceAlpha" values="0 0 0 0 0 0 0 0 0 0 0 0 0 0 0 0 0 0 127 0" result="hardAlpha"/><feOffset/><feGaussianBlur stdDeviation="5"/><feComposite in2="hardAlpha" operator="arithmetic" k2="-1" k3="1"/><feColorMatrix values="0 0 0 0 1 0 0 0 0 1 0 0 0 0 1 0 0 0 0.25 0"/><feBlend in2="shape" result="effect2_innerShadow"/></filter><filter id="filter5_di" x="649.367" y="96.366" width="156.75" height="156.75" filterUnits="userSpaceOnUse" color-interpolation-filters="sRGB"><feFlood flood-opacity="0" result="BackgroundImageFix"/><feColorMatrix in="SourceAlpha" values="0 0 0 0 0 0 0 0 0 0 0 0 0 0 0 0 0 0 127 0"/><feOffset dy="15"/><feGaussianBlur stdDeviation="22.5"/><feColorMatrix values="0 0 0 0 0.36597 0 0 0 0 0.297014 0 0 0 0 0.783333 0 0 0 0.5 0"/><feBlend in2="BackgroundImageFix" result="effect1_dropShadow"/><feBlend in="SourceGraphic" in2="effect1_dropShadow" result="shape"/><feColorMatrix in="SourceAlpha" values="0 0 0 0 0 0 0 0 0 0 0 0 0 0 0 0 0 0 127 0" result="hardAlpha"/><feOffset/><feGaussianBlur stdDeviation="5"/><feComposite in2="hardAlpha" operator="arithmetic" k2="-1" k3="1"/><feColorMatrix values="0 0 0 0 1 0 0 0 0 1 0 0 0 0 1 0 0 0 0.25 0"/><feBlend in2="shape" result="effect2_innerShadow"/></filter></defs></svg>