<svg width="106" height="20" fill="none" xmlns="http://www.w3.org/2000/svg"><path d="M19.875 0H0v19.984h19.875V0zm21.531 0H21.53v19.984h19.875V0zm21.533 0H43.063v19.984H62.94V0zM84.47 0H64.593v19.984H84.47V0z" fill="#FF8622"/><path d="M106.001 0H86.126v19.984H106V0z" fill="#343434"/><path d="M9.938 13.469l3.022-.77 1.263 3.913-4.285-3.143zm6.956-5.059h-5.32L9.937 3.373 8.302 8.41h-5.32l4.306 3.123-1.636 5.037 4.306-3.122 2.65-1.915 4.286-3.123zm14.574 5.059l3.023-.77 1.263 3.913-4.285-3.143zm6.957-5.059h-5.32l-1.636-5.037-1.636 5.037h-5.32l4.305 3.123-1.635 5.037 4.306-3.122 2.65-1.915 4.286-3.123zm14.577 5.059l3.022-.77 1.263 3.913-4.285-3.143zm6.956-5.059h-5.32l-1.636-5.037-1.636 5.037h-5.32l4.306 3.123-1.636 5.037 4.306-3.122 2.65-1.915 4.286-3.123zm14.574 5.059l3.023-.77 1.263 3.913-4.286-3.143zm6.956-5.059h-5.32l-1.636-5.037-1.636 5.037h-5.32l4.306 3.123-1.636 5.037 4.307-3.122 2.65-1.915 4.285-3.123zm14.575 5.059l3.022-.77 1.263 3.913-4.285-3.143zm6.956-5.059h-5.32l-1.636-5.037-1.636 5.037h-5.32l4.306 3.123-1.636 5.037 4.306-3.122 2.65-1.915 4.286-3.123z" fill="#fff"/></svg>