<svg width="1920" height="694" fill="none" xmlns="http://www.w3.org/2000/svg"><mask id="a" maskUnits="userSpaceOnUse" x="0" y="0" width="1920" height="694"><path d="M1920 0H0v694h1920V0z" fill="#C4C4C4"/></mask><g opacity=".9" clip-rule="evenodd" stroke="#E4E4E4" mask="url(#a)"><path opacity=".01" d="M808.412 90.36c187.748 11.501 370.458-41.81 552.358 16.391 240.57 76.96 528.24 117.69 664.56 372.92 136.76 256.065 118.62 621.179 15.2 899.819-96.77 260.75-374.04 317.56-541.24 517.49-147.19 176.01-179.39 508.28-376.43 579.82-197.01 71.52-380.523-145.88-572.634-235.26-175.176-81.5-357.561-126.27-505.994-266.58-173.742-164.24-378.522-339.38-415.695-604.7-37.259-265.93 121.89-505.551 226.933-742.579 98.113-221.39 177.437-485.64 363.99-590.83C402.048-66.11 607.738 78.07 808.412 90.36z"/><path opacity=".02" d="M809.704 113.541c183.996 11.27 363.046-40.96 541.316 16.07 235.75 75.41 517.67 115.33 651.26 365.44 134.02 250.917 116.25 608.699 14.9 881.749-94.84 255.52-366.56 311.18-530.41 507.1-144.25 172.48-175.81 498.08-368.91 568.19-193.06 70.08-372.91-142.95-561.178-230.54-171.673-79.87-350.411-123.74-495.874-261.23-170.268-160.95-370.952-332.57-407.382-592.56-36.514-260.6 119.453-495.407 222.394-727.678C-28.03 423.131 49.709 164.191 232.531 61.111c178.936-100.89 380.512 40.39 577.173 52.43z"/><path opacity=".041" d="M810.996 136.731c180.234 11.04 355.634-40.12 530.264 15.74 230.94 73.87 507.11 112.96 637.97 357.95 131.29 245.78 113.88 596.229 14.6 863.689-92.9 250.28-359.08 304.81-519.59 496.72-141.31 168.94-172.22 487.88-361.37 556.54-189.13 68.65-365.306-140.02-549.733-225.81-168.169-78.23-343.259-121.2-485.754-255.89-166.792-157.64-363.382-325.75-399.067-580.42-35.769-255.26 117.014-485.254 217.855-712.767C-9.64 439.981 66.511 186.341 245.601 85.371c175.285-98.82 372.748 39.56 565.395 51.36z"/><path opacity=".061" d="M812.288 159.921c176.482 10.8 348.222-39.29 519.222 15.4 226.13 72.33 496.54 110.61 624.68 350.469 128.55 240.643 111.5 583.77 14.29 845.63-90.97 245.05-351.6 298.44-508.76 486.33-138.37 165.41-168.63 477.68-353.85 544.91-185.19 67.21-357.693-137.1-538.277-221.09-164.666-76.6-336.108-118.67-475.635-250.54-163.317-154.35-355.811-318.94-390.753-568.28-35.024-249.92 114.577-475.11 213.317-697.866 92.226-208.063 166.79-456.403 342.15-555.253 171.633-96.75 364.982 38.74 553.616 50.29z"/><path opacity=".082" d="M813.579 183.101c172.731 10.58 340.821-38.44 508.171 15.08 221.32 70.78 485.98 108.24 611.39 342.981 125.82 235.503 109.14 571.298 13.99 827.568-89.03 239.82-344.12 292.06-497.94 475.94-135.42 161.88-165.04 467.48-346.32 533.27-181.25 65.78-350.08-134.16-526.822-216.37-161.162-74.96-328.957-116.13-465.514-245.18-159.843-151.05-348.241-312.13-382.44-556.14-34.279-244.59 112.139-464.967 208.779-682.965 90.263-203.614 163.241-446.654 334.87-543.394 167.981-94.69 357.216 37.91 541.836 49.21z"/><path opacity=".102" d="M814.871 206.291c168.969 10.34 333.409-37.61 497.129 14.75 216.5 69.23 475.41 105.88 598.09 335.493 123.09 230.363 106.77 558.826 13.69 809.506-87.1 234.58-336.64 285.69-487.12 465.56-132.47 158.34-161.45 457.27-338.78 521.63-177.31 64.34-342.477-131.24-515.376-211.65-157.659-73.32-321.806-113.6-455.395-239.83-156.368-147.76-340.67-305.32-374.126-544.01-33.533-239.25 109.701-454.814 204.24-668.054 88.3-199.175 159.693-436.905 327.591-531.535 164.329-92.62 349.45 37.08 530.057 48.14z"/><path opacity=".122" d="M816.163 229.481c165.217 10.11 325.997-36.77 486.077 14.41 211.7 67.7 464.85 103.52 584.81 328.015 120.35 225.223 104.39 546.364 13.38 791.444-85.17 229.35-329.16 279.32-476.29 455.17-129.53 154.81-157.87 447.07-331.26 509.99-173.37 62.91-334.863-128.31-503.921-206.92-154.155-71.69-314.654-111.07-445.275-234.48-152.893-144.46-333.099-298.51-365.811-531.87-32.789-233.91 107.263-444.67 199.7-653.153 86.34-194.726 156.145-427.156 320.312-519.676 160.677-90.55 341.684 36.25 518.278 47.07z"/><path opacity=".143" d="M817.454 252.661c161.466 9.88 318.596-35.93 475.036 14.09 206.88 66.15 454.28 101.16 571.51 320.527 117.61 220.083 102.02 533.892 13.08 773.382-83.23 224.12-321.68 272.94-465.47 444.78-126.59 151.28-154.28 436.87-323.73 498.36-169.43 61.47-327.25-125.38-492.465-202.21-150.652-70.05-307.503-108.53-435.155-229.13-149.418-141.16-325.53-291.69-357.498-519.73-32.043-228.57 104.825-434.517 195.162-638.242C82.301 524.204 150.52 297.081 310.955 206.671c157.026-88.49 333.92 35.43 506.499 45.99z"/><path opacity=".163" d="M818.746 275.851c157.704 9.65 311.184-35.09 463.984 13.76 202.07 64.6 443.72 98.79 558.22 313.039 114.88 214.943 99.65 521.43 12.78 755.32-81.3 218.88-314.2 266.57-454.64 434.4-123.65 147.74-150.69 426.66-316.21 486.71-165.48 60.04-319.637-122.45-481.01-197.48-147.148-68.41-300.352-105.99-425.035-223.78-145.943-137.86-317.959-284.88-349.184-507.59C-203.647 1127-69.961 925.856 18.275 726.889c82.414-185.84 149.047-407.658 305.751-495.958 153.374-86.42 326.154 34.6 494.72 44.92z"/><path opacity=".184" d="M820.038 299.031c153.952 9.43 303.772-34.25 452.932 13.44 197.26 63.05 433.16 96.43 544.94 305.55 112.14 209.804 97.27 508.959 12.47 737.259-79.36 213.65-306.72 260.2-443.82 424.01-120.7 144.21-147.1 416.46-308.67 475.08-161.55 58.6-312.034-119.53-469.564-192.76-143.645-66.78-293.201-103.46-414.916-218.43-142.468-134.57-310.388-278.07-340.87-495.46-30.552-217.89 99.95-414.22 186.085-608.43 80.453-181.396 145.499-397.909 298.472-484.099 149.722-84.35 318.388 33.77 482.941 43.84z"/><path opacity=".204" d="M821.33 322.221c150.2 9.19 296.36-33.41 441.89 13.1 192.45 61.52 422.59 94.07 531.64 298.072 109.41 204.665 94.9 496.487 12.17 719.197-77.43 208.42-299.24 253.82-433 413.62-117.75 140.68-143.51 406.26-301.14 463.44-157.61 57.17-304.42-116.59-458.109-188.03-140.141-65.15-286.049-100.93-404.795-213.08-138.994-131.27-302.818-271.26-332.556-483.32-29.808-212.56 97.512-404.077 181.546-593.529 78.49-176.952 141.95-388.16 291.192-472.24 146.071-82.29 310.622 32.95 471.162 42.77z"/><path opacity=".224" d="M822.621 345.411c146.449 8.96 288.959-32.58 430.839 12.77 187.64 59.97 412.03 91.71 518.35 290.584 106.68 199.525 92.53 484.025 11.87 701.135-75.49 203.18-291.76 247.45-422.17 403.24-114.81 137.14-139.93 396.05-293.62 451.8-153.67 55.73-296.807-113.67-446.654-183.32-136.637-63.5-278.898-98.39-394.675-207.72-135.519-127.98-295.247-264.45-324.242-471.18-29.062-207.22 95.074-393.934 177.008-578.627 76.527-172.509 138.4-378.412 283.912-460.382 142.419-80.22 302.857 32.12 459.382 41.7z"/><path opacity=".245" d="M823.913 368.591c142.687 8.73 281.547-31.73 419.797 12.45 182.82 58.42 401.46 89.34 505.06 283.096 103.94 194.385 90.15 471.553 11.56 683.073-73.56 197.95-284.28 241.08-411.35 392.85-111.87 133.61-136.34 385.86-286.09 440.16-149.72 54.3-289.194-110.74-435.198-178.59-133.134-61.87-271.747-95.86-384.555-202.37-132.044-124.68-287.678-257.64-315.929-459.05-28.317-201.88 92.637-383.78 172.469-563.716 74.566-168.065 134.852-368.663 276.632-448.523 138.768-78.15 295.092 31.29 447.604 40.62z"/><path opacity=".265" d="M825.205 391.781c138.935 8.5 274.135-30.9 408.745 12.12 178.02 56.87 390.9 86.98 491.77 275.608 101.2 189.245 87.78 459.081 11.26 665.011-71.62 192.72-276.8 234.7-400.52 382.46-108.93 130.08-132.75 375.66-278.56 428.53-145.789 52.86-281.591-107.82-423.753-173.87-129.63-60.24-264.595-93.33-374.435-197.03-128.569-121.38-280.107-250.82-307.615-446.9-27.572-196.55 90.199-373.637 167.931-548.815 72.603-163.621 131.303-358.924 269.352-436.664 135.116-76.09 287.326 30.47 435.825 39.55z"/><path opacity=".286" d="M826.497 414.971c135.183 8.26 266.723-30.06 397.703 11.78 173.2 55.34 380.33 84.62 478.47 268.13 98.47 184.105 85.41 446.619 10.95 646.949-69.68 187.48-269.31 228.33-389.69 372.08-105.98 126.55-129.16 365.45-271.03 416.88-141.846 51.43-273.977-104.88-412.297-169.15-126.127-58.6-257.444-90.78-364.316-191.67-125.094-118.08-272.536-244.01-299.3-434.77C-49.84 1144 64.748 971.716 140.378 801.296c70.642-159.178 127.755-349.175 262.073-424.805 131.464-74.02 279.56 29.64 424.046 38.48z"/><path opacity=".306" d="M827.789 438.151c131.421 8.04 259.321-29.21 386.651 11.46 168.39 53.79 369.77 82.257 465.19 260.642 95.73 178.965 83.04 434.147 10.64 628.887-67.74 182.25-261.83 221.95-378.87 361.69-103.03 123.02-125.57 355.25-263.5 405.25-137.903 49.99-266.364-101.96-400.842-164.43-122.623-56.96-250.293-88.25-354.195-186.32-121.62-114.79-264.966-237.2-290.987-422.63-26.082-185.87 85.323-353.34 158.853-519.003 68.679-154.734 124.206-339.426 254.793-412.946 127.812-71.95 271.795 28.81 412.267 37.4z"/><path opacity=".327" d="M829.08 461.341c127.67 7.8 251.91-28.38 375.61 11.13 163.58 52.241 359.2 79.892 451.89 253.154 93 173.825 80.67 421.675 10.34 610.835-65.81 177.01-254.35 215.57-368.04 351.29-100.09 119.49-121.99 345.05-255.97 393.61-133.97 48.56-258.761-99.03-389.396-159.7-119.12-55.33-243.142-85.72-344.076-180.97-118.145-111.5-257.395-230.39-282.673-410.5C1.43 1149.67 109.651 987.003 181.08 826.098c66.716-150.29 120.657-329.677 247.513-401.087 124.16-69.89 264.029 27.98 400.487 36.33z"/><path opacity=".347" d="M830.372 484.521c123.918 7.58 244.498-27.53 364.558 10.8 158.77 50.704 348.64 77.537 438.6 245.675 90.27 168.686 78.3 409.214 10.04 592.774-63.87 171.77-246.87 209.2-357.22 340.91-97.15 115.95-118.4 334.84-248.44 381.97-130.027 47.11-251.147-96.1-377.941-154.98-115.616-53.7-235.99-83.19-333.956-175.62-114.669-108.2-249.825-223.58-274.36-398.36-24.59-175.19 80.449-333.044 149.777-489.191 64.755-145.846 117.109-319.928 240.233-389.228 120.509-67.82 256.264 27.16 388.709 35.25z"/><path opacity=".367" d="M831.664 507.711c120.156 7.35 237.086-26.7 353.516 10.472 153.95 49.154 338.06 75.169 425.31 238.185 87.53 163.547 75.92 396.742 9.73 574.712-61.94 166.54-239.39 202.82-346.39 330.52-94.21 112.42-114.81 324.64-240.92 370.33-126.084 45.68-243.534-93.17-366.485-150.26-112.113-52.05-228.84-80.65-323.836-170.27-111.195-104.9-242.255-216.76-266.045-386.21-23.846-169.86 78.009-322.9 145.237-474.29 62.792-141.402 113.559-310.18 232.953-377.369 116.857-65.75 248.498 26.33 376.93 34.18z"/><path opacity=".388" d="M832.956 530.898c116.404 7.114 229.684-25.857 342.464 10.142 149.15 47.61 327.5 72.807 412.02 230.7 84.79 158.407 73.55 384.27 9.43 556.65-60 161.31-231.9 196.45-335.57 320.13-91.26 108.89-111.22 314.44-233.39 358.7-122.141 44.24-235.921-90.25-355.03-145.54-108.609-50.42-221.688-78.12-313.716-164.92-107.72-101.6-234.684-209.95-257.731-374.08-23.101-164.51 75.572-312.75 140.698-459.379 60.83-136.958 110.011-300.432 225.674-365.5 113.205-63.69 240.733 25.494 365.151 33.097z"/><path opacity=".408" d="M834.247 554.085c112.653 6.883 222.273-25.021 331.413 9.812 144.34 46.065 316.94 70.445 398.74 223.215 82.05 153.267 71.17 371.808 9.12 538.588-58.07 156.07-224.42 190.08-324.74 309.75-88.32 105.35-107.64 304.23-225.86 347.05-118.208 42.81-228.318-87.31-343.584-140.81-105.106-48.79-214.537-75.58-303.597-159.57-104.245-98.31-227.113-203.14-249.417-361.94-22.355-159.18 73.134-302.6 136.16-444.478 58.868-132.514 106.462-290.684 218.394-353.645 109.553-61.626 232.967 24.671 353.371 32.028z"/><path opacity=".429" d="M835.539 577.271c108.891 6.652 214.861-24.182 320.371 9.483 139.52 44.521 306.37 68.083 385.44 215.73 79.32 148.127 68.8 359.336 8.82 520.526-56.13 150.84-216.94 183.7-313.92 299.36-85.37 101.82-104.05 294.03-218.33 335.42-114.266 41.37-220.704-84.39-332.129-136.1-101.602-47.14-207.386-73.04-293.476-154.21-100.771-95.01-219.543-196.33-241.103-349.81-21.611-153.84 70.696-292.45 131.621-429.567 56.905-128.071 102.913-280.936 211.114-341.786 105.901-59.556 225.201 23.844 341.592 30.954z"/><path opacity=".449" d="M836.831 600.457c105.139 6.422 207.459-23.343 309.319 9.155 134.72 42.975 295.81 65.72 372.15 208.244 76.59 142.987 66.43 346.864 8.52 502.464-54.2 145.61-209.46 177.33-303.1 288.97-82.43 98.29-100.46 283.83-210.8 323.78-110.323 39.94-213.091-81.46-320.673-131.37-98.099-45.51-200.235-70.51-283.357-148.86-97.295-91.72-211.973-189.52-232.789-337.67-20.865-148.5 68.258-282.31 127.082-414.666 54.943-123.627 99.365-271.188 203.835-329.927 102.249-57.486 217.435 23.017 329.813 29.88z"/><path opacity=".469" d="M838.123 623.644c101.387 6.19 200.047-22.504 298.277 8.825 129.9 41.431 285.24 63.358 358.86 200.759 73.85 137.847 64.05 334.402 8.21 484.402-52.26 140.37-201.98 170.96-292.27 278.59-79.49 94.75-96.87 273.63-203.27 312.14-106.39 38.5-205.488-78.53-309.228-126.65-94.595-43.88-193.083-67.98-273.237-143.52-93.82-88.41-204.402-182.69-224.475-325.53-20.12-143.16 65.821-272.15 122.544-399.755 52.981-119.183 95.816-261.44 196.554-318.067 98.598-55.424 209.671 22.189 318.035 28.806z"/><path opacity=".49" d="M839.414 646.83c97.626 5.96 192.636-21.665 287.226 8.496 125.09 39.886 274.68 60.996 345.57 193.273 71.11 132.708 61.68 321.931 7.91 466.341-50.33 135.14-194.5 164.58-281.45 268.2-76.54 91.22-93.28 263.43-195.74 300.5-102.447 37.07-197.875-75.6-297.772-121.92-91.092-42.24-185.932-65.45-263.117-138.17-90.346-85.12-196.832-175.88-216.162-313.39-19.375-137.83 63.383-262.01 118.005-384.854 51.019-114.739 92.268-251.692 189.275-306.208 94.946-53.357 201.905 21.362 306.255 27.732z"/><path opacity=".51" d="M840.706 670.016c93.874 5.729 185.224-20.825 276.184 8.168 120.28 38.341 264.11 58.633 332.27 185.787 68.38 127.569 59.32 309.469 7.61 448.279-48.39 129.91-187.02 158.21-270.62 257.81-73.6 87.69-89.7 253.23-188.22 288.87-98.504 35.63-190.261-72.68-286.317-117.21-87.588-40.6-178.781-62.91-252.997-132.81-86.871-81.82-189.261-169.07-207.847-301.25-18.63-132.49 60.945-251.87 113.466-369.953 49.056-110.295 88.718-241.944 181.995-294.348 91.294-51.291 194.139 20.534 294.476 26.657z"/><path opacity=".531" d="M841.998 693.203c90.122 5.498 177.822-19.987 265.132 7.838 115.47 36.796 253.55 56.271 318.99 178.302 65.64 122.427 56.94 296.997 7.3 430.217-46.46 124.67-179.54 151.84-259.8 247.43-70.65 84.15-86.11 243.02-180.69 277.22-94.561 34.2-182.648-69.75-274.861-112.48-84.085-38.97-171.63-60.37-242.877-127.46-83.397-78.53-181.691-162.26-199.534-289.12-17.885-127.15 58.507-241.71 108.928-355.042 47.094-105.851 85.169-232.196 174.715-282.489 87.642-49.224 186.373 19.707 282.697 25.584z"/><path opacity=".551" d="M843.29 716.389c86.36 5.267 170.41-19.148 254.09 7.509 110.65 35.252 242.98 53.909 305.69 170.817 62.91 117.285 54.57 284.525 7 412.155-44.52 119.44-172.06 145.46-248.98 237.04-67.71 80.62-82.52 232.82-173.15 265.59-90.628 32.76-175.045-66.82-263.416-107.76-80.581-37.34-164.478-57.84-232.757-122.11-79.921-75.23-174.121-155.45-191.22-276.98-17.139-121.81 56.07-231.57 104.389-340.141 45.132-101.408 81.621-222.448 167.436-270.63 83.99-47.158 178.608 18.88 270.918 24.51z"/><path opacity=".571" d="M844.581 739.575c82.609 5.037 162.999-18.308 243.039 7.18 105.85 33.707 232.42 51.547 292.4 163.332 60.18 112.153 52.2 272.063 6.7 394.093-42.59 114.21-164.58 139.09-238.15 226.65-64.77 77.09-78.93 222.62-165.63 253.95-86.685 31.33-167.432-63.89-251.96-103.04-77.078-35.69-157.328-55.3-222.638-116.75-76.446-71.94-166.55-148.64-182.906-264.85-16.394-116.47 53.632-221.42 99.851-325.23 43.169-96.964 78.072-212.7 160.155-258.77 80.339-45.092 170.843 18.052 259.139 23.435z"/></g></svg>