<svg width="1920" height="694" fill="none" xmlns="http://www.w3.org/2000/svg"><mask id="a" maskUnits="userSpaceOnUse" x="0" y="0" width="1920" height="694"><path fill="#C4C4C4" d="M0 0h1920v694H0z"/></mask><g opacity=".9" clip-rule="evenodd" stroke="#E4E4E4" mask="url(#a)"><path opacity=".01" d="M895.412-1426.64c187.748 11.5 370.458-41.81 552.358 16.39 240.57 76.96 528.24 117.69 664.56 372.92 136.76 256.065 118.62 621.177 15.2 899.815-96.77 260.754-374.04 317.563-541.24 517.493-147.19 176.01-179.39 508.285-376.43 579.821-197.01 71.521-380.523-145.875-572.634-235.256-175.176-81.502-357.561-126.272-505.994-266.586C-42.51 293.717-247.29 118.579-284.463-146.738-321.722-412.674-162.573-652.292-57.53-889.32c98.113-221.39 177.437-485.64 363.99-590.83 182.588-102.96 388.278 41.22 588.952 53.51z"/><path opacity=".02" d="M896.704-1403.46c183.996 11.27 363.046-40.96 541.316 16.07 235.75 75.41 517.67 115.33 651.26 365.44 134.02 250.917 116.25 608.7 14.9 881.746-94.84 255.52-366.56 311.188-530.41 507.105-144.25 172.478-175.81 498.083-368.91 568.184-193.06 70.085-372.91-142.947-561.178-230.535-171.673-79.866-350.411-123.737-495.874-261.235C-22.459 282.372-223.144 110.75-259.574-149.242-296.088-409.84-140.121-644.648-37.179-876.919c96.15-216.951 173.888-475.891 356.71-578.971 178.936-100.89 380.512 40.39 577.173 52.43z"/><path opacity=".041" d="M897.996-1380.27c180.234 11.04 355.634-40.12 530.264 15.74 230.94 73.87 507.11 112.96 637.97 357.95 131.29 245.78 113.88 596.234 14.6 863.686-92.9 250.287-359.08 304.815-519.59 496.719-141.31 168.944-172.22 487.88-361.37 556.544-189.13 68.655-365.306-140.018-549.733-225.812-168.169-78.23-343.259-121.202-485.754-255.884C-2.409 271.027-198.999 102.92-234.684-151.746-270.453-407.007-117.67-637.005-16.829-864.518c94.188-212.502 170.34-466.142 349.43-567.112 175.285-98.82 372.748 39.56 565.395 51.36z"/><path opacity=".061" d="M899.288-1357.08c176.482 10.8 348.222-39.29 519.222 15.4 226.13 72.33 496.54 110.61 624.68 350.469 128.55 240.643 111.5 583.768 14.29 845.628-90.97 245.053-351.6 298.44-508.76 486.331-138.37 165.412-168.63 477.678-353.85 544.907-185.19 67.218-357.693-137.091-538.277-221.09-164.666-76.595-336.108-118.668-475.635-250.533C17.641 259.682-174.853 95.09-209.795-154.251-244.819-404.173-95.218-629.361 3.522-852.117c92.226-208.063 166.791-456.403 342.15-555.253 171.633-96.75 364.982 38.74 553.616 50.29z"/><path opacity=".082" d="M900.579-1333.9c172.731 10.58 340.821-38.44 508.171 15.08 221.32 70.78 485.98 108.24 611.39 342.981 125.82 235.503 109.14 571.3 13.99 827.566-89.03 239.82-344.12 292.067-497.94 475.944-135.42 161.879-165.04 467.476-346.32 533.269-181.25 65.782-350.08-134.163-526.822-216.368-161.162-74.959-328.957-116.134-465.514-245.182C37.691 248.336-150.707 87.26-184.906-156.755c-34.279-244.584 112.14-464.963 208.778-682.961 90.264-203.614 163.242-446.654 334.871-543.394 167.981-94.69 357.216 37.91 541.836 49.21z"/><path opacity=".102" d="M901.871-1310.71c168.969 10.34 333.409-37.61 497.129 14.75 216.5 69.23 475.41 105.88 598.09 335.493 123.09 230.363 106.77 558.831 13.69 809.505-87.1 234.585-336.64 285.692-487.12 465.557-132.47 158.346-161.45 457.273-338.78 521.63-177.31 64.347-342.477-131.235-515.376-211.646-157.659-73.323-321.806-113.599-455.395-239.831C57.741 236.991-126.561 79.43-160.017-159.259-193.55-398.506-50.316-614.075 44.223-827.315c88.301-199.175 159.693-436.905 327.591-531.535 164.329-92.62 349.45 37.08 530.057 48.14z"/><path opacity=".122" d="M903.163-1287.52c165.217 10.11 325.997-36.77 486.077 14.41 211.7 67.7 464.85 103.52 584.81 328.015 120.35 225.223 104.39 546.363 13.38 791.444-85.17 229.35-329.16 279.317-476.29 455.169-129.53 154.813-157.87 447.071-331.26 509.992-173.37 62.911-334.863-128.307-503.921-206.924-154.155-71.687-314.654-111.064-445.275-234.48C77.791 225.646-102.415 71.601-135.127-161.763c-32.789-233.909 107.263-444.668 199.7-653.151 86.34-194.726 156.145-427.156 320.312-519.676 160.677-90.55 341.684 36.25 518.278 47.07z"/><path opacity=".143" d="M904.454-1264.34c161.466 9.88 318.596-35.93 475.036 14.09 206.88 66.15 454.28 101.16 571.51 320.527 117.61 220.083 102.02 533.894 13.08 773.382-83.23 224.117-321.68 272.944-465.47 444.782-126.59 151.28-154.28 436.869-323.73 498.354-169.43 61.475-327.25-125.379-492.465-202.202-150.652-70.051-307.503-108.53-435.155-229.129C97.842 214.301-78.27 63.771-110.238-164.268c-32.043-228.57 104.825-434.52 195.162-638.245 84.377-190.284 152.596-417.407 313.031-507.817 157.026-88.49 333.92 35.43 506.499 45.99z"/><path opacity=".163" d="M905.746-1241.15c157.704 9.65 311.184-35.09 463.984 13.76 202.07 64.6 443.72 98.79 558.22 313.039 114.88 214.943 99.65 521.426 12.78 755.321-81.3 218.883-314.2 266.569-454.64 434.395-123.65 147.747-150.69 426.666-316.21 486.715-165.48 60.04-319.637-122.451-481.01-197.48-147.148-68.414-300.352-105.995-425.035-223.778C117.892 202.956-54.124 55.942-85.349-166.772c-31.298-223.233 102.388-424.373 190.624-623.34 82.414-185.84 149.047-407.658 305.751-495.958 153.374-86.42 326.154 34.6 494.72 44.92z"/><path opacity=".184" d="M907.038-1217.97c153.952 9.43 303.772-34.25 452.932 13.44 197.26 63.05 433.16 96.43 544.94 305.55 112.14 209.804 97.27 508.958 12.47 737.261-79.36 213.649-306.72 260.195-443.82 424.007-120.7 144.214-147.1 416.464-308.67 475.077-161.55 58.604-312.034-119.523-469.564-192.757C551.681 477.829 402.125 441.147 280.41 326.18 137.942 191.61-29.978 48.111-60.46-169.276c-30.552-217.895 99.95-414.225 186.085-608.435 80.453-181.396 145.499-397.909 298.472-484.099 149.722-84.35 318.388 33.77 482.941 43.84z"/><path opacity=".204" d="M908.33-1194.78c150.2 9.19 296.36-33.41 441.89 13.1 192.45 61.52 422.59 94.07 531.64 298.072 109.41 204.665 94.9 496.49 12.17 719.199-77.43 208.415-299.24 253.821-433 413.621-117.75 140.681-143.51 406.261-301.14 463.438-157.61 57.169-304.42-116.595-458.109-188.035-140.141-65.143-286.049-100.926-404.795-213.077C157.992 180.265-5.832 40.282-35.57-171.781-65.378-384.337 61.942-575.858 145.976-765.31c78.49-176.952 141.95-388.16 291.192-472.24 146.071-82.29 310.622 32.95 471.162 42.77z"/><path opacity=".224" d="M909.621-1171.59c146.449 8.96 288.959-32.58 430.839 12.77 187.64 59.97 412.03 91.71 518.35 290.584 106.68 199.525 92.53 484.021 11.87 701.138-75.49 203.181-291.76 247.447-422.17 403.233-114.81 137.148-139.93 396.059-293.62 451.8-153.67 55.733-296.807-113.667-446.654-183.313-136.637-63.507-278.898-98.392-394.675-207.725C178.042 168.92 18.314 32.452-10.681-174.285c-29.062-207.219 95.074-393.93 177.008-578.623 76.527-172.509 138.4-378.412 283.912-460.382 142.419-80.22 302.857 32.12 459.382 41.7z"/><path opacity=".245" d="M910.913-1148.41c142.687 8.73 281.547-31.73 419.797 12.45 182.82 58.42 401.46 89.34 505.06 283.096 103.94 194.385 90.15 471.553 11.56 683.076-73.56 197.948-284.28 241.073-411.35 392.846-111.87 133.616-136.34 385.857-286.09 440.162-149.72 54.297-289.194-110.739-435.198-178.591-133.134-61.871-271.747-95.857-384.555-202.374C198.093 157.575 42.459 24.622 14.208-176.789c-28.317-201.881 92.637-383.782 172.469-563.718 74.566-168.065 134.852-368.663 276.632-448.523 138.768-78.15 295.092 31.29 447.604 40.62z"/><path opacity=".265" d="M912.205-1125.22c138.935 8.5 274.135-30.9 408.745 12.12 178.02 56.87 390.9 86.98 491.77 275.608 101.2 189.245 87.78 459.084 11.26 665.015-71.62 192.713-276.8 234.698-400.52 382.459-108.93 130.082-132.75 375.653-278.56 428.523-145.789 52.862-281.591-107.811-423.753-173.869-129.63-60.235-264.595-93.322-374.435-197.023C218.143 146.23 66.605 16.793 39.097-179.293c-27.572-196.543 90.199-373.635 167.931-548.813 72.603-163.621 131.303-358.924 269.352-436.664 135.116-76.09 287.326 30.47 435.825 39.55z"/><path opacity=".286" d="M913.497-1102.03c135.183 8.26 266.723-30.06 397.703 11.78 173.2 55.34 380.33 84.62 478.47 268.13 98.47 184.105 85.41 446.616 10.95 646.954-69.68 187.479-269.31 228.324-389.69 372.071-105.98 126.55-129.16 365.451-271.03 416.885-141.846 51.426-273.977-104.882-412.297-169.147-126.127-58.599-257.444-90.788-364.316-191.672C238.193 134.885 90.751 8.963 63.987-181.798 37.16-373.003 151.748-545.285 227.378-715.705c70.642-159.178 127.755-349.175 262.073-424.805 131.464-74.02 279.56 29.64 424.046 38.48z"/><path opacity=".306" d="M914.789-1078.85c131.421 8.04 259.321-29.21 386.651 11.46 168.39 53.79 369.77 82.257 465.19 260.642 95.73 178.965 83.04 434.147 10.64 628.892-67.74 182.246-261.83 221.95-378.87 361.684-103.03 123.017-125.57 355.249-263.5 405.247-137.903 49.99-266.364-101.954-400.842-164.424-122.623-56.964-250.293-88.254-354.195-186.322C258.243 123.539 114.897 1.133 88.876-184.302c-26.082-185.867 85.323-353.339 158.853-519.002 68.679-154.734 124.206-339.426 254.793-412.946 127.812-71.95 271.795 28.81 412.267 37.4z"/><path opacity=".327" d="M916.08-1055.66c127.67 7.8 251.91-28.38 375.61 11.13 163.58 52.241 359.2 79.892 451.89 253.154 93 173.825 80.67 421.679 10.34 610.831-65.81 177.011-254.35 215.576-368.04 351.297-100.09 119.483-121.99 345.046-255.97 393.608-133.97 48.555-258.761-99.026-389.396-159.702-119.12-55.328-243.142-85.719-344.076-180.971C278.293 112.194 139.043-6.697 113.765-186.806 88.429-367.335 196.651-529.998 268.08-690.903c66.716-150.29 120.657-329.677 247.513-401.087 124.16-69.89 264.029 27.98 400.487 36.33z"/><path opacity=".347" d="M917.372-1032.48c123.918 7.58 244.498-27.53 364.558 10.8 158.77 50.704 348.64 77.537 438.6 245.675 90.27 168.686 78.3 409.211 10.04 592.771-63.87 171.777-246.87 209.201-357.22 340.909-97.15 115.951-118.4 334.844-248.44 381.97-130.027 47.119-251.147-96.098-377.941-154.98-115.616-53.692-235.99-83.184-333.956-175.619C298.344 100.849 163.188-14.527 138.654-189.31c-24.591-175.191 80.448-333.045 149.776-489.192 64.755-145.846 117.109-319.928 240.233-389.228 120.509-67.82 256.264 27.16 388.709 35.25z"/><path opacity=".367" d="M918.664-1009.29c120.156 7.35 237.086-26.7 353.516 10.472 153.95 49.154 338.06 75.169 425.31 238.185 87.53 163.547 75.92 396.743 9.73 574.709-61.94 166.544-239.39 202.827-346.39 330.522-94.21 112.418-114.81 324.642-240.92 370.332-126.084 45.684-243.534-93.17-366.485-150.258-112.113-52.055-228.84-80.65-323.836-170.268-111.195-104.9-242.255-216.76-266.045-386.219-23.846-169.853 78.009-322.896 145.237-474.286 62.792-141.402 113.559-310.18 232.953-377.369 116.857-65.75 248.498 26.33 376.93 34.18z"/><path opacity=".388" d="M919.956-986.103c116.404 7.114 229.684-25.857 342.464 10.142 149.15 47.61 327.5 72.807 412.02 230.7 84.79 158.407 73.55 384.275 9.43 556.648-60 161.31-231.9 196.453-335.57 320.135-91.26 108.885-111.22 314.439-233.39 358.693-122.141 44.248-235.921-90.242-355.03-145.536-108.609-50.419-221.688-78.115-313.716-164.917C338.444 78.159 211.48-30.186 188.433-194.319 165.332-358.834 264.005-507.068 329.131-653.7c60.83-136.958 110.011-300.432 225.674-365.5 113.205-63.69 240.733 25.494 365.151 33.097z"/><path opacity=".408" d="M921.247-962.916c112.653 6.883 222.273-25.021 331.413 9.812 144.34 46.065 316.94 70.445 398.74 223.215 82.05 153.267 71.17 371.806 9.12 538.586-58.07 156.076-224.42 190.08-324.74 309.748-88.32 105.352-107.64 304.237-225.86 347.055-118.208 42.812-228.318-87.314-343.584-140.814-105.106-48.783-214.537-75.58-303.597-159.566C358.494 66.813 235.626-38.016 213.322-196.823 190.967-356 286.456-499.425 349.482-641.299c58.868-132.514 106.462-290.684 218.394-353.645 109.553-61.626 232.967 24.671 353.371 32.028z"/><path opacity=".429" d="M922.539-939.73c108.891 6.652 214.861-24.182 320.371 9.483 139.52 44.521 306.37 68.083 385.44 215.73 79.32 148.127 68.8 359.338 8.82 520.525-56.13 150.842-216.94 183.705-313.92 299.361-85.37 101.819-104.05 294.034-218.33 335.416-114.266 41.377-220.704-84.386-332.129-136.091-101.602-47.148-207.386-73.046-293.476-154.216-100.771-95.01-219.543-196.324-241.103-349.805-21.611-153.84 70.696-292.454 131.621-429.571 56.905-128.071 102.913-280.936 211.114-341.786 105.901-59.556 225.201 23.844 341.592 30.954z"/><path opacity=".449" d="M923.831-916.544c105.139 6.422 207.459-23.343 309.319 9.155 134.72 42.975 295.81 65.72 372.15 208.244 76.59 142.987 66.43 346.869 8.52 502.464-54.2 145.608-209.46 177.33-303.1 288.973-82.43 98.286-100.46 283.832-210.8 323.778-110.323 39.941-213.091-81.458-320.673-131.369-98.099-45.512-200.235-70.512-283.357-148.865-97.295-91.713-211.973-189.512-232.789-337.668-20.865-148.501 68.258-282.306 127.082-414.665 54.943-123.627 99.365-271.188 203.835-329.927 102.249-57.486 217.435 23.017 329.813 29.88z"/><path opacity=".469" d="M925.123-893.357c101.387 6.19 200.047-22.504 298.277 8.825 129.9 41.431 285.24 63.358 358.86 200.759 73.85 137.847 64.05 334.401 8.21 484.402-52.26 140.374-201.98 170.956-292.27 278.586-79.49 94.754-96.87 273.63-203.27 312.14-106.39 38.505-205.488-78.53-309.228-126.647-94.595-43.876-193.083-67.977-273.237-143.514-93.82-88.416-204.402-182.7-224.475-325.53-20.12-143.163 65.821-272.159 122.544-399.76 52.981-119.183 95.816-261.44 196.554-318.067 98.598-55.424 209.671 22.189 318.035 28.806z"/><path opacity=".49" d="M926.414-870.171c97.626 5.96 192.636-21.665 287.226 8.496 125.09 39.886 274.68 60.996 345.57 193.273 71.11 132.708 61.68 321.933 7.91 466.342-50.33 135.14-194.5 164.582-281.45 268.199-76.54 91.22-93.28 263.427-195.74 300.501-102.447 37.07-197.875-75.602-297.772-121.925-91.092-42.24-185.932-65.442-263.117-138.162-90.346-85.12-196.832-175.888-216.162-313.393-19.375-137.826 63.383-262.011 118.005-384.855 51.019-114.739 92.268-251.692 189.275-306.208 94.946-53.357 201.905 21.362 306.255 27.732z"/><path opacity=".51" d="M927.706-846.985c93.874 5.729 185.224-20.825 276.184 8.168 120.28 38.341 264.11 58.633 332.27 185.787 68.38 127.569 59.32 309.465 7.61 448.28-48.39 129.907-187.02 158.208-270.62 257.812-73.6 87.687-89.7 253.225-188.22 288.863-98.504 35.634-190.261-72.674-286.317-117.203-87.588-40.604-178.781-62.908-252.997-132.811-86.871-81.823-189.261-169.076-207.847-301.255-18.63-132.488 60.945-251.864 113.466-369.95 49.056-110.295 88.718-241.944 181.995-294.348 91.294-51.291 194.139 20.534 294.476 26.657z"/><path opacity=".531" d="M928.998-823.798c90.122 5.498 177.822-19.987 265.132 7.838 115.47 36.796 253.55 56.271 318.99 178.302 65.64 122.429 56.94 296.996 7.3 430.219-46.46 124.672-179.54 151.834-259.8 247.424-70.65 84.155-86.11 243.022-180.69 277.225-94.561 34.198-182.648-69.746-274.861-112.481-84.085-38.968-171.63-60.373-242.877-127.46C478.795-1.258 380.501-84.995 362.658-211.85c-17.885-127.149 58.507-241.716 108.928-355.044 47.094-105.851 85.169-232.196 174.715-282.489 87.642-49.224 186.373 19.707 282.697 25.584z"/><path opacity=".551" d="M930.29-800.612c86.36 5.267 170.41-19.148 254.09 7.509 110.65 35.252 242.98 53.909 305.69 170.817 62.91 117.289 54.57 284.528 7 412.158-44.52 119.438-172.06 145.459-248.98 237.037-67.71 80.621-82.52 232.819-173.15 265.586-90.628 32.763-175.045-66.817-263.416-107.759-80.581-37.332-164.478-57.838-232.757-122.109-79.921-75.23-174.121-155.452-191.22-276.98-17.139-121.812 56.07-231.568 104.389-340.139 45.132-101.408 81.621-222.448 167.436-270.63 83.99-47.158 178.608 18.88 270.918 24.51z"/><path opacity=".571" d="M931.581-777.426c82.609 5.037 162.999-18.308 243.039 7.18 105.85 33.707 232.42 51.547 292.4 163.332 60.18 112.149 52.2 272.059 6.7 394.096-42.59 114.205-164.58 139.085-238.15 226.65-64.77 77.089-78.93 222.617-165.63 253.948-86.685 31.327-167.432-63.889-251.96-103.036-77.078-35.696-157.328-55.304-222.638-116.759-76.446-71.933-166.55-148.639-182.906-264.842-16.394-116.474 53.632-221.421 99.851-325.234 43.169-96.964 78.072-212.7 160.155-258.77 80.339-45.092 170.843 18.052 259.139 23.435z"/><path opacity=".592" d="M932.873-754.239c78.857 4.805 155.587-17.47 231.997 6.851 101.03 32.162 221.85 49.184 279.11 155.846 57.44 107.009 49.82 259.591 6.38 376.035-40.64 108.97-157.09 132.71-227.32 216.263-61.82 73.555-75.34 212.414-158.1 242.31-82.742 29.89-159.818-60.962-240.505-98.315-73.574-34.06-150.176-52.77-212.517-111.408-72.972-68.636-158.98-141.827-174.592-252.704-15.649-111.136 51.193-211.273 95.311-310.329 41.208-92.52 74.524-202.952 152.876-246.911 76.687-43.025 163.077 17.225 247.36 22.362z"/><path opacity=".612" d="M934.165-731.053c75.095 4.575 148.185-16.63 220.945 6.522 96.22 30.617 211.29 46.822 265.82 148.361 54.7 101.869 47.45 247.122 6.08 357.974C1388.3-114.46 1277.4-91.86 1210.52-12.321c-58.88 70.023-71.76 202.212-150.58 230.672-78.799 28.455-152.205-58.034-229.05-93.593-70.07-32.424-143.024-50.235-202.397-106.056-69.497-65.34-151.409-135.016-166.278-240.568-14.904-105.798 48.756-201.125 90.773-295.423 39.245-88.076 70.975-193.204 145.596-235.052 73.035-40.958 155.311 16.398 235.581 21.288z"/><path opacity=".633" d="M935.457-707.867c71.343 4.344 140.773-15.791 209.893 6.193 91.42 29.073 200.73 44.46 252.53 140.876 51.97 96.729 45.08 234.654 5.78 339.912-36.77 98.503-142.13 119.963-205.67 195.488-55.93 66.49-68.17 192.01-143.04 219.034-74.866 27.019-144.602-55.106-217.604-88.871-66.567-30.788-135.873-47.7-192.278-100.705-66.022-62.044-143.838-128.204-157.964-228.43-14.158-100.46 46.318-190.978 86.235-280.518 37.282-83.632 67.426-183.456 138.316-223.192 69.383-38.892 147.545 15.57 223.802 20.213z"/><path opacity=".653" d="M936.748-684.68c67.592 4.113 133.362-14.953 198.852 5.863 86.6 27.528 190.16 42.097 239.24 133.39 49.23 91.59 42.7 222.186 5.47 321.852-34.84 93.268-134.65 113.588-194.84 185.1-53 62.957-64.59 181.808-135.52 207.396-70.923 25.583-136.989-52.178-206.149-84.149-63.063-29.152-128.722-45.166-182.157-95.354-62.547-58.747-136.268-121.391-149.651-216.292-13.413-95.122 43.881-180.83 81.696-265.613 35.321-79.188 63.877-173.708 131.037-211.333 65.731-36.825 139.78 14.743 212.022 19.14z"/><path opacity=".673" d="M938.04-661.494c63.83 3.882 125.95-14.113 187.8 5.535 81.79 25.983 179.6 39.734 225.95 125.904 46.5 86.451 40.33 209.718 5.17 303.79-32.9 88.035-127.17 107.215-184.02 174.714-50.05 59.424-60.99 171.605-127.99 195.757-66.98 24.148-129.375-49.25-194.693-79.426-59.56-27.517-121.571-42.632-172.038-90.004-59.072-55.45-128.698-114.579-141.336-204.154-12.669-89.785 41.442-170.683 77.157-250.708 33.358-74.744 60.328-163.96 123.756-199.473 62.08-34.759 132.015 13.915 200.244 18.065z"/><path opacity=".694" d="M939.332-638.308c60.079 3.652 118.548-13.274 176.758 5.206 76.98 24.438 169.03 37.372 212.65 118.419 43.77 81.311 37.96 197.249 4.87 285.729-30.97 82.801-119.69 100.84-173.2 164.326-47.1 55.891-57.4 161.403-120.45 184.119-63.047 22.712-121.772-46.322-183.248-74.704-56.056-25.88-114.419-40.097-161.918-84.653-55.597-52.153-121.127-107.767-133.022-192.017-11.923-84.446 39.005-160.535 72.618-235.801 31.396-70.302 56.78-154.213 116.477-187.615 58.428-32.692 124.249 13.088 188.465 16.991z"/><path opacity=".714" d="M940.624-615.121c56.324 3.42 111.136-12.435 165.706 4.876 72.17 22.894 158.47 35.01 199.37 110.934 41.03 76.171 35.59 184.781 4.56 267.668-29.03 77.566-112.21 94.465-162.37 153.939-44.16 52.358-53.82 151.2-112.93 172.48-59.104 21.277-114.159-43.394-171.792-69.982C810.615.549 755.899-12.768 711.37-54.508c-52.123-48.856-113.557-100.955-124.709-179.879-11.178-79.108 36.567-150.387 68.08-220.896 29.434-65.858 53.231-144.465 109.197-175.756 54.776-30.625 116.483 12.261 176.686 15.918z"/><path opacity=".735" d="M941.915-591.935c52.57 3.19 103.725-11.596 154.665 4.548 67.35 21.348 147.9 32.647 186.07 103.448 38.29 71.031 33.22 172.312 4.26 249.606-27.1 72.333-104.73 88.092-151.55 143.552-41.21 48.825-50.23 140.998-105.4 160.842C974.799 89.9 923.414 29.595 869.623 4.8c-49.049-22.609-100.117-35.028-141.678-73.95-48.648-45.561-105.986-94.143-116.395-167.742-10.432-73.77 34.13-140.24 63.542-205.991 27.471-61.414 49.682-134.717 101.917-163.896 51.124-28.56 108.718 11.434 164.906 14.843z"/><path opacity=".755" d="M943.207-568.749c48.815 2.959 96.323-10.757 143.613 4.219 62.55 19.804 137.34 30.285 172.78 95.963 35.56 65.891 30.85 159.844 3.96 231.545-25.16 67.099-97.25 81.717-140.72 133.164-38.27 45.293-46.65 130.796-97.88 149.204-51.218 18.405-98.932-37.538-148.881-60.538-45.546-20.973-92.966-32.493-131.559-68.6-45.173-42.263-98.415-87.33-108.08-155.603-9.688-68.433 31.691-130.093 59.002-191.086 25.509-56.97 46.134-124.969 94.638-152.037 47.473-26.493 100.952 10.607 153.127 13.769z"/><path opacity=".776" d="M944.499-545.562c45.06 2.728 88.911-9.918 132.571 3.889 57.73 18.259 126.77 27.923 159.49 88.478 32.82 60.751 28.47 147.375 3.65 213.483-23.23 61.866-89.77 75.344-129.9 122.778-35.33 41.759-43.05 120.593-90.34 137.565-47.285 16.97-91.329-34.61-137.436-55.816-42.042-19.336-85.814-29.958-121.438-63.248-41.698-38.967-90.846-80.519-99.767-143.467-8.942-63.094 29.254-119.944 54.464-176.18 23.547-52.526 42.585-115.221 87.357-140.178 43.822-24.426 93.187 9.78 141.349 12.696z"/><path opacity=".796" d="M945.791-522.376c41.304 2.497 81.499-9.079 121.519 3.56 52.92 16.715 116.21 25.561 146.2 80.992 30.09 55.612 26.1 134.908 3.35 195.423-21.29 56.631-82.29 68.969-119.08 112.39-32.38 38.227-39.46 110.39-82.81 125.927-43.342 15.534-83.716-31.682-125.98-51.094-38.539-17.7-78.664-27.424-111.319-57.897-38.223-35.67-83.275-73.707-91.453-131.329-8.197-57.756 26.816-109.797 49.925-161.275 21.585-48.082 39.037-105.473 80.078-128.318 40.17-22.36 85.421 8.952 129.57 11.621z"/></g></svg>