<svg width="1920" height="625" fill="none" xmlns="http://www.w3.org/2000/svg"><g clip-path="url(#clip0)"><path d="M1919.55 433.571v196.441h-204c0-52.099 21.49-102.065 59.75-138.905 38.26-36.84 90.15-57.536 144.25-57.536z" fill="#F8F7FC" fill-opacity=".39"/></g><path d="M217.577 112.749c-5.056 4.892-7.96 11.465-8.074 18.273a24.578 24.578 0 00.849 6.841c1.887 6.968 2.35 15.318-2.914 20.412-5.264 5.093-13.994 5.141-17.687-1.113a48.88 48.88 0 01-6.775-25.724c.228-13.616 6.036-26.762 16.147-36.547 10.111-9.784 23.696-15.404 37.767-15.625 9.461-.149 18.621 2.153 26.582 6.556 6.463 3.574 6.414 12.022 1.15 17.116-5.263 5.093-13.892 4.646-21.093 2.819a27.044 27.044 0 00-7.069-.821 27.864 27.864 0 00-18.883 7.813zM959.5 598.644c7.095 0 13.898 2.701 18.915 7.511 5.017 4.809 7.835 11.332 7.835 18.133H1013c0-13.603-5.64-26.648-15.67-36.266C987.297 578.404 973.689 573 959.5 573s-27.797 5.404-37.83 15.022C911.637 597.64 906 610.685 906 624.288h26.75c0-6.801 2.818-13.324 7.835-18.133 5.017-4.81 11.82-7.511 18.915-7.511z" fill="#E9E9E9"/><g opacity=".9"><g opacity=".9" filter="url(#filter0_d)"><path d="M1674.77 77.858l-50.45-29.127a5.462 5.462 0 00-7.46 1.999l-29.13 50.449a5.461 5.461 0 002 7.46l50.45 29.127a5.46 5.46 0 007.46-1.999l29.13-50.449a5.47 5.47 0 00-2-7.46z" fill="#171347"/></g><path opacity=".9" d="M1674.77 77.858l-50.45-29.127a5.462 5.462 0 00-7.46 1.999l-29.13 50.449a5.461 5.461 0 002 7.46l50.45 29.127a5.46 5.46 0 007.46-1.999l29.13-50.449a5.47 5.47 0 00-2-7.46z" fill="url(#paint0_linear)"/></g><g opacity=".2"><g opacity=".2" filter="url(#filter1_d)"><path d="M1679.32 97.883l-50.45-29.127a5.462 5.462 0 00-7.46 1.998l-29.13 50.45a5.461 5.461 0 002 7.46l50.45 29.127a5.462 5.462 0 007.46-1.999l29.13-50.449a5.462 5.462 0 00-2-7.46z" fill="#171347"/></g><path opacity=".2" d="M1679.32 97.883l-50.45-29.127a5.462 5.462 0 00-7.46 1.998l-29.13 50.45a5.461 5.461 0 002 7.46l50.45 29.127a5.462 5.462 0 007.46-1.999l29.13-50.449a5.462 5.462 0 00-2-7.46z" fill="url(#paint1_linear)"/></g><defs><linearGradient id="paint0_linear" x1="1638.12" y1="68.316" x2="1593.6" y2="110.871" gradientUnits="userSpaceOnUse"><stop stop-color="#624DE3"/><stop offset="1" stop-color="#1E64FA"/></linearGradient><linearGradient id="paint1_linear" x1="1642.68" y1="88.341" x2="1598.15" y2="130.896" gradientUnits="userSpaceOnUse"><stop stop-color="#624DE3"/><stop offset="1" stop-color="#1E64FA"/></linearGradient><filter id="filter0_d" x="1587" y="47.998" width="105.501" height="104.501" filterUnits="userSpaceOnUse" color-interpolation-filters="sRGB"><feFlood flood-opacity="0" result="BackgroundImageFix"/><feColorMatrix in="SourceAlpha" values="0 0 0 0 0 0 0 0 0 0 0 0 0 0 0 0 0 0 127 0" result="hardAlpha"/><feOffset dx="8" dy="7"/><feGaussianBlur stdDeviation="3.5"/><feColorMatrix values="0 0 0 0 0.00784314 0 0 0 0 0 0 0 0 0 0.0470588 0 0 0 0.07 0"/><feBlend in2="BackgroundImageFix" result="effect1_dropShadow"/><feBlend in="SourceGraphic" in2="effect1_dropShadow" result="shape"/></filter><filter id="filter1_d" x="1591.55" y="68.023" width="105.501" height="104.501" filterUnits="userSpaceOnUse" color-interpolation-filters="sRGB"><feFlood flood-opacity="0" result="BackgroundImageFix"/><feColorMatrix in="SourceAlpha" values="0 0 0 0 0 0 0 0 0 0 0 0 0 0 0 0 0 0 127 0" result="hardAlpha"/><feOffset dx="8" dy="7"/><feGaussianBlur stdDeviation="3.5"/><feColorMatrix values="0 0 0 0 0.00784314 0 0 0 0 0 0 0 0 0 0.0470588 0 0 0 0.07 0"/><feBlend in2="BackgroundImageFix" result="effect1_dropShadow"/><feBlend in="SourceGraphic" in2="effect1_dropShadow" result="shape"/></filter><clipPath id="clip0"><path fill="#fff" transform="translate(1491 243)" d="M0 0h429v381.271H0z"/></clipPath></defs></svg>