<svg width="188" height="179" fill="none" xmlns="http://www.w3.org/2000/svg"><g clip-path="url(#clip0)"><path d="M3.824 58.225c.058.118.058.236.117.354.059.177.059.296.059.414 0 .177-.059.295-.059.413-.059.118-.059.236-.117.354l-.177.354c-.059.118-.118.178-.235.296a1.285 1.285 0 01-.294.236l-.353.177c-.118.059-.236.118-.353.118C2.235 61 2.176 61 2 61s-.294-.059-.412-.059c-.117-.06-.235-.06-.353-.118-.117-.06-.235-.118-.353-.177-.117-.118-.235-.177-.294-.236a1.288 1.288 0 01-.235-.296l-.177-.354c-.058-.118-.117-.236-.117-.354C0 59.229 0 59.11 0 58.993c0-.177.059-.296.059-.414s.059-.236.176-.354l.177-.354c.059-.118.117-.177.235-.295.059-.06.177-.177.294-.237l.353-.177c.118-.059.235-.118.353-.118.235-.059.53-.059.765 0 .117.06.235.06.353.118.117.06.235.118.353.177.117.06.176.119.294.237.059.059.176.177.235.295l.177.354zm-.06 20c.06.118.06.236.177.354.059.177.059.296.059.414 0 .177-.059.295-.059.413-.059.118-.059.236-.117.354l-.177.354c-.059.118-.118.178-.235.296a1.285 1.285 0 01-.294.236l-.353.177c-.118.059-.236.118-.353.118C2.235 81 2.176 81 2 81s-.294-.059-.412-.059c-.117-.06-.235-.06-.353-.118-.117-.06-.235-.118-.353-.177-.117-.06-.176-.118-.294-.236a1.288 1.288 0 01-.235-.296l-.177-.354c-.058-.118-.117-.236-.117-.354C0 79.229 0 79.11 0 78.993c0-.178.059-.296.059-.414.059-.118.059-.236.117-.354l.177-.354c.059-.118.118-.177.235-.295.06-.06.177-.177.294-.237l.353-.177c.118-.059.236-.118.353-.118.236-.059.53-.059.765 0 .118.06.235.06.353.118l.353.177c.117.06.176.119.294.237.059.059.176.177.235.295l.177.354h-.001zm.001 20c.059.118.059.236.176.354.059.177.059.296.059.414 0 .177-.059.295-.059.413-.059.118-.059.236-.117.354l-.177.354c-.059.118-.118.178-.235.296a1.282 1.282 0 01-.294.236l-.353.177c-.118.059-.236.118-.353.118C2.235 101 2.176 101 2 101s-.294-.059-.412-.059c-.117-.06-.235-.06-.353-.118-.117-.06-.235-.118-.353-.177-.117-.06-.176-.118-.294-.236a1.29 1.29 0 01-.235-.296l-.177-.354c-.058-.118-.117-.236-.117-.354C0 99.229 0 99.11 0 98.993c0-.178.059-.296.059-.414.059-.118.059-.236.117-.354l.177-.354c.059-.118.118-.177.235-.295.06-.06.177-.177.294-.237l.353-.177c.118-.059.236-.118.353-.118.236-.059.53-.059.765 0 .118.06.235.06.353.118l.353.177c.117.06.176.119.294.237.059.059.176.177.235.295l.177.354zm0 19c.059.118.059.296.176.355.059.176.059.295.059.413 0 .177-.059.295-.059.413-.059.118-.059.236-.117.355l-.177.353c-.059.118-.118.178-.235.296-.06.06-.177.177-.294.236l-.353.177c-.118.06-.236.119-.353.119C2.235 120 2.176 120 2 120s-.294-.058-.412-.058c-.117-.06-.235-.06-.353-.12l-.353-.176c-.117-.059-.176-.118-.294-.236a1.261 1.261 0 01-.235-.296l-.177-.353c-.058-.119-.117-.237-.117-.355C0 118.23 0 118.111 0 117.993c0-.177.059-.295.059-.413.059-.119.059-.237.117-.354l.177-.355c.059-.118.118-.177.235-.295.06-.059.177-.177.294-.236l.353-.178c.118-.058.236-.117.353-.117.236-.06.53-.06.765 0 .118.059.235.059.353.117l.353.178c.117.059.176.117.294.236.059.06.176.177.235.295.06.118.118.236.177.355v-.001zM184.119 59.76c0-.118-.06-.236-.06-.354-.059-.177-.059-.295-.059-.413 0-.177.06-.296.06-.414s.06-.236.12-.354c.058-.118.119-.236.178-.354.06-.118.12-.177.239-.295.06-.06.18-.177.299-.237l.357-.177c.12-.059.24-.118.359-.118.238-.059.537-.059.776 0 .12.06.238.06.358.118l.358.177c.12.06.18.119.299.237.06.059.18.177.238.295l.18.354c.06.118.119.236.119.354.06.177.06.296.06.414 0 .177-.06.295-.06.413-.06.118-.06.236-.12.354l-.179.354c-.059.118-.12.178-.238.296-.06.059-.18.177-.299.236l-.358.177c-.12.059-.239.118-.358.118-.179.059-.298.059-.418.059-.179 0-.298-.059-.418-.059-.12-.06-.239-.06-.358-.118l-.359-.177c-.119-.06-.179-.118-.298-.236-.06-.06-.18-.178-.238-.296l-.18-.354zm3.646 18.465c0 .118.06.236.177.354.058.177.058.296.058.414 0 .177-.058.295-.058.413-.06.118-.06.236-.118.354l-.176.354c-.06.118-.118.178-.236.296a1.274 1.274 0 01-.294.236l-.353.177c-.118.059-.236.118-.353.118-.177.059-.294.059-.412.059-.176 0-.294-.059-.412-.059-.117-.06-.235-.06-.353-.118-.117-.06-.235-.118-.353-.177-.118-.06-.176-.118-.294-.236-.059-.06-.176-.178-.235-.296l-.177-.354c-.058-.118-.117-.236-.117-.354-.059-.177-.059-.295-.059-.413 0-.178.059-.296.059-.414s.059-.236.117-.354l.177-.354c.059-.118.117-.177.235-.295.06-.06.176-.177.294-.237l.353-.177c.118-.059.236-.118.353-.118.236-.059.53-.059.765 0 .118.06.236.06.353.118.117.06.236.118.353.177.118.06.177.119.294.237.059.059.177.177.236.295l.176.354zm0 20c0 .118.06.236.177.354.058.177.058.296.058.414 0 .177-.058.295-.058.413-.06.118-.06.236-.118.354l-.176.354c-.06.118-.118.178-.236.296a1.26 1.26 0 01-.294.236l-.353.177c-.118.059-.236.118-.353.118-.177.059-.294.059-.412.059-.176 0-.294-.059-.412-.059-.117-.06-.235-.06-.353-.118-.117-.06-.235-.118-.353-.177-.118-.06-.176-.118-.294-.236-.059-.06-.176-.178-.235-.296l-.177-.354c-.058-.118-.117-.236-.117-.354-.059-.177-.059-.295-.059-.413 0-.178.059-.296.059-.414s.059-.236.117-.354l.177-.354c.059-.118.117-.177.235-.295.06-.06.176-.177.294-.237l.353-.177c.118-.059.236-.118.353-.118.236-.059.53-.059.765 0 .118.06.236.06.353.118.117.06.236.118.353.177.118.06.177.119.294.237.059.059.177.177.236.295l.176.354zm0 19c0 .118.06.296.177.355.058.176.058.295.058.413 0 .177-.058.295-.058.413-.06.118-.06.236-.118.355l-.176.353c-.06.118-.118.178-.236.296-.059.06-.176.177-.294.236l-.353.177c-.118.06-.236.119-.353.119A1.152 1.152 0 01186 120c-.176 0-.294-.058-.412-.058-.117-.06-.235-.06-.353-.12l-.353-.176c-.118-.059-.176-.118-.294-.236a1.247 1.247 0 01-.235-.296l-.177-.353c-.058-.119-.117-.237-.117-.355-.059-.177-.059-.295-.059-.413 0-.177.059-.295.059-.413 0-.119.059-.237.117-.354l.177-.355c.059-.118.117-.177.235-.295.06-.059.176-.177.294-.236l.353-.178c.118-.058.236-.117.353-.117.236-.06.53-.06.765 0 .118.059.236.059.353.117l.353.178c.118.059.177.117.294.236.059.06.177.177.236.295l.176.355v-.001zM63 175a2 2 0 110 4.001A2 2 0 0163 175zm22.765 1.225c.059.118.059.236.176.355.059.176.059.295.059.413 0 .177-.059.295-.059.413-.059.118-.059.236-.117.354l-.177.354c-.059.118-.118.178-.235.296a1.283 1.283 0 01-.294.236l-.353.176c-.118.06-.236.119-.353.119-.177.059-.294.059-.412.059-.176 0-.294-.059-.412-.059-.117-.06-.235-.06-.353-.119l-.353-.176c-.117-.06-.176-.119-.294-.236a1.299 1.299 0 01-.235-.296l-.177-.354c-.058-.118-.117-.236-.117-.354-.059-.177-.059-.295-.059-.413 0-.177.059-.295.059-.413 0-.12.059-.237.117-.355l.177-.354c.059-.118.118-.177.235-.296.06-.058.177-.176.294-.235l.353-.177c.118-.06.236-.118.353-.118.236-.06.53-.06.765 0 .118.059.235.059.353.118l.353.177c.117.059.176.118.294.235.059.06.176.178.235.296l.177.354zm20 0c.06.118.06.236.177.355.058.176.058.295.058.413 0 .177-.058.295-.058.413-.06.118-.06.236-.118.354-.06.118-.118.236-.176.354-.06.118-.118.178-.236.296a1.26 1.26 0 01-.294.236l-.353.176c-.118.06-.236.119-.353.119-.177.059-.295.059-.412.059-.177 0-.294-.059-.412-.059-.117-.06-.235-.06-.353-.119l-.353-.176c-.118-.06-.176-.119-.294-.236a1.298 1.298 0 01-.236-.296l-.176-.354c-.058-.118-.118-.236-.118-.354-.058-.177-.058-.295-.058-.413 0-.177.058-.295.058-.413.06-.12.06-.237.118-.355l.176-.354c.06-.118.118-.177.236-.296.059-.058.176-.176.294-.235l.353-.177c.118-.06.236-.118.353-.118.235-.06.53-.06.765 0 .118.059.235.059.353.118.117.059.236.117.353.177.117.059.177.118.294.235.059.06.177.178.235.296l.177.354zM125 175a2 2 0 11-.001 4.001A2 2 0 01125 175zM43 39a2 2 0 110 4 2 2 0 010-4zm-21 0a2 2 0 110 4 2 2 0 010-4zm41 0a2 2 0 110 4 2 2 0 010-4zm22.765 1.225c.059.118.059.236.176.354.059.177.059.237.059.414s-.059.295-.059.413c-.059.118-.059.236-.117.354l-.177.354c-.059.118-.118.178-.235.296a1.285 1.285 0 01-.294.236l-.353.177c-.118.059-.236.118-.353.118C84.235 43 84.118 43 84 43c-.176 0-.294-.059-.412-.059-.117-.06-.235-.06-.353-.118-.117-.06-.235-.118-.353-.177-.117-.06-.176-.118-.294-.236a1.286 1.286 0 01-.235-.296l-.177-.354c-.058-.118-.117-.236-.117-.354C82 41.229 82 41.17 82 40.993s.059-.296.059-.414.059-.236.117-.354l.177-.354c.059-.118.118-.177.235-.295.06-.06.177-.177.294-.237l.353-.177c.118-.059.236-.118.353-.118.236-.059.53-.059.765 0 .118.06.235.06.353.118l.353.177c.117.06.176.119.294.237.059.059.176.177.235.295l.177.354zM63 57a2 2 0 110 4 2 2 0 010-4zm-41 0a2 2 0 110 4 2 2 0 010-4zm21 0a2 2 0 110 4 2 2 0 010-4zm42.765 1.225c.059.118.059.236.176.354.059.177.059.296.059.414 0 .177-.059.295-.059.413-.059.118-.059.236-.117.354l-.177.354c-.059.118-.118.178-.235.296a1.285 1.285 0 01-.294.236l-.353.177c-.118.059-.236.118-.353.118C84.235 61 84.118 61 84 61c-.176 0-.294-.059-.412-.059-.117-.06-.235-.06-.353-.118-.117-.06-.235-.118-.353-.177-.117-.06-.176-.118-.294-.236a1.286 1.286 0 01-.235-.296l-.177-.354c-.058-.118-.117-.236-.117-.354C82 59.229 82 59.11 82 58.993c0-.177.059-.296.059-.414s.059-.236.117-.354l.177-.354c.059-.118.118-.177.235-.295.06-.06.177-.177.294-.237l.353-.177c.118-.059.236-.118.353-.118.236-.059.53-.059.765 0 .118.06.235.06.353.118l.353.177c.117.06.176.119.294.237.059.059.176.177.235.295l.177.354zM63 77a2 2 0 110 4 2 2 0 010-4zm-20 0a2 2 0 110 4 2 2 0 010-4zm-21 0a2 2 0 110 4 2 2 0 010-4zm63.765 1.225c.059.118.059.236.176.354.059.177.059.296.059.414 0 .177-.059.295-.059.413-.059.118-.059.236-.117.354l-.177.354c-.059.118-.118.178-.235.296a1.285 1.285 0 01-.294.236l-.353.177c-.118.059-.236.118-.353.118C84.235 81 84.118 81 84 81c-.176 0-.294-.059-.412-.059-.117-.06-.235-.06-.353-.118-.117-.06-.235-.118-.353-.177-.117-.06-.176-.118-.294-.236a1.286 1.286 0 01-.235-.296l-.177-.354c-.058-.118-.117-.236-.117-.354C82 79.229 82 79.11 82 78.993c0-.178.059-.296.059-.414s.059-.236.117-.354l.177-.354c.059-.118.118-.177.235-.295.06-.06.177-.177.294-.237l.353-.177c.118-.059.236-.118.353-.118.236-.059.53-.059.765 0 .118.06.235.06.353.118l.353.177c.117.06.176.119.294.237.059.059.176.177.235.295l.177.354zm20-38c.06.118.06.236.177.354.058.177.058.237.058.414s-.058.295-.058.413c-.06.118-.06.236-.118.354-.06.118-.118.236-.176.354-.06.118-.118.178-.236.296a1.274 1.274 0 01-.294.236l-.353.177c-.118.059-.236.118-.353.118-.177.059-.295.059-.412.059-.177 0-.294-.059-.412-.059-.117-.06-.235-.06-.353-.118l-.353-.177c-.118-.06-.176-.118-.294-.236a1.291 1.291 0 01-.236-.296l-.176-.354c-.058-.118-.118-.236-.118-.354-.058-.177-.058-.236-.058-.413s.058-.296.058-.414c.06-.118.06-.236.118-.354l.176-.354c.06-.118.118-.177.236-.295.086-.093.185-.173.294-.237l.353-.177c.118-.059.236-.118.353-.118.235-.059.53-.059.765 0 .118.06.235.06.353.118l.353.177c.117.06.177.119.294.237.059.059.177.177.235.295l.177.354zM125 39a2 2 0 110 4 2 2 0 010-4zm41 0c1.118 0 2 .882 2 2 0 1.118-.882 2-2 2-1.118 0-2-.882-2-2 0-1.118.882-2 2-2zm-21 0a2 2 0 110 4 2 2 0 010-4zm-39.235 19.225c.06.118.06.236.177.354.058.177.058.296.058.414 0 .177-.058.295-.058.413-.06.118-.06.236-.118.354-.06.118-.118.236-.176.354-.06.118-.118.178-.236.296a1.274 1.274 0 01-.294.236l-.353.177c-.118.059-.236.118-.353.118-.177.059-.295.059-.412.059-.177 0-.294-.059-.412-.059-.117-.06-.235-.06-.353-.118l-.353-.177c-.118-.06-.176-.118-.294-.236a1.291 1.291 0 01-.236-.296l-.176-.354c-.058-.118-.118-.236-.118-.354-.058-.177-.058-.295-.058-.413 0-.177.058-.296.058-.414.06-.118.06-.236.118-.354l.176-.354c.06-.118.118-.177.236-.295.086-.093.185-.173.294-.237l.353-.177c.118-.059.236-.118.353-.118.235-.059.53-.059.765 0 .118.06.235.06.353.118l.353.177c.117.06.177.119.294.237.059.059.177.177.235.295l.177.354zM166 57c1.118 0 2 .882 2 2 0 1.118-.882 2-2 2-1.118 0-2-.882-2-2 0-1.118.882-2 2-2zm-41 0a2 2 0 110 4 2 2 0 010-4zm20 0a2 2 0 110 4 2 2 0 010-4zm-39.235 21.225c.06.118.06.236.177.354.058.177.058.296.058.414 0 .177-.058.295-.058.413-.06.118-.06.236-.118.354-.06.118-.118.236-.176.354-.06.118-.118.178-.236.296a1.274 1.274 0 01-.294.236l-.353.177c-.118.059-.236.118-.353.118-.177.059-.295.059-.412.059-.177 0-.294-.059-.412-.059-.117-.06-.235-.06-.353-.118l-.353-.177c-.118-.06-.176-.118-.294-.236a1.293 1.293 0 01-.236-.296l-.176-.354c-.058-.118-.118-.236-.118-.354-.058-.177-.058-.295-.058-.413 0-.178.058-.296.058-.414.06-.118.06-.236.118-.354l.176-.354c.06-.118.118-.177.236-.295.086-.093.185-.173.294-.237l.353-.177c.118-.059.236-.118.353-.118.235-.059.53-.059.765 0 .118.06.235.06.353.118l.353.177c.117.06.177.119.294.237.059.059.177.177.235.295l.177.354zM125 77a2 2 0 110 4 2 2 0 010-4zm20 0a2 2 0 110 4 2 2 0 010-4zm21 0c1.118 0 2 .882 2 2 0 1.118-.882 2-2 2-1.118 0-2-.882-2-2 0-1.118.882-2 2-2zM22 97c1.118 0 2 .882 2 2 0 1.118-.882 2-2 2-1.118 0-2-.882-2-2 0-1.118.882-2 2-2zm21 0c1.059 0 1.941.882 2 2 0 1.118-.882 2-2 2-1.118 0-2-.882-2-2 0-1.118.882-2 2-2zm20 0c1.118 0 2 .882 2 2 0 1.118-.882 2-2 2-1.118 0-2-.882-2-2 0-1.118.882-2 2-2zm22.765 1.225c.059.118.059.236.176.354.059.177.059.296.059.414 0 .177-.059.295-.059.413-.059.118-.059.236-.117.354l-.177.354c-.059.118-.118.178-.235.296a1.283 1.283 0 01-.294.236l-.353.177c-.118.059-.236.118-.353.118-.177.059-.294.059-.412.059-.176 0-.294-.059-.412-.059-.117-.06-.235-.06-.353-.118-.117-.06-.235-.118-.353-.177-.117-.06-.176-.118-.294-.236a1.288 1.288 0 01-.235-.296l-.177-.354c-.058-.118-.117-.236-.117-.354C82 99.229 82 99.11 82 98.993c0-.178.059-.296.059-.414s.059-.236.117-.354l.177-.354c.059-.118.118-.177.235-.295.06-.06.177-.177.294-.237l.353-.177c.118-.059.236-.118.353-.118.236-.059.53-.059.765 0 .118.06.235.06.353.118l.353.177c.117.06.176.119.294.237.059.059.176.177.235.295l.177.354zM22 116a2 2 0 110 4.001A2 2 0 0122 116zm41 0a2 2 0 110 4.001A2 2 0 0163 116zm-20 0a2 2 0 110 4.001A2 2 0 0143 116zm42.765 1.226c.059.117.059.295.176.354.059.176.059.295.059.413 0 .177-.059.295-.059.413-.059.118-.059.236-.117.355l-.177.353c-.059.118-.118.178-.235.296-.06.06-.177.177-.294.236l-.353.177c-.118.06-.236.119-.353.119-.177.058-.294.058-.412.058-.176 0-.294-.058-.412-.058-.117-.06-.235-.06-.353-.12l-.353-.176c-.117-.059-.176-.118-.294-.236a1.262 1.262 0 01-.235-.296l-.177-.353c-.058-.119-.117-.237-.117-.355-.059-.177-.059-.295-.059-.413 0-.177.059-.295.059-.413 0-.119.059-.237.117-.354l.177-.355c.059-.118.118-.177.235-.295.06-.059.177-.177.294-.236l.353-.178c.118-.058.236-.117.353-.117.236-.06.53-.06.765 0 .118.059.235.059.353.117l.353.178c.117.059.176.117.294.236.059.06.176.177.235.295.06.118.118.236.177.355zM63 135a2 2 0 110 4.001A2 2 0 0163 135zm-41 0a2 2 0 110 4.001A2 2 0 0122 135zm21 0a2 2 0 110 4.001A2 2 0 0143 135zm42.765 1.226c.059.117.059.235.176.354.059.176.059.295.059.413 0 .177-.059.295-.059.413-.059.118-.059.236-.117.355l-.177.353c-.059.118-.118.178-.235.296-.06.06-.177.177-.294.236l-.353.177c-.118.06-.236.119-.353.119-.177.058-.294.058-.412.058-.176 0-.294-.058-.412-.058-.117-.06-.235-.06-.353-.12l-.353-.176c-.117-.059-.176-.118-.294-.236a1.262 1.262 0 01-.235-.296l-.177-.353c-.058-.119-.117-.237-.117-.355-.059-.177-.059-.295-.059-.413 0-.177.059-.295.059-.413 0-.119.059-.237.117-.354l.177-.355c.059-.118.118-.177.235-.295.06-.059.177-.177.294-.236l.353-.178c.118-.058.236-.117.353-.117.236-.06.53-.06.765 0 .118.059.235.059.353.117l.353.178c.117.059.176.117.294.236.059.06.176.177.235.295.06.118.118.236.177.355zm20-38c.06.117.06.235.177.353.058.177.058.296.058.414 0 .177-.058.295-.058.413-.06.118-.06.236-.118.354-.06.118-.118.236-.176.354-.06.118-.118.178-.236.296a1.26 1.26 0 01-.294.236l-.353.177c-.118.059-.236.118-.353.118-.177.059-.295.059-.412.059-.177 0-.294-.059-.412-.059-.117-.06-.235-.06-.353-.118l-.353-.177c-.118-.06-.176-.118-.294-.236a1.276 1.276 0 01-.236-.296l-.176-.354c-.058-.118-.118-.236-.118-.354-.058-.177-.058-.295-.058-.413 0-.178.058-.296.058-.414.06-.118.06-.236.118-.354l.176-.354c.06-.118.118-.177.236-.295.086-.093.185-.173.294-.237l.353-.177c.118-.059.236-.118.353-.118.235-.059.53-.059.765 0 .118.06.235.06.353.118.117.06.236.118.353.177.117.06.177.119.294.237.059.059.177.177.235.295l.177.354v.001zM166 97c1.118 0 2 .882 2 2 0 1.118-.882 2-2 2-1.118 0-2-.882-2-2 0-1.118.882-2 2-2zm-21 0c1.059 0 1.941.882 2 2 0 1.118-.882 2-2 2-1.118 0-2-.882-2-2 0-1.118.882-2 2-2zm-20 0c1.118 0 2 .882 2 2 0 1.118-.882 2-2 2-1.118 0-2-.882-2-2 0-1.118.882-2 2-2zm-19.235 20.226c.06.117.06.295.177.354.058.176.058.295.058.413 0 .177-.058.295-.058.413-.06.118-.06.236-.118.355-.06.118-.118.236-.176.353-.06.118-.118.178-.236.296-.059.06-.176.177-.294.236l-.353.177c-.118.06-.236.119-.353.119-.177.058-.295.058-.412.058-.177 0-.294-.058-.412-.058-.117-.06-.235-.06-.353-.12l-.353-.176c-.118-.059-.176-.118-.294-.236a1.25 1.25 0 01-.236-.296l-.176-.353c-.058-.119-.118-.237-.118-.355-.058-.177-.058-.295-.058-.413 0-.177.058-.295.058-.413.06-.119.06-.237.118-.354l.176-.355c.06-.118.118-.177.236-.295.059-.059.176-.177.294-.236l.353-.178c.118-.058.236-.117.353-.117.235-.06.53-.06.765 0 .118.059.235.059.353.117l.353.178c.117.059.177.117.294.236.059.06.177.177.235.295.06.118.118.236.177.355zM166 116c1.118 0 2 .882 2 2 0 1.118-.882 2-2 2-1.118 0-2-.882-2-2 0-1.118.882-2 2-2zm-21 0a2 2 0 11-.001 4.001A2 2 0 01145 116zm-20 0a2 2 0 11-.001 4.001A2 2 0 01125 116zm-19.235 20.226c.06.117.06.235.177.354.058.176.058.295.058.413 0 .177-.058.295-.058.413-.06.118-.06.236-.118.355-.06.118-.118.236-.176.353-.06.118-.118.178-.236.296-.059.06-.176.177-.294.236l-.353.177c-.118.06-.236.119-.353.119-.177.058-.295.058-.412.058-.177 0-.294-.058-.412-.058-.117-.06-.235-.06-.353-.12l-.353-.176c-.118-.059-.176-.118-.294-.236a1.25 1.25 0 01-.236-.296l-.176-.353c-.058-.119-.118-.237-.118-.355-.058-.177-.058-.295-.058-.413 0-.177.058-.295.058-.413.06-.119.06-.237.118-.354l.176-.355c.06-.118.118-.177.236-.295.059-.059.176-.177.294-.236l.353-.178c.118-.058.236-.117.353-.117.235-.06.53-.06.765 0 .118.059.235.059.353.117l.353.178c.117.059.177.117.294.236.059.06.177.177.235.295.06.118.118.236.177.355zM166 135c1.118 0 2 .882 2 2 0 1.118-.882 2-2 2-1.118 0-2-.882-2-2 0-1.118.882-2 2-2zm-21 0a2 2 0 11-.001 4.001A2 2 0 01145 135zm-20 0a2 2 0 11-.001 4.001A2 2 0 01125 135zM63 20a2 2 0 110 4 2 2 0 010-4zm-20 0a2 2 0 110 4 2 2 0 010-4zm42.765 1.225c.059.118.059.236.176.354.059.177.059.237.059.414s-.059.295-.059.413c-.059.118-.059.236-.117.354l-.177.354c-.059.118-.118.178-.235.296a1.285 1.285 0 01-.294.236l-.353.177c-.118.059-.236.118-.353.118C84.235 24 84.118 24 84 24c-.176 0-.294-.059-.412-.059-.117-.06-.235-.06-.353-.118-.117-.06-.235-.118-.353-.177-.117-.06-.176-.118-.294-.236a1.286 1.286 0 01-.235-.296l-.177-.354c-.058-.118-.117-.236-.117-.354C82 22.229 82 22.17 82 21.993s.059-.296.059-.414.059-.236.117-.354l.177-.354c.059-.118.118-.177.235-.295.06-.06.177-.177.294-.237l.353-.177c.118-.059.236-.118.353-.118.236-.059.53-.059.765 0 .118.06.235.06.353.118l.353.177c.117.06.176.119.294.237.059.059.176.177.235.295l.177.354zm20 0c.06.118.06.236.177.354.058.177.058.237.058.414s-.058.295-.058.413c-.06.118-.06.236-.118.354-.06.118-.118.236-.176.354-.06.118-.118.178-.236.296a1.274 1.274 0 01-.294.236l-.353.177c-.118.059-.236.118-.353.118-.177.059-.295.059-.412.059-.177 0-.294-.059-.412-.059-.117-.06-.235-.06-.353-.118l-.353-.177c-.118-.06-.176-.118-.294-.236a1.291 1.291 0 01-.236-.296l-.176-.354c-.058-.118-.118-.236-.118-.354-.058-.177-.058-.236-.058-.413s.058-.296.058-.414c.06-.118.06-.236.118-.354l.176-.354c.06-.118.118-.177.236-.295.086-.093.185-.173.294-.237l.353-.177c.118-.059.236-.118.353-.118.235-.059.53-.059.765 0 .118.06.235.06.353.118l.353.177c.117.06.177.119.294.237.059.059.177.177.235.295l.177.354zM145 20a2 2 0 110 4 2 2 0 010-4zm-20 0a2 2 0 110 4 2 2 0 010-4zM63 0a2 2 0 110 4 2 2 0 010-4zm22.765 1.225c.059.118.059.236.176.354.059.177.059.296.059.414 0 .177-.059.295-.059.413-.059.118-.059.236-.117.354l-.177.354c-.059.118-.118.178-.235.296a1.285 1.285 0 01-.294.236l-.353.177c-.118.059-.236.118-.353.118C84.235 4 84.118 4 84 4c-.176 0-.294-.059-.412-.059-.117-.06-.235-.06-.353-.118-.117-.06-.235-.118-.353-.177-.117-.06-.176-.118-.294-.236a1.285 1.285 0 01-.235-.296l-.177-.354c-.058-.118-.117-.236-.117-.354C82 2.229 82 2.11 82 1.993c0-.178.059-.296.059-.414s.059-.236.117-.354l.177-.354c.059-.118.118-.177.235-.295.06-.06.177-.177.294-.237l.353-.177c.118-.059.236-.118.353-.118.236-.059.53-.059.765 0 .118.06.235.06.353.118l.353.177c.117.06.176.119.294.237.059.059.176.177.235.295l.177.354zm20 0c.06.118.06.236.177.354.058.177.058.296.058.414 0 .177-.058.295-.058.413-.06.118-.06.236-.118.354-.06.118-.118.236-.176.354-.06.118-.118.178-.236.296a1.274 1.274 0 01-.294.236l-.353.177c-.118.059-.236.118-.353.118C104.235 4 104.117 4 104 4c-.177 0-.294-.059-.412-.059-.117-.06-.235-.06-.353-.118l-.353-.177c-.118-.06-.176-.118-.294-.236a1.292 1.292 0 01-.236-.296l-.176-.354c-.058-.118-.118-.236-.118-.354C102 2.229 102 2.11 102 1.993c0-.178.058-.296.058-.414.06-.118.06-.236.118-.354l.176-.354c.06-.118.118-.177.236-.295.086-.093.185-.173.294-.237l.353-.177c.118-.059.236-.118.353-.118.235-.059.53-.059.765 0 .118.06.235.06.353.118.117.06.236.118.353.177.117.06.177.119.294.237.059.059.177.177.235.295l.177.354zM125 0a2 2 0 110 4 2 2 0 010-4zM63 155a2 2 0 110 4.001A2 2 0 0163 155zm-20 0a2 2 0 110 4.001A2 2 0 0143 155zm42.765 1.226c.059.117.059.235.176.354.059.176.059.236.059.413s-.059.295-.059.413c-.059.118-.059.236-.117.355l-.177.353c-.059.118-.118.178-.235.296-.06.06-.177.177-.294.236l-.353.177c-.118.06-.236.119-.353.119-.177.058-.294.058-.412.058-.176 0-.294-.058-.412-.058-.117-.06-.235-.06-.353-.12l-.353-.176c-.117-.059-.176-.118-.294-.236a1.262 1.262 0 01-.235-.296l-.177-.353c-.058-.119-.117-.237-.117-.355-.059-.177-.059-.236-.059-.413s.059-.295.059-.413c0-.119.059-.237.117-.354l.177-.355c.059-.118.118-.177.235-.295.06-.059.177-.177.294-.236l.353-.178c.118-.058.236-.117.353-.117.236-.06.53-.06.765 0 .118.059.235.059.353.117l.353.178c.117.059.176.117.294.236.059.06.176.177.235.295.06.118.118.236.177.355zm20 0c.06.117.06.235.177.354.058.176.058.236.058.413s-.058.295-.058.413c-.06.118-.06.236-.118.355-.06.118-.118.236-.176.353-.06.118-.118.178-.236.296-.059.06-.176.177-.294.236l-.353.177c-.118.06-.236.119-.353.119-.177.058-.295.058-.412.058-.177 0-.294-.058-.412-.058-.117-.06-.235-.06-.353-.12l-.353-.176c-.118-.059-.176-.118-.294-.236a1.25 1.25 0 01-.236-.296l-.176-.353c-.058-.119-.118-.237-.118-.355-.058-.177-.058-.236-.058-.413s.058-.295.058-.413c.06-.119.06-.237.118-.354l.176-.355c.06-.118.118-.177.236-.295.059-.059.176-.177.294-.236l.353-.178c.118-.058.236-.117.353-.117.235-.06.53-.06.765 0 .118.059.235.059.353.117l.353.178c.117.059.177.117.294.236.059.06.177.177.235.295.06.118.118.236.177.355zM145 155a2 2 0 11-.001 4.001A2 2 0 01145 155zm-20 0a2 2 0 11-.001 4.001A2 2 0 01125 155z" fill="#57586E"/></g><defs><clipPath id="clip0"><path fill="#fff" d="M0 0h188v179H0z"/></clipPath></defs></svg>