<svg xmlns="http://www.w3.org/2000/svg" width="131" height="129"><switch><g fill="#005FDD"><path opacity=".8" d="M5.235 2.62A2.62 2.62 0 112.605.01h.01a2.619 2.619 0 012.62 2.61zm13.993 0a2.62 2.62 0 11-2.63-2.61h.01a2.618 2.618 0 012.62 2.61zm13.993 0a2.62 2.62 0 11-2.63-2.61h.01a2.619 2.619 0 012.62 2.61zm13.993 0a2.62 2.62 0 11-2.63-2.61h.01a2.619 2.619 0 012.62 2.61zm13.993 0A2.622 2.622 0 1158.575.01h.012a2.618 2.618 0 012.62 2.61zM5.235 16.25a2.62 2.62 0 11-2.63-2.61h.01a2.619 2.619 0 012.62 2.61zm13.993 0a2.62 2.62 0 11-2.63-2.61h.01a2.618 2.618 0 012.62 2.61zm13.993 0a2.62 2.62 0 11-2.63-2.61h.01a2.619 2.619 0 012.62 2.61zm13.993 0a2.62 2.62 0 11-2.63-2.61h.01a2.619 2.619 0 012.62 2.61zm13.993 0a2.622 2.622 0 11-2.632-2.61h.012a2.618 2.618 0 012.62 2.61zM5.235 29.88a2.62 2.62 0 11-2.63-2.61h.01a2.619 2.619 0 012.62 2.61zm13.993 0a2.62 2.62 0 11-2.63-2.61h.01a2.618 2.618 0 012.62 2.61zm13.993 0a2.62 2.62 0 11-2.63-2.61h.01a2.619 2.619 0 012.62 2.61zm13.993 0a2.62 2.62 0 11-2.63-2.61h.01a2.619 2.619 0 012.62 2.61zm13.993 0a2.62 2.62 0 11-2.632-2.61h.012a2.618 2.618 0 012.62 2.61zM5.235 43.51a2.62 2.62 0 11-2.63-2.61h.01a2.618 2.618 0 012.62 2.61zm13.993 0a2.62 2.62 0 11-2.63-2.61h.01a2.617 2.617 0 012.62 2.61zm13.993 0a2.62 2.62 0 11-2.63-2.61h.01a2.618 2.618 0 012.62 2.61zm13.993 0a2.62 2.62 0 11-2.63-2.61h.01a2.618 2.618 0 012.62 2.61zm13.993 0a2.62 2.62 0 11-2.632-2.61h.012a2.617 2.617 0 012.62 2.61zM5.235 57.14a2.62 2.62 0 11-2.63-2.61h.01a2.618 2.618 0 012.62 2.61zm13.993 0a2.62 2.62 0 11-2.63-2.61h.01a2.617 2.617 0 012.62 2.61zm13.993 0a2.62 2.62 0 11-2.63-2.61h.01a2.617 2.617 0 012.62 2.61zm13.993 0a2.62 2.62 0 11-2.63-2.61h.01a2.618 2.618 0 012.62 2.61zM75.033 2.62a2.62 2.62 0 11-5.24.02 2.62 2.62 0 012.61-2.63h.01a2.62 2.62 0 012.62 2.61zm13.993 0a2.62 2.62 0 11-2.63-2.61h.01a2.619 2.619 0 012.62 2.61zm13.994 0a2.62 2.62 0 11-5.24.02 2.62 2.62 0 012.609-2.63h.011a2.62 2.62 0 012.62 2.61zm13.992 0a2.62 2.62 0 11-2.631-2.61h.012a2.618 2.618 0 012.619 2.61zm13.994 0a2.622 2.622 0 11-2.633-2.61h.012a2.62 2.62 0 012.621 2.61zM75.033 16.25a2.62 2.62 0 11-5.24.02 2.62 2.62 0 012.61-2.63h.01a2.619 2.619 0 012.62 2.61zm13.993 0a2.62 2.62 0 11-2.63-2.61h.01a2.619 2.619 0 012.62 2.61zm13.994 0a2.62 2.62 0 11-5.24.02 2.62 2.62 0 012.609-2.63h.011a2.62 2.62 0 012.62 2.61zm13.992 0a2.62 2.62 0 11-2.631-2.61h.012a2.618 2.618 0 012.619 2.61zm13.994 0a2.622 2.622 0 11-2.633-2.61h.012a2.62 2.62 0 012.621 2.61zM75.033 29.88a2.62 2.62 0 11-2.63-2.61h.011a2.618 2.618 0 012.619 2.61zm13.993 0a2.62 2.62 0 11-2.63-2.61h.01a2.619 2.619 0 012.62 2.61zm13.994 0a2.62 2.62 0 11-5.24.02 2.62 2.62 0 012.61-2.63h.01a2.62 2.62 0 012.62 2.61zm13.992 0a2.62 2.62 0 11-5.241.022 2.622 2.622 0 012.61-2.632h.012a2.618 2.618 0 012.619 2.61zm13.994 0a2.621 2.621 0 11-2.633-2.61h.012a2.62 2.62 0 012.621 2.61zM75.033 43.51c.006 1.447-1.162 2.625-2.609 2.63s-2.625-1.163-2.631-2.61a2.62 2.62 0 012.61-2.63h.011a2.618 2.618 0 012.619 2.61zm13.993 0a2.62 2.62 0 11-2.63-2.61h.01a2.618 2.618 0 012.62 2.61zm13.994 0a2.62 2.62 0 11-5.24.02 2.62 2.62 0 012.61-2.63h.01a2.618 2.618 0 012.62 2.61zm13.993 0a2.621 2.621 0 11-2.632-2.61h.012a2.618 2.618 0 012.62 2.61zm13.993 0a2.62 2.62 0 11-2.633-2.61h.013a2.62 2.62 0 012.62 2.61zM5.235 71.859a2.62 2.62 0 11-2.62-2.619 2.616 2.616 0 012.619 2.612l.001.007zm13.994 0a2.62 2.62 0 11-2.62-2.619 2.616 2.616 0 012.62 2.619zm13.993 0a2.62 2.62 0 11-2.62-2.619 2.616 2.616 0 012.62 2.619zm13.992 0a2.62 2.62 0 11-2.62-2.619 2.616 2.616 0 012.619 2.612l.001.007zM5.235 85.49a2.62 2.62 0 11-2.62-2.62 2.615 2.615 0 012.62 2.62zm13.994 0a2.62 2.62 0 11-2.62-2.62 2.616 2.616 0 012.62 2.62zm13.993 0a2.62 2.62 0 11-2.62-2.62 2.616 2.616 0 012.62 2.62zm13.992 0a2.62 2.62 0 11-2.62-2.62 2.616 2.616 0 012.619 2.612l.001.008zM5.235 99.12a2.62 2.62 0 11-2.62-2.62 2.616 2.616 0 012.619 2.612l.001.008zm13.994 0a2.62 2.62 0 11-2.62-2.62 2.616 2.616 0 012.62 2.62zm13.993 0a2.62 2.62 0 11-2.62-2.62 2.616 2.616 0 012.62 2.62zm13.993 0a2.62 2.62 0 11-2.62-2.62 2.616 2.616 0 012.62 2.62zm-41.98 13.63a2.62 2.62 0 11-2.62-2.62 2.616 2.616 0 012.619 2.612l.001.008zm13.994 0a2.62 2.62 0 11-2.62-2.62 2.616 2.616 0 012.62 2.62zm13.993 0a2.62 2.62 0 11-2.62-2.62 2.616 2.616 0 012.62 2.62zm13.993 0a2.62 2.62 0 11-2.62-2.62 2.616 2.616 0 012.62 2.62zM5.236 126.38a2.62 2.62 0 11-2.62-2.62 2.616 2.616 0 012.619 2.613l.001.007zm13.993 0a2.62 2.62 0 11-2.62-2.62 2.617 2.617 0 012.62 2.62zm13.993 0a2.62 2.62 0 11-2.62-2.62 2.617 2.617 0 012.62 2.62zm13.993 0a2.62 2.62 0 11-2.62-2.62 2.616 2.616 0 012.62 2.62z"/><path opacity=".2" d="M7.235 3.954a2.62 2.62 0 11-2.63-2.61h.01a2.617 2.617 0 012.62 2.61zm13.993 0a2.62 2.62 0 11-2.63-2.61h.01a2.617 2.617 0 012.62 2.61zm13.993 0a2.62 2.62 0 11-2.63-2.61h.01a2.617 2.617 0 012.62 2.61zm13.993 0a2.62 2.62 0 11-2.63-2.61h.01a2.617 2.617 0 012.62 2.61zm13.993 0a2.622 2.622 0 11-2.632-2.61h.012a2.617 2.617 0 012.62 2.61zM7.235 17.583a2.62 2.62 0 11-2.63-2.609h.01a2.617 2.617 0 012.62 2.609zm13.993 0a2.62 2.62 0 11-2.63-2.61h.01a2.618 2.618 0 012.62 2.61zm13.993 0a2.62 2.62 0 11-2.63-2.61h.01a2.619 2.619 0 012.62 2.61zm13.993 0a2.62 2.62 0 11-2.63-2.61h.01a2.619 2.619 0 012.62 2.61zm13.993 0a2.622 2.622 0 11-2.632-2.61h.012a2.618 2.618 0 012.62 2.61zM7.235 31.213a2.62 2.62 0 11-2.63-2.61h.01a2.62 2.62 0 012.62 2.61zm13.993 0a2.62 2.62 0 11-2.63-2.61h.01a2.619 2.619 0 012.62 2.61zm13.993 0a2.62 2.62 0 11-2.63-2.61h.01a2.62 2.62 0 012.62 2.61zm13.993 0a2.62 2.62 0 11-2.63-2.61h.01a2.62 2.62 0 012.62 2.61zm13.993 0a2.62 2.62 0 11-2.632-2.61h.012a2.619 2.619 0 012.62 2.61zM7.235 44.843a2.62 2.62 0 11-2.63-2.61h.01a2.619 2.619 0 012.62 2.61zm13.993 0a2.62 2.62 0 11-2.63-2.61h.01a2.618 2.618 0 012.62 2.61zm13.993 0a2.62 2.62 0 11-2.63-2.61h.01a2.619 2.619 0 012.62 2.61zm13.993 0a2.62 2.62 0 11-2.63-2.61h.01a2.619 2.619 0 012.62 2.61zm13.993 0a2.62 2.62 0 11-2.632-2.61h.012a2.618 2.618 0 012.62 2.61zM7.235 58.474a2.62 2.62 0 11-2.63-2.61h.01a2.618 2.618 0 012.62 2.61zm13.993 0a2.62 2.62 0 11-2.63-2.61h.01a2.617 2.617 0 012.62 2.61zm13.993 0a2.62 2.62 0 11-2.63-2.61h.01a2.617 2.617 0 012.62 2.61zm13.993 0a2.62 2.62 0 11-2.63-2.61h.01a2.618 2.618 0 012.62 2.61zm27.819-54.52a2.62 2.62 0 11-5.24.02 2.62 2.62 0 012.61-2.63h.01a2.618 2.618 0 012.62 2.61zm13.993 0a2.62 2.62 0 11-2.63-2.61h.01a2.617 2.617 0 012.62 2.61zm13.994 0a2.62 2.62 0 11-5.24.02 2.62 2.62 0 012.609-2.63h.011a2.618 2.618 0 012.62 2.61zm13.992 0a2.62 2.62 0 11-2.631-2.61h.012a2.616 2.616 0 012.619 2.61zm13.994 0a2.622 2.622 0 11-2.633-2.61h.012a2.62 2.62 0 012.621 2.61zM77.033 17.583a2.62 2.62 0 11-5.24.02 2.62 2.62 0 012.61-2.63h.01a2.62 2.62 0 012.62 2.61zm13.993 0a2.62 2.62 0 11-2.63-2.61h.01a2.62 2.62 0 012.62 2.61zm13.994 0a2.62 2.62 0 11-5.24.02 2.62 2.62 0 012.609-2.63h.011a2.62 2.62 0 012.62 2.61zm13.992 0a2.62 2.62 0 11-2.631-2.61h.012a2.618 2.618 0 012.619 2.61zm13.994 0a2.622 2.622 0 11-2.633-2.61h.012a2.621 2.621 0 012.621 2.61zm-55.973 13.63a2.62 2.62 0 11-2.63-2.61h.011a2.619 2.619 0 012.619 2.61zm13.993 0a2.62 2.62 0 11-2.63-2.61h.01a2.62 2.62 0 012.62 2.61zm13.994 0a2.62 2.62 0 11-5.24.02 2.62 2.62 0 012.61-2.63h.01a2.62 2.62 0 012.62 2.61zm13.992 0a2.62 2.62 0 11-5.241.022 2.622 2.622 0 012.61-2.632h.012a2.618 2.618 0 012.619 2.61zm13.994 0a2.621 2.621 0 11-2.633-2.61h.012a2.621 2.621 0 012.621 2.61zm-55.973 13.63c.006 1.447-1.162 2.625-2.609 2.63s-2.625-1.163-2.631-2.61a2.62 2.62 0 012.61-2.63h.011a2.619 2.619 0 012.619 2.61zm13.993 0a2.62 2.62 0 11-2.63-2.61h.01a2.62 2.62 0 012.62 2.61zm13.994 0a2.62 2.62 0 11-5.24.02 2.62 2.62 0 012.61-2.63h.01a2.62 2.62 0 012.62 2.61zm13.993 0a2.621 2.621 0 11-2.632-2.61h.012a2.62 2.62 0 012.62 2.61zm13.993 0a2.62 2.62 0 11-2.633-2.61h.013a2.62 2.62 0 012.62 2.61zM7.235 73.193a2.62 2.62 0 11-2.62-2.619 2.616 2.616 0 012.62 2.619zm13.994 0a2.62 2.62 0 11-2.62-2.619 2.616 2.616 0 012.62 2.619zm13.993 0a2.62 2.62 0 11-2.62-2.619 2.616 2.616 0 012.62 2.619zm13.992 0a2.62 2.62 0 11-2.62-2.619 2.616 2.616 0 012.619 2.611l.001.008zM7.235 86.824a2.62 2.62 0 01-5.24 0 2.62 2.62 0 012.62-2.621 2.616 2.616 0 012.62 2.621zm13.994 0a2.62 2.62 0 01-5.24 0 2.62 2.62 0 012.62-2.621 2.617 2.617 0 012.62 2.621zm13.993 0a2.62 2.62 0 01-5.24 0 2.62 2.62 0 012.62-2.621 2.617 2.617 0 012.62 2.621zm13.992 0a2.62 2.62 0 01-5.24 0 2.62 2.62 0 012.62-2.621 2.616 2.616 0 012.62 2.621zM7.235 100.453a2.62 2.62 0 11-2.62-2.619 2.615 2.615 0 012.62 2.619zm13.994 0a2.62 2.62 0 11-2.62-2.619 2.616 2.616 0 012.62 2.619zm13.993 0a2.62 2.62 0 11-2.62-2.619 2.616 2.616 0 012.62 2.619zm13.993 0a2.62 2.62 0 11-2.62-2.619 2.616 2.616 0 012.62 2.619zm-41.98 13.631a2.62 2.62 0 01-5.24 0 2.62 2.62 0 012.62-2.621 2.616 2.616 0 012.619 2.613l.001.008zm13.994 0a2.62 2.62 0 01-5.24 0 2.62 2.62 0 012.62-2.621 2.617 2.617 0 012.62 2.621zm13.993 0a2.62 2.62 0 01-5.24 0 2.62 2.62 0 012.62-2.621 2.617 2.617 0 012.62 2.621zm13.993 0a2.62 2.62 0 01-5.24 0 2.62 2.62 0 012.62-2.621 2.616 2.616 0 012.62 2.621zM7.236 127.713a2.62 2.62 0 11-2.62-2.619 2.616 2.616 0 012.619 2.613l.001.006zm13.993 0a2.62 2.62 0 11-2.62-2.619 2.617 2.617 0 012.62 2.619zm13.993 0a2.62 2.62 0 11-2.62-2.619 2.617 2.617 0 012.62 2.619zm13.993 0a2.62 2.62 0 11-2.62-2.619 2.616 2.616 0 012.62 2.619z"/></g></switch></svg>