<svg height="112" width="112" xmlns="http://www.w3.org/2000/svg"><path d="M24.18 32.665l-2.121 2.121 2.12 2.121 2.122-2.121zM13.573 43.271l-2.121 2.122 2.121 2.12 2.122-2.12zM2.967 53.878L.845 55.999l2.122 2.122 2.121-2.122zm42.426-42.427l-2.121 2.122 2.121 2.121 2.121-2.121zm0 42.427l-2.121 2.121 2.121 2.122 2.121-2.122zM34.786 64.484l-2.12 2.122 2.12 2.121 2.122-2.121zM24.18 75.091l-2.121 2.121 2.12 2.122 2.122-2.122zm42.426 0l-2.121 2.121 2.121 2.122 2.122-2.122zM56 85.698l-2.122 2.121L56 89.94l2.121-2.121zM45.393 96.304l-2.121 2.122 2.121 2.12 2.121-2.12zm21.213-63.639l-2.121 2.121 2.121 2.121 2.122-2.121zM87.82 53.878l-2.122 2.121 2.121 2.122 2.122-2.122zm-53.034-31.82l-2.12 2.121 2.12 2.122 2.122-2.122zM56 .845l-2.122 2.121L56 5.087l2.121-2.12zm0 42.426l-2.122 2.122L56 47.513l2.121-2.12zm21.213 21.213l-2.121 2.122 2.12 2.121 2.122-2.121zm0-42.426l-2.121 2.121 2.12 2.122 2.122-2.122zm21.213 21.213l-2.121 2.122 2.121 2.12 2.121-2.12zm-63.64 0l-2.12 2.122 2.12 2.12 2.122-2.12zM24.18 53.878l-2.121 2.121 2.12 2.122 2.122-2.122zM13.573 64.484l-2.121 2.122 2.121 2.121 2.122-2.121zM56 22.058l-2.122 2.121L56 26.301l2.121-2.122zm0 42.426l-2.122 2.122L56 68.727l2.121-2.121zM45.393 75.091l-2.121 2.121 2.121 2.122 2.121-2.122zM34.786 85.698l-2.12 2.121 2.12 2.121 2.122-2.121zm42.427 0l-2.121 2.121 2.12 2.121 2.122-2.121zM66.606 96.304l-2.121 2.122 2.121 2.12 2.122-2.12zM56 106.91l-2.122 2.122L56 111.154l2.121-2.122zm21.213-63.639l-2.121 2.122 2.12 2.12 2.122-2.12zm21.213 21.213l-2.121 2.122 2.121 2.121 2.121-2.121zM45.393 32.665l-2.121 2.121 2.121 2.121 2.121-2.121zm21.213-21.214l-2.121 2.122 2.121 2.121 2.122-2.121zm0 42.427l-2.121 2.121 2.121 2.122 2.122-2.122zM87.82 75.091l-2.122 2.121 2.121 2.122 2.122-2.122zm0-42.426l-2.122 2.121 2.121 2.121 2.122-2.121zm21.213 21.213l-2.122 2.121 2.122 2.122 2.121-2.122z" fill="#fff" opacity=".3"/></svg>