<svg width="200" height="200" xmlns="http://www.w3.org/2000/svg"><path d="M39.5 191a4.5 4.5 0 110 9 4.5 4.5 0 01-.212-8.995L39.5 191zm17 0a4.5 4.5 0 110 9 4.5 4.5 0 01-.212-8.995L56.5 191zm17 0a4.5 4.5 0 11-4.5 4.5 4.5 4.5 0 014.288-4.495L73.5 191zm18 0a4.5 4.5 0 11-4.5 4.5 4.5 4.5 0 014.288-4.495L91.5 191zm17 0a4.5 4.5 0 11-4.5 4.5 4.5 4.5 0 014.288-4.495l.212-.005zm18 0a4.5 4.5 0 110 9 4.5 4.5 0 01-.212-8.995l.212-.005zm17 0a4.5 4.5 0 010 9 4.5 4.5 0 010-9zm17 0a4.5 4.5 0 11-4.5 4.5 4.5 4.5 0 014.288-4.495l.212-.005zm0-17a4.5 4.5 0 11-4.5 4.5 4.5 4.5 0 014.288-4.495l.212-.005zm18 0a4.5 4.5 0 11-4.5 4.5 4.5 4.5 0 014.288-4.495l.212-.005zm-157 0a4.5 4.5 0 11-4.5 4.5 4.5 4.5 0 014.288-4.495L21.5 174zm18 0a4.5 4.5 0 110 9 4.5 4.5 0 01-.212-8.995L39.5 174zm17 0a4.5 4.5 0 110 9 4.5 4.5 0 01-.212-8.995L56.5 174zm17 0a4.5 4.5 0 11-4.5 4.5 4.5 4.5 0 014.288-4.495L73.5 174zm18 0a4.5 4.5 0 11-4.5 4.5 4.5 4.5 0 014.288-4.495L91.5 174zm17 0a4.5 4.5 0 11-4.5 4.5 4.5 4.5 0 014.288-4.495l.212-.005zm18 0a4.5 4.5 0 110 9 4.5 4.5 0 01-.212-8.995l.212-.005zm17 0a4.5 4.5 0 010 9 4.5 4.5 0 010-9zm-35-18a4.5 4.5 0 110 9 4.5 4.5 0 01-.212-8.995l.212-.005zm18 0a4.5 4.5 0 014.5 4.5 4.5 4.5 0 11-9 0 4.5 4.5 0 014.289-4.495l.211-.005zm17 0a4.5 4.5 0 010 9 4.5 4.5 0 010-9zm17 0a4.5 4.5 0 11-.212.005l.212-.005zm18 0a4.5 4.5 0 11-.212.005l.212-.005zm17 0a4.5 4.5 0 014.5 4.5 4.5 4.5 0 11-9 0 4.5 4.5 0 014.289-4.495l.211-.005zm-191 0a4.5 4.5 0 11-.212.005L4.5 156zm17 0a4.5 4.5 0 11-.212.005L21.5 156zm18 0a4.5 4.5 0 014.5 4.5 4.5 4.5 0 11-9 0 4.5 4.5 0 014.289-4.495L39.5 156zm17 0a4.5 4.5 0 014.5 4.5 4.5 4.5 0 11-9 0 4.5 4.5 0 014.289-4.495L56.5 156zm17 0a4.5 4.5 0 11-.212.005L73.5 156zm18 0a4.5 4.5 0 11-.212.005L91.5 156zm87-17a4.5 4.5 0 11-.212.005l.212-.005zm17 0a4.5 4.5 0 014.5 4.5 4.5 4.5 0 11-4.711-4.496l.211-.004zm-122 0a4.5 4.5 0 11-.212.005L73.5 139zm-69 0a4.5 4.5 0 11-.212.005L4.5 139zm17 0a4.5 4.5 0 11-.212.005L21.5 139zm18 0a4.5 4.5 0 014.5 4.5 4.5 4.5 0 11-4.711-4.496L39.5 139zm17 0a4.5 4.5 0 014.5 4.5 4.5 4.5 0 11-4.711-4.496L56.5 139zm35 0a4.5 4.5 0 11-.212.005L91.5 139zm17 0a4.5 4.5 0 11-.212.005l.212-.005zm18 0a4.5 4.5 0 014.5 4.5 4.5 4.5 0 11-4.711-4.496l.211-.004zm17 0a4.5 4.5 0 010 9 4.5 4.5 0 010-9zm17 0a4.5 4.5 0 11-.212.005l.212-.005zm0-17a4.5 4.5 0 11-.212.005l.212-.005zm-139 0a4.5 4.5 0 11-.212.005L21.5 122zm18 0a4.5 4.5 0 014.5 4.5 4.5 4.5 0 11-4.711-4.496L39.5 122zm34 0a4.5 4.5 0 11-.212.005L73.5 122zm-69 0a4.5 4.5 0 11-.212.005L4.5 122zm174 0a4.5 4.5 0 11-.212.005l.212-.005zm17 0a4.5 4.5 0 014.5 4.5 4.5 4.5 0 11-4.711-4.496l.211-.004zm-104 0a4.5 4.5 0 11-.212.005L91.5 122zm17 0a4.5 4.5 0 11-.212.005l.212-.005zm18 0a4.5 4.5 0 014.5 4.5 4.5 4.5 0 11-4.711-4.496l.211-.004zm17 0a4.5 4.5 0 010 9 4.5 4.5 0 010-9zm-87 0a4.5 4.5 0 11-.212.005L56.5 122zm52-18a4.5 4.5 0 11-.212.005l.212-.005zm-35 0a4.5 4.5 0 11-.212.005L73.5 104zm53 0a4.5 4.5 0 014.5 4.5 4.5 4.5 0 11-4.711-4.496l.211-.004zm-35 0a4.5 4.5 0 11-.212.005L91.5 104zm69 0a4.5 4.5 0 11-.212.005l.212-.005zm-104 0a4.5 4.5 0 014.5 4.5 4.5 4.5 0 11-4.711-4.496L56.5 104zm87 0a4.5 4.5 0 010 9 4.5 4.5 0 010-9zm35 0a4.5 4.5 0 11-.212.005l.212-.005zm17 0a4.5 4.5 0 014.5 4.5 4.5 4.5 0 11-4.711-4.496l.211-.004zm-191 0a4.5 4.5 0 11-.212.005L4.5 104zm17 0a4.5 4.5 0 11-.212.005L21.5 104zm18 0a4.5 4.5 0 014.5 4.5 4.5 4.5 0 11-4.711-4.496L39.5 104zm87-17a4.5 4.5 0 014.5 4.5 4.5 4.5 0 11-4.711-4.496L126.5 87zm-122 0a4.5 4.5 0 11-.212.005L4.5 87zm104 0a4.5 4.5 0 11-.212.005L108.5 87zm87 0a4.5 4.5 0 014.5 4.5 4.5 4.5 0 11-4.711-4.496L195.5 87zm-104 0a4.5 4.5 0 11-.212.005L91.5 87zm-35 0a4.5 4.5 0 014.5 4.5 4.5 4.5 0 11-4.711-4.496L56.5 87zm104 0a4.5 4.5 0 11-.212.005L160.5 87zm-17 0a4.5 4.5 0 010 9 4.5 4.5 0 010-9zm-122 0a4.5 4.5 0 11-.212.005L21.5 87zm52 0a4.5 4.5 0 11-.212.005L73.5 87zm-34 0a4.5 4.5 0 014.5 4.5 4.5 4.5 0 11-4.711-4.496L39.5 87zm139 0a4.5 4.5 0 11-.212.005L178.5 87zm-70-18a4.5 4.5 0 11-.212.005L108.5 69zm-87 0a4.5 4.5 0 11-.212.005L21.5 69zm122 0a4.5 4.5 0 010 9 4.5 4.5 0 010-9zm-17 0a4.5 4.5 0 014.5 4.5 4.5 4.5 0 11-4.711-4.496L126.5 69zm-87 0a4.5 4.5 0 014.5 4.5 4.5 4.5 0 11-4.711-4.496L39.5 69zm17 0a4.5 4.5 0 014.5 4.5 4.5 4.5 0 11-4.711-4.496L56.5 69zm-52 0a4.5 4.5 0 11-.212.005L4.5 69zm87 0a4.5 4.5 0 11-.212.005L91.5 69zm-18 0a4.5 4.5 0 11-.212.005L73.5 69zm122 0a4.5 4.5 0 014.5 4.5 4.5 4.5 0 11-4.711-4.496L195.5 69zm-17 0a4.5 4.5 0 11-.212.005L178.5 69zm-18 0a4.5 4.5 0 11-.212.005L160.5 69zM4.5 52a4.5 4.5 0 11-.212.005L4.5 52zm87 0a4.5 4.5 0 11-.212.005L91.5 52zm-18 0a4.5 4.5 0 11-.212.005L73.5 52zm122 0a4.5 4.5 0 014.5 4.5 4.5 4.5 0 11-4.711-4.496L195.5 52zm-52 0a4.5 4.5 0 010 9 4.5 4.5 0 010-9zm-17 0a4.5 4.5 0 014.5 4.5 4.5 4.5 0 11-4.711-4.496L126.5 52zm-87 0a4.5 4.5 0 014.5 4.5 4.5 4.5 0 11-4.711-4.496L39.5 52zm17 0a4.5 4.5 0 014.5 4.5 4.5 4.5 0 11-4.711-4.496L56.5 52zm52 0a4.5 4.5 0 11-.212.005L108.5 52zm-87 0a4.5 4.5 0 11-.212.005L21.5 52zm157 0a4.5 4.5 0 11-.212.005L178.5 52zm-18 0a4.5 4.5 0 11-.212.005L160.5 52zm-87-17a4.5 4.5 0 11-4.5 4.5 4.5 4.5 0 014.288-4.495L73.5 35zm-17 0a4.5 4.5 0 110 9 4.5 4.5 0 01-.212-8.995L56.5 35zm87 0a4.5 4.5 0 010 9 4.5 4.5 0 010-9zm-122 0a4.5 4.5 0 11-4.5 4.5 4.5 4.5 0 014.288-4.495L21.5 35zm18 0a4.5 4.5 0 110 9 4.5 4.5 0 01-.212-8.995L39.5 35zm121 0a4.5 4.5 0 11-4.5 4.5 4.5 4.5 0 014.288-4.495L160.5 35zm18 0a4.5 4.5 0 11-4.5 4.5 4.5 4.5 0 014.288-4.495L178.5 35zm17 0a4.5 4.5 0 110 9 4.5 4.5 0 01-.212-8.995L195.5 35zm-191 0A4.5 4.5 0 110 39.5a4.5 4.5 0 014.288-4.495L4.5 35zm122 0a4.5 4.5 0 110 9 4.5 4.5 0 01-.212-8.995L126.5 35zm-18 0a4.5 4.5 0 11-4.5 4.5 4.5 4.5 0 014.288-4.495L108.5 35zm-17 0a4.5 4.5 0 11-4.5 4.5 4.5 4.5 0 014.288-4.495L91.5 35zm69-18a4.5 4.5 0 11-4.5 4.5 4.5 4.5 0 014.288-4.495L160.5 17zm18 0a4.5 4.5 0 11-4.5 4.5 4.5 4.5 0 014.288-4.495L178.5 17zm-105 0a4.5 4.5 0 11-4.5 4.5 4.5 4.5 0 014.288-4.495L73.5 17zm18 0a4.5 4.5 0 11-4.5 4.5 4.5 4.5 0 014.288-4.495L91.5 17zm-35 0a4.5 4.5 0 110 9 4.5 4.5 0 01-.212-8.995L56.5 17zm52 0a4.5 4.5 0 11-4.5 4.5 4.5 4.5 0 014.288-4.495L108.5 17zm-69 0a4.5 4.5 0 110 9 4.5 4.5 0 01-.212-8.995L39.5 17zm87 0a4.5 4.5 0 110 9 4.5 4.5 0 01-.212-8.995L126.5 17zm-105 0a4.5 4.5 0 11-4.5 4.5 4.5 4.5 0 014.288-4.495L21.5 17zm122 0a4.5 4.5 0 010 9 4.5 4.5 0 010-9zM39.5 0a4.5 4.5 0 110 9 4.5 4.5 0 01-.212-8.995L39.5 0zm17 0a4.5 4.5 0 110 9 4.5 4.5 0 01-.212-8.995L56.5 0zm17 0A4.5 4.5 0 1169 4.5 4.5 4.5 0 0173.288.005L73.5 0zm18 0A4.5 4.5 0 1187 4.5 4.5 4.5 0 0191.288.005L91.5 0zm17 0a4.5 4.5 0 11-4.5 4.5 4.5 4.5 0 014.288-4.495L108.5 0zm18 0a4.5 4.5 0 110 9 4.5 4.5 0 01-.212-8.995L126.5 0zm17 0a4.5 4.5 0 010 9 4.5 4.5 0 010-9zm17 0a4.5 4.5 0 11-4.5 4.5 4.5 4.5 0 014.288-4.495L160.5 0z" fill="#FF8246" fill-rule="evenodd"/></svg>