<svg width="620" height="575" fill="none" xmlns="http://www.w3.org/2000/svg"><path d="M620 135v440H180a440 440 0 01440-440z" fill="#F8F7FC"/><path d="M14.5 358a1.5 1.5 0 100-3 1.5 1.5 0 000 3zm0 26a1.5 1.5 0 100-3 1.5 1.5 0 000 3zm0 26a1.5 1.5 0 100-3 1.5 1.5 0 000 3zm0 26a1.5 1.5 0 100-3 1.5 1.5 0 000 3zm0 26a1.5 1.5 0 100-3 1.5 1.5 0 000 3zm0 26a1.5 1.5 0 100-3 1.5 1.5 0 000 3zm34-130a1.5 1.5 0 100-3 1.5 1.5 0 000 3zm0 26a1.5 1.5 0 100-3 1.5 1.5 0 000 3zm0 26a1.5 1.5 0 100-3 1.5 1.5 0 000 3zm0 26a1.5 1.5 0 100-3 1.5 1.5 0 000 3zm0 26a1.5 1.5 0 100-3 1.5 1.5 0 000 3zm0 26a1.5 1.5 0 100-3 1.5 1.5 0 000 3zm34-130a1.5 1.5 0 100-3 1.5 1.5 0 000 3zm0 26a1.5 1.5 0 100-3 1.5 1.5 0 000 3zm0 26a1.5 1.5 0 100-3 1.5 1.5 0 000 3zm0 26a1.5 1.5 0 100-3 1.5 1.5 0 000 3zm0 26a1.5 1.5 0 100-3 1.5 1.5 0 000 3zm0 26a1.5 1.5 0 100-3 1.5 1.5 0 000 3zm34-130a1.5 1.5 0 10-.001-3.001A1.5 1.5 0 00116.5 358zm0 26a1.5 1.5 0 10-.001-3.001A1.5 1.5 0 00116.5 384zm0 26a1.5 1.5 0 10-.001-3.001A1.5 1.5 0 00116.5 410zm0 26a1.5 1.5 0 10-.001-3.001A1.5 1.5 0 00116.5 436zm0 26a1.5 1.5 0 10-.001-3.001A1.5 1.5 0 00116.5 462zm0 26a1.5 1.5 0 10-.001-3.001A1.5 1.5 0 00116.5 488zm34-130a1.5 1.5 0 10-.001-3.001A1.5 1.5 0 00150.5 358zm0 26a1.5 1.5 0 10-.001-3.001A1.5 1.5 0 00150.5 384zm0 26a1.5 1.5 0 10-.001-3.001A1.5 1.5 0 00150.5 410zm0 26a1.5 1.5 0 10-.001-3.001A1.5 1.5 0 00150.5 436zm0 26a1.5 1.5 0 10-.001-3.001A1.5 1.5 0 00150.5 462zm0 26a1.5 1.5 0 10-.001-3.001A1.5 1.5 0 00150.5 488zm34-130a1.5 1.5 0 10-.001-3.001A1.5 1.5 0 00184.5 358zm0 26a1.5 1.5 0 10-.001-3.001A1.5 1.5 0 00184.5 384zm0 26a1.5 1.5 0 10-.001-3.001A1.5 1.5 0 00184.5 410zm0 26a1.5 1.5 0 10-.001-3.001A1.5 1.5 0 00184.5 436zm0 26a1.5 1.5 0 10-.001-3.001A1.5 1.5 0 00184.5 462zm0 26a1.5 1.5 0 10-.001-3.001A1.5 1.5 0 00184.5 488zm34-130a1.5 1.5 0 10-.001-3.001A1.5 1.5 0 00218.5 358zm0 26a1.5 1.5 0 10-.001-3.001A1.5 1.5 0 00218.5 384zm0 26a1.5 1.5 0 10-.001-3.001A1.5 1.5 0 00218.5 410zm0 26a1.5 1.5 0 10-.001-3.001A1.5 1.5 0 00218.5 436zm0 26a1.5 1.5 0 10-.001-3.001A1.5 1.5 0 00218.5 462zm0 26a1.5 1.5 0 10-.001-3.001A1.5 1.5 0 00218.5 488zm34-130a1.5 1.5 0 10-.001-3.001A1.5 1.5 0 00252.5 358zm0 26a1.5 1.5 0 10-.001-3.001A1.5 1.5 0 00252.5 384zm0 26a1.5 1.5 0 10-.001-3.001A1.5 1.5 0 00252.5 410zm0 26a1.5 1.5 0 10-.001-3.001A1.5 1.5 0 00252.5 436zm0 52a1.5 1.5 0 10-.001-3.001A1.5 1.5 0 00252.5 488zm0-26a1.5 1.5 0 10-.001-3.001A1.5 1.5 0 00252.5 462z" fill="#5138EE"/><path d="M38.85 41.073c4.197-4.807 10.1-7.828 16.412-8.4a23.823 23.823 0 019.245.972c2.832.884 4.248 1.325 4.485 1.385 3.995.997 5.222.654 8.085-2.262.17-.174.591-.656 1.433-1.62l3.814-4.367c.115-.132.173-.198.389-.495 2.398-3.298 1.302-9.343-2.107-11.62-.308-.205.5.237.177.06-8.083-4.425-17.449-6.388-26.938-5.529-12.623 1.143-24.43 7.186-32.824 16.799-8.395 9.613-12.688 22.01-11.937 34.462.565 9.36 3.947 18.177 9.608 25.374.226.288-.34-.431-.087-.163 2.801 2.975 9.039 3.132 11.99.302.267-.255.324-.321.44-.453l3.813-4.367c.842-.965 1.263-1.446 1.411-1.638 2.499-3.225 2.66-4.47 1.056-8.206-.095-.222-.752-1.533-2.066-4.156a22.797 22.797 0 01-2.367-8.847c-.376-6.227 1.77-12.425 5.968-17.231z" fill="#F8F7FC"/></svg>