<svg width="620" height="575" fill="none" xmlns="http://www.w3.org/2000/svg"><path d="M0 135v440h440A440 440 0 000 135z" fill="#F8F7FC"/><path d="M605.5 358a1.5 1.5 0 11.001-3.001A1.5 1.5 0 01605.5 358zm0 26a1.5 1.5 0 11.001-3.001A1.5 1.5 0 01605.5 384zm0 26a1.5 1.5 0 11.001-3.001A1.5 1.5 0 01605.5 410zm0 26a1.5 1.5 0 11.001-3.001A1.5 1.5 0 01605.5 436zm0 26a1.5 1.5 0 11.001-3.001A1.5 1.5 0 01605.5 462zm0 26a1.5 1.5 0 11.001-3.001A1.5 1.5 0 01605.5 488zm-34-130a1.5 1.5 0 11.001-3.001A1.5 1.5 0 01571.5 358zm0 26a1.5 1.5 0 11.001-3.001A1.5 1.5 0 01571.5 384zm0 26a1.5 1.5 0 11.001-3.001A1.5 1.5 0 01571.5 410zm0 26a1.5 1.5 0 11.001-3.001A1.5 1.5 0 01571.5 436zm0 26a1.5 1.5 0 11.001-3.001A1.5 1.5 0 01571.5 462zm0 26a1.5 1.5 0 11.001-3.001A1.5 1.5 0 01571.5 488zm-34-130a1.5 1.5 0 11.001-3.001A1.5 1.5 0 01537.5 358zm0 26a1.5 1.5 0 11.001-3.001A1.5 1.5 0 01537.5 384zm0 26a1.5 1.5 0 11.001-3.001A1.5 1.5 0 01537.5 410zm0 26a1.5 1.5 0 11.001-3.001A1.5 1.5 0 01537.5 436zm0 26a1.5 1.5 0 11.001-3.001A1.5 1.5 0 01537.5 462zm0 26a1.5 1.5 0 11.001-3.001A1.5 1.5 0 01537.5 488zm-34-130a1.5 1.5 0 11.001-3.001A1.5 1.5 0 01503.5 358zm0 26a1.5 1.5 0 11.001-3.001A1.5 1.5 0 01503.5 384zm0 26a1.5 1.5 0 11.001-3.001A1.5 1.5 0 01503.5 410zm0 26a1.5 1.5 0 11.001-3.001A1.5 1.5 0 01503.5 436zm0 26a1.5 1.5 0 11.001-3.001A1.5 1.5 0 01503.5 462zm0 26a1.5 1.5 0 11.001-3.001A1.5 1.5 0 01503.5 488zm-34-130a1.5 1.5 0 11.001-3.001A1.5 1.5 0 01469.5 358zm0 26a1.5 1.5 0 11.001-3.001A1.5 1.5 0 01469.5 384zm0 26a1.5 1.5 0 11.001-3.001A1.5 1.5 0 01469.5 410zm0 26a1.5 1.5 0 11.001-3.001A1.5 1.5 0 01469.5 436zm0 26a1.5 1.5 0 11.001-3.001A1.5 1.5 0 01469.5 462zm0 26a1.5 1.5 0 11.001-3.001A1.5 1.5 0 01469.5 488zm-34-130a1.5 1.5 0 11.001-3.001A1.5 1.5 0 01435.5 358zm0 26a1.5 1.5 0 11.001-3.001A1.5 1.5 0 01435.5 384zm0 26a1.5 1.5 0 11.001-3.001A1.5 1.5 0 01435.5 410zm0 26a1.5 1.5 0 11.001-3.001A1.5 1.5 0 01435.5 436zm0 26a1.5 1.5 0 11.001-3.001A1.5 1.5 0 01435.5 462zm0 26a1.5 1.5 0 11.001-3.001A1.5 1.5 0 01435.5 488zm-34-130a1.5 1.5 0 11.001-3.001A1.5 1.5 0 01401.5 358zm0 26a1.5 1.5 0 11.001-3.001A1.5 1.5 0 01401.5 384zm0 26a1.5 1.5 0 11.001-3.001A1.5 1.5 0 01401.5 410zm0 26a1.5 1.5 0 11.001-3.001A1.5 1.5 0 01401.5 436zm0 26a1.5 1.5 0 11.001-3.001A1.5 1.5 0 01401.5 462zm0 26a1.5 1.5 0 11.001-3.001A1.5 1.5 0 01401.5 488zm-34-130a1.5 1.5 0 11.001-3.001A1.5 1.5 0 01367.5 358zm0 26a1.5 1.5 0 11.001-3.001A1.5 1.5 0 01367.5 384zm0 26a1.5 1.5 0 11.001-3.001A1.5 1.5 0 01367.5 410zm0 26a1.5 1.5 0 11.001-3.001A1.5 1.5 0 01367.5 436zm0 52a1.5 1.5 0 11.001-3.001A1.5 1.5 0 01367.5 488zm0-26a1.5 1.5 0 11.001-3.001A1.5 1.5 0 01367.5 462z" fill="#5138EE"/><path d="M581.15 41.073c-4.197-4.807-10.101-7.828-16.412-8.4a23.822 23.822 0 00-9.245.972c-2.832.884-4.248 1.325-4.485 1.385-3.995.997-5.222.654-8.085-2.262-.171-.174-.591-.656-1.433-1.62l-3.814-4.367c-.115-.132-.173-.198-.389-.495-2.398-3.298-1.302-9.343 2.107-11.62.308-.205-.5.237-.177.06 8.083-4.425 17.449-6.388 26.938-5.529 12.623 1.143 24.43 7.186 32.824 16.799 8.395 9.613 12.688 22.01 11.937 34.462-.565 9.36-3.947 18.177-9.608 25.374-.226.288.339-.431.087-.163-2.801 2.975-9.039 3.132-11.99.302-.267-.255-.324-.321-.439-.453l-3.814-4.367c-.842-.965-1.263-1.446-1.411-1.638-2.499-3.225-2.659-4.47-1.056-8.206.095-.222.752-1.533 2.066-4.156a22.797 22.797 0 002.367-8.847c.376-6.227-1.771-12.425-5.968-17.231z" fill="#F8F7FC"/></svg>