<svg xmlns="http://www.w3.org/2000/svg" width="37" height="44" viewBox="0 0 37 44">
  <defs>
    <style>
      .cls-1 {
        fill-rule: evenodd;
      }
    </style>
  </defs>
  <path id="Add_location" data-name="Add location" class="cls-1" d="M459,1523h-4v-4a1.5,1.5,0,0,0-3,0v4h-4a1.5,1.5,0,0,0,0,3h4v4a1.5,1.5,0,0,0,3,0v-4h4A1.5,1.5,0,0,0,459,1523Zm-5.5-16c-9.855,0-18.5,8.41-18.5,18a19.524,19.524,0,0,0,2.437,8.34,2.329,2.329,0,0,0,.144.25c0.108,0.17,2.671,4.14,5.661,8.18,5.715,7.72,8.089,9.23,10.258,9.23s4.559-1.51,10.268-9.23c2.988-4.04,5.545-8.02,5.653-8.18a2.318,2.318,0,0,0,.142-0.25A19.524,19.524,0,0,0,472,1525C472,1515.41,463.355,1507,453.5,1507Zm13.4,24.97S456.586,1548,453.5,1548c-3.06,0-13.4-16.03-13.4-16.03A16.653,16.653,0,0,1,438,1525c0-8.01,7.225-15,15.5-15s15.5,6.99,15.5,15A16.653,16.653,0,0,1,466.9,1531.97Z" transform="translate(-435 -1507)"/>
</svg>
