<svg xmlns="http://www.w3.org/2000/svg" width="42" height="38.16" viewBox="0 0 42 38.16">
  <defs>
    <style>
      .cls-1 {
        fill-rule: evenodd;
      }
    </style>
  </defs>
  <path id="Apple" class="cls-1" d="M111,3382a11.89,11.89,0,0,0-7.574,2.59,6.72,6.72,0,0,1,2.195-4.15,1.534,1.534,0,0,0,0-2.15,1.492,1.492,0,0,0-2.121,0,9.551,9.551,0,0,0-3.087,6.48A11.865,11.865,0,0,0,93,3382c-6.841,0-12,7.68-12,17.48,0,9.64,5.491,16.51,12.5,16.51a25.286,25.286,0,0,0,6.035-1.31c0.842-.24,1.96-0.56,2.465-0.67,0.5,0.11,1.623.43,2.465,0.67a25.282,25.282,0,0,0,6.035,1.31c7.009,0,12.5-6.87,12.5-16.51C123,3389.68,117.841,3382,111,3382Zm-0.5,30.99c-1.915,0-7.356-1.99-8.5-1.99s-6.585,1.99-8.5,1.99c-5.247,0-9.5-5.69-9.5-13.51S87.753,3385,93,3385c5.5,0,7,4,9,4s2.5-4,9-4c5.247,0,9,6.66,9,14.48S115.747,3412.99,110.5,3412.99Zm-0.5-24.13a1.515,1.515,0,0,0,0,3.03c0.143,0,3.5.07,3.5,5.57a1.5,1.5,0,1,0,3,0C116.5,3390.66,112.248,3388.86,110,3388.86Z" transform="translate(-81 -3377.84)"/>
</svg>
