<svg xmlns="http://www.w3.org/2000/svg" width="27" height="36.82" viewBox="0 0 27 36.82">
  <defs>
    <style>
      .cls-1 {
        fill-rule: evenodd;
      }
    </style>
  </defs>
  <path id="Arrow" class="cls-1" d="M533.12,1609.96l3.9-4.09v23.6a1.491,1.491,0,1,0,2.981,0v-26.46l1.494-1.24,1.508,1.24v26.46a1.512,1.512,0,1,0,3.023,0v-23.6l3.4,3.77a1.483,1.483,0,0,0,2.121.02,1.522,1.522,0,0,0,.019-2.14l-6.5-6.68a1.523,1.523,0,0,0-.61-0.37l-1.9-1.91a1.476,1.476,0,0,0-2.122,0l-1.9,1.91a1.523,1.523,0,0,0-.61.37l-6.5,6.68a1.522,1.522,0,0,0,.019,2.14C532.041,1610.25,532.545,1610.57,533.12,1609.96Zm20.38,21.96h-24a1.515,1.515,0,0,0,0,3.03h24A1.515,1.515,0,0,0,553.5,1631.92Z" transform="translate(-528 -1598.12)"/>
</svg>
