<svg xmlns="http://www.w3.org/2000/svg" width="27" height="37.03" viewBox="0 0 27 37.03">
  <defs>
    <style>
      .cls-1 {
        fill-rule: evenodd;
      }
    </style>
  </defs>
  <path id="Arrow" class="cls-1" d="M637.88,1623.1l-3.9,4.12V1603.5a1.491,1.491,0,1,0-2.981,0v26.59l-1.494,1.25-1.508-1.25V1603.5a1.512,1.512,0,1,0-3.024,0v23.72l-3.4-3.8a1.483,1.483,0,0,0-2.121-.02,1.535,1.535,0,0,0-.019,2.15l6.5,6.72a1.419,1.419,0,0,0,.61.37l1.9,1.93a1.493,1.493,0,0,0,2.122,0l1.9-1.93a1.419,1.419,0,0,0,.61-0.37l6.5-6.72a1.535,1.535,0,0,0-.019-2.15C638.959,1622.81,638.455,1622.49,637.88,1623.1Zm-20.38-22.07h24a1.52,1.52,0,0,0,0-3.04h-24A1.52,1.52,0,0,0,617.5,1601.03Z" transform="translate(-616 -1598)"/>
</svg>
