<svg xmlns="http://www.w3.org/2000/svg" width="32.906" height="29" viewBox="0 0 32.906 29">
  <defs>
    <style>
      .cls-1 {
        fill-rule: evenodd;
      }
    </style>
  </defs>
  <path id="Arrows" class="cls-1" d="M292.862,1623.32a1.457,1.457,0,0,0-.381-1.32l-6.319-5.47a1.54,1.54,0,0,0-2.145-.04,1.477,1.477,0,0,0-.042,2.11l3.792,3.41H265.476a1.5,1.5,0,0,0-1.487,1.52c0,0.84,1.19,1.47,2.011,1.47h22l-4.213,3.4a1.478,1.478,0,0,0-.086,2.11,1.52,1.52,0,0,0,1.115.48,1.545,1.545,0,0,0,1.029-.39l6.572-5.97A1.462,1.462,0,0,0,292.862,1623.32Zm-32.817-13.61a1.479,1.479,0,0,0,.381,1.33l6.34,5.49a1.53,1.53,0,0,0,2.152.04,1.485,1.485,0,0,0,.042-2.12l-3.805-3.43h22.364a1.525,1.525,0,0,0,0-3.05H264.928l4.221-3.36a1.486,1.486,0,0,0,.086-2.12,1.538,1.538,0,0,0-2.151-.08l-6.593,5.99A1.461,1.461,0,0,0,260.045,1609.71Z" transform="translate(-260 -1602)"/>
</svg>
