<svg xmlns="http://www.w3.org/2000/svg" width="28.031" height="27" viewBox="0 0 28.031 27">
  <defs>
    <style>
      .cls-1 {
        fill-rule: evenodd;
      }
    </style>
  </defs>
  <path id="Arrow_right" data-name="Arrow right" class="cls-1" d="M645.562,1960.61l-4.24-4.19a1.528,1.528,0,0,0-2.12,0,1.474,1.474,0,0,0,0,2.1L641,1960H625c-4.134,0-6.987,3.61-6.987,7.69v13.81a1.493,1.493,0,1,0,2.985,0l0.014-13.81c0-2.45,1.508-4.69,3.988-4.69h16l-1.8,1.8a1.462,1.462,0,0,0,0,2.09,1.5,1.5,0,0,0,2.12,0l4.24-4.18A1.474,1.474,0,0,0,645.562,1960.61Z" transform="translate(-618 -1956)"/>
</svg>
