<svg xmlns="http://www.w3.org/2000/svg" width="32.031" height="37.31" viewBox="0 0 32.031 37.31">
  <defs>
    <style>
      .cls-1 {
        fill-rule: evenodd;
      }
    </style>
  </defs>
  <path id="Arrow" class="cls-1" d="M438,1957h27l-1.8,1.8a1.462,1.462,0,0,0,0,2.09,1.5,1.5,0,0,0,2.12,0l4.24-4.18a1.474,1.474,0,0,0,0-2.1l-4.24-4.19a1.528,1.528,0,0,0-2.12,0,1.474,1.474,0,0,0,0,2.1L465,1954H438m8,3,0-3-8,16h27l-1.8,1.8a1.462,1.462,0,0,0,0,2.09,1.5,1.5,0,0,0,2.12,0l4.24-4.18a1.474,1.474,0,0,0,0-2.1l-4.24-4.19a1.528,1.528,0,0,0-2.12,0,1.474,1.474,0,0,0,0,2.1L465,1967H438m8,3,0-3-8,16h27l-1.8,1.8a1.462,1.462,0,0,0,0,2.09,1.5,1.5,0,0,0,2.12,0l4.24-4.18a1.474,1.474,0,0,0,0-2.1l-4.24-4.19a1.528,1.528,0,0,0-2.12,0,1.474,1.474,0,0,0,0,2.1L465,1980H438m8,3,0-3-8-10h27m0-3H438m0,3h27m0-3H438" transform="translate(-438 -1950)"/>
</svg>
