<svg xmlns="http://www.w3.org/2000/svg" width="34" height="37.31" viewBox="0 0 34 37.31">
  <defs>
    <style>
      .cls-1 {
        fill-rule: evenodd;
      }
    </style>
  </defs>
  <path id="Arrows" class="cls-1" d="M538,1957h16l-1.8,1.8a1.462,1.462,0,0,0,0,2.09,1.5,1.5,0,0,0,2.12,0l4.24-4.18a1.474,1.474,0,0,0,0-2.1l-4.24-4.19a1.528,1.528,0,0,0-2.12,0,1.474,1.474,0,0,0,0,2.1L554,1954H538m8,3H530l1.819,1.56a1.393,1.393,0,0,1,0,2.03,1.544,1.544,0,0,1-2.117,0l-4.234-4.07a1.405,1.405,0,0,1,0-2.04l4.234-4.07a1.544,1.544,0,0,1,2.117,0,1.405,1.405,0,0,1,0,2.04L530,1954h16m-8,16h16l-1.8,1.8a1.462,1.462,0,0,0,0,2.09,1.5,1.5,0,0,0,2.12,0l4.24-4.18a1.474,1.474,0,0,0,0-2.1l-4.24-4.19a1.528,1.528,0,0,0-2.12,0,1.474,1.474,0,0,0,0,2.1L554,1967H538m8,3H530l1.819,1.56a1.393,1.393,0,0,1,0,2.03,1.544,1.544,0,0,1-2.117,0l-4.234-4.07a1.405,1.405,0,0,1,0-2.04l4.234-4.07a1.544,1.544,0,0,1,2.117,0,1.405,1.405,0,0,1,0,2.04L530,1967h16m-8,16h16l-1.8,1.8a1.462,1.462,0,0,0,0,2.09,1.5,1.5,0,0,0,2.12,0l4.24-4.18a1.474,1.474,0,0,0,0-2.1l-4.24-4.19a1.528,1.528,0,0,0-2.12,0,1.474,1.474,0,0,0,0,2.1L554,1980H538m8,3H530l1.819,1.56a1.393,1.393,0,0,1,0,2.03,1.544,1.544,0,0,1-2.117,0l-4.234-4.07a1.405,1.405,0,0,1,0-2.04l4.234-4.07a1.544,1.544,0,0,1,2.117,0,1.405,1.405,0,0,1,0,2.04L530,1980h16" transform="translate(-525.031 -1950)"/>
</svg>
