<svg xmlns="http://www.w3.org/2000/svg" width="38" height="44" viewBox="0 0 38 44">
  <defs>
    <style>
      .cls-1 {
        fill-rule: evenodd;
      }
    </style>
  </defs>
  <path id="Authorization_success" data-name="Authorization success" class="cls-1" d="M382.91,1425.27c-0.585-2.34-3.821-6.27-18.91-6.27-7.105,0-12.267.78-15.342,2.32-3.394,1.69-3.658,4.01-3.658,4.68v13.3a23.033,23.033,0,0,0,11.724,20.05l5.805,3.26a2.969,2.969,0,0,0,2.942,0l5.805-3.26A23.033,23.033,0,0,0,383,1439.3V1426A2.979,2.979,0,0,0,382.91,1425.27ZM380,1439.3a19.989,19.989,0,0,1-10.195,17.43L364,1460l-5.805-3.27A19.989,19.989,0,0,1,348,1439.3V1426s0-4,16-4c15,0,16,4,16,4v13.3Zm-7.061-6.36L363,1442.88l-5.939-5.94a1.5,1.5,0,1,0-2.122,2.12l7,7a1.5,1.5,0,0,0,2.121,0l11-11A1.5,1.5,0,0,0,372.939,1432.94Z" transform="translate(-345 -1419)"/>
</svg>
