<svg xmlns="http://www.w3.org/2000/svg" width="30.343" height="42" viewBox="0 0 30.343 42">
  <defs>
    <style>
      .cls-1 {
        fill-rule: evenodd;
      }
    </style>
  </defs>
  <path id="Ax" class="cls-1" d="M735.1,3467.45a3.015,3.015,0,0,0-2.966-2.45H718.056a1.989,1.989,0,0,0-.891.22,2.985,2.985,0,0,0-1.12-.22H708a3.007,3.007,0,0,0-3.017,3v6a2.992,2.992,0,0,0,2.03,2.82c0,0.06-.018.12-0.018,0.18v27a3.007,3.007,0,0,0,3.017,3h4.023a2.964,2.964,0,0,0,2.967-3v-26l8.256,6.49a2.974,2.974,0,0,0,1.852.57,3.026,3.026,0,0,0,2.005-.79,21.316,21.316,0,0,0,4.782-7.05A17.867,17.867,0,0,0,735.1,3467.45Zm-7.1.55a19.507,19.507,0,0,1-1.236,6.33A17.838,17.838,0,0,1,723,3479l-4-3c0.021-2.1,0-8,0-8h9Zm-20,0h8.047v6H708v-6Zm6,36h-3.99v-27H714v27Zm17.131-28a40.535,40.535,0,0,1-3.131,6l-2-1a21.28,21.28,0,0,0,3.464-5.33c1.132-2.25,1.536-7.12,1.536-7.67h2A23.86,23.86,0,0,1,731.131,3476Z" transform="translate(-704.969 -3465)"/>
</svg>
