<svg xmlns="http://www.w3.org/2000/svg" width="38" height="44" viewBox="0 0 38 44">
  <defs>
    <style>
      .cls-1 {
        fill-rule: evenodd;
      }
    </style>
  </defs>
  <path id="Bag_of_money" data-name="Bag of money" class="cls-1" d="M278,2416.81a1.755,1.755,0,0,1-1.247-3,1.8,1.8,0,0,1,2.494,0,1.736,1.736,0,0,1,.516,1.24,1.5,1.5,0,0,0,3,0,4.718,4.718,0,0,0-3.716-4.63l-0.05-.93a1.5,1.5,0,0,0-3,0l0,1.26a4.688,4.688,0,0,0-1.366.93,4.76,4.76,0,0,0,3.371,8.13,2.125,2.125,0,0,1,1.5,3.63,2.178,2.178,0,0,1-1.01.55c-0.315,0-.631.01-0.947,0.01a2.094,2.094,0,0,1-1.662-2.28,1.5,1.5,0,0,0-1.345-1.64,1.482,1.482,0,0,0-1.644,1.34,5.087,5.087,0,0,0,3.117,5.23,1.494,1.494,0,0,0,2.907.32A5.121,5.121,0,0,0,278,2416.81Zm19,9.19c-0.4-4.49-2.522-18.47-11.206-23.89,0.008-.02.019-0.04,0.026-0.06l3-8a3,3,0,0,0-2.812-4.05H269.99a3,3,0,0,0-2.813,4.05l3,8c0.007,0.02.018,0.04,0.026,0.06-8.686,5.42-10.809,19.4-11.207,23.89a8.825,8.825,0,0,0,2,6,6.745,6.745,0,0,0,5.16,2h23.679a6.748,6.748,0,0,0,5.161-2A8.825,8.825,0,0,0,297,2426Zm-27.01-33h16.022l-3,8H272.994Zm19.849,38H266.16c-2.33,0-4.366-1.68-4.16-4,0.739-8.33,3.937-19.76,10.994-23h10.012c7.057,3.24,10.255,14.67,10.994,23C294.205,2429.32,292.169,2431,289.839,2431Z" transform="translate(-259 -2390)"/>
</svg>
