<svg xmlns="http://www.w3.org/2000/svg" width="44" height="38.97" viewBox="0 0 44 38.97">
  <defs>
    <style>
      .cls-1 {
        fill-rule: evenodd;
      }
    </style>
  </defs>
  <path id="Basket" class="cls-1" d="M625.5,2338.77a1.5,1.5,0,0,0,1.5-1.51v-7.08a1.5,1.5,0,1,0-3,0v7.08A1.5,1.5,0,0,0,625.5,2338.77Zm5,0a1.5,1.5,0,0,0,1.5-1.51v-7.08a1.5,1.5,0,1,0-3,0v7.08A1.5,1.5,0,0,0,630.5,2338.77Zm5,0a1.5,1.5,0,0,0,1.5-1.51v-7.08a1.5,1.5,0,1,0-3,0v7.08A1.5,1.5,0,0,0,635.5,2338.77Zm-15,0a1.5,1.5,0,0,0,1.5-1.51v-7.08a1.5,1.5,0,1,0-3,0v7.08A1.5,1.5,0,0,0,620.5,2338.77Zm26.5-23.73h-1.9a0.363,0.363,0,0,1-.041-0.06l-9.907-9.53a1.492,1.492,0,0,0-2.121,0,1.534,1.534,0,0,0,0,2.15l7.847,7.44H615.121l7.847-7.44a1.534,1.534,0,0,0,0-2.15,1.492,1.492,0,0,0-2.121,0l-9.907,9.53a0.363,0.363,0,0,1-.041.06H609a3.064,3.064,0,0,0-3,3.17v3.83a3.011,3.011,0,0,0,3,3.03h0.01c0.744,3.96,2.989,16.48,2.989,16.48a3.009,3.009,0,0,0,2.958,2.45h26.086a3.009,3.009,0,0,0,2.958-2.45s2.244-11.66,2.989-16.48H647a3.011,3.011,0,0,0,3-3.03v-3.83A3.064,3.064,0,0,0,647,2315.04ZM641.043,2341H614.957L612,2325h32ZM647,2322.04H609V2318h38v4.04Z" transform="translate(-606 -2305.03)"/>
</svg>
