<svg xmlns="http://www.w3.org/2000/svg" width="45" height="30" viewBox="0 0 45 30">
  <defs>
    <style>
      .cls-1 {
        fill-rule: evenodd;
      }
    </style>
  </defs>
  <path id="Bicycle" class="cls-1" d="M907,3128a9.376,9.376,0,0,0-1.3.1l-0.216-.87a1.469,1.469,0,0,0-.024-0.59l-1-4a1.4,1.4,0,0,0-.254-0.52l-0.746-2.98A1.5,1.5,0,0,0,902,3118h-6a1.5,1.5,0,0,0,0,3h4.829l0.152,0.61A22.364,22.364,0,0,0,888,3127.85v-4.35a1.5,1.5,0,0,0-1.5-1.5H881a1.5,1.5,0,0,0,0,3h4v3.46a10,10,0,1,0,6.8,11.54H894a1.5,1.5,0,0,0,1.295-.74c0.015-.03.837-1.43,1.894-3.18A10,10,0,1,0,907,3128Zm-19.872,5.25a6.922,6.922,0,0,1,1.792,3.75h-4.4A33.709,33.709,0,0,1,887.128,3133.25ZM882,3145a7,7,0,1,1,2.643-13.48,34.368,34.368,0,0,0-4.01,6.36A1.5,1.5,0,0,0,882,3140h6.706A7,7,0,0,1,882,3145Zm11.143-8h-1.194a9.959,9.959,0,0,0-2.829-6.01c3.033-3.12,7.241-6.03,12.6-6.44l0.363,1.46a9.4,9.4,0,0,0-4.329,3.53C896.185,3131.89,894.053,3135.46,893.143,3137ZM907,3145a7,7,0,0,1-3.444-13.09l1.989,7.95A1.505,1.505,0,0,0,907,3141a1.523,1.523,0,0,0,.365-0.04,1.506,1.506,0,0,0,1.091-1.82l-2.027-8.11A5.422,5.422,0,0,1,907,3131,7,7,0,0,1,907,3145Z" transform="translate(-872 -3118)"/>
</svg>
