<svg xmlns="http://www.w3.org/2000/svg" width="24.156" height="39" viewBox="0 0 24.156 39">
  <defs>
    <style>
      .cls-1 {
        fill-rule: evenodd;
      }
    </style>
  </defs>
  <path id="Bluetooth" class="cls-1" d="M463.565,1712.43l-7.306-7.39,7.312-7.49a1.521,1.521,0,0,0,.027-2.09l-9.28-10.01a1.465,1.465,0,0,0-1.607-.36,0.787,0.787,0,0,0-.711.91v15l-9.652-9.48a1.472,1.472,0,0,0-2.1.02,1.5,1.5,0,0,0,.013,2.11l11.744,11.27v1.01l-11.492,10.53a1.5,1.5,0,0,0,0,2.11,1.463,1.463,0,0,0,2.1,0L452,1710v12c0,0.6.138,1.64,0.676,1.88a1.469,1.469,0,0,0,.579.12,1.441,1.441,0,0,0,1.007-.41l9.281-9.01a1.483,1.483,0,0,0,.458-1.07A1.5,1.5,0,0,0,463.565,1712.43ZM455,1691l5.582,5.49L455,1702v-11Zm0,28v-11l5.582,5.5Z" transform="translate(-439.844 -1685)"/>
</svg>
