<svg xmlns="http://www.w3.org/2000/svg" width="34" height="42" viewBox="0 0 34 42">
  <defs>
    <style>
      .cls-1 {
        fill-rule: evenodd;
      }
    </style>
  </defs>
  <path id="Bookmark" class="cls-1" d="M556,1160v36l-14-14-14,14v-36h28m0-3H528a3,3,0,0,0-3,3v36a3,3,0,0,0,1.852,2.77A2.884,2.884,0,0,0,528,1199a2.975,2.975,0,0,0,2.122-.88L542,1186l11.879,12.12A2.975,2.975,0,0,0,556,1199a2.884,2.884,0,0,0,1.147-.23A3,3,0,0,0,559,1196v-36a3,3,0,0,0-3-3h0Z" transform="translate(-525 -1157)"/>
</svg>
