<svg xmlns="http://www.w3.org/2000/svg" width="41" height="41.88" viewBox="0 0 41 41.88">
  <defs>
    <style>
      .cls-1 {
        fill-rule: evenodd;
      }
    </style>
  </defs>
  <path id="Bungalo" class="cls-1" d="M297.805,3503.73l-18.6-32.68,2.585-4.68a1.523,1.523,0,0,0-.579-2.06,1.493,1.493,0,0,0-2.033.59l-1.684,3.05-1.684-3.05a1.494,1.494,0,0,0-2.034-.59,1.525,1.525,0,0,0-.579,2.06l2.585,4.68-18.627,32.68a1.536,1.536,0,0,0,.018,1.51,1.507,1.507,0,0,0,1.294.75h38.022a1.507,1.507,0,0,0,1.294-.75A1.536,1.536,0,0,0,297.805,3503.73ZM274,3503v-7a3.445,3.445,0,0,1,3.25-3h0.526a3.419,3.419,0,0,1,3.224,3v7h-7Zm10,0v-7a6.4,6.4,0,0,0-6.224-6H277.25a6.42,6.42,0,0,0-6.25,6v7l-9.975-.05,16.473-28.8,16.441,28.8Z" transform="translate(-257 -3464.12)"/>
</svg>
