<svg xmlns="http://www.w3.org/2000/svg" width="45" height="45" viewBox="0 0 45 45">
  <defs>
    <style>
      .cls-1 {
        fill-rule: evenodd;
      }
    </style>
  </defs>
  <path id="Capitan" class="cls-1" d="M211.5,3749h-4.468a15.841,15.841,0,0,0-3.913-9.75l4-4.12a1.571,1.571,0,0,0,0-2.18,1.5,1.5,0,0,0-2.121-.04l-4.269,4.01c-2.438-1.98-4.727-3.56-8.727-3.92v-4.5a1.5,1.5,0,0,0-3,0v4.5a17.444,17.444,0,0,0-9.145,3.98l-3.969-4.09a1.419,1.419,0,0,0-2.059,0,1.5,1.5,0,0,0,.031,2.12l4.106,4.34A15.662,15.662,0,0,0,174,3749h-4.5a1.5,1.5,0,0,0,0,3H174a16.228,16.228,0,0,0,3.772,8.36l-4.332,4.2a1.441,1.441,0,0,0,1.06,2.47,1.516,1.516,0,0,0,1.06-.45l4.063-4.32a17.221,17.221,0,0,0,9.377,3.91v4.33a1.5,1.5,0,0,0,3,0v-4.4a14.808,14.808,0,0,0,8.965-3.76l3.906,3.78a1.656,1.656,0,0,0,1.123.44,1.581,1.581,0,0,0,1.092-.44,1.5,1.5,0,0,0,.016-2.12l-3.78-3.54a16.279,16.279,0,0,0,3.67-8.46H211.5A1.5,1.5,0,0,0,211.5,3749ZM192,3763h-2a12.412,12.412,0,0,1-9.079-3.73,13.513,13.513,0,0,1,.062-19.09A14.748,14.748,0,0,1,191,3736a12.685,12.685,0,0,1,9.122,4.18A13.975,13.975,0,0,1,204,3750C204,3756,199,3763,192,3763Zm-1.5-25a11.5,11.5,0,1,0,11.5,11.5A11.514,11.514,0,0,0,190.5,3738Zm1.5,7.38v-4.13a4.126,4.126,0,0,1,2.85,1.28Zm-3,1-3.85-3.85a10.788,10.788,0,0,1,3.85-1.47v5.32Zm-1.621,2.62h-5.315a6.484,6.484,0,0,1,1.465-3.85Zm-1,3-2.85,2.85a8.785,8.785,0,0,1-1.281-2.85h4.131Zm2.621,0.62v5.32a10.788,10.788,0,0,1-3.85-1.47Zm3,1,2.85,2.85a4.126,4.126,0,0,1-2.85,1.28v-4.13Zm2.621-1.62h4.131a8.785,8.785,0,0,1-1.281,2.85Zm-1-3,3.85-3.85a6.484,6.484,0,0,1,1.465,3.85h-5.315Z" transform="translate(-168 -3727)"/>
</svg>
