<svg xmlns="http://www.w3.org/2000/svg" width="45.875" height="39" viewBox="0 0 45.875 39">
  <defs>
    <style>
      .cls-1 {
        fill-rule: evenodd;
      }
    </style>
  </defs>
  <path id="Cart" class="cls-1" d="M535.6,2330h20.145a3.029,3.029,0,0,0,2.777-1.82l6.044-14a2.975,2.975,0,0,0-.255-2.83,3.034,3.034,0,0,0-2.523-1.35H528.549a3.006,3.006,0,0,0-1.628.5l-2.026-4.6a1.505,1.505,0,0,0-1.384-.9h-3.02a1.5,1.5,0,1,0,0,3h2.031l9.192,20.86a4.913,4.913,0,0,0-1.15,3.14,4.954,4.954,0,0,1,0,7,5.036,5.036,0,0,0,10.072,0,4.929,4.929,0,0,0-.427-2h10.926a4.929,4.929,0,0,0-.427,2,5.037,5.037,0,0,0,10.073,0,4.966,4.966,0,0,0-4.971-5,0.159,0.159,0,0,0-.065.01V2334h-19.9c-0.014-.01-0.032-0.01-0.046-0.02a1.3,1.3,0,0,1-.2.02A2,2,0,1,1,535.6,2330Zm26.188-17-6.043,14H534.592l-6.043-14h33.239Zm-24.174,26a2.015,2.015,0,1,1-2.014-2A2.01,2.01,0,0,1,537.614,2339Zm20.145,0a2.015,2.015,0,1,1-2.014-2A2.01,2.01,0,0,1,557.759,2339Z" transform="translate(-518.969 -2305)"/>
</svg>
