<svg xmlns="http://www.w3.org/2000/svg" width="40" height="42" viewBox="0 0 40 42">
  <defs>
    <style>
      .cls-1 {
        fill-rule: evenodd;
      }
    </style>
  </defs>
  <path id="Chart" class="cls-1" d="M294,2568.04H278v-2.54a1.5,1.5,0,0,0-3,0v2.54H260a3.017,3.017,0,0,0-3,3.03v22.07a3.009,3.009,0,0,0,3,3.02h8.231l-4.5,7.55a1.494,1.494,0,0,0,.478,2.06,1.448,1.448,0,0,0,.794.23,1.493,1.493,0,0,0,1.273-.71l5-8.33a1.491,1.491,0,0,0,.224-0.8H282.5a1.5,1.5,0,0,0,.223.8l5,8.33A1.5,1.5,0,0,0,289,2606a1.45,1.45,0,0,0,.794-0.23,1.493,1.493,0,0,0,.477-2.06l-4.5-7.55H294a3.009,3.009,0,0,0,3-3.02v-22.07A3.017,3.017,0,0,0,294,2568.04Zm0,25.1H260v-22.07h34v22.07Zm-25.636-5.43a1.463,1.463,0,0,0,.885.29,1.5,1.5,0,0,0,1.211-.61L274.4,2582l4.158,5.41a1.5,1.5,0,0,0,2.41-.04l5-7a1.5,1.5,0,1,0-2.442-1.74l-3.823,5.35-4.141-5.39a1.449,1.449,0,0,0-1.208-.59,1.51,1.51,0,0,0-1.192.61l-5.125,7A1.5,1.5,0,0,0,268.364,2587.71Z" transform="translate(-257 -2564)"/>
</svg>
