<svg xmlns="http://www.w3.org/2000/svg" width="39.813" height="39" viewBox="0 0 39.813 39">
  <defs>
    <style>
      .cls-1 {
        fill-rule: evenodd;
      }
    </style>
  </defs>
  <path id="Chart" class="cls-1" d="M788.128,2570a1.5,1.5,0,1,0-1.513-1.5A1.505,1.505,0,0,0,788.128,2570Zm0,6a1.5,1.5,0,1,0-1.513-1.5A1.505,1.505,0,0,0,788.128,2576Zm0,6a1.5,1.5,0,1,0-1.513-1.5A1.505,1.505,0,0,0,788.128,2582Zm0,6a1.5,1.5,0,1,0-1.513-1.5A1.505,1.505,0,0,0,788.128,2588Zm0,6a1.5,1.5,0,1,0-1.513-1.5A1.505,1.505,0,0,0,788.128,2594Zm0,6a1.5,1.5,0,1,0-1.513-1.5A1.505,1.505,0,0,0,788.128,2600Zm6.049,3a1.5,1.5,0,1,0,1.513,1.5A1.505,1.505,0,0,0,794.177,2603Zm6.05,0a1.5,1.5,0,1,0,1.513,1.5A1.505,1.505,0,0,0,800.227,2603Zm6.05,0a1.5,1.5,0,1,0,1.512,1.5A1.505,1.505,0,0,0,806.277,2603Zm6.05,0a1.5,1.5,0,1,0,1.512,1.5A1.505,1.505,0,0,0,812.327,2603Zm6.05,0a1.5,1.5,0,1,0,1.512,1.5A1.505,1.505,0,0,0,818.377,2603Zm6.049,0a1.5,1.5,0,1,0,1.513,1.5A1.505,1.505,0,0,0,824.426,2603Zm0.5-29.5a4.537,4.537,0,0,0-9.074,0,4.46,4.46,0,0,0,1.392,3.23l-3.241,6.34a3.745,3.745,0,0,0-.672-0.07,4.524,4.524,0,0,0-4.537,4.5c0,0.15.03,0.3,0.045,0.45l-7.293,2.53a4.528,4.528,0,0,0-7.877,3.02,4.467,4.467,0,0,0,.362,1.76l-7.5,7.7a1.49,1.49,0,0,0,.038,2.12,2.052,2.052,0,0,0,.244.16,1.512,1.512,0,0,0,2.823-.74,1.468,1.468,0,0,0-.049-0.36l6.507-6.68a4.51,4.51,0,0,0,6.65-3.96c0-.09-0.021-0.17-0.025-0.25l7.4-2.57a4.543,4.543,0,0,0,7.745-3.18,4.439,4.439,0,0,0-1.2-3.02l3.335-6.52c0.128,0.01.251,0.04,0.382,0.04A4.524,4.524,0,0,0,824.93,2573.5ZM798.211,2595a1.5,1.5,0,1,1,1.512-1.5A1.505,1.505,0,0,1,798.211,2595Zm15.124-6a1.5,1.5,0,1,1,1.513-1.5A1.505,1.505,0,0,1,813.335,2589Zm7.058-17a1.5,1.5,0,1,1-1.512,1.5A1.506,1.506,0,0,1,820.393,2572Z" transform="translate(-786.125 -2567)"/>
</svg>
