<svg xmlns="http://www.w3.org/2000/svg" width="40" height="42" viewBox="0 0 40 42">
  <defs>
    <style>
      .cls-1 {
        fill-rule: evenodd;
      }
    </style>
  </defs>
  <path id="Chart" class="cls-1" d="M382,2567.05H366v-2.52a1.5,1.5,0,1,0-3,0v2.52H348a3.028,3.028,0,0,0-3,3.05v23.18a2.778,2.778,0,0,0,3,2.72h8l-4.273,6.71a1.494,1.494,0,0,0,.478,2.06,1.448,1.448,0,0,0,.794.23,1.493,1.493,0,0,0,1.273-.71l5-7.23A3.982,3.982,0,0,0,360,2596h10a4,4,0,0,0,.727,1.06l5,7.23A1.5,1.5,0,0,0,377,2605a1.45,1.45,0,0,0,.794-0.23,1.493,1.493,0,0,0,.477-2.06L374,2596h8a2.778,2.778,0,0,0,3-2.72v-22.65C385,2568.94,383.657,2567.05,382,2567.05Zm0,2.95v11.82l-3.531-2.74a4.489,4.489,0,1,0-8.119-.34l-3.4,3.02a4.36,4.36,0,0,0-1.449-.26,4.467,4.467,0,0,0-2.289.65l-3.452-2.76A4.438,4.438,0,0,0,360,2578a4.5,4.5,0,0,0-9,0,4.381,4.381,0,0,0,.059.58L348,2580.87V2570h34Zm-9,7a1.5,1.5,0,1,1,1.5,1.5A1.5,1.5,0,0,1,373,2577Zm-7.5,7.5a1.5,1.5,0,1,1-1.5,1.5A1.5,1.5,0,0,1,365.5,2584.5Zm-10-5a1.5,1.5,0,1,1,1.5-1.5A1.5,1.5,0,0,1,355.5,2579.5ZM348,2593v-8.37l4.45-3.34a4.494,4.494,0,0,0,3.05,1.21,4.434,4.434,0,0,0,2.438-.73l3.353,2.68a4.5,4.5,0,1,0,8.035-.79l3.056-2.71a4.461,4.461,0,0,0,2.118.55,4.6,4.6,0,0,0,1.746-.35l5.754,4.47V2593H348Z" transform="translate(-345 -2563)"/>
</svg>
