<svg xmlns="http://www.w3.org/2000/svg" width="45" height="42" viewBox="0 0 45 42">
  <defs>
    <style>
      .cls-1 {
        fill-rule: evenodd;
      }
    </style>
  </defs>
  <path id="Chart" class="cls-1" d="M652,2666.94a4.5,4.5,0,1,0-8.892.97l-6.545,7.15a4.34,4.34,0,0,0-5.021.62l-5.653-3.72a4.505,4.505,0,1,0-8.668.36L610,2680.26v-24.95a1.5,1.5,0,1,0-3,0v38.94a1.51,1.51,0,0,0,1.5,1.52H647a1.5,1.5,0,0,0,1.277-.73,1.528,1.528,0,0,0,.723-1.29v-22.54A4.535,4.535,0,0,0,652,2666.94ZM646,2693H636v-9.65a4.54,4.54,0,0,0,2.662-5.99l6.389-6.61a4.6,4.6,0,0,0,.949.46V2693Zm-23-17.74a4.424,4.424,0,0,0,1.361-.79l5.727,3.73a4.527,4.527,0,0,0,2.912,5.15V2693H623v-17.74Zm11.5,2.3a1.52,1.52,0,1,1-1.5,1.52A1.51,1.51,0,0,1,634.5,2677.56Zm-13-8.09a1.515,1.515,0,1,1-1.5,1.52A1.51,1.51,0,0,1,621.5,2669.47ZM610,2684.75a0.724,0.724,0,0,0,.1-0.09l8.986-9.85a4.369,4.369,0,0,0,.918.45V2693H610v-8.25Zm37.5-16.29a1.52,1.52,0,1,1,1.5-1.52A1.51,1.51,0,0,1,647.5,2668.46Z" transform="translate(-607 -2653.78)"/>
</svg>
