<svg xmlns="http://www.w3.org/2000/svg" width="41" height="43" viewBox="0 0 41 43">
  <defs>
    <style>
      .cls-1 {
        fill-rule: evenodd;
      }
    </style>
  </defs>
  <path id="Chart" class="cls-1" d="M296,2674h-7c1.371-6.26,1-13.69,1-18.96,0-.87.008-1.67,0.009-2.53a1.6,1.6,0,0,0-1.667-1.52c-0.921,0-1.341,1.17-1.342,2.01s0,1.12,0,2c0,6.13.363,13.27-1,19h-7v-17c0-.82-0.339-2-1.286-2a2.082,2.082,0,0,0-1.714,2v17h-7c-1.365-5.73-1-12.87-1-19v-2c0-.84-0.414-2.01-1.336-2.01a1.6,1.6,0,0,0-1.671,1.53c0,0.85.007,1.7,0.007,2.52,0,4.23-.547,12.02,1,18.96h-7c-0.828,0-2,.72-2,1.55s1.172,1.45,2,1.45h8c1.849,6.11,5.246,9.5,9,10v5.48a1.626,1.626,0,0,0,1.714,1.52,1.275,1.275,0,0,0,1.276-1.52L279,2687c3.1-.67,6.875-3.29,9-10h8c0.828,0,2-.62,2-1.45S296.828,2674,296,2674Zm-25.789,3.05L276,2677v7C273.655,2683.41,271.437,2680.73,270.211,2677.05ZM279,2684v-7h6C283.806,2680.37,281.561,2683.15,279,2684Z" transform="translate(-257 -2651)"/>
</svg>
