<svg xmlns="http://www.w3.org/2000/svg" width="40" height="24" viewBox="0 0 40 24">
  <defs>
    <style>
      .cls-1 {
        fill-rule: evenodd;
      }
    </style>
  </defs>
  <path id="Clip" class="cls-1" d="M94.111,1704h16.356a1.5,1.5,0,1,0,0-3H94.452a1.55,1.55,0,0,0-.523.09c-0.49.18-4.928,1.58-4.928,4.97,0,2.9,3.221,4.58,5.045,4.94a2.75,2.75,0,0,0,.288.02h14.74c0.242,0.01,5.9.2,9.166-2.92a8.909,8.909,0,0,0,2.761-6.01c0-2.4-1.283-3.86-2.826-5.32-2.969-2.81-7.977-2.78-8.1-2.78H92.934c-4.3,0-11.934,2.91-11.934,11.08,0,4.1.711,7.12,3.1,9.43a13.568,13.568,0,0,0,8.9,3.47h20a1.49,1.49,0,1,0,0-2.98H93.061a10.5,10.5,0,0,1-6.867-2.63c-1.787-1.72-2.193-4.03-2.193-7.29,0-7.31,8.635-8.08,8.978-8.09l17.161-.01c0.033,0,3.945.04,5.963,1.95,0.941,0.9,1.9,1.6,1.9,3.17a6.016,6.016,0,0,1-1.832,3.86c-2.338,2.24-6.926,2.1-7.034,2.09H94c-0.641-.16-2-1.06-2-1.98C92,1705.11,93.179,1704.39,94.111,1704Z" transform="translate(-81 -1693.97)"/>
</svg>
