<svg height="496pt" viewBox="0 0 496 496" width="496pt" xmlns="http://www.w3.org/2000/svg" xmlns:xlink="http://www.w3.org/1999/xlink"><linearGradient id="a" gradientUnits="userSpaceOnUse" x1="248" x2="248" y1="496" y2="0"><stop offset="0" stop-color="#9f2fff"/><stop offset="1" stop-color="#0bb1d3"/></linearGradient><path d="m424 112c-4.382812 0-8.679688.542969-12.910156 1.320312-8.882813-19.90625-28.875-33.320312-51.089844-33.320312-6.398438 0-12.761719 1.113281-18.769531 3.238281-21.085938-50.125-70.375-83.238281-125.230469-83.238281-66.753906 0-122.785156 47.929688-133.894531 112.785156-3.328125-.472656-6.699219-.785156-10.105469-.785156-39.703125 0-72 32.296875-72 72 0 37 28.054688 67.535156 64 71.527344v152.472656c0 22.054688 17.945312 40 40 40h72v32h-32v16h208v-16h-32v-32h72c22.054688 0 40-17.945312 40-40v-152.472656c35.945312-3.992188 64-34.527344 64-71.527344 0-39.703125-32.296875-72-72-72zm-168 144-10.671875-8c-3.335937-2.503906-5.328125-6.496094-5.328125-10.664062 0-7.351563 5.984375-13.335938 13.335938-13.335938h8.777343c7.984375 0 15.167969 4.441406 18.734375 11.574219 6.304688 12.59375 18.96875 20.425781 33.039063 20.425781h24.511719c-10.589844 29.816406-35.460938 52.832031-66.398438 60.839844v-28.839844c0-12.511719-5.976562-24.488281-16-32zm-88.761719-83.703125 3.960938 5.304687c10.519531 14.023438 27.273437 22.398438 44.800781 22.398438 12.046875 0 23.976562-3.976562 33.59375-11.199219l10.238281-7.671875c4.398438-3.304687 9.863281-5.128906 15.375-5.128906 9.777344 0 18.5625 5.433594 22.929688 14.167969l.390625.785156c8.984375 17.949219 25.953125 29.894531 45.441406 32.488281.007812.191406.03125.375.03125.558594 0 5.464844-.566406 10.785156-1.449219 16h-28.664062c-7.984375 0-15.167969-4.441406-18.734375-11.574219-6.304688-12.59375-18.96875-20.425781-33.039063-20.425781h-8.777343c-16.175782 0-29.335938 13.160156-29.335938 29.335938 0 9.183593 4.382812 17.953124 11.734375 23.464843l10.664063 8c6.015624 4.511719 9.601562 11.6875 9.601562 19.199219v31.59375c-2.648438.222656-5.296875.40625-8 .40625s-5.351562-.183594-8-.40625v-20.226562c0-15.085938-10.214844-28.167969-24.839844-31.824219-5.609375-1.40625-10.046875-5.511719-11.871094-11l-6.042968-18.117188c-4.46875-13.410156-16.980469-22.425781-31.125-22.425781h-13.714844c1.328125-16.007812 6.59375-30.878906 14.832031-43.703125zm10.167969-13.128906c17.554688-19.105469 42.65625-31.167969 70.59375-31.167969 47.070312 0 86.257812 34.078125 94.375 78.839844-12.671875-2.832032-23.550781-11.0625-29.535156-23.046875l-.390625-.785157c-7.089844-14.183593-21.359375-23.007812-37.242188-23.007812-8.949219 0-17.824219 2.960938-24.976562 8.328125l-10.238281 7.671875c-6.863282 5.160156-15.390626 8-23.992188 8-12.519531 0-24.488281-5.984375-31.992188-15.992188zm46.59375 157.671875c-38.839844-10.046875-68.183594-43.769532-71.59375-84.839844h13.714844c7.246094 0 13.65625 4.617188 15.949218 11.496094l6.035157 18.121094c3.558593 10.6875 12.222656 18.710937 23.167969 21.453124 7.496093 1.867188 12.726562 8.570313 12.726562 16.296876zm24 19.160156c61.761719 0 112-50.238281 112-112 0-5.449219-.519531-10.761719-1.28125-16h33.28125c13.230469 0 24 10.769531 24 24v152h-336v-152c0-13.230469 10.769531-24 24-24h33.28125c-.761719 5.238281-1.28125 10.550781-1.28125 16 0 61.761719 50.238281 112 112 112zm56 144h-112v-32h112zm88-48h-288c-13.230469 0-24-10.769531-24-24v-8h336v8c0 13.230469-10.769531 24-24 24zm40-192.640625v-7.359375c0-22.054688-17.945312-40-40-40h-36.71875c-13.808594-46.199219-56.648438-80-107.28125-80s-93.472656 33.800781-107.28125 80h-36.71875c-22.054688 0-40 17.945312-40 40v7.359375c-27.089844-3.902344-48-27.207031-48-55.359375 0-30.871094 25.128906-56 56-56 13.65625 0 26.816406 4.96875 37.03125 14l10.59375-12c-6.519531-5.753906-13.96875-10.222656-21.960938-13.273438 9.304688-57.832031 59.007813-100.726562 118.335938-100.726562 50.960938 0 96.472656 32.398438 113.238281 80.609375l3.121094 8.964844 8.304687-4.589844c5.902344-3.257813 12.582032-4.984375 19.335938-4.984375 15.167969 0 28.886719 8.742188 35.617188 21.921875-14.050782 6.046875-26.105469 16.453125-33.976563 30.078125l13.839844 8.015625c10-17.28125 28.582031-28.015625 48.519531-28.015625 30.871094 0 56 25.128906 56 56 0 28.152344-20.910156 51.457031-48 55.359375zm0 0" fill="url(#a)"/></svg>