<svg xmlns="http://www.w3.org/2000/svg" width="44" height="33" viewBox="0 0 44 33">
  <defs>
    <style>
      .cls-1 {
        fill-rule: evenodd;
      }
    </style>
  </defs>
  <path id="Cloud_yes" data-name="Cloud yes" class="cls-1" d="M369.94,1787.94l-6.94,6.94-2.939-2.94a1.5,1.5,0,1,0-2.122,2.12l4,4a1.5,1.5,0,0,0,2.121,0l8-8A1.5,1.5,0,1,0,369.94,1787.94Zm8.613-.86c-1.236-5.21-5.038-12.08-13.553-12.08-6.54,0-9.751,2.94-11.294,5.41a11.331,11.331,0,0,0-1.328,3.07c-4.1,1.18-9.378,4.49-9.378,11.52,0,5.32,2.787,9.41,7.846,11.52A20.226,20.226,0,0,0,358,1808h14c5.188,0,15-2.3,15-11C387,1790.48,382.765,1787.66,378.553,1787.08ZM372,1805H358s-12,0-12-10c0-8,9-9,9-9s0-8,10-8,11,12,11,12a7.419,7.419,0,0,1,.832-0.04c2.048,0,7.168.64,7.168,7.04C384,1805,372,1805,372,1805Z" transform="translate(-343 -1775)"/>
</svg>
