<svg xmlns="http://www.w3.org/2000/svg" width="44" height="38.97" viewBox="0 0 44 38.97">
  <defs>
    <style>
      .cls-1 {
        fill-rule: evenodd;
      }
    </style>
  </defs>
  <path id="Cloud_upload" data-name="Cloud upload" class="cls-1" d="M467.553,1785.13c-1.236-5.27-5.038-12.23-13.553-12.23-6.54,0-9.751,2.98-11.294,5.48a11.53,11.53,0,0,0-1.328,3.11c-4.1,1.19-9.378,4.55-9.378,11.66a12.07,12.07,0,0,0,7.846,11.66,19.975,19.975,0,0,0,7.154,1.5h1v-3.04h-1s-12,0-12-10.12c0-8.1,9-9.11,9-9.11s0-8.1,10-8.1,11,12.15,11,12.15a7.419,7.419,0,0,1,.832-0.04c2.048,0,7.168.65,7.168,7.13,0,8.09-12,8.09-12,8.09h-2v3.04h2c5.188,0,15-2.33,15-11.13C476,1788.58,471.765,1785.72,467.553,1785.13Zm-8.4,7.79a1.5,1.5,0,0,0,2.12.08,1.525,1.525,0,0,0,.084-2.14l-6-6.59a1.485,1.485,0,0,0-1.469-.42,1.505,1.505,0,0,0-1.453.39l-6.5,6.71a1.535,1.535,0,0,0,.019,2.15,1.5,1.5,0,0,0,2.121-.02l3.93-4.06v21.34a1.5,1.5,0,1,0,3,0v-21.99Z" transform="translate(-432 -1772.91)"/>
</svg>
