<svg xmlns="http://www.w3.org/2000/svg" width="44" height="45" viewBox="0 0 44 45">
  <defs>
    <style>
      .cls-1 {
        fill-rule: evenodd;
      }
    </style>
  </defs>
  <path id="Cocktail" class="cls-1" d="M550.605,3139.53a1.5,1.5,0,0,0-1.771,1.2c-0.013.06-1.4,6.77-5.589,6.77a1.5,1.5,0,1,0,0,3c6.745,0,8.5-8.84,8.573-9.22A1.5,1.5,0,0,0,550.605,3139.53Zm15.359-15.38-3.5-13.14H547.291a1.368,1.368,0,0,0-1.236.38,1.478,1.478,0,0,0-.206,1.33l2.023,6.13a1.523,1.523,0,0,0,.589.77l3.235,2.18-1.9,2.95a14.519,14.519,0,0,0-6.945-1.75h-1.242a14.628,14.628,0,0,0-4.972.88c-2.827-7.31-3.232-7.72-3.45-7.93-1.956-1.94-4.733-.67-6.135.44l-5.058,4.5,2.031,2.23,4.991-4.44c0.391-.31,1.486-0.92,1.944-0.67,0.41,0.77,1.605,3.76,2.931,7.2a14.32,14.32,0,0,0-6.835,12.17v4.24A14.483,14.483,0,0,0,541.612,3156h1.242c8.024,0,15.147-5.56,15.147-13.61v-4.31a16.225,16.225,0,0,0-5.706-11.63l1.911-2.96,3.359,2.25a1.525,1.525,0,0,0,.854.26h6.069a1.526,1.526,0,0,0,1.192-.57A1.49,1.49,0,0,0,565.964,3124.15ZM555,3143c0,6.39-5.785,10-12.146,10h-1.242c-6.361,0-11.612-4.71-11.612-11v-4a14.042,14.042,0,0,1,.563-3.57,13.354,13.354,0,0,0,11.05,6.57h1.24a13.133,13.133,0,0,0,11.064-6.52c0.291,1,1.083,2.41,1.083,3.52v5Zm-2.673-12.09a2.664,2.664,0,0,0-.366.77,10.123,10.123,0,0,1-9.108,6.32h-1.24c-3.791,0-7.458-2.71-9.124-6.36a2.066,2.066,0,0,0-.348-0.61,11.951,11.951,0,0,1,2.851-2.9c0.621,1.63,1.232,3.23,1.77,4.67l2.849-1.05c-0.712-1.91-1.341-3.59-1.9-5.06a11.708,11.708,0,0,1,3.9-.69h1.242a11.549,11.549,0,0,1,5.31,1.29L545,3132.2a1.491,1.491,0,0,0,.465,2.07,1.543,1.543,0,0,0,2.1-.46l3.088-4.8A11.658,11.658,0,0,1,552.327,3130.91Zm5.039-8.93-5.381-3.62,8.457-5.35Zm-2.58-8.36-4.683,2.32-0.732-2.22Zm5.449,9.38,1.218-5.99,1.111,5.99h-2.329Z" transform="translate(-522 -3111)"/>
</svg>
