<svg xmlns="http://www.w3.org/2000/svg" width="36" height="41" viewBox="0 0 36 41">
  <defs>
    <style>
      .cls-1 {
        fill-rule: evenodd;
      }
    </style>
  </defs>
  <path id="Coin" class="cls-1" d="M472,2409a18,18,0,1,0-35.811,2.47A17.515,17.515,0,0,0,436,2414a18,18,0,0,0,36,0,17.515,17.515,0,0,0-.189-2.53A18.128,18.128,0,0,0,472,2409Zm-18-15a15,15,0,1,1-15,15A15,15,0,0,1,454,2394Zm0,35a14.955,14.955,0,0,1-13.047-7.64,17.911,17.911,0,0,0,26.094,0A14.955,14.955,0,0,1,454,2429Zm-2.407-21.22,1.407-1.5V2414a1.5,1.5,0,0,0,3,0v-11.5a1.5,1.5,0,0,0-2.593-1.03l-4,4.25A1.5,1.5,0,0,0,451.593,2407.78Z" transform="translate(-436 -2391)"/>
</svg>
