<svg xmlns="http://www.w3.org/2000/svg" width="44" height="33" viewBox="0 0 44 33">
  <defs>
    <style>
      .cls-1 {
        fill-rule: evenodd;
      }
    </style>
  </defs>
  <path id="Delete_folder" data-name="Delete folder" class="cls-1" d="M383,1879.68V1875a5,5,0,0,0-5-5H366.255l-1.727-2.62a5.738,5.738,0,0,0-4.66-2.38h-7.736a5.021,5.021,0,0,0-4.287,2.43l-2.133,3.55a5.027,5.027,0,0,0-.712,2.57V1892a5,5,0,0,0,5,5h25.283A9.489,9.489,0,1,0,383,1879.68ZM348,1892v-18.45a1.977,1.977,0,0,1,.285-1.02l2.132-3.56a2.006,2.006,0,0,1,1.715-.97h7.736a2.817,2.817,0,0,1,2.132,1l2,3.03a2.52,2.52,0,0,0,2,.97h12a2,2,0,0,1,2,2v4.03c-0.167-.01-0.331-0.03-0.5-0.03a9.484,9.484,0,0,0-7.731,15H350A2,2,0,0,1,348,1892Zm31.5,3a6.5,6.5,0,1,1,6.5-6.5A6.5,6.5,0,0,1,379.5,1895Zm3.061-9.56a1.493,1.493,0,0,0-2.122,0l-1.06,1.06-1.061-1.06a1.5,1.5,0,0,0-2.121,2.12l1.06,1.06-1.06,1.06a1.5,1.5,0,0,0,2.121,2.12l1.061-1.06,1.06,1.06a1.5,1.5,0,0,0,2.122-2.12l-1.061-1.06,1.061-1.06A1.5,1.5,0,0,0,382.561,1885.44Z" transform="translate(-345 -1865)"/>
</svg>
