<svg xmlns="http://www.w3.org/2000/svg" width="41" height="42" viewBox="0 0 41 42">
  <defs>
    <style>
      .cls-1 {
        fill-rule: evenodd;
      }
    </style>
  </defs>
  <path id="Diagram" class="cls-1" d="M734.121,2569.9c-3.523-3.52-8.438-3.9-10.389-3.9a9.7,9.7,0,0,0-1,.04,2.993,2.993,0,0,0-2.728,2.98v12a3,3,0,0,0,3,2.99h12a3,3,0,0,0,3-2.99C738,2580.27,737.891,2573.67,734.121,2569.9ZM723,2581.02v-12s0.272-.02.732-0.02c1.614,0,5.546.3,8.268,3.02,3,3,3,9,3,9H723Zm8,4.99H718v-12.99a3,3,0,0,0-3-3c-9.925,0-18,8.35-18,18.99,0,10.3,7.693,18.99,18,18.99a19.267,19.267,0,0,0,19-18.99A3,3,0,0,0,731,2586.01ZM715,2605c-8.667,0-15-7.33-15-15.99s6.333-15.99,15-15.99v15.99h16A16.218,16.218,0,0,1,715,2605Z" transform="translate(-697 -2566)"/>
</svg>
