<svg xmlns="http://www.w3.org/2000/svg" width="46.407" height="41" viewBox="0 0 46.407 41">
  <defs>
    <style>
      .cls-1 {
        fill-rule: evenodd;
      }
    </style>
  </defs>
  <path id="Diamond" class="cls-1" d="M125.8,3124.88l-9.075-9a3.052,3.052,0,0,0-2.139-.88H92.4a3.051,3.051,0,0,0-2.139.88l-9.076,9a2.98,2.98,0,0,0-.259,3.95l20.167,26a3.042,3.042,0,0,0,4.8,0l20.167-26A2.979,2.979,0,0,0,125.8,3124.88Zm-35.808-4.49,3.144,5.61h-8.8Zm18.826,5.61H98.166l5.324-6.6Zm0.85,3-6.174,19.9L97.316,3129h12.348Zm-15.513,0,6.184,19.93L84.874,3129h9.277Zm18.678,0h9.277l-15.462,19.93Zm1.018-3,3.143-5.61,5.659,5.61h-8.8Zm0.735-8,0.183,0.18-3.436,6.14-5.095-6.32h8.348Zm-13.836,0-5.1,6.32-3.437-6.14L92.4,3118h8.348Z" transform="translate(-80.281 -3115)"/>
</svg>
