<svg xmlns="http://www.w3.org/2000/svg" width="33" height="45" viewBox="0 0 33 45">
  <defs>
    <style>
      .cls-1 {
        fill-rule: evenodd;
      }
    </style>
  </defs>
  <path id="Dirrection" class="cls-1" d="M820,3481H807v-3.06s14.989,0.06,10,.06a2.976,2.976,0,0,0,2.127-.96l3-3.11a3.023,3.023,0,0,0-.011-4.25L819,3466.55a2.43,2.43,0,0,0-2-.55H807l-0.065-2.44a1.494,1.494,0,1,0-2.986,0L804,3466H793a2.762,2.762,0,0,0-2.989,2.76v6.1a3.036,3.036,0,0,0,3,3.07h11l0,3.07h-8c-0.8,0-1.448.83-2.009,1.41l-3.143,3.03a3.1,3.1,0,0,0,0,4.3l3,2.08A3.291,3.291,0,0,0,796,3493h8l-0.015,10.95h-4a1.53,1.53,0,0,0,0,3.06h11a1.53,1.53,0,0,0,0-3.06h-4L807,3493h13a3.27,3.27,0,0,0,2.992-3.33L823,3484A2.991,2.991,0,0,0,820,3481Zm-27-12h24l3,3-3,3H793v-6Zm27,21H796l-3.018-2.42L796,3484h24v6Z" transform="translate(-790 -3462)"/>
</svg>
