<svg xmlns="http://www.w3.org/2000/svg" width="43.781" height="41" viewBox="0 0 43.781 41">
  <defs>
    <style>
      .cls-1 {
        fill-rule: evenodd;
      }
    </style>
  </defs>
  <path id="Diving" class="cls-1" d="M186.759,3047h1.287c1.552,2,4.647,4.76,7.956,4.76a8.88,8.88,0,1,0-.139-17.76H178.945c-5.022,0-8.956,3.59-8.956,8.5,0,5.03,4.039,9.5,9,9.5C182.519,3052,185.285,3049,186.759,3047Zm-7.766,1.96a6.311,6.311,0,0,1-6.019-6.34,5.674,5.674,0,0,1,5.971-5.62h16.918a5.674,5.674,0,0,1,5.971,5.62c0,3.32-2.516,6.34-5.832,6.34-2.974,0-5.546-2.96-6.021-4.96h-5.154C184.352,3046,181.967,3048.96,178.993,3048.96ZM213,3028.98c-4.143-4.58-4.78-4.98-6.19-4.98a2.991,2.991,0,0,0-2.986,3v4a2.991,2.991,0,0,0,2.986,3v17c0,0.05,0,11-8.957,11-6.544,0-8.038-4.08-8.368-6h1.4a1.5,1.5,0,0,0,0-3h-5.971a1.5,1.5,0,0,0,0,3h1.561c0.422,3.55,3.147,9,11.376,9,11.942,0,11.952-13.81,11.942-14v-17h1a2.981,2.981,0,0,0,2.73-1.79A3.012,3.012,0,0,0,213,3028.98Zm-6.19,2.02v-4c0.364,0,3.98,4,3.98,4h-3.98Zm-10.947,16.5a1.5,1.5,0,0,0,0-3c-1.812,0-1.494-1.77-1.569-1.99a1.493,1.493,0,0,0-2.828.96C191.962,3044.97,192.657,3047.5,195.863,3047.5Zm-16.918-3c-1.811,0-1.494-1.77-1.568-1.99a1.494,1.494,0,0,0-2.829.96c0.5,1.5,1.191,4.03,4.4,4.03A1.5,1.5,0,0,0,178.945,3044.5Z" transform="translate(-170 -3024)"/>
</svg>
