<svg xmlns="http://www.w3.org/2000/svg" width="20.719" height="41" viewBox="0 0 20.719 41">
  <defs>
    <style>
      .cls-1 {
        fill-rule: evenodd;
      }
    </style>
  </defs>
  <path id="Dollar" class="cls-1" d="M109.041,2324.44a9.106,9.106,0,0,0-6.121-2.41v-11.94a6.635,6.635,0,0,1,3.5,1.75c1.05,1.04,1.05,1.8,1.05,3.66a1.515,1.515,0,0,0,3.029-.01c0-2.07,0-3.85-1.937-5.77a9.66,9.66,0,0,0-5.637-2.66v-1.56a1.515,1.515,0,0,0-3.03,0v1.61a7.737,7.737,0,0,0-4.745,2.01c-3.712,3.68-3.883,9.96-.366,13.44a9.245,9.245,0,0,0,5.111,2.28v13.35a7.01,7.01,0,0,1-2.969-1.75c-1.815-1.8-2.765-3.09-2.594-4.79a1.515,1.515,0,0,0-3.014-.3c-0.321,3.17,1.537,5.3,3.466,7.21a9.974,9.974,0,0,0,5.111,2.71v2.23a1.515,1.515,0,0,0,3.03,0v-2.08A9.961,9.961,0,0,0,109.041,2324.44Zm-12.12-4c-2.292-2.27-2.115-6.74.366-9.2a4.56,4.56,0,0,1,2.6-1.12v11.68A5.952,5.952,0,0,1,96.921,2320.44Zm9.978,16a7.035,7.035,0,0,1-3.979,1.96v-13.36a5.862,5.862,0,0,1,3.979,1.52A6.947,6.947,0,0,1,106.9,2336.44Z" transform="translate(-91.281 -2304)"/>
</svg>
