<svg xmlns="http://www.w3.org/2000/svg" width="44" height="44" viewBox="0 0 44 44">
  <defs>
    <style>
      .cls-1 {
        fill-rule: evenodd;
      }
    </style>
  </defs>
  <path id="Donut" class="cls-1" d="M279,3319a9,9,0,1,0-9-9A9.012,9.012,0,0,0,279,3319Zm0-15a6,6,0,1,1-6,6A6,6,0,0,1,279,3304Zm0-16a22,22,0,1,0,22,22A22.025,22.025,0,0,0,279,3288Zm0,3a19,19,0,0,1,19,19c0,0.57-.036,1.13-0.085,1.68-6.593,11.11-18.988,8.01-19.528,7.87a1.512,1.512,0,0,0-1.3.26,1.491,1.491,0,0,0-.586,1.19c0,0.15-.07,1.5-2.5,1.5-0.763,0-1.126-.56-1.689-2.6-0.342-1.23-.695-2.51-1.959-2.85a2.476,2.476,0,0,0-2.412.89,0.428,0.428,0,0,1-.159.12,1.969,1.969,0,0,1-1.03-.87c-1.055-1.39-1.688-3.64-1.328-4.72,1.066-3.19-2.609-6.5-4.6-8.01A19,19,0,0,1,279,3291Zm0,38a18.918,18.918,0,0,1-18.862-21.2c1.484,1.34,2.714,2.9,2.439,3.73-0.909,2.72.858,7.42,3.376,8.98a3.178,3.178,0,0,0,3.438.09c0.009,0.03.019,0.07,0.028,0.1,0.464,1.68,1.326,4.8,4.581,4.8,3,0,4.446-1.44,5.074-2.77,3.132,0.46,10.695.9,16.86-4.14A18.988,18.988,0,0,1,279,3329Zm-4.5-32a1.5,1.5,0,1,0-1.5-1.5A1.5,1.5,0,0,0,274.5,3297Zm18,8a1.5,1.5,0,1,0-1.5-1.5A1.5,1.5,0,0,0,292.5,3305Zm-8-5a1.5,1.5,0,1,0-1.5-1.5A1.5,1.5,0,0,0,284.5,3300Zm7.5,13.5a1.5,1.5,0,1,0-1.5-1.5A1.5,1.5,0,0,0,292,3313.5Zm-23.5-9.5a1.5,1.5,0,1,0-1.5-1.5A1.5,1.5,0,0,0,268.5,3304Z" transform="translate(-257 -3288)"/>
</svg>
