<svg xmlns="http://www.w3.org/2000/svg" width="46" height="39" viewBox="0 0 46 39">
  <defs>
    <style>
      .cls-1 {
        fill-rule: evenodd;
      }
    </style>
  </defs>
  <path id="Earphones" class="cls-1" d="M472.96,3045.93c0.019-.31.04-0.62,0.04-0.93v-2a18.117,18.117,0,0,0-10-15.96V3027a3,3,0,0,0-3-3H450a2.993,2.993,0,0,0-2.978,2.78A17.836,17.836,0,0,0,437,3043v2c0,0.31.021,0.62,0.041,0.93A8.992,8.992,0,0,0,441,3063h4a3,3,0,0,0,3-3v-12a3,3,0,0,0-3-3s-4.672-.04-5,0h0v-2a14.819,14.819,0,0,1,7.2-12.94A3,3,0,0,0,450,3032h10a3,3,0,0,0,2.693-1.7A15.078,15.078,0,0,1,470,3043v2c0,0.02,0,.04,0,0.06-0.328-.04-3.448-0.06-4-0.06h-1a3,3,0,0,0-3,3v12a3,3,0,0,0,3,3h4A8.993,8.993,0,0,0,472.96,3045.93ZM445,3048v12h-1v-12h1Zm-4,12a6,6,0,0,1,0-12v12Zm19-31H450v-2h10v2Zm5,31v-12h1v12h-1Zm4,0v-12A6,6,0,0,1,469,3060Z" transform="translate(-432 -3024)"/>
</svg>
