<svg xmlns="http://www.w3.org/2000/svg" width="36.187" height="42" viewBox="0 0 36.187 42">
  <defs>
    <style>
      .cls-1 {
        fill-rule: evenodd;
      }
    </style>
  </defs>
  <path id="Earth_Globe" data-name="Earth Globe" class="cls-1" d="M644.591,3731.96a1.734,1.734,0,0,0-.209-0.13,1.163,1.163,0,0,0-.168-0.25,1.473,1.473,0,0,0-2.105,0l-2.292,2.3A15.265,15.265,0,0,0,631,3731a16.142,16.142,0,0,0-16.042,16.04,15.929,15.929,0,0,0,3.28,9.68L615,3759.98l0.985,1.06a20.248,20.248,0,0,0,6.572,4.69A20.5,20.5,0,0,0,628,3767l-0.144,3h-2.977a1.5,1.5,0,0,0,0,2.99H634.8a1.5,1.5,0,0,0,0-2.99H631v-3c7.781-.01,15.049-4.04,18.413-11.64A20.527,20.527,0,0,0,644.591,3731.96ZM631,3734c2.659,0,12,2.32,12,13,0,7.17-5.044,13.02-12.168,13.02a12.945,12.945,0,0,1-12.9-12.98A13.134,13.134,0,0,1,631,3734Zm15.694,20.14a17.309,17.309,0,0,1-27.507,5.86l1.075-1.08a15.757,15.757,0,0,0,10.57,4.09c8.754,0,15.168-7.2,15.168-16.01,0-4.37-1.052-8.3-3.891-11.19l1.055-1.06A17.522,17.522,0,0,1,646.694,3754.14Z" transform="translate(-614.969 -3731)"/>
</svg>
