<svg xmlns="http://www.w3.org/2000/svg" width="41" height="41" viewBox="0 0 41 41">
  <defs>
    <style>
      .cls-1 {
        fill-rule: evenodd;
      }
    </style>
  </defs>
  <path id="Egg" class="cls-1" d="M633,3211a9,9,0,1,0,9,9A9.012,9.012,0,0,0,633,3211Zm0,15a6,6,0,1,1,6-6A6,6,0,0,1,633,3226Zm19-7.5a15.171,15.171,0,0,0-20.03-14.7,18.815,18.815,0,0,0-5.47-.8c-8.692,0-15.5,6.59-15.5,15,0,7.1,4.418,13.43,10.549,15.52,2.079,6.09,8.381,10.48,15.451,10.48,8.411,0,15-6.81,15-15.5a19.05,19.05,0,0,0-.788-5.45A12.649,12.649,0,0,0,652,3218.5Zm-3,10c0,6.9-5.1,12.5-12,12.5-6.123,0-11.926-4.12-13-9.94-5.812-1.07-10-6.94-10-13.06,0-6.9,5.6-12,12.5-12a14.937,14.937,0,0,1,5.5,1,12.119,12.119,0,0,1,4.938-1c6.9,0,12.062,5.6,12.062,12.5a10.131,10.131,0,0,1-1,4.5A14.926,14.926,0,0,1,649,3228.5Z" transform="translate(-611 -3203)"/>
</svg>
