<svg xmlns="http://www.w3.org/2000/svg" width="36.781" height="41" viewBox="0 0 36.781 41">
  <defs>
    <style>
      .cls-1 {
        fill-rule: evenodd;
      }
    </style>
  </defs>
  <path id="Euro" class="cls-1" d="M204.5,2337.12a1.522,1.522,0,0,0-2.107-.35,17.626,17.626,0,0,1-10.209,3.23c-8.335,0-15.385-4.99-17.2-12.9h17.529a1.541,1.541,0,0,0,0-3.08H174.548c-0.019-.34,0-1.18,0-1.52a4.747,4.747,0,0,1,0-.52h19.947a1.541,1.541,0,0,0,0-3.08H174.972a17.835,17.835,0,0,1,17.207-13.9,17.612,17.612,0,0,1,10.2,3.23,1.517,1.517,0,0,0,2.108-.36,1.493,1.493,0,0,0-.357-2.09,20.675,20.675,0,0,0-32.244,13.12h-2.4a1.541,1.541,0,0,0,0,3.08h2.05c-0.016.34-.023,0.18-0.023,0.52s0.009,1.18.025,1.52H169.5a1.541,1.541,0,0,0,0,3.08h2.4c1.867,9.62,10.274,15.9,20.285,15.9a20.659,20.659,0,0,0,11.96-3.78A1.5,1.5,0,0,0,204.5,2337.12Z" transform="translate(-168 -2302)"/>
</svg>
