<svg xmlns="http://www.w3.org/2000/svg" width="44" height="44" viewBox="0 0 44 44">
  <defs>
    <style>
      .cls-1 {
        fill-rule: evenodd;
      }
    </style>
  </defs>
  <path id="Euro" class="cls-1" d="M189,2390a22,22,0,1,0,22,22A22.025,22.025,0,0,0,189,2390Zm0,41a19,19,0,1,1,19-19A19,19,0,0,1,189,2431Zm6.131-10.34a10,10,0,0,1-15.145-4.66H190.5a1.5,1.5,0,0,0,0-3H179.367c-0.008-.17-0.025-0.33-0.025-0.5s0.017-.33.025-0.5H193.5a1.5,1.5,0,0,0,0-3H179.986a10,10,0,0,1,15.143-4.66,1.5,1.5,0,1,0,1.738-2.44,12.988,12.988,0,0,0-20.033,7.1H176.5a1.5,1.5,0,0,0-.132,2.99c-0.007.17-.026,0.34-0.026,0.51s0.019,0.34.026,0.51a1.5,1.5,0,0,0,.132,2.99h0.334a12.99,12.99,0,0,0,20.035,7.1A1.5,1.5,0,1,0,195.131,2420.66Z" transform="translate(-167 -2390)"/>
</svg>
