<svg xmlns="http://www.w3.org/2000/svg" width="42.75" height="44" viewBox="0 0 42.75 44">
  <defs>
    <style>
      .cls-1 {
        fill-rule: evenodd;
      }
    </style>
  </defs>
  <path id="Filter" class="cls-1" d="M824,1346h0m0,0-15,14v4.5l-7,7.5v-12.5L787.245,1346H824m0-3H787.245a3,3,0,0,0-2.026,5.21L799,1360.82V1372a3,3,0,0,0,5.193,2.05l7-7.5a3.013,3.013,0,0,0,.807-2.05v-3.2l14-13.06A3,3,0,0,0,824,1343h0Zm0,6h0Zm-13-15v5h7v4H794v-9h17m0-3H794a3,3,0,0,0-3,3v9a3,3,0,0,0,3,3h24a3,3,0,0,0,3-3v-4a3,3,0,0,0-3-3h-4v-2a3,3,0,0,0-3-3h0Z" transform="translate(-784.25 -1331)"/>
</svg>
