<svg xmlns="http://www.w3.org/2000/svg" width="35" height="45" viewBox="0 0 35 45">
  <defs>
    <style>
      .cls-1 {
        fill-rule: evenodd;
      }
    </style>
  </defs>
  <path id="Finger_print" data-name="Finger print" class="cls-1" d="M891.507,2864c-2.329,0-2.689,2.57-2.667,3.93,0.054,3.39,4.179,6.62,8.55,7.71a2.527,2.527,0,0,0,3.125-2.61,0.062,0.062,0,0,0-.006-0.03C892.025,2873,891.546,2864.37,891.507,2864Zm-17.947-19.84a1.51,1.51,0,0,0,2.107-.21c0.151-.19,4.775-4.95,13.839-4.95s12.689,3.76,12.832,3.94a1.5,1.5,0,0,0,2.343-1.88c-0.182-.22-4.574-5.06-15.175-5.06s-15.992,5.84-16.174,6.06A1.5,1.5,0,0,0,873.56,2844.16Zm33.288,5.57c-0.186-.37-4.558-8.73-17.342-8.73-12.727,0-17.125,8.94-17.306,9.26a1.5,1.5,0,0,0,2.606,1.48c0.035-.06,3.7-7.74,14.7-7.74,10.855,0,14.43,6.84,14.581,7.13a1.543,1.543,0,0,0,1.382.87,1.434,1.434,0,0,0,.689-0.17A1.572,1.572,0,0,0,906.848,2849.73ZM889.506,2846c-10.845,0-16.5,10.03-16.5,15.97,0,9.33,2.088,12.74,2.441,13.09a1.487,1.487,0,0,0,2.094.01,1.509,1.509,0,0,0,.045-2.11c-0.026-.03-1.579-2.91-1.579-10.99,0-3.92,3.982-12.97,13.5-12.97,8.811,0,14.5,6.34,14.5,15a3.934,3.934,0,0,1-3.5,4,4.656,4.656,0,0,1-2.611-.46,4.066,4.066,0,0,1-1.39-2.54c0-5.04-3.17-8.25-6.623-8.25A6.886,6.886,0,0,0,885,2859c-1.361,1.45-2,4.31-2,6.75,0,10.95,11.528,15,12.018,15.17a1.642,1.642,0,0,0,.485.08,1.5,1.5,0,0,0,.486-2.92c-0.407-.14-9.988-3.55-9.988-12.33,0-1.66.166-3.87,0.994-4.75a4.3,4.3,0,0,1,2.885-1.25c2.049,0,3.622,2.13,3.622,5.25,0,1.78,1.708,3.96,3,5a5.947,5.947,0,0,0,4,1,6.828,6.828,0,0,0,6.5-7C907.01,2853.68,899.977,2846,889.506,2846Zm-8.478,18.97c0-2.85-.1-10.97,8.478-10.97,3.93,0,6.71,2.89,8.262,5.63a10.15,10.15,0,0,1,1.241,4.37,1.5,1.5,0,0,0,3,0c0-.12-0.142-13-12.5-13-11.9,0-11.471,11.89-11.471,13.97,0,0.16-1.33,7.35,6.41,15.09a1.5,1.5,0,0,0,2.121-2.12C879.757,2871.13,881.028,2865.17,881.028,2864.97Z" transform="translate(-872 -2836)"/>
</svg>
