<svg xmlns="http://www.w3.org/2000/svg" width="38" height="32" viewBox="0 0 38 32">
  <defs>
    <style>
      .cls-1 {
        fill-rule: evenodd;
      }
    </style>
  </defs>
  <path id="Folder" class="cls-1" d="M96.868,1868A2.816,2.816,0,0,1,99,1869l2,3.03a2.52,2.52,0,0,0,2,.97h12a2,2,0,0,1,2,2v17a2,2,0,0,1-2,2H87a2,2,0,0,1-2-2v-18.45a1.973,1.973,0,0,1,.285-1.02l2.132-3.56a2,2,0,0,1,1.715-.97h7.735m0-3H89.132a5.022,5.022,0,0,0-4.287,2.43l-2.132,3.55a5.018,5.018,0,0,0-.713,2.57V1892a5,5,0,0,0,5,5h28a5,5,0,0,0,5-5v-17a5,5,0,0,0-5-5H103.255l-1.727-2.62a5.738,5.738,0,0,0-4.66-2.38h0Z" transform="translate(-82 -1865)"/>
</svg>
