<svg xmlns="http://www.w3.org/2000/svg" width="44.625" height="35.85" viewBox="0 0 44.625 35.85">
  <defs>
    <style>
      .cls-1 {
        fill-rule: evenodd;
      }
    </style>
  </defs>
  <path id="Folk_and_spoon" data-name="Folk and spoon" class="cls-1" d="M465.1,3397.04c2.533,0,5.312-1.36,7.825-3.83,4.257-4.19,5.064-9.03,2.008-12.04a6.283,6.283,0,0,0-4.507-1.82h0c-2.536,0-5.3,1.35-7.783,3.8-3.631,3.57-4.75,7.61-3.125,10.61l-4.534,4.46-5.651-5.56,2.449-2.42a1.457,1.457,0,0,0,0-2.09l-9.035-8.9a1.52,1.52,0,0,0-2.129,0,1.469,1.469,0,0,0,0,2.1l7.97,7.85-1.384,1.36-8.473-8.34a1.52,1.52,0,0,0-2.129,0,1.459,1.459,0,0,0,0,2.09l8.473,8.35-1.385,1.36-8.974-8.84a1.521,1.521,0,0,0-2.13,0,1.471,1.471,0,0,0,0,2.1l10.04,9.88a1.508,1.508,0,0,0,2.129,0l2.449-2.41,5.651,5.57-12.036,11.85a1.457,1.457,0,0,0,0,2.09,1.508,1.508,0,0,0,2.129,0l12.036-11.85,11.8,11.62a1.534,1.534,0,0,0,2.13,0,1.471,1.471,0,0,0,0-2.1l-11.8-11.61,4.411-4.35A6.224,6.224,0,0,0,465.1,3397.04Zm-0.328-11.8c1.817-1.79,3.891-2.92,5.653-2.92a3.25,3.25,0,0,1,2.378.95c1.96,1.93.736,5.14-2.008,7.84-1.832,1.81-3.924,2.97-5.7,2.97a3.226,3.226,0,0,1-2.336-.93C460.805,3391.22,462.029,3387.94,464.774,3385.24Z" transform="translate(-432.156 -3378.84)"/>
</svg>
