<svg xmlns="http://www.w3.org/2000/svg" width="44.812" height="43.28" viewBox="0 0 44.812 43.28">
  <defs>
    <style>
      .cls-1 {
        fill-rule: evenodd;
      }
    </style>
  </defs>
  <path id="Grape" class="cls-1" d="M740.653,3376.75c-3.716-.91-8.579,1.52-14.841,7.42a7.137,7.137,0,0,0-8.126.56,7.064,7.064,0,0,0-13.664,2.39,6.8,6.8,0,0,0,.314,2.01c-0.105,0-.207-0.02-0.314-0.02a7,7,0,0,0-7.051,6.94,6.868,6.868,0,0,1,0,11.9,7,7,0,0,0,7.051,6.94,7.631,7.631,0,0,0,1.274-.11,7.079,7.079,0,0,0,13.493.26,7.059,7.059,0,0,0,10.417-6.1,6.882,6.882,0,0,1,6.835-8.04,7.03,7.03,0,0,0-8.087-6.86,6.831,6.831,0,0,0,.051-7.81c0.738-.69,1.478-1.35,2.214-1.96,0.052,2.39,1.71,6.66,2.226,7.93a3.04,3.04,0,0,0,5.612,0c0.523-1.29,2.23-5.68,2.23-8.05a6.046,6.046,0,0,0-1.721-4.57,3.792,3.792,0,0,1,1.355.06,1.515,1.515,0,0,0,1.832-1.08A1.491,1.491,0,0,0,740.653,3376.75Zm-5.4,14.34s-2.015-4.96-2.015-6.94c0-2.98,2.015-2.98,2.015-2.98s2.014,0,2.014,2.98C737.265,3386.13,735.251,3391.09,735.251,3391.09Zm-13.1-4.96a4,4,0,0,1,4.029,3.97,3.884,3.884,0,0,1-1.046,2.64,7.073,7.073,0,0,0-5.967,0,3.357,3.357,0,0,1-.236-0.28,6.935,6.935,0,0,0-.76-1.87,3.87,3.87,0,0,1-.05-0.49A4,4,0,0,1,722.155,3386.13Zm-10.074,19.84a7.024,7.024,0,0,0-3.1.72,3.972,3.972,0,1,1,5.1-3.81,3.924,3.924,0,0,1-1.556,3.11C712.375,3405.98,712.229,3405.97,712.081,3405.97Zm-4.029-11.9a4,4,0,0,1,4.029-3.97,4.05,4.05,0,0,1,3.22,1.6,6.71,6.71,0,0,0,.759,1.87,4.034,4.034,0,0,1,.051.5,3.847,3.847,0,0,1-.156,1.03l-0.046.06a1.432,1.432,0,0,0-.295.78,4,4,0,0,1-1.322,1.41,7.087,7.087,0,0,0-4.244-1.41,7.451,7.451,0,0,0-1.428.14A3.863,3.863,0,0,1,708.052,3394.07Zm8.9,10.2c0.033-.16.054-0.33,0.076-0.49,0.065,0.07.128,0.14,0.2,0.2C717.135,3404.07,717.047,3404.17,716.957,3404.27Zm1.168-5.24a3.972,3.972,0,0,1,3.006-3.83c0.926,0.36,3.483,1.42,4.008,1.18a3.894,3.894,0,0,1,1.045,2.65,3.948,3.948,0,0,1-1.838,3.32,7.033,7.033,0,0,0-4.382,0A3.947,3.947,0,0,1,718.125,3399.03Zm-7.051-15.87a3.993,3.993,0,0,1,4.029,3.96,3.675,3.675,0,0,1-.062.65,7.135,7.135,0,0,0-2.96-.65,7.05,7.05,0,0,0-4.624,1.72,3.854,3.854,0,0,1-.413-1.72A3.993,3.993,0,0,1,711.074,3383.16Zm-7.052,8.92a3.972,3.972,0,0,1,1.249.22,6.712,6.712,0,0,0,.586,5.01,7,7,0,0,0-2.208,2.67A3.956,3.956,0,0,1,704.022,3392.08Zm-4.029,15.87a3.984,3.984,0,0,1,3.119-3.86c0.36,2,2.231,3.84,3.932,4.85-0.636.85-1.72,1.72-1.907,2.8a3.75,3.75,0,0,1-1.115.18A4,4,0,0,1,699.993,3407.95Zm12.088,8.93a4.011,4.011,0,0,1-3.96-3.29c-0.069-2.66.938-2.66,2.689-3.81a7.1,7.1,0,0,0,2.342-.68,4.008,4.008,0,0,1,2.149,1.45,6.933,6.933,0,0,0,.759,1.87,3.694,3.694,0,0,1,.051.49A4,4,0,0,1,712.081,3416.88Zm10.074-3.97a4.053,4.053,0,0,1-3.22-1.6,6.87,6.87,0,0,0-.76-1.88,3.87,3.87,0,0,1-.05-0.49,3.947,3.947,0,0,1,1.839-3.32,7.205,7.205,0,0,0,2.191.35,6.839,6.839,0,0,0,1.819-.25,6.766,6.766,0,0,0,1.66,1.25,3.915,3.915,0,0,1,.55,1.97A4,4,0,0,1,722.155,3412.91Zm10.864-12.01a4,4,0,0,1-4.03,3.97,4.062,4.062,0,0,1-1.311-.23,7.742,7.742,0,0,0-.6-0.66,6.835,6.835,0,0,0,1.8-7.04c0.037,0,.072-0.01.109-0.01A4,4,0,0,1,733.019,3400.9Z" transform="translate(-696.969 -3376.56)"/>
</svg>
