<svg xmlns="http://www.w3.org/2000/svg" width="34" height="42" viewBox="0 0 34 42">
  <defs>
    <style>
      .cls-1 {
        fill-rule: evenodd;
      }
    </style>
  </defs>
  <path id="Grill" class="cls-1" d="M716.815,3290.83A2.248,2.248,0,0,1,718,3292.5a3.184,3.184,0,0,1-1.06,1.44,4.515,4.515,0,0,0,.889,7.9,1.575,1.575,0,0,0,.665.15,1.5,1.5,0,0,0,.691-2.83A2.246,2.246,0,0,1,718,3297.5a3.134,3.134,0,0,1,1.06-1.44,4.515,4.515,0,0,0-.889-7.9A1.5,1.5,0,0,0,716.815,3290.83Zm6,0A2.248,2.248,0,0,1,724,3292.5a3.184,3.184,0,0,1-1.06,1.44,4.515,4.515,0,0,0,.889,7.9,1.575,1.575,0,0,0,.665.15,1.5,1.5,0,0,0,.691-2.83A2.246,2.246,0,0,1,724,3297.5a3.134,3.134,0,0,1,1.06-1.44,4.515,4.515,0,0,0-.889-7.9A1.5,1.5,0,0,0,722.815,3290.83ZM709,3297.5a5.1,5.1,0,0,0,2.829,4.34,1.578,1.578,0,0,0,.665.15,1.5,1.5,0,0,0,.691-2.83A2.246,2.246,0,0,1,712,3297.5a3.131,3.131,0,0,1,1.061-1.44,4.516,4.516,0,0,0-.89-7.9,1.5,1.5,0,0,0-1.356,2.67A2.248,2.248,0,0,1,712,3292.5a3.181,3.181,0,0,1-1.061,1.44A5.061,5.061,0,0,0,709,3297.5Zm18.039,20.88a14.055,14.055,0,0,0,7.2-7.69,22.973,22.973,0,0,0,.764-4.68,3.009,3.009,0,0,0-3-3.02H704a3.009,3.009,0,0,0-3,3.02,13.675,13.675,0,0,0,7.73,12.38l-5.534,9.33a1.5,1.5,0,0,0,.514,2.05,1.427,1.427,0,0,0,.763.22,1.483,1.483,0,0,0,1.278-.73L712,3320c0.517,0.01,4,0,4,0l0.012,8.49a1.431,1.431,0,1,0,2.858,0L719,3320s3.682,0.02,5,0l5.991,9.25a1.479,1.479,0,0,0,2.041.53,1.513,1.513,0,0,0,.518-2.06ZM732,3306.01V3308H704v-1.99h28ZM714,3317c-3.671,0-7.27-3.11-9-6h26c-3.286,5.5-7.965,5.65-10,6h-7Z" transform="translate(-701 -3288)"/>
</svg>
