<svg xmlns="http://www.w3.org/2000/svg" width="44" height="44" viewBox="0 0 44 44">
  <defs>
    <style>
      .cls-1 {
        fill-rule: evenodd;
      }
    </style>
  </defs>
  <path id="Help" class="cls-1" d="M717,1418a22,22,0,1,0,22,22A22.025,22.025,0,0,0,717,1418Zm12.324,7.55-4.914,4.92a0.435,0.435,0,0,0-.06.07,11.9,11.9,0,0,0-14.7,0,0.435,0.435,0,0,0-.06-0.07l-4.914-4.92A18.965,18.965,0,0,1,729.324,1425.55ZM717,1449a9,9,0,1,1,9-9A9,9,0,0,1,717,1449Zm-19-9a18.9,18.9,0,0,1,4.555-12.32l4.913,4.91,0.067,0.06a11.923,11.923,0,0,0,0,14.7l-0.067.06-4.913,4.91A18.9,18.9,0,0,1,698,1440Zm6.676,14.45,4.914-4.92a0.435,0.435,0,0,0,.06-0.07,11.9,11.9,0,0,0,14.7,0,0.435,0.435,0,0,0,.06.07l4.914,4.92A18.965,18.965,0,0,1,704.676,1454.45Zm26.769-2.13-4.913-4.91-0.067-.06a11.923,11.923,0,0,0,0-14.7l0.067-.06,4.913-4.91A18.939,18.939,0,0,1,731.445,1452.32Z" transform="translate(-695 -1418)"/>
</svg>
