<svg xmlns="http://www.w3.org/2000/svg" width="22" height="45" viewBox="0 0 22 45">
  <defs>
    <style>
      .cls-1 {
        fill-rule: evenodd;
      }
    </style>
  </defs>
  <path id="Icecream" class="cls-1" d="M542,3376a11.01,11.01,0,0,0-11,11v18a3,3,0,0,0,3,3h4v9.35a3.654,3.654,0,0,0,3.647,3.65h0.706a3.654,3.654,0,0,0,3.647-3.65V3408h4a3,3,0,0,0,3-3v-18A11.01,11.01,0,0,0,542,3376Zm1,41.35a0.648,0.648,0,0,1-.647.65h-0.706a0.648,0.648,0,0,1-.647-0.65V3408h2v9.35Zm7-12.35H534v-18a8,8,0,0,1,16,0v18Zm-8.294-24.47c-2.146.43-6.206,2.75-6.206,8.47a1.5,1.5,0,0,0,3,0c0-4.56,3.409-5.44,3.806-5.53A1.5,1.5,0,0,0,541.706,3380.53Z" transform="translate(-531 -3376)"/>
</svg>
