<svg xmlns="http://www.w3.org/2000/svg" width="38" height="44" viewBox="0 0 38 44">
  <defs>
    <style>
      .cls-1 {
        fill-rule: evenodd;
      }
    </style>
  </defs>
  <path id="Image" class="cls-1" d="M735.061,1605.94l-8.521-8.52A2.988,2.988,0,0,0,724,1596H701a3,3,0,0,0-3,3v38a3,3,0,0,0,3,3h32a2.652,2.652,0,0,0,3-3v-28A4.451,4.451,0,0,0,735.061,1605.94ZM727,1602.12l3.88,3.88H727v-3.88Zm-3.1-3.12c0.016,0.02.022,0.04,0.039,0.06l0.062,0.06V1609h9v10.7l-5.256-3a1.5,1.5,0,0,0-1.856.29l-8.327,9.2-7.041-2.6a1.5,1.5,0,0,0-1.58.35l-7.94,7.94V1599h22.9ZM701,1637v-0.9c0.019-.02.043-0.02,0.06-0.04l9.322-9.32,7.092,2.62a1.51,1.51,0,0,0,1.631-.4l8.2-9.06,5.7,3.26V1637H701Zm9.007-20a5,5,0,1,0-5-5A5,5,0,0,0,710.007,1617Zm0-7a2,2,0,1,1-2,2A2,2,0,0,1,710.007,1610Z" transform="translate(-698 -1596)"/>
</svg>
