<svg xmlns="http://www.w3.org/2000/svg" width="44" height="44" viewBox="0 0 44 44">
  <defs>
    <style>
      .cls-1 {
        fill-rule: evenodd;
      }
    </style>
  </defs>
  <path id="Important" class="cls-1" d="M629,1242a22,22,0,1,0,22,22A22.025,22.025,0,0,0,629,1242Zm0,41a19,19,0,1,1,19-19A19,19,0,0,1,629,1283Zm8.183-22.47-4.753-.56-2.19-4.23a1.435,1.435,0,0,0-1.334-.74h-0.024a1.425,1.425,0,0,0-1.331.78l-2.032,4.22-4.681.51a1.5,1.5,0,0,0-.907,2.54l3.534,3.59-0.74,4.78a1.5,1.5,0,0,0,1.482,1.73,1.435,1.435,0,0,0,.72-0.19l4.21-2.3,4.282,2.17a1.524,1.524,0,0,0,1.578-.14,1.5,1.5,0,0,0,.573-1.48l-0.888-4.72,3.387-3.43A1.492,1.492,0,0,0,637.183,1260.53Zm-5.19,4.42a1.49,1.49,0,0,0-.4,1.33l0.471,2.5-2.274-1.15a1.528,1.528,0,0,0-1.4.02l-2.236,1.22,0.391-2.51a1.491,1.491,0,0,0-.413-1.28l-1.889-1.92,2.434-.27a1.488,1.488,0,0,0,1.193-.85l1.091-2.3,1.164,2.27a1.5,1.5,0,0,0,1.151.8l2.518,0.31Z" transform="translate(-607 -1242)"/>
</svg>
