<svg xmlns="http://www.w3.org/2000/svg" width="46" height="22" viewBox="0 0 46 22">
  <defs>
    <style>
      .cls-1 {
        fill-rule: evenodd;
      }
    </style>
  </defs>
  <path id="Infinity" class="cls-1" d="M203.99,1694c-2.429,0-5.256,1.51-8.9,4.76a54.109,54.109,0,0,0-4.093,4.07s-0.006-.01-0.009-0.01l-2.077,2.17a0.081,0.081,0,0,1,.009.01s-7.035,8-10.914,8-7.024-3.58-7.024-8,3.145-8,7.024-8c2.447,0,6.148,3.18,8.549,5.53l2.127-2.13c-2.838-2.8-7.17-6.4-10.676-6.4-5.521,0-10.013,4.93-10.013,11s4.492,11,10.013,11c2.429,0,5.256-1.51,8.9-4.76a54.31,54.31,0,0,0,4.093-4.07c0,0.01.009,0.01,0.014,0.02l2.077-2.17a0.045,0.045,0,0,0-.015-0.02s7.036-8,10.915-8,7.023,3.58,7.023,8-3.144,8-7.023,8c-2.446,0-6.145-3.18-8.545-5.53l-2.095,2.17c2.839,2.79,7.149,6.36,10.64,6.36,5.521,0,10.013-4.93,10.013-11S209.511,1694,203.99,1694Z" transform="translate(-168 -1694)"/>
</svg>
