<svg xmlns="http://www.w3.org/2000/svg" width="42" height="42" viewBox="0 0 42 42">
  <defs>
    <style>
      .cls-1 {
        fill-rule: evenodd;
      }
    </style>
  </defs>
  <path id="Instagram" class="cls-1" d="M200,2132a8,8,0,0,1,8,8v20a8,8,0,0,1-8,8H180a8,8,0,0,1-8-8v-20a8,8,0,0,1,8-8h20m0-3H180a11.01,11.01,0,0,0-11,11v20a11.01,11.01,0,0,0,11,11h20a11.01,11.01,0,0,0,11-11v-20a11.01,11.01,0,0,0-11-11h0Zm-10,12a9,9,0,1,1-9,9,9,9,0,0,1,9-9m0-3a12,12,0,1,0,12,12,12.011,12.011,0,0,0-12-12h0Zm13.5-.5a2,2,0,1,1-2-2A2,2,0,0,1,203.5,2137.5Z" transform="translate(-169 -2129)"/>
</svg>
