<svg xmlns="http://www.w3.org/2000/svg" width="44.562" height="43.84" viewBox="0 0 44.562 43.84">
  <defs>
    <style>
      .cls-1 {
        fill-rule: evenodd;
      }
    </style>
  </defs>
  <path id="Lable" class="cls-1" d="M562.34,1419.57a1.537,1.537,0,0,0-2.143,0l-2.7,2.66a2.847,2.847,0,0,0-.776-0.11l-15.211-.13a3.109,3.109,0,0,0-2.166.88l-20.21,19.94a2.953,2.953,0,0,0,0,4.22l15.328,15.09a3.048,3.048,0,0,0,4.285,0l20.368-19.92a2.967,2.967,0,0,0,.876-2.11l-0.25-14.99a2.894,2.894,0,0,0-.107-0.76l2.7-2.66A1.475,1.475,0,0,0,562.34,1419.57Zm-5.358,20.52L536.6,1460.01l-15.324-15.09,20.235-19.91h13.327l-4.675,4.64a4.794,4.794,0,0,0-2.257-.58,5.04,5.04,0,1,0,4.339,2.69l4.737-4.64v12.97Zm-7.109-6.05a1.968,1.968,0,1,1-1.967-1.99A1.976,1.976,0,0,1,549.873,1434.04Z" transform="translate(-518.25 -1419.16)"/>
</svg>
