<svg xmlns="http://www.w3.org/2000/svg" width="42" height="29" viewBox="0 0 42 29">
  <defs>
    <style>
      .cls-1 {
        fill-rule: evenodd;
      }
    </style>
  </defs>
  <path id="Landing" class="cls-1" d="M452.525,3649.03l9.874,15.76,7.778,2.14c0.86,0.25,2.825,1.43,2.825,2.86,0,1.3-3.1,2.17-4.562,2.17-0.144,0-.272-0.01-0.38-0.02l-14.122-2.87-15.417-8.69-1.53-6.63,3.531,5.02,13.416,4.58-2.825-14.32h1.412m0-3.04h-1.412a2.989,2.989,0,0,0-2.316,1.11,3.073,3.073,0,0,0-.621,2.52l1.883,9.55-7.728-3.06-2.9-4.12a2.968,2.968,0,0,0-2.438-1.27,2.993,2.993,0,0,0-2.985,3.28l1.531,6.62a3.035,3.035,0,0,0,1.728,2.51l15.416,8.7a3.149,3.149,0,0,0,.67.22l14.123,2.86,0.123,0.03a5.567,5.567,0,0,0,.844.06c2.367,0,7.557-1.31,7.557-5.21,0-3.15-3.062-5.22-4.993-5.78l-6.7-1.84-9.251-14.77a2.981,2.981,0,0,0-2.529-1.41h0Z" transform="translate(-434 -3646)"/>
</svg>
