<svg xmlns="http://www.w3.org/2000/svg" width="44" height="44" viewBox="0 0 44 44">
  <defs>
    <style>
      .cls-1 {
        fill-rule: evenodd;
      }
    </style>
  </defs>
  <path id="Language" class="cls-1" d="M631,3640a22,22,0,1,0,22,22A22.025,22.025,0,0,0,631,3640Zm19,21h-7c-0.3-6.57-3.091-13.29-7.76-17.51A19.04,19.04,0,0,1,650,3661Zm-21-17v17h-7C622.286,3654.73,624.757,3647.5,629,3644Zm0,20v16c-3.947-3.48-6.431-10.4-7-16h7Zm3,16v-16h7.981C639.326,3669.69,636.392,3676.51,632,3680Zm0-19v-17c4.723,3.49,7.67,10.65,8,17h-8Zm-5.848-17.35c-4.384,4.15-6.878,10.7-7.151,17.35H612.05A18.971,18.971,0,0,1,626.152,3643.65ZM612.107,3664h6.881c0.557,6.12,2.77,11.92,7.012,16A18.05,18.05,0,0,1,612.107,3664Zm22.9,16.57A26.435,26.435,0,0,0,643,3664h7A19.129,19.129,0,0,1,635.007,3680.57Z" transform="translate(-609 -3640)"/>
</svg>
