<svg xmlns="http://www.w3.org/2000/svg" width="45" height="41" viewBox="0 0 45 41">
  <defs>
    <style>
      .cls-1 {
        fill-rule: evenodd;
      }
    </style>
  </defs>
  <path id="Like" class="cls-1" d="M289,1158c-4.788,0-8.622,3.64-11.026,6.06-2.429-2.39-6.326-6.06-11.112-6.06-6.984,0-11.862,4.94-11.862,12.01,0,15.37,20.105,28.01,20.961,28.54a3,3,0,0,0,1.58.45,2.954,2.954,0,0,0,1.592-.46c0.852-.53,20.867-13.25,20.867-28.53C300,1162.6,295.785,1158,289,1158Zm-11.459,38S258,1183.88,258,1170.01c0-5.37,3.493-9.01,8.862-9.01s10.143,7.01,11.138,7.01c0.96,0,5.631-7.01,11-7.01s8,3.64,8,9.01C297,1183.8,277.541,1196,277.541,1196Z" transform="translate(-255 -1158)"/>
</svg>
