<svg xmlns="http://www.w3.org/2000/svg" width="36" height="38.88" viewBox="0 0 36 38.88">
  <defs>
    <style>
      .cls-1 {
        fill-rule: evenodd;
      }
    </style>
  </defs>
  <path id="Loading" class="cls-1" d="M101,1602.59a14.919,14.919,0,0,1,8.877,2.92l-4.089.58a1.5,1.5,0,0,0,.21,2.98,1.541,1.541,0,0,0,.214-0.01l7-1a1.494,1.494,0,0,0,1.273-1.69l-1-6.98a1.5,1.5,0,0,0-2.97.42l0.4,2.77a17.947,17.947,0,0,0-26.979,20.64l2.43-2.43A14.926,14.926,0,0,1,101,1602.59Zm17.066,9.29-2.43,2.43a14.978,14.978,0,0,1-23.673,15.16l3.249-.46a1.5,1.5,0,1,0-.424-2.97l-7,1a1.5,1.5,0,0,0-1.273,1.69l1,6.98A1.5,1.5,0,0,0,89,1637a1.56,1.56,0,0,0,.214-0.02,1.49,1.49,0,0,0,1.273-1.69l-0.514-3.59A17.942,17.942,0,0,0,118.066,1611.88Z" transform="translate(-83 -1598.12)"/>
</svg>
