<svg xmlns="http://www.w3.org/2000/svg" width="44" height="34" viewBox="0 0 44 34">
  <defs>
    <style>
      .cls-1 {
        fill-rule: evenodd;
      }
    </style>
  </defs>
  <path id="Mail" class="cls-1" d="M561,2133H523a3,3,0,0,0-3,3v28a3,3,0,0,0,3,3h38a3,3,0,0,0,3-3v-28A3,3,0,0,0,561,2133Zm0,28.88-7.94-7.94a1.5,1.5,0,0,0-2.12,2.12l7.939,7.94H525.121l7.94-7.94a1.5,1.5,0,1,0-2.121-2.12l-7.94,7.94v-19.25l18.022,13.57a1.507,1.507,0,0,0,.9.3,1.489,1.489,0,0,0,.9-0.3L561,2142.62v19.26Zm0-25.88v2.88l-19.072,14.25L523,2138.88V2136h38Z" transform="translate(-520 -2133)"/>
</svg>
