<svg xmlns="http://www.w3.org/2000/svg" width="42" height="43" viewBox="0 0 42 43">
  <defs>
    <style>
      .cls-1 {
        fill-rule: evenodd;
      }
    </style>
  </defs>
  <path id="Map" class="cls-1" d="M209.114,1512.21l-10-4A3.066,3.066,0,0,0,198,1508a2.967,2.967,0,0,0-1.5.41,2.967,2.967,0,0,0-1.5-.41,3.066,3.066,0,0,0-1.114.21l-10,4c-0.135.06-.263,0.12-0.386,0.19-0.123-.07-0.251-0.13-0.386-0.19l-10-4A3.066,3.066,0,0,0,172,1508a2.937,2.937,0,0,0-1.682.52A2.977,2.977,0,0,0,169,1511v33a3.007,3.007,0,0,0,1.886,2.79l10,4A3.066,3.066,0,0,0,182,1551a2.967,2.967,0,0,0,1.5-.41,2.967,2.967,0,0,0,1.5.41,3.066,3.066,0,0,0,1.114-.21l10-4c0.135-.06.263-0.12,0.386-0.19,0.123,0.07.251,0.13,0.386,0.19l10,4A3.066,3.066,0,0,0,208,1551a2.937,2.937,0,0,0,1.682-.52A2.977,2.977,0,0,0,211,1548v-33A3.007,3.007,0,0,0,209.114,1512.21ZM172,1544v-33l10,4v33Zm13,4v-33l10-4v33Zm23,0-10-4v-33l10,4v33Z" transform="translate(-169 -1508)"/>
</svg>
