<svg xmlns="http://www.w3.org/2000/svg" width="44" height="39" viewBox="0 0 44 39">
  <defs>
    <style>
      .cls-1 {
        fill-rule: evenodd;
      }
    </style>
  </defs>
  <path id="Marshmallow" class="cls-1" d="M807.147,3306.5l-0.531-.53,1.779-1.79,0.358,0.36a3.035,3.035,0,0,0,4.294,0l3.875-3.88a3.045,3.045,0,0,0,0-4.3l-0.358-.36,3.419-3.42a1.519,1.519,0,0,0-2.147-2.15l-3.419,3.42-1.37-1.37a3.035,3.035,0,0,0-4.294,0l-3.874,3.88a3.042,3.042,0,0,0,0,4.3l1.37,1.37-1.78,1.79-1.543-1.55a3.035,3.035,0,0,0-4.294,0l-4.221,4.23a3.045,3.045,0,0,0,0,4.3l1.543,1.54-5.066,5.89v-1.85a1.448,1.448,0,1,0-2.895,0v3.94c0,0.25-1.4,1.07-1.287,1.29l-3.279,3.28a1.52,1.52,0,0,0,0,2.15,1.5,1.5,0,0,0,2.146,0l6.134-6.14h3.925a1.52,1.52,0,0,0,0-3.04h-0.889l3.358-3.37,0.531,0.54a3.035,3.035,0,0,0,4.294,0l4.221-4.23A3.043,3.043,0,0,0,807.147,3306.5Zm3.753-11.87,3.875,3.88-3.875,3.88-3.874-3.88Zm-10.121,18.25-4.221-4.23,4.221-4.23,4.221,4.23Zm22.022-.46a9,9,0,0,1-.857-3.78,3.065,3.065,0,0,0-1.647-2.61,3.083,3.083,0,0,0-3.071.17,9.85,9.85,0,0,0-3.593,5.68H813.6a2.894,2.894,0,0,0-.771-0.1,3.031,3.031,0,0,0-1.623.47c-0.352.22-3.214,2.12-3.214,7.5,0,6.49,6.14,8.89,9.5,9.24,0.1,0.01.21,0.02,0.315,0.02a8.918,8.918,0,0,0,9.193-8.79A10.047,10.047,0,0,0,822.8,3312.42Zm-4.988,13.55s-6.79-.79-6.79-6.22c0-3.84,1.814-4.93,1.814-4.93s1.621,3.04,3.037,3.04c0,0,0-7.1,3.036-9.13,0,0,.137,4.67,2.024,6.09a7.039,7.039,0,0,1,3.036,5.4A5.87,5.87,0,0,1,817.813,3325.97Z" transform="translate(-783 -3290)"/>
</svg>
