<svg xmlns="http://www.w3.org/2000/svg" width="44" height="44" viewBox="0 0 44 44">
  <defs>
    <style>
      .cls-1 {
        fill-rule: evenodd;
      }
    </style>
  </defs>
  <path id="Menu" class="cls-1" d="M123.416,1262.82A21.929,21.929,0,0,0,101.523,1243c-0.731,0-1.472.04-2.2,0.11a22,22,0,0,0,2.157,43.89c0.731,0,1.472-.04,2.2-0.11A22,22,0,0,0,123.416,1262.82Zm-20.033,21.09q-0.96.09-1.906,0.09a19,19,0,0,1-1.86-37.91q0.96-.09,1.906-0.09A19,19,0,0,1,103.383,1283.91Zm7.628-19.91H91.989a1.5,1.5,0,1,0,0,3h19.022A1.5,1.5,0,1,0,111.011,1264Zm0-6H91.989a1.5,1.5,0,1,0,0,3h19.022A1.5,1.5,0,1,0,111.011,1258Zm0,12H91.989a1.5,1.5,0,1,0,0,3h19.022A1.5,1.5,0,1,0,111.011,1270Z" transform="translate(-79.5 -1243)"/>
</svg>
