<svg xmlns="http://www.w3.org/2000/svg" width="44" height="40" viewBox="0 0 44 40">
  <defs>
    <style>
      .cls-1 {
        fill-rule: evenodd;
      }
    </style>
  </defs>
  <path id="Message" class="cls-1" d="M467,2134a6,6,0,0,1,6,6v16a6,6,0,0,1-6,6H448.75l-6.75,6v-6h-1a6,6,0,0,1-6-6v-16a6,6,0,0,1,6-6h26m0-3H441a9.012,9.012,0,0,0-9,9v16a9.024,9.024,0,0,0,7,8.78V2168a3.012,3.012,0,0,0,1.771,2.74A3.109,3.109,0,0,0,442,2171a2.99,2.99,0,0,0,1.994-.76l5.9-5.24H467a9.012,9.012,0,0,0,9-9v-16a9.012,9.012,0,0,0-9-9h0Zm-11.5,17a1.5,1.5,0,1,1-1.5-1.5A1.5,1.5,0,0,1,455.5,2148Zm10,0a1.5,1.5,0,1,1-1.5-1.5A1.5,1.5,0,0,1,465.5,2148Zm-19.875,0a1.5,1.5,0,1,1-1.5-1.5A1.5,1.5,0,0,1,445.625,2148Z" transform="translate(-432 -2131)"/>
</svg>
