<svg xmlns="http://www.w3.org/2000/svg" width="46" height="42" viewBox="0 0 46 42">
  <defs>
    <style>
      .cls-1 {
        fill-rule: evenodd;
      }
    </style>
  </defs>
  <path id="Molecula" class="cls-1" d="M278,3568.91h0a4.959,4.959,0,0,0-3.165,1.14,5.094,5.094,0,0,0-.7,7.11,4.97,4.97,0,0,0,7.036.71,5.1,5.1,0,0,0,.7-7.11A4.953,4.953,0,0,0,278,3568.91Zm1.267,6.61a1.982,1.982,0,0,1-2.814-.28,2.043,2.043,0,0,1,.282-2.85,2.012,2.012,0,0,1,1.265-.45,1.981,1.981,0,0,1,1.549.74A2.032,2.032,0,0,1,279.266,3575.52Zm21.734-.77c0-3.9-3.309-6.81-8.134-8.67,0.022-.14.054-0.28,0.073-0.42,1.035-7.25-1.71-10.03-3.439-11.03a6.479,6.479,0,0,0-3.322-.87c-2.5,0-5.327,1.31-8.178,3.63-2.851-2.32-5.681-3.63-8.178-3.63h0a6.477,6.477,0,0,0-3.322.87c-1.729,1-4.474,3.78-3.439,11.03,0.019,0.14.051,0.28,0.073,0.42-4.825,1.86-8.134,4.77-8.134,8.67s3.317,6.81,8.152,8.67c-0.816,5.14.006,9.5,3.348,11.45a6.578,6.578,0,0,0,3.321.87c2.5,0,5.328-1.32,8.179-3.64,2.851,2.32,5.681,3.64,8.178,3.64a6.579,6.579,0,0,0,3.322-.87c3.342-1.95,4.164-6.31,3.348-11.45C297.683,3581.56,301,3578.65,301,3574.75Zm-13-17.5c1.9,1.11,2.513,4.04,1.98,7.89a41.278,41.278,0,0,0-5.822-1.13,41.3,41.3,0,0,0-3.889-4.56c2.165-1.7,4.222-2.66,5.909-2.66A3.594,3.594,0,0,1,288,3557.25Zm0.507,21.26c0.343,0.98.64,1.95,0.878,2.88-0.914.25-1.888,0.47-2.9,0.67,0.355-.58.7-1.16,1.046-1.76S288.193,3579.11,288.507,3578.51Zm-3.579.28c-0.774,1.35-1.591,2.63-2.43,3.82-1.448.14-2.949,0.22-4.5,0.22s-3.05-.08-4.5-0.22c-0.839-1.19-1.656-2.47-2.43-3.82s-1.458-2.71-2.067-4.04c0.609-1.34,1.292-2.69,2.067-4.04s1.591-2.63,2.43-3.83q2.172-.21,4.5-0.21t4.5,0.21c0.839,1.2,1.656,2.47,2.43,3.83s1.458,2.7,2.067,4.04C286.386,3576.08,285.7,3577.43,284.928,3578.79ZM278,3588.03c-0.681-.68-1.363-1.42-2.04-2.21,0.679,0.02,1.36.04,2.04,0.04s1.361-.02,2.04-0.04C279.363,3586.61,278.681,3587.35,278,3588.03Zm-9.526-7.73c0.342,0.6.691,1.19,1.046,1.76-1.016-.2-1.991-0.42-2.9-0.67,0.238-.93.535-1.9,0.878-2.89C267.807,3579.11,268.133,3579.7,268.474,3580.3Zm-0.98-9.31c-0.344-.99-0.641-1.95-0.879-2.88,0.914-.26,1.889-0.48,2.9-0.67-0.355.57-.7,1.15-1.046,1.75S267.809,3570.38,267.494,3570.99ZM278,3561.47c0.681,0.67,1.363,1.41,2.04,2.21-0.679-.03-1.36-0.05-2.04-0.05s-1.361.02-2.04,0.05C276.637,3562.88,277.32,3562.14,278,3561.47Zm9.526,7.72c-0.342-.6-0.691-1.18-1.046-1.75,1.017,0.19,1.991.41,2.9,0.67-0.238.93-.535,1.89-0.879,2.88Q288.034,3570.075,287.526,3569.19ZM268,3557.25a3.593,3.593,0,0,1,1.821-.46c1.688,0,3.745.96,5.91,2.66a41.3,41.3,0,0,0-3.889,4.56,41.278,41.278,0,0,0-5.822,1.13C265.487,3561.29,266.1,3558.36,268,3557.25Zm-10,17.5c0-2.21,2.2-4.22,5.761-5.67a42.473,42.473,0,0,0,1.962,5.68,42,42,0,0,0-1.944,5.66C260.208,3578.97,258,3576.96,258,3574.75Zm10,17.49c-1.9-1.11-2.513-4.04-1.98-7.89a41.278,41.278,0,0,0,5.822,1.13,40.4,40.4,0,0,0,3.889,4.56c-2.165,1.7-4.222,2.67-5.91,2.67A3.5,3.5,0,0,1,268,3592.24Zm20,0a3.5,3.5,0,0,1-1.822.47c-1.687,0-3.744-.97-5.909-2.67a40.4,40.4,0,0,0,3.889-4.56,41.251,41.251,0,0,0,5.822-1.13C290.513,3588.2,289.9,3591.13,288,3592.24Zm4.221-11.82a42,42,0,0,0-1.944-5.66,42.473,42.473,0,0,0,1.962-5.68c3.56,1.45,5.761,3.46,5.761,5.67S295.792,3578.97,292.221,3580.42Z" transform="translate(-255 -3553.75)"/>
</svg>
