<svg xmlns="http://www.w3.org/2000/svg" width="50" height="43" viewBox="0 0 50 43">
  <defs>
    <style>
      .cls-1 {
        fill-rule: evenodd;
      }
    </style>
  </defs>
  <path id="Money_box" data-name="Money box" class="cls-1" d="M640.5,2407a1.5,1.5,0,1,0,1.508,1.5A1.5,1.5,0,0,0,640.5,2407Zm8.3-1.25c-1.675-4-5.1-6.95-9.8-8.62l1.255-4.19a1.517,1.517,0,0,0-2.092-1.81L628,2396c-11.58.28-19.678,5.98-20,15-1.542-.43-2-0.1-2-1a3.937,3.937,0,0,1,1.387-2.3,1.522,1.522,0,0,0-2.154-2.15A7.307,7.307,0,0,0,603,2411c0,2.89,2.7,3,5,3,0.724,4.13,4.2,7.3,6.87,9.46v5.25a5.293,5.293,0,0,0,5.077,5.28h2.608a5.217,5.217,0,0,0,4.858-3.73c0.584,0.04,1.165-.01,1.742-0.01s1.162,0.09,1.742.05a5.182,5.182,0,0,0,4.857,3.69h3.419A4.763,4.763,0,0,0,644,2429v-5a15.819,15.819,0,0,0,4.255-5.19,5.064,5.064,0,0,0,4.76-5.04v-3.04A5.074,5.074,0,0,0,648.795,2405.75Zm1.174,8.02A2.167,2.167,0,0,1,648,2416h-2c-0.938,2.9-2.325,4.1-5,6v7a1.818,1.818,0,0,1-1.827,1.99l-3.419-.03a2.3,2.3,0,0,1-2.03-2.31v-2.01a20.684,20.684,0,0,1-4.569.51,20.1,20.1,0,0,1-4.569-.53v2.03a2.3,2.3,0,0,1-2.031,2.31l-2.608.03a2.274,2.274,0,0,1-2.031-2.28V2422c-3.727-2.75-6.916-5.44-6.916-10,0-7.64,7.389-12.24,16-13,2.023,0,9.374-3.72,9.374-3.72l-2.079,6.93a1.52,1.52,0,0,0,1.023,1.89,1.655,1.655,0,0,0,.437.06,1.517,1.517,0,0,0,1.459-1.08l0.916-3.06A11.993,11.993,0,0,1,646,2409h2a1.979,1.979,0,0,1,2,2Z" transform="translate(-603 -2391)"/>
</svg>
