<svg xmlns="http://www.w3.org/2000/svg" width="44.687" height="39" viewBox="0 0 44.687 39">
  <defs>
    <style>
      .cls-1 {
        fill-rule: evenodd;
      }
    </style>
  </defs>
  <path id="Mountains" class="cls-1" d="M475.559,3765.78l-8.053-18a3.025,3.025,0,0,0-2.76-1.78h0a3.026,3.026,0,0,0-2.76,1.78l-0.753,1.69-5.71-16.45a3.027,3.027,0,0,0-5.709,0l-3.861,11.12-0.51-1.41a3.028,3.028,0,0,0-5.682,0l-8.44,23.25a2.979,2.979,0,0,0,.369,2.74,3.031,3.031,0,0,0,2.472,1.28H472.8a3.009,3.009,0,0,0,2.532-1.37A2.977,2.977,0,0,0,475.559,3765.78ZM452.668,3734l6.767,19.49-5.5,12.29a2.969,2.969,0,0,0-.241,1.22H441.208Zm-10.066,9.75,1.781,4.91-6.03,17.36a2.987,2.987,0,0,0-.145.98h-4.046ZM456.694,3767l8.052-18,8.053,18h-16.1ZM468,3743a5,5,0,1,0-5-5A4.992,4.992,0,0,0,468,3743Zm0-7a2,2,0,1,1-2,2A2,2,0,0,1,468,3736Z" transform="translate(-431.125 -3731)"/>
</svg>
