<svg xmlns="http://www.w3.org/2000/svg" width="32" height="38" viewBox="0 0 32 38">
  <defs>
    <style>
      .cls-1 {
        fill-rule: evenodd;
      }
    </style>
  </defs>
  <path id="Music" class="cls-1" d="M381.382,3027.31a1.5,1.5,0,0,0-1.33-.22l-18.884,5.87A2.547,2.547,0,0,0,360,3035v19a9.4,9.4,0,0,0-5.788.33,7.093,7.093,0,0,0-3.524,3.07,4.936,4.936,0,0,0,3.032,7.35,6.534,6.534,0,0,0,1.823.25,7.313,7.313,0,0,0,2.84-.58c2.727-1.13,4.617-4.44,4.617-7.42v-22l16.012-4.46v17.77a6.053,6.053,0,0,0-1.059-.42,7.364,7.364,0,0,0-8.2,3.39,5.1,5.1,0,0,0-.339,4.43,5.464,5.464,0,0,0,5.227,3.14,7.346,7.346,0,0,0,2.824-.57c1.536-.63,4.53-3.02,4.53-5v-24.77A1.494,1.494,0,0,0,381.382,3027.31Zm-24.136,34.36a4.166,4.166,0,0,1-2.7.21,1.956,1.956,0,0,1-1.255-3.04,4.188,4.188,0,0,1,2.058-1.76,4.382,4.382,0,0,1,1.7-.35,2.531,2.531,0,0,1,2.451,1.31C360.014,3059.29,358.982,3060.95,357.246,3061.67Zm21.137-7.89a4.179,4.179,0,0,1-2.063,1.75c-1.738.72-3.644,0.28-4.16-.96a2.191,2.191,0,0,1,.2-1.86,4.181,4.181,0,0,1,2.064-1.75,4.528,4.528,0,0,1,1.71-.35,3.581,3.581,0,0,1,.993.13,2.188,2.188,0,0,1,1.456,1.18h0A2.195,2.195,0,0,1,378.383,3053.78Z" transform="translate(-350 -3027)"/>
</svg>
