<svg xmlns="http://www.w3.org/2000/svg" width="44" height="44" viewBox="0 0 44 44">
  <defs>
    <style>
      .cls-1 {
        fill-rule: evenodd;
      }
    </style>
  </defs>
  <path id="Palette" class="cls-1" d="M620,3042.95a4.983,4.983,0,0,0,4.689-3.15,3.018,3.018,0,0,1,.432-0.72,2.07,2.07,0,0,1,.8-0.5,5.7,5.7,0,0,0,2.412-1.72,5.318,5.318,0,0,0-.207-5.99,4.37,4.37,0,0,0-3.129-1.28,8.357,8.357,0,0,0-4.785,1.99c-1.269.94-4.219,3.45-4.207,6.4C616.012,3040.81,617.731,3042.95,620,3042.95Zm2-8.97a5.942,5.942,0,0,1,2.992-1.4,1.388,1.388,0,0,1,1.008.4,3.315,3.315,0,0,1,0,1.99c-0.826,1.02-1.688.69-3,2s-1.036,2.99-3,2.99c-0.508,0-1-.98-1-2C619,3036.69,620.588,3035.03,622,3033.98Zm26.38-.06c0.39-.49.658-0.83,0.764-0.97a4.245,4.245,0,0,0-.084-6.01c-1.74-1.73-4.26-.8-6.029.91-0.071.05-.18,0.13-0.311,0.22A21.989,21.989,0,0,0,608,3045.93a21.68,21.68,0,0,0,2.468,10.06,19.72,19.72,0,0,0-2.4,8.89,3.064,3.064,0,0,0,2.166,3,3.521,3.521,0,0,0,.842.11,2.767,2.767,0,0,0,2.417-1.35,3.483,3.483,0,0,1,2.518-.8,13.032,13.032,0,0,0,3.742-.53A21.916,21.916,0,0,0,648.38,3033.92Zm-3.32-3.87a5.908,5.908,0,0,1,1.088-.8,1.044,1.044,0,0,1,.792-0.19,1.258,1.258,0,0,1-.034,1.9c-0.029.03-.058,0.07-0.086,0.1-0.109.14-10.976,13.91-14.423,17.23a18.433,18.433,0,0,1-6.959,3.94l-1.624-1.62a41,41,0,0,1,4.229-6.85c2.961-3.66,16.69-13.45,16.829-13.55A1.513,1.513,0,0,0,645.06,3030.05ZM611,3045.93a18.976,18.976,0,0,1,29.137-15.98c-4.343,3.19-12.1,9.06-14.429,11.93a45.315,45.315,0,0,0-4.946,8.15,6.878,6.878,0,0,0-1.556-.18,8.914,8.914,0,0,0-6.327,2.94c-0.142.14-.266,0.29-0.4,0.43A18.706,18.706,0,0,1,611,3045.93Zm0.063,18.94s-0.032-6.01,3.937-9.97a5.98,5.98,0,0,1,4.206-2.06,4.334,4.334,0,0,1,2.815,1.05c2.646,2.63,2.3,4.67.979,5.99a9.466,9.466,0,0,1-6.994,2.97C612.478,3062.85,611.063,3064.87,611.063,3064.87Zm18.937,0a18.848,18.848,0,0,1-6.782-1.27,14.29,14.29,0,0,0,1.9-1.6,5.932,5.932,0,0,0,1.292-6.94,21.337,21.337,0,0,0,8.068-4.62c2.5-2.41,8.393-9.64,11.917-14.04a18.727,18.727,0,0,1,2.6,9.53A18.971,18.971,0,0,1,630,3064.87Zm2.5-7.97a2.49,2.49,0,1,0,2.5,2.49A2.492,2.492,0,0,0,632.5,3056.9Zm8-4.99a2.5,2.5,0,1,0,2.5,2.49A2.5,2.5,0,0,0,640.5,3051.91Zm4-7.97a2.49,2.49,0,1,0,2.5,2.49A2.5,2.5,0,0,0,644.5,3043.94Z" transform="translate(-608 -3024)"/>
</svg>
