<svg xmlns="http://www.w3.org/2000/svg" width="39" height="35.97" viewBox="0 0 39 35.97">
  <defs>
    <style>
      .cls-1 {
        fill-rule: evenodd;
      }
    </style>
  </defs>
  <path id="Pear" class="cls-1" d="M208.437,3204.62c-4.675,0-7.107,2.22-8.1,4.07a9.065,9.065,0,0,0-5.059-1.54c-2.983,0-5.884,2.48-8.691,4.87a28.267,28.267,0,0,1-2.826,2.23A13.173,13.173,0,1,0,197.3,3227.8a28.717,28.717,0,0,1,2.231-2.83c2.389-2.81,4.86-5.71,4.86-8.7a9.056,9.056,0,0,0-1.723-5.31,1.726,1.726,0,0,0,.158-0.39c0.075-.24,1.01-2.91,5.615-2.91A1.52,1.52,0,0,0,208.437,3204.62Zm-14.173,22.8a10.124,10.124,0,1,1-10.123-10.13c2.139,0,7.781-7.1,11.135-7.1a6.082,6.082,0,0,1,6.074,6.08C201.35,3219.63,194.264,3225.28,194.264,3227.42Z" transform="translate(-170.969 -3204.62)"/>
</svg>
