<svg xmlns="http://www.w3.org/2000/svg" width="44" height="44" viewBox="0 0 44 44">
  <defs>
    <style>
      .cls-1 {
        fill-rule: evenodd;
      }
    </style>
  </defs>
  <path id="Percent" class="cls-1" d="M893,2390a22,22,0,1,0,22,22A22.025,22.025,0,0,0,893,2390Zm0,41a19,19,0,1,1,19-19A19,19,0,0,1,893,2431Zm-3-25a5,5,0,1,0-5,5A5,5,0,0,0,890,2406Zm-7,0a2,2,0,1,1,2,2A2,2,0,0,1,883,2406Zm16,9a5,5,0,1,0,5,5A5,5,0,0,0,899,2415Zm0,7a2,2,0,1,1,2-2A2,2,0,0,1,899,2422Zm4.061-20.06a1.493,1.493,0,0,0-2.122,0l-19,19a1.5,1.5,0,1,0,2.122,2.12l19-19A1.5,1.5,0,0,0,903.061,2401.94Z" transform="translate(-871 -2390)"/>
</svg>
