<svg xmlns="http://www.w3.org/2000/svg" width="41.812" height="43" viewBox="0 0 41.812 43">
  <defs>
    <style>
      .cls-1 {
        fill-rule: evenodd;
      }
    </style>
  </defs>
  <path id="Pizza" class="cls-1" d="M444.149,3318.5a1.5,1.5,0,1,0,1.492,1.5A1.5,1.5,0,0,0,444.149,3318.5Zm6.966-15a1.5,1.5,0,1,0-1.493-1.5A1.5,1.5,0,0,0,451.115,3303.5Zm16.043-5.62c-8.566-8.61-16.291-9.8-16.616-9.85a3.044,3.044,0,0,0-.424-0.03,2.983,2.983,0,0,0-2.815,2.01l-12.937,37a3.005,3.005,0,0,0,.715,3.12,2.964,2.964,0,0,0,3.115.69l35.826-13a3,3,0,0,0,1.971-2.82C475.993,3314.66,475.892,3306.66,467.158,3297.88ZM437.183,3328l10.591-30.29a26.508,26.508,0,0,1,11.242,6.35c4.862,4.89,7.3,12.43,7.557,13.28Zm32.2-11.69c-0.467-1.48-3.041-9.13-8.258-14.37a29.251,29.251,0,0,0-12.359-7.07l1.352-3.87s6.967,1,14.928,9,7.961,15,7.961,15ZM453.105,3305a7,7,0,1,0,6.966,7A6.991,6.991,0,0,0,453.105,3305Zm0,11a4,4,0,1,1,3.98-4A3.99,3.99,0,0,1,453.105,3316Z" transform="translate(-434.188 -3288)"/>
</svg>
