<svg xmlns="http://www.w3.org/2000/svg" width="46" height="43" viewBox="0 0 46 43">
  <defs>
    <style>
      .cls-1 {
        fill-rule: evenodd;
      }
    </style>
  </defs>
  <path id="Plane" class="cls-1" d="M212.7,3663.92a1.332,1.332,0,0,0-.162-0.14L209,3661v-7a2.9,2.9,0,0,0-2.887-3H204.1a3.075,3.075,0,0,0-3.1,3v2l-5-4v-5c0-3.36-2.177-6-5-6s-5.038,2.64-5.038,6v4.96l-5.039,3.61V3654a3.009,3.009,0,0,0-3.023-3h-2.015a2.892,2.892,0,0,0-2.883,3v7l-3.544,2.78a1.261,1.261,0,0,0-.162.14,3.888,3.888,0,0,0-.731,4.89,3.345,3.345,0,0,0,2.952,1.39,6.25,6.25,0,0,0,1.85-.29l12.6-4.43v3.77l-5.845,4.35a2.983,2.983,0,0,0-1.054,3.35,3.026,3.026,0,0,0,2.868,2.05h4.745c0.789,3.1,2.012,5,4.324,5s3.535-1.9,4.324-5h4.745a3.023,3.023,0,0,0,2.793-1.85,2.986,2.986,0,0,0-.655-3.27l-6.046-6a0.93,0.93,0,0,0-.123-0.1v-2.3l12.654,4.45a6.061,6.061,0,0,0,1.782.28,3.359,3.359,0,0,0,2.961-1.4A3.888,3.888,0,0,0,212.7,3663.92ZM176,3654h2v4l-2,1v-5Zm-3.579,13.06a3.211,3.211,0,0,1-1.311.13,0.909,0.909,0,0,1,.227-1.05l14.623-10.48v6.64Zm9.508,8.94,4.031-3v2a2.961,2.961,0,0,0,.032.44c0.028,0.19.058,0.37,0.088,0.56h-4.151Zm11.084-1s-0.888,6-2.015,6-2.015-6-2.015-6v-28c0-1.66.9-3,2.015-3s2.015,1.34,2.015,3v28ZM204,3654h2v5l-2-1v-4Zm-3.933,22h-4.151c0.03-.19.06-0.37,0.088-0.56a2.961,2.961,0,0,0,.032-0.44v-3Zm10.871-8.86a2.532,2.532,0,0,1-1.3-.05L196,3662v-6l14.656,10.13A0.951,0.951,0,0,1,210.938,3667.14Z" transform="translate(-168 -3641)"/>
</svg>
