<svg xmlns="http://www.w3.org/2000/svg" width="37.781" height="41" viewBox="0 0 37.781 41">
  <defs>
    <style>
      .cls-1 {
        fill-rule: evenodd;
      }
    </style>
  </defs>
  <path id="Potato" class="cls-1" d="M561.214,3306.14a2.975,2.975,0,0,0-2.339-1.14v-11a2.989,2.989,0,0,0-2.981-3h-1.987a2.988,2.988,0,0,0-2.98,3v3.93L549.4,3295a2.744,2.744,0,0,0-1.686-1.39,2.472,2.472,0,0,0-.709-0.11,2.819,2.819,0,0,0-1.459.41l-1.706,1c-0.024.01-.042,0.03-0.065,0.04a2.984,2.984,0,0,0-2.784-1.95h-1.465a2.966,2.966,0,0,0-1.623-1.27l-1.9-.59a2.7,2.7,0,0,0-.886-0.14,3.058,3.058,0,0,0-1.386.34,3.005,3.005,0,0,0-1.46,1.77L528.6,3305h-1.513a2.974,2.974,0,0,0-2.339,1.14,3.009,3.009,0,0,0-.561,2.55l4.968,21a2.98,2.98,0,0,0,2.9,2.31h21.857a2.981,2.981,0,0,0,2.9-2.31l4.967-21A3.009,3.009,0,0,0,561.214,3306.14ZM553.907,3294h1.987v11h-1.987v-11Zm-7.212,2.5,4.232,7.56v1.12a2.9,2.9,0,0,0-1.162.76l-4.666-8.44Zm3.238,11.5-1.987,2v-4Zm-5.961-6.88,1.987,3.46v5.8a6.562,6.562,0,0,1-1.987.55v-9.81Zm-4.967-2.86,0.7-2.26h1.287v14.74a6.131,6.131,0,0,1-1.987-.95v-11.53Zm-3.884-4.26,1.357,0.43a2.947,2.947,0,0,0-.454,1.57v1.81L533.8,3305h-2.081Zm1.9,9v6l-0.994-2Zm16.889,26H532.05l-4.967-21h6.954a9.663,9.663,0,0,0,17.883,0h6.955Z" transform="translate(-524.094 -3291)"/>
</svg>
