<svg xmlns="http://www.w3.org/2000/svg" width="35.75" height="47" viewBox="0 0 35.75 47">
  <defs>
    <style>
      .cls-1 {
        fill-rule: evenodd;
      }
    </style>
  </defs>
  <path id="Potholder" class="cls-1" d="M208.37,3131.01a3.014,3.014,0,0,0-1.3-1.91l-15.787-10.24c1.234-1.28,2.557-3.08,2.557-4.89a5.114,5.114,0,0,0-4.937-5.03,5.049,5.049,0,0,0-4.937,5.03c0,1.97,1.565,3.93,2.877,5.22,0.072,0.07.153,0.12,0.229,0.19a1.882,1.882,0,0,0-.162.19l-13.327,20.91a2.792,2.792,0,0,0-.285.58c-1.175,3.15-1.341,10.11,6.441,13.85a10.144,10.144,0,0,0,4.414,1.01c3.318,0,6.724-1.56,10.124-4.64,0.751-.68,1.417-1.36,1.978-1.98a9.271,9.271,0,0,0,4.85,1.62,5.933,5.933,0,0,0,4.8-2.43c3.08-4.04.828-8.74-.254-11-0.026-.06-0.054-0.12-0.083-0.18,0.531-.99,1.547-2.69,2.4-4.02A3.052,3.052,0,0,0,208.37,3131.01ZM188.9,3111.95a2.149,2.149,0,0,1,1.975,2.02c0,1.11-1.975,3.05-1.975,3.05s-1.975-1.94-1.975-3.05A2.069,2.069,0,0,1,188.9,3111.95Zm13.485,25.22c-0.192.99,3.88,5.92,1.174,9.47a2.983,2.983,0,0,1-2.457,1.27c-2.532,0-5.29-2.77-5.29-2.77s-5.466,7.77-11.662,7.77a7.157,7.157,0,0,1-3.149-.73c-7.363-3.54-4.937-10.05-4.937-10.05l13.327-20.92,16.085,10.44S202.577,3136.19,202.384,3137.17Z" transform="translate(-172.688 -3108.94)"/>
</svg>
