<svg xmlns="http://www.w3.org/2000/svg" width="32" height="43" viewBox="0 0 32 43">
  <defs>
    <style>
      .cls-1 {
        fill-rule: evenodd;
      }
    </style>
  </defs>
  <path id="Rock" class="cls-1" d="M818,3727a5,5,0,0,0-5,5v7h-4a2.889,2.889,0,0,1-3,0h-4a3.009,3.009,0,0,0-1,.18V3732a5,5,0,0,0-10,0v19.99c0,2.01,0,7.01,1,9.01a17.208,17.208,0,0,0,14.875,9c8.822,0,16.125-7,16.125-13v-25A5,5,0,0,0,818,3727Zm-9,15h4v10a2,2,0,0,1-4,0v-10Zm-7,0h4v7.42a4.961,4.961,0,0,0-4-2.23V3742Zm-8-10a2,2,0,0,1,4,0v16.93l-4,4V3732Zm1.113,27.52a12.255,12.255,0,0,1-.816-2.37,2.022,2.022,0,0,1,.46-0.74l5.657-5.65a2,2,0,1,1,2.829,2.83l-5.657,5.65A1.979,1.979,0,0,1,795.113,3759.52ZM820,3757c0,5-6.884,10-13,10-3.919,0-7.619-1.29-10-4a6.113,6.113,0,0,0,2.707-1.64l4.372-4.37A4.89,4.89,0,0,1,811,3757c4,0,5-4.9,5.009-4.9,0-.04-0.009-0.07-0.009-0.1v-20a2,2,0,0,1,4,0v25Z" transform="translate(-791 -3727)"/>
</svg>
