<svg xmlns="http://www.w3.org/2000/svg" width="43" height="43" viewBox="0 0 43 43">
  <defs>
    <style>
      .cls-1 {
        fill-rule: evenodd;
      }
    </style>
  </defs>
  <path id="Saturn" class="cls-1" d="M209.908,3555.15c-1.962-1.96-5.546-1.41-10.66,1.61a20.482,20.482,0,0,0-8.971-1.75c-10.914,0-20.289,7.98-20.289,19.02a22.835,22.835,0,0,0,2.331,8.86c-4.311,6.49-5.415,10.86-3.269,13a4.187,4.187,0,0,0,3.081,1.11c2.47,0,5.537-1.31,8.055-2.67,0.791-.43,1.6-0.91,2.421-1.42,2.41,1.03,6.392,1.11,9.135,1.11,10.845,0,18.268-8.79,18.268-19.59a18.851,18.851,0,0,0-1.567-8.4C211.03,3561.22,211.907,3557.14,209.908,3555.15Zm-2.117,2.11c0.294,0.29.579,1.93-1.176,5.71a20.123,20.123,0,0,0-4.42-4.43C205.7,3556.71,207.37,3556.84,207.791,3557.26Zm-17.514.68a17.6,17.6,0,0,1,7.347,1.35,1.724,1.724,0,0,0,.094.18,1.507,1.507,0,0,0,1.515.68,16.927,16.927,0,0,1,5.787,5.81,72.392,72.392,0,0,1-11.182,14.05,76.7,76.7,0,0,1-11.44,9.49,18.243,18.243,0,0,1-9.406-15.47C172.992,3564.63,180.985,3557.94,190.277,3557.94Zm-11.518,33.76c-4.574,2.47-7.086,2.59-7.592,2.08-0.455-.45-0.264-2.97,2.815-7.94a20.073,20.073,0,0,0,5.555,5.42C179.278,3591.4,179.014,3591.56,178.759,3591.7Zm28.252-17.27c0,9.2-6.036,16.61-15.269,16.61-1.624,0-4.235.4-5.742-.04a82.634,82.634,0,0,0,9.956-8.88,80.97,80.97,0,0,0,10.584-12.87A15.756,15.756,0,0,1,207.011,3574.43Z" transform="translate(-168 -3554)"/>
</svg>
