<svg xmlns="http://www.w3.org/2000/svg" width="38" height="44" viewBox="0 0 38 44">
  <defs>
    <style>
      .cls-1 {
        fill-rule: evenodd;
      }
    </style>
  </defs>
  <path id="Security_check" data-name="Security check" class="cls-1" d="M361,2840c15,0,16,4,16,4v13.3a19.989,19.989,0,0,1-10.195,17.43L361,2878l-5.805-3.27A19.989,19.989,0,0,1,345,2857.3V2844s0-4,16-4m0-3c-7.106,0-12.267.78-15.342,2.32-3.394,1.69-3.658,4.01-3.658,4.68v13.3a23.033,23.033,0,0,0,11.724,20.05l5.805,3.26a2.969,2.969,0,0,0,2.942,0l5.805-3.26A23.033,23.033,0,0,0,380,2857.3V2844a2.979,2.979,0,0,0-.09-0.73c-0.585-2.34-3.821-6.27-18.91-6.27h0Zm-1,27.5a1.509,1.509,0,0,1-1.061-.44l-7-7a1.5,1.5,0,0,1,2.12-2.12l5.94,5.94,9.94-9.94a1.5,1.5,0,1,1,2.12,2.12l-11,11A1.509,1.509,0,0,1,360,2864.5Z" transform="translate(-342 -2837)"/>
</svg>
