<svg xmlns="http://www.w3.org/2000/svg" width="38" height="44" viewBox="0 0 38 44">
  <defs>
    <style>
      .cls-1 {
        fill-rule: evenodd;
      }
    </style>
  </defs>
  <path id="Security_settings" data-name="Security settings" class="cls-1" d="M538,2840c15,0,16,4,16,4v13.3a19.989,19.989,0,0,1-10.2,17.43L538,2878l-5.8-3.27A19.989,19.989,0,0,1,522,2857.3V2844s0-4,16-4m0-3c-7.105,0-12.267.78-15.342,2.32-3.394,1.69-3.658,4.01-3.658,4.68v13.3a23.033,23.033,0,0,0,11.724,20.05l5.8,3.26a2.969,2.969,0,0,0,2.942,0l5.8-3.26A23.033,23.033,0,0,0,557,2857.3V2844a2.979,2.979,0,0,0-.09-0.73c-0.585-2.34-3.821-6.27-18.91-6.27h0Zm0,16.89A2.11,2.11,0,1,1,535.9,2856a2.111,2.111,0,0,1,2.105-2.11m0-3a5.11,5.11,0,1,0,5.105,5.11,5.112,5.112,0,0,0-5.105-5.11h0Zm1-2.89v1.39a6.7,6.7,0,0,1,2.654,1.04l1.044-.98,1.819,1.79-0.961,1.11a6.745,6.745,0,0,1,1.058,2.65H546v2h-1.386a6.727,6.727,0,0,1-1.042,2.65l0.978,1.05-1.786,1.82-1.11-.96a6.859,6.859,0,0,1-2.654,1.05V2864h-2v-1.39a6.7,6.7,0,0,1-2.654-1.04l-1.044.98-1.819-1.79,0.961-1.11a6.745,6.745,0,0,1-1.058-2.65H530v-2h1.386a6.727,6.727,0,0,1,1.042-2.65l-0.978-1.05,1.786-1.82,1.11,0.96a6.859,6.859,0,0,1,2.654-1.05V2848h2m0.263-3h-2.526a3,3,0,0,0-2.641,1.58,2.8,2.8,0,0,0-.86-0.13,2.975,2.975,0,0,0-2.121.88l-1.786,1.79a2.984,2.984,0,0,0-.879,2.12,3.029,3.029,0,0,0,.126.86,2.99,2.99,0,0,0-1.576,2.64v2.52a2.99,2.99,0,0,0,1.576,2.64,3.029,3.029,0,0,0-.126.86,2.984,2.984,0,0,0,.879,2.12l1.786,1.79a2.975,2.975,0,0,0,2.121.88,2.8,2.8,0,0,0,.86-0.13,3,3,0,0,0,2.641,1.58h2.526a3,3,0,0,0,2.641-1.58,2.8,2.8,0,0,0,.86.13,2.975,2.975,0,0,0,2.121-.88l1.786-1.79a2.984,2.984,0,0,0,.879-2.12,3.029,3.029,0,0,0-.126-0.86,2.99,2.99,0,0,0,1.576-2.64v-2.52a2.99,2.99,0,0,0-1.576-2.64,3.029,3.029,0,0,0,.126-0.86,2.984,2.984,0,0,0-.879-2.12l-1.786-1.79a2.975,2.975,0,0,0-2.121-.88,2.8,2.8,0,0,0-.86.13,3,3,0,0,0-2.641-1.58h0Z" transform="translate(-519 -2837)"/>
</svg>
