<svg xmlns="http://www.w3.org/2000/svg" width="38" height="44" viewBox="0 0 38 44">
  <defs>
    <style>
      .cls-1 {
        fill-rule: evenodd;
      }
    </style>
  </defs>
  <path id="Security_prohibition" data-name="Security prohibition" class="cls-1" d="M468.91,2843.27c-0.585-2.34-3.821-6.27-18.91-6.27-7.105,0-12.267.78-15.342,2.32-3.394,1.69-3.658,4.01-3.658,4.68v13.3a23.033,23.033,0,0,0,11.724,20.05l5.805,3.26a2.969,2.969,0,0,0,2.942,0l5.805-3.26A23.033,23.033,0,0,0,469,2857.3V2844A2.979,2.979,0,0,0,468.91,2843.27ZM466,2857.3a19.989,19.989,0,0,1-10.195,17.43L450,2878l-5.805-3.27A19.989,19.989,0,0,1,434,2857.3V2844s0-4,16-4c15,0,16,4,16,4v13.3ZM450,2846a10,10,0,1,0,10,10A10.014,10.014,0,0,0,450,2846Zm0,3a6.945,6.945,0,0,1,3.77,1.11l-9.662,9.66A6.993,6.993,0,0,1,450,2849Zm0,14a6.945,6.945,0,0,1-3.77-1.11l9.661-9.66A6.991,6.991,0,0,1,450,2863Z" transform="translate(-431 -2837)"/>
</svg>
