<svg xmlns="http://www.w3.org/2000/svg" width="38" height="44" viewBox="0 0 38 44">
  <defs>
    <style>
      .cls-1 {
        fill-rule: evenodd;
      }
    </style>
  </defs>
  <path id="Security_close" data-name="Security close" class="cls-1" d="M274,2840c15,0,16,4,16,4v13.3a19.989,19.989,0,0,1-10.195,17.43L274,2878l-5.805-3.27A19.989,19.989,0,0,1,258,2857.3V2844s0-4,16-4m0-3c-7.105,0-12.267.78-15.342,2.32-3.394,1.69-3.658,4.01-3.658,4.68v13.3a23.033,23.033,0,0,0,11.724,20.05l5.805,3.26a2.969,2.969,0,0,0,2.942,0l5.805-3.26A23.033,23.033,0,0,0,293,2857.3V2844a2.979,2.979,0,0,0-.09-0.73c-0.585-2.34-3.821-6.27-18.91-6.27h0Zm-7,14,14,14m0,1.5a1.509,1.509,0,0,1-1.061-.44l-14-14a1.5,1.5,0,1,1,2.122-2.12l14,14A1.5,1.5,0,0,1,281,2866.5Zm-14-1.5,14-14m-14,15.5a1.5,1.5,0,0,1-1.061-2.56l14-14a1.5,1.5,0,0,1,2.122,2.12l-14,14A1.509,1.509,0,0,1,267,2866.5Z" transform="translate(-255 -2837)"/>
</svg>
