<svg xmlns="http://www.w3.org/2000/svg" width="38" height="44" viewBox="0 0 38 44">
  <defs>
    <style>
      .cls-1 {
        fill-rule: evenodd;
      }
    </style>
  </defs>
  <path id="Security_download" data-name="Security download" class="cls-1" d="M732.91,2843.27c-0.585-2.34-3.821-6.27-18.91-6.27-7.105,0-12.267.78-15.342,2.32-3.394,1.69-3.658,4.01-3.658,4.68v13.3a23.033,23.033,0,0,0,11.724,20.05l5.8,3.26a2.969,2.969,0,0,0,2.942,0l5.8-3.26A23.033,23.033,0,0,0,733,2857.3V2844A2.979,2.979,0,0,0,732.91,2843.27ZM730,2857.3a19.989,19.989,0,0,1-10.2,17.43L714,2878l-5.8-3.27A19.989,19.989,0,0,1,698,2857.3V2844s0-4,16-4c15,0,16,4,16,4v13.3Zm-9-2.3v-4a3,3,0,0,0-3-3h-8a3,3,0,0,0-3,3v4a3,3,0,0,0-2.121,5.12l7,7a3,3,0,0,0,4.242,0l7-7A3,3,0,0,0,721,2855Zm-7,10-7-7h3v-7h8v7h3Z" transform="translate(-695 -2837)"/>
</svg>
