<svg xmlns="http://www.w3.org/2000/svg" width="39" height="41" viewBox="0 0 39 41">
  <defs>
    <style>
      .cls-1 {
        fill-rule: evenodd;
      }
    </style>
  </defs>
  <path id="Server" class="cls-1" d="M94.5,1779a1.5,1.5,0,1,0,1.5,1.5A1.5,1.5,0,0,0,94.5,1779Zm-3.5,8h27a3,3,0,0,0,3-3v-7a3,3,0,0,0-3-3H91a3,3,0,0,0-3,3v2H83.5a1.5,1.5,0,0,0-1.5,1.5v29a1.5,1.5,0,0,0,1.5,1.5H88v1a3,3,0,0,0,3,3h27a3,3,0,0,0,3-3v-7a3,3,0,0,0-3-3H91a3,3,0,0,0-3,3v3H85v-12h3v2a3,3,0,0,0,3,3h27a3,3,0,0,0,3-3v-7a3,3,0,0,0-3-3H91a3,3,0,0,0-3,3v2H85v-11h3v2A3,3,0,0,0,91,1787Zm0-10h27v7H91v-7Zm0,28h27v7H91v-7Zm0-14h27v7H91v-7Zm3.5,2a1.5,1.5,0,1,0,1.5,1.5A1.5,1.5,0,0,0,94.5,1793Zm0,14a1.5,1.5,0,1,0,1.5,1.5A1.5,1.5,0,0,0,94.5,1807Z" transform="translate(-82 -1774)"/>
</svg>
