<svg xmlns="http://www.w3.org/2000/svg" width="44" height="44" viewBox="0 0 44 44">
  <defs>
    <style>
      .cls-1 {
        fill-rule: evenodd;
      }
    </style>
  </defs>
  <path id="Settings" class="cls-1" d="M895,1696a8,8,0,1,0,8,8A8.01,8.01,0,0,0,895,1696Zm0,13a5,5,0,1,1,5-5A5,5,0,0,1,895,1709Zm19-11h-3.1c-0.127-.34-0.266-0.67-0.415-1l2.193-2.19a3.011,3.011,0,0,0,0-4.25l-4.243-4.24a3,3,0,0,0-4.243,0l-2.192,2.2q-0.493-.225-1-0.42V1685a3,3,0,0,0-3-3h-6a3,3,0,0,0-3,3v3.1q-0.505.2-1,.42l-2.192-2.2a3,3,0,0,0-4.243,0l-4.243,4.24a3.011,3.011,0,0,0,0,4.25l2.193,2.19c-0.149.33-.288,0.66-0.416,1H876a3,3,0,0,0-3,3v6a3,3,0,0,0,3,3h3.1c0.128,0.34.267,0.67,0.416,1l-2.193,2.19a3.011,3.011,0,0,0,0,4.25l4.243,4.24a3,3,0,0,0,4.243,0l2.192-2.2q0.493,0.225,1,.42v3.1a3,3,0,0,0,3,3h6a3,3,0,0,0,3-3v-3.1q0.505-.2,1-0.42l2.192,2.2a3,3,0,0,0,4.243,0l4.243-4.24a3.011,3.011,0,0,0,0-4.25l-2.193-2.19c0.149-.33.288-0.66,0.415-1H914a3,3,0,0,0,3-3v-6A3,3,0,0,0,914,1698Zm0,9h-5.33a13.91,13.91,0,0,1-1.887,4.54l3.773,3.77-4.242,4.25-3.773-3.78a13.921,13.921,0,0,1-4.541,1.89V1723h-6v-5.33a13.921,13.921,0,0,1-4.541-1.89l-3.773,3.78-4.242-4.25,3.773-3.77a13.91,13.91,0,0,1-1.887-4.54H876v-6h5.33a13.91,13.91,0,0,1,1.887-4.54l-3.773-3.77,4.242-4.25,3.773,3.78a13.921,13.921,0,0,1,4.541-1.89V1685h6v5.33a13.921,13.921,0,0,1,4.541,1.89l3.773-3.78,4.242,4.25-3.773,3.77a13.91,13.91,0,0,1,1.887,4.54H914v6Z" transform="translate(-873 -1682)"/>
</svg>
