<svg xmlns="http://www.w3.org/2000/svg" width="43" height="43" viewBox="0 0 43 43">
  <defs>
    <style>
      .cls-1 {
        fill-rule: evenodd;
      }
    </style>
  </defs>
  <path class="cls-1" d="M366,1521a8,8,0,1,0,8,8A8.01,8.01,0,0,0,366,1521Zm0,13a5,5,0,1,1,5-5A5,5,0,0,1,366,1534Zm19.5-6.5h-2.576a17.009,17.009,0,0,0-15.424-15.42v-2.58a1.5,1.5,0,0,0-3,0v2.58a17.008,17.008,0,0,0-15.424,15.42H345.5a1.5,1.5,0,0,0,0,3h3.576a17.008,17.008,0,0,0,15.424,15.42v3.58a1.5,1.5,0,0,0,3,0v-3.58a17.009,17.009,0,0,0,15.424-15.42H385.5A1.5,1.5,0,0,0,385.5,1527.5ZM366,1543a14,14,0,1,1,14-14A14,14,0,0,1,366,1543Z" transform="translate(-344 -1508)"/>
</svg>
