<svg xmlns="http://www.w3.org/2000/svg" width="44.968" height="32" viewBox="0 0 44.968 32">
  <defs>
    <style>
      .cls-1 {
        fill-rule: evenodd;
      }
    </style>
  </defs>
  <path id="Share" class="cls-1" d="M652.4,2148H649.37a1.5,1.5,0,1,0,0,3H652.4A1.5,1.5,0,1,0,652.4,2148Zm-0.17,8.75-3.032-2a1.72,1.72,0,0,0-2.26.42,1.541,1.541,0,0,0,.578,2.08l3.032,2a1.525,1.525,0,0,0,.84.25,1.505,1.505,0,0,0,1.263-.67A1.489,1.489,0,0,0,652.232,2156.75Zm-3.9-12.32a1.507,1.507,0,0,0,.813-0.23l3.129-1.97a1.492,1.492,0,0,0,.465-2.07,1.522,1.522,0,0,0-2.094-.46l-3.129,1.97a1.545,1.545,0,0,0-.622,2.07A1.792,1.792,0,0,0,648.328,2144.43ZM642.2,2134h-4.161a2.987,2.987,0,0,0-2.978,3v0.09L617.852,2144a3.023,3.023,0,0,0-2.848-2h-3.032a3.014,3.014,0,0,0-3.032,3v10a3.014,3.014,0,0,0,3.032,3H615a3.026,3.026,0,0,0,2.84-1.98l1.872,0.82a1.451,1.451,0,0,0-.163.66,6.913,6.913,0,0,0,3.87,6.34,6.379,6.379,0,0,0,2.87.66,7.5,7.5,0,0,0,4.869-1.87,1.539,1.539,0,0,0,.427-0.63l3.536,1.6a2.985,2.985,0,0,0,2.918,2.4H642.2a2.834,2.834,0,0,0,2.8-3v-26A2.834,2.834,0,0,0,642.2,2134ZM615,2155h-3.032v-10H615v10Zm20,5-17-7v-6l17-6v19Zm-10.22,1.16a3.834,3.834,0,0,1-2.15-3.06l6.051,2.63A3.961,3.961,0,0,1,624.78,2161.16ZM642,2163h-4v-26h4v26Z" transform="translate(-608.938 -2134)"/>
</svg>
