<svg xmlns="http://www.w3.org/2000/svg" width="38" height="39" viewBox="0 0 38 39">
  <defs>
    <style>
      .cls-1 {
        fill-rule: evenodd;
      }
    </style>
  </defs>
  <path id="Share" class="cls-1" d="M729,2156a7,7,0,0,0-5.439,2.6l-11.782-5.89A6.957,6.957,0,0,0,712,2151a7.056,7.056,0,0,0-.278-1.94l11.989-6.49a7.034,7.034,0,1,0-1.433-2.64l-11.989,6.5a7,7,0,1,0,.15,8.97l11.782,5.89A6.995,6.995,0,1,0,729,2156Zm0-22a4,4,0,1,1-4,4A4,4,0,0,1,729,2134Zm-24,21a4,4,0,1,1,4-4A4,4,0,0,1,705,2155Zm24,12a4,4,0,1,1,4-4A4,4,0,0,1,729,2167Z" transform="translate(-698 -2131)"/>
</svg>
