<svg xmlns="http://www.w3.org/2000/svg" width="41" height="42" viewBox="0 0 41 42">
  <defs>
    <style>
      .cls-1 {
        fill-rule: evenodd;
      }
    </style>
  </defs>
  <path id="Ship" class="cls-1" d="M527,3051.01h8.976a3.075,3.075,0,0,0,2.139-.86,2.9,2.9,0,0,0,.886-2.08v-15.02a3.046,3.046,0,0,0-2.19-2.94,2.733,2.733,0,0,0-.8-0.11c-1.029,0-1.847,1.06-2.409,1.97l-9.2,14.58a2.886,2.886,0,0,0-.038,2.97A3.043,3.043,0,0,0,527,3051.01Zm9-17.01v14h-9Zm27.7,20.82a3.07,3.07,0,0,0-2.749-1.67L544,3053v-2h14a2.348,2.348,0,0,0,2.3-1.38,2.891,2.891,0,0,0-.1-3.02l-13.243-20.23a3.089,3.089,0,0,0-2.578-1.38,3.146,3.146,0,0,0-.855.12c-1.914.54-2.522,2.89-2.522,2.89v25H526a3.14,3.14,0,0,0-2.694,1.79,2.9,2.9,0,0,0,.288,3.11l6.113,7.92a3.082,3.082,0,0,0,2.445,1.19h22.412a3.085,3.085,0,0,0,2.405-1.14l6.391-7.92A2.9,2.9,0,0,0,563.7,3054.82ZM557,3048H544v-20Zm-2.436,16.04H532.152L526,3056h35Z" transform="translate(-523 -3025)"/>
</svg>
