<svg xmlns="http://www.w3.org/2000/svg" width="39" height="39" viewBox="0 0 39 39">
  <defs>
    <style>
      .cls-1 {
        fill-rule: evenodd;
      }
    </style>
  </defs>
  <path id="Stars" class="cls-1" d="M729,3570a3,3,0,0,0-1.573-2.64c-6.81-3.68-7.114-3.98-10.838-10.8a3,3,0,0,0-2.633-1.56h-0.008a2.994,2.994,0,0,0-2.632,1.58c-3.66,6.78-3.962,7.09-10.751,10.78a3.008,3.008,0,0,0,0,5.28c6.8,3.69,7.1,3.99,10.8,10.79a3,3,0,0,0,5.273,0c3.691-6.8,3.994-7.1,10.794-10.79A3.007,3.007,0,0,0,729,3570Zm-15,12c-3.965-7.31-4.7-8.04-12-12,7.279-3.97,8.019-4.7,11.955-12,3.994,7.31,4.714,8.04,12.044,12C718.7,3573.96,717.965,3574.7,714,3582Zm22.43,1.36c-2.459-1.33-2.459-1.33-3.794-3.79a3,3,0,0,0-5.273,0c-1.335,2.46-1.335,2.46-3.8,3.79a3.006,3.006,0,0,0,0,5.28c2.46,1.33,2.46,1.33,3.8,3.79a3,3,0,0,0,5.273,0c1.335-2.46,1.335-2.46,3.794-3.79A3.006,3.006,0,0,0,736.431,3583.36ZM730,3591c-1.652-3.04-1.956-3.35-5-5,3.044-1.65,3.348-1.96,5-5,1.652,3.04,1.957,3.35,5,5C731.957,3587.65,731.652,3587.96,730,3591Z" transform="translate(-699 -3555)"/>
</svg>
