<svg xmlns="http://www.w3.org/2000/svg" width="42.532" height="42" viewBox="0 0 42.532 42">
  <defs>
    <style>
      .cls-1 {
        fill-rule: evenodd;
      }
    </style>
  </defs>
  <path id="Star" class="cls-1" d="M629.937,1158l5.938,13H648.74l-8.907,9,1.966,14-11.862-8.17-11.89,8.17,2.983-14-8.906-9H624l5.938-13m0-3a2.97,2.97,0,0,0-2.7,1.74L622.1,1168h-9.976a2.969,2.969,0,0,0-2.743,1.85,3.023,3.023,0,0,0,.644,3.27l7.763,7.85-2.643,12.4a3.018,3.018,0,0,0,1.244,3.12,2.95,2.95,0,0,0,1.658.51,2.913,2.913,0,0,0,1.67-.52l10.218-7.02,10.191,7.02a2.923,2.923,0,0,0,1.673.52,2.962,2.962,0,0,0,1.569-.45,3.011,3.011,0,0,0,1.37-2.97l-1.757-12.52,7.858-7.94a3.026,3.026,0,0,0,.644-3.27,2.969,2.969,0,0,0-2.743-1.85H637.774l-5.141-11.26a2.97,2.97,0,0,0-2.7-1.74h0Z" transform="translate(-609.156 -1155)"/>
</svg>
