<svg xmlns="http://www.w3.org/2000/svg" width="43" height="44" viewBox="0 0 43 44">
  <defs>
    <style>
      .cls-1 {
        fill-rule: evenodd;
      }
    </style>
  </defs>
  <path id="Surfing" class="cls-1" d="M827.453,3144.01c-2.693,0-3.8,1.95-4.536,3.25s-1.07,1.75-1.945,1.75-1.21-.46-1.946-1.75-1.843-3.25-4.536-3.25-3.8,1.95-4.536,3.25-1.07,1.75-1.945,1.75-0.651-.41-2.009-1.01c0.315,0.14.03-4.48,0-6a3.811,3.811,0,0,0,2.322,1.01c2.72,0,3.828-1.99,4.561-3.3,0.76-1.36,1.055-1.7,1.824-1.7s1.063,0.34,1.823,1.7c0.733,1.31,1.842,3.3,4.562,3.3s3.828-1.99,4.561-3.3c0.76-1.36,1.054-1.7,1.823-1.7a1.5,1.5,0,1,0,0-3c-2.653,0-3.746,1.95-4.468,3.25s-1.055,1.75-1.916,1.75-1.192-.46-1.917-1.75-1.815-3.25-4.468-3.25-3.746,1.95-4.469,3.25-1.054,1.75-1.916,1.75-1.6-.71-2.322-2.01h0c0-.79.01-1.26,0-2-0.009-.69,0-1.4,0-2,0-14.22-7.466-21-7.8-21.28a3.044,3.044,0,0,0-3.932,0c-0.33.28-8.258,7.28-8.258,21.36q0,0.9-.014,1.92c-0.077,5.58-.029,13.45,3.99,17.5a9.058,9.058,0,0,0,12.5,0,10.044,10.044,0,0,0,1.878-2.69c0.747,1.13,1.535,1.2,3.645,1.2,2.761,0,3.886-1.99,4.63-3.3,0.772-1.36,1.071-1.7,1.851-1.7s1.079,0.34,1.851,1.7c0.745,1.31,1.87,3.33,4.631,3.3,1.964-.03,1.628-2.05,4.63-3.3,1.445-.6,1.071-1.7,1.851-1.7A1.5,1.5,0,1,0,827.453,3144.01Zm-35.426-23.07L803,3131v3c0,0.59-.009,1.33,0,2l-12.083-12.41A27.1,27.1,0,0,1,792.027,3120.94Zm4.211-5.94s4.554,3.89,6.338,12.17l-9-8.94A16.712,16.712,0,0,1,796.238,3115Zm0,38c-8.054,0-7.285-12.98-7.238-19a32.75,32.75,0,0,1,.968-7.11l13.256,13.17c0.025,0.03.058,0.03,0.084,0.06C803.178,3146.27,802.149,3153,796.238,3153Z" transform="translate(-786 -3112)"/>
</svg>
