<svg xmlns="http://www.w3.org/2000/svg" width="43" height="40" viewBox="0 0 43 40">
  <defs>
    <style>
      .cls-1 {
        fill-rule: evenodd;
      }
    </style>
  </defs>
  <path id="Telescope" class="cls-1" d="M648.81,3570.62l-2.864-.78a2.731,2.731,0,0,0-.694-0.09,2.97,2.97,0,0,0-1.916-1.67l-3.818-1.04c-0.058-.01-0.116-0.01-0.174-0.02a3.037,3.037,0,0,0-.381-1.3,2.934,2.934,0,0,0-1.8-1.41l-17.182-4.68c-0.058-.01-0.116-0.01-0.174-0.02a3,3,0,0,0-2.183-2.71l-2.863-.78a2.916,2.916,0,0,0-2.248.31,3,3,0,0,0-1.377,1.84l-3.041,11.74a3.041,3.041,0,0,0,2.1,3.71l2.863,0.78a2.916,2.916,0,0,0,2.248-.31,2.9,2.9,0,0,0,.957-0.93c0.057,0.02.108,0.05,0.166,0.07l8.387,2.28L620.3,3594.1a1.529,1.529,0,0,0,1.077,1.85,1.493,1.493,0,0,0,1.8-1.11l4.5-18.45,4.7,1.28,3.716,17.13a1.489,1.489,0,0,0,1.445,1.19,1.194,1.194,0,0,0,.322-0.04,1.516,1.516,0,0,0,1.125-1.81l-3.527-16.26a2.914,2.914,0,0,0,1.367-1.12,0.9,0.9,0,0,0,.153.06l3.818,1.04a2.873,2.873,0,0,0,.763.1,2.9,2.9,0,0,0,1.714-.56,2.779,2.779,0,0,0,.641.26l2.863,0.78a2.821,2.821,0,0,0,.761.1,2.917,2.917,0,0,0,1.487-.41,2.994,2.994,0,0,0,1.376-1.84l0.507-1.96A3.04,3.04,0,0,0,648.81,3570.62Zm-12.253-3.47-1.976,8.09c-0.315-.2-17.39-4.85-17.39-4.85l1.37-5.29,0.658-2.53Zm-25.6,3.64L614,3559.05l2.864,0.78-1.164,4.49-1.371,5.29h0l-0.506,1.96Zm30.605,4.14-3.818-1.04,1.014-3.91,3.818,1.04Zm5.981,0.58-2.864-.78,0.507-1.96,2.864,0.78Z" transform="translate(-608 -3556)"/>
</svg>
