<svg xmlns="http://www.w3.org/2000/svg" width="26" height="44" viewBox="0 0 26 44">
  <defs>
    <style>
      .cls-1 {
        fill-rule: evenodd;
      }
    </style>
  </defs>
  <path id="Time" class="cls-1" d="M113,1431v-9a3,3,0,0,0-3-3H90a3,3,0,0,0-3,3v9a3,3,0,0,0,.993,2.23l8.633,7.77-8.633,7.77A3,3,0,0,0,87,1451v9a3,3,0,0,0,3,3h20a3,3,0,0,0,3-3v-9a3,3,0,0,0-.993-2.23l-8.634-7.77,8.634-7.77A3,3,0,0,0,113,1431Zm-3,29H90v-1h20v1Zm0-4H90v-5l9.065-8.16a2.812,2.812,0,0,0,1.87,0L110,1451v5Zm0-25-9.065,8.16a2.813,2.813,0,0,0-1.87,0L90,1431v-9h20v9Z" transform="translate(-87 -1419)"/>
</svg>
