<svg xmlns="http://www.w3.org/2000/svg" width="43" height="40" viewBox="0 0 43 40">
  <defs>
    <style>
      .cls-1 {
        fill-rule: evenodd;
      }
    </style>
  </defs>
  <path id="Track" class="cls-1" d="M467.486,3491.35a12.213,12.213,0,0,1-2.628-1.76c-0.4-.37-0.847-0.85-1.319-1.35-1.765-1.9-4.183-4.5-7.795-4.5-4.092,0-6.3,2.25-7.913,3.9a12.361,12.361,0,0,1-1.856,1.67c-2.774,1.85-5.394,3.6-5.394,6.58,0,4.43,3.91,9.12,7.607,9.12a8.873,8.873,0,0,0,3.937-1.17,6.164,6.164,0,0,1,2.608-.86,9.244,9.244,0,0,1,3.094.88,12.365,12.365,0,0,0,4.528,1.15,9.081,9.081,0,0,0,8.552-9.12C470.907,3493.17,468.766,3492.03,467.486,3491.35Zm-5.131,10.62c-2.283,0-4.789-2.03-7.622-2.03s-4.655,2.03-6.545,2.03-4.575-3.24-4.575-6.08c0-1.09,1.011-2.03,4.044-4.05,2.769-1.85,3.917-5.07,8.087-5.07,3.033,0,5.041,3.22,7.076,5.07,2.75,2.5,5.054,2.44,5.054,4.05A6.053,6.053,0,0,1,462.355,3501.97Zm-12.967-19.3c0.134,0,.269-0.01.4-0.02,3.1-.27,5.264-3.59,4.918-7.55-0.307-3.51-2.374-6.13-5.031-6.53v-2.05a1.517,1.517,0,1,0-3.033,0v2.61a5.579,5.579,0,0,0-2.2,2.38,8.568,8.568,0,0,0-.806,4.56C443.974,3479.9,446.391,3482.67,449.388,3482.67Zm-0.565-11.12h0.139c1.334,0,2.539,1.66,2.727,3.82,0.195,2.23-.773,4.13-2.161,4.25a0.665,0.665,0,0,1-.14.01c-1.334,0-2.539-1.67-2.727-3.82C446.467,3473.58,447.434,3471.67,448.823,3471.55Zm27.633,9.11a5.524,5.524,0,0,0-.94-1.46,7.855,7.855,0,0,0,.951-3.57,1.517,1.517,0,1,0-3.033,0,4.547,4.547,0,0,1-.581,2.12,4.966,4.966,0,0,0-.667-0.05c-2.523,0-4.738,2.17-5.265,5.17a7,7,0,0,0,.42,3.97,4.736,4.736,0,0,0,3.5,2.89,3.931,3.931,0,0,0,.765.07c2.524,0,4.738-2.18,5.266-5.17A7,7,0,0,0,476.456,3480.66Zm-2.567,3.44c-0.27,1.53-1.259,2.66-2.279,2.66a1.91,1.91,0,0,1-.238-0.02c-1.1-.19-1.756-1.69-1.465-3.34a3.064,3.064,0,0,1,1.98-2.62,1.513,1.513,0,0,0,1.043.42,1.214,1.214,0,0,0,.267-0.03A3.355,3.355,0,0,1,473.889,3484.1Zm-29.742,2.74a7,7,0,0,0,.42-3.97c-0.527-3-2.742-5.17-5.265-5.17a4.894,4.894,0,0,0-.766.06,4.588,4.588,0,0,0-.738.21,4.2,4.2,0,0,1-.755-2.34,1.517,1.517,0,1,0-3.033,0,7.454,7.454,0,0,0,1.438,4.27,5.665,5.665,0,0,0-.416.76,6.989,6.989,0,0,0-.42,3.97c0.527,2.99,2.742,5.17,5.266,5.17a3.938,3.938,0,0,0,.765-0.07A4.736,4.736,0,0,0,444.147,3486.84Zm-4.269-.08c-1.02,0-2.01-1.13-2.28-2.66-0.29-1.65.365-3.15,1.465-3.34a0.958,0.958,0,0,1,.238-0.02c1.02-.01,2.01,1.12,2.279,2.66,0.291,1.65-.364,3.15-1.464,3.34A1.91,1.91,0,0,1,439.878,3486.76Zm21.872-4.11a2.781,2.781,0,0,0,.407.02c3.015,0,5.445-2.77,5.779-6.59,0.271-3.11-1.017-5.82-3.094-6.97v-2.59a1.517,1.517,0,1,0-3.033,0v2.06c-2.651.43-4.707,3.03-5.012,6.52C456.452,3479.06,458.627,3482.38,461.75,3482.65Zm-1.931-7.28c0.188-2.16,1.4-3.82,2.756-3.82a0.7,0.7,0,0,1,.144.01c1.407,0.12,2.39,2.03,2.195,4.25-0.188,2.16-1.406,3.82-2.757,3.82h-0.143C460.607,3479.5,459.624,3477.6,459.819,3475.37Z" transform="translate(-434 -3465)"/>
</svg>
