<svg xmlns="http://www.w3.org/2000/svg" width="39" height="43.94" viewBox="0 0 39 43.94">
  <defs>
    <style>
      .cls-1 {
        fill-rule: evenodd;
      }
    </style>
  </defs>
  <path id="Trash" class="cls-1" d="M910,1426h-8a9.946,9.946,0,0,0-19,0h-8c-1.25.01-2,.24-2,2a1.1,1.1,0,0,0,1,1h2v31c0,1.68.843,2.94,2.5,2.94h27c1.657,0,3.5-1.26,3.5-2.94v-31s0.337-.01,1,0c1.083,0,1.975-.02,2-1.95C912.009,1426.35,910.828,1426,910,1426Zm-17.5-4.01A7.139,7.139,0,0,1,899,1426H886A7.139,7.139,0,0,1,892.5,1421.99ZM906,1460h-4v-17a2.173,2.173,0,0,0-1.739-2.01c-0.864,0-1.261,1.16-1.261,2.01v17h-5v-23.48a1.5,1.5,0,1,0-3,0V1460h-5v-17c0-.85-0.419-2.01-1.28-2.01A2.158,2.158,0,0,0,883,1443v17h-4v-31h27v31Z" transform="translate(-873 -1419)"/>
</svg>
