<svg xmlns="http://www.w3.org/2000/svg" width="34" height="42.03" viewBox="0 0 34 42.03">
  <defs>
    <style>
      .cls-1 {
        fill-rule: evenodd;
      }
    </style>
  </defs>
  <path id="Unlocked" class="cls-1" d="M805.5,1542a4.505,4.505,0,1,0-4.5-4.51A4.508,4.508,0,0,0,805.5,1542Zm0-6.01a1.5,1.5,0,1,1-1.5,1.5A1.5,1.5,0,0,1,805.5,1535.99Zm14.5-11H797v-4.75a8.16,8.16,0,0,1,6.814-8.17,8.007,8.007,0,0,1,9.186,7.92v0.5a1.5,1.5,0,0,0,3,0v-0.21a11.2,11.2,0,0,0-9.143-11.15A11.023,11.023,0,0,0,794,1519.99v5h-2a3,3,0,0,0-3,3V1548a3,3,0,0,0,3,3h28a3,3,0,0,0,3-3v-20.01A3,3,0,0,0,820,1524.99Zm0,23.01H792v-20.01h28V1548Z" transform="translate(-789 -1508.97)"/>
</svg>
