<svg xmlns="http://www.w3.org/2000/svg" width="44" height="44" viewBox="0 0 44 44">
  <defs>
    <style>
      .cls-1 {
        fill-rule: evenodd;
      }
    </style>
  </defs>
  <path id="User" class="cls-1" d="M190,1243a22,22,0,1,0,22,22A22.025,22.025,0,0,0,190,1243Zm-19,22a19,19,0,1,1,33.934,11.72,19.225,19.225,0,0,0-9.488-7.39,9.513,9.513,0,0,0,2.554-6.58c0-4.96-3.589-9-8-9s-8,4.04-8,9a9.469,9.469,0,0,0,2.755,6.78,17.812,17.812,0,0,0-9.3,7.69A18.947,18.947,0,0,1,171,1265Zm19.5,3.5c-0.549,0-1.094.04-1.636,0.09-2.213-.61-3.864-2.99-3.864-5.84,0-3.31,2.239-6,5-6s5,2.69,5,6a5.935,5.935,0,0,1-3.677,5.79C191.049,1268.52,190.777,1268.5,190.5,1268.5Zm-12.816,10.95a14.628,14.628,0,0,1,11.032-7.82,7.77,7.77,0,0,0,1.284.12,6.978,6.978,0,0,0,1.655-.19c4.848,0.46,8.991,3.79,11.18,7.42A18.93,18.93,0,0,1,177.684,1279.45Z" transform="translate(-168 -1243)"/>
</svg>
