<svg xmlns="http://www.w3.org/2000/svg" width="41" height="38" viewBox="0 0 41 38">
  <defs>
    <style>
      .cls-1 {
        fill-rule: evenodd;
      }
    </style>
  </defs>
  <path id="User" class="cls-1" d="M190.5,1182c5.514,0,9.5-5.38,9.5-12s-3.986-12-9.5-12-9.5,5.38-9.5,12S184.986,1182,190.5,1182Zm0-21c3.866,0,6.5,4.03,6.5,9s-2.634,9-6.5,9-6.5-4.03-6.5-9S186.634,1161,190.5,1161Zm9.149,20.01a1.5,1.5,0,1,0-.3,2.98,9.753,9.753,0,0,1,8.576,9.01H173.074a9.826,9.826,0,0,1,8.579-9.01,1.5,1.5,0,0,0-.3-2.98c-0.114.01-11.351,1.27-11.351,13.49a1.5,1.5,0,0,0,1.5,1.5h38a1.5,1.5,0,0,0,1.5-1.5C211,1182.28,199.763,1181.02,199.649,1181.01Z" transform="translate(-170 -1158)"/>
</svg>
