<svg xmlns="http://www.w3.org/2000/svg" width="36" height="44" viewBox="0 0 36 44">
  <defs>
    <style>
      .cls-1 {
        fill-rule: evenodd;
      }
    </style>
  </defs>
  <path id="Window" class="cls-1" d="M289,3728H267a7.008,7.008,0,0,0-7,7v30a7.008,7.008,0,0,0,7,7h22a7.008,7.008,0,0,0,7-7v-30A7.008,7.008,0,0,0,289,3728Zm4,37a4,4,0,0,1-4,4H267a4,4,0,0,1-4-4v-30a4,4,0,0,1,4-4h22a4,4,0,0,1,4,4v30Zm-15-29a11,11,0,1,0,11,11A11.01,11.01,0,0,0,278,3736Zm0,19a8,8,0,1,1,8-8A8,8,0,0,1,278,3755Z" transform="translate(-260 -3728)"/>
</svg>
