<?xml version="1.0" encoding="utf-8"?>
<!-- Generator: Adobe Illustrator 26.0.2, SVG Export Plug-In . SVG Version: 6.00 Build 0)  -->
<svg version="1.1" id="Layer_1" xmlns="http://www.w3.org/2000/svg" xmlns:xlink="http://www.w3.org/1999/xlink" x="0px" y="0px"
	 viewBox="0 0 1920 500" style="enable-background:new 0 0 1920 500;" xml:space="preserve">
<style type="text/css">
	.st0{fill:url(#SVGID_00000000222881400507987460000012149187801077955773_);}
	.st1{fill:url(#SVGID_00000040543958124112125620000014245711587156237953_);}
	.st2{fill:url(#SVGID_00000037668094775597185870000017991067315625053329_);}
	.st3{fill:url(#SVGID_00000107560601554547249890000017374358260122872245_);}
	.st4{fill:url(#SVGID_00000052810157058755155890000005605085295437113004_);}
	.st5{fill:url(#SVGID_00000171713741435263259730000016493770834131485111_);}
	.st6{fill:url(#SVGID_00000097489343174364290740000011494101880427005326_);}
	.st7{fill:url(#SVGID_00000015343997857420398130000012077477703081416088_);}
	.st8{fill:url(#SVGID_00000160902481857935253020000006380117905930538381_);}
	.st9{fill:url(#SVGID_00000168103525112935999680000007236680765603050161_);}
	.st10{fill:url(#SVGID_00000062875649893334529500000002063605318039486622_);}
	.st11{fill:url(#SVGID_00000094588870380426964610000005457483157361209986_);}
	.st12{fill:url(#SVGID_00000147202807522238913360000003771185182675416501_);}
	.st13{fill:url(#SVGID_00000121245004775744488810000005493316417817995709_);}
	.st14{fill:url(#SVGID_00000039854447510743065250000011004076369237850509_);}
	.st15{fill:url(#SVGID_00000045613024479494696380000000073822308957482425_);}
	.st16{fill:url(#SVGID_00000121989270085200432460000011895012991207251344_);}
	.st17{opacity:0.2;fill:url(#SVGID_00000183218279340159120850000012714233048996395424_);}
	.st18{fill:#F64C50;}
	.st19{fill:url(#SVGID_00000108287096873660437640000008552179864393269180_);}
</style>
<g>
	<defs>
		
			<rect id="SVGID_1_" x="1110.9" y="-184.1" transform="matrix(0.9977 -6.762647e-02 6.762647e-02 0.9977 -7.6742 103.1287)" width="817" height="698"/>
	</defs>
	<clipPath id="SVGID_00000162337326492707062010000010628016129978764730_">
		<use xlink:href="#SVGID_1_"  style="overflow:visible;"/>
	</clipPath>
</g>
<g>
	<g>
		
			<linearGradient id="SVGID_00000098900288283773566990000014277060422749416851_" gradientUnits="userSpaceOnUse" x1="2468.1809" y1="100.4572" x2="2468.1809" y2="705.4105" gradientTransform="matrix(-1 0 0 1 2709.6277 0)">
			<stop  offset="0" style="stop-color:#BE4449"/>
			<stop  offset="5.694079e-02" style="stop-color:#B1434A"/>
			<stop  offset="0.2673" style="stop-color:#873D4D"/>
			<stop  offset="0.4719" style="stop-color:#65394F"/>
			<stop  offset="0.6666" style="stop-color:#4E3551"/>
			<stop  offset="0.8472" style="stop-color:#3F3352"/>
			<stop  offset="1" style="stop-color:#3A3352"/>
		</linearGradient>
		<polygon style="fill:url(#SVGID_00000098900288283773566990000014277060422749416851_);" points="-53.3,414.1 -1.6,388.9 
			29,386.1 104.3,422.5 153.8,447.7 203.2,461.7 325.5,408.5 438.5,313.3 483.2,296.5 579.7,352.5 643.2,408.5 709.1,433.7 
			800.9,467.4 851.5,472.5 851.5,622.4 -368.7,599 -234.5,529 -140.4,484.2 		"/>
		
			<linearGradient id="SVGID_00000098182811682388073400000007881458723227111858_" gradientUnits="userSpaceOnUse" x1="2259.6843" y1="276.1297" x2="2225.5974" y2="441.1817" gradientTransform="matrix(-1 0 0 1 2709.6277 0)">
			<stop  offset="0" style="stop-color:#F64C50"/>
			<stop  offset="8.952379e-03" style="stop-color:#F14B50"/>
			<stop  offset="8.728582e-02" style="stop-color:#C64551"/>
			<stop  offset="0.172" style="stop-color:#A04051"/>
			<stop  offset="0.2622" style="stop-color:#813C51"/>
			<stop  offset="0.3595" style="stop-color:#673952"/>
			<stop  offset="0.4667" style="stop-color:#533652"/>
			<stop  offset="0.5889" style="stop-color:#453452"/>
			<stop  offset="0.7392" style="stop-color:#3D3352"/>
			<stop  offset="1" style="stop-color:#3A3352"/>
		</linearGradient>
		<polygon style="fill:url(#SVGID_00000098182811682388073400000007881458723227111858_);" points="626,393.6 574.2,373.1 
			547.5,358.1 516.1,343.2 528.7,371.2 514.6,369.3 473.8,367.5 434.6,373.1 461.2,356.3 491,346.9 448.7,352.5 418.9,367.5 
			364,393.6 325.5,408.5 384.4,356.3 433,313.3 487.9,289 545.9,330.1 597.7,367.5 		"/>
		
			<linearGradient id="SVGID_00000039847097430533474480000007321750767238304915_" gradientUnits="userSpaceOnUse" x1="2793.4983" y1="298.3456" x2="2677.502" y2="807.5974" gradientTransform="matrix(-1 0 0 1 2709.6277 0)">
			<stop  offset="0" style="stop-color:#F64C50"/>
			<stop  offset="8.952379e-03" style="stop-color:#F14B50"/>
			<stop  offset="8.728582e-02" style="stop-color:#C64551"/>
			<stop  offset="0.172" style="stop-color:#A04051"/>
			<stop  offset="0.2622" style="stop-color:#813C51"/>
			<stop  offset="0.3595" style="stop-color:#673952"/>
			<stop  offset="0.4667" style="stop-color:#533652"/>
			<stop  offset="0.5889" style="stop-color:#453452"/>
			<stop  offset="0.7392" style="stop-color:#3D3352"/>
			<stop  offset="1" style="stop-color:#3A3352"/>
		</linearGradient>
		<polygon style="fill:url(#SVGID_00000039847097430533474480000007321750767238304915_);" points="166.3,453.3 87.9,438.4 
			40.8,419.7 3.1,417.9 36.1,410.4 9.4,402.9 -26.7,419.7 -95.7,472 -125.5,492.6 -97.3,507.5 -45.5,518.7 -6.3,528 -75.3,528 
			-134.9,518.7 -182,520.6 -244.7,535.5 -145.9,481.4 -12.5,389.9 26.7,378.7 116.1,429.1 		"/>
		
			<linearGradient id="SVGID_00000006671365230063488100000003630725961480302729_" gradientUnits="userSpaceOnUse" x1="2437.2905" y1="414.9373" x2="2350.97" y2="812.0109" gradientTransform="matrix(-1 0 0 1 2709.6277 0)">
			<stop  offset="0" style="stop-color:#483452"/>
			<stop  offset="3.832746e-02" style="stop-color:#453250"/>
			<stop  offset="0.2583" style="stop-color:#372C49"/>
			<stop  offset="0.5292" style="stop-color:#2F2944"/>
			<stop  offset="1" style="stop-color:#2C2843"/>
		</linearGradient>
		<path style="fill:url(#SVGID_00000006671365230063488100000003630725961480302729_);" d="M-266,545.4l31.5-16.4l2.9-1.4l73.2,2.3
			l73.7-3.7l87.9-18.7l58,20.5l84.7,3.7l50.2-9.3l39.2-7.5l-25.1,14.9l32.9,1.9l26.7-16.8l34.5,22.4l80,7.5c0,0,81.6-9.3,86.3-11.2
			c4.7-1.9,95.7-7.5,95.7-7.5l75.3-22.4l56.5-7.5l73.7,18.7l-25.1-29.9l-40.8-28l-23.5-33.5l26.6,10.2l91.8,33.6l50.7,5.2v149.8
			l-1088.6-20.9C-244.1,587.4-256.9,562.7-266,545.4z"/>
	</g>
	
		<linearGradient id="SVGID_00000086672144975401504790000015387829283664118922_" gradientUnits="userSpaceOnUse" x1="2637.5361" y1="457.5358" x2="2640.3159" y2="627.0995" gradientTransform="matrix(-1 0 0 1 2709.6277 0)">
		<stop  offset="0" style="stop-color:#483452"/>
		<stop  offset="3.832746e-02" style="stop-color:#453250"/>
		<stop  offset="0.2583" style="stop-color:#372C49"/>
		<stop  offset="0.5292" style="stop-color:#2F2944"/>
		<stop  offset="1" style="stop-color:#2C2843"/>
	</linearGradient>
	<polygon style="fill:url(#SVGID_00000086672144975401504790000015387829283664118922_);" points="177.3,470.2 129,492.6 
		104.3,510.8 62,520.6 18.4,533.2 -34.5,530.4 20.8,522 73.7,502.4 104.3,502.4 129,485.6 	"/>
</g>
<g>
	<g>
		
			<linearGradient id="SVGID_00000162309796097548006350000010019342853941358780_" gradientUnits="userSpaceOnUse" x1="1396.7279" y1="-33.5814" x2="1396.7279" y2="571.372" gradientTransform="matrix(-1 0 0 1 2709.6277 0)">
			<stop  offset="0" style="stop-color:#BE4449"/>
			<stop  offset="5.694079e-02" style="stop-color:#B1434A"/>
			<stop  offset="0.2673" style="stop-color:#873D4D"/>
			<stop  offset="0.4719" style="stop-color:#65394F"/>
			<stop  offset="0.6666" style="stop-color:#4E3551"/>
			<stop  offset="0.8472" style="stop-color:#3F3352"/>
			<stop  offset="1" style="stop-color:#3A3352"/>
		</linearGradient>
		<polygon style="fill:url(#SVGID_00000162309796097548006350000010019342853941358780_);" points="1018.1,280.1 1069.9,254.9 
			1100.5,252.1 1175.8,288.5 1225.2,313.7 1274.6,327.7 1397,274.5 1509.9,179.3 1554.7,162.5 1651.1,218.5 1714.7,274.5 
			1780.6,299.7 1872.3,333.3 1923,338.5 1923,488.3 702.8,464.9 836.9,394.9 931.1,350.1 		"/>
		
			<linearGradient id="SVGID_00000130628051524668797250000009627587771551449789_" gradientUnits="userSpaceOnUse" x1="1188.2314" y1="142.0912" x2="1154.1445" y2="307.1432" gradientTransform="matrix(-1 0 0 1 2709.6277 0)">
			<stop  offset="0" style="stop-color:#F64C50"/>
			<stop  offset="8.952379e-03" style="stop-color:#F14B50"/>
			<stop  offset="8.728582e-02" style="stop-color:#C64551"/>
			<stop  offset="0.172" style="stop-color:#A04051"/>
			<stop  offset="0.2622" style="stop-color:#813C51"/>
			<stop  offset="0.3595" style="stop-color:#673952"/>
			<stop  offset="0.4667" style="stop-color:#533652"/>
			<stop  offset="0.5889" style="stop-color:#453452"/>
			<stop  offset="0.7392" style="stop-color:#3D3352"/>
			<stop  offset="1" style="stop-color:#3A3352"/>
		</linearGradient>
		<polygon style="fill:url(#SVGID_00000130628051524668797250000009627587771551449789_);" points="1697.4,259.6 1645.6,239 
			1619,224.1 1587.6,209.1 1600.1,237.2 1586,235.3 1545.2,233.4 1506,239 1532.7,222.2 1562.5,212.9 1520.1,218.5 1490.3,233.4 
			1435.4,259.6 1397,274.5 1455.8,222.2 1504.4,179.3 1559.4,155 1617.4,196.1 1669.2,233.4 		"/>
		
			<linearGradient id="SVGID_00000062160172827700999860000010026124721815687851_" gradientUnits="userSpaceOnUse" x1="1722.0455" y1="164.3071" x2="1606.0491" y2="673.5589" gradientTransform="matrix(-1 0 0 1 2709.6277 0)">
			<stop  offset="0" style="stop-color:#F64C50"/>
			<stop  offset="8.952379e-03" style="stop-color:#F14B50"/>
			<stop  offset="8.728582e-02" style="stop-color:#C64551"/>
			<stop  offset="0.172" style="stop-color:#A04051"/>
			<stop  offset="0.2622" style="stop-color:#813C51"/>
			<stop  offset="0.3595" style="stop-color:#673952"/>
			<stop  offset="0.4667" style="stop-color:#533652"/>
			<stop  offset="0.5889" style="stop-color:#453452"/>
			<stop  offset="0.7392" style="stop-color:#3D3352"/>
			<stop  offset="1" style="stop-color:#3A3352"/>
		</linearGradient>
		<polygon style="fill:url(#SVGID_00000062160172827700999860000010026124721815687851_);" points="1237.8,319.3 1159.3,304.4 
			1112.3,285.7 1074.6,283.8 1107.5,276.4 1080.9,268.9 1044.8,285.7 975.8,338 946,358.5 974.2,373.5 1026,384.7 1065.2,394 
			996.2,394 936.5,384.7 889.5,386.5 826.7,401.5 925.6,347.3 1058.9,255.8 1098.1,244.6 1187.6,295 		"/>
		
			<linearGradient id="SVGID_00000098925248352497403680000009349954261117751468_" gradientUnits="userSpaceOnUse" x1="1365.8375" y1="280.8988" x2="1279.5171" y2="677.9724" gradientTransform="matrix(-1 0 0 1 2709.6277 0)">
			<stop  offset="0" style="stop-color:#483452"/>
			<stop  offset="3.832746e-02" style="stop-color:#453250"/>
			<stop  offset="0.2583" style="stop-color:#372C49"/>
			<stop  offset="0.5292" style="stop-color:#2F2944"/>
			<stop  offset="1" style="stop-color:#2C2843"/>
		</linearGradient>
		<path style="fill:url(#SVGID_00000098925248352497403680000009349954261117751468_);" d="M805.5,411.4l31.5-16.4l2.9-1.4l73.2,2.3
			l73.7-3.7l87.9-18.7l58,20.5l84.7,3.7l50.2-9.3l39.2-7.5l-25.1,14.9l32.9,1.9l26.7-16.8l34.5,22.4l80,7.5c0,0,81.6-9.3,86.3-11.2
			c4.7-1.9,95.7-7.5,95.7-7.5l75.3-22.4l56.5-7.5l73.7,18.7l-25.1-29.9l-40.8-28l-23.5-33.5l26.6,10.2l91.8,33.6l50.7,5.2v149.8
			L834.4,467.5C827.4,453.4,814.5,428.6,805.5,411.4z"/>
	</g>
	
		<linearGradient id="SVGID_00000059993376870521174670000018356814006051664819_" gradientUnits="userSpaceOnUse" x1="1566.0833" y1="323.4973" x2="1568.863" y2="493.0611" gradientTransform="matrix(-1 0 0 1 2709.6277 0)">
		<stop  offset="0" style="stop-color:#483452"/>
		<stop  offset="3.832746e-02" style="stop-color:#453250"/>
		<stop  offset="0.2583" style="stop-color:#372C49"/>
		<stop  offset="0.5292" style="stop-color:#2F2944"/>
		<stop  offset="1" style="stop-color:#2C2843"/>
	</linearGradient>
	<polygon style="fill:url(#SVGID_00000059993376870521174670000018356814006051664819_);" points="1248.7,336.1 1200.5,358.5 
		1175.8,376.7 1133.4,386.5 1089.9,399.1 1037,396.3 1092.3,387.9 1145.2,368.3 1175.8,368.3 1200.5,351.5 	"/>
</g>
<g>
	<g>
		
			<linearGradient id="SVGID_00000000928893075912572610000002455928217948521144_" gradientUnits="userSpaceOnUse" x1="2160.5503" y1="150.6985" x2="2160.5503" y2="523.0806" gradientTransform="matrix(1 0 0 1 -1708 0)">
			<stop  offset="0" style="stop-color:#BE4449"/>
			<stop  offset="5.694079e-02" style="stop-color:#B1434A"/>
			<stop  offset="0.2673" style="stop-color:#873D4D"/>
			<stop  offset="0.4719" style="stop-color:#65394F"/>
			<stop  offset="0.6666" style="stop-color:#4E3551"/>
			<stop  offset="0.8472" style="stop-color:#3F3352"/>
			<stop  offset="1" style="stop-color:#3A3352"/>
		</linearGradient>
		<polygon style="fill:url(#SVGID_00000000928893075912572610000002455928217948521144_);" points="634,343.8 602.1,328.3 
			583.3,326.5 536.9,349 506.5,364.5 476.1,373.1 400.8,340.3 331.3,281.7 303.7,271.4 244.4,305.9 205.2,340.3 164.7,355.9 
			108.2,376.5 77,379.7 77,472 828.1,457.6 745.5,414.5 687.6,386.9 		"/>
		
			<linearGradient id="SVGID_00000082329230197936963930000001552969373375697590_" gradientUnits="userSpaceOnUse" x1="2032.2094" y1="258.8346" x2="2011.2269" y2="360.4332" gradientTransform="matrix(1 0 0 1 -1708 0)">
			<stop  offset="0" style="stop-color:#F64C50"/>
			<stop  offset="8.952379e-03" style="stop-color:#F14B50"/>
			<stop  offset="8.728582e-02" style="stop-color:#C64551"/>
			<stop  offset="0.172" style="stop-color:#A04051"/>
			<stop  offset="0.2622" style="stop-color:#813C51"/>
			<stop  offset="0.3595" style="stop-color:#673952"/>
			<stop  offset="0.4667" style="stop-color:#533652"/>
			<stop  offset="0.5889" style="stop-color:#453452"/>
			<stop  offset="0.7392" style="stop-color:#3D3352"/>
			<stop  offset="1" style="stop-color:#3A3352"/>
		</linearGradient>
		<polygon style="fill:url(#SVGID_00000082329230197936963930000001552969373375697590_);" points="215.9,331.1 247.7,318.5 
			264.1,309.3 283.5,300.1 275.7,317.4 284.4,316.2 309.5,315.1 333.7,318.5 317.3,308.2 298.9,302.4 325,305.9 343.3,315.1 
			377.1,331.1 400.8,340.3 364.6,308.2 334.6,281.7 300.8,266.8 265.1,292.1 233.2,315.1 		"/>
		
			<linearGradient id="SVGID_00000036960027819265271670000007706995910881750975_" gradientUnits="userSpaceOnUse" x1="2360.8013" y1="272.5098" x2="2289.3992" y2="585.9824" gradientTransform="matrix(1 0 0 1 -1708 0)">
			<stop  offset="0" style="stop-color:#F64C50"/>
			<stop  offset="8.952379e-03" style="stop-color:#F14B50"/>
			<stop  offset="8.728582e-02" style="stop-color:#C64551"/>
			<stop  offset="0.172" style="stop-color:#A04051"/>
			<stop  offset="0.2622" style="stop-color:#813C51"/>
			<stop  offset="0.3595" style="stop-color:#673952"/>
			<stop  offset="0.4667" style="stop-color:#533652"/>
			<stop  offset="0.5889" style="stop-color:#453452"/>
			<stop  offset="0.7392" style="stop-color:#3D3352"/>
			<stop  offset="1" style="stop-color:#3A3352"/>
		</linearGradient>
		<polygon style="fill:url(#SVGID_00000036960027819265271670000007706995910881750975_);" points="498.8,367.9 547.1,358.7 
			576.1,347.2 599.2,346.1 579,341.5 595.4,336.9 617.6,347.2 660.1,379.4 678.4,392.1 661,401.3 629.2,408.1 605,413.9 
			647.5,413.9 684.2,408.1 713.2,409.3 751.8,418.5 691,385.2 608.9,328.8 584.8,321.9 529.7,353 		"/>
		
			<linearGradient id="SVGID_00000017498489306116545880000000354296622004299959_" gradientUnits="userSpaceOnUse" x1="2141.5356" y1="344.2784" x2="2088.4006" y2="588.6991" gradientTransform="matrix(1 0 0 1 -1708 0)">
			<stop  offset="0" style="stop-color:#483452"/>
			<stop  offset="3.832746e-02" style="stop-color:#453250"/>
			<stop  offset="0.2583" style="stop-color:#372C49"/>
			<stop  offset="0.5292" style="stop-color:#2F2944"/>
			<stop  offset="1" style="stop-color:#2C2843"/>
		</linearGradient>
		<path style="fill:url(#SVGID_00000017498489306116545880000000354296622004299959_);" d="M764.9,424.6l-19.4-10.1l-1.8-0.9
			l-45,1.4l-45.4-2.3l-54.1-11.5l-35.7,12.6l-52.1,2.3l-30.9-5.7l-24.1-4.6l15.5,9.2l-20.3,1.1l-16.4-10.3l-21.2,13.8l-49.2,4.6
			c0,0-50.2-5.7-53.1-6.9c-2.9-1.1-58.9-4.6-58.9-4.6L206.2,399l-34.8-4.6l-45.4,11.5l15.5-18.4l25.1-17.2l14.4-20.6l-16.4,6.3
			l-56.5,20.7L77,379.7V472l670.1-12.8C751.4,450.5,759.3,435.2,764.9,424.6z"/>
	</g>
	
		<linearGradient id="SVGID_00000008122478010771775870000000499933015836702855_" gradientUnits="userSpaceOnUse" x1="2264.7979" y1="370.5001" x2="2266.509" y2="474.8759" gradientTransform="matrix(1 0 0 1 -1708 0)">
		<stop  offset="0" style="stop-color:#483452"/>
		<stop  offset="3.832746e-02" style="stop-color:#453250"/>
		<stop  offset="0.2583" style="stop-color:#372C49"/>
		<stop  offset="0.5292" style="stop-color:#2F2944"/>
		<stop  offset="1" style="stop-color:#2C2843"/>
	</linearGradient>
	<polygon style="fill:url(#SVGID_00000008122478010771775870000000499933015836702855_);" points="492,378.3 521.7,392.1 
		536.9,403.3 563,409.3 589.8,417.1 622.4,415.3 588.4,410.2 555.8,398.1 536.9,398.1 521.7,387.7 	"/>
</g>
<linearGradient id="SVGID_00000025427401898621721400000017750407564314054558_" gradientUnits="userSpaceOnUse" x1="1510.9916" y1="-75.3655" x2="1510.9916" y2="371.1072">
	<stop  offset="0" style="stop-color:#BE4449"/>
	<stop  offset="5.694079e-02" style="stop-color:#B1434A"/>
	<stop  offset="0.2673" style="stop-color:#873D4D"/>
	<stop  offset="0.4719" style="stop-color:#65394F"/>
	<stop  offset="0.6666" style="stop-color:#4E3551"/>
	<stop  offset="0.8472" style="stop-color:#3F3352"/>
	<stop  offset="1" style="stop-color:#3A3352"/>
</linearGradient>
<polygon style="fill:url(#SVGID_00000025427401898621721400000017750407564314054558_);" points="1708.8,313.1 1688.6,299.3 
	1654,271.8 1626.5,256.3 1596.2,263.2 1567.3,268.4 1529.8,251.2 1493.7,227.1 1469.1,228.8 1431.6,256.3 1399.8,278.7 1355,292.4 
	1313.2,311.3 1337,310 1347.8,318.2 1379.6,318.2 1409.9,323.4 1461.9,319.9 1487.9,319.9 1509.5,319.9 1524,323.4 1535.5,318.2 
	1591.9,314.8 1616.4,321.6 1642.4,314.8 1666.7,311 "/>
<linearGradient id="SVGID_00000026156478302887166740000006177182848689890207_" gradientUnits="userSpaceOnUse" x1="959.6279" y1="371.6381" x2="959.6279" y2="781.5419">
	<stop  offset="0" style="stop-color:#BE4449"/>
	<stop  offset="5.694079e-02" style="stop-color:#B1434A"/>
	<stop  offset="0.2673" style="stop-color:#873D4D"/>
	<stop  offset="0.4719" style="stop-color:#65394F"/>
	<stop  offset="0.6666" style="stop-color:#4E3551"/>
	<stop  offset="0.8472" style="stop-color:#3F3352"/>
	<stop  offset="1" style="stop-color:#3A3352"/>
</linearGradient>
<path style="fill:url(#SVGID_00000026156478302887166740000006177182848689890207_);" d="M1530.7,450.5l-207.9,7.7
	c0,0-328.1-30.9-341.1-23.2c-13,7.7-424.9,3.9-425.6,15.5c-1.2,19.1-279.4,3.9-279.4,3.9L-3.1,440.6V681h1925.4V432.8L1530.7,450.5z
	"/>
<linearGradient id="SVGID_00000168110194751128599170000011994884039743348401_" gradientUnits="userSpaceOnUse" x1="865.8979" y1="187.549" x2="858.8539" y2="937.692">
	<stop  offset="0" style="stop-color:#F64C50"/>
	<stop  offset="8.952379e-03" style="stop-color:#F14B50"/>
	<stop  offset="8.728582e-02" style="stop-color:#C64551"/>
	<stop  offset="0.172" style="stop-color:#A04051"/>
	<stop  offset="0.2622" style="stop-color:#813C51"/>
	<stop  offset="0.3595" style="stop-color:#673952"/>
	<stop  offset="0.4667" style="stop-color:#533652"/>
	<stop  offset="0.5889" style="stop-color:#453452"/>
	<stop  offset="0.7392" style="stop-color:#3D3352"/>
	<stop  offset="1" style="stop-color:#3A3352"/>
</linearGradient>
<path style="opacity:0.2;fill:url(#SVGID_00000168110194751128599170000011994884039743348401_);" d="M1922,373.2
	c-83.9,4-503,10.3-527.4,12.9c-22.2,2.3-21.1,1.8-42.2-13.9c-22.2-16.4-57.2,1.2-63.5,5.9c-2.6,2-26.3,20.7-33.1,35.2
	c-14.6,31.3,29.1,52.8,29.1,52.8l45.4,20.3l-125.1,42.3l-82.2-15.8l-132.2-10.6l117.9,37l60.8,37l-164.4,21.1l-89.4,10.6
	l-375.3,10.6l-117.9-15.8l78.6-10.6c0,0-78.6-21.1-89.4-21.1c-10.7,0-85.8-15.8-85.8-15.8H190.2L-10,544.5l32.2-37l71.5-21.1l50,8
	l82.7-22.8l3.3-9.8l134.6-6.5l298.5-83.1l-6.6-2l-294.1,23.1l-98.2-6.5c-80.3-1.7-152.4-32.4-152.4-32.4l-307.6-18.7V664H1922V373.2
	z"/>
<g>
	<polygon class="st18" points="478.6,463.9 431,443.3 418,409.8 387.6,384 329.2,391.7 270.7,422.7 225.2,381.4 121.2,327.3 
		49.7,242.2 0.9,219 0.9,500 518.3,500 	"/>
	
		<linearGradient id="SVGID_00000067210965540919775460000009077965331198544563_" gradientUnits="userSpaceOnUse" x1="260.8224" y1="317.665" x2="154.2644" y2="929.5132">
		<stop  offset="0" style="stop-color:#F64C50"/>
		<stop  offset="8.952379e-03" style="stop-color:#F14B50"/>
		<stop  offset="8.728582e-02" style="stop-color:#C64551"/>
		<stop  offset="0.172" style="stop-color:#A04051"/>
		<stop  offset="0.2622" style="stop-color:#813C51"/>
		<stop  offset="0.3595" style="stop-color:#673952"/>
		<stop  offset="0.4667" style="stop-color:#533652"/>
		<stop  offset="0.5889" style="stop-color:#453452"/>
		<stop  offset="0.7392" style="stop-color:#3D3352"/>
		<stop  offset="1" style="stop-color:#3A3352"/>
	</linearGradient>
	<polygon style="fill:url(#SVGID_00000067210965540919775460000009077965331198544563_);" points="474.3,478.5 448.3,473.4 
		416.5,459.6 367.4,447.6 302.4,464.8 240.4,451 188.4,445.9 136.4,427 189.8,432.1 227.4,435.5 194.1,413.2 127.7,389.1 
		51.2,347.9 12.2,265.4 0.9,250.4 0.9,500 500.7,500 	"/>
</g>
</svg>
