<svg width="434" height="168" fill="none" xmlns="http://www.w3.org/2000/svg"><path d="M433.079 42.046c-2.093-3.547-6.267-4.168-9.774-2.536a813.443 813.443 0 00-26.522 12.913 509.785 509.785 0 01-4.611-15.894c6.676-3.03 13.369-6.015 20.089-8.934 3.534-1.538 4.351-6.654 2.562-9.679-2.131-3.607-6.229-4.079-9.774-2.536-5.5 2.392-10.983 4.834-16.455 7.298a508.89 508.89 0 01-3.937-17.51c-.773-3.745-5.246-5.904-8.786-4.938-3.932 1.07-5.765 4.944-4.992 8.702a515.446 515.446 0 004.495 19.778 1375.086 1375.086 0 00-23.303 11.05 796.314 796.314 0 01-3.633-16.905c-.762-3.746-5.257-5.904-8.786-4.939-3.937 1.071-5.754 4.945-4.992 8.702a826.387 826.387 0 004.252 19.612 1370.523 1370.523 0 00-25.418 12.992c-3.407 1.786-4.45 6.481-2.562 9.678 2.021 3.418 6.35 4.334 9.774 2.536a1386.477 1386.477 0 0121.58-11.077 836.915 836.915 0 005.097 19.462 804.734 804.734 0 00-23.457 14.662c-3.225 2.093-4.584 6.26-2.563 9.679 1.872 3.174 6.533 4.645 9.774 2.536a807.73 807.73 0 0120.272-12.73 798.093 798.093 0 008.399 26.842c1.203 3.63 4.936 5.988 8.785 4.939 3.589-.976 6.201-5.061 4.992-8.701a811.346 811.346 0 01-9.509-30.628 817.628 817.628 0 0124.341-13.635 515.103 515.103 0 0011.707 30.7c1.474 3.529 4.738 6.043 8.785 4.939 3.363-.916 6.478-5.15 4.992-8.702a513.283 513.283 0 01-12.717-33.658 805.758 805.758 0 0129.322-14.351c3.501-1.61 4.395-6.582 2.573-9.667zm-72.935 30.256a816.35 816.35 0 01-4.749-18.447 1421.463 1421.463 0 0123.629-11.288 526.487 526.487 0 004.898 16.555 801.075 801.075 0 00-23.778 13.18z" fill="#1BBAFF"/><path d="M10.412 138.483c23.619 9.715 52.213 19.482 76.223 5.728 24.458-14.016 29.299-44.457 27.62-70.311-.873-13.453-4.51-26.993-11.496-38.686-3.014-5.046-8.87-7.907-14.569-5.303-4.952 2.264-8.253 9.275-5.224 14.354 2.448 4.1 5.007 9.503 6.235 13.286.382 1.157 1.246 4.456 1.674 6.424a86.268 86.268 0 011.265 7.375c.64 4.976.763 8.257.538 13.927a111.57 111.57 0 01-1.756 15.823c-.07.389-.104.584-.112.653-.1.45-.22.903-.332 1.358a66.549 66.549 0 01-1.188 4.156c-.676 2.107-1.947 5.35-2.577 6.635-1.973 4.033-4.845 7.144-8.621 10.088-.405.321-.551.449-.587.498a7.005 7.005 0 00-.68.33c-1.114.586-2.223 1.156-3.378 1.655a41.54 41.54 0 01-3.023 1.172c-.011.005-.019.002-.022.01a47.35 47.35 0 01-2.555.63 51.09 51.09 0 01-6.526.987c-.132.015-.95.06-1.393.088-.325-.001-.743.009-.743.009-1.288-.027-2.575-.035-3.861-.116-12.923-.809-25.191-6.013-37.518-11.086-5.308-2.184-12.296.988-13.995 6.401-1.823 5.801.908 11.573 6.601 13.915z" fill="#770FFB"/><path d="M236.622 37.39l-6-6c-2.72-2.72-6.76-4.39-10.61-4.39-3.68 0-8.07 1.63-10.61 4.39-2.62 2.86-4.57 6.61-4.39 10.61.18 3.98 1.52 7.74 4.39 10.61l6 6c2.72 2.72 6.76 4.39 10.61 4.39 3.68 0 8.07-1.63 10.61-4.39 2.62-2.86 4.57-6.61 4.39-10.61-.18-3.98-1.52-7.73-4.39-10.61z" fill="#FF971E"/></svg>