<svg width="202" height="527" fill="none" xmlns="http://www.w3.org/2000/svg"><path d="M104.657 225.996c-5.29 7.134-7.831 15.869-6.571 24.765 1.128 7.989 4.385 15.162 7.605 22.453 1.508 3.41 2.974 6.853 4.103 10.422.285.901.553 1.814.785 2.73.084.323.384 1.71.393 1.685.299 1.722.464 3.479.465 5.225.002.407-.018.809-.024 1.215-.002.064 0 .125-.003.178-.011.032-.019.068-.032.114-.194.761-.225 1.61-.385 2.385a29.722 29.722 0 01-.653 2.635c-.056.194-.124.388-.187.58-.013-.011-.383.99-.435 1.112a33.334 33.334 0 01-2.214 4.307c.017-.03-.393.6-.57.885l-.306.425a34.88 34.88 0 01-3.823 4.297 47.96 47.96 0 01-.734.671c-.067.051-.144.106-.239.181-1.461 1.093-2.942 2.049-4.5 2.985-.1.058-.174.107-.243.145-.388.183-.777.354-1.172.517a27.685 27.685 0 01-4.66 1.475c-.07.008-.145.018-.234.026-.596.073-1.19.151-1.79.201-6.81.562-13.672-.804-20.452.327-4.764.796-9.109 2.544-12.614 6.019-4.282 4.244-5.795 10.131-6.008 16.009-.191 5.456.957 10.952 1.736 16.324l2.542 17.584c.526 3.633 3.242 6.61 7.082 6.377 3.375-.207 6.826-3.554 6.3-7.206-1.402-9.702-3.262-19.464-4.122-29.236a42.163 42.163 0 01-.17-3.124 24.25 24.25 0 01.012-1.301c.015-.16.043-.656.05-.704.118-.868.267-1.756.513-2.601.05-.107.23-.589.272-.66.006-.01.772-1.267.674-1.197.339-.384 1.128-1.134.915-1.009.435-.313.89-.596 1.343-.89.278-.112.553-.228.84-.326a20.04 20.04 0 011.01-.323c.169-.047 1.02-.211 1.043-.232 6.299-.85 12.635.178 18.956-.184 7.486-.429 14.848-3.35 20.66-8.167 6.202-5.133 10.709-11.621 13.266-19.322 2.484-7.485 2.027-15.414-.102-22.911-1.989-7.004-5.396-13.464-8.143-20.17-1.297-3.163-2.398-6.38-3.176-9.717.084.303-.237-1.386-.269-1.647a30.545 30.545 0 01-.205-2.435c-.038-.811-.017-1.616-.001-2.43.002-.026.003-.052.008-.074.09-.661.178-1.315.302-1.973.086-.445.187-.888.302-1.327.023-.09.202-.709.293-1.051.095-.249.254-.679.286-.763.22-.52.454-1.036.701-1.542.485-.968 1.018-1.929 1.629-2.828.067-.081.156-.184.264-.316.44-.518.85-1.061 1.306-1.564 1.603-1.789 1.807-1.996 3.783-3.355a26.99 26.99 0 012.903-1.753c-.272.139-.938.376.287-.118.519-.211 1.04-.43 1.57-.617 7.922-2.84 16.026-1.17 23.423 3.747 2.936 1.949 7.622.187 9.04-2.919 1.658-3.633.29-7.077-2.851-9.169-15.555-10.32-38.163-8.506-49.774 7.16z" fill="#FB0F5A"/><path d="M53.413 127.483c23.619 9.715 52.213 19.482 76.223 5.728 24.458-14.016 29.299-44.457 27.62-70.311-.873-13.453-4.51-26.993-11.496-38.686-3.014-5.046-8.869-7.907-14.569-5.303-4.952 2.264-8.253 9.275-5.224 14.354 2.448 4.1 5.007 9.503 6.235 13.286.381 1.157 1.245 4.456 1.674 6.424a86.585 86.585 0 011.265 7.375c.641 4.976.763 8.257.538 13.927a111.485 111.485 0 01-1.756 15.823c-.07.389-.104.584-.112.653-.1.45-.22.903-.331 1.358a66.934 66.934 0 01-1.189 4.156c-.676 2.107-1.947 5.35-2.577 6.635-1.973 4.033-4.845 7.144-8.621 10.088-.405.321-.551.449-.587.498a6.98 6.98 0 00-.679.33c-1.115.586-2.224 1.156-3.379 1.655-.996.431-2.003.822-3.023 1.172-.011.005-.019.002-.022.01a47.35 47.35 0 01-2.555.63 51.097 51.097 0 01-6.526.987c-.132.015-.95.06-1.393.088-.325-.001-.743.009-.743.009-1.288-.027-2.575-.035-3.861-.116-12.923-.809-25.192-6.013-37.518-11.086-5.308-2.184-12.296.988-13.995 6.401-1.823 5.801.908 11.573 6.601 13.915z" fill="#770FFB"/><path d="M56.774 504.74c-4.79 4.79-5.22 13.52-.13 18.16 5.11 4.66 13.03 5 18.16-.13 4.79-4.79 5.22-13.52.13-18.16-5.1-4.67-13.03-5-18.16.13z" fill="#1BBAFF"/></svg>