<svg width="203" height="254" fill="none" xmlns="http://www.w3.org/2000/svg"><path d="M123.08 42.046c-2.093-3.547-6.267-4.168-9.774-2.536a813.349 813.349 0 00-26.522 12.913 511.98 511.98 0 01-4.611-15.894c6.676-3.03 13.369-6.015 20.089-8.934 3.534-1.538 4.351-6.654 2.562-9.679-2.131-3.607-6.228-4.079-9.774-2.536-5.5 2.392-10.983 4.834-16.455 7.298a510.308 510.308 0 01-3.937-17.51C73.885 1.424 69.412-.735 65.872.23 61.94 1.3 60.107 5.174 60.88 8.932a514.502 514.502 0 004.495 19.778 1375.798 1375.798 0 00-23.303 11.05 799.448 799.448 0 01-3.633-16.905c-.762-3.746-5.257-5.904-8.786-4.939-3.937 1.071-5.754 4.945-4.992 8.702a820.954 820.954 0 004.252 19.612A1369.248 1369.248 0 003.495 59.222C.088 61.008-.955 65.703.933 68.9c2.021 3.418 6.35 4.334 9.774 2.536a1387.831 1387.831 0 0121.58-11.077 838.42 838.42 0 005.097 19.462 805.837 805.837 0 00-23.457 14.662c-3.225 2.093-4.584 6.26-2.563 9.679 1.872 3.174 6.533 4.645 9.774 2.536a807.69 807.69 0 0120.271-12.73 798.554 798.554 0 008.4 26.842c1.203 3.63 4.936 5.988 8.785 4.939 3.59-.976 6.201-5.061 4.992-8.701a811.345 811.345 0 01-9.509-30.628 816.873 816.873 0 0124.341-13.635 515.1 515.1 0 0011.707 30.7c1.474 3.529 4.738 6.043 8.785 4.939 3.363-.916 6.478-5.15 4.992-8.702a513.57 513.57 0 01-12.717-33.658 805.04 805.04 0 0129.322-14.351c3.501-1.61 4.395-6.582 2.573-9.667zM50.145 72.302a813.69 813.69 0 01-4.749-18.447 1418.392 1418.392 0 0123.63-11.288 525.685 525.685 0 004.897 16.555 800.308 800.308 0 00-23.778 13.18z" fill="#FB0F5A"/><path d="M159.849 155.902c-7.742 2.853-14.151 8.316-17.676 15.807-3.168 6.727-4.261 13.89-5.443 21.125-.551 3.385-1.152 6.775-2.079 10.092a44.499 44.499 0 01-.771 2.499c-.098.291-.567 1.511-.547 1.497a28.19 28.19 0 01-2.285 4.261c-.205.315-.424.615-.634.925-.034.049-.064.097-.093.136-.024.019-.049.043-.083.072-.537.49-.991 1.129-1.508 1.647a27.764 27.764 0 01-1.846 1.705c-.141.121-.292.237-.439.353-.005-.014-.8.572-.903.639a31.152 31.152 0 01-3.91 2.214c.029-.015-.61.266-.893.397l-.454.174a32.474 32.474 0 01-5.16 1.4c-.303.053-.605.101-.913.15-.078.005-.166.009-.278.019-1.694.112-3.334.107-5.023.049-.108-.005-.191-.005-.264-.01a23.027 23.027 0 01-1.176-.189c-.82-.15-1.631-.334-2.431-.562a27.957 27.957 0 01-1.953-.634c-.059-.029-.122-.058-.195-.097-.503-.242-1.006-.479-1.499-.741-5.599-2.978-10.26-7.468-16.124-9.991-4.12-1.772-8.396-2.6-12.892-1.675-5.491 1.128-9.655 4.91-12.799 9.337-2.914 4.111-4.803 8.925-6.917 13.458l-6.927 14.833c-1.43 3.066-.82 6.722 2.294 8.466 2.739 1.53 7.127.678 8.567-2.402 3.823-8.185 7.318-16.645 11.599-24.612a38.59 38.59 0 011.45-2.494c.215-.334.434-.673.668-1.002.093-.116.367-.484.396-.518.532-.611 1.098-1.221 1.718-1.749.093-.058.479-.339.547-.372.01-.005 1.245-.591 1.132-.586.46-.126 1.455-.31 1.226-.32.498-.024.995-.015 1.498-.015.274.054.547.102.82.17.323.077.64.165.952.257.156.048.903.348.933.343 5.345 2.499 9.768 6.466 14.883 9.352 6.058 3.419 13.283 4.852 20.259 4.048 7.439-.852 14.244-3.598 20.141-8.257 5.731-4.528 9.392-10.872 11.53-17.719 1.997-6.398 2.612-13.086 3.866-19.633.591-3.09 1.362-6.122 2.446-9.085-.088.276.517-1.187.625-1.405.332-.673.688-1.336 1.074-1.98.38-.645.805-1.255 1.23-1.875a.476.476 0 01.044-.053c.405-.465.805-.925 1.235-1.37.293-.301.595-.591.908-.872.063-.058.517-.446.761-.664.2-.145.542-.397.61-.445a28.73 28.73 0 011.328-.838 23.21 23.21 0 012.704-1.366c.093-.029.215-.063.367-.111.605-.179 1.2-.392 1.811-.552 2.157-.576 2.421-.634 4.652-.693a25.33 25.33 0 013.153.102c-.283-.029-.922-.179.283.053.513.097 1.03.194 1.538.31 7.62 1.778 13.097 7.124 16.377 14.621 1.304 2.973 5.853 3.956 8.533 2.276 3.134-1.971 3.813-5.313 2.422-8.499-6.908-15.744-25.467-25.667-42.465-19.401z" fill="#FFCE22"/></svg>