<svg width="175" height="40" fill="none" xmlns="http://www.w3.org/2000/svg"><path d="M13.415 0l1.845 3.207a2.205 2.205 0 010 2.139L4.269 24.406l5.2 8.995a4.586 4.586 0 003.947 2.286 4.586 4.586 0 003.946-2.286l5.2-8.996-1.364-2.433-5.902 10.212c-.368.664-1.106 1.07-1.844 1.07a2.093 2.093 0 01-1.844-1.07l-4.536-7.778L17.288 6.71l1.844 3.207a2.205 2.205 0 010 2.138l-7.118 12.35 1.402 2.434 7.745-13.42 5.09 8.811a4.432 4.432 0 010 4.387l-5.164 8.959C20.312 36.94 17.84 40 13.416 40c-4.426 0-6.86-3.06-7.672-4.424L.581 26.617a4.432 4.432 0 010-4.387L13.416 0z" fill="#ED5153"/><path d="M37.425 9.549h3.578v21.124h-3.578V9.55zm8.372 3.871a2.102 2.102 0 10.001-4.204 2.102 2.102 0 000 4.204zM43.99 16h3.614v14.672H43.99V15.999zm13.093-.37c-4.094 0-7.413 2.876-7.413 7.448 0 4.571 2.876 7.373 7.45 7.373 1.807 0 3.725.921 3.725 2.95 0 2.027-1.623 3.17-3.725 3.17-2.103 0-3.836-1.254-3.836-3.17H49.67c0 3.944 3.171 6.561 7.45 6.561 4.241 0 7.339-2.507 7.339-6.562 0-1.88-.59-3.65-3.024-4.866 2.397-1.106 3.098-3.65 3.098-5.493 0-4.535-3.356-7.41-7.45-7.41zm.037 11.835c-2.103 0-3.836-1.807-3.836-4.387 0-2.544 1.733-4.424 3.836-4.424 2.102 0 3.798 1.917 3.798 4.424 0 2.543-1.733 4.387-3.798 4.387zM75.007 15.63c-1.66 0-3.246.516-4.573 2.175V9.51h-3.615v21.124h3.615v-7.447c0-2.175 1.475-3.981 3.614-3.981 1.918 0 3.32 1.142 3.32 3.797v7.631h3.614v-7.89c.037-4.313-1.807-7.114-5.975-7.114zm14.79 12.534c-.443 0-.812-.147-1.033-.442-.222-.295-.332-.738-.332-1.401v-7.226h2.913l.332-3.134H88.47v-4.018l-3.652.405V16h-2.766v3.134h2.766v7.3c0 1.51.37 2.654 1.07 3.428.7.774 1.77 1.18 3.135 1.18.627 0 1.217-.074 1.844-.258a5.735 5.735 0 001.66-.775l-1.254-2.322c-.48.332-.996.48-1.476.48zm14.862-5.382c-1.475-.922-3.208-1.033-4.905-1.143-.996-.074-2.508-.295-2.508-1.585 0-.922.96-1.438 2.693-1.438 1.401 0 2.618.331 3.651 1.29l2.028-2.36c-1.696-1.474-3.43-1.916-5.753-1.916-2.692 0-6.233 1.18-6.233 4.571 0 1.4.738 2.691 1.955 3.429 1.364.848 3.135.958 4.647 1.142 1.032.111 2.729.37 2.434 1.807-.185.995-1.402 1.29-2.25 1.327a10.061 10.061 0 01-2.766-.258c-.959-.258-1.733-.7-2.582-1.254l-1.844 2.323c.111.074.222.184.222.184 2.36 1.954 5.642 2.581 8.63 1.918 2.25-.517 4.167-2.139 4.167-4.572.074-1.364-.368-2.728-1.586-3.465zm11.913-7.152c-1.66 0-3.614.7-4.758 2.322l-.11-1.99H108.2v21.124l3.614-.406v-7.74c1.033 1.586 3.283 2.102 4.832 2.102 4.684 0 7.413-3.503 7.413-7.742 0-4.314-2.987-7.668-7.487-7.668zm-.295 12.276c-2.471 0-4.131-2.249-4.131-4.535 0-2.285 1.549-4.718 4.131-4.718 2.619 0 4.131 2.47 4.131 4.718.037 2.286-1.66 4.535-4.131 4.535zm12.503-3.281c.405 1.733 1.991 3.244 4.573 3.244 1.328 0 3.098-.663 3.946-1.511l2.324 2.285c-1.549 1.586-4.094 2.36-6.307 2.36-4.573 0-7.892-3.023-7.892-7.705 0-4.424 3.43-7.668 7.634-7.668 4.426 0 8.114 3.023 7.745 8.995H128.78zm8.519-2.765c-.405-1.733-2.139-3.244-4.241-3.244-1.955 0-3.762 1.327-4.278 3.244h8.519zm8.225 2.765c.406 1.733 1.991 3.244 4.573 3.244 1.328 0 3.098-.663 3.946-1.511l2.324 2.285c-1.549 1.586-4.094 2.36-6.307 2.36-4.573 0-7.892-3.023-7.892-7.705 0-4.424 3.43-7.668 7.634-7.668 4.426 0 8.114 3.023 7.745 8.995h-12.023zm8.556-2.765c-.405-1.733-2.139-3.244-4.241-3.244-1.955 0-3.762 1.327-4.278 3.244h8.519zm12.208 9.18c1.66 0 3.614-.7 4.758-2.323l.11 1.954h3.504V9.548h-3.614v8.184c-1.033-1.585-3.32-2.065-4.869-2.065-4.684 0-7.376 3.466-7.376 7.742 0 4.277 2.987 7.632 7.487 7.632zm.258-12.277c2.471 0 4.131 2.249 4.131 4.535 0 2.285-1.549 4.719-4.131 4.719-2.618 0-4.131-2.47-4.131-4.72 0-2.285 1.66-4.534 4.131-4.534z" fill="#040707"/></svg>