<svg width="141" height="40" fill="none" xmlns="http://www.w3.org/2000/svg"><path d="M124.131 18.427h-4.783v7.923c0 2.256 1.187 2.676 2.725 2.676.536 0 1.113-.077 1.697-.155l.361 3.55c-1.253.222-2.927.412-4.012.412-3.298 0-6.222-1.152-6.222-5.197v-9.21h-2.778v-3.498h2.778V11.07l5.451-1.544v5.402h4.783v3.499zm-14.67 14.046h-5.452V21.205c0-1.657-.696-2.572-2.571-2.572-1.41 0-2.323.678-3.342 1.492v12.349h-5.452V14.928h5.297v1.544c1.776-1.195 3.812-1.955 6.017-1.955 3.478 0 5.504 2.162 5.504 5.454v12.502h-.001z" fill="#4F72B7"/><path d="M81.644 0c-2.76 4.676-1.56 8.909-4.258 11.607-2.166 2.169-4.177 2.099-6.54 2.099-.82 0-2.419.07-3.086.556-.388-1.235-.556-2.594-.556-3.89 0-2.226.5-4.204 2.1-5.803C72.365 1.505 77.913.53 81.643 0z" fill="#21B575"/><path d="M52.168 30.328h-5.452V19.06c0-1.657-.696-2.572-2.57-2.572-1.41 0-2.325.678-3.344 1.492v12.348H35.35V12.783h5.298v1.544c1.777-1.195 3.813-1.955 6.017-1.955 3.476 0 5.503 2.162 5.503 5.454v12.502zM34.226 12.783l-8.743 21.25c-1.343 3.264-4.042 5.659-7.714 5.659-1.839 0-2.813-.24-4.012-.514l.771-3.5c.968.217 1.697.309 2.366.309 2.193 0 3.358-1.865 4.423-4.425l.515-1.235-6.79-17.544h5.864l3.188 8.696c.385 1.05.6 2.124.772 2.88.2-.762.588-2.024.976-3.035l3.292-8.54h5.092z" fill="#4F72B7"/><path d="M14.966 24.72c0 3.819-3.526 5.916-7.714 5.916-2.726 0-4.929-.456-7.252-1.388l1.491-3.55c1.382.558 3.37 1.183 4.989 1.183 1.266 0 3.034-.155 3.034-1.698 0-.72-.452-1.092-1.285-1.338-1.044-.308-2.646-.583-3.703-.874-2.223-.613-4.063-1.782-4.063-5.043 0-3.618 3.084-5.866 7.302-5.866 2.786 0 4.555.369 6.12.824l-1.387 3.55c-.691-.314-2.631-.772-4.012-.772-1.5 0-2.52.573-2.52 1.492 0 .455.283 1.03 1.08 1.287.856.274 2.208.523 3.343.771 2.323.51 4.577 1.846 4.577 5.506zm125.895 5.608h-5.144V28.94c-1.336 1.183-3.066 1.749-4.988 1.749-3.263 0-5.504-1.58-5.504-4.889 0-5.815 5.804-6.717 10.338-6.74v-.462c0-1.446-.547-2.47-3.136-2.47-1.749 0-3.739.867-5.042 1.647l-1.337-3.242c2.317-1.256 5.192-2.16 7.92-2.16 4.186 0 6.893 2.002 6.893 5.505v12.451zm-5.297-4.682v-3.242c-2.525-.041-4.887.212-4.887 2.624 0 1.493 1.257 1.956 2.212 1.956 1.132 0 2.006-.566 2.675-1.338zm-45.311-4.734c0 .582-.019 1.182-.051 1.802H78.579c.05 2.55 1.322 4.064 5.04 4.064 1.647 0 3.627-.75 4.475-1.338l1.44 3.241c-2.402 1.305-4.989 2.007-7.87 2.007-5.449 0-8.843-3.51-8.843-9.107 0-5.688 4.45-9.21 9.255-9.21 5.987 0 8.177 3.5 8.177 8.541zm-5.606-1.698c.093-1.933-.876-3.138-2.777-3.138-1.836 0-2.931 1.348-3.24 3.138h6.017zM72.831 32.49c0 5.117-5.1 7.487-10.132 7.511-4.426.022-8.691-1.253-8.691-5.505 0-1.989 1.761-3.319 2.829-4.013-.592-.338-1.131-.604-1.595-1.132-.488-.555-.874-1.366-.874-2.727 0-1.715 1.512-3.3 3.343-4.323-1.016-.534-2.366-1.395-2.366-4.27 0-3.739 3.545-5.71 8.178-5.71 3.936 0 7.714.942 7.714 5.557 0 4.409-4.141 6.02-8.332 6.02-.78 0-1.48-.124-2.16-.258-.447.239-1.337.83-1.337 1.493 0 1.348 1.838 1.544 2.674 1.544h4.32c4.006 0 6.43 1.943 6.43 5.813zM65.94 18.134c0-1.47-.811-2.675-2.622-2.675-1.656 0-2.675 1.4-2.675 2.675 0 1.472.916 2.675 2.571 2.675 1.82 0 2.726-1.209 2.726-2.675zm1.44 15.075c0-1.43-1.144-1.955-2.314-1.955h-4.783c-.729.416-1.852 1.33-1.852 2.521 0 1.54 2.074 2.572 4.526 2.572 2.54 0 4.423-1.167 4.423-3.138z" fill="#4F72B7"/></svg>