<svg width="159" height="40" fill="none" xmlns="http://www.w3.org/2000/svg"><g clip-path="url(#clip0_494_1151)"><path d="M56.077 17.122h-5.318a.28.28 0 00-.279.279v2.843a.28.28 0 00.279.278h4.76c.355 0 .646.29.646.644V24.2a.648.648 0 01-.645.644h-4.761a.28.28 0 00-.279.278v6.963a.648.648 0 01-.645.644h-3.9a.648.648 0 01-.646-.644V13.452c0-.354.292-.645.646-.645H56.07c.355 0 .646.29.646.645v3.032a.641.641 0 01-.64.638zm22.34 7.159a13.854 13.854 0 01-.29 3.064c-.31 1.314-1.033 2.509-2.166 3.589-1.62 1.529-3.785 2.293-6.489 2.293-2.753 0-4.906-.777-6.457-2.331a6.417 6.417 0 01-1.684-3.077 15.747 15.747 0 01-.323-3.532V13.452c0-.354.291-.645.646-.645h3.9c.354 0 .645.29.645.645v10.121c0 .866.013 1.51.045 1.94.101 1.352.715 2.293 1.848 2.824a3.553 3.553 0 001.551.335c1.266 0 2.222-.442 2.868-1.327.475-.65.715-1.908.715-3.778V13.452c0-.354.285-.645.64-.645h3.899c.355 0 .646.29.646.645l.007 10.829zm19.208 1.845c0 3.367-1.482 5.566-4.445 6.583a9.939 9.939 0 01-3.33.537 11.626 11.626 0 01-6.444-1.927.653.653 0 01-.234-.846l1.57-2.95a.636.636 0 01.86-.273c.032.02.07.038.102.064 1.361 1.074 2.69 1.617 4.001 1.617a3.038 3.038 0 001.716-.461c.525-.316.842-.891.823-1.504 0-.594-.304-1.08-.912-1.472-.45-.29-1.203-.594-2.266-.897-1.285-.38-2.096-.638-2.431-.79a5.465 5.465 0 01-1.349-.79c-1.05-.878-1.576-2.198-1.576-3.967 0-1.845.55-3.374 1.652-4.587 1.292-1.428 3-2.142 5.147-2.142a13.33 13.33 0 015.73 1.32.64.64 0 01.31.853c-.007.007-.007.02-.013.026l-1.444 2.78a.643.643 0 01-.867.277c-.019-.012-.038-.019-.057-.031a5.164 5.164 0 00-2.849-.923 2.72 2.72 0 00-1.494.443 1.488 1.488 0 00-.747 1.289c0 .524.33.979.981 1.358.298.177 1.172.48 2.634.91 1.836.537 3.14 1.295 3.931 2.274.665.847 1 1.921 1 3.229zm9.66 6.59h-5.197V12.807h5.197v19.909zm26.576-9.888a10.433 10.433 0 01-2.703 7.114c-2.058 2.325-4.837 3.488-8.344 3.488-3.507 0-6.28-1.163-8.325-3.488a10.416 10.416 0 01-2.703-7.114c.013-1.302.26-2.584.728-3.797a10.616 10.616 0 011.95-3.336c2.058-2.325 4.837-3.488 8.344-3.488 3.507 0 6.286 1.163 8.344 3.488a10.424 10.424 0 012.709 7.133zm-5.375 0a5.305 5.305 0 00-1.348-3.64 5.674 5.674 0 00-7.989-.631 5.666 5.666 0 00-1.988 4.27 5.437 5.437 0 001.348 3.615 5.386 5.386 0 004.311 1.977 5.612 5.612 0 005.673-5.54c-.007-.026-.007-.039-.007-.051zm29.134 9.888h-4.229a.635.635 0 01-.506-.247l-8.851-11.31a.28.28 0 00-.392-.043.265.265 0 00-.108.214v11.386h-4.545a.648.648 0 01-.646-.645v-18.62c0-.353.291-.644.646-.644h4.229c.196 0 .386.089.506.247l8.85 11.31c.095.12.273.138.393.043a.269.269 0 00.108-.22V13.451c0-.354.291-.645.645-.645h3.9c.354 0 .646.29.646.645v18.625a.647.647 0 01-.646.639z" fill="#5126D7"/><path d="M18.41 12.99C12.23 22.43 8.433 35.54 6.964 40c-.83-8.396 3.564-19.845 6.786-26.599-1.494.063-9.382.62-13.743 5.112 0 0 2.367-7.21 15.984-9.42l.045-.083C26.69-6.526 34.692 2.75 34.692 2.75c-4.856-.796-9.097 1.617-12.7 5.553 1.748-.075 13.13-.195 16.416 8.77-.006.006-6.603-4.707-19.998-4.081zm7.698 10.81a4.931 4.931 0 00-4.938 4.929 4.931 4.931 0 004.938 4.928 4.931 4.931 0 004.938-4.928c0-2.717-2.21-4.922-4.938-4.928z" fill="url(#paint0_linear_494_1151)"/></g><defs><linearGradient id="paint0_linear_494_1151" x1="11.58" y1="2.52" x2="30.252" y2="40.751" gradientUnits="userSpaceOnUse"><stop stop-color="#5600DB"/><stop offset="1" stop-color="#21A9D5"/></linearGradient><clipPath id="clip0_494_1151"><path fill="#fff" d="M0 0h158.266v40H0z"/></clipPath></defs></svg>