<svg width="172" height="40" fill="none" xmlns="http://www.w3.org/2000/svg"><path fill-rule="evenodd" clip-rule="evenodd" d="M34.073 31.958h2.646l1.798 4.76c.212.529.318.74.423 1.165.107-.317.107-.53.318-1.058l1.904-4.867h2.646v7.83h-1.693v-6.137c0 .211-.106.318-.212.529l-2.117 5.608h-1.692l-2.222-5.503-.211-.634c.105.318.105.318.105.634v5.503h-1.694v-7.83h.001zm16.932 1.163c1.376 0 2.645 1.059 2.645 2.752 0 1.48-.952 2.75-2.645 2.75-1.377 0-1.905-.74-2.117-1.056-.105-.213-.423-.636-.423-1.587 0-1.906 1.27-2.753 2.54-2.859zm-.212-1.376c-2.434.105-4.233 1.482-4.233 4.128 0 2.433 1.587 4.127 4.445 4.127 2.962 0 4.55-1.694 4.55-4.232a4.158 4.158 0 00-.847-2.541c-.846-1.164-2.54-1.588-3.915-1.482zm6.561.213h7.195v1.48h-2.645v6.35h-1.905v-6.35h-2.645v-1.48zM71.11 33.12c1.376 0 2.646 1.059 2.646 2.752 0 1.48-.952 2.75-2.646 2.75-1.376 0-1.904-.74-2.116-1.056-.106-.213-.424-.636-.424-1.587 0-1.906 1.27-2.753 2.54-2.859zm-.21-1.376c-2.435.105-4.234 1.482-4.234 4.128 0 2.433 1.587 4.127 4.55 4.127 2.962 0 4.445-1.694 4.445-4.232a4.16 4.16 0 00-.847-2.541c-.847-1.164-2.54-1.588-3.915-1.482zm9.628 1.587h2.857c.742 0 .953.211 1.058.425.106.21.106.423.106.634 0 .846-.74.846-1.058.846h-2.963v-1.905zm-1.799 6.456h1.8v-3.175h2.116l1.904 3.175h2.223l-2.223-3.28c.318 0 .742-.106 1.165-.424.53-.423.741-1.165.741-1.799 0-.423-.106-.953-.53-1.481-.634-.74-1.376-.846-2.221-.846h-4.975v7.83zm25.186-2.647c-.106.425-.211 1.059-.952 1.694-.53.53-1.481 1.165-3.386 1.165-2.647 0-4.444-1.376-4.444-4.127 0-2.963 2.222-4.128 4.55-4.128.845 0 3.28.213 4.232 2.435l-2.01.21c-.211-.317-.846-1.164-2.222-1.164-1.694 0-2.645 1.165-2.645 2.647 0 1.693 1.268 2.75 2.645 2.75 1.587 0 2.116-1.057 2.327-1.482h1.905zm6.984-4.02c1.482 0 2.751 1.059 2.751 2.752 0 1.48-.952 2.75-2.645 2.75-1.377 0-2.01-.74-2.117-1.056-.105-.213-.53-.636-.53-1.587 0-1.906 1.376-2.753 2.541-2.859zm-.212-1.376c-2.329.105-4.128 1.482-4.128 4.128 0 2.433 1.481 4.127 4.446 4.127 2.962 0 4.549-1.694 4.549-4.232a4.156 4.156 0 00-.846-2.541c-.847-1.164-2.54-1.588-4.021-1.482zm7.619.213h2.645l1.905 4.76c.211.529.211.74.317 1.165.106-.317.211-.53.423-1.058l1.905-4.867h2.541v7.83h-1.693v-5.503c0-.21 0-.423.105-.634-.105.211-.105.318-.211.529l-2.222 5.608h-1.693l-2.117-5.503c-.211-.317-.211-.317-.211-.634v6.137h-1.694v-7.83zm15.344 1.374h2.011c.74 0 1.056 0 1.268.211.213.213.32.425.32.848 0 1.057-.743 1.057-1.377 1.057h-2.222v-2.116zm-1.799 6.456h1.799v-2.963h2.54c.953 0 1.799 0 2.433-.846.211-.318.425-.848.425-1.587 0-.529-.106-1.059-.32-1.482-.634-.846-1.586-.951-2.433-.951h-4.444v7.83zm14.179-2.858h-2.539l1.057-2.54c.107-.105.107-.21.213-.317v-.317c0 .105.105.211.105.317 0 .107.106.211.106.318l1.058 2.54zm-5.714 2.858h2.01l.53-1.482h3.809l.634 1.482h2.01l-3.492-7.83h-2.011l-3.49 7.83zm11.64-7.83h1.799l3.598 4.338c.529.529.529.634 1.059 1.271-.106-.742-.106-.953-.106-1.587v-4.021H160v7.83h-1.799l-3.598-4.446c-.423-.423-.529-.634-.953-1.163 0 .634 0 .74.105 1.269v4.34h-1.799v-7.831zm10.9 0h2.222l1.905 2.962c.211.211.211.211.211.423.105-.21.105-.21.212-.317l2.011-3.068h2.222l-3.493 4.867v2.963h-1.799v-2.963l-3.491-4.867zM128.782 4.02C126.983 0 127.618.423 123.704.317c-.32-.107-1.165-.107-2.33-.107-1.163 0-1.374 0-2.327.107-3.704 0-3.07-.212-4.339 2.433 0 0-6.35 14.287-9.101 20.212l-.105.211c-.529 1.057-.211 1.057.634 1.057h5.714c.423 0 .636-.21.743-.423 0 0 .846-1.799 1.904-4.338h13.968c1.059 2.433 1.799 4.232 1.799 4.338.106.318.423.423.741.423h5.925c.848 0 1.059.108.742-.634-1.06-2.538-7.937-17.353-8.89-19.576zm-12.169 10.37c1.799-4.231 3.598-8.359 3.598-8.465.106-.211.317-.318.634-.318.105-.105.423-.105.74-.105.213 0 .531 0 .636.105.211 0 .423.106.529.423.422 1.164 2.01 4.762 3.492 8.36h-9.629zM40.423 0h-5.82c-.424 0-.53.211-.53.635V23.28c0 .634.106.74.742.74h5.502c.634 0 .74-.21.74-.74V.634c0-.423-.106-.634-.634-.634zM28.677.211h-4.761c-.635 0-.742.212-.742.741v17.99S13.545 4.127 12.381 2.222C10.899.106 10.37.212 6.244.212H.741C.106.212 0 .424 0 .953v22.54c0 .634.106.74.741.74h4.762c.635 0 .741-.105.741-.74V5.819s7.936 12.17 10.582 16.296c1.27 2.116 1.587 2.116 5.396 2.116h6.455c.635 0 .741-.105.741-.74V.952c0-.53-.106-.741-.74-.741zm141.269 0h-4.763c-.633 0-.74.212-.74.741v17.99s-9.524-14.815-10.794-16.72c-1.482-2.116-2.01-2.01-6.137-2.01h-5.503c-.634 0-.74.212-.74.741v22.54c0 .634.105.74.74.74h4.763c.634 0 .74-.105.74-.74V5.819s7.936 12.17 10.582 16.296c1.269 2.116 1.588 2.116 5.396 2.116h6.456c.634 0 .74-.105.74-.74V.952c0-.53-.105-.741-.74-.741zM64.655 9.417c-2.328-.21-8.57-.74-10.582-.952-.74-.106-1.057-.53-1.057-1.058v-.952c.105-.741.422-1.059 1.164-1.059h16.93c.635.107.847-.105.847-.635V.846c0-.53-.211-.635-.847-.635H53.86c-4.444 0-6.984 1.587-7.724 4.973-.106.74-.106 1.693-.106 2.329 0 .741 0 1.587.106 2.222.21 1.905 1.48 4.127 6.667 4.656 4.02.423 9.947.953 11.957 1.059.953.105 1.058.74 1.165 1.165V18.2c-.107.53-.319.742-1.059.742H46.878c-.635 0-.74.106-.74.74v3.81c0 .634.105.74.74.74h17.777c4.445 0 7.302-.74 8.043-4.55.211-.845.211-1.798.211-2.539 0-1.165-.105-2.222-.105-2.54-.847-4.021-3.916-4.763-8.149-5.186zm30.584 0c-2.33-.21-8.573-.74-10.583-.952-.847-.106-1.059-.53-1.059-1.058v-.952c.107-.741.424-1.059 1.165-1.059h16.931c.634.107.846-.105.846-.635V.846c0-.53-.211-.635-.846-.635h-17.25c-4.444 0-6.983 1.587-7.725 4.973-.105.74-.105 1.693-.105 2.329 0 .741 0 1.587.105 2.222.318 1.905 1.482 4.127 6.667 4.656 4.02.423 9.948.953 11.959 1.059.846.105 1.057.74 1.163 1.165V18.2c-.105.53-.317.742-1.056.742H77.46c-.635 0-.742.106-.742.74v3.81c0 .634.106.74.742.74h17.778c4.444 0 7.3-.74 8.042-4.55.211-.845.211-1.798.211-2.539 0-1.165-.106-2.222-.106-2.54-.847-4.021-3.915-4.763-8.147-5.186z" fill="#B52D4C"/></svg>