<svg width="191" height="30" fill="none" xmlns="http://www.w3.org/2000/svg"><path d="M21.184 20.664a8.018 8.018 0 01-6.568 3.397c-4.664 0-8.184-3.542-8.184-8.237 0-2.35.853-4.473 2.4-5.977 1.501-1.458 3.559-2.26 5.784-2.26a8.004 8.004 0 016.568 3.405l.244.344 4.854-4.122-.243-.29a14.884 14.884 0 00-11.43-5.306C6.552 1.611 0 7.985 0 15.824 0 23.648 6.553 30 14.608 30a14.868 14.868 0 0011.423-5.268l.244-.29-4.854-4.122-.237.344z" fill="#E23A05"/><path d="M49.738.42v28.893H44.38v-1.267c-1.684.992-3.864 1.61-6.043 1.61-5.776 0-10.516-4.366-10.516-10.763 0-6.511 4.74-10.763 10.516-10.763a12.5 12.5 0 016.043 1.58V.42h5.357zM44.38 23.03v-8.358c-1.265-1.07-3.056-1.764-5.083-1.764-3.559 0-6.195 2.565-6.195 5.977 0 3.527 2.636 5.94 6.195 5.94 1.989 0 3.825-.688 5.083-1.795zm9.937-12.847h5.319v19.13h-5.32v-19.13zM65.145 23.68c2.56 1.115 4.511 1.687 7.117 1.687 2.446 0 3.407-.916 3.407-1.992 0-1.191-1.19-1.725-4.397-2.412-4.481-.993-7.727-2.45-7.727-6.474 0-3.755 3.101-6.358 7.917-6.358 3.254 0 5.853.763 8.108 1.687l-1.76 3.908c-2.027-.763-4.397-1.343-6.462-1.343-2.027 0-3.056.725-3.056 1.84 0 1.152 1.265 1.686 4.588 2.373 4.816 1 7.612 2.68 7.612 6.474 0 3.946-3.025 6.549-8.336 6.549-3.597 0-5.929-.496-8.985-1.992l1.974-3.947zm37.019 1.764c-1.874 2.564-4.816 4.175-8.031 4.175-6.272 0-11.362-4.786-11.362-10.725 0-5.977 5.082-10.763 11.362-10.763 3.33 0 6.233 1.61 8.108 4.137l-3.445 3.183a5.653 5.653 0 00-4.663-2.526c-3.369 0-6.12 2.679-6.12 5.977 0 3.26 2.751 5.938 6.12 5.938a5.593 5.593 0 004.663-2.564l3.368 3.168zm24.317-6.558c0 5.94-5.083 10.725-11.362 10.725s-11.362-4.786-11.362-10.725c0-5.977 5.083-10.763 11.362-10.763s11.362 4.786 11.362 10.763zm-5.235 0c0-3.297-2.713-5.977-6.119-5.977-3.369 0-6.12 2.68-6.12 5.977 0 3.26 2.751 5.94 6.12 5.94 3.398 0 6.119-2.68 6.119-5.94zM149.503 8.68v20.634h-5.319V27.93c-1.578 1.076-3.521 1.687-5.662 1.687-6.081 0-8.878-2.832-8.878-9.58V8.679h5.319v11.359c0 3.221 1.578 4.786 4.511 4.786 1.913 0 3.483-.61 4.702-1.649V8.672h5.327v.007zm24.133 9.023v11.61h-5.319v-11.61c0-3.221-1.577-4.786-4.511-4.786-1.875 0-3.406.61-4.587 1.649v14.748H153.9V8.503h5.319V9.81c1.531-1.076 3.444-1.687 5.547-1.687 6.074 0 8.87 2.84 8.87 9.58zm10.851-4.794v7.359c0 3.718.61 4.786 3.292 4.786.915 0 1.723-.114 2.447-.19v3.984c-.229.076-1.837.763-4.816.763-3.483 0-6.272-2.183-6.272-6.55V12.909h-2.941V8.504h2.941V.42h5.357v8.084h5.807v4.404h-5.815z" fill="#293847"/><path d="M54.112 3.145C54.112 1.42 55.483 0 57.167 0c1.684 0 3.026 1.42 3.026 3.145s-1.342 3.107-3.026 3.107a3.083 3.083 0 01-3.055-3.107z" fill="#E23A05"/></svg>