<svg width="163" height="40" fill="none" xmlns="http://www.w3.org/2000/svg"><path d="M19.976 0C8.946 0 0 8.957 0 20s8.946 20 19.976 20 19.977-8.957 19.977-20C39.94 8.957 31.007 0 19.976 0zm.096 31.439c2.455-2.746 4.922-6.499 4.276-9.569-.527-3.117-2.839-4.136-4.383-4.112-1.546-.024-3.857.995-4.384 4.113-.647 3.069 1.82 6.822 4.276 9.568C12.084 31.355 5.82 25.024 5.82 17.23c0-7.854 6.359-14.208 14.191-14.208 7.845 0 14.204 6.354 14.204 14.208.012 7.83-6.323 14.185-14.144 14.209zm81.63.527c-3.018 0-5.892-.755-7.688-2.05-2.288-1.607-3.533-4.64-3.533-8.501 0-7.266 3.533-10.767 10.898-10.767 7.353 0 10.898 3.537 10.898 10.923-.012 6.822-3.616 10.395-10.575 10.395zm-.299-17.781c-4 0-5.725 2.146-5.725 7.074-.036 4.928 1.797 7.17 5.761 7.17 3.904 0 5.665-2.242 5.665-7.194 0-4.844-1.785-7.05-5.701-7.05zm24.815 13.657c-2.887 0-3.833-.18-4.623-.84-.755-.66-.958-1.115-1.054-3.153V13.357c-.012-1.067-.898-1.93-2.012-1.954h-2.659v11.259c0 3.501.348 5.06 1.545 6.439 1.354 1.594 3.366 2.302 6.539 2.302h6.288V27.83l-4.024.012zm27.821-16.427h-3.162c-1.222.024-2.264.731-2.731 1.75l-7.916 18.25h3.21c1.245-.012 2.323-.732 2.778-1.763l1.246-2.877h7.976l1.257 2.913c.467 1.02 1.533 1.727 2.767 1.739h3.233l-8.658-20.012zm-5.569 11.81l2.982-7.014 2.982 7.014h-5.964zm-13.282-11.81c-1.102.024-1.988.875-2.012 1.93v18.07h2.599c1.102-.012 2.012-.863 2.024-1.919V11.415h-2.611zm-70.037.024c-1.222.024-2.276.743-2.73 1.75l-4.899 12.315-5.246-12.29c-.455-1.032-1.509-1.751-2.754-1.775h-3.198l8.839 20h2.539c1.197-.024 2.227-.708 2.694-1.69l8.264-18.31h-3.51zm10.563 5.767c.778-1.582 2.371-2.182 5.281-2.218h6.096v-3.573h-7.928c-1.27 0-2.251.084-3.078.288 0 0-.024 0-.036.012a6.38 6.38 0 00-1.569.6c-1.173.587-1.82 1.282-1.82 1.282-.719.708-1.33 1.607-1.784 2.65-.707 1.439-1.03 3.046-1.03 5v.324c0 1.966.323 3.56 1.03 5.012.478 1.09 1.113 2.026 1.892 2.758 0 0 .419.383.647.551.574.432 1.161.72 1.628.9.192.083.395.155.611.215.204.06.335.096.335.096.839.204 1.857.312 3.174.312h7.928v-3.561h-6.096c-2.91-.036-4.503-.624-5.281-2.218-.3-.612-.48-1.38-.563-2.315v-.18h11.437v-3.44H75.151v-.18c.084-.948.264-1.703.563-2.315z" fill="#ED1D24"/></svg>