<svg width="219" height="40" fill="none" xmlns="http://www.w3.org/2000/svg"><path d="M90.312 10.63c-1.652-.91-4.11-1.354-7.511-1.355-4.655.002-8.976.97-10.611 1.58-.37.119-.765.438-.771.985l.001.12.458 2.32.012.043a.926.926 0 00.893.684h.002a1.31 1.31 0 00.288-.048l.775-.182c2.027-.508 5.092-1.276 8.514-1.276 2.076 0 3.472.18 4.407.577 1.518.575 1.528 1.559 1.543 3.186v2.434a54.834 54.834 0 00-.92-.006c-1.675 0-4.971.078-8.212.599-4.947.761-9.04 1.947-9.013 8.776.001 8.668 8.025 8.684 11.882 8.693 2.618-.001 5.033-.389 6.61-.715 3.6-.838 4.52-1.983 4.471-5.567V17.064c.005-2.199.011-4.935-2.818-6.434zm-1.976 22.267c-1.916.623-4.013.938-6.233.938v.203l-.002-.203c-3.548-.027-7.012-.434-7.017-4.968.023-3.605 1.943-4.035 4.374-4.578l.168-.038c2.163-.463 7.59-.55 8.71-.563v9.209zm44.906-15.833v14.414c.048 3.584-.871 4.729-4.471 5.566-1.577.328-3.993.715-6.611.715-3.856-.008-11.88-.024-11.882-8.693-.026-6.828 4.067-8.014 9.013-8.775 3.241-.521 6.537-.6 8.213-.6.452 0 .746.004.92.007v-2.434c-.016-1.627-.025-2.61-1.543-3.186-.936-.396-2.331-.577-4.407-.577-3.423 0-6.487.768-8.515 1.276l-.775.182a1.303 1.303 0 01-.288.048h-.001a.927.927 0 01-.894-.684l-.011-.043-.459-2.32v-.12c.006-.547.401-.866.77-.985 1.635-.61 5.956-1.578 10.611-1.58 3.402.001 5.859.444 7.512 1.355 2.829 1.5 2.823 4.235 2.818 6.434zm-4.794 6.624c-1.12.013-6.547.1-8.71.563l-.168.037c-2.43.544-4.351.973-4.373 4.58.004 4.533 3.468 4.94 7.016 4.967l.003.202v-.202c2.22 0 4.316-.316 6.232-.939v-9.208zm77.454-14.413c-11.175.015-12.123 7.372-12.133 14.268.01 6.87.958 14.201 12.133 14.216h.001c11.166-.015 12.117-7.326 12.133-14.217-.011-7.21-.959-14.252-12.134-14.267zm0 24.46c-6.777-.03-7.118-3.516-7.164-10.19.046-6.712.386-10.216 7.163-10.245 6.78.03 7.119 3.533 7.166 10.241-.047 6.678-.387 10.164-7.165 10.194zm-20.055 3.01l-.291.074c-1.563.397-3.704.94-7.457.94h-.008c-10.342-.015-12.372-5.242-12.383-14.267.013-10.35 3.287-14.203 12.082-14.217 3.102 0 5.24.402 6.774.773l-.009-8.337c-.013-.365.152-.844 1.016-1.01L188.318 0h.15c.631.016.854.58.855 1.057v31.325c.042 1.978-.19 3.675-3.476 4.363zm-1.29-22.685c-.917-.233-3.477-.81-6.36-.81-5.295.048-7.516 1.49-7.571 10.294.062 9.667 2.935 10.19 7.618 10.24l.003.203v-.202c2.915 0 5.416-.61 6.308-.855l.002-18.87zm-24.686 23.046h-2.456a1.134 1.134 0 01-1.156-1.158V17.365c-.045-3.144-.982-4.018-4.361-4.065-3.822 0-7.691.96-8.967 1.309v21.338c-.001.671-.466 1.158-1.105 1.16h-2.507a1.134 1.134 0 01-1.156-1.159V15.105c-.037-1.93.144-3.263 2.883-4.151 2.622-.908 7.641-1.677 10.955-1.679 6.318.008 9.017 2.292 9.025 7.637v19.035a1.134 1.134 0 01-1.155 1.16zm-55.645.502h.002c1.412-.027 2.456-.307 2.865-.767a.704.704 0 00.194-.537c-.009-.153-.009-.153-.397-1.971l-.009-.044c-.084-.475-.422-.691-.701-.691-.027 0-.052.001-.038.003 0 0-.355-.017-.705-.017h-.004c-1.006-.032-1.84-.179-1.857-1.655V1.057c-.001-.515-.311-1.043-.906-1.057l-.175.002-2.752.706c-.468.048-.956.382-.936 1.003v30.32c.005 3.59 1.929 5.57 5.416 5.577h.003zm-38.862-.502H45.65a1.135 1.135 0 01-1.157-1.158v-2.412c-.013-.59.176-.854.539-1.305l15.692-18.278H45.349a1.135 1.135 0 01-1.156-1.159v-1.708c0-.659.498-1.156 1.156-1.158h19.914c.658.002 1.155.5 1.156 1.158v2.461c.01.445-.144.823-.498 1.218L50.19 33.081h15.173c.658.002 1.155.5 1.157 1.159v1.707a1.135 1.135 0 01-1.156 1.16z" fill="#231F20"/><path d="M4.992 6.882c-3.407 0-5.16 9.321-4.977 18.073H0c.182 7.681 1.878 15.044 5.238 15.044 12.897 0 27.59-12.186 27.59-16.555 0-1.092-1.11-3.195-2.599-4.855h-.008c-.101-.118-.208-.235-.315-.355C25.312 13.098 15.78 6.882 4.992 6.882z" fill="url(#paint0_linear_494_1184)"/><path d="M.013 24.956c9.69 2.28 20.035-.287 30.057-6.272l.151-.091a24.794 24.794 0 00-.311-.356C25.315 13.102 15.778 6.884 4.99 6.884c-3.407 0-5.16 9.32-4.977 18.072zm30.208-6.363c.003 0 .004-.002.006-.003l-.006.003z" fill="url(#paint1_linear_494_1184)"/><path d="M.003 24.953c.182 7.68 1.878 15.046 5.239 15.046 12.896 0 27.59-12.182 27.59-16.55 0-1.093-1.116-3.2-2.605-4.86-10.074 6.054-20.48 8.66-30.224 6.364z" fill="url(#paint2_linear_494_1184)"/><defs><linearGradient id="paint0_linear_494_1184" x1="25.728" y1="44.094" x2="3.168" y2="5.095" gradientUnits="userSpaceOnUse"><stop stop-color="#F47026"/><stop offset=".375" stop-color="#F47026"/><stop offset=".949" stop-color="#FBC195"/><stop offset="1" stop-color="#FBC195"/></linearGradient><linearGradient id="paint1_linear_494_1184" x1="27.444" y1="43.102" x2="4.884" y2="4.103" gradientUnits="userSpaceOnUse"><stop stop-color="#F47026"/><stop offset=".375" stop-color="#F47026"/><stop offset=".949" stop-color="#FBC195"/><stop offset="1" stop-color="#FBC195"/></linearGradient><linearGradient id="paint2_linear_494_1184" x1=".034" y1="29.33" x2="32.862" y2="29.33" gradientUnits="userSpaceOnUse"><stop stop-color="#F57D34"/><stop offset=".534" stop-color="#F47026"/><stop offset="1" stop-color="#F47026"/></linearGradient></defs></svg>