<svg id="Layer_1" data-name="Layer 1" xmlns="http://www.w3.org/2000/svg" xmlns:xlink="http://www.w3.org/1999/xlink" viewBox="0 0 859.41 497.81"><defs><style>.cls-1,.cls-10,.cls-11,.cls-12,.cls-13,.cls-14,.cls-15,.cls-16,.cls-17,.cls-18,.cls-19,.cls-20,.cls-21,.cls-22,.cls-23,.cls-24,.cls-25,.cls-26,.cls-27,.cls-28,.cls-29,.cls-3,.cls-30,.cls-31,.cls-32,.cls-33,.cls-34,.cls-35,.cls-36,.cls-37,.cls-38,.cls-39,.cls-4,.cls-40,.cls-41,.cls-42,.cls-43,.cls-44,.cls-45,.cls-46,.cls-5,.cls-6,.cls-7,.cls-8,.cls-9{fill:none;}.cls-2{clip-path:url(#clip-path);}.cls-3,.cls-4,.cls-5{stroke:#d2d6d6;}.cls-10,.cls-11,.cls-12,.cls-13,.cls-14,.cls-15,.cls-16,.cls-17,.cls-18,.cls-19,.cls-20,.cls-21,.cls-22,.cls-23,.cls-24,.cls-25,.cls-26,.cls-27,.cls-28,.cls-29,.cls-3,.cls-30,.cls-31,.cls-32,.cls-33,.cls-34,.cls-35,.cls-36,.cls-37,.cls-38,.cls-39,.cls-4,.cls-40,.cls-41,.cls-42,.cls-43,.cls-44,.cls-45,.cls-46,.cls-5,.cls-6,.cls-7,.cls-8,.cls-9{stroke-miterlimit:10;}.cls-3{stroke-width:0.75px;}.cls-4,.cls-5{stroke-width:0.76px;}.cls-10,.cls-11,.cls-12,.cls-13,.cls-14,.cls-15,.cls-16,.cls-17,.cls-18,.cls-19,.cls-20,.cls-21,.cls-22,.cls-23,.cls-24,.cls-25,.cls-26,.cls-27,.cls-28,.cls-29,.cls-30,.cls-31,.cls-32,.cls-33,.cls-34,.cls-35,.cls-36,.cls-37,.cls-38,.cls-39,.cls-4,.cls-40,.cls-41,.cls-42,.cls-43,.cls-44,.cls-45,.cls-5,.cls-6,.cls-7,.cls-8,.cls-9{isolation:isolate;}.cls-4{opacity:0.98;}.cls-5{opacity:0.95;}.cls-10,.cls-6,.cls-7,.cls-8,.cls-9{stroke:#d3d7d7;}.cls-6,.cls-7{stroke-width:0.77px;}.cls-6{opacity:0.93;}.cls-7{opacity:0.91;}.cls-8,.cls-9{stroke-width:0.78px;}.cls-8{opacity:0.88;}.cls-9{opacity:0.86;}.cls-10{stroke-width:0.79px;opacity:0.84;}.cls-11{stroke:#d4d7d7;opacity:0.81;}.cls-11,.cls-12{stroke-width:0.8px;}.cls-12,.cls-13,.cls-14{stroke:#d4d8d8;}.cls-12{opacity:0.79;}.cls-13,.cls-14{stroke-width:0.81px;}.cls-13{opacity:0.77;}.cls-14{opacity:0.74;}.cls-15,.cls-16{stroke:#d5d8d8;}.cls-15{stroke-width:0.82px;opacity:0.72;}.cls-16,.cls-17{stroke-width:0.83px;}.cls-16{opacity:0.7;}.cls-17,.cls-18,.cls-19{stroke:#d5d9d9;}.cls-17{opacity:0.67;}.cls-18,.cls-19{stroke-width:0.84px;}.cls-18{opacity:0.65;}.cls-19{opacity:0.63;}.cls-20,.cls-21{stroke:#d6d9d9;stroke-width:0.85px;}.cls-20{opacity:0.6;}.cls-21{opacity:0.58;}.cls-22,.cls-23,.cls-24{stroke:#d6dada;}.cls-22{stroke-width:0.86px;opacity:0.56;}.cls-23,.cls-24{stroke-width:0.87px;}.cls-23{opacity:0.53;}.cls-24{opacity:0.51;}.cls-25,.cls-26,.cls-27{stroke:#d7dada;}.cls-25,.cls-26{stroke-width:0.88px;}.cls-25{opacity:0.49;}.cls-26{opacity:0.47;}.cls-27{stroke-width:0.89px;opacity:0.44;}.cls-28,.cls-29{stroke:#d7dbdb;stroke-width:0.9px;}.cls-28{opacity:0.42;}.cls-29{opacity:0.4;}.cls-30,.cls-31,.cls-32{stroke:#d8dbdb;}.cls-30,.cls-31{stroke-width:0.91px;}.cls-30{opacity:0.37;}.cls-31{opacity:0.35;}.cls-32,.cls-33{stroke-width:0.92px;}.cls-32{opacity:0.33;}.cls-33,.cls-34{stroke:#d8dcdc;}.cls-33{opacity:0.3;}.cls-34{stroke-width:0.93px;opacity:0.28;}.cls-35,.cls-36,.cls-37{stroke:#d9dcdc;}.cls-35,.cls-36{stroke-width:0.94px;}.cls-35{opacity:0.26;}.cls-36{opacity:0.23;}.cls-37,.cls-38{stroke-width:0.95px;}.cls-37{opacity:0.21;}.cls-38{stroke:#d9dddd;opacity:0.19;}.cls-39,.cls-40,.cls-41,.cls-42,.cls-43{stroke:#dadddd;}.cls-39{stroke-width:0.96px;opacity:0.16;}.cls-40,.cls-41{stroke-width:0.97px;}.cls-40{opacity:0.14;}.cls-41{opacity:0.12;}.cls-42,.cls-43{stroke-width:0.98px;}.cls-42{opacity:0.09;}.cls-43{opacity:0.07;}.cls-44,.cls-45,.cls-46{stroke:#dbdede;}.cls-44,.cls-45{stroke-width:0.99px;}.cls-44{opacity:0.05;}.cls-45{opacity:0.02;}.cls-46{stroke-opacity:0;}</style><clipPath id="clip-path"><rect class="cls-1" y="-46" width="859.41" height="543.81"/></clipPath></defs><g class="cls-2"><path class="cls-3" d="M-50,174.18c61.66-23.4,118.87-36,146.15-32.74,75.66,8.91,118.18,123.62,143.65,128.22,31,5.62,44.75-117.38,80.21-136,34.45-18.09,98.55,36.87,147.05,13.47C523.56,119.93,616.62,37.66,663.2,17.56c57.18-24.67,86.49,240,126.23,240.22C835.68,258,893.19-33.46,909-90.37"/><path class="cls-4" d="M-48.89,178.44c61.27-23.42,118-36.05,145.37-33.12,75.91,8.14,118.28,120.83,143.68,126.27,30.94,6.62,44.42-112,80.22-130.52,34.53-17.95,97.83,35.14,145.52,11.21,36.84-18.49,88.42-60.38,132.72-91.89,23.59-16.84,45.25-30.8,61.57-37.43C689,11.22,711.28,69.84,730.72,131,750.2,192.63,767.33,256.47,787,255.51c16-.79,33.48-36.78,50.16-85.17C868.08,81.09,898.94-49,909.61-86"/><path class="cls-5" d="M-47.75,182.72c60.89-23.45,117.17-36.21,144.62-33.51,76.16,7.35,118.4,118,143.76,124.19,30.86,7.61,44.09-106.65,80.22-125.14,34.61-17.8,97.14,33.4,144.07,9,36.67-19.12,87.25-61.57,130.82-92.45,23.28-16.45,45-30,61.5-36.3,29.14-11.24,52.06,46.46,71.54,105.93,19.48,60,36.36,120.88,55.76,118.89,15.8-1.65,32.86-37.56,49.56-85,30.94-87.91,65-212.77,76.08-249.85"/><path class="cls-6" d="M-46.59,187c60.5-23.47,116.31-36.25,143.84-33.88C173.64,159.63,215.78,268.28,241,275.28c30.81,8.55,43.74-101.31,80.16-119.71,34.72-17.66,96.47,31.64,142.59,6.69,36.55-19.79,86.08-62.78,128.94-93.11,23-16.2,44.69-29.3,61.44-35.3C683.64,23.24,707.28,80,726.81,137.78c19.55,58.23,36.13,116.37,55.28,113.28,15.55-2.53,32.31-38.33,49-84.83C862,79.7,899.28-39.94,910.76-77.13"/><path class="cls-7" d="M-45.43,191.24C14.68,167.75,70,154.89,97.64,157c76.63,5.84,118.66,112.43,143.77,120.17,30.76,9.53,43.41-95.95,80.14-114.27,34.81-17.54,95.79,29.86,141.1,4.42,36.43-20.45,84.91-64,127.07-93.72C612.46,57.65,634.19,45,651.1,39.29c29.79-10,54.18,45.79,73.76,101.87,19.55,56.55,35.88,111.86,54.77,107.67,15.3-3.38,31.77-39.09,48.37-84.67L911.34-72.71"/><path class="cls-8" d="M-44.29,195.52C15.45,172,70.3,159.06,98,160.88c76.88,5,118.79,109.62,143.76,118.14,30.7,10.52,43.12-90.51,80.12-108.84,34.94-17.32,95.11,28.08,139.61,2.17C497.79,151.22,545.16,107.09,586.7,78,609.14,62.32,630.91,50.11,648,44.75c30.19-9.49,55.21,45.43,74.83,99.8,19.56,54.85,35.63,107.35,54.28,102.07,15-4.25,31.21-39.87,47.77-84.51l87-230.38"/><path class="cls-9" d="M-43.13,199.8c59.33-23.56,113.75-36.55,141.54-35C175.51,169,217.32,271.59,242.24,280.9c30.65,11.5,42.8-85.14,80.1-103.42,35-17.16,94.43,26.28,138.12-.09,36.15-21.83,82.5-66.47,123.31-94.93,22.17-15.47,44-27.19,61.28-32.27,30.54-8.94,56.35,45,75.9,97.73,19.69,53.11,35.33,102.83,53.78,96.47,14.78-5.11,30.66-40.64,47.18-84.35C853,77.64,899.83-26.35,912.49-63.86"/><path class="cls-10" d="M-42,204C17,180.46,70.92,167.39,98.79,168.64c77.35,3.45,119,104,143.87,114.13,30.59,12.49,42.4-79.77,80.07-98,35.14-17,93.74,24.46,136.64-2.36,36-22.52,81.36-67.68,121.47-95.54C602.73,71.68,624.5,60.36,642,55.64c30.94-8.39,57.41,44.59,77,95.71,19.72,51.37,35.13,98.27,53.33,90.87,14.52-5.95,30.13-41.41,46.58-84.19C850.05,77,900-21.76,913.11-59.37"/><path class="cls-11" d="M-40.83,208.32c58.57-23.61,112.05-36.8,140-35.78,77.59,2.66,119.17,101.14,143.9,112.1,30.52,13.48,42.13-74.4,80-92.54,35.24-16.87,93.05,22.62,135.21-4.63,35.88-23.23,80.13-68.89,119.55-96.15C599.5,76.37,621.31,65.48,639,61.08c31.23-7.81,58.44,44.27,78.06,93.61,19.75,49.7,34.86,93.8,52.78,85.26,14.26-6.8,29.58-42.18,46-84C847.06,76.27,900.17-17.28,913.69-55"/><path class="cls-12" d="M-39.67,212.58C18.51,189,71.48,175.73,99.55,176.42c77.86,1.88,119.31,98.43,143.94,110.09,30.48,14.48,41.8-69,80-87.11,35.34-16.72,92.34,20.78,133.66-6.88,35.75-23.93,79-70.11,117.67-96.8C596.21,81,618,70.57,636,66.48c31.56-7.25,59.51,43.9,79.14,91.54,19.76,48,34.59,89.32,52.27,79.65,14-7.61,29-42.94,45.39-83.86C844,75.5,900.29-12.78,914.22-50.61"/><path class="cls-13" d="M-38.52,216.85c57.79-23.66,110.34-37,138.46-36.54,78.08,1.09,119.43,95.6,144,108.08,30.42,15.46,41.48-63.67,80-81.68,35.44-16.58,91.67,18.92,132.18-9.16,35.62-24.67,77.79-71.31,115.8-97.35C593,85.75,614.81,75.74,632.94,72c31.9-6.7,60.55,43.51,80.21,89.47,19.8,46.31,34.38,84.84,51.78,74.06,13.75-8.47,28.5-43.71,44.79-83.75C841,74.85,900.47-8.25,914.8-46.2"/><path class="cls-14" d="M-37.37,221.12C20,197.43,72.12,184.06,100.32,184.19c78.33.33,119.56,92.81,144,106.07,30.37,16.47,41.15-58.3,80-76.24,35.52-16.43,90.94,17,130.69-11.42,35.53-25.41,76.62-72.54,113.92-98,20.81-14.13,42.67-23.75,61-27.19,32.25-6.14,61.6,43.14,81.29,87.41,19.82,44.59,34.08,80.34,51.28,68.45,13.46-9.31,28-44.48,44.2-83.55C838,74.21,900.63-3.62,915.36-41.68"/><path class="cls-15" d="M-36.21,225.38c57-23.71,108.63-37.15,136.92-37.3,78.57-.46,119.69,90,144,104,30.27,17.52,40.8-52.93,80-70.81,35.62-16.32,90.22,15.22,129.21-13.68,35.33-26.15,75.43-73.74,112-98.58,20.53-13.93,42.4-23.07,60.94-26.2,32.59-5.58,62.64,42.77,82.35,85.35,19.86,42.89,33.83,75.86,50.79,62.84,13.21-10.13,27.42-45.25,43.54-83.38C835,73.52,900.74.84,915.86-37.29"/><path class="cls-16" d="M-35.06,229.66C21.57,205.91,72.72,192.41,101.09,192c78.81-1.24,119.81,87.23,144.06,102,30.25,18.49,40.47-47.56,79.94-65.38,35.72-16.13,89.5,13.28,127.72-15.94,35.2-26.9,74.25-75,110.16-99.18,20.26-13.68,42.16-22.37,60.88-25.19,32.92-5,63.69,42.42,83.43,83.28,19.88,41.2,33.58,71.38,50.28,57.24,13-11,26.89-46,43-83.22C832.08,72.82,901,5.4,916.52-32.86"/><path class="cls-17" d="M-33.91,233.92C22.33,210.15,73,196.57,101.48,195.85c79.06-2,119.94,84.46,144.08,100.07,30.2,19.46,40.11-42.2,79.92-59.94,35.82-16,88.78,11.36,126.24-18.21,35-27.67,73.07-76.13,108.27-99.79,20-13.42,41.91-21.69,60.84-24.18,33.23-4.46,64.74,42,84.49,81.22,19.92,39.49,33.34,66.89,49.79,51.64,12.7-11.78,26.36-46.77,42.4-83.07C829.09,72.18,901.12,10,917.08-28.38"/><path class="cls-18" d="M-32.75,238.18C23.1,214.39,73.34,200.74,101.86,199.8c79.3-2.8,120.06,81.66,144.11,98,30.14,20.48,39.82-36.83,79.91-54.51,35.91-15.84,88.05,9.45,124.75-20.46,34.89-28.47,71.89-77.41,106.39-100.46,19.72-13.17,41.65-21,60.74-23.16,33.6-3.91,65.79,41.62,85.58,79.14,19.93,37.79,33.08,62.43,49.27,46,12.45-12.59,25.83-47.55,41.82-82.9,31.75-70,106.87-127,123.24-165.48"/><path class="cls-19" d="M-31.6,242.46c55.47-23.83,105.22-37.56,133.85-38.83,79.54-3.58,120.19,78.83,144.11,96,30.07,21.47,39.48-31.47,79.87-49.08,36-15.71,87.32,7.52,123.26-22.73,34.74-29.22,70.73-78.58,104.52-101,19.48-12.91,41.39-20.29,60.73-22.15,34-3.34,66.84,41.25,86.66,77.09,20,36.06,32.85,58,48.78,40.42,12.2-13.42,25.31-48.32,41.26-82.73,31.74-68.67,110-120.41,126.81-159"/><path class="cls-20" d="M-30.45,246.72c55.09-23.85,104.37-37.65,133.08-39.15,79.78-4.35,120.31,76.13,144.18,94,30,22.48,39.14-26.1,79.85-43.65,36.1-15.56,86.57,5.57,121.78-25C483,202.85,518,153,551.08,131.28a131.68,131.68,0,0,1,60.66-21.14c34.28-2.79,67.87,40.86,87.73,75,20,34.37,32.61,53.5,48.29,34.81,12-14.28,24.77-49.14,40.61-82.63C820.2,70.07,901.64,23.61,918.81-15.14"/><path class="cls-21" d="M-29.3,251C25.4,227.11,74.22,213.23,103,211.41c80-5.15,120.44,73.31,144.21,92,30,23.49,38.81-20.76,79.83-38.22,36.19-15.42,85.81,3.63,120.31-27.25s68.39-81,100.76-102.23a127.07,127.07,0,0,1,60.62-20.14c34.63-2.23,68.91,40.48,88.8,72.95,20,32.63,32.37,49,47.79,29.22,11.71-15,24.25-49.85,40-82.4,31.89-65.91,116.46-107.21,134-146"/><path class="cls-22" d="M-28.14,255.27c54.3-23.93,102.67-37.85,131.53-40,80.28-5.93,120.56,70.53,144.25,89.95,29.89,24.5,38.47-15.39,79.81-32.78,36.29-15.29,85,1.66,118.8-29.52,34.23-31.61,67.21-82.2,98.88-102.83A122.9,122.9,0,0,1,605.68,121c35-1.68,70,40.08,89.87,70.87s32.08,44.6,47.29,23.63c11.46-15.87,23.74-50.63,39.43-82.26C814.27,68.69,902,32.62,920-6.29"/><path class="cls-23" d="M-27,259.52c53.92-23.92,101.82-38,130.77-40.34,80.52-6.71,120.67,67.75,144.28,87.93,29.79,25.51,38.13-10,79.78-27.35,36.38-15.14,84.28-.3,117.32-31.78,34-32.42,66-83.41,97-103.44,18.34-11.88,40.36-17.52,60.49-18.11,35.32-1.09,71.05,39.72,91,68.83s31.92,40.1,46.79,18c11.23-16.68,23.23-51.38,38.83-82.09,32.09-63.18,122.91-94,141.31-133"/><path class="cls-24" d="M-25.84,263.79c53.54-23.93,101-38.07,130-40.72C184.92,215.58,225,288,248.47,309c29.8,26.53,37.82-4.67,79.76-21.92,36.48-15,83.5-2.27,115.83-34,33.85-33.25,64.86-84.62,95.11-104,18.11-11.63,40.11-16.84,60.45-17.1,35.64-.54,72,39.33,92,66.76s31.7,35.63,46.3,12.41c11-17.5,22.71-52.21,38.23-81.93C808.37,67.33,902.3,41.71,921.1,2.58"/><path class="cls-25" d="M-24.68,268.06c53.14-24,100.1-38.15,129.23-41.07,81-8.26,120.91,62.19,144.38,83.91,29.69,27.53,37.47.69,79.74-16.49,36.52-14.9,82.7-4.34,114.3-36.34,33.65-34.08,63.69-85.82,93.24-104.65,17.83-11.37,39.85-16.15,60.39-16.09,36,0,73.08,38.94,93.11,64.69s31.47,31.16,45.83,6.81c10.76-18.32,22.21-52.92,37.64-81.77C805.5,66.62,902.52,46.23,921.75,7"/><path class="cls-26" d="M-23.54,272.32c52.77-24,99.26-38.25,128.47-41.48,81.25-9.05,121,59.41,144.38,81.89,29.62,28.54,37.14,6,79.72-11.05C365.7,287,411,295.43,441.89,263.11c33.43-34.91,62.51-87,91.36-105.26,17.56-11.11,39.6-15.45,60.33-15.07,36.33.56,74.11,38.54,94.19,62.62s31.25,26.7,45.28,1.2c10.53-19.12,21.71-53.67,37.05-81.57C802.52,65.94,902.64,50.8,922.27,11.43"/><path class="cls-27" d="M-22.38,276.59c52.38-24,98.41-38.34,127.7-41.86,81.49-9.79,121.15,56.63,144.38,79.87,29.56,29.55,36.8,11.4,79.69-5.62,36.76-14.58,81.12-8.25,111.38-40.82,33.23-35.76,61.35-88.23,89.49-105.88,17.29-10.88,39.33-14.75,60.27-14.06,36.67,1.08,75.15,38.16,95.26,60.57s31,22.23,44.79-4.35C740.89,184.49,751.78,150,767,123,799.58,65.35,902.8,55.36,922.87,15.91"/><path class="cls-28" d="M-21.22,280.86c52-24.07,97.55-38.44,126.92-42.24C187.43,228,227,292.47,250.13,316.47c29.49,30.56,36.47,16.76,79.68-.18,36.84-14.45,80.3-10.25,109.89-43.1,33-36.59,60.17-89.42,87.59-106.47,17-10.6,39.08-14.07,60.23-13.05,37,1.69,76.16,37.77,96.33,58.49s30.81,17.77,44.29-10C738.2,181.4,748.84,147,764,120.87c32.68-56.3,139-61,159.43-100.59"/><path class="cls-29" d="M-20.08,285.13C31.49,261,76.62,246.58,106.09,242.5c82-11.39,121.38,51.12,144.46,75.84,29.41,31.54,36.13,22.11,79.65,5.26,36.93-14.32,79.48-12.26,108.4-45.36,32.73-37.47,59-90.62,85.72-107.09,16.76-10.33,38.82-13.36,60.17-12,37.36,2.26,77.19,37.37,97.4,56.43s30.61,13.3,43.8-15.61c9.83-21.58,20.21-56,35.25-81.11,32.83-55,142.21-54.45,163-94.12"/><path class="cls-30" d="M-18.92,289.39c51.21-24.11,95.84-38.64,125.38-43,82.23-12.17,121.47,48.31,144.5,73.83,29.35,32.63,35.8,27.48,79.63,10.68,37-14.14,78.65-14.27,106.92-47.6C470,245,495.35,191.46,521.35,175.61c16.49-10.07,38.56-12.68,60.1-11,37.7,2.81,78.22,37,98.49,54.39s30.4,8.83,43.29-21.21c9.62-22.4,19.74-56.73,34.67-81,33-53.53,145.42-47.85,166.68-87.6"/><path class="cls-31" d="M-17.76,293.66c50.82-24.15,95-38.75,124.61-43.38,82.51-13,121.63,45.52,144.52,71.78,29.28,33.6,35.46,32.81,79.61,16.11,37.12-14,77.82-16.32,105.42-49.88,32.22-39.15,56.68-93,82-108.29,16.24-9.79,38.32-12,60.06-10,38,3.37,79.22,36.6,99.55,52.3,20.11,15.6,30.18,4.4,42.79-26.82,9.38-23.21,19.25-57.48,34.07-80.79C788,62.51,903.46,73.41,925.13,33.54"/><path class="cls-32" d="M-16.62,297.93c50.45-24.17,94.15-38.84,123.85-43.75C189.94,240.45,229,296.93,251.8,324c29.18,34.6,35.11,38.14,79.58,21.55,37.2-13.91,77-18.3,103.94-52.14,31.95-40.08,55.52-94.22,80.09-108.91,16-9.54,38.05-11.29,60-9,38.38,3.93,80.22,36.21,100.63,50.24,20.08,13.8,30-.12,42.3-32.42,9.17-24,18.77-58.23,33.47-80.64C785.1,61.87,903.65,78,925.72,38"/><path class="cls-33" d="M-15.46,302.2C34.59,278,77.83,263.25,107.62,258.06c82.95-14.52,121.84,39.95,144.59,67.78,29.12,35.63,34.78,43.5,79.56,27,37.3-13.79,76.16-20.32,102.52-54.39,31.59-41,54.29-95.42,78.14-109.49,15.71-9.28,37.81-10.6,60-8,38.72,4.48,81.22,35.82,101.71,48.17,20,12.09,29.79-4.59,41.79-38.06,8.93-24.87,18.33-59,32.87-80.49C782.22,61.18,903.82,82.49,926.29,42.4"/><path class="cls-34" d="M-14.31,306.47C35.36,282.23,78.13,267.42,108,261.94c83.2-15.29,122,37.18,144.62,65.77,29.05,36.64,34.38,48.86,79.54,32.41,37.39-13.64,75.26-22.35,101-56.67,31.36-41.84,53.19-96.6,76.33-110.12,15.43-9,37.54-9.91,59.89-7,39,5,82.22,35.43,102.78,46.1,20,10.38,29.56-9.06,41.25-43.63,8.71-25.67,17.83-59.73,32.28-80.31C779.37,60.59,904,87.05,926.87,46.85"/><path class="cls-35" d="M-13.15,310.74c49.27-24.25,91.57-39.15,121.54-44.91,83.43-16.07,122.07,34.41,144.64,63.76,29,37.65,34.1,54.22,79.53,37.85C370,353.92,406.94,343.06,432,308.51c31-42.74,52-97.8,74.48-110.73,15.19-8.7,37.3-9.22,59.84-6,39.41,5.6,83.22,35.06,103.87,44,20,8.71,29.34-13.51,40.79-49.22,8.49-26.5,17.36-60.48,31.68-80.15,33.86-46.55,161.5-14.87,184.8-55.17"/><path class="cls-36" d="M-12,315c48.89-24.28,90.72-39.25,120.77-45.29,83.65-16.85,122.18,31.63,144.68,61.74,28.89,38.67,33.76,59.57,79.5,43.27,37.56-13.37,73.51-26.39,98-61.17,30.72-43.64,50.87-99,72.57-111.36,14.9-8.48,37-8.51,59.78-4.95,39.74,6.16,84.2,34.7,104.93,42,20,7,29.15-18,40.3-54.84,8.26-27.31,16.91-61.21,31.09-80C773.69,59.26,904.33,96.12,928,55.71"/><path class="cls-37" d="M-10.85,319.27c48.5-24.31,89.88-39.35,120-45.68,83.92-17.63,122.31,28.86,144.71,59.74,28.81,39.68,33.41,64.91,79.47,48.7C371,368.79,406,353.6,429.85,318.58c30.38-44.53,49.71-100.17,70.69-111.95,14.65-8.22,36.77-7.83,59.73-3.95,40.1,6.73,85.17,34.35,106,39.91,19.92,5.32,29-22.47,39.8-60.44,8-28.14,16.45-62,30.49-79.82,34.3-43.7,167.93-1.68,192-42.19"/><path class="cls-38" d="M-9.69,323.53c48.12-24.33,89-39.44,119.22-46,84.18-18.42,122.42,26.1,144.75,57.71,28.74,40.69,33.08,70.26,79.46,54.14,37.73-13.13,71.72-30.45,95-65.71,30-45.44,48.55-101.37,68.81-112.56,14.4-7.95,36.52-7.13,59.68-2.94,40.42,7.28,86.15,34,107.07,37.84,19.88,3.65,28.74-26.95,39.31-66,7.81-29,16-62.69,29.89-79.67C768.06,58,904.66,105.19,929.17,64.57"/><path class="cls-39" d="M-8.54,327.8c47.73-24.37,88.17-39.54,118.46-46.43,84.41-19.19,122.52,23.3,144.77,55.7,28.65,41.71,32.75,75.61,79.44,59.58,37.81-13,70.82-32.5,93.54-68,29.66-46.33,47.39-102.54,66.93-113.11,14.12-7.68,36.25-6.45,59.58-1.92,40.77,7.84,87.15,33.71,108.16,35.77,19.85,2,28.53-31.43,38.8-71.65,7.6-29.78,15.57-63.41,29.3-79.5,34.8-40.8,174.37,11.52,199.29-29.21"/><path class="cls-40" d="M-7.39,332.07C40,307.67,79.93,292.42,110.3,285.3c84.66-20,122.61,20.57,144.81,53.68,28.5,42.78,32.4,81,79.41,65,37.93-12.86,69.9-34.51,92.06-70.24,29.27-47.24,46.23-103.72,65-113.76,13.87-7.41,36-5.76,59.58-.93,41.11,8.41,88.17,32.63,109.24,33.72,19.78,1,28.33-35.89,38.29-77.22,7.37-30.61,15.14-64.17,28.65-79.34C762.46,56.9,905,114.34,930.29,73.5"/><path class="cls-41" d="M-6.23,336.33c47-24.42,86.45-39.74,116.88-47.18,84.89-20.76,122.67,17.77,144.84,51.66,28.41,43.78,32,86.22,79.37,70.45,38-12.8,69-36.55,90.52-72.5,28.9-48.16,45.08-104.9,63.18-114.39,13.61-7.12,35.75-5.06,59.5.1,41.45,9,89.13,33,110.31,31.65,19.78-1.31,28.13-40.38,37.81-82.86,7.15-31.44,14.7-64.85,28.11-79.17C759.72,56.24,905.16,118.8,930.9,77.85"/><path class="cls-42" d="M-5.09,340.61C41.48,316.18,80.53,300.76,111.07,293c85.15-21.54,122.8,15,144.87,49.65,28.35,44.79,31.7,91.58,79.37,75.89,38.07-12.67,68.06-38.57,89.08-74.78,28.48-49.07,43.92-106.07,61.29-115,13.35-6.85,35.52-4.35,59.45,1.09,41.78,9.51,90.13,32.72,111.38,29.58,19.78-2.94,27.91-44.86,37.3-88.47,6.87-32.26,14.28-65.55,27.5-79,35.67-36.3,184,31.31,210.15-9.79"/><path class="cls-43" d="M-3.93,344.87c46.18-24.47,84.79-39.94,115.39-47.94,85.38-22.33,122.92,12.2,144.9,47.63,28.29,45.78,31.36,96.93,79.34,81.3,38.17-12.51,67.13-40.59,87.59-77,28.07-50,42.77-107.25,59.41-115.59,13.1-6.53,35.24-3.68,59.39,2.12,42.14,10.07,91.17,32.42,112.46,27.5,19.79-4.56,27.79-49.31,36.81-94.05,6.76-33.08,13.85-66.26,26.91-78.86,36-34.8,187.23,37.91,213.78-3.26"/><path class="cls-44" d="M-2.77,349.13c45.83-24.49,83.9-40,114.58-48.32,85.64-23.1,123.05,9.42,144.94,45.63,28.22,46.76,31,102.29,79.31,86.73,38.28-12.39,66.21-42.61,86.12-79.28C449.8,303,463.81,245.46,479.71,237.68c12.85-6.28,35-3,59.33,3.13,42.47,10.63,92.21,32.13,113.54,25.45,19.79-6.2,27.56-53.81,36.3-99.67,6.52-33.9,13.44-66.95,26.36-78.69,36.34-33.18,190.44,44.5,217.4,3.26"/><path class="cls-45" d="M-1.63,353.41c45.41-24.53,83.06-40.15,113.86-48.72,85.87-23.93,123.15,6.65,145,43.62,28.15,47.79,30.69,107.67,79.3,92.17,38.35-12.25,65.24-44.59,84.62-81.57,27.18-51.81,40.47-109.58,55.64-116.81,12.61-6,34.74-2.28,59.29,4.14,42.81,11.21,93.25,31.83,114.59,23.39,19.81-7.83,27.33-58.29,35.8-105.27,6.29-34.73,13-67.62,25.72-78.53,36.67-31.54,193.66,51.12,221,9.72"/><path class="cls-46" d="M-.47,357.67c332.87-181.55,237,121.65,337.36,90.11,93-29.28,112.29-189.86,136.91-201.21C507.66,230.93,615.06,289.1,648.71,273c34.51-16.47,30.93-165.51,60.43-189.24C746.23,53.91,906,141.49,933.73,100"/></g></svg>