<svg width="46" height="46" fill="none" xmlns="http://www.w3.org/2000/svg"><path fill-rule="evenodd" clip-rule="evenodd" d="M22.544.588c11.5 0 23.112 8.915 22.724 21.842-.387 12.927-11.097 22.733-24.06 22.733C8.248 45.163.366 31.33.715 19.755 1.06 8.182 11.045.588 22.545.588z" fill="#00D48D"/><path fill-rule="evenodd" clip-rule="evenodd" d="M28.78 21.386a2.213 2.213 0 001.705-.618 2.283 2.283 0 00.59-1.639 2.286 2.286 0 00-.612-1.682 2.245 2.245 0 00-1.688-.628h-2.36v4.593l2.367-.026h-.001zm-6.123-7.796H29a7.366 7.366 0 012.61.432c.7.253 1.34.65 1.879 1.163.498.486.88 1.075 1.126 1.726a5.98 5.98 0 01.371 2.104 5.792 5.792 0 01-.732 2.95 5.397 5.397 0 01-2.059 2.01l3.796 6.932h-4.256l-3.168-6.365h-2.152v6.365h-3.757V13.589l-.001.001zm-5.883 9.942a2.14 2.14 0 00-.153-.786 2.251 2.251 0 00-.458-.743 2.446 2.446 0 00-.764-.546 2.55 2.55 0 00-1.093-.225 2.731 2.731 0 00-1.125.225c-.3.128-.574.313-.804.545a2.334 2.334 0 00-.486.743 2.062 2.062 0 00-.17.787h5.053zm3.223 6.047c-.137.087-.34.23-.612.432-.332.232-.687.43-1.06.59a10.17 10.17 0 01-1.55.502 8.552 8.552 0 01-2.044.219 7.506 7.506 0 01-2.774-.481 6.005 6.005 0 01-2.07-1.333 5.604 5.604 0 01-1.306-2.064 7.534 7.534 0 01-.45-2.666 7.303 7.303 0 01.421-2.453 6.205 6.205 0 011.218-2.066 5.837 5.837 0 011.94-1.409 6.158 6.158 0 012.61-.545 5.947 5.947 0 012.557.545c.719.337 1.353.83 1.857 1.444a6.302 6.302 0 011.136 2.184c.265.913.393 1.861.382 2.812v.623h-8.544a2.354 2.354 0 00.86 1.727 3.3 3.3 0 002.288.775 5.349 5.349 0 002.327-.431 7.73 7.73 0 001.326-.764l1.486 2.359h.002z" fill="#fff"/></svg>