<svg width="22" height="22" fill="none" xmlns="http://www.w3.org/2000/svg"><path d="M18.746 18.746h-3.26V13.64c0-1.217-.022-2.784-1.696-2.784-1.697 0-1.957 1.326-1.957 2.696v5.193h-3.26V8.248h3.13v1.434h.043a3.43 3.43 0 013.088-1.696c3.304 0 3.913 2.173 3.913 5l-.001 5.76zM4.895 6.812a1.892 1.892 0 11-.001-3.783 1.892 1.892 0 01.001 3.783zm1.63 11.934H3.26V8.248h3.264v10.498zM20.37.002H1.624A1.605 1.605 0 000 1.587v18.826A1.607 1.607 0 001.624 22H20.37A1.61 1.61 0 0022 20.413V1.586A1.609 1.609 0 0020.371 0" fill="#0A66C2"/></svg>