<svg width="37" height="37" fill="none" xmlns="http://www.w3.org/2000/svg"><path fill-rule="evenodd" clip-rule="evenodd" d="M13.701.556c-1.978.001-3.579 1.633-3.577 3.643-.002 2.01 1.6 3.643 3.579 3.644h3.578V4.201c.002-2.01-1.6-3.642-3.58-3.645.002 0 .002 0 0 0zm0 9.718h-9.54c-1.978.002-3.58 1.633-3.579 3.644-.003 2.01 1.6 3.642 3.577 3.645h9.542c1.978-.002 3.58-1.633 3.579-3.644.001-2.012-1.6-3.643-3.579-3.645z" fill="#36C5F0"/><path fill-rule="evenodd" clip-rule="evenodd" d="M36.363 13.918c.002-2.01-1.6-3.642-3.578-3.644-1.978.002-3.58 1.633-3.58 3.644v3.645h3.58c1.978-.002 3.58-1.633 3.578-3.645zm-9.541 0V4.199c.001-2.009-1.6-3.64-3.578-3.643-1.978.001-3.58 1.633-3.578 3.643v9.719c-.003 2.01 1.599 3.642 3.577 3.645 1.978-.002 3.58-1.633 3.579-3.645z" fill="#2EB67D"/><path fill-rule="evenodd" clip-rule="evenodd" d="M23.243 37c1.978-.002 3.58-1.633 3.579-3.644.001-2.01-1.601-3.642-3.58-3.644h-3.578v3.644c-.001 2.01 1.6 3.64 3.579 3.644zm0-9.72h9.542c1.978-.002 3.58-1.633 3.578-3.644.003-2.01-1.599-3.642-3.577-3.645h-9.542c-1.978.002-3.58 1.633-3.578 3.644-.002 2.012 1.599 3.643 3.577 3.645z" fill="#ECB22E"/><path fill-rule="evenodd" clip-rule="evenodd" d="M.582 23.636c-.001 2.01 1.6 3.643 3.579 3.644 1.978-.002 3.58-1.633 3.579-3.644v-3.643H4.16c-1.977.001-3.58 1.633-3.578 3.643zm9.542 0v9.719c-.003 2.01 1.6 3.642 3.577 3.645 1.978-.002 3.58-1.633 3.579-3.644V23.64c.003-2.01-1.6-3.642-3.577-3.645-1.98 0-3.58 1.632-3.58 3.642 0 0 0 .002 0 0z" fill="#E01E5A"/></svg>