<svg width="28" height="28" fill="none" xmlns="http://www.w3.org/2000/svg"><path fill-rule="evenodd" clip-rule="evenodd" d="M17.5 14.007c0 1.04-.19 2.035-.537 2.955a8.38 8.38 0 01-2.957.538h-.012c-1.01 0-2.01-.182-2.955-.537a8.374 8.374 0 01-.539-2.957v-.012c0-1.01.182-2.01.537-2.955a8.374 8.374 0 012.957-.539h.012c1.04 0 2.037.191 2.956.539.347.918.537 1.914.538 2.955v.012zm10.305-2.34h-8.172l5.779-5.779a14.074 14.074 0 00-3.3-3.3l-5.779 5.779V.195A14.086 14.086 0 0014.007 0h-.014c-.78 0-1.558.066-2.326.195v8.172L5.888 2.588c-.637.453-1.234.96-1.787 1.512l-.002.002a14.07 14.07 0 00-1.51 1.787l5.778 5.778H.195S0 13.2 0 13.995v.01c0 .793.067 1.571.195 2.328h8.172l-5.778 5.779a14.08 14.08 0 003.3 3.3l5.778-5.779v8.172c.756.127 1.531.194 2.323.195h.02c.792 0 1.567-.068 2.323-.195v-8.172l5.779 5.778a14.075 14.075 0 001.787-1.511l.001-.001a14.082 14.082 0 001.511-1.787l-5.778-5.779h8.172c.127-.756.194-1.531.195-2.323v-.02c0-.792-.068-1.567-.195-2.323z" fill="#FF4A00"/></svg>