<svg width="37" height="39" fill="none" xmlns="http://www.w3.org/2000/svg"><path d="M28.54 12.968V8.433a3.495 3.495 0 002.017-3.148v-.104A3.495 3.495 0 0027.06 1.69h-.104a3.49 3.49 0 00-3.497 3.492v.104a3.49 3.49 0 002.015 3.148v4.535a9.91 9.91 0 00-4.71 2.07L8.312 5.351c.088-.32.136-.649.14-.98A3.93 3.93 0 006.027.731a3.945 3.945 0 00-4.296.845 3.933 3.933 0 002.776 6.722 3.902 3.902 0 001.94-.527l12.265 9.53a9.91 9.91 0 00.151 11.173l-3.73 3.726a3.212 3.212 0 00-.931-.151 3.238 3.238 0 00-2.987 1.996 3.226 3.226 0 00.702 3.52 3.236 3.236 0 005.523-2.282 3.185 3.185 0 00-.151-.931l3.69-3.686A9.959 9.959 0 0036.2 26.692a9.925 9.925 0 00-3.48-12.065 9.96 9.96 0 00-4.179-1.66zm-1.529 14.915a5.11 5.11 0 01-4.844-3.113 5.091 5.091 0 012.848-6.733 5.11 5.11 0 011.996-.347 5.108 5.108 0 013.492 1.553 5.094 5.094 0 01.004 7.08 5.11 5.11 0 01-3.491 1.557" fill="#FF7A59"/></svg>