<svg width="30" height="24" fill="none" xmlns="http://www.w3.org/2000/svg"><path d="M10.023 24C20.966 24 26.95 14.956 26.95 7.114c0-.257-.005-.513-.016-.767A12.08 12.08 0 0029.9 3.274c-1.086.48-2.237.795-3.416.934A5.96 5.96 0 0029.1.925a11.95 11.95 0 01-3.778 1.44A5.95 5.95 0 0020.98.49c-3.285 0-5.95 2.658-5.95 5.935 0 .465.053.918.154 1.353a16.906 16.906 0 01-12.262-6.2A5.926 5.926 0 004.764 9.5a5.917 5.917 0 01-2.695-.743v.076a5.94 5.94 0 004.773 5.818 5.971 5.971 0 01-2.688.102 5.954 5.954 0 005.558 4.122 11.955 11.955 0 01-7.389 2.54c-.48 0-.954-.027-1.42-.082A16.87 16.87 0 0010.024 24" fill="#1DA1F2"/></svg>