<svg width="44" height="48" xmlns="http://www.w3.org/2000/svg"><path d="M40.913 38.87a7.126 7.126 0 01-4.313 5.623c-1.138.48-2.37.624-3.603.48-1.185-.144-2.37-.529-3.603-1.249-1.706-.962-3.413-2.45-5.404-4.661 3.129-3.892 5.025-7.448 5.736-10.618.332-1.49.38-2.835.237-4.085-.19-1.2-.616-2.306-1.28-3.267-1.47-2.162-3.934-3.411-6.684-3.411s-5.214 1.297-6.684 3.41c-.663.962-1.09 2.067-1.28 3.268a10.11 10.11 0 00.238 4.085c.71 3.17 2.654 6.774 5.735 10.665-1.943 2.211-3.697 3.7-5.404 4.662-1.232.72-2.417 1.105-3.602 1.249a7.49 7.49 0 01-3.603-.48 7.126 7.126 0 01-4.314-5.623c-.142-1.2-.047-2.401.427-3.747.142-.48.38-.96.616-1.537.332-.769.711-1.586 1.09-2.403l.048-.096A526.647 526.647 0 0115.695 9.562l.142-.289c.38-.72.758-1.488 1.138-2.21.379-.768.805-1.49 1.327-2.114.995-1.154 2.323-1.778 3.792-1.778 1.47 0 2.797.624 3.792 1.778.522.625.948 1.346 1.328 2.115.379.72.758 1.489 1.137 2.209l.143.289a640.829 640.829 0 0110.381 21.621v.048c.38.769.71 1.634 1.09 2.403.237.577.474 1.056.616 1.537.38 1.25.522 2.451.332 3.7zM22 36.612c-2.56-3.267-4.219-6.342-4.787-8.936-.237-1.105-.285-2.066-.142-2.931a4.7 4.7 0 01.758-2.02c.9-1.295 2.417-2.114 4.171-2.114 1.754 0 3.319.77 4.172 2.115a4.71 4.71 0 01.758 2.019c.142.865.095 1.874-.142 2.931-.569 2.546-2.228 5.621-4.788 8.936zm21.38-2.498c-.238-.577-.475-1.201-.712-1.73-.379-.864-.758-1.682-1.09-2.45l-.048-.048A502.95 502.95 0 0031.053 8.169l-.142-.289c-.38-.72-.758-1.49-1.137-2.258-.475-.866-.949-1.778-1.707-2.643C26.55 1.057 24.369 0 22.047 0c-2.37 0-4.503 1.057-6.068 2.883-.71.865-1.232 1.778-1.706 2.643-.38.769-.759 1.538-1.138 2.259l-.142.287C9.343 15.28 5.787 22.582 2.517 29.79l-.048.096c-.332.768-.711 1.585-1.09 2.45a32.083 32.083 0 00-.711 1.73c-.617 1.778-.806 3.46-.57 5.189.522 3.604 2.893 6.631 6.164 7.976a9.613 9.613 0 003.84.769c.378 0 .852-.048 1.232-.096 1.564-.193 3.175-.72 4.74-1.634 1.944-1.105 3.792-2.69 5.878-4.997 2.085 2.307 3.982 3.892 5.878 4.997 1.564.914 3.176 1.441 4.74 1.634.38.048.853.096 1.233.096 1.327 0 2.654-.24 3.84-.769 3.318-1.345 5.64-4.42 6.162-7.976.38-1.682.19-3.363-.427-5.141z" fill="#E0565B"/></svg>