<svg width="29" height="45" fill="none" xmlns="http://www.w3.org/2000/svg"><path d="M1.148 43.757c9.216-9.516 18.432-19.09 27.707-28.666v13.884c0 .36-.18.539-.478.659L.37 44.894H.25v-31.06c.18-.119.3.06.419.12 2.693 1.736 5.326 3.471 8.019 5.147.419.24.419.479.3.898l-7.84 23.758z" fill="#13224D"/><path d="M.49.25C9.465 5.097 18.322 9.945 27.3 14.792a172.569 172.569 0 01-4.07 2.932c-1.436 1.018-2.932 2.095-4.369 3.112-.419.3-.718.3-1.137.12C12.16 18.263 6.534 15.51.968 12.817c-.3-.12-.539-.24-.539-.658C.49 8.269.49 4.319.49.25z" fill="#13224D"/></svg>