<svg width="42" height="42" fill="none" xmlns="http://www.w3.org/2000/svg"><path fill-rule="evenodd" clip-rule="evenodd" d="M20.58 0c10.836 0 21.776 8.4 21.411 20.58C41.626 32.76 31.535 42 19.321 42 7.109 42-.317 28.965.012 18.06.336 7.155 9.745 0 20.58 0z" fill="#00D48D"/><path fill-rule="evenodd" clip-rule="evenodd" d="M26.456 19.596a2.083 2.083 0 001.606-.582c.382-.421.582-.976.556-1.544a2.153 2.153 0 00-.577-1.585 2.116 2.116 0 00-1.59-.592h-2.224v4.328l2.23-.025zm-5.77-7.345h5.976a6.942 6.942 0 012.46.407c.66.238 1.263.612 1.77 1.096.469.458.83 1.013 1.061 1.626.235.634.353 1.306.35 1.982a5.457 5.457 0 01-.69 2.78 5.086 5.086 0 01-1.94 1.893l3.577 6.532h-4.01l-2.985-5.997h-2.028v5.997h-3.54V12.25zm-5.543 9.367a2.017 2.017 0 00-.144-.74 2.12 2.12 0 00-.432-.7 2.306 2.306 0 00-.72-.515 2.404 2.404 0 00-1.03-.212 2.574 2.574 0 00-1.06.212 2.4 2.4 0 00-.757.514c-.196.202-.352.44-.458.7a1.942 1.942 0 00-.16.741h4.761zm3.037 5.698c-.129.082-.32.216-.577.407a5.63 5.63 0 01-.998.556 9.586 9.586 0 01-1.462.473 8.058 8.058 0 01-1.925.206 7.074 7.074 0 01-2.614-.453 5.66 5.66 0 01-1.951-1.256 5.281 5.281 0 01-1.23-1.945A7.098 7.098 0 017 22.792a6.881 6.881 0 01.396-2.311 5.846 5.846 0 011.148-1.946 5.501 5.501 0 011.827-1.328 5.804 5.804 0 012.46-.514 5.604 5.604 0 012.409.514 5.038 5.038 0 011.75 1.36 5.94 5.94 0 011.07 2.058c.25.861.37 1.754.36 2.65v.587h-8.05a2.217 2.217 0 00.809 1.627 3.11 3.11 0 002.157.73 5.039 5.039 0 002.192-.406 7.28 7.28 0 001.25-.72l1.4 2.223z" fill="#fff"/></svg>