<svg width="41" height="48" xmlns="http://www.w3.org/2000/svg"><g fill="none" fill-rule="evenodd"><path d="M30.596 19.871c-1.927-.067-2.47 1.55-2.634 2.868a9.536 9.536 0 011.847-.112c1.214.043 2.327.3 3.226.7-.007-1.366-.305-3.382-2.439-3.456z"/><path d="M3.997 9.265H8.49a.466.466 0 00.465-.464c0-.002-.055-3.85-.055-4.92v-.013c0-.878.184-1.644.507-2.287l.152-.288a.094.094 0 00-.05.028L.783 9.972a.098.098 0 00-.032.051c.18-.09.427-.212.462-.227.759-.343 1.68-.53 2.783-.53z" fill="#74BB44" fill-rule="nonzero"/><path d="M38.932 8.323c-.357-1.908-1.492-2.85-2.518-3.22-1.107-.4-3.353-.814-6.172-1.146-2.27-.268-4.938-.246-6.549-.197-.193-1.324-1.122-2.534-2.162-2.953-2.768-1.114-7.048-.845-8.146-.538-.874.245-1.84.745-2.377 1.515-.36.515-.595 1.174-.596 2.096 0 .521.014 1.75.028 2.84.012 1.095.027 2.074.027 2.081a1.771 1.771 0 01-1.769 1.77h-4.49c-.958 0-1.69.16-2.25.414a3.133 3.133 0 00-1.257 1.002c-.6.805-.703 1.798-.701 2.813 0 0 .008.828.208 2.432.166 1.24 1.512 9.908 2.79 12.544.496 1.025.826 1.454 1.8 1.906 2.169.929 7.123 1.962 9.446 2.258 2.318.297 3.773.92 4.64-.898.002-.006.174-.451.408-1.11.753-2.28.858-4.305.858-5.769 0-.15.219-.155.219 0 0 1.034-.198 4.693 2.566 5.674 1.092.387 3.355.732 5.656 1.002 2.079.24 3.588 1.057 3.588 6.393 0 3.246-.682 3.69-4.246 3.69-2.89 0-3.99.075-3.99-2.219 0-1.856 1.834-1.66 3.194-1.66.608 0 .166-.452.166-1.597 0-1.14.714-1.798.04-1.814-4.703-.13-7.47-.006-7.47 5.876 0 5.338 2.043 6.33 8.718 6.33 5.232 0 7.076-.171 9.237-6.876.427-1.323 1.462-5.361 2.087-12.143.395-4.287-.374-17.23-.983-20.496zM29.81 22.627a9.588 9.588 0 00-1.848.112c.164-1.317.708-2.936 2.635-2.868 2.133.074 2.432 2.09 2.439 3.455-.9-.4-2.013-.656-3.226-.699z" fill="#74BB44" fill-rule="nonzero"/></g></svg>