<svg width="46" height="46" fill="none" xmlns="http://www.w3.org/2000/svg"><path d="M45.75 23C45.75 10.435 35.564.25 23 .25 10.435.25.25 10.435.25 23c0 11.355 8.32 20.767 19.195 22.474V29.576H13.67V23h5.776v-5.012c0-5.702 3.397-8.851 8.593-8.851 2.49 0 5.093.444 5.093.444v5.599h-2.869c-2.826 0-3.707 1.753-3.707 3.553V23h6.31l-1.01 6.576h-5.3v15.898C37.43 43.767 45.75 34.355 45.75 23z" fill="#1877F2"/><path d="M31.856 29.576L32.864 23h-6.31v-4.268c0-1.799.882-3.552 3.708-3.552h2.869v-5.6s-2.604-.444-5.093-.444c-5.196 0-8.593 3.15-8.593 8.85V23H13.67v6.576h5.776v15.898a22.907 22.907 0 007.11 0V29.576h5.3z" fill="#fff"/></svg>