<svg width="33" height="48" xmlns="http://www.w3.org/2000/svg"><g fill="none"><path d="M7.87 47.223a7.873 7.873 0 007.87-7.87v-7.871H7.87A7.873 7.873 0 000 39.352a7.873 7.873 0 007.87 7.87z" fill="#0ACF83"/><path d="M0 23.611a7.873 7.873 0 017.87-7.87h7.87v15.74H7.87A7.873 7.873 0 010 23.612z" fill="#A259FF"/><path d="M0 7.87A7.873 7.873 0 017.87 0h7.87v15.74H7.87A7.873 7.873 0 010 7.87z" fill="#F24E1E"/><path d="M15.74 0h7.871a7.873 7.873 0 017.87 7.87 7.873 7.873 0 01-7.87 7.87h-7.87V0z" fill="#FF7262"/><path d="M31.482 23.611a7.873 7.873 0 01-7.87 7.87 7.873 7.873 0 01-7.871-7.87 7.873 7.873 0 017.87-7.87 7.873 7.873 0 017.87 7.87z" fill="#1ABCFE"/></g></svg>