<svg version="1.1" id="Layer_1" xmlns="http://www.w3.org/2000/svg" x="0" y="0" viewBox="0 0 2454.3 2454.3" xml:space="preserve"><style>.st0{fill:#fbbc04}.st1{fill:#34a853}.st2{fill:#3b80ef}</style><path class="st0" d="M2385.8 1385L1385 2385.8c-91.3 91.3-239.4 91.3-330.7 0-91.4-91.3-91.3-239.4 0-330.7l1000.9-1000.9c91.3-91.3 239.4-91.3 330.7 0 91.3 91.4 91.3 239.4-.1 330.8z"/><circle transform="rotate(-45.001 1219.578 2220.5)" class="st1" cx="1219.6" cy="2220.5" r="233.9"/><path class="st0" d="M1562.3 561.4l-500.5 500.4 330.7 330.7L1893 892.1c91.3-91.3 91.3-239.4 0-330.7-91.4-91.4-239.4-91.4-330.7 0z"/><path class="st2" d="M892.1 1893l500.4-500.4-330.7-330.7-500.4 500.4c-91.3 91.3-91.3 239.4 0 330.7 91.3 91.3 239.4 91.3 330.7 0z"/><circle transform="rotate(-45.001 1228.251 1226.11)" class="st1" cx="1228.3" cy="1226.1" r="233.9"/><path class="st2" d="M1400.1 399.2L399.2 1400.1c-91.3 91.3-239.4 91.3-330.7 0-91.3-91.3-91.3-239.4 0-330.7L1069.4 68.5c91.3-91.3 239.4-91.3 330.7 0 91.3 91.3 91.3 239.4 0 330.7z"/><circle class="st1" cx="1234.7" cy="233.9" r="233.9"/></svg>