<svg width="42" height="42" fill="none" xmlns="http://www.w3.org/2000/svg"><g clip-path="url(#clip0)"><path d="M41.978 21.393c0-1.72-.143-2.977-.452-4.279H21.418v7.767h11.803c-.238 1.93-1.523 4.836-4.379 6.79l-.04.26 6.358 4.812.44.043c4.046-3.65 6.378-9.022 6.378-15.393z" fill="#4285F4"/><path d="M21.419 41.856c5.782 0 10.636-1.86 14.182-5.07l-6.758-5.115c-1.809 1.232-4.236 2.093-7.424 2.093a12.866 12.866 0 01-12.184-8.697l-.251.02-6.61 5-.087.235c3.521 6.836 10.755 11.534 19.132 11.534z" fill="#34A853"/><path d="M9.235 25.067a12.619 12.619 0 01-.714-4.14c0-1.441.262-2.836.69-4.138L9.2 16.51l-6.693-5.08-.22.102a20.56 20.56 0 00-2.284 9.395c0 3.371.833 6.557 2.285 9.394l6.948-5.255z" fill="#FBBC05"/><path d="M21.418 8.092c4.022 0 6.735 1.697 8.281 3.116l6.044-5.767C32.031 2.07 27.201 0 21.418 0 13.042 0 5.808 4.697 2.287 11.534l6.924 5.255c1.737-5.046 6.544-8.697 12.207-8.697z" fill="#EB4335"/></g><defs><clipPath id="clip0"><path fill="#fff" d="M0 0h42v42H0z"/></clipPath></defs></svg>