<svg width="38" height="42" fill="none" xmlns="http://www.w3.org/2000/svg"><path d="M27.014 5.011v31.5c0 3.525 2.457 5.489 5.062 5.489 2.41 0 5.062-1.67 5.062-5.489V5.25c0-3.231-2.41-5.25-5.062-5.25-2.651 0-5.062 2.226-5.062 5.011z" fill="#F9AB00"/><path d="M13.758 21v15.511c0 3.525 2.456 5.49 5.061 5.49 2.41 0 5.062-1.671 5.062-5.49V21.24c0-3.231-2.41-5.25-5.062-5.25-2.651 0-5.061 2.226-5.061 5.011zM5.562 42c2.795 0 5.062-2.244 5.062-5.012 0-2.767-2.267-5.01-5.062-5.01C2.766 31.977.5 34.22.5 36.987.5 39.756 2.766 42 5.562 42z" fill="#E37400"/></svg>