<svg width="40" height="41" fill="none" xmlns="http://www.w3.org/2000/svg"><path d="M30.311 13.253V8.46a3.694 3.694 0 002.131-3.327v-.11a3.694 3.694 0 00-3.696-3.691h-.11a3.688 3.688 0 00-3.696 3.691v.11a3.688 3.688 0 002.13 3.327v4.793a10.474 10.474 0 00-4.977 2.188L8.93 5.202a4.11 4.11 0 00.149-1.035A4.154 4.154 0 006.515.319a4.17 4.17 0 00-4.54.894 4.157 4.157 0 002.934 7.104 4.124 4.124 0 002.05-.557l12.963 10.072a10.473 10.473 0 00.16 11.81L16.14 33.58a3.391 3.391 0 00-.985-.16 3.423 3.423 0 00-3.157 2.11 3.41 3.41 0 00.742 3.72 3.42 3.42 0 005.838-2.412 3.365 3.365 0 00-.16-.984l3.9-3.896a10.526 10.526 0 0016.088-4.2 10.489 10.489 0 00-3.678-12.751 10.525 10.525 0 00-4.417-1.754zm-1.616 15.764a5.4 5.4 0 01-5.12-3.29 5.383 5.383 0 013.01-7.116 5.402 5.402 0 012.11-.367 5.399 5.399 0 013.691 1.641 5.384 5.384 0 01.004 7.484 5.399 5.399 0 01-3.69 1.645" fill="#FF7A59"/></svg>