<svg width="46" height="46" fill="none" xmlns="http://www.w3.org/2000/svg"><path d="M37.875 10.857a2.732 2.732 0 10-5.465 0 2.732 2.732 0 005.465 0z" fill="url(#paint0_linear)"/><path d="M41.516 32.192c-.101 2.218-.472 3.423-.78 4.224-.414 1.061-.908 1.82-1.708 2.616-.792.796-1.55 1.289-2.612 1.698-.8.313-2.01.685-4.229.79-2.398.106-3.108.128-9.19.128-6.076 0-6.792-.022-9.19-.128-2.218-.105-3.422-.478-4.223-.79-1.067-.41-1.82-.902-2.616-1.698-.802-.796-1.295-1.555-1.704-2.616-.308-.8-.684-2.006-.78-4.224-.117-2.398-.138-3.12-.138-9.19 0-6.08.021-6.797.138-9.195.096-2.218.472-3.422.78-4.23.409-1.06.902-1.814 1.704-2.61.796-.795 1.55-1.289 2.616-1.703.8-.313 2.005-.68 4.223-.785 2.398-.106 3.114-.133 9.19-.133 6.082 0 6.792.027 9.19.133 2.219.105 3.428.472 4.229.785 1.061.414 1.82.908 2.612 1.703.8.796 1.294 1.55 1.708 2.61.308.808.679 2.012.78 4.23.111 2.398.138 3.114.138 9.196 0 6.069-.027 6.79-.138 9.189zm4.096-18.572c-.112-2.424-.494-4.08-1.062-5.522-.578-1.497-1.352-2.765-2.62-4.033-1.263-1.263-2.531-2.037-4.028-2.622C36.454.88 34.804.494 32.378.388c-2.425-.117-3.2-.138-9.38-.138-6.177 0-6.957.021-9.382.138-2.42.106-4.07.493-5.524 1.055-1.49.585-2.759 1.36-4.022 2.622C2.802 5.333 2.028 6.6 1.444 8.098.882 9.54.5 11.196.383 13.62.277 16.046.25 16.821.25 23.003c0 6.176.027 6.95.133 9.375.117 2.42.499 4.075 1.061 5.524.584 1.491 1.358 2.765 2.626 4.027 1.263 1.263 2.531 2.043 4.022 2.627 1.455.562 3.104.944 5.524 1.056 2.425.111 3.205.138 9.381.138 6.182 0 6.956-.027 9.381-.138 2.426-.112 4.076-.494 5.524-1.056 1.497-.584 2.765-1.364 4.027-2.627 1.269-1.262 2.043-2.536 2.621-4.027.568-1.449.95-3.104 1.062-5.524.111-2.425.138-3.2.138-9.375 0-6.182-.027-6.957-.138-9.383z" fill="url(#paint1_linear)"/><path d="M22.997 30.58a7.58 7.58 0 01-7.582-7.577 7.585 7.585 0 1115.17 0c0 4.186-3.4 7.577-7.588 7.577zm0-19.267c-6.452 0-11.678 5.237-11.678 11.69 0 6.447 5.226 11.678 11.678 11.678 6.453 0 11.684-5.231 11.684-11.678 0-6.453-5.231-11.69-11.684-11.69z" fill="url(#paint2_linear)"/><defs><linearGradient id="paint0_linear" x1=".66" y1="45.28" x2="41.96" y2="3.98" gradientUnits="userSpaceOnUse"><stop stop-color="#FFD521"/><stop offset=".05" stop-color="#FFD521"/><stop offset=".501" stop-color="#F50000"/><stop offset=".95" stop-color="#B900B4"/><stop offset=".95" stop-color="#B900B4"/><stop offset="1" stop-color="#B900B4"/></linearGradient><linearGradient id="paint1_linear" x1=".66" y1="45.336" x2="41.994" y2="4.002" gradientUnits="userSpaceOnUse"><stop stop-color="#FFD521"/><stop offset=".05" stop-color="#FFD521"/><stop offset=".501" stop-color="#F50000"/><stop offset=".95" stop-color="#B900B4"/><stop offset=".95" stop-color="#B900B4"/><stop offset="1" stop-color="#B900B4"/></linearGradient><linearGradient id="paint2_linear" x1=".671" y1="45.337" x2="41.995" y2="4.014" gradientUnits="userSpaceOnUse"><stop stop-color="#FFD521"/><stop offset=".05" stop-color="#FFD521"/><stop offset=".501" stop-color="#F50000"/><stop offset=".95" stop-color="#B900B4"/><stop offset=".95" stop-color="#B900B4"/><stop offset="1" stop-color="#B900B4"/></linearGradient></defs></svg>