<svg width="43" height="42" fill="none" xmlns="http://www.w3.org/2000/svg"><path d="M35.787 35.787h-6.223V26.04c0-2.324-.042-5.316-3.237-5.316-3.241 0-3.737 2.532-3.737 5.147v9.914h-6.223v-20.04h5.974v2.739h.084a6.548 6.548 0 015.894-3.238c6.308 0 7.47 4.149 7.47 9.546l-.002 10.995zM9.345 13.005a3.611 3.611 0 11-.002-7.222 3.611 3.611 0 01.002 7.222zm3.111 22.782h-6.23V15.745h6.23v20.042zM38.89.003H3.1A3.065 3.065 0 000 3.03v35.94A3.067 3.067 0 003.1 42h35.79A3.074 3.074 0 0042 38.97V3.027A3.071 3.071 0 0038.89 0" fill="#0A66C2"/></svg>