<svg width="56" height="40" fill="none" xmlns="http://www.w3.org/2000/svg"><path d="M23.292 5.038c1.81-1.875 4.33-3.06 7.11-3.06 3.706 0 6.917 2.069 8.64 5.128a11.913 11.913 0 014.892-1.034C50.614 6.072 56 11.523 56 18.246S50.592 30.42 43.934 30.42c-.819 0-1.616-.086-2.37-.237a8.836 8.836 0 01-7.714 4.525 8.892 8.892 0 01-3.857-.884c-1.53 3.599-5.106 6.141-9.265 6.141-4.33 0-8.037-2.736-9.46-6.593a9.49 9.49 0 01-1.917.194c-5.17 0-9.351-4.224-9.351-9.46 0-3.49 1.875-6.55 4.676-8.187a10.671 10.671 0 01-.905-4.331C3.749 5.62 8.64.75 14.63.75c3.533 0 6.679 1.68 8.661 4.288z" fill="#00A1E0"/><path d="M8.102 21.09l.237-.625c.043-.108.107-.064.15-.043.065.043.108.065.194.13a2.68 2.68 0 001.487.43c.496 0 .819-.258.819-.625v-.021c0-.388-.474-.539-1.034-.711l-.13-.043c-.754-.216-1.572-.539-1.572-1.487v-.022c0-.905.732-1.551 1.788-1.551h.108c.625 0 1.206.172 1.637.453.043.021.086.064.065.129-.022.064-.216.56-.237.625-.043.107-.151.043-.151.043a3.275 3.275 0 00-1.465-.366c-.453 0-.733.236-.733.56v.021c0 .367.496.539 1.056.711l.108.022c.754.237 1.551.56 1.551 1.486v.022c0 .991-.71 1.595-1.853 1.595-.56 0-1.099-.087-1.68-.388-.108-.065-.216-.108-.324-.194-.021-.043-.064-.065-.021-.151zm16.806 0l.237-.625c.043-.108.13-.064.151-.043.065.043.108.065.194.13a2.68 2.68 0 001.487.43c.495 0 .818-.258.818-.625v-.021c0-.388-.474-.539-1.034-.711l-.13-.043c-.753-.216-1.572-.539-1.572-1.487v-.022c0-.905.733-1.551 1.788-1.551h.108c.625 0 1.207.172 1.638.453.043.021.086.064.064.129-.021.064-.215.56-.237.625-.043.107-.15.043-.15.043a3.274 3.274 0 00-1.466-.366c-.452 0-.732.236-.732.56v.021c0 .367.495.539 1.056.711l.107.022c.754.237 1.552.56 1.552 1.486v.022c0 .991-.711 1.595-1.854 1.595-.56 0-1.098-.087-1.68-.388-.108-.065-.216-.108-.323-.194 0-.043-.043-.065-.022-.151zm12.454-2.952c.086.323.151.668.151 1.034 0 .367-.043.711-.15 1.034a2.223 2.223 0 01-.432.84 2.068 2.068 0 01-.732.561c-.302.13-.647.194-1.035.194-.387 0-.732-.065-1.034-.194a1.905 1.905 0 01-.732-.56 2.225 2.225 0 01-.431-.84 3.998 3.998 0 01-.151-1.035c0-.366.043-.71.15-1.034.087-.323.238-.603.432-.84s.452-.431.732-.56c.302-.13.647-.216 1.034-.216.388 0 .733.065 1.035.216.301.129.538.323.732.56.194.237.345.517.431.84zm-.97 1.013c0-.56-.107-.991-.301-1.293-.194-.302-.517-.453-.927-.453-.43 0-.732.151-.926.453-.194.302-.302.732-.302 1.293 0 .56.108.99.302 1.314.194.302.495.453.926.453.431 0 .733-.151.927-.453.215-.302.302-.754.302-1.314zm8.856 1.616l.237.646c.022.086-.043.108-.043.108-.366.15-.862.237-1.357.237-.84 0-1.465-.237-1.896-.711-.431-.474-.647-1.12-.647-1.918 0-.366.043-.71.151-1.034.108-.323.259-.603.474-.84a2.24 2.24 0 01.776-.56 2.74 2.74 0 011.077-.216c.28 0 .517.021.711.043.216.043.517.108.647.172.021 0 .086.044.064.108a9.79 9.79 0 01-.237.646c-.043.108-.108.065-.108.065a3.03 3.03 0 00-1.012-.15c-.474 0-.84.15-1.056.473-.237.302-.366.711-.366 1.272 0 .603.15 1.034.41 1.314.258.28.624.41 1.098.41.194 0 .366-.022.517-.044a1.79 1.79 0 00.453-.129c-.022.043.064.022.107.108zm4.891-2.823c.216.733.108 1.358.087 1.4 0 .087-.087.087-.087.087h-3.253c.021.495.13.84.388 1.077.237.237.603.388 1.12.388.776 0 1.099-.15 1.336-.237 0 0 .086-.021.13.065l.215.603c.043.108 0 .13-.022.15-.194.108-.69.324-1.637.324-.453 0-.862-.065-1.185-.194a2.173 2.173 0 01-.82-.539 2.397 2.397 0 01-.473-.818 3.248 3.248 0 01-.151-1.035c0-.366.043-.71.15-1.034.087-.323.238-.603.432-.84a1.98 1.98 0 01.754-.56c.302-.151.668-.216 1.077-.216a2.1 2.1 0 01.927.194c.194.086.41.237.625.474.107.086.301.41.387.711zm-3.232.69h2.306c-.022-.302-.086-.56-.216-.776-.194-.302-.474-.474-.904-.474-.432 0-.733.172-.927.474-.13.194-.194.452-.259.776zm-22.774-.69c.215.733.107 1.358.107 1.4 0 .087-.086.087-.086.087h-3.253c.021.495.129.84.387 1.077.237.237.604.388 1.12.388.776 0 1.1-.15 1.337-.237 0 0 .086-.021.129.065l.215.603c.044.108 0 .13-.021.15-.194.108-.69.324-1.638.324-.452 0-.862-.065-1.185-.194a2.173 2.173 0 01-.819-.539 2.399 2.399 0 01-.474-.818 3.248 3.248 0 01-.15-1.035c0-.366.043-.71.15-1.034.087-.323.237-.603.431-.84a1.98 1.98 0 01.755-.56c.301-.151.667-.216 1.077-.216.345 0 .668.065.926.194.194.086.41.237.625.474.086.086.302.41.367.711zm-3.232.69h2.326c-.021-.302-.086-.56-.215-.776-.194-.302-.474-.474-.905-.474-.43 0-.732.172-.926.474-.151.194-.216.452-.28.776zm-5.71-.173s.258.022.538.065v-.13c0-.43-.086-.646-.258-.775-.173-.13-.453-.215-.798-.215 0 0-.797 0-1.422.323-.021.021-.043.021-.043.021s-.086.022-.107-.043l-.238-.625c-.043-.086.022-.129.022-.129.302-.237.991-.366.991-.366a5.84 5.84 0 01.862-.087c.646 0 1.142.151 1.487.453.345.302.517.776.517 1.444v2.973s0 .086-.065.108c0 0-.129.043-.237.064-.107.022-.495.108-.819.151a4.994 4.994 0 01-.99.086 3.53 3.53 0 01-.863-.086 2.084 2.084 0 01-.668-.28 1.46 1.46 0 01-.43-.517c-.108-.194-.151-.453-.151-.733 0-.28.064-.538.172-.754a1.62 1.62 0 01.474-.538c.194-.151.431-.237.668-.324.259-.064.517-.107.797-.107a6.3 6.3 0 00.56.021zm-1.293 2.284s.301.237.948.194a6.17 6.17 0 00.883-.108v-1.486s-.41-.065-.883-.065c-.668 0-.948.237-.948.237-.194.13-.28.345-.28.625a.85.85 0 00.107.43c.022.044.043.087.173.173zm27.472-3.943c-.022.086-.194.539-.237.69-.022.064-.065.086-.13.086 0 0-.193-.043-.366-.043-.107 0-.28.021-.43.064-.151.043-.28.13-.41.237-.13.108-.215.28-.28.474-.065.194-.108.518-.108.862v2.413c0 .065-.043.108-.108.108h-.861c-.065 0-.108-.043-.108-.108v-4.848c0-.064.043-.107.086-.107h.84c.065 0 .086.043.086.108v.387a1.44 1.44 0 01.54-.409c.193-.086.43-.15.84-.13.215.022.495.065.538.087.086.021.13.043.108.13zm-7.994-2.24c.022 0 .086.042.065.107l-.259.69c-.021.043-.043.086-.15.043-.022 0-.065-.022-.173-.043-.065-.022-.172-.022-.259-.022-.129 0-.237.021-.344.043a.555.555 0 00-.28.172 1.093 1.093 0 00-.238.345 3.232 3.232 0 00-.172.733H32.6c.087 0 .108.043.108.108l-.13.668c-.02.107-.107.086-.107.086h-1.077l-.69 4.158a8.023 8.023 0 01-.28 1.099 2.06 2.06 0 01-.43.733c-.173.194-.367.344-.604.409-.216.086-.496.13-.797.13-.151 0-.302 0-.474-.044a1.232 1.232 0 01-.302-.086c-.043-.021-.065-.065-.043-.13.021-.064.215-.581.237-.667.043-.086.108-.043.108-.043.064.021.107.043.172.064.086.022.172.022.259.022.15 0 .28-.022.387-.065.13-.043.216-.129.302-.237.086-.108.15-.258.237-.452.065-.194.13-.474.194-.797l.733-4.073h-.711c-.087 0-.108-.043-.108-.108l.13-.668c.02-.107.107-.086.107-.086h.732l.043-.215c.108-.647.324-1.142.647-1.465.323-.323.797-.496 1.379-.496.172 0 .323.022.452.043a.516.516 0 01.302.043zm-14.522 7.002c0 .065-.044.108-.087.108h-.861c-.065 0-.087-.043-.087-.108v-6.916c0-.044.043-.108.087-.108h.861c.065 0 .087.043.087.108v6.916z" fill="#fff"/></svg>