<svg width="48" height="48" xmlns="http://www.w3.org/2000/svg"><g fill="none"><path d="M17.215 0a4.694 4.694 0 10.002 9.39h4.696V4.696A4.699 4.699 0 0017.215 0c.002 0 .002 0 0 0m0 12.522H4.696a4.696 4.696 0 00-.002 9.391h12.521a4.696 4.696 0 100-9.391z" fill="#36C5F0"/><path d="M48 17.216a4.696 4.696 0 00-4.696-4.694 4.696 4.696 0 00-4.697 4.694v4.697h4.697A4.696 4.696 0 0048 17.216zm-12.522 0V4.695a4.697 4.697 0 00-9.391 0v12.521a4.696 4.696 0 109.391 0z" fill="#2EB67D"/><path d="M30.783 48a4.695 4.695 0 100-9.389h-4.696v4.695A4.698 4.698 0 0030.783 48zm0-12.523h12.52a4.695 4.695 0 00.003-9.39H30.785a4.695 4.695 0 00-.002 9.39z" fill="#ECB22E"/><path d="M0 30.782a4.696 4.696 0 004.696 4.694 4.696 4.696 0 004.697-4.694v-4.695H4.696A4.696 4.696 0 000 30.782zm12.522 0v12.521a4.696 4.696 0 009.391.002v-12.52a4.696 4.696 0 00-9.391-.003s0 .002 0 0" fill="#E01E5A"/></g></svg>