<svg width="46" height="38" fill="none" xmlns="http://www.w3.org/2000/svg"><path d="M14.616 37.543c17.056 0 26.383-14.096 26.383-26.319 0-.4-.008-.799-.026-1.195a18.83 18.83 0 004.625-4.79 18.527 18.527 0 01-5.325 1.456 9.287 9.287 0 004.078-5.116 18.623 18.623 0 01-5.888 2.245A9.273 9.273 0 0031.693.9c-5.12 0-9.273 4.143-9.273 9.25 0 .725.082 1.431.24 2.109A26.35 26.35 0 013.548 2.595a9.208 9.208 0 00-1.256 4.65 9.237 9.237 0 004.127 7.699 9.222 9.222 0 01-4.2-1.157l-.001.118c0 4.48 3.196 8.22 7.44 9.068a9.307 9.307 0 01-4.189.159 9.28 9.28 0 008.663 6.425 18.632 18.632 0 01-11.517 3.96c-.748 0-1.487-.043-2.212-.129a26.295 26.295 0 0014.214 4.155" fill="#1DA1F2"/></svg>