<svg width="42" height="42" fill="none" xmlns="http://www.w3.org/2000/svg"><mask id="a" maskUnits="userSpaceOnUse" x="0" y="0" width="42" height="42"><path d="M0 42h42V0H0v42z" fill="#fff"/></mask><g mask="url(#a)"><path fill-rule="evenodd" clip-rule="evenodd" d="M26.25 21.01c0 1.56-.286 3.053-.806 4.433a12.57 12.57 0 01-4.435.807h-.018a12.565 12.565 0 01-4.433-.806 12.562 12.562 0 01-.808-4.435v-.018a12.58 12.58 0 01.806-4.433 12.56 12.56 0 014.435-.808h.018c1.561 0 3.056.287 4.434.808.52 1.378.806 2.872.807 4.433v.018zm15.458-3.51H29.45l8.668-8.668a21.111 21.111 0 00-4.95-4.95L24.5 12.55V.292A21.13 21.13 0 0021.011 0h-.022A21.13 21.13 0 0017.5.292V12.55L8.832 3.882a21.1 21.1 0 00-2.68 2.268l-.004.003a21.106 21.106 0 00-2.265 2.68L12.55 17.5H.292S0 19.802 0 20.992v.015c0 1.19.101 2.357.292 3.493H12.55l-8.667 8.668a21.118 21.118 0 004.95 4.95L17.5 29.45v12.258c1.134.19 2.297.291 3.485.292h.03c1.188 0 2.351-.102 3.485-.292V29.45l8.668 8.667a21.11 21.11 0 002.68-2.267l.002-.002a21.13 21.13 0 002.267-2.68L29.45 24.5h12.258c.19-1.134.291-2.297.292-3.485v-.03c0-1.188-.102-2.351-.292-3.485z" fill="#FF4A00"/></g></svg>