<svg width="61" height="48" xmlns="http://www.w3.org/2000/svg"><g fill="none"><path d="M9.832 32.308l-3.2 1.11-.17 9.044 11.076-3.845c-3.802-1.21-6.575-3.342-7.706-6.31" fill="#FDBD39"/><path d="M11.077 23.077L0 27.075l6.214 7.079 3.192-1.152c-1.126-3.069-.43-6.533 1.67-9.925" fill="#F69833"/><path d="M29.557 10.073C15.18 15.097 5.907 25.467 8.854 33.23l52.07-18.196c-2.948-7.764-16.988-9.986-31.367-4.962" fill="#FECF33"/><path d="M39.67 38.84c14.378-5.022 23.664-15.34 20.703-23.148L8.308 33.877c2.962 7.81 16.985 9.985 31.363 4.963" fill="#EE6723"/><path d="M59.752 15.692L9.231 33.842c.988 2.682 4.762 4.004 10.054 4.004 5.162 0 11.768-1.255 18.655-3.729 13.952-5.011 23.766-13.127 21.812-18.425" fill="#F69833"/><path d="M49.943 11.077c-5.158 0-11.767 1.255-18.653 3.73C17.338 19.817 7.525 27.932 9.479 33.23L60 15.08c-.99-2.684-4.762-4.003-10.057-4.003" fill="#FDBD39"/><g fill="#EE6723"><path d="M47.862 44.08c-1.493 0-3.694-1.334-6.545-3.967-3.372-3.114-7.232-7.677-10.876-12.847-3.641-5.169-6.633-10.335-8.426-14.552-1.952-4.593-2.231-7.415-.828-8.393.324-.22.71-.331 1.103-.321 1.14 0 3.366.84 7.479 4.85l.09.087-.012.124c-.028.29-.053.579-.076.866l-.045.566-.403-.402c-4.432-4.42-6.381-4.897-7.016-4.897-.181 0-.325.035-.428.107-.61.424-.65 2.499 1.244 6.95 1.76 4.139 4.71 9.228 8.303 14.33 3.596 5.104 7.398 9.597 10.712 12.657 3.57 3.299 5.18 3.655 5.706 3.655a.751.751 0 00.438-.114c.642-.447.642-2.668-1.468-7.461l-.098-.22.212-.114c.211-.115.418-.227.609-.337l.254-.142.119.264c1.495 3.397 2.896 7.713 1.06 8.99a1.897 1.897 0 01-1.108.321zm.038-.523v.261-.261z"/><path d="M40.93 37.961l-.02.26c-.356 4.338-1.288 9.555-3.72 9.767-.05.005-.101.005-.149.005-1.652 0-3.216-2.344-4.643-6.965-1.355-4.373-2.405-10.243-2.957-16.53-.554-6.285-.546-12.247.023-16.788.62-4.947 1.798-7.53 3.505-7.68.05-.005.103-.008.154-.008 1.198 0 3.004 1.344 4.852 7.603l-1.206.23c-.617-2.09-1.29-3.79-1.956-4.963-.617-1.08-1.22-1.675-1.69-1.675-.015 0-.03 0-.048.002-.74.065-1.818 1.84-2.418 6.638-.559 4.458-.566 10.333-.02 16.537.547 6.206 1.58 11.989 2.909 16.283.594 1.922 1.246 3.508 1.889 4.583.589.992 1.16 1.538 1.606 1.538.015 0 .03 0 .045-.002.708-.06 2.043-1.91 2.604-8.416l1.24-.419z"/></g></g></svg>